<?xml version="1.0" encoding="utf-8"?>
<!-- Generator: Adobe Illustrator 23.0.0, SVG Export Plug-In . SVG Version: 6.00 Build 0)  -->
<svg version="1.1" id="Layer_1" xmlns="http://www.w3.org/2000/svg" xmlns:xlink="http://www.w3.org/1999/xlink" x="0px" y="0px"
	 viewBox="0 0 182.66 52.5" style="enable-background:new 0 0 182.66 52.5;" xml:space="preserve">
<style type="text/css">
	.st0{fill:#F1F2F2;stroke:#808285;stroke-width:0.8;stroke-miterlimit:10;}
	.st1{fill:#464A4C;}
</style>
<path class="st0" d="M162.19,51.15H19.09c-9.5,0-17.28-7.78-17.28-17.28V19.43c0-9.5,7.78-17.28,17.28-17.28h143.11
	c9.5,0,17.28,7.78,17.28,17.28v14.44C179.47,43.38,171.7,51.15,162.19,51.15z"/>
<g>
	<path class="st1" d="M23.46,23.22v3.96c0,0.88-0.2,1.51-0.61,1.89c-0.41,0.38-1.01,0.57-1.81,0.57c-0.78,0-1.36-0.2-1.72-0.6
		c-0.37-0.4-0.55-1.04-0.55-1.92v-3.91h0.73v4.05c0,0.28,0.03,0.53,0.08,0.75c0.05,0.21,0.14,0.4,0.26,0.55
		c0.12,0.15,0.28,0.27,0.48,0.34c0.19,0.08,0.42,0.12,0.7,0.12c0.31,0,0.58-0.04,0.8-0.11s0.39-0.18,0.53-0.34
		c0.13-0.15,0.23-0.35,0.29-0.59s0.09-0.54,0.09-0.89v-3.89H23.46z"/>
	<path class="st1" d="M29.62,23.22v6.33h-0.75v-2.87h-3.34v2.87H24.8v-6.33h0.73v2.84h3.34v-2.84H29.62z"/>
	<path class="st1" d="M32.81,23.22c0.5,0,0.93,0.06,1.31,0.18c0.38,0.11,0.7,0.3,0.96,0.55s0.45,0.58,0.59,0.99
		c0.14,0.41,0.2,0.9,0.2,1.48c0,0.6-0.08,1.1-0.24,1.5c-0.16,0.4-0.4,0.72-0.69,0.96c-0.29,0.24-0.65,0.41-1.05,0.52
		c-0.4,0.1-0.85,0.15-1.34,0.15h-1.53v-6.33H32.81z M32.54,28.93c0.41,0,0.77-0.04,1.09-0.12c0.31-0.08,0.58-0.22,0.8-0.42
		c0.22-0.2,0.38-0.47,0.49-0.81c0.12-0.34,0.16-0.77,0.16-1.29c0-0.85-0.19-1.47-0.56-1.87c-0.38-0.39-0.95-0.59-1.7-0.59h-1.07v5.1
		H32.54z"/>
	<path class="st1" d="M41.74,29.65c-0.95-0.01-1.65-0.28-2.08-0.82c-0.43-0.55-0.65-1.36-0.65-2.44c0-0.57,0.06-1.06,0.2-1.47
		c0.12-0.41,0.31-0.75,0.56-1.02s0.55-0.46,0.89-0.59c0.36-0.12,0.75-0.19,1.2-0.19c0.41,0,0.79,0.07,1.13,0.2
		c0.34,0.14,0.62,0.33,0.84,0.59l-0.45,0.44c-0.18-0.19-0.38-0.34-0.62-0.45s-0.53-0.16-0.88-0.16c-0.73,0-1.27,0.23-1.61,0.7
		c-0.33,0.46-0.5,1.14-0.5,2.04c0,0.82,0.16,1.45,0.47,1.89c0.32,0.43,0.83,0.65,1.52,0.65c0.42,0,0.79-0.04,1.09-0.12
		c0.3-0.08,0.56-0.16,0.78-0.25l0.2,0.57c-0.24,0.11-0.54,0.22-0.91,0.31S42.15,29.65,41.74,29.65z"/>
	<path class="st1" d="M46.54,29.65c-0.38,0-0.7-0.05-0.95-0.16c-0.25-0.11-0.45-0.26-0.6-0.46c-0.15-0.2-0.25-0.45-0.31-0.73
		s-0.09-0.61-0.09-0.98c0-0.77,0.17-1.35,0.51-1.72s0.88-0.56,1.64-0.56c0.37,0,0.68,0.05,0.94,0.16s0.45,0.26,0.6,0.46
		c0.16,0.2,0.27,0.45,0.33,0.73s0.09,0.61,0.09,0.98c0,0.77-0.17,1.34-0.53,1.71C47.81,29.47,47.28,29.65,46.54,29.65z M46.54,29.09
		c0.53,0,0.91-0.15,1.11-0.45c0.2-0.3,0.3-0.75,0.3-1.35c0-0.23-0.02-0.45-0.05-0.65c-0.04-0.2-0.1-0.38-0.18-0.54
		c-0.09-0.16-0.22-0.28-0.38-0.37s-0.36-0.14-0.6-0.14c-0.54,0-0.91,0.16-1.11,0.47c-0.2,0.31-0.3,0.76-0.3,1.35
		c0,0.24,0.02,0.46,0.06,0.66c0.03,0.2,0.09,0.38,0.19,0.53c0.08,0.15,0.2,0.27,0.36,0.36S46.29,29.09,46.54,29.09z"/>
	<path class="st1" d="M50.28,25.15l0.02,0.38c0.08-0.05,0.16-0.11,0.25-0.16c0.09-0.05,0.19-0.09,0.3-0.14
		c0.28-0.12,0.58-0.18,0.89-0.18c0.28,0,0.52,0.04,0.69,0.11c0.18,0.07,0.31,0.18,0.41,0.32l0.05,0.08
		c0.18-0.14,0.38-0.25,0.59-0.33c0.31-0.12,0.62-0.18,0.95-0.18c0.28,0,0.51,0.04,0.69,0.11s0.31,0.18,0.41,0.32
		c0.11,0.14,0.17,0.32,0.2,0.52c0.04,0.21,0.06,0.45,0.06,0.71v2.83h-0.73v-2.67c0-0.19-0.01-0.36-0.02-0.51
		c-0.02-0.16-0.06-0.29-0.12-0.39s-0.14-0.19-0.24-0.25c-0.11-0.06-0.25-0.09-0.43-0.09c-0.16,0-0.32,0.02-0.47,0.07
		s-0.29,0.11-0.43,0.18c-0.05,0.02-0.09,0.05-0.15,0.09s-0.1,0.07-0.16,0.11c0.02,0.09,0.02,0.2,0.03,0.3s0.01,0.22,0.01,0.33v2.83
		h-0.73v-2.67c0-0.19,0-0.36-0.02-0.51c-0.02-0.16-0.05-0.29-0.11-0.39c-0.06-0.11-0.14-0.19-0.25-0.25s-0.25-0.09-0.42-0.09
		c-0.31,0-0.62,0.08-0.9,0.25c-0.04,0.02-0.09,0.05-0.13,0.08c-0.05,0.03-0.09,0.06-0.13,0.09v3.48h-0.73v-3.23l-0.08-1.17H50.28z"
		/>
	<path class="st1" d="M57.57,25.15l0.02,0.38c0.08-0.05,0.16-0.11,0.25-0.16c0.09-0.05,0.18-0.09,0.29-0.14
		c0.28-0.12,0.58-0.18,0.89-0.18c0.29,0,0.52,0.04,0.7,0.11s0.31,0.18,0.41,0.32l0.05,0.08c0.18-0.14,0.38-0.25,0.59-0.33
		c0.3-0.12,0.62-0.18,0.95-0.18c0.28,0,0.5,0.04,0.69,0.11c0.17,0.07,0.31,0.18,0.41,0.32c0.11,0.14,0.17,0.32,0.21,0.52
		s0.05,0.45,0.05,0.71v2.83h-0.72v-2.67c0-0.19-0.02-0.36-0.03-0.51c-0.02-0.16-0.06-0.29-0.11-0.39c-0.06-0.11-0.14-0.19-0.25-0.25
		s-0.25-0.09-0.42-0.09c-0.16,0-0.32,0.02-0.47,0.07c-0.16,0.04-0.3,0.11-0.43,0.18c-0.05,0.02-0.1,0.05-0.15,0.09
		c-0.05,0.03-0.11,0.07-0.16,0.11c0.02,0.09,0.02,0.2,0.03,0.3c0,0.11,0,0.22,0,0.33v2.83h-0.73v-2.67c0-0.19-0.01-0.36-0.02-0.51
		c-0.02-0.16-0.05-0.29-0.11-0.39s-0.14-0.19-0.25-0.25c-0.1-0.06-0.24-0.09-0.42-0.09c-0.31,0-0.61,0.08-0.89,0.25
		c-0.05,0.02-0.09,0.05-0.14,0.08c-0.04,0.03-0.09,0.06-0.12,0.09v3.48h-0.73v-3.23l-0.08-1.17H57.57z"/>
	<path class="st1" d="M66.06,29.65c-0.39,0-0.71-0.05-0.97-0.14c-0.26-0.09-0.47-0.24-0.62-0.43c-0.16-0.2-0.27-0.43-0.34-0.73
		c-0.06-0.29-0.1-0.64-0.1-1.03c0-0.77,0.16-1.35,0.5-1.72s0.84-0.56,1.52-0.56c0.37,0,0.66,0.05,0.89,0.16s0.41,0.26,0.54,0.45
		c0.14,0.19,0.23,0.42,0.27,0.68s0.07,0.55,0.07,0.85v0.35h-3.04c0,0.25,0.02,0.46,0.05,0.63c0.09,0.35,0.24,0.59,0.45,0.71
		c0.22,0.13,0.52,0.2,0.88,0.2c0.31,0,0.59-0.04,0.82-0.12c0.24-0.08,0.43-0.16,0.57-0.23l0.2,0.5c-0.08,0.05-0.17,0.11-0.3,0.16
		s-0.27,0.1-0.41,0.14c-0.16,0.04-0.32,0.08-0.49,0.1C66.38,29.64,66.21,29.65,66.06,29.65z M67.05,26.99
		c0-0.52-0.09-0.89-0.27-1.09c-0.18-0.2-0.43-0.31-0.74-0.31c-0.37,0-0.64,0.08-0.84,0.24c-0.19,0.16-0.31,0.41-0.38,0.74
		c-0.01,0.07-0.02,0.13-0.03,0.2s-0.01,0.14-0.02,0.22H67.05z"/>
	<path class="st1" d="M69.35,25.15l0.08,0.61c0.18-0.21,0.38-0.38,0.59-0.48c0.29-0.15,0.58-0.23,0.88-0.23
		c0.24,0,0.43,0.04,0.59,0.12l-0.2,0.61c-0.12-0.06-0.3-0.09-0.51-0.09c-0.27,0-0.52,0.08-0.76,0.24c-0.09,0.06-0.17,0.12-0.25,0.2
		c-0.08,0.07-0.16,0.16-0.25,0.25v3.18H68.8v-3.2l-0.1-1.2H69.35z"/>
	<path class="st1" d="M75.09,29.3c-0.14,0.08-0.34,0.16-0.6,0.24c-0.26,0.07-0.54,0.11-0.85,0.11c-0.73,0-1.25-0.2-1.57-0.58
		s-0.48-0.94-0.48-1.66c0-0.79,0.18-1.39,0.55-1.78c0.38-0.39,0.93-0.59,1.67-0.59c0.27,0,0.53,0.05,0.77,0.14s0.43,0.22,0.57,0.38
		L74.71,26c-0.11-0.12-0.24-0.22-0.4-0.29s-0.34-0.11-0.52-0.11c-0.48,0-0.84,0.15-1.09,0.44s-0.38,0.76-0.38,1.4
		c0,0.24,0.02,0.46,0.08,0.67c0.05,0.2,0.12,0.37,0.23,0.52s0.25,0.26,0.44,0.34c0.17,0.08,0.38,0.12,0.63,0.12
		c0.26,0,0.48-0.03,0.68-0.08c0.19-0.05,0.38-0.12,0.54-0.2L75.09,29.3z"/>
	<path class="st1" d="M75.93,23.34h0.74v0.77h-0.74V23.34z M75.95,25.15h0.73v4.4h-0.73V25.15z"/>
	<path class="st1" d="M81.57,29.57c-0.06,0.01-0.11,0.02-0.12,0.02H81.3c-0.23,0-0.39-0.04-0.51-0.13c-0.11-0.09-0.2-0.21-0.26-0.37
		c-0.16,0.15-0.37,0.28-0.62,0.39c-0.26,0.11-0.55,0.17-0.91,0.17c-0.27,0-0.48-0.04-0.66-0.11c-0.19-0.07-0.33-0.17-0.44-0.29
		s-0.18-0.26-0.23-0.43c-0.04-0.16-0.07-0.34-0.07-0.53c0-0.27,0.05-0.49,0.14-0.66c0.09-0.17,0.23-0.3,0.39-0.41
		c0.17-0.1,0.36-0.18,0.59-0.21c0.22-0.04,0.48-0.06,0.75-0.06c0.18,0,0.34,0,0.47,0.02c0.14,0.01,0.29,0.02,0.47,0.03v-0.23
		c0-0.21-0.02-0.4-0.05-0.55c-0.03-0.15-0.09-0.27-0.16-0.36s-0.19-0.16-0.33-0.2c-0.14-0.04-0.31-0.06-0.52-0.06
		c-0.25,0-0.5,0.04-0.75,0.11s-0.45,0.14-0.62,0.22l-0.18-0.51c0.23-0.1,0.48-0.19,0.77-0.27c0.3-0.08,0.62-0.12,0.97-0.12
		c0.3,0,0.56,0.03,0.77,0.09c0.2,0.06,0.37,0.16,0.49,0.3c0.12,0.14,0.21,0.33,0.27,0.56s0.07,0.51,0.07,0.84v1.59
		c0,0.23,0.04,0.38,0.11,0.46c0.06,0.09,0.17,0.12,0.31,0.12V29.57z M79.43,27.51c-0.41,0-0.67,0.06-0.83,0.19
		c-0.15,0.12-0.22,0.32-0.22,0.57c0,0.29,0.06,0.5,0.19,0.62s0.35,0.19,0.66,0.19c0.21,0,0.42-0.05,0.63-0.14
		c0.21-0.09,0.4-0.2,0.56-0.33v-1.06c-0.17-0.01-0.33-0.02-0.48-0.03C79.78,27.52,79.62,27.51,79.43,27.51z"/>
	<path class="st1" d="M83.51,29.57c-0.01,0.01-0.04,0.01-0.09,0.01c-0.01,0-0.06,0.01-0.17,0.01c-0.34,0-0.58-0.1-0.7-0.29
		c-0.13-0.2-0.2-0.48-0.2-0.87v-5.43l0.72-0.11v5.52c0,0.27,0.03,0.43,0.1,0.5c0.06,0.07,0.17,0.11,0.34,0.11V29.57z"/>
	<path class="st1" d="M90.49,23.22v0.62h-2v5.71h-0.73v-5.71h-2v-0.62H90.49z"/>
	<path class="st1" d="M93.38,28.93l1.76-5.71h0.77l-2.03,6.33h-1.06l-2.16-6.33h0.81l1.84,5.71H93.38z"/>
	<path class="st1" d="M97.21,26.8c0.14,0.08,0.34,0.15,0.57,0.23c0.23,0.08,0.46,0.16,0.68,0.25c0.25,0.1,0.45,0.23,0.61,0.39
		c0.17,0.16,0.25,0.4,0.25,0.71c0,0.44-0.16,0.76-0.48,0.96c-0.32,0.2-0.77,0.3-1.38,0.3c-0.29,0-0.57-0.03-0.84-0.08
		c-0.28-0.05-0.51-0.13-0.7-0.23l0.23-0.55c0.16,0.09,0.34,0.15,0.57,0.2s0.48,0.08,0.74,0.08c0.14,0,0.28-0.01,0.42-0.03
		c0.13-0.02,0.25-0.04,0.36-0.09c0.09-0.04,0.19-0.11,0.25-0.19s0.09-0.2,0.09-0.34c0-0.28-0.18-0.48-0.54-0.61
		c-0.2-0.09-0.42-0.17-0.65-0.25c-0.23-0.07-0.44-0.15-0.62-0.23c-0.23-0.09-0.42-0.21-0.57-0.37C96.07,26.82,96,26.6,96,26.3
		c0-0.23,0.05-0.43,0.16-0.6s0.24-0.29,0.41-0.39c0.17-0.09,0.36-0.16,0.57-0.21c0.21-0.04,0.42-0.06,0.63-0.06
		c0.34,0,0.62,0.03,0.87,0.08s0.45,0.11,0.6,0.18l-0.23,0.55c-0.17-0.07-0.36-0.13-0.56-0.18c-0.2-0.05-0.44-0.07-0.69-0.07
		c-0.39,0-0.66,0.06-0.81,0.18s-0.23,0.26-0.23,0.42c0,0.14,0.03,0.26,0.11,0.35C96.9,26.64,97.03,26.72,97.21,26.8z"/>
</g>
</svg>
