<?xml version="1.0" encoding="utf-8"?>
<!-- Generator: Adobe Illustrator 23.0.0, SVG Export Plug-In . SVG Version: 6.00 Build 0)  -->
<svg version="1.1" id="Layer_1" xmlns="http://www.w3.org/2000/svg" xmlns:xlink="http://www.w3.org/1999/xlink" x="0px" y="0px"
	 viewBox="0 0 182.66 52.5" style="enable-background:new 0 0 182.66 52.5;" xml:space="preserve">
<style type="text/css">
	.st0{fill:#D1D3D4;stroke:#808285;stroke-width:0.8;stroke-miterlimit:10;}
	.st1{fill:#464A4C;}
</style>
<path class="st0" d="M162.57,50.87H19.47c-9.5,0-17.28-7.78-17.28-17.28V19.15c0-9.5,7.78-17.28,17.28-17.28h143.11
	c9.5,0,17.28,7.78,17.28,17.28v14.44C179.85,43.09,172.08,50.87,162.57,50.87z"/>
<g>
	<path class="st1" d="M21.81,26.81c-0.12-0.06-0.28-0.12-0.44-0.18c-0.17-0.06-0.34-0.13-0.52-0.2c-0.18-0.07-0.35-0.14-0.52-0.21
		c-0.17-0.07-0.33-0.15-0.46-0.23c-0.3-0.15-0.53-0.34-0.7-0.57s-0.25-0.54-0.25-0.93c0-0.29,0.06-0.53,0.17-0.73
		c0.12-0.21,0.28-0.38,0.48-0.52s0.44-0.23,0.7-0.3c0.28-0.07,0.56-0.1,0.88-0.1c0.71,0,1.34,0.13,1.84,0.38l-0.26,0.59
		c-0.19-0.08-0.41-0.16-0.68-0.24c-0.27-0.08-0.57-0.12-0.9-0.12c-0.47,0-0.83,0.09-1.09,0.26c-0.27,0.18-0.41,0.42-0.41,0.72
		c0,0.21,0.05,0.39,0.16,0.54c0.09,0.14,0.25,0.28,0.47,0.4c0.12,0.06,0.27,0.12,0.42,0.19c0.16,0.06,0.31,0.12,0.48,0.19
		c0.17,0.06,0.34,0.13,0.51,0.2s0.32,0.14,0.46,0.21c0.13,0.08,0.26,0.16,0.38,0.25c0.11,0.09,0.22,0.19,0.3,0.3
		c0.09,0.12,0.16,0.25,0.21,0.4c0.05,0.16,0.08,0.34,0.08,0.55c0,0.29-0.05,0.54-0.18,0.75c-0.11,0.21-0.27,0.39-0.47,0.53
		s-0.44,0.25-0.72,0.32c-0.27,0.07-0.58,0.11-0.9,0.11c-0.35,0-0.71-0.04-1.05-0.11c-0.36-0.07-0.67-0.18-0.95-0.32l0.28-0.57
		c0.29,0.13,0.56,0.23,0.83,0.29s0.55,0.1,0.87,0.1c0.52,0,0.91-0.09,1.16-0.28s0.38-0.43,0.38-0.74
		C22.41,27.32,22.21,27.01,21.81,26.81z"/>
	<path class="st1" d="M27.69,28.09l0.08,1.17h-0.69l-0.05-0.38c-0.16,0.11-0.34,0.21-0.58,0.3c-0.34,0.13-0.66,0.19-0.95,0.19
		c-0.29,0-0.53-0.04-0.71-0.11c-0.19-0.07-0.34-0.18-0.44-0.32s-0.18-0.32-0.22-0.52s-0.06-0.45-0.06-0.73v-2.82h0.72v2.67
		c0,0.18,0.01,0.36,0.03,0.51s0.07,0.29,0.12,0.39c0.06,0.11,0.15,0.19,0.27,0.25c0.12,0.05,0.27,0.09,0.46,0.09
		c0.16,0,0.33-0.02,0.49-0.07c0.16-0.04,0.3-0.1,0.44-0.17l0.36-0.2v-3.47h0.72V28.09z"/>
	<path class="st1" d="M29.45,24.87l0.08,0.32c0.19-0.13,0.38-0.23,0.56-0.29c0.27-0.09,0.53-0.14,0.8-0.14
		c0.62,0,1.08,0.2,1.38,0.58c0.29,0.39,0.44,0.94,0.44,1.66c0,0.34-0.05,0.66-0.12,0.96c-0.08,0.29-0.2,0.54-0.37,0.75
		c-0.17,0.21-0.39,0.37-0.66,0.49c-0.27,0.12-0.59,0.18-0.97,0.18c-0.23,0-0.43-0.03-0.6-0.09c-0.06-0.01-0.12-0.03-0.18-0.05
		c-0.06-0.02-0.12-0.05-0.19-0.08v2.17l-0.73,0.11v-5.44l-0.08-1.12H29.45z M30.53,28.8c0.45,0,0.8-0.14,1.05-0.42
		c0.24-0.28,0.36-0.74,0.36-1.39c0-0.22-0.02-0.44-0.05-0.64c-0.04-0.2-0.1-0.38-0.2-0.53c-0.1-0.15-0.23-0.27-0.39-0.36
		s-0.36-0.13-0.61-0.13c-0.27,0-0.49,0.05-0.7,0.16c-0.13,0.07-0.25,0.15-0.37,0.25v2.78C29.88,28.71,30.19,28.8,30.53,28.8z"/>
	<path class="st1" d="M35.47,29.37c-0.38,0-0.7-0.05-0.96-0.14c-0.26-0.09-0.47-0.24-0.62-0.43c-0.16-0.2-0.27-0.43-0.34-0.73
		c-0.08-0.29-0.11-0.64-0.11-1.03c0-0.77,0.16-1.35,0.5-1.72c0.33-0.37,0.84-0.56,1.52-0.56c0.36,0,0.66,0.05,0.89,0.16
		c0.23,0.11,0.41,0.26,0.55,0.45c0.12,0.19,0.22,0.42,0.27,0.68s0.08,0.55,0.08,0.85v0.35h-3.05c0,0.25,0.02,0.46,0.05,0.63
		c0.09,0.35,0.24,0.59,0.46,0.71c0.21,0.13,0.5,0.2,0.88,0.2c0.31,0,0.59-0.04,0.83-0.12c0.23-0.08,0.42-0.16,0.56-0.23l0.19,0.5
		c-0.06,0.05-0.16,0.11-0.29,0.16s-0.26,0.1-0.41,0.14c-0.16,0.04-0.31,0.08-0.48,0.1C35.8,29.36,35.63,29.37,35.47,29.37z
		 M36.47,26.71c0-0.52-0.09-0.89-0.27-1.09c-0.18-0.2-0.43-0.31-0.74-0.31c-0.36,0-0.64,0.08-0.83,0.24s-0.32,0.41-0.39,0.74
		c-0.02,0.07-0.02,0.13-0.03,0.2c0,0.07-0.02,0.14-0.02,0.22H36.47z"/>
	<path class="st1" d="M38.77,24.87l0.08,0.61c0.18-0.21,0.38-0.38,0.59-0.48c0.29-0.15,0.59-0.23,0.88-0.23
		c0.23,0,0.44,0.04,0.59,0.12l-0.2,0.61c-0.13-0.06-0.3-0.09-0.52-0.09c-0.27,0-0.52,0.08-0.76,0.24c-0.09,0.06-0.17,0.12-0.26,0.2
		c-0.08,0.07-0.16,0.16-0.23,0.25v3.18h-0.73v-3.2l-0.11-1.2H38.77z"/>
	<path class="st1" d="M44.16,26.81c-0.13-0.06-0.28-0.12-0.45-0.18c-0.16-0.06-0.34-0.13-0.52-0.2s-0.35-0.14-0.52-0.21
		c-0.17-0.07-0.32-0.15-0.46-0.23c-0.3-0.15-0.53-0.34-0.69-0.57c-0.17-0.22-0.25-0.54-0.25-0.93c0-0.29,0.06-0.53,0.17-0.73
		c0.12-0.21,0.27-0.38,0.48-0.52s0.44-0.23,0.71-0.3c0.27-0.07,0.56-0.1,0.88-0.1c0.72,0,1.34,0.13,1.84,0.38l-0.26,0.59
		c-0.18-0.08-0.4-0.16-0.68-0.24c-0.27-0.08-0.56-0.12-0.89-0.12c-0.47,0-0.84,0.09-1.1,0.26c-0.27,0.18-0.4,0.42-0.4,0.72
		c0,0.21,0.05,0.39,0.15,0.54s0.26,0.28,0.48,0.4c0.12,0.06,0.26,0.12,0.41,0.19c0.16,0.06,0.32,0.12,0.49,0.19
		c0.17,0.06,0.34,0.13,0.5,0.2c0.17,0.07,0.33,0.14,0.47,0.21c0.12,0.08,0.25,0.16,0.38,0.25c0.11,0.09,0.21,0.19,0.3,0.3
		c0.09,0.12,0.16,0.25,0.2,0.4c0.05,0.16,0.08,0.34,0.08,0.55c0,0.29-0.05,0.54-0.17,0.75c-0.11,0.21-0.27,0.39-0.47,0.53
		c-0.2,0.14-0.45,0.25-0.72,0.32c-0.28,0.07-0.58,0.11-0.91,0.11c-0.35,0-0.7-0.04-1.05-0.11s-0.66-0.18-0.95-0.32l0.28-0.57
		c0.29,0.13,0.56,0.23,0.83,0.29s0.56,0.1,0.88,0.1c0.52,0,0.91-0.09,1.16-0.28c0.27-0.19,0.39-0.43,0.39-0.74
		C44.75,27.32,44.55,27.01,44.16,26.81z"/>
	<path class="st1" d="M46.45,23.05h0.74v0.77h-0.74V23.05z M46.45,24.87h0.73v4.4h-0.73V24.87z"/>
	<path class="st1" d="M51.98,24.87v4.61c0,0.36-0.05,0.66-0.15,0.91c-0.09,0.25-0.23,0.45-0.41,0.6c-0.17,0.15-0.39,0.27-0.64,0.34
		s-0.52,0.11-0.82,0.11c-0.29,0-0.55-0.02-0.77-0.06c-0.23-0.04-0.44-0.09-0.61-0.15l0.19-0.56c0.14,0.05,0.31,0.09,0.52,0.13
		c0.2,0.04,0.42,0.06,0.67,0.06c0.17,0,0.34-0.02,0.51-0.06c0.16-0.04,0.3-0.11,0.41-0.21c0.12-0.1,0.22-0.23,0.28-0.4
		c0.06-0.16,0.1-0.37,0.1-0.62v-0.53c-0.19,0.1-0.38,0.18-0.57,0.25c-0.2,0.07-0.42,0.1-0.66,0.1c-0.66,0-1.12-0.19-1.42-0.57
		c-0.29-0.39-0.44-0.94-0.44-1.65c0-0.35,0.04-0.66,0.11-0.96c0.08-0.29,0.2-0.54,0.37-0.75c0.17-0.21,0.39-0.38,0.66-0.49
		c0.27-0.12,0.59-0.18,0.98-0.18c0.23,0,0.43,0.03,0.6,0.08s0.33,0.11,0.48,0.18l0.05-0.16H51.98z M51.26,25.56
		c-0.13-0.05-0.27-0.11-0.41-0.16c-0.14-0.05-0.3-0.08-0.47-0.08c-0.5,0-0.87,0.14-1.1,0.43c-0.23,0.29-0.35,0.75-0.35,1.39
		c0,0.21,0.02,0.41,0.06,0.61c0.03,0.2,0.1,0.38,0.2,0.54c0.09,0.16,0.22,0.28,0.39,0.37c0.16,0.09,0.38,0.14,0.64,0.14
		c0.2,0,0.38-0.03,0.55-0.09c0.16-0.06,0.33-0.15,0.49-0.25V25.56z"/>
	<path class="st1" d="M53.8,24.87l0.02,0.39c0.19-0.12,0.38-0.23,0.59-0.32c0.32-0.12,0.64-0.18,0.96-0.18
		c0.3,0,0.53,0.04,0.72,0.11s0.34,0.18,0.45,0.32c0.1,0.14,0.18,0.32,0.23,0.52c0.04,0.21,0.06,0.45,0.06,0.71v2.83h-0.73V26.6
		c0-0.19-0.01-0.36-0.03-0.51c-0.02-0.16-0.05-0.29-0.12-0.39c-0.06-0.11-0.16-0.19-0.27-0.25c-0.12-0.06-0.28-0.09-0.48-0.09
		c-0.16,0-0.33,0.02-0.48,0.07s-0.3,0.11-0.45,0.18c-0.11,0.05-0.23,0.12-0.33,0.2v3.46h-0.73v-3.23l-0.08-1.17H53.8z"/>
	<path class="st1" d="M64.13,22.94v0.62h-2v5.71h-0.74v-5.71h-1.99v-0.62H64.13z"/>
	<path class="st1" d="M67,28.65l1.76-5.71h0.77l-2.04,6.33h-1.07l-2.15-6.33h0.82l1.83,5.71H67z"/>
	<path class="st1" d="M70.83,26.52c0.16,0.08,0.34,0.15,0.58,0.23s0.45,0.16,0.67,0.25c0.25,0.1,0.46,0.23,0.62,0.39
		c0.16,0.16,0.24,0.4,0.24,0.71c0,0.44-0.16,0.76-0.48,0.96c-0.31,0.2-0.77,0.3-1.38,0.3c-0.29,0-0.57-0.03-0.84-0.08
		c-0.27-0.05-0.5-0.13-0.69-0.23l0.23-0.55c0.15,0.09,0.34,0.15,0.57,0.2s0.47,0.08,0.74,0.08c0.14,0,0.28-0.01,0.41-0.03
		c0.14-0.02,0.27-0.04,0.36-0.09c0.11-0.04,0.19-0.11,0.25-0.19c0.07-0.08,0.1-0.2,0.1-0.34c0-0.28-0.18-0.48-0.54-0.61
		c-0.2-0.09-0.42-0.17-0.66-0.25c-0.23-0.07-0.44-0.15-0.62-0.23c-0.23-0.09-0.41-0.21-0.56-0.37c-0.14-0.15-0.22-0.38-0.22-0.67
		c0-0.23,0.05-0.43,0.16-0.6s0.25-0.29,0.41-0.39c0.16-0.09,0.36-0.16,0.57-0.21c0.21-0.04,0.42-0.06,0.63-0.06
		c0.34,0,0.62,0.03,0.87,0.08c0.24,0.05,0.44,0.11,0.6,0.18l-0.23,0.55c-0.17-0.07-0.36-0.13-0.57-0.18
		c-0.2-0.05-0.43-0.07-0.69-0.07c-0.38,0-0.66,0.06-0.81,0.18s-0.23,0.26-0.23,0.42c0,0.14,0.04,0.26,0.12,0.35
		C70.53,26.36,70.66,26.44,70.83,26.52z"/>
</g>
</svg>
