<?xml version="1.0" encoding="utf-8"?>
<!-- Generator: Adobe Illustrator 23.0.0, SVG Export Plug-In . SVG Version: 6.00 Build 0)  -->
<svg version="1.1" id="Layer_1" xmlns="http://www.w3.org/2000/svg" xmlns:xlink="http://www.w3.org/1999/xlink" x="0px" y="0px"
	 viewBox="0 0 182.66 52.5" style="enable-background:new 0 0 182.66 52.5;" xml:space="preserve">
<style type="text/css">
	.st0{fill:#F1F2F2;stroke:#808285;stroke-width:0.8;stroke-miterlimit:10;}
	.st1{fill:#464A4C;}
</style>
<path class="st0" d="M163.17,50.71H20.06c-9.5,0-17.28-7.78-17.28-17.28V18.99c0-9.5,7.78-17.28,17.28-17.28h143.11
	c9.5,0,17.28,7.78,17.28,17.28v14.44C180.45,42.94,172.68,50.71,163.17,50.71z"/>
<g>
	<path class="st1" d="M22.41,26.65c-0.13-0.06-0.28-0.12-0.45-0.18c-0.16-0.06-0.34-0.13-0.52-0.2c-0.17-0.07-0.34-0.14-0.52-0.21
		s-0.32-0.15-0.45-0.23c-0.3-0.15-0.53-0.34-0.7-0.57s-0.25-0.54-0.25-0.93c0-0.29,0.06-0.53,0.17-0.73
		c0.12-0.21,0.27-0.38,0.48-0.52s0.44-0.23,0.71-0.3c0.27-0.07,0.56-0.1,0.88-0.1c0.71,0,1.33,0.13,1.84,0.38l-0.27,0.59
		c-0.18-0.08-0.4-0.16-0.67-0.24c-0.27-0.08-0.57-0.12-0.9-0.12c-0.47,0-0.84,0.09-1.1,0.26c-0.27,0.18-0.4,0.42-0.4,0.72
		c0,0.21,0.05,0.39,0.15,0.54s0.26,0.28,0.48,0.4c0.12,0.06,0.26,0.12,0.41,0.19c0.16,0.06,0.32,0.12,0.49,0.19
		c0.17,0.06,0.34,0.13,0.51,0.2c0.16,0.07,0.32,0.14,0.46,0.21c0.13,0.08,0.26,0.16,0.38,0.25c0.11,0.09,0.21,0.19,0.3,0.3
		c0.09,0.12,0.16,0.25,0.21,0.4c0.05,0.16,0.08,0.34,0.08,0.55c0,0.29-0.06,0.54-0.18,0.75c-0.11,0.21-0.27,0.39-0.47,0.53
		c-0.2,0.14-0.45,0.25-0.72,0.32s-0.58,0.11-0.9,0.11c-0.36,0-0.71-0.04-1.06-0.11s-0.66-0.18-0.94-0.32l0.28-0.57
		c0.28,0.13,0.56,0.23,0.83,0.29s0.55,0.1,0.87,0.1c0.52,0,0.91-0.09,1.16-0.28s0.38-0.43,0.38-0.74
		C23.01,27.17,22.81,26.86,22.41,26.65z"/>
	<path class="st1" d="M25.32,24.71l0.03,0.38c0.08-0.05,0.16-0.11,0.25-0.16c0.09-0.05,0.18-0.09,0.29-0.14
		c0.28-0.12,0.58-0.18,0.89-0.18c0.29,0,0.52,0.04,0.7,0.11c0.17,0.07,0.31,0.18,0.41,0.32l0.06,0.08c0.17-0.14,0.38-0.25,0.59-0.33
		c0.3-0.12,0.62-0.18,0.94-0.18c0.28,0,0.51,0.04,0.69,0.11s0.31,0.18,0.41,0.32c0.11,0.14,0.17,0.32,0.21,0.52
		c0.03,0.21,0.05,0.45,0.05,0.71v2.83h-0.73v-2.67c0-0.19-0.01-0.36-0.02-0.51c-0.02-0.16-0.06-0.29-0.12-0.39s-0.14-0.19-0.24-0.25
		c-0.11-0.06-0.25-0.09-0.43-0.09c-0.16,0-0.31,0.02-0.47,0.07c-0.15,0.04-0.29,0.11-0.42,0.18c-0.05,0.02-0.1,0.05-0.16,0.09
		c-0.05,0.03-0.1,0.07-0.16,0.11c0.02,0.09,0.02,0.2,0.03,0.3s0.01,0.22,0.01,0.33v2.83h-0.73v-2.67c0-0.19-0.01-0.36-0.02-0.51
		c-0.02-0.16-0.05-0.29-0.11-0.39c-0.06-0.11-0.14-0.19-0.25-0.25c-0.1-0.06-0.24-0.09-0.42-0.09c-0.31,0-0.62,0.08-0.9,0.25
		c-0.04,0.02-0.09,0.05-0.13,0.08c-0.04,0.03-0.09,0.06-0.13,0.09v3.48h-0.73v-3.23l-0.08-1.17H25.32z"/>
	<path class="st1" d="M35.68,29.13c-0.06,0.01-0.11,0.02-0.12,0.02H35.4c-0.22,0-0.39-0.04-0.5-0.13s-0.2-0.21-0.27-0.37
		c-0.16,0.15-0.37,0.28-0.62,0.39c-0.26,0.11-0.55,0.17-0.9,0.17c-0.27,0-0.49-0.04-0.66-0.11c-0.18-0.07-0.32-0.17-0.43-0.29
		c-0.11-0.12-0.19-0.26-0.23-0.43c-0.04-0.16-0.06-0.34-0.06-0.53c0-0.27,0.05-0.49,0.14-0.66c0.09-0.17,0.22-0.3,0.38-0.41
		c0.17-0.1,0.37-0.18,0.59-0.21c0.23-0.04,0.48-0.06,0.75-0.06c0.18,0,0.34,0,0.48,0.02c0.13,0.01,0.28,0.02,0.46,0.03v-0.23
		c0-0.21-0.02-0.4-0.05-0.55c-0.03-0.15-0.09-0.27-0.16-0.36s-0.19-0.16-0.33-0.2c-0.13-0.04-0.31-0.06-0.52-0.06
		c-0.25,0-0.5,0.04-0.75,0.11s-0.45,0.14-0.61,0.22L31.92,25c0.23-0.1,0.48-0.19,0.78-0.27c0.3-0.08,0.62-0.12,0.96-0.12
		c0.3,0,0.56,0.03,0.77,0.09c0.2,0.06,0.37,0.16,0.49,0.3c0.12,0.14,0.22,0.33,0.27,0.56c0.05,0.23,0.08,0.51,0.08,0.84V28
		c0,0.23,0.03,0.38,0.1,0.46c0.06,0.09,0.17,0.12,0.31,0.12V29.13z M33.54,27.07c-0.4,0-0.67,0.06-0.82,0.19
		c-0.16,0.12-0.23,0.32-0.23,0.57c0,0.29,0.06,0.5,0.19,0.62c0.13,0.13,0.35,0.19,0.66,0.19c0.21,0,0.42-0.05,0.63-0.14
		c0.21-0.09,0.4-0.2,0.56-0.33v-1.06c-0.17-0.01-0.33-0.02-0.48-0.03C33.89,27.08,33.72,27.07,33.54,27.07z"/>
	<path class="st1" d="M37.62,29.14c-0.01,0.01-0.04,0.01-0.09,0.01c-0.02,0-0.07,0.01-0.17,0.01c-0.35,0-0.59-0.1-0.71-0.29
		c-0.13-0.2-0.2-0.48-0.2-0.87v-5.43l0.72-0.11v5.52c0,0.27,0.03,0.43,0.1,0.5c0.06,0.07,0.18,0.11,0.34,0.11V29.14z"/>
	<path class="st1" d="M39.62,29.14c-0.01,0.01-0.04,0.01-0.09,0.01c-0.02,0-0.07,0.01-0.17,0.01c-0.35,0-0.59-0.1-0.71-0.29
		c-0.13-0.2-0.2-0.48-0.2-0.87v-5.43l0.72-0.11v5.52c0,0.27,0.03,0.43,0.1,0.5c0.06,0.07,0.18,0.11,0.34,0.11V29.14z"/>
	<path class="st1" d="M44.68,22.78c0.49,0,0.92,0.06,1.3,0.18c0.38,0.11,0.7,0.3,0.96,0.55s0.45,0.58,0.59,0.99
		c0.13,0.41,0.2,0.9,0.2,1.48c0,0.6-0.08,1.1-0.24,1.5c-0.16,0.4-0.39,0.72-0.69,0.96c-0.29,0.24-0.64,0.41-1.05,0.52
		c-0.4,0.1-0.84,0.15-1.33,0.15h-1.54v-6.33H44.68z M44.4,28.5c0.41,0,0.77-0.04,1.09-0.12c0.31-0.08,0.58-0.22,0.8-0.42
		c0.22-0.2,0.38-0.47,0.49-0.81c0.12-0.34,0.17-0.77,0.17-1.29c0-0.85-0.19-1.47-0.57-1.87s-0.95-0.59-1.7-0.59h-1.07v5.1H44.4z"/>
	<path class="st1" d="M48.74,22.9h0.74v0.77h-0.74V22.9z M48.76,24.71h0.73v4.4h-0.73V24.71z"/>
	<path class="st1" d="M54.27,24.71v4.61c0,0.36-0.05,0.66-0.14,0.91s-0.23,0.45-0.41,0.6c-0.18,0.15-0.39,0.27-0.64,0.34
		s-0.52,0.11-0.83,0.11c-0.29,0-0.55-0.02-0.77-0.06c-0.23-0.04-0.44-0.09-0.61-0.15l0.2-0.56c0.14,0.05,0.31,0.09,0.51,0.13
		c0.2,0.04,0.42,0.06,0.67,0.06c0.18,0,0.35-0.02,0.51-0.06c0.16-0.04,0.3-0.11,0.42-0.21c0.12-0.1,0.21-0.23,0.27-0.4
		c0.07-0.16,0.1-0.37,0.1-0.62v-0.53c-0.19,0.1-0.38,0.18-0.57,0.25c-0.2,0.07-0.41,0.1-0.66,0.1c-0.66,0-1.12-0.19-1.41-0.57
		c-0.3-0.39-0.44-0.94-0.44-1.65c0-0.35,0.03-0.66,0.11-0.96c0.07-0.29,0.2-0.54,0.36-0.75c0.17-0.21,0.39-0.38,0.66-0.49
		c0.27-0.12,0.59-0.18,0.98-0.18c0.23,0,0.43,0.03,0.6,0.08s0.33,0.11,0.48,0.18l0.05-0.16H54.27z M53.55,25.4
		c-0.12-0.05-0.27-0.11-0.41-0.16c-0.15-0.05-0.3-0.08-0.48-0.08c-0.5,0-0.87,0.14-1.1,0.43c-0.23,0.29-0.34,0.75-0.34,1.39
		c0,0.21,0.02,0.41,0.05,0.61s0.1,0.38,0.2,0.54c0.09,0.16,0.23,0.28,0.39,0.37c0.16,0.09,0.38,0.14,0.64,0.14
		c0.2,0,0.38-0.03,0.55-0.09c0.16-0.06,0.33-0.15,0.49-0.25V25.4z"/>
	<path class="st1" d="M55.47,22.9h0.74v0.77h-0.74V22.9z M55.48,24.71h0.73v4.4h-0.73V24.71z"/>
	<path class="st1" d="M58.41,25.29v2.17c0,0.19,0.01,0.36,0.02,0.5s0.05,0.27,0.11,0.36c0.06,0.1,0.14,0.17,0.26,0.22
		c0.11,0.05,0.27,0.08,0.45,0.08c0.27,0,0.54-0.05,0.8-0.14l0.13,0.51c-0.18,0.08-0.37,0.13-0.56,0.17c-0.2,0.04-0.4,0.06-0.59,0.06
		c-0.28,0-0.51-0.04-0.69-0.11c-0.18-0.08-0.31-0.18-0.41-0.32c-0.09-0.13-0.16-0.29-0.2-0.48c-0.04-0.19-0.05-0.39-0.05-0.6v-2.4
		h-0.75v-0.52l0.75-0.08v-0.92l0.72-0.12v1.04h1.66v0.58H58.41z"/>
	<path class="st1" d="M64.61,29.13c-0.06,0.01-0.11,0.02-0.12,0.02h-0.15c-0.22,0-0.39-0.04-0.5-0.13s-0.2-0.21-0.27-0.37
		c-0.16,0.15-0.37,0.28-0.62,0.39c-0.26,0.11-0.55,0.17-0.9,0.17c-0.27,0-0.49-0.04-0.66-0.11c-0.18-0.07-0.32-0.17-0.43-0.29
		s-0.19-0.26-0.23-0.43c-0.04-0.16-0.06-0.34-0.06-0.53c0-0.27,0.05-0.49,0.14-0.66c0.09-0.17,0.22-0.3,0.38-0.41
		c0.17-0.1,0.37-0.18,0.59-0.21c0.23-0.04,0.48-0.06,0.75-0.06c0.18,0,0.34,0,0.48,0.02c0.13,0.01,0.28,0.02,0.46,0.03v-0.23
		c0-0.21-0.02-0.4-0.05-0.55c-0.03-0.15-0.09-0.27-0.16-0.36s-0.19-0.16-0.33-0.2c-0.13-0.04-0.31-0.06-0.52-0.06
		c-0.25,0-0.5,0.04-0.75,0.11s-0.45,0.14-0.61,0.22L60.85,25c0.23-0.1,0.48-0.19,0.78-0.27c0.3-0.08,0.62-0.12,0.96-0.12
		c0.3,0,0.56,0.03,0.77,0.09c0.2,0.06,0.37,0.16,0.49,0.3c0.12,0.14,0.22,0.33,0.27,0.56c0.05,0.23,0.08,0.51,0.08,0.84V28
		c0,0.23,0.03,0.38,0.1,0.46c0.06,0.09,0.17,0.12,0.31,0.12V29.13z M62.47,27.07c-0.4,0-0.67,0.06-0.82,0.19
		c-0.16,0.12-0.23,0.32-0.23,0.57c0,0.29,0.06,0.5,0.19,0.62c0.13,0.13,0.35,0.19,0.66,0.19c0.21,0,0.42-0.05,0.63-0.14
		c0.21-0.09,0.4-0.2,0.56-0.33v-1.06c-0.17-0.01-0.33-0.02-0.48-0.03C62.82,27.08,62.65,27.07,62.47,27.07z"/>
	<path class="st1" d="M66.55,29.14c-0.01,0.01-0.04,0.01-0.09,0.01c-0.02,0-0.07,0.01-0.17,0.01c-0.35,0-0.59-0.1-0.71-0.29
		c-0.13-0.2-0.2-0.48-0.2-0.87v-5.43l0.72-0.11v5.52c0,0.27,0.03,0.43,0.1,0.5c0.06,0.07,0.18,0.11,0.34,0.11V29.14z"/>
	<path class="st1" d="M72.4,26.65c-0.13-0.06-0.28-0.12-0.45-0.18c-0.16-0.06-0.34-0.13-0.52-0.2c-0.17-0.07-0.34-0.14-0.52-0.21
		s-0.32-0.15-0.45-0.23c-0.3-0.15-0.53-0.34-0.7-0.57s-0.25-0.54-0.25-0.93c0-0.29,0.06-0.53,0.17-0.73
		c0.12-0.21,0.27-0.38,0.48-0.52s0.44-0.23,0.71-0.3c0.27-0.07,0.56-0.1,0.88-0.1c0.71,0,1.33,0.13,1.84,0.38l-0.27,0.59
		c-0.18-0.08-0.4-0.16-0.67-0.24c-0.27-0.08-0.57-0.12-0.9-0.12c-0.47,0-0.84,0.09-1.1,0.26c-0.27,0.18-0.4,0.42-0.4,0.72
		c0,0.21,0.05,0.39,0.15,0.54s0.26,0.28,0.48,0.4c0.12,0.06,0.26,0.12,0.41,0.19c0.16,0.06,0.32,0.12,0.49,0.19
		c0.17,0.06,0.34,0.13,0.51,0.2c0.16,0.07,0.32,0.14,0.46,0.21c0.13,0.08,0.26,0.16,0.38,0.25c0.11,0.09,0.21,0.19,0.3,0.3
		c0.09,0.12,0.16,0.25,0.21,0.4c0.05,0.16,0.08,0.34,0.08,0.55c0,0.29-0.06,0.54-0.18,0.75c-0.11,0.21-0.27,0.39-0.47,0.53
		c-0.2,0.14-0.45,0.25-0.72,0.32s-0.58,0.11-0.9,0.11c-0.36,0-0.71-0.04-1.06-0.11s-0.66-0.18-0.94-0.32l0.28-0.57
		c0.28,0.13,0.56,0.23,0.83,0.29s0.55,0.1,0.87,0.1c0.52,0,0.91-0.09,1.16-0.28S73,27.89,73,27.58C73,27.17,72.8,26.86,72.4,26.65z"
		/>
	<path class="st1" d="M74.69,22.9h0.74v0.77h-0.74V22.9z M74.71,24.71h0.73v4.4h-0.73V24.71z"/>
	<path class="st1" d="M80.22,24.71v4.61c0,0.36-0.05,0.66-0.14,0.91s-0.23,0.45-0.41,0.6c-0.18,0.15-0.39,0.27-0.64,0.34
		s-0.52,0.11-0.83,0.11c-0.29,0-0.55-0.02-0.77-0.06c-0.23-0.04-0.44-0.09-0.61-0.15l0.2-0.56c0.14,0.05,0.31,0.09,0.51,0.13
		c0.2,0.04,0.42,0.06,0.67,0.06c0.18,0,0.35-0.02,0.51-0.06c0.16-0.04,0.3-0.11,0.42-0.21c0.12-0.1,0.21-0.23,0.27-0.4
		c0.07-0.16,0.1-0.37,0.1-0.62v-0.53c-0.19,0.1-0.38,0.18-0.57,0.25c-0.2,0.07-0.41,0.1-0.66,0.1c-0.66,0-1.12-0.19-1.41-0.57
		c-0.3-0.39-0.44-0.94-0.44-1.65c0-0.35,0.03-0.66,0.11-0.96c0.07-0.29,0.2-0.54,0.36-0.75c0.17-0.21,0.39-0.38,0.66-0.49
		c0.27-0.12,0.59-0.18,0.98-0.18c0.23,0,0.43,0.03,0.6,0.08s0.33,0.11,0.48,0.18l0.05-0.16H80.22z M79.51,25.4
		c-0.12-0.05-0.27-0.11-0.41-0.16c-0.15-0.05-0.3-0.08-0.48-0.08c-0.5,0-0.87,0.14-1.1,0.43c-0.23,0.29-0.34,0.75-0.34,1.39
		c0,0.21,0.02,0.41,0.05,0.61s0.1,0.38,0.2,0.54c0.09,0.16,0.23,0.28,0.39,0.37c0.16,0.09,0.38,0.14,0.64,0.14
		c0.2,0,0.38-0.03,0.55-0.09c0.16-0.06,0.33-0.15,0.49-0.25V25.4z"/>
	<path class="st1" d="M82.05,24.71l0.02,0.39c0.19-0.12,0.38-0.23,0.59-0.32c0.32-0.12,0.64-0.18,0.96-0.18
		c0.3,0,0.54,0.04,0.72,0.11c0.19,0.07,0.34,0.18,0.45,0.32s0.19,0.32,0.23,0.52s0.06,0.45,0.06,0.71v2.83h-0.73v-2.67
		c0-0.19-0.01-0.36-0.02-0.51c-0.02-0.16-0.06-0.29-0.12-0.39s-0.16-0.19-0.27-0.25s-0.28-0.09-0.48-0.09
		c-0.16,0-0.33,0.02-0.48,0.07s-0.31,0.11-0.45,0.18c-0.12,0.05-0.23,0.12-0.34,0.2v3.46h-0.73v-3.23l-0.08-1.17H82.05z"/>
	<path class="st1" d="M89.9,29.13c-0.06,0.01-0.11,0.02-0.12,0.02h-0.15c-0.22,0-0.39-0.04-0.5-0.13s-0.2-0.21-0.27-0.37
		c-0.16,0.15-0.37,0.28-0.62,0.39c-0.26,0.11-0.55,0.17-0.9,0.17c-0.27,0-0.49-0.04-0.66-0.11c-0.18-0.07-0.32-0.17-0.43-0.29
		s-0.19-0.26-0.23-0.43c-0.04-0.16-0.06-0.34-0.06-0.53c0-0.27,0.05-0.49,0.14-0.66c0.09-0.17,0.22-0.3,0.38-0.41
		c0.17-0.1,0.37-0.18,0.59-0.21c0.23-0.04,0.48-0.06,0.75-0.06c0.18,0,0.34,0,0.48,0.02c0.13,0.01,0.28,0.02,0.46,0.03v-0.23
		c0-0.21-0.02-0.4-0.05-0.55c-0.03-0.15-0.09-0.27-0.16-0.36s-0.19-0.16-0.33-0.2c-0.13-0.04-0.31-0.06-0.52-0.06
		c-0.25,0-0.5,0.04-0.75,0.11s-0.45,0.14-0.61,0.22L86.15,25c0.23-0.1,0.48-0.19,0.78-0.27c0.3-0.08,0.62-0.12,0.96-0.12
		c0.3,0,0.56,0.03,0.77,0.09c0.2,0.06,0.37,0.16,0.49,0.3c0.12,0.14,0.22,0.33,0.27,0.56c0.05,0.23,0.08,0.51,0.08,0.84V28
		c0,0.23,0.03,0.38,0.1,0.46c0.06,0.09,0.17,0.12,0.31,0.12V29.13z M87.76,27.07c-0.4,0-0.67,0.06-0.82,0.19
		c-0.16,0.12-0.23,0.32-0.23,0.57c0,0.29,0.06,0.5,0.19,0.62c0.13,0.13,0.35,0.19,0.66,0.19c0.21,0,0.42-0.05,0.63-0.14
		c0.21-0.09,0.4-0.2,0.56-0.33v-1.06c-0.17-0.01-0.33-0.02-0.48-0.03C88.12,27.08,87.95,27.07,87.76,27.07z"/>
	<path class="st1" d="M94.25,24.71v4.61c0,0.36-0.05,0.66-0.14,0.91s-0.23,0.45-0.41,0.6c-0.18,0.15-0.39,0.27-0.64,0.34
		s-0.52,0.11-0.83,0.11c-0.29,0-0.55-0.02-0.77-0.06c-0.23-0.04-0.44-0.09-0.61-0.15l0.2-0.56c0.14,0.05,0.31,0.09,0.51,0.13
		c0.2,0.04,0.42,0.06,0.67,0.06c0.18,0,0.35-0.02,0.51-0.06c0.16-0.04,0.3-0.11,0.42-0.21c0.12-0.1,0.21-0.23,0.27-0.4
		c0.07-0.16,0.1-0.37,0.1-0.62v-0.53c-0.19,0.1-0.38,0.18-0.57,0.25c-0.2,0.07-0.41,0.1-0.66,0.1c-0.66,0-1.12-0.19-1.41-0.57
		c-0.3-0.39-0.44-0.94-0.44-1.65c0-0.35,0.03-0.66,0.11-0.96c0.07-0.29,0.2-0.54,0.36-0.75c0.17-0.21,0.39-0.38,0.66-0.49
		c0.27-0.12,0.59-0.18,0.98-0.18c0.23,0,0.43,0.03,0.6,0.08s0.33,0.11,0.48,0.18l0.05-0.16H94.25z M93.53,25.4
		c-0.12-0.05-0.27-0.11-0.41-0.16c-0.15-0.05-0.3-0.08-0.48-0.08c-0.5,0-0.87,0.14-1.1,0.43c-0.23,0.29-0.34,0.75-0.34,1.39
		c0,0.21,0.02,0.41,0.05,0.61s0.1,0.38,0.2,0.54c0.09,0.16,0.23,0.28,0.39,0.37c0.16,0.09,0.38,0.14,0.64,0.14
		c0.2,0,0.38-0.03,0.55-0.09c0.16-0.06,0.33-0.15,0.49-0.25V25.4z"/>
	<path class="st1" d="M97.26,29.22c-0.38,0-0.7-0.05-0.96-0.14c-0.26-0.09-0.47-0.24-0.62-0.43c-0.16-0.2-0.27-0.43-0.34-0.73
		s-0.1-0.64-0.1-1.03c0-0.77,0.16-1.35,0.5-1.72c0.33-0.37,0.84-0.56,1.52-0.56c0.36,0,0.66,0.05,0.89,0.16s0.41,0.26,0.54,0.45
		c0.13,0.19,0.23,0.42,0.27,0.68s0.07,0.55,0.07,0.85v0.35h-3.04c0,0.25,0.02,0.46,0.05,0.63c0.09,0.35,0.24,0.59,0.45,0.71
		c0.22,0.13,0.51,0.2,0.88,0.2c0.31,0,0.59-0.04,0.82-0.12c0.24-0.08,0.43-0.16,0.57-0.23l0.19,0.5c-0.07,0.05-0.16,0.11-0.29,0.16
		s-0.27,0.1-0.41,0.14c-0.16,0.04-0.32,0.08-0.49,0.1C97.59,29.2,97.43,29.22,97.26,29.22z M98.26,26.55c0-0.52-0.09-0.89-0.27-1.09
		c-0.18-0.2-0.43-0.31-0.74-0.31c-0.37,0-0.64,0.08-0.84,0.24c-0.19,0.16-0.31,0.41-0.38,0.74c-0.02,0.07-0.02,0.13-0.03,0.2
		s-0.02,0.14-0.02,0.22H98.26z"/>
</g>
</svg>
