<?xml version="1.0" encoding="utf-8"?>
<!-- Generator: Adobe Illustrator 23.0.0, SVG Export Plug-In . SVG Version: 6.00 Build 0)  -->
<svg version="1.1" id="Layer_1" xmlns="http://www.w3.org/2000/svg" xmlns:xlink="http://www.w3.org/1999/xlink" x="0px" y="0px"
	 viewBox="0 0 182.66 52.5" style="enable-background:new 0 0 182.66 52.5;" xml:space="preserve">
<style type="text/css">
	.st0{fill:#BCBEC0;stroke:#808285;stroke-width:0.8;stroke-miterlimit:10;}
	.st1{fill:#464A4C;}
</style>
<path class="st0" d="M163.43,50.45H20.33c-9.5,0-17.28-7.78-17.28-17.28V18.73c0-9.5,7.78-17.28,17.28-17.28h143.11
	c9.5,0,17.28,7.78,17.28,17.28v14.44C180.71,42.67,172.94,50.45,163.43,50.45z"/>
<g>
	<path class="st1" d="M21.87,23.18c0.49,0,0.92,0.06,1.3,0.18c0.38,0.11,0.7,0.3,0.96,0.55s0.45,0.58,0.59,0.99
		c0.13,0.41,0.2,0.9,0.2,1.48c0,0.6-0.08,1.1-0.24,1.5c-0.16,0.4-0.39,0.72-0.69,0.96c-0.29,0.24-0.64,0.41-1.05,0.52
		c-0.4,0.1-0.84,0.15-1.33,0.15h-1.54v-6.33H21.87z M21.6,28.9c0.41,0,0.77-0.04,1.09-0.12c0.31-0.08,0.58-0.22,0.8-0.42
		c0.22-0.2,0.38-0.47,0.49-0.81c0.12-0.34,0.17-0.77,0.17-1.29c0-0.85-0.19-1.47-0.57-1.87s-0.95-0.59-1.7-0.59h-1.07v5.1H21.6z"/>
	<path class="st1" d="M25.93,23.3h0.74v0.77h-0.74V23.3z M25.95,25.11h0.73v4.4h-0.73V25.11z"/>
	<path class="st1" d="M28.47,25.11l0.08,0.61c0.18-0.21,0.38-0.38,0.59-0.48c0.29-0.15,0.58-0.23,0.88-0.23
		c0.23,0,0.43,0.04,0.59,0.12l-0.2,0.61c-0.12-0.06-0.3-0.09-0.51-0.09c-0.27,0-0.52,0.08-0.76,0.24c-0.09,0.06-0.17,0.12-0.26,0.2
		c-0.08,0.07-0.16,0.16-0.24,0.25v3.18h-0.73v-3.2l-0.11-1.2H28.47z"/>
	<path class="st1" d="M32.74,29.62c-0.38,0-0.71-0.05-0.97-0.14c-0.26-0.09-0.47-0.24-0.62-0.43c-0.16-0.2-0.27-0.43-0.34-0.73
		s-0.11-0.64-0.11-1.03c0-0.77,0.16-1.35,0.5-1.72s0.84-0.56,1.52-0.56c0.37,0,0.66,0.05,0.89,0.16c0.23,0.11,0.41,0.26,0.55,0.45
		c0.13,0.19,0.22,0.42,0.27,0.68s0.08,0.55,0.08,0.85v0.35h-3.05c0,0.25,0.02,0.46,0.05,0.63c0.09,0.35,0.24,0.59,0.46,0.71
		c0.21,0.13,0.51,0.2,0.87,0.2c0.31,0,0.59-0.04,0.83-0.12c0.23-0.08,0.42-0.16,0.56-0.23l0.2,0.5c-0.07,0.05-0.17,0.11-0.3,0.16
		s-0.26,0.1-0.41,0.14c-0.16,0.04-0.31,0.08-0.48,0.1C33.06,29.61,32.89,29.62,32.74,29.62z M33.73,26.96
		c0-0.52-0.09-0.89-0.27-1.09c-0.18-0.2-0.43-0.31-0.74-0.31c-0.36,0-0.64,0.08-0.83,0.24c-0.19,0.16-0.32,0.41-0.39,0.74
		c-0.01,0.07-0.02,0.13-0.03,0.2c0,0.07-0.01,0.14-0.02,0.22H33.73z"/>
	<path class="st1" d="M38.74,29.26c-0.14,0.08-0.34,0.16-0.6,0.24c-0.26,0.07-0.55,0.11-0.85,0.11c-0.73,0-1.25-0.2-1.57-0.58
		s-0.48-0.94-0.48-1.66c0-0.79,0.19-1.39,0.55-1.78c0.38-0.39,0.93-0.59,1.66-0.59c0.27,0,0.53,0.05,0.78,0.14
		c0.24,0.09,0.43,0.22,0.57,0.38l-0.44,0.43c-0.11-0.12-0.24-0.22-0.4-0.29s-0.34-0.11-0.52-0.11c-0.48,0-0.84,0.15-1.09,0.44
		s-0.38,0.76-0.38,1.4c0,0.24,0.02,0.46,0.07,0.67c0.05,0.2,0.12,0.37,0.24,0.52c0.11,0.14,0.25,0.26,0.43,0.34
		c0.18,0.08,0.39,0.12,0.64,0.12s0.48-0.03,0.67-0.08s0.38-0.12,0.55-0.2L38.74,29.26z"/>
	<path class="st1" d="M40.57,25.69v2.17c0,0.19,0.01,0.36,0.02,0.5s0.05,0.27,0.11,0.36c0.05,0.1,0.14,0.17,0.25,0.22
		c0.12,0.05,0.27,0.08,0.46,0.08c0.27,0,0.53-0.05,0.8-0.14l0.13,0.51c-0.18,0.08-0.37,0.13-0.57,0.17
		c-0.2,0.04-0.39,0.06-0.59,0.06c-0.28,0-0.51-0.04-0.68-0.11c-0.18-0.08-0.31-0.18-0.41-0.32c-0.09-0.13-0.16-0.29-0.2-0.48
		c-0.03-0.19-0.05-0.39-0.05-0.6v-2.4H39.1v-0.52l0.75-0.08v-0.92l0.73-0.12v1.04h1.66v0.58H40.57z"/>
	<path class="st1" d="M45.23,27.59h-2.4v-0.63h2.4V27.59z"/>
	<path class="st1" d="M48.24,28.9L50,23.18h0.77l-2.04,6.33h-1.06l-2.16-6.33h0.82l1.84,5.71H48.24z"/>
	<path class="st1" d="M51.43,23.3h0.74v0.77h-0.74V23.3z M51.44,25.11h0.73v4.4h-0.73V25.11z"/>
	<path class="st1" d="M55.19,29.62c-0.38,0-0.7-0.05-0.96-0.14c-0.26-0.09-0.47-0.24-0.62-0.43c-0.16-0.2-0.27-0.43-0.34-0.73
		s-0.1-0.64-0.1-1.03c0-0.77,0.16-1.35,0.5-1.72c0.33-0.37,0.84-0.56,1.52-0.56c0.36,0,0.66,0.05,0.89,0.16s0.41,0.26,0.54,0.45
		c0.13,0.19,0.23,0.42,0.27,0.68s0.07,0.55,0.07,0.85v0.35h-3.04c0,0.25,0.02,0.46,0.05,0.63c0.09,0.35,0.24,0.59,0.45,0.71
		c0.22,0.13,0.51,0.2,0.88,0.2c0.31,0,0.59-0.04,0.82-0.12c0.24-0.08,0.43-0.16,0.57-0.23l0.19,0.5c-0.07,0.05-0.16,0.11-0.29,0.16
		s-0.27,0.1-0.41,0.14c-0.16,0.04-0.32,0.08-0.49,0.1C55.52,29.61,55.36,29.62,55.19,29.62z M56.19,26.96
		c0-0.52-0.09-0.89-0.27-1.09c-0.18-0.2-0.43-0.31-0.74-0.31c-0.37,0-0.64,0.08-0.84,0.24c-0.19,0.16-0.31,0.41-0.38,0.74
		c-0.02,0.07-0.02,0.13-0.03,0.2s-0.02,0.14-0.02,0.22H56.19z"/>
	<path class="st1" d="M61.19,25.11l0.89,3.84h0.09l1.01-3.84h0.73l-1.26,4.4h-1.06l-0.9-3.84h-0.09l-0.89,3.84h-1.08l-1.22-4.4h0.75
		l0.99,3.84h0.08l0.88-3.84H61.19z"/>
	<path class="st1" d="M70.72,28.9v0.61h-3.69v-6.33h0.73v5.71H70.72z"/>
	<path class="st1" d="M75.29,28.9v0.61h-3.87v-6.33h3.77v0.62h-3.04v2.14h2.93v0.61h-2.93v2.34H75.29z"/>
	<path class="st1" d="M78.28,23.18c0.49,0,0.92,0.06,1.3,0.18c0.38,0.11,0.7,0.3,0.96,0.55s0.45,0.58,0.59,0.99
		c0.13,0.41,0.2,0.9,0.2,1.48c0,0.6-0.08,1.1-0.24,1.5c-0.16,0.4-0.39,0.72-0.69,0.96c-0.29,0.24-0.64,0.41-1.05,0.52
		c-0.4,0.1-0.84,0.15-1.33,0.15H76.5v-6.33H78.28z M78.01,28.9c0.41,0,0.77-0.04,1.09-0.12c0.31-0.08,0.58-0.22,0.8-0.42
		c0.22-0.2,0.38-0.47,0.49-0.81c0.12-0.34,0.17-0.77,0.17-1.29c0-0.85-0.19-1.47-0.57-1.87s-0.95-0.59-1.7-0.59h-1.07v5.1H78.01z"/>
	<path class="st1" d="M86.25,29.62c-0.62,0-1.07-0.2-1.37-0.58c-0.29-0.39-0.44-0.94-0.44-1.66c0-0.34,0.04-0.66,0.12-0.95
		c0.08-0.29,0.2-0.54,0.37-0.75c0.17-0.21,0.39-0.37,0.66-0.49s0.59-0.18,0.97-0.18c0.21,0,0.42,0.03,0.61,0.08
		c0.12,0.03,0.24,0.08,0.37,0.14v-2.26l0.72-0.11v5.52l0.08,1.12h-0.63l-0.09-0.31c-0.17,0.13-0.36,0.23-0.56,0.29
		C86.82,29.58,86.56,29.62,86.25,29.62z M86.61,25.57c-0.46,0-0.81,0.14-1.05,0.42s-0.37,0.75-0.37,1.39c0,0.23,0.02,0.44,0.06,0.64
		c0.04,0.2,0.1,0.37,0.2,0.53c0.1,0.15,0.23,0.27,0.39,0.36s0.38,0.14,0.62,0.14c0.27,0,0.5-0.05,0.7-0.16
		c0.06-0.03,0.12-0.07,0.19-0.11s0.12-0.09,0.19-0.14v-2.79C87.25,25.66,86.94,25.57,86.61,25.57z"/>
	<path class="st1" d="M89.46,23.3h0.74v0.77h-0.74V23.3z M89.47,25.11h0.73v4.4h-0.73V25.11z"/>
	<path class="st1" d="M92.42,26.77c0.15,0.08,0.34,0.15,0.58,0.23c0.23,0.08,0.45,0.16,0.67,0.25c0.25,0.1,0.46,0.23,0.62,0.39
		c0.16,0.16,0.25,0.4,0.25,0.71c0,0.44-0.16,0.76-0.48,0.96c-0.32,0.2-0.77,0.3-1.38,0.3c-0.29,0-0.57-0.03-0.84-0.08
		s-0.5-0.13-0.7-0.23l0.23-0.55c0.15,0.09,0.34,0.15,0.57,0.2s0.47,0.08,0.74,0.08c0.14,0,0.28-0.01,0.41-0.03
		c0.14-0.02,0.26-0.04,0.36-0.09c0.1-0.04,0.19-0.11,0.25-0.19c0.07-0.08,0.1-0.2,0.1-0.34c0-0.28-0.18-0.48-0.54-0.61
		c-0.2-0.09-0.42-0.17-0.66-0.25c-0.23-0.07-0.44-0.15-0.62-0.23c-0.23-0.09-0.41-0.21-0.56-0.37c-0.15-0.15-0.22-0.38-0.22-0.67
		c0-0.23,0.05-0.43,0.16-0.6c0.1-0.16,0.24-0.29,0.41-0.39c0.16-0.09,0.36-0.16,0.57-0.21c0.21-0.04,0.42-0.06,0.63-0.06
		c0.34,0,0.62,0.03,0.87,0.08c0.24,0.05,0.44,0.11,0.6,0.18l-0.23,0.55c-0.17-0.07-0.36-0.13-0.56-0.18
		c-0.2-0.05-0.44-0.07-0.69-0.07c-0.39,0-0.66,0.06-0.81,0.18s-0.23,0.26-0.23,0.42c0,0.14,0.03,0.26,0.11,0.35
		C92.11,26.61,92.25,26.69,92.42,26.77z"/>
	<path class="st1" d="M96.01,25.11l0.08,0.32c0.19-0.13,0.38-0.23,0.56-0.29c0.26-0.09,0.52-0.14,0.8-0.14
		c0.62,0,1.08,0.2,1.37,0.58c0.3,0.39,0.44,0.94,0.44,1.66c0,0.34-0.04,0.66-0.11,0.96c-0.08,0.29-0.2,0.54-0.38,0.75
		s-0.38,0.37-0.65,0.49c-0.27,0.12-0.59,0.18-0.97,0.18c-0.23,0-0.43-0.03-0.6-0.09c-0.06-0.01-0.12-0.03-0.19-0.05
		c-0.05-0.02-0.12-0.05-0.18-0.08v2.17l-0.73,0.11v-5.44l-0.08-1.12H96.01z M97.09,29.05c0.45,0,0.8-0.14,1.04-0.42
		c0.25-0.28,0.37-0.74,0.37-1.39c0-0.22-0.02-0.44-0.05-0.64c-0.04-0.2-0.11-0.38-0.2-0.53c-0.09-0.15-0.23-0.27-0.38-0.36
		c-0.16-0.09-0.37-0.13-0.62-0.13c-0.26,0-0.48,0.05-0.69,0.16c-0.13,0.07-0.25,0.15-0.37,0.25v2.78
		C96.44,28.96,96.74,29.05,97.09,29.05z"/>
	<path class="st1" d="M101.39,29.54c-0.01,0.01-0.04,0.01-0.09,0.01c-0.02,0-0.07,0.01-0.17,0.01c-0.35,0-0.59-0.1-0.71-0.29
		c-0.13-0.2-0.2-0.48-0.2-0.87v-5.43l0.72-0.11v5.52c0,0.27,0.03,0.43,0.1,0.5c0.06,0.07,0.18,0.11,0.34,0.11V29.54z"/>
	<path class="st1" d="M106.03,29.53c-0.06,0.01-0.11,0.02-0.12,0.02h-0.15c-0.22,0-0.39-0.04-0.5-0.13s-0.2-0.21-0.27-0.37
		c-0.16,0.15-0.37,0.28-0.62,0.39c-0.26,0.11-0.55,0.17-0.9,0.17c-0.27,0-0.49-0.04-0.66-0.11c-0.18-0.07-0.32-0.17-0.43-0.29
		s-0.19-0.26-0.23-0.43c-0.04-0.16-0.06-0.34-0.06-0.53c0-0.27,0.05-0.49,0.14-0.66c0.09-0.17,0.22-0.3,0.38-0.41
		c0.17-0.1,0.37-0.18,0.59-0.21c0.23-0.04,0.48-0.06,0.75-0.06c0.18,0,0.34,0,0.48,0.02c0.13,0.01,0.28,0.02,0.46,0.03v-0.23
		c0-0.21-0.02-0.4-0.05-0.55c-0.03-0.15-0.09-0.27-0.16-0.36s-0.19-0.16-0.33-0.2c-0.13-0.04-0.31-0.06-0.52-0.06
		c-0.25,0-0.5,0.04-0.75,0.11s-0.45,0.14-0.61,0.22l-0.19-0.51c0.23-0.1,0.48-0.19,0.78-0.27c0.3-0.08,0.62-0.12,0.96-0.12
		c0.3,0,0.56,0.03,0.77,0.09c0.2,0.06,0.37,0.16,0.49,0.3c0.12,0.14,0.22,0.33,0.27,0.56c0.05,0.23,0.08,0.51,0.08,0.84v1.59
		c0,0.23,0.03,0.38,0.1,0.46c0.06,0.09,0.17,0.12,0.31,0.12V29.53z M103.89,27.48c-0.4,0-0.67,0.06-0.82,0.19
		c-0.16,0.12-0.23,0.32-0.23,0.57c0,0.29,0.06,0.5,0.19,0.62c0.13,0.13,0.35,0.19,0.66,0.19c0.21,0,0.42-0.05,0.63-0.14
		c0.21-0.09,0.4-0.2,0.56-0.33v-1.06c-0.17-0.01-0.33-0.02-0.48-0.03C104.25,27.48,104.08,27.48,103.89,27.48z"/>
	<path class="st1" d="M106.11,25.11h0.8l1.27,3.5h0.09l1.17-3.5h0.75l-1.68,4.68c-0.1,0.27-0.2,0.52-0.3,0.75s-0.22,0.43-0.35,0.6
		c-0.14,0.17-0.31,0.3-0.52,0.39c-0.2,0.09-0.46,0.14-0.78,0.14c-0.07,0-0.15,0-0.23-0.01c-0.07-0.01-0.13-0.02-0.18-0.04l0.09-0.56
		l0.15,0.03c0.02,0,0.08,0.01,0.16,0.01c0.23,0,0.42-0.04,0.55-0.12c0.13-0.08,0.23-0.18,0.31-0.3c0.03-0.05,0.08-0.12,0.12-0.21
		s0.09-0.19,0.12-0.29s0.08-0.21,0.12-0.31s0.08-0.21,0.11-0.3L106.11,25.11z"/>
	<path class="st1" d="M111.85,26.77c0.15,0.08,0.34,0.15,0.58,0.23c0.23,0.08,0.45,0.16,0.67,0.25c0.25,0.1,0.46,0.23,0.62,0.39
		c0.16,0.16,0.25,0.4,0.25,0.71c0,0.44-0.16,0.76-0.48,0.96c-0.32,0.2-0.77,0.3-1.38,0.3c-0.29,0-0.57-0.03-0.84-0.08
		s-0.5-0.13-0.7-0.23l0.23-0.55c0.15,0.09,0.34,0.15,0.57,0.2s0.47,0.08,0.74,0.08c0.14,0,0.28-0.01,0.41-0.03
		c0.14-0.02,0.26-0.04,0.36-0.09c0.1-0.04,0.19-0.11,0.25-0.19c0.07-0.08,0.1-0.2,0.1-0.34c0-0.28-0.18-0.48-0.54-0.61
		c-0.2-0.09-0.42-0.17-0.66-0.25c-0.23-0.07-0.44-0.15-0.62-0.23c-0.23-0.09-0.41-0.21-0.56-0.37c-0.15-0.15-0.22-0.38-0.22-0.67
		c0-0.23,0.05-0.43,0.16-0.6c0.1-0.16,0.24-0.29,0.41-0.39c0.16-0.09,0.36-0.16,0.57-0.21c0.21-0.04,0.42-0.06,0.63-0.06
		c0.34,0,0.62,0.03,0.87,0.08c0.24,0.05,0.44,0.11,0.6,0.18l-0.23,0.55c-0.17-0.07-0.36-0.13-0.56-0.18
		c-0.2-0.05-0.44-0.07-0.69-0.07c-0.39,0-0.66,0.06-0.81,0.18s-0.23,0.26-0.23,0.42c0,0.14,0.03,0.26,0.11,0.35
		C111.54,26.61,111.68,26.69,111.85,26.77z"/>
</g>
</svg>
