<?xml version="1.0" encoding="utf-8"?>
<!-- Generator: Adobe Illustrator 23.0.0, SVG Export Plug-In . SVG Version: 6.00 Build 0)  -->
<svg version="1.1" id="Layer_1" xmlns="http://www.w3.org/2000/svg" xmlns:xlink="http://www.w3.org/1999/xlink" x="0px" y="0px"
	 viewBox="0 0 182.66 52.5" style="enable-background:new 0 0 182.66 52.5;" xml:space="preserve">
<style type="text/css">
	.st0{fill:#D1D3D4;stroke:#808285;stroke-width:0.8;stroke-miterlimit:10;}
	.st1{fill:#464A4C;}
</style>
<path class="st0" d="M164.53,50.77H21.42c-9.5,0-17.28-7.78-17.28-17.28V19.05c0-9.5,7.78-17.28,17.28-17.28h143.11
	c9.5,0,17.28,7.78,17.28,17.28v14.44C181.81,43,174.04,50.77,164.53,50.77z"/>
<g>
	<path class="st1" d="M25.21,22.84v0.62h-2v5.71h-0.74v-5.71h-1.99v-0.62H25.21z"/>
	<path class="st1" d="M25.56,24.77l0.08,0.61c0.18-0.21,0.38-0.38,0.59-0.48c0.29-0.15,0.58-0.23,0.88-0.23
		c0.23,0,0.43,0.04,0.59,0.12l-0.2,0.61c-0.12-0.06-0.3-0.09-0.51-0.09c-0.27,0-0.52,0.08-0.76,0.24c-0.09,0.06-0.17,0.12-0.26,0.2
		c-0.08,0.07-0.16,0.16-0.24,0.25v3.18H25v-3.2l-0.11-1.2H25.56z"/>
	<path class="st1" d="M31.77,29.18c-0.06,0.01-0.1,0.02-0.12,0.02H31.5c-0.23,0-0.39-0.04-0.51-0.13c-0.11-0.09-0.2-0.21-0.26-0.37
		c-0.16,0.15-0.37,0.28-0.62,0.39c-0.25,0.11-0.55,0.17-0.9,0.17c-0.27,0-0.48-0.04-0.66-0.11s-0.32-0.17-0.43-0.29
		s-0.18-0.26-0.23-0.43s-0.07-0.34-0.07-0.53c0-0.27,0.05-0.49,0.14-0.66c0.09-0.17,0.23-0.3,0.39-0.41s0.36-0.18,0.59-0.21
		c0.23-0.04,0.48-0.06,0.76-0.06c0.18,0,0.34,0,0.47,0.02c0.13,0.01,0.29,0.02,0.46,0.03V26.4c0-0.21-0.02-0.4-0.05-0.55
		s-0.09-0.27-0.17-0.36c-0.08-0.09-0.19-0.16-0.32-0.2c-0.14-0.04-0.31-0.06-0.52-0.06c-0.25,0-0.5,0.04-0.75,0.11
		s-0.45,0.14-0.62,0.22l-0.18-0.51c0.22-0.1,0.48-0.19,0.77-0.27c0.3-0.08,0.62-0.12,0.96-0.12c0.31,0,0.56,0.03,0.77,0.09
		c0.2,0.06,0.37,0.16,0.49,0.3c0.12,0.14,0.21,0.33,0.27,0.56c0.05,0.23,0.07,0.51,0.07,0.84v1.59c0,0.23,0.04,0.38,0.1,0.46
		c0.07,0.09,0.17,0.12,0.31,0.12V29.18z M29.63,27.13c-0.4,0-0.67,0.06-0.82,0.19s-0.23,0.32-0.23,0.57c0,0.29,0.07,0.5,0.2,0.62
		s0.35,0.19,0.66,0.19c0.21,0,0.42-0.05,0.63-0.14c0.21-0.09,0.4-0.2,0.55-0.33v-1.06c-0.16-0.01-0.33-0.02-0.48-0.03
		C29.99,27.13,29.81,27.13,29.63,27.13z"/>
	<path class="st1" d="M33.15,24.77l0.03,0.39c0.19-0.12,0.38-0.23,0.59-0.32c0.32-0.12,0.64-0.18,0.96-0.18
		c0.3,0,0.53,0.04,0.72,0.11s0.34,0.18,0.45,0.32c0.1,0.14,0.18,0.32,0.22,0.52c0.05,0.21,0.06,0.45,0.06,0.71v2.83h-0.73V26.5
		c0-0.19-0.01-0.36-0.03-0.51c-0.02-0.16-0.05-0.29-0.12-0.39c-0.06-0.11-0.16-0.19-0.27-0.25s-0.27-0.09-0.48-0.09
		c-0.16,0-0.33,0.02-0.48,0.07s-0.3,0.11-0.45,0.18c-0.12,0.05-0.23,0.12-0.34,0.2v3.46h-0.73v-3.23l-0.08-1.17H33.15z"/>
	<path class="st1" d="M38.33,26.42c0.15,0.08,0.34,0.15,0.58,0.23c0.23,0.08,0.45,0.16,0.67,0.25c0.25,0.1,0.46,0.23,0.62,0.39
		c0.16,0.16,0.25,0.4,0.25,0.71c0,0.44-0.16,0.76-0.48,0.96c-0.32,0.2-0.77,0.3-1.38,0.3c-0.29,0-0.57-0.03-0.84-0.08
		s-0.5-0.13-0.7-0.23l0.23-0.55c0.15,0.09,0.34,0.15,0.57,0.2s0.47,0.08,0.74,0.08c0.14,0,0.28-0.01,0.41-0.03
		c0.14-0.02,0.26-0.04,0.36-0.09c0.1-0.04,0.19-0.11,0.25-0.19c0.07-0.08,0.1-0.2,0.1-0.34c0-0.28-0.18-0.48-0.54-0.61
		c-0.2-0.09-0.42-0.17-0.66-0.25c-0.23-0.07-0.44-0.15-0.62-0.23c-0.23-0.09-0.41-0.21-0.56-0.37c-0.15-0.15-0.22-0.38-0.22-0.67
		c0-0.23,0.05-0.43,0.16-0.6c0.1-0.16,0.24-0.29,0.41-0.39c0.16-0.09,0.36-0.16,0.57-0.21c0.21-0.04,0.42-0.06,0.63-0.06
		c0.34,0,0.62,0.03,0.87,0.08c0.24,0.05,0.44,0.11,0.6,0.18l-0.23,0.55c-0.17-0.07-0.36-0.13-0.56-0.18
		c-0.2-0.05-0.44-0.07-0.69-0.07c-0.39,0-0.66,0.06-0.81,0.18s-0.23,0.26-0.23,0.42c0,0.14,0.03,0.26,0.11,0.35
		C38.02,26.26,38.16,26.34,38.33,26.42z"/>
	<path class="st1" d="M41.92,24.77L42,25.09c0.19-0.13,0.38-0.23,0.56-0.29c0.26-0.09,0.52-0.14,0.8-0.14c0.62,0,1.08,0.2,1.37,0.58
		c0.3,0.39,0.44,0.94,0.44,1.66c0,0.34-0.04,0.66-0.11,0.96c-0.08,0.29-0.2,0.54-0.38,0.75s-0.38,0.37-0.65,0.49
		c-0.27,0.12-0.59,0.18-0.97,0.18c-0.23,0-0.43-0.03-0.6-0.09c-0.06-0.01-0.12-0.03-0.19-0.05c-0.05-0.02-0.12-0.05-0.18-0.08v2.17
		l-0.73,0.11v-5.44l-0.08-1.12H41.92z M43,28.7c0.45,0,0.8-0.14,1.04-0.42c0.25-0.28,0.37-0.74,0.37-1.39
		c0-0.22-0.02-0.44-0.05-0.64c-0.04-0.2-0.11-0.38-0.2-0.53c-0.09-0.15-0.23-0.27-0.38-0.36c-0.16-0.09-0.37-0.13-0.62-0.13
		c-0.26,0-0.48,0.05-0.69,0.16c-0.13,0.07-0.25,0.15-0.37,0.25v2.78C42.35,28.61,42.65,28.7,43,28.7z"/>
	<path class="st1" d="M49.81,29.18c-0.06,0.01-0.11,0.02-0.12,0.02h-0.15c-0.22,0-0.39-0.04-0.5-0.13s-0.2-0.21-0.27-0.37
		c-0.16,0.15-0.37,0.28-0.62,0.39c-0.26,0.11-0.55,0.17-0.9,0.17c-0.27,0-0.49-0.04-0.66-0.11c-0.18-0.07-0.32-0.17-0.43-0.29
		s-0.19-0.26-0.23-0.43c-0.04-0.16-0.06-0.34-0.06-0.53c0-0.27,0.05-0.49,0.14-0.66c0.09-0.17,0.22-0.3,0.38-0.41
		c0.17-0.1,0.37-0.18,0.59-0.21c0.23-0.04,0.48-0.06,0.75-0.06c0.18,0,0.34,0,0.48,0.02c0.13,0.01,0.28,0.02,0.46,0.03V26.4
		c0-0.21-0.02-0.4-0.05-0.55c-0.03-0.15-0.09-0.27-0.16-0.36s-0.19-0.16-0.33-0.2c-0.13-0.04-0.31-0.06-0.52-0.06
		c-0.25,0-0.5,0.04-0.75,0.11s-0.45,0.14-0.61,0.22l-0.19-0.51c0.23-0.1,0.48-0.19,0.78-0.27c0.3-0.08,0.62-0.12,0.96-0.12
		c0.3,0,0.56,0.03,0.77,0.09c0.2,0.06,0.37,0.16,0.49,0.3c0.12,0.14,0.22,0.33,0.27,0.56c0.05,0.23,0.08,0.51,0.08,0.84v1.59
		c0,0.23,0.03,0.38,0.1,0.46c0.06,0.09,0.17,0.12,0.31,0.12V29.18z M47.67,27.13c-0.4,0-0.67,0.06-0.82,0.19
		c-0.16,0.12-0.23,0.32-0.23,0.57c0,0.29,0.06,0.5,0.19,0.62c0.13,0.13,0.35,0.19,0.66,0.19c0.21,0,0.42-0.05,0.63-0.14
		c0.21-0.09,0.4-0.2,0.56-0.33v-1.06c-0.17-0.01-0.33-0.02-0.48-0.03C48.02,27.13,47.86,27.13,47.67,27.13z"/>
	<path class="st1" d="M51.17,24.77l0.08,0.61c0.18-0.21,0.38-0.38,0.59-0.48c0.29-0.15,0.58-0.23,0.88-0.23
		c0.23,0,0.43,0.04,0.59,0.12l-0.2,0.61c-0.12-0.06-0.3-0.09-0.51-0.09c-0.27,0-0.52,0.08-0.76,0.24c-0.09,0.06-0.17,0.12-0.26,0.2
		c-0.08,0.07-0.16,0.16-0.24,0.25v3.18h-0.73v-3.2l-0.11-1.2H51.17z"/>
	<path class="st1" d="M55.43,29.27c-0.38,0-0.71-0.05-0.97-0.14c-0.26-0.09-0.47-0.24-0.62-0.43c-0.16-0.2-0.27-0.43-0.34-0.73
		s-0.11-0.64-0.11-1.03c0-0.77,0.16-1.35,0.5-1.72s0.84-0.56,1.52-0.56c0.37,0,0.66,0.05,0.89,0.16c0.23,0.11,0.41,0.26,0.55,0.45
		c0.13,0.19,0.22,0.42,0.27,0.68s0.08,0.55,0.08,0.85v0.35h-3.05c0,0.25,0.02,0.46,0.05,0.63c0.09,0.35,0.24,0.59,0.46,0.71
		c0.21,0.13,0.51,0.2,0.88,0.2c0.31,0,0.59-0.04,0.83-0.12c0.23-0.08,0.42-0.16,0.56-0.23l0.2,0.5c-0.07,0.05-0.17,0.11-0.3,0.16
		s-0.26,0.1-0.41,0.14c-0.16,0.04-0.31,0.08-0.48,0.1C55.75,29.26,55.59,29.27,55.43,29.27z M56.42,26.61
		c0-0.52-0.09-0.89-0.27-1.09c-0.18-0.2-0.43-0.31-0.74-0.31c-0.36,0-0.64,0.08-0.83,0.24s-0.32,0.41-0.39,0.74
		c-0.01,0.07-0.02,0.13-0.03,0.2c0,0.07-0.01,0.14-0.02,0.22H56.42z"/>
	<path class="st1" d="M58.76,24.77l0.03,0.39c0.19-0.12,0.38-0.23,0.59-0.32c0.32-0.12,0.64-0.18,0.96-0.18
		c0.3,0,0.53,0.04,0.72,0.11s0.34,0.18,0.45,0.32c0.1,0.14,0.18,0.32,0.22,0.52c0.05,0.21,0.06,0.45,0.06,0.71v2.83h-0.73V26.5
		c0-0.19-0.01-0.36-0.03-0.51c-0.02-0.16-0.05-0.29-0.12-0.39c-0.06-0.11-0.16-0.19-0.27-0.25s-0.27-0.09-0.48-0.09
		c-0.16,0-0.33,0.02-0.48,0.07s-0.3,0.11-0.45,0.18c-0.12,0.05-0.23,0.12-0.34,0.2v3.46h-0.73v-3.23l-0.08-1.17H58.76z"/>
	<path class="st1" d="M63.92,25.35v2.17c0,0.19,0.01,0.36,0.02,0.5s0.05,0.27,0.11,0.36c0.06,0.1,0.14,0.17,0.26,0.22
		c0.11,0.05,0.27,0.08,0.45,0.08c0.27,0,0.54-0.05,0.8-0.14l0.13,0.51c-0.18,0.08-0.37,0.13-0.56,0.17c-0.2,0.04-0.4,0.06-0.59,0.06
		c-0.28,0-0.51-0.04-0.69-0.11c-0.18-0.08-0.31-0.18-0.41-0.32c-0.09-0.13-0.16-0.29-0.2-0.48c-0.04-0.19-0.05-0.39-0.05-0.6v-2.4
		h-0.75v-0.52l0.75-0.08v-0.92l0.72-0.12v1.04h1.66v0.58H63.92z"/>
	<path class="st1" d="M72.55,28.55v0.61h-3.69v-6.33h0.73v5.71H72.55z"/>
	<path class="st1" d="M77.12,28.55v0.61h-3.88v-6.33h3.77v0.62h-3.03v2.14h2.93v0.61h-2.93v2.34H77.12z"/>
	<path class="st1" d="M80.1,22.84c0.49,0,0.93,0.06,1.31,0.18c0.38,0.11,0.7,0.3,0.96,0.55c0.26,0.25,0.45,0.58,0.59,0.99
		s0.2,0.9,0.2,1.48c0,0.6-0.08,1.1-0.24,1.5c-0.16,0.4-0.4,0.72-0.69,0.96c-0.3,0.24-0.65,0.41-1.05,0.52
		c-0.41,0.1-0.85,0.15-1.34,0.15h-1.54v-6.33H80.1z M79.84,28.55c0.41,0,0.77-0.04,1.09-0.12c0.32-0.08,0.59-0.22,0.8-0.42
		c0.22-0.2,0.38-0.47,0.49-0.81s0.16-0.77,0.16-1.29c0-0.85-0.19-1.47-0.57-1.87c-0.38-0.39-0.95-0.59-1.7-0.59h-1.06v5.1H79.84z"/>
	<path class="st1" d="M88.07,29.27c-0.62,0-1.08-0.2-1.37-0.58s-0.44-0.94-0.44-1.66c0-0.34,0.04-0.66,0.12-0.95
		c0.08-0.29,0.2-0.54,0.37-0.75s0.39-0.37,0.66-0.49s0.59-0.18,0.96-0.18c0.22,0,0.42,0.03,0.62,0.08c0.12,0.03,0.24,0.08,0.36,0.14
		v-2.26l0.73-0.11v5.52l0.07,1.12h-0.63l-0.09-0.31c-0.17,0.13-0.36,0.23-0.55,0.29C88.64,29.23,88.38,29.27,88.07,29.27z
		 M88.44,25.22c-0.46,0-0.81,0.14-1.06,0.42c-0.24,0.28-0.36,0.75-0.36,1.39c0,0.23,0.02,0.44,0.05,0.64
		c0.04,0.2,0.11,0.37,0.2,0.53c0.09,0.15,0.23,0.27,0.39,0.36s0.37,0.14,0.62,0.14c0.27,0,0.49-0.05,0.69-0.16
		c0.07-0.03,0.13-0.07,0.19-0.11c0.06-0.04,0.12-0.09,0.19-0.14V25.5C89.06,25.31,88.76,25.22,88.44,25.22z"/>
	<path class="st1" d="M91.28,22.95h0.74v0.77h-0.74V22.95z M91.3,24.77h0.73v4.4H91.3V24.77z"/>
	<path class="st1" d="M94.24,26.42c0.15,0.08,0.34,0.15,0.57,0.23s0.46,0.16,0.68,0.25c0.25,0.1,0.45,0.23,0.62,0.39
		c0.16,0.16,0.24,0.4,0.24,0.71c0,0.44-0.16,0.76-0.48,0.96c-0.31,0.2-0.77,0.3-1.38,0.3c-0.29,0-0.57-0.03-0.84-0.08
		c-0.27-0.05-0.51-0.13-0.7-0.23l0.23-0.55c0.16,0.09,0.34,0.15,0.57,0.2s0.48,0.08,0.74,0.08c0.14,0,0.28-0.01,0.42-0.03
		c0.13-0.02,0.26-0.04,0.36-0.09c0.1-0.04,0.19-0.11,0.25-0.19s0.09-0.2,0.09-0.34c0-0.28-0.18-0.48-0.54-0.61
		c-0.2-0.09-0.42-0.17-0.65-0.25c-0.23-0.07-0.44-0.15-0.62-0.23c-0.23-0.09-0.42-0.21-0.57-0.37c-0.14-0.15-0.22-0.38-0.22-0.67
		c0-0.23,0.05-0.43,0.16-0.6c0.11-0.16,0.25-0.29,0.41-0.39c0.17-0.09,0.36-0.16,0.57-0.21c0.21-0.04,0.42-0.06,0.63-0.06
		c0.34,0,0.62,0.03,0.87,0.08s0.45,0.11,0.6,0.18l-0.23,0.55c-0.17-0.07-0.36-0.13-0.57-0.18c-0.2-0.05-0.43-0.07-0.69-0.07
		c-0.38,0-0.66,0.06-0.81,0.18s-0.23,0.26-0.23,0.42c0,0.14,0.04,0.26,0.12,0.35C93.94,26.26,94.06,26.34,94.24,26.42z"/>
	<path class="st1" d="M97.83,24.77l0.08,0.32c0.19-0.13,0.38-0.23,0.57-0.29c0.26-0.09,0.52-0.14,0.8-0.14
		c0.62,0,1.08,0.2,1.37,0.58s0.44,0.94,0.44,1.66c0,0.34-0.04,0.66-0.12,0.96c-0.08,0.29-0.2,0.54-0.37,0.75
		c-0.17,0.21-0.39,0.37-0.66,0.49c-0.27,0.12-0.59,0.18-0.96,0.18c-0.23,0-0.44-0.03-0.61-0.09c-0.06-0.01-0.12-0.03-0.18-0.05
		c-0.05-0.02-0.12-0.05-0.18-0.08v2.17l-0.73,0.11v-5.44l-0.08-1.12H97.83z M98.91,28.7c0.45,0,0.8-0.14,1.05-0.42
		s0.37-0.74,0.37-1.39c0-0.22-0.02-0.44-0.06-0.64c-0.04-0.2-0.1-0.38-0.2-0.53c-0.1-0.15-0.23-0.27-0.39-0.36
		c-0.16-0.09-0.36-0.13-0.61-0.13c-0.26,0-0.49,0.05-0.7,0.16c-0.12,0.07-0.25,0.15-0.36,0.25v2.78
		C98.26,28.61,98.56,28.7,98.91,28.7z"/>
	<path class="st1" d="M103.2,29.19c0,0.01-0.03,0.01-0.09,0.01c-0.01,0-0.07,0.01-0.17,0.01c-0.34,0-0.58-0.1-0.71-0.29
		c-0.12-0.2-0.19-0.48-0.19-0.87v-5.43l0.72-0.11v5.52c0,0.27,0.03,0.43,0.09,0.5s0.18,0.11,0.34,0.11V29.19z"/>
	<path class="st1" d="M107.85,29.18c-0.06,0.01-0.1,0.02-0.12,0.02h-0.14c-0.23,0-0.39-0.04-0.51-0.13
		c-0.11-0.09-0.2-0.21-0.26-0.37c-0.16,0.15-0.37,0.28-0.62,0.39c-0.25,0.11-0.55,0.17-0.9,0.17c-0.27,0-0.48-0.04-0.66-0.11
		s-0.32-0.17-0.43-0.29s-0.18-0.26-0.23-0.43s-0.07-0.34-0.07-0.53c0-0.27,0.05-0.49,0.14-0.66c0.09-0.17,0.23-0.3,0.39-0.41
		s0.36-0.18,0.59-0.21c0.23-0.04,0.48-0.06,0.76-0.06c0.18,0,0.34,0,0.47,0.02c0.13,0.01,0.29,0.02,0.46,0.03V26.4
		c0-0.21-0.02-0.4-0.05-0.55s-0.09-0.27-0.17-0.36c-0.08-0.09-0.19-0.16-0.32-0.2c-0.14-0.04-0.31-0.06-0.52-0.06
		c-0.25,0-0.5,0.04-0.75,0.11s-0.45,0.14-0.62,0.22l-0.18-0.51c0.22-0.1,0.48-0.19,0.77-0.27c0.3-0.08,0.62-0.12,0.96-0.12
		c0.31,0,0.56,0.03,0.77,0.09c0.2,0.06,0.37,0.16,0.49,0.3c0.12,0.14,0.21,0.33,0.27,0.56c0.05,0.23,0.07,0.51,0.07,0.84v1.59
		c0,0.23,0.04,0.38,0.1,0.46c0.07,0.09,0.17,0.12,0.31,0.12V29.18z M105.71,27.13c-0.4,0-0.67,0.06-0.82,0.19s-0.23,0.32-0.23,0.57
		c0,0.29,0.07,0.5,0.2,0.62s0.35,0.19,0.66,0.19c0.21,0,0.42-0.05,0.63-0.14c0.21-0.09,0.4-0.2,0.55-0.33v-1.06
		c-0.16-0.01-0.33-0.02-0.48-0.03C106.07,27.13,105.9,27.13,105.71,27.13z"/>
	<path class="st1" d="M107.93,24.77h0.8l1.27,3.5h0.09l1.17-3.5h0.74l-1.68,4.68c-0.1,0.27-0.2,0.52-0.3,0.75
		c-0.1,0.23-0.22,0.43-0.36,0.6c-0.13,0.17-0.3,0.3-0.52,0.39c-0.2,0.09-0.46,0.14-0.77,0.14c-0.08,0-0.16,0-0.23-0.01
		c-0.07-0.01-0.13-0.02-0.19-0.04l0.09-0.56l0.16,0.03c0.02,0,0.07,0.01,0.16,0.01c0.23,0,0.41-0.04,0.55-0.12
		c0.12-0.08,0.23-0.18,0.3-0.3c0.04-0.05,0.08-0.12,0.12-0.21c0.05-0.09,0.09-0.19,0.12-0.29c0.05-0.1,0.09-0.21,0.12-0.31
		s0.07-0.21,0.1-0.3L107.93,24.77z"/>
	<path class="st1" d="M113.67,26.42c0.15,0.08,0.34,0.15,0.57,0.23s0.46,0.16,0.68,0.25c0.25,0.1,0.45,0.23,0.62,0.39
		c0.16,0.16,0.24,0.4,0.24,0.71c0,0.44-0.16,0.76-0.48,0.96c-0.31,0.2-0.77,0.3-1.38,0.3c-0.29,0-0.57-0.03-0.84-0.08
		c-0.27-0.05-0.51-0.13-0.7-0.23l0.23-0.55c0.16,0.09,0.34,0.15,0.57,0.2s0.48,0.08,0.74,0.08c0.14,0,0.28-0.01,0.42-0.03
		c0.13-0.02,0.26-0.04,0.36-0.09c0.1-0.04,0.19-0.11,0.25-0.19s0.09-0.2,0.09-0.34c0-0.28-0.18-0.48-0.54-0.61
		c-0.2-0.09-0.42-0.17-0.65-0.25c-0.23-0.07-0.44-0.15-0.62-0.23c-0.23-0.09-0.42-0.21-0.57-0.37c-0.14-0.15-0.22-0.38-0.22-0.67
		c0-0.23,0.05-0.43,0.16-0.6c0.11-0.16,0.25-0.29,0.41-0.39c0.17-0.09,0.36-0.16,0.57-0.21c0.21-0.04,0.42-0.06,0.63-0.06
		c0.34,0,0.62,0.03,0.87,0.08s0.45,0.11,0.6,0.18l-0.23,0.55c-0.17-0.07-0.36-0.13-0.57-0.18c-0.2-0.05-0.43-0.07-0.69-0.07
		c-0.38,0-0.66,0.06-0.81,0.18s-0.23,0.26-0.23,0.42c0,0.14,0.04,0.26,0.12,0.35C113.37,26.26,113.49,26.34,113.67,26.42z"/>
</g>
</svg>
