<?xml version="1.0" encoding="utf-8"?>
<!-- Generator: Adobe Illustrator 23.0.0, SVG Export Plug-In . SVG Version: 6.00 Build 0)  -->
<svg version="1.1" id="Layer_1" xmlns="http://www.w3.org/2000/svg" xmlns:xlink="http://www.w3.org/1999/xlink" x="0px" y="0px"
	 viewBox="0 0 182.66 52.5" style="enable-background:new 0 0 182.66 52.5;" xml:space="preserve">
<style type="text/css">
	.st0{fill:#F1F2F2;stroke:#808285;stroke-width:0.8;stroke-miterlimit:10;}
	.st1{fill:#464A4C;}
</style>
<path class="st0" d="M163.39,50.44H20.28C10.78,50.44,3,42.66,3,33.16V18.72c0-9.5,7.78-17.28,17.28-17.28h143.11
	c9.5,0,17.28,7.78,17.28,17.28v14.44C180.67,42.66,172.89,50.44,163.39,50.44z"/>
<g>
	<path class="st1" d="M22.46,28.94c-0.95-0.01-1.64-0.28-2.08-0.82c-0.43-0.55-0.65-1.36-0.65-2.44c0-0.57,0.07-1.06,0.2-1.47
		c0.12-0.41,0.32-0.75,0.56-1.02c0.25-0.27,0.55-0.46,0.9-0.59s0.75-0.19,1.19-0.19c0.41,0,0.79,0.07,1.13,0.2
		c0.35,0.14,0.62,0.33,0.84,0.59l-0.45,0.44c-0.17-0.19-0.38-0.34-0.62-0.45s-0.52-0.16-0.88-0.16c-0.73,0-1.27,0.23-1.6,0.7
		c-0.34,0.46-0.5,1.14-0.5,2.04c0,0.82,0.16,1.45,0.47,1.89c0.31,0.43,0.82,0.65,1.52,0.65c0.42,0,0.79-0.04,1.09-0.12
		c0.3-0.08,0.57-0.16,0.79-0.25l0.19,0.57c-0.23,0.11-0.54,0.22-0.91,0.31S22.87,28.94,22.46,28.94z"/>
	<path class="st1" d="M29.22,28.85c-0.06,0.01-0.1,0.02-0.12,0.02h-0.14c-0.23,0-0.39-0.04-0.51-0.13c-0.11-0.09-0.2-0.21-0.26-0.37
		c-0.16,0.15-0.37,0.28-0.62,0.39c-0.25,0.11-0.55,0.17-0.9,0.17c-0.27,0-0.48-0.04-0.66-0.11s-0.32-0.17-0.43-0.29
		s-0.18-0.26-0.23-0.43s-0.07-0.34-0.07-0.53c0-0.27,0.05-0.49,0.14-0.66c0.09-0.17,0.23-0.3,0.39-0.41s0.36-0.18,0.59-0.21
		c0.23-0.04,0.48-0.06,0.76-0.06c0.18,0,0.34,0,0.47,0.02c0.13,0.01,0.29,0.02,0.46,0.03v-0.23c0-0.21-0.02-0.4-0.05-0.55
		s-0.09-0.27-0.17-0.36c-0.08-0.09-0.19-0.16-0.32-0.2c-0.14-0.04-0.31-0.06-0.52-0.06c-0.25,0-0.5,0.04-0.75,0.11
		s-0.45,0.14-0.62,0.22l-0.18-0.51c0.22-0.1,0.48-0.19,0.77-0.27c0.3-0.08,0.62-0.12,0.96-0.12c0.31,0,0.56,0.03,0.77,0.09
		c0.2,0.06,0.37,0.16,0.49,0.3c0.12,0.14,0.21,0.33,0.27,0.56c0.05,0.23,0.07,0.51,0.07,0.84v1.59c0,0.23,0.04,0.38,0.1,0.46
		c0.07,0.09,0.17,0.12,0.31,0.12V28.85z M27.08,26.8c-0.4,0-0.67,0.06-0.82,0.19s-0.23,0.32-0.23,0.57c0,0.29,0.07,0.5,0.2,0.62
		s0.35,0.19,0.66,0.19c0.21,0,0.42-0.05,0.63-0.14c0.21-0.09,0.4-0.2,0.55-0.33v-1.06c-0.16-0.01-0.33-0.02-0.48-0.03
		C27.43,26.8,27.26,26.8,27.08,26.8z"/>
	<path class="st1" d="M30.57,24.43l0.08,0.61c0.18-0.21,0.38-0.38,0.59-0.48c0.29-0.15,0.59-0.23,0.88-0.23
		c0.24,0,0.44,0.04,0.59,0.12l-0.2,0.61c-0.13-0.06-0.3-0.09-0.52-0.09c-0.27,0-0.52,0.08-0.76,0.24c-0.09,0.06-0.17,0.12-0.25,0.2
		c-0.08,0.07-0.16,0.16-0.24,0.25v3.18h-0.73v-3.2l-0.1-1.2H30.57z"/>
	<path class="st1" d="M34.59,28.94c-0.62,0-1.07-0.2-1.37-0.58c-0.29-0.39-0.44-0.94-0.44-1.66c0-0.34,0.04-0.66,0.12-0.95
		c0.08-0.29,0.2-0.54,0.37-0.75c0.17-0.21,0.39-0.37,0.66-0.49s0.59-0.18,0.97-0.18c0.21,0,0.42,0.03,0.61,0.08
		c0.12,0.03,0.24,0.08,0.37,0.14v-2.26l0.72-0.11v5.52l0.08,1.12h-0.63l-0.09-0.31c-0.17,0.13-0.36,0.23-0.56,0.29
		C35.17,28.9,34.9,28.94,34.59,28.94z M34.96,24.89c-0.46,0-0.81,0.14-1.05,0.42s-0.37,0.75-0.37,1.39c0,0.23,0.02,0.44,0.06,0.64
		c0.04,0.2,0.1,0.37,0.2,0.53c0.1,0.15,0.23,0.27,0.39,0.36s0.38,0.14,0.62,0.14c0.27,0,0.5-0.05,0.7-0.16
		c0.06-0.03,0.12-0.07,0.19-0.11s0.12-0.09,0.19-0.14v-2.79C35.59,24.98,35.29,24.89,34.96,24.89z"/>
	<path class="st1" d="M37.81,22.62h0.74v0.77h-0.74V22.62z M37.82,24.43h0.73v4.4h-0.73V24.43z"/>
	<path class="st1" d="M41.49,28.94c-0.38,0-0.7-0.05-0.95-0.16c-0.25-0.11-0.45-0.26-0.6-0.46c-0.15-0.2-0.25-0.45-0.31-0.73
		s-0.09-0.61-0.09-0.98c0-0.77,0.17-1.35,0.51-1.72c0.34-0.38,0.89-0.56,1.64-0.56c0.38,0,0.69,0.05,0.94,0.16
		c0.26,0.11,0.45,0.26,0.61,0.46c0.15,0.2,0.26,0.45,0.32,0.73s0.09,0.61,0.09,0.98c0,0.77-0.17,1.34-0.52,1.71
		C42.76,28.76,42.22,28.94,41.49,28.94z M41.49,28.37c0.53,0,0.91-0.15,1.11-0.45c0.2-0.3,0.3-0.75,0.3-1.35
		c0-0.23-0.02-0.45-0.05-0.65c-0.03-0.2-0.09-0.38-0.18-0.54c-0.09-0.16-0.22-0.28-0.38-0.37s-0.35-0.14-0.6-0.14
		c-0.53,0-0.91,0.16-1.11,0.47c-0.2,0.31-0.3,0.76-0.3,1.35c0,0.24,0.02,0.46,0.05,0.66c0.03,0.2,0.09,0.38,0.19,0.53
		c0.09,0.15,0.21,0.27,0.37,0.36S41.24,28.37,41.49,28.37z"/>
	<path class="st1" d="M50.92,28.22v0.61h-3.88v-6.33h3.77v0.62h-3.03v2.14h2.93v0.61h-2.93v2.34H50.92z"/>
	<path class="st1" d="M53.89,24.33c0.21,0,0.42,0.03,0.61,0.08c0.14,0.04,0.3,0.11,0.49,0.2l0.05-0.18h0.55v6.45l-0.72,0.11v-2.42
		c-0.16,0.09-0.32,0.18-0.48,0.24c-0.22,0.08-0.48,0.12-0.8,0.12c-0.62,0-1.07-0.2-1.37-0.58c-0.29-0.39-0.44-0.94-0.44-1.66
		c0-0.34,0.04-0.66,0.12-0.95c0.08-0.29,0.2-0.54,0.37-0.75c0.17-0.21,0.39-0.37,0.66-0.49S53.5,24.33,53.89,24.33z M53.95,24.89
		c-0.46,0-0.81,0.14-1.05,0.42s-0.37,0.75-0.37,1.39c0,0.23,0.02,0.44,0.06,0.64c0.04,0.2,0.1,0.37,0.2,0.53
		c0.1,0.15,0.23,0.27,0.39,0.36s0.38,0.14,0.62,0.14c0.27,0,0.5-0.05,0.7-0.16c0.06-0.03,0.12-0.07,0.19-0.11s0.12-0.09,0.19-0.14
		v-2.79C54.58,24.98,54.28,24.89,53.95,24.89z"/>
	<path class="st1" d="M60.37,27.66l0.08,1.17h-0.68l-0.05-0.38c-0.16,0.11-0.35,0.21-0.58,0.3c-0.34,0.13-0.66,0.19-0.96,0.19
		c-0.29,0-0.52-0.04-0.71-0.11s-0.33-0.18-0.44-0.32c-0.1-0.14-0.18-0.32-0.22-0.52s-0.06-0.45-0.06-0.73v-2.82h0.72v2.67
		c0,0.18,0.02,0.36,0.03,0.51c0.02,0.15,0.07,0.29,0.12,0.39c0.06,0.11,0.16,0.19,0.27,0.25c0.12,0.05,0.27,0.09,0.46,0.09
		c0.17,0,0.33-0.02,0.49-0.07c0.16-0.04,0.3-0.1,0.45-0.17l0.35-0.2v-3.47h0.72V27.66z"/>
	<path class="st1" d="M61.58,22.62h0.74v0.77h-0.74V22.62z M61.58,24.43h0.73v4.4h-0.73V24.43z"/>
	<path class="st1" d="M64.09,24.43l0.08,0.32c0.19-0.13,0.38-0.23,0.56-0.29c0.26-0.09,0.52-0.14,0.8-0.14
		c0.62,0,1.08,0.2,1.37,0.58c0.3,0.39,0.44,0.94,0.44,1.66c0,0.34-0.04,0.66-0.11,0.96c-0.08,0.29-0.2,0.54-0.38,0.75
		s-0.38,0.37-0.65,0.49c-0.27,0.12-0.59,0.18-0.97,0.18c-0.23,0-0.43-0.03-0.6-0.09c-0.06-0.01-0.12-0.03-0.19-0.05
		c-0.05-0.02-0.12-0.05-0.18-0.08v2.17l-0.73,0.11v-5.44l-0.08-1.12H64.09z M65.17,28.37c0.45,0,0.8-0.14,1.04-0.42
		c0.25-0.28,0.37-0.74,0.37-1.39c0-0.22-0.02-0.44-0.05-0.64c-0.04-0.2-0.11-0.38-0.2-0.53c-0.09-0.15-0.23-0.27-0.38-0.36
		c-0.16-0.09-0.37-0.13-0.62-0.13c-0.26,0-0.48,0.05-0.69,0.16c-0.13,0.07-0.25,0.15-0.37,0.25v2.78
		C64.52,28.28,64.82,28.37,65.17,28.37z"/>
	<path class="st1" d="M68.91,24.43l0.02,0.38c0.08-0.05,0.16-0.11,0.25-0.16c0.09-0.05,0.19-0.09,0.29-0.14
		c0.28-0.12,0.58-0.18,0.89-0.18c0.29,0,0.52,0.04,0.7,0.11c0.18,0.07,0.31,0.18,0.41,0.32l0.05,0.08c0.18-0.14,0.38-0.25,0.59-0.33
		c0.31-0.12,0.62-0.18,0.95-0.18c0.28,0,0.51,0.04,0.69,0.11c0.17,0.07,0.31,0.18,0.41,0.32s0.17,0.32,0.2,0.52
		c0.04,0.21,0.05,0.45,0.05,0.71v2.83h-0.72v-2.67c0-0.19-0.01-0.36-0.03-0.51c-0.02-0.16-0.05-0.29-0.11-0.39
		c-0.06-0.11-0.14-0.19-0.25-0.25c-0.1-0.06-0.25-0.09-0.42-0.09c-0.16,0-0.32,0.02-0.47,0.07s-0.3,0.11-0.43,0.18
		c-0.05,0.02-0.1,0.05-0.15,0.09c-0.05,0.03-0.11,0.07-0.16,0.11c0.02,0.09,0.02,0.2,0.03,0.3c0,0.11,0.01,0.22,0.01,0.33v2.83H71
		v-2.67c0-0.19-0.01-0.36-0.02-0.51c-0.02-0.16-0.05-0.29-0.11-0.39c-0.05-0.11-0.14-0.19-0.24-0.25c-0.11-0.06-0.25-0.09-0.43-0.09
		c-0.31,0-0.61,0.08-0.89,0.25c-0.05,0.02-0.09,0.05-0.13,0.08c-0.05,0.03-0.09,0.06-0.13,0.09v3.48H68.3v-3.23l-0.08-1.17H68.91z"
		/>
	<path class="st1" d="M77.4,28.94c-0.38,0-0.71-0.05-0.97-0.14c-0.26-0.09-0.47-0.24-0.62-0.43c-0.16-0.2-0.27-0.43-0.34-0.73
		s-0.11-0.64-0.11-1.03c0-0.77,0.16-1.35,0.5-1.72s0.84-0.56,1.52-0.56c0.37,0,0.66,0.05,0.89,0.16c0.23,0.11,0.41,0.26,0.55,0.45
		c0.13,0.19,0.22,0.42,0.27,0.68s0.08,0.55,0.08,0.85v0.35h-3.05c0,0.25,0.02,0.46,0.05,0.63c0.09,0.35,0.24,0.59,0.46,0.71
		c0.21,0.13,0.51,0.2,0.88,0.2c0.31,0,0.59-0.04,0.83-0.12c0.23-0.08,0.42-0.16,0.56-0.23l0.2,0.5c-0.07,0.05-0.17,0.11-0.3,0.16
		s-0.26,0.1-0.41,0.14c-0.16,0.04-0.31,0.08-0.48,0.1C77.72,28.93,77.55,28.94,77.4,28.94z M78.39,26.28c0-0.52-0.09-0.89-0.27-1.09
		c-0.18-0.2-0.43-0.31-0.74-0.31c-0.36,0-0.64,0.08-0.83,0.24s-0.32,0.41-0.39,0.74c-0.01,0.07-0.02,0.13-0.03,0.2
		c0,0.07-0.01,0.14-0.02,0.22H78.39z"/>
	<path class="st1" d="M80.72,24.43l0.03,0.39c0.19-0.12,0.38-0.23,0.59-0.32c0.32-0.12,0.64-0.18,0.96-0.18
		c0.3,0,0.53,0.04,0.72,0.11s0.34,0.18,0.45,0.32c0.1,0.14,0.18,0.32,0.22,0.52c0.05,0.21,0.06,0.45,0.06,0.71v2.83h-0.73v-2.67
		c0-0.19-0.01-0.36-0.03-0.51c-0.02-0.16-0.05-0.29-0.12-0.39c-0.06-0.11-0.16-0.19-0.27-0.25s-0.27-0.09-0.48-0.09
		c-0.16,0-0.33,0.02-0.48,0.07s-0.3,0.11-0.45,0.18c-0.12,0.05-0.23,0.12-0.34,0.2v3.46h-0.73v-3.23l-0.08-1.17H80.72z"/>
	<path class="st1" d="M85.89,25.01v2.17c0,0.19,0.01,0.36,0.02,0.5s0.05,0.27,0.11,0.36c0.06,0.1,0.14,0.17,0.26,0.22
		c0.11,0.05,0.27,0.08,0.45,0.08c0.27,0,0.54-0.05,0.8-0.14l0.13,0.51c-0.18,0.08-0.37,0.13-0.56,0.17c-0.2,0.04-0.4,0.06-0.59,0.06
		c-0.28,0-0.51-0.04-0.69-0.11c-0.18-0.08-0.31-0.18-0.41-0.32c-0.09-0.13-0.16-0.29-0.2-0.48c-0.04-0.19-0.05-0.39-0.05-0.6v-2.4
		h-0.75v-0.52l0.75-0.08v-0.92l0.72-0.12v1.04h1.66v0.58H85.89z"/>
	<path class="st1" d="M92.61,22.51c0.49,0,0.92,0.06,1.3,0.18c0.38,0.11,0.7,0.3,0.96,0.55s0.45,0.58,0.59,0.99
		c0.13,0.41,0.2,0.9,0.2,1.48c0,0.6-0.08,1.1-0.24,1.5c-0.16,0.4-0.39,0.72-0.69,0.96c-0.29,0.24-0.64,0.41-1.05,0.52
		c-0.4,0.1-0.84,0.15-1.33,0.15h-1.54v-6.33H92.61z M92.34,28.22c0.41,0,0.77-0.04,1.09-0.12c0.31-0.08,0.58-0.22,0.8-0.42
		c0.22-0.2,0.38-0.47,0.49-0.81c0.12-0.34,0.17-0.77,0.17-1.29c0-0.85-0.19-1.47-0.57-1.87s-0.95-0.59-1.7-0.59h-1.07v5.1H92.34z"/>
	<path class="st1" d="M96.68,22.62h0.74v0.77h-0.74V22.62z M96.69,24.43h0.73v4.4h-0.73V24.43z"/>
	<path class="st1" d="M99.64,26.09c0.15,0.08,0.34,0.15,0.57,0.23s0.46,0.16,0.68,0.25c0.25,0.1,0.45,0.23,0.62,0.39
		c0.16,0.16,0.24,0.4,0.24,0.71c0,0.44-0.16,0.76-0.48,0.96c-0.31,0.2-0.77,0.3-1.38,0.3c-0.29,0-0.57-0.03-0.84-0.08
		c-0.27-0.05-0.51-0.13-0.7-0.23l0.23-0.55c0.16,0.09,0.34,0.15,0.57,0.2s0.48,0.08,0.74,0.08c0.14,0,0.28-0.01,0.42-0.03
		c0.13-0.02,0.26-0.04,0.36-0.09c0.1-0.04,0.19-0.11,0.25-0.19s0.09-0.2,0.09-0.34c0-0.28-0.18-0.48-0.54-0.61
		c-0.2-0.09-0.42-0.17-0.65-0.25c-0.23-0.07-0.44-0.15-0.62-0.23c-0.23-0.09-0.42-0.21-0.57-0.37c-0.14-0.15-0.22-0.38-0.22-0.67
		c0-0.23,0.05-0.43,0.16-0.6c0.11-0.16,0.25-0.29,0.41-0.39c0.17-0.09,0.36-0.16,0.57-0.21c0.21-0.04,0.42-0.06,0.63-0.06
		c0.34,0,0.62,0.03,0.87,0.08s0.45,0.11,0.6,0.18l-0.23,0.55c-0.17-0.07-0.36-0.13-0.57-0.18c-0.2-0.05-0.43-0.07-0.69-0.07
		c-0.38,0-0.66,0.06-0.81,0.18s-0.23,0.26-0.23,0.42c0,0.14,0.04,0.26,0.12,0.35C99.33,25.93,99.46,26.01,99.64,26.09z"/>
	<path class="st1" d="M103.22,24.43l0.08,0.32c0.19-0.13,0.38-0.23,0.57-0.29c0.26-0.09,0.52-0.14,0.8-0.14
		c0.62,0,1.08,0.2,1.37,0.58s0.44,0.94,0.44,1.66c0,0.34-0.04,0.66-0.12,0.96c-0.08,0.29-0.2,0.54-0.37,0.75
		c-0.17,0.21-0.39,0.37-0.66,0.49c-0.27,0.12-0.59,0.18-0.96,0.18c-0.23,0-0.44-0.03-0.61-0.09c-0.06-0.01-0.12-0.03-0.18-0.05
		c-0.05-0.02-0.12-0.05-0.18-0.08v2.17l-0.73,0.11v-5.44l-0.08-1.12H103.22z M104.3,28.37c0.45,0,0.8-0.14,1.05-0.42
		s0.37-0.74,0.37-1.39c0-0.22-0.02-0.44-0.06-0.64c-0.04-0.2-0.1-0.38-0.2-0.53c-0.1-0.15-0.23-0.27-0.39-0.36
		c-0.16-0.09-0.36-0.13-0.61-0.13c-0.26,0-0.49,0.05-0.7,0.16c-0.12,0.07-0.25,0.15-0.36,0.25v2.78
		C103.65,28.28,103.96,28.37,104.3,28.37z"/>
	<path class="st1" d="M108.6,28.86c0,0.01-0.03,0.01-0.09,0.01c-0.01,0-0.07,0.01-0.17,0.01c-0.34,0-0.58-0.1-0.71-0.29
		c-0.12-0.2-0.19-0.48-0.19-0.87v-5.43l0.72-0.11v5.52c0,0.27,0.03,0.43,0.09,0.5s0.18,0.11,0.34,0.11V28.86z"/>
	<path class="st1" d="M113.25,28.85c-0.06,0.01-0.1,0.02-0.12,0.02h-0.14c-0.23,0-0.39-0.04-0.51-0.13
		c-0.11-0.09-0.2-0.21-0.26-0.37c-0.16,0.15-0.37,0.28-0.62,0.39c-0.25,0.11-0.55,0.17-0.9,0.17c-0.27,0-0.48-0.04-0.66-0.11
		s-0.32-0.17-0.43-0.29s-0.18-0.26-0.23-0.43s-0.07-0.34-0.07-0.53c0-0.27,0.05-0.49,0.14-0.66c0.09-0.17,0.23-0.3,0.39-0.41
		s0.36-0.18,0.59-0.21c0.23-0.04,0.48-0.06,0.76-0.06c0.18,0,0.34,0,0.47,0.02c0.13,0.01,0.29,0.02,0.46,0.03v-0.23
		c0-0.21-0.02-0.4-0.05-0.55s-0.09-0.27-0.17-0.36c-0.08-0.09-0.19-0.16-0.32-0.2c-0.14-0.04-0.31-0.06-0.52-0.06
		c-0.25,0-0.5,0.04-0.75,0.11s-0.45,0.14-0.62,0.22l-0.18-0.51c0.22-0.1,0.48-0.19,0.77-0.27c0.3-0.08,0.62-0.12,0.96-0.12
		c0.31,0,0.56,0.03,0.77,0.09c0.2,0.06,0.37,0.16,0.49,0.3c0.12,0.14,0.21,0.33,0.27,0.56c0.05,0.23,0.07,0.51,0.07,0.84v1.59
		c0,0.23,0.04,0.38,0.1,0.46c0.07,0.09,0.17,0.12,0.31,0.12V28.85z M111.11,26.8c-0.4,0-0.67,0.06-0.82,0.19s-0.23,0.32-0.23,0.57
		c0,0.29,0.07,0.5,0.2,0.62s0.35,0.19,0.66,0.19c0.21,0,0.42-0.05,0.63-0.14c0.21-0.09,0.4-0.2,0.55-0.33v-1.06
		c-0.16-0.01-0.33-0.02-0.48-0.03C111.47,26.8,111.29,26.8,111.11,26.8z"/>
	<path class="st1" d="M113.33,24.43h0.8l1.27,3.5h0.09l1.17-3.5h0.74l-1.68,4.68c-0.1,0.27-0.2,0.52-0.3,0.75
		c-0.1,0.23-0.22,0.43-0.36,0.6c-0.13,0.17-0.3,0.3-0.52,0.39c-0.2,0.09-0.46,0.14-0.77,0.14c-0.08,0-0.16,0-0.23-0.01
		c-0.07-0.01-0.13-0.02-0.19-0.04l0.09-0.56l0.16,0.03c0.02,0,0.07,0.01,0.16,0.01c0.23,0,0.41-0.04,0.55-0.12
		c0.12-0.08,0.23-0.18,0.3-0.3c0.04-0.05,0.08-0.12,0.12-0.21c0.05-0.09,0.09-0.19,0.12-0.29c0.05-0.1,0.09-0.21,0.12-0.31
		s0.07-0.21,0.1-0.3L113.33,24.43z"/>
	<path class="st1" d="M119.07,26.09c0.15,0.08,0.34,0.15,0.57,0.23s0.46,0.16,0.68,0.25c0.25,0.1,0.45,0.23,0.62,0.39
		c0.16,0.16,0.24,0.4,0.24,0.71c0,0.44-0.16,0.76-0.48,0.96c-0.31,0.2-0.77,0.3-1.38,0.3c-0.29,0-0.57-0.03-0.84-0.08
		c-0.27-0.05-0.51-0.13-0.7-0.23l0.23-0.55c0.16,0.09,0.34,0.15,0.57,0.2s0.48,0.08,0.74,0.08c0.14,0,0.28-0.01,0.42-0.03
		c0.13-0.02,0.26-0.04,0.36-0.09c0.1-0.04,0.19-0.11,0.25-0.19s0.09-0.2,0.09-0.34c0-0.28-0.18-0.48-0.54-0.61
		c-0.2-0.09-0.42-0.17-0.65-0.25c-0.23-0.07-0.44-0.15-0.62-0.23c-0.23-0.09-0.42-0.21-0.57-0.37c-0.14-0.15-0.22-0.38-0.22-0.67
		c0-0.23,0.05-0.43,0.16-0.6c0.11-0.16,0.25-0.29,0.41-0.39c0.17-0.09,0.36-0.16,0.57-0.21c0.21-0.04,0.42-0.06,0.63-0.06
		c0.34,0,0.62,0.03,0.87,0.08s0.45,0.11,0.6,0.18l-0.23,0.55c-0.17-0.07-0.36-0.13-0.57-0.18c-0.2-0.05-0.43-0.07-0.69-0.07
		c-0.38,0-0.66,0.06-0.81,0.18s-0.23,0.26-0.23,0.42c0,0.14,0.04,0.26,0.12,0.35C118.76,25.93,118.89,26.01,119.07,26.09z"/>
</g>
</svg>
