<?xml version="1.0" encoding="utf-8"?>
<!-- Generator: Adobe Illustrator 23.0.0, SVG Export Plug-In . SVG Version: 6.00 Build 0)  -->
<svg version="1.1" id="Layer_1" xmlns="http://www.w3.org/2000/svg" xmlns:xlink="http://www.w3.org/1999/xlink" x="0px" y="0px"
	 viewBox="0 0 182.66 52.5" style="enable-background:new 0 0 182.66 52.5;" xml:space="preserve">
<style type="text/css">
	.st0{fill:#939598;stroke:#808285;stroke-width:0.8;stroke-miterlimit:10;}
	.st1{fill:#464A4C;}
</style>
<path class="st0" d="M162.29,50.95H19.18c-9.5,0-17.28-7.78-17.28-17.28V19.23c0-9.5,7.78-17.28,17.28-17.28h143.11
	c9.5,0,17.28,7.78,17.28,17.28v14.44C179.57,43.17,171.79,50.95,162.29,50.95z"/>
<g>
	<path class="st1" d="M23.56,23.01v3.96c0,0.88-0.2,1.51-0.61,1.89c-0.41,0.38-1.01,0.57-1.82,0.57c-0.78,0-1.35-0.2-1.72-0.6
		c-0.36-0.4-0.55-1.04-0.55-1.92v-3.91h0.74v4.05c0,0.28,0.02,0.53,0.08,0.75c0.05,0.21,0.13,0.4,0.26,0.55
		c0.12,0.15,0.28,0.27,0.47,0.34c0.2,0.08,0.43,0.12,0.71,0.12c0.31,0,0.58-0.04,0.8-0.11s0.39-0.18,0.53-0.34
		c0.13-0.15,0.23-0.35,0.29-0.59c0.05-0.24,0.09-0.54,0.09-0.89v-3.89H23.56z"/>
	<path class="st1" d="M25.96,29.37c0,0.01-0.03,0.01-0.09,0.01c-0.01,0-0.07,0.01-0.17,0.01c-0.34,0-0.58-0.1-0.71-0.29
		c-0.12-0.2-0.19-0.48-0.19-0.87V22.8l0.72-0.11v5.52c0,0.27,0.03,0.43,0.09,0.5s0.18,0.11,0.34,0.11V29.37z"/>
	<path class="st1" d="M27.79,25.52v2.17c0,0.19,0.01,0.36,0.02,0.5s0.05,0.27,0.11,0.36c0.06,0.1,0.14,0.17,0.26,0.22
		c0.11,0.05,0.27,0.08,0.45,0.08c0.27,0,0.54-0.05,0.8-0.14l0.13,0.51c-0.18,0.08-0.37,0.13-0.56,0.17c-0.2,0.04-0.4,0.06-0.59,0.06
		c-0.28,0-0.51-0.04-0.69-0.11c-0.18-0.08-0.31-0.18-0.41-0.32c-0.09-0.13-0.16-0.29-0.2-0.48c-0.04-0.19-0.05-0.39-0.05-0.6v-2.4
		h-0.75v-0.52l0.75-0.08v-0.92l0.72-0.12v1.04h1.66v0.58H27.79z"/>
	<path class="st1" d="M30.88,24.94l0.08,0.61c0.18-0.21,0.38-0.38,0.59-0.48c0.29-0.15,0.58-0.23,0.88-0.23
		c0.23,0,0.43,0.04,0.59,0.12l-0.2,0.61c-0.12-0.06-0.3-0.09-0.51-0.09c-0.27,0-0.52,0.08-0.76,0.24c-0.09,0.06-0.17,0.12-0.26,0.2
		c-0.08,0.07-0.16,0.16-0.24,0.25v3.18h-0.73v-3.2l-0.11-1.2H30.88z"/>
	<path class="st1" d="M37.09,29.36c-0.06,0.01-0.1,0.02-0.12,0.02h-0.14c-0.23,0-0.39-0.04-0.51-0.13c-0.11-0.09-0.2-0.21-0.26-0.37
		c-0.16,0.15-0.37,0.28-0.62,0.39c-0.25,0.11-0.55,0.17-0.9,0.17c-0.27,0-0.48-0.04-0.66-0.11s-0.32-0.17-0.43-0.29
		s-0.18-0.26-0.23-0.43s-0.07-0.34-0.07-0.53c0-0.27,0.05-0.49,0.14-0.66c0.09-0.17,0.23-0.3,0.39-0.41s0.36-0.18,0.59-0.21
		c0.23-0.04,0.48-0.06,0.76-0.06c0.18,0,0.34,0,0.47,0.02c0.13,0.01,0.29,0.02,0.46,0.03v-0.23c0-0.21-0.02-0.4-0.05-0.55
		s-0.09-0.27-0.17-0.36c-0.08-0.09-0.19-0.16-0.32-0.2c-0.14-0.04-0.31-0.06-0.52-0.06c-0.25,0-0.5,0.04-0.75,0.11
		s-0.45,0.14-0.62,0.22l-0.18-0.51c0.22-0.1,0.48-0.19,0.77-0.27c0.3-0.08,0.62-0.12,0.96-0.12c0.31,0,0.56,0.03,0.77,0.09
		c0.2,0.06,0.37,0.16,0.49,0.3c0.12,0.14,0.21,0.33,0.27,0.56c0.05,0.23,0.07,0.51,0.07,0.84v1.59c0,0.23,0.04,0.38,0.1,0.46
		c0.07,0.09,0.17,0.12,0.31,0.12V29.36z M34.95,27.31c-0.4,0-0.67,0.06-0.82,0.19s-0.23,0.32-0.23,0.57c0,0.29,0.07,0.5,0.2,0.62
		s0.35,0.19,0.66,0.19c0.21,0,0.42-0.05,0.63-0.14c0.21-0.09,0.4-0.2,0.55-0.33v-1.06c-0.16-0.01-0.33-0.02-0.48-0.03
		C35.31,27.31,35.14,27.31,34.95,27.31z"/>
	<path class="st1" d="M40.23,27.42h-2.4v-0.63h2.4V27.42z"/>
	<path class="st1" d="M44.06,26.89c-0.12-0.06-0.27-0.12-0.44-0.18c-0.17-0.06-0.34-0.13-0.52-0.2c-0.18-0.07-0.35-0.14-0.52-0.21
		c-0.17-0.07-0.33-0.15-0.46-0.23c-0.3-0.15-0.53-0.34-0.7-0.57s-0.24-0.54-0.24-0.93c0-0.29,0.05-0.53,0.17-0.73
		c0.12-0.21,0.27-0.38,0.48-0.52s0.44-0.23,0.71-0.3c0.27-0.07,0.56-0.1,0.88-0.1c0.72,0,1.34,0.13,1.84,0.38l-0.26,0.59
		c-0.18-0.08-0.41-0.16-0.68-0.24c-0.27-0.08-0.57-0.12-0.9-0.12c-0.46,0-0.83,0.09-1.09,0.26c-0.27,0.18-0.4,0.42-0.4,0.72
		c0,0.21,0.05,0.39,0.15,0.54c0.09,0.14,0.26,0.28,0.48,0.4c0.12,0.06,0.26,0.12,0.41,0.19c0.16,0.06,0.32,0.12,0.49,0.19
		c0.16,0.06,0.34,0.13,0.5,0.2s0.32,0.14,0.46,0.21c0.13,0.08,0.26,0.16,0.38,0.25s0.22,0.19,0.3,0.3c0.09,0.12,0.16,0.25,0.2,0.4
		c0.05,0.16,0.08,0.34,0.08,0.55c0,0.29-0.05,0.54-0.17,0.75c-0.12,0.21-0.27,0.39-0.48,0.53s-0.44,0.25-0.71,0.32
		c-0.28,0.07-0.58,0.11-0.91,0.11c-0.35,0-0.7-0.04-1.05-0.11s-0.66-0.18-0.95-0.32l0.28-0.57c0.29,0.13,0.56,0.23,0.83,0.29
		s0.55,0.1,0.88,0.1c0.52,0,0.9-0.09,1.16-0.28s0.38-0.43,0.38-0.74C44.66,27.4,44.46,27.09,44.06,26.89z"/>
	<path class="st1" d="M47.35,25.52v2.17c0,0.19,0.01,0.36,0.02,0.5s0.05,0.27,0.11,0.36c0.05,0.1,0.14,0.17,0.25,0.22
		c0.12,0.05,0.27,0.08,0.46,0.08c0.27,0,0.53-0.05,0.8-0.14l0.13,0.51c-0.18,0.08-0.37,0.13-0.57,0.17
		c-0.2,0.04-0.39,0.06-0.59,0.06c-0.28,0-0.51-0.04-0.68-0.11c-0.18-0.08-0.31-0.18-0.41-0.32c-0.09-0.13-0.16-0.29-0.2-0.48
		c-0.03-0.19-0.05-0.39-0.05-0.6v-2.4h-0.75v-0.52l0.75-0.08v-0.92l0.73-0.12v1.04h1.66v0.58H47.35z"/>
	<path class="st1" d="M50.44,24.94l0.08,0.61c0.18-0.21,0.38-0.38,0.59-0.48c0.29-0.15,0.59-0.23,0.88-0.23
		c0.24,0,0.44,0.04,0.59,0.12l-0.2,0.61c-0.13-0.06-0.3-0.09-0.52-0.09c-0.27,0-0.52,0.08-0.76,0.24c-0.09,0.06-0.17,0.12-0.25,0.2
		c-0.08,0.07-0.16,0.16-0.24,0.25v3.18h-0.73v-3.2l-0.1-1.2H50.44z"/>
	<path class="st1" d="M54.7,29.45c-0.38,0-0.7-0.05-0.96-0.14c-0.26-0.09-0.47-0.24-0.62-0.43c-0.16-0.2-0.27-0.43-0.34-0.73
		s-0.1-0.64-0.1-1.03c0-0.77,0.16-1.35,0.5-1.72c0.33-0.37,0.84-0.56,1.52-0.56c0.36,0,0.66,0.05,0.89,0.16s0.41,0.26,0.54,0.45
		c0.13,0.19,0.23,0.42,0.27,0.68s0.07,0.55,0.07,0.85v0.35h-3.04c0,0.25,0.02,0.46,0.05,0.63c0.09,0.35,0.24,0.59,0.45,0.71
		c0.22,0.13,0.51,0.2,0.88,0.2c0.31,0,0.59-0.04,0.82-0.12c0.24-0.08,0.43-0.16,0.57-0.23l0.19,0.5c-0.07,0.05-0.16,0.11-0.29,0.16
		s-0.27,0.1-0.41,0.14c-0.16,0.04-0.32,0.08-0.49,0.1C55.03,29.44,54.87,29.45,54.7,29.45z M55.7,26.79c0-0.52-0.09-0.89-0.27-1.09
		c-0.18-0.2-0.43-0.31-0.74-0.31c-0.37,0-0.64,0.08-0.84,0.24c-0.19,0.16-0.31,0.41-0.38,0.74c-0.02,0.07-0.02,0.13-0.03,0.2
		s-0.02,0.14-0.02,0.22H55.7z"/>
	<path class="st1" d="M58.41,25.52v2.17c0,0.19,0.01,0.36,0.02,0.5s0.05,0.27,0.11,0.36c0.05,0.1,0.14,0.17,0.25,0.22
		c0.12,0.05,0.27,0.08,0.46,0.08c0.27,0,0.53-0.05,0.8-0.14l0.13,0.51c-0.18,0.08-0.37,0.13-0.57,0.17
		c-0.2,0.04-0.39,0.06-0.59,0.06c-0.28,0-0.51-0.04-0.68-0.11c-0.18-0.08-0.31-0.18-0.41-0.32c-0.09-0.13-0.16-0.29-0.2-0.48
		c-0.03-0.19-0.05-0.39-0.05-0.6v-2.4h-0.75v-0.52l0.75-0.08v-0.92l0.73-0.12v1.04h1.66v0.58H58.41z"/>
	<path class="st1" d="M64.16,29.09c-0.14,0.08-0.34,0.16-0.6,0.24c-0.26,0.07-0.55,0.11-0.85,0.11c-0.73,0-1.25-0.2-1.57-0.58
		s-0.48-0.94-0.48-1.66c0-0.79,0.19-1.39,0.55-1.78c0.38-0.39,0.93-0.59,1.66-0.59c0.27,0,0.53,0.05,0.78,0.14
		c0.24,0.09,0.43,0.22,0.57,0.38l-0.44,0.43c-0.11-0.12-0.24-0.22-0.4-0.29s-0.34-0.11-0.52-0.11c-0.48,0-0.84,0.15-1.09,0.44
		s-0.38,0.76-0.38,1.4c0,0.24,0.02,0.46,0.07,0.67c0.05,0.2,0.12,0.37,0.24,0.52c0.11,0.14,0.25,0.26,0.43,0.34
		c0.18,0.08,0.39,0.12,0.64,0.12s0.48-0.03,0.67-0.08s0.38-0.12,0.55-0.2L64.16,29.09z"/>
	<path class="st1" d="M67.91,29.34v-2.66c0-0.18-0.01-0.35-0.02-0.5c-0.02-0.16-0.06-0.29-0.12-0.39s-0.16-0.19-0.27-0.24
		c-0.12-0.06-0.28-0.09-0.48-0.09c-0.16,0-0.33,0.02-0.48,0.07c-0.16,0.04-0.31,0.11-0.45,0.18c-0.07,0.04-0.12,0.07-0.18,0.1
		s-0.11,0.07-0.16,0.1v3.44h-0.73V22.8l0.73-0.11v2.57c0.14-0.1,0.31-0.18,0.49-0.25c0.32-0.12,0.64-0.18,0.96-0.18
		c0.3,0,0.54,0.04,0.72,0.11c0.19,0.07,0.34,0.18,0.45,0.32s0.19,0.32,0.23,0.52s0.06,0.45,0.06,0.71v2.83H67.91z"/>
	<path class="st1" d="M75.91,28.73v0.61h-3.69v-6.33h0.73v5.71H75.91z"/>
	<path class="st1" d="M80.48,28.73v0.61H76.6v-6.33h3.77v0.62h-3.03v2.14h2.93v0.61h-2.93v2.34H80.48z"/>
	<path class="st1" d="M83.46,23.01c0.49,0,0.93,0.06,1.31,0.18c0.38,0.11,0.7,0.3,0.96,0.55c0.26,0.25,0.45,0.58,0.59,0.99
		s0.2,0.9,0.2,1.48c0,0.6-0.08,1.1-0.24,1.5c-0.16,0.4-0.4,0.72-0.69,0.96c-0.3,0.24-0.65,0.41-1.05,0.52
		c-0.41,0.1-0.85,0.15-1.34,0.15h-1.54v-6.33H83.46z M83.19,28.73c0.41,0,0.77-0.04,1.09-0.12c0.32-0.08,0.59-0.22,0.8-0.42
		c0.22-0.2,0.38-0.47,0.49-0.81s0.16-0.77,0.16-1.29c0-0.85-0.19-1.47-0.57-1.87c-0.38-0.39-0.95-0.59-1.7-0.59h-1.06v5.1H83.19z"/>
	<path class="st1" d="M91.43,29.45c-0.62,0-1.08-0.2-1.37-0.58s-0.44-0.94-0.44-1.66c0-0.34,0.04-0.66,0.12-0.95
		c0.08-0.29,0.2-0.54,0.37-0.75s0.39-0.37,0.66-0.49s0.59-0.18,0.96-0.18c0.22,0,0.42,0.03,0.62,0.08c0.12,0.03,0.24,0.08,0.36,0.14
		V22.8l0.73-0.11v5.52l0.07,1.12h-0.63l-0.09-0.31c-0.17,0.13-0.36,0.23-0.55,0.29C92,29.41,91.73,29.45,91.43,29.45z M91.8,25.4
		c-0.46,0-0.81,0.14-1.06,0.42c-0.24,0.28-0.36,0.75-0.36,1.39c0,0.23,0.02,0.44,0.05,0.64c0.04,0.2,0.11,0.37,0.2,0.53
		c0.09,0.15,0.23,0.27,0.39,0.36s0.37,0.14,0.62,0.14c0.27,0,0.49-0.05,0.69-0.16c0.07-0.03,0.13-0.07,0.19-0.11
		c0.06-0.04,0.12-0.09,0.19-0.14v-2.79C92.42,25.49,92.12,25.4,91.8,25.4z"/>
	<path class="st1" d="M94.64,23.13h0.74v0.77h-0.74V23.13z M94.66,24.94h0.73v4.4h-0.73V24.94z"/>
	<path class="st1" d="M97.6,26.6c0.15,0.08,0.34,0.15,0.57,0.23s0.46,0.16,0.68,0.25c0.25,0.1,0.45,0.23,0.62,0.39
		c0.16,0.16,0.24,0.4,0.24,0.71c0,0.44-0.16,0.76-0.48,0.96c-0.31,0.2-0.77,0.3-1.38,0.3c-0.29,0-0.57-0.03-0.84-0.08
		c-0.27-0.05-0.51-0.13-0.7-0.23l0.23-0.55c0.16,0.09,0.34,0.15,0.57,0.2s0.48,0.08,0.74,0.08c0.14,0,0.28-0.01,0.42-0.03
		c0.13-0.02,0.26-0.04,0.36-0.09c0.1-0.04,0.19-0.11,0.25-0.19s0.09-0.2,0.09-0.34c0-0.28-0.18-0.48-0.54-0.61
		c-0.2-0.09-0.42-0.17-0.65-0.25c-0.23-0.07-0.44-0.15-0.62-0.23c-0.23-0.09-0.42-0.21-0.57-0.37c-0.14-0.15-0.22-0.38-0.22-0.67
		c0-0.23,0.05-0.43,0.16-0.6c0.11-0.16,0.25-0.29,0.41-0.39c0.17-0.09,0.36-0.16,0.57-0.21c0.21-0.04,0.42-0.06,0.63-0.06
		c0.34,0,0.62,0.03,0.87,0.08s0.45,0.11,0.6,0.18l-0.23,0.55c-0.17-0.07-0.36-0.13-0.57-0.18c-0.2-0.05-0.43-0.07-0.69-0.07
		c-0.38,0-0.66,0.06-0.81,0.18S97.1,25.84,97.1,26c0,0.14,0.04,0.26,0.12,0.35C97.3,26.44,97.42,26.52,97.6,26.6z"/>
	<path class="st1" d="M101.19,24.94l0.08,0.32c0.19-0.13,0.38-0.23,0.57-0.29c0.26-0.09,0.52-0.14,0.8-0.14
		c0.62,0,1.08,0.2,1.37,0.58s0.44,0.94,0.44,1.66c0,0.34-0.04,0.66-0.12,0.96c-0.08,0.29-0.2,0.54-0.37,0.75
		c-0.17,0.21-0.39,0.37-0.66,0.49c-0.27,0.12-0.59,0.18-0.96,0.18c-0.23,0-0.44-0.03-0.61-0.09c-0.06-0.01-0.12-0.03-0.18-0.05
		c-0.05-0.02-0.12-0.05-0.18-0.08v2.17l-0.73,0.11v-5.44l-0.08-1.12H101.19z M102.26,28.88c0.45,0,0.8-0.14,1.05-0.42
		s0.37-0.74,0.37-1.39c0-0.22-0.02-0.44-0.06-0.64c-0.04-0.2-0.1-0.38-0.2-0.53c-0.1-0.15-0.23-0.27-0.39-0.36
		c-0.16-0.09-0.36-0.13-0.61-0.13c-0.26,0-0.49,0.05-0.7,0.16c-0.12,0.07-0.25,0.15-0.36,0.25v2.78
		C101.62,28.79,101.92,28.88,102.26,28.88z"/>
	<path class="st1" d="M106.56,29.37c0,0.01-0.03,0.01-0.09,0.01c-0.01,0-0.07,0.01-0.17,0.01c-0.34,0-0.58-0.1-0.71-0.29
		c-0.12-0.2-0.19-0.48-0.19-0.87V22.8l0.72-0.11v5.52c0,0.27,0.03,0.43,0.09,0.5s0.18,0.11,0.34,0.11V29.37z"/>
	<path class="st1" d="M111.21,29.36c-0.06,0.01-0.11,0.02-0.12,0.02h-0.15c-0.22,0-0.39-0.04-0.5-0.13s-0.2-0.21-0.27-0.37
		c-0.16,0.15-0.37,0.28-0.62,0.39c-0.26,0.11-0.55,0.17-0.9,0.17c-0.27,0-0.49-0.04-0.66-0.11c-0.18-0.07-0.32-0.17-0.43-0.29
		s-0.19-0.26-0.23-0.43c-0.04-0.16-0.06-0.34-0.06-0.53c0-0.27,0.05-0.49,0.14-0.66c0.09-0.17,0.22-0.3,0.38-0.41
		c0.17-0.1,0.37-0.18,0.59-0.21c0.23-0.04,0.48-0.06,0.75-0.06c0.18,0,0.34,0,0.48,0.02c0.13,0.01,0.28,0.02,0.46,0.03v-0.23
		c0-0.21-0.02-0.4-0.05-0.55c-0.03-0.15-0.09-0.27-0.16-0.36s-0.19-0.16-0.33-0.2c-0.13-0.04-0.31-0.06-0.52-0.06
		c-0.25,0-0.5,0.04-0.75,0.11s-0.45,0.14-0.61,0.22l-0.19-0.51c0.23-0.1,0.48-0.19,0.78-0.27c0.3-0.08,0.62-0.12,0.96-0.12
		c0.3,0,0.56,0.03,0.77,0.09c0.2,0.06,0.37,0.16,0.49,0.3c0.12,0.14,0.22,0.33,0.27,0.56c0.05,0.23,0.08,0.51,0.08,0.84v1.59
		c0,0.23,0.03,0.38,0.1,0.46c0.06,0.09,0.17,0.12,0.31,0.12V29.36z M109.07,27.31c-0.4,0-0.67,0.06-0.82,0.19
		c-0.16,0.12-0.23,0.32-0.23,0.57c0,0.29,0.06,0.5,0.19,0.62c0.13,0.13,0.35,0.19,0.66,0.19c0.21,0,0.42-0.05,0.63-0.14
		c0.21-0.09,0.4-0.2,0.56-0.33v-1.06c-0.17-0.01-0.33-0.02-0.48-0.03C109.42,27.31,109.26,27.31,109.07,27.31z"/>
	<path class="st1" d="M111.29,24.94h0.8l1.27,3.5h0.09l1.17-3.5h0.75l-1.68,4.68c-0.1,0.27-0.2,0.52-0.3,0.75s-0.22,0.43-0.35,0.6
		c-0.14,0.17-0.31,0.3-0.52,0.39c-0.2,0.09-0.46,0.14-0.78,0.14c-0.07,0-0.15,0-0.23-0.01c-0.07-0.01-0.13-0.02-0.18-0.04l0.09-0.56
		l0.15,0.03c0.02,0,0.08,0.01,0.16,0.01c0.23,0,0.42-0.04,0.55-0.12c0.13-0.08,0.23-0.18,0.31-0.3c0.03-0.05,0.08-0.12,0.12-0.21
		s0.09-0.19,0.12-0.29s0.08-0.21,0.12-0.31s0.08-0.21,0.11-0.3L111.29,24.94z"/>
	<path class="st1" d="M117.02,26.6c0.15,0.08,0.34,0.15,0.58,0.23c0.23,0.08,0.45,0.16,0.67,0.25c0.25,0.1,0.46,0.23,0.62,0.39
		c0.16,0.16,0.25,0.4,0.25,0.71c0,0.44-0.16,0.76-0.48,0.96c-0.32,0.2-0.77,0.3-1.38,0.3c-0.29,0-0.57-0.03-0.84-0.08
		s-0.5-0.13-0.7-0.23l0.23-0.55c0.15,0.09,0.34,0.15,0.57,0.2s0.47,0.08,0.74,0.08c0.14,0,0.28-0.01,0.41-0.03
		c0.14-0.02,0.26-0.04,0.36-0.09c0.1-0.04,0.19-0.11,0.25-0.19c0.07-0.08,0.1-0.2,0.1-0.34c0-0.28-0.18-0.48-0.54-0.61
		c-0.2-0.09-0.42-0.17-0.66-0.25c-0.23-0.07-0.44-0.15-0.62-0.23c-0.23-0.09-0.41-0.21-0.56-0.37c-0.15-0.15-0.22-0.38-0.22-0.67
		c0-0.23,0.05-0.43,0.16-0.6c0.1-0.16,0.24-0.29,0.41-0.39c0.16-0.09,0.36-0.16,0.57-0.21c0.21-0.04,0.42-0.06,0.63-0.06
		c0.34,0,0.62,0.03,0.87,0.08c0.24,0.05,0.44,0.11,0.6,0.18l-0.23,0.55c-0.17-0.07-0.36-0.13-0.56-0.18
		c-0.2-0.05-0.44-0.07-0.69-0.07c-0.39,0-0.66,0.06-0.81,0.18s-0.23,0.26-0.23,0.42c0,0.14,0.03,0.26,0.11,0.35
		C116.72,26.44,116.85,26.52,117.02,26.6z"/>
</g>
</svg>
