<?xml version="1.0" encoding="utf-8"?>
<!-- Generator: Adobe Illustrator 23.0.0, SVG Export Plug-In . SVG Version: 6.00 Build 0)  -->
<svg version="1.1" id="Layer_1" xmlns="http://www.w3.org/2000/svg" xmlns:xlink="http://www.w3.org/1999/xlink" x="0px" y="0px"
	 viewBox="0 0 182.66 52.5" style="enable-background:new 0 0 182.66 52.5;" xml:space="preserve">
<style type="text/css">
	.st0{fill:#D1D3D4;stroke:#808285;stroke-width:0.8;stroke-miterlimit:10;}
	.st1{fill:#464A4C;}
</style>
<path class="st0" d="M162.91,51.41H19.8c-9.5,0-17.28-7.78-17.28-17.28V19.69c0-9.5,7.78-17.28,17.28-17.28h143.11
	c9.5,0,17.28,7.78,17.28,17.28v14.44C180.19,43.63,172.41,51.41,162.91,51.41z"/>
<g>
	<path class="st1" d="M15.82,24.25c-0.95-0.01-1.65-0.28-2.08-0.82c-0.44-0.55-0.65-1.36-0.65-2.44c0-0.57,0.06-1.06,0.2-1.47
		c0.13-0.41,0.32-0.75,0.56-1.02c0.25-0.27,0.55-0.46,0.9-0.59s0.75-0.19,1.2-0.19c0.41,0,0.78,0.07,1.13,0.2
		c0.34,0.14,0.62,0.33,0.83,0.59l-0.45,0.44c-0.18-0.19-0.39-0.34-0.62-0.45c-0.23-0.11-0.52-0.16-0.88-0.16
		c-0.73,0-1.27,0.23-1.6,0.7c-0.34,0.46-0.5,1.14-0.5,2.04c0,0.82,0.16,1.45,0.47,1.89c0.31,0.43,0.82,0.65,1.52,0.65
		c0.42,0,0.79-0.04,1.09-0.12c0.3-0.08,0.56-0.16,0.78-0.25l0.19,0.57c-0.23,0.11-0.54,0.22-0.91,0.31S16.23,24.25,15.82,24.25z"/>
	<path class="st1" d="M20.62,24.25c-0.38,0-0.69-0.05-0.94-0.16c-0.25-0.11-0.45-0.26-0.6-0.46c-0.15-0.2-0.26-0.45-0.31-0.73
		c-0.06-0.29-0.09-0.61-0.09-0.98c0-0.77,0.17-1.35,0.51-1.72s0.89-0.56,1.64-0.56c0.38,0,0.69,0.05,0.94,0.16s0.45,0.26,0.6,0.46
		c0.16,0.2,0.26,0.45,0.33,0.73c0.06,0.29,0.09,0.61,0.09,0.98c0,0.77-0.18,1.34-0.53,1.71C21.9,24.06,21.36,24.25,20.62,24.25z
		 M20.62,23.68c0.54,0,0.91-0.15,1.11-0.45s0.3-0.75,0.3-1.35c0-0.23-0.02-0.45-0.05-0.65c-0.03-0.2-0.09-0.38-0.19-0.54
		c-0.09-0.16-0.21-0.28-0.37-0.37s-0.36-0.14-0.6-0.14c-0.54,0-0.91,0.16-1.11,0.47c-0.2,0.31-0.3,0.76-0.3,1.35
		c0,0.24,0.02,0.46,0.05,0.66c0.04,0.2,0.1,0.38,0.19,0.53c0.09,0.15,0.21,0.27,0.38,0.36C20.18,23.64,20.38,23.68,20.62,23.68z"/>
	<path class="st1" d="M24.37,19.74l0.03,0.38c0.07-0.05,0.16-0.11,0.24-0.16c0.09-0.05,0.19-0.09,0.29-0.14
		c0.28-0.12,0.58-0.18,0.9-0.18c0.28,0,0.52,0.04,0.7,0.11c0.17,0.07,0.31,0.18,0.41,0.32l0.05,0.08c0.18-0.14,0.38-0.25,0.59-0.33
		c0.31-0.12,0.62-0.18,0.95-0.18c0.28,0,0.51,0.04,0.69,0.11c0.17,0.07,0.31,0.18,0.41,0.32s0.17,0.32,0.21,0.52
		c0.03,0.21,0.05,0.45,0.05,0.71v2.83h-0.72v-2.67c0-0.19-0.01-0.36-0.02-0.51c-0.02-0.16-0.06-0.29-0.12-0.39
		c-0.06-0.11-0.14-0.19-0.25-0.25c-0.1-0.06-0.24-0.09-0.42-0.09c-0.16,0-0.32,0.02-0.47,0.07s-0.29,0.11-0.42,0.18
		c-0.05,0.02-0.11,0.05-0.16,0.09c-0.05,0.03-0.1,0.07-0.16,0.11c0.02,0.09,0.02,0.2,0.03,0.3s0.01,0.22,0.01,0.33v2.83h-0.73v-2.67
		c0-0.19-0.01-0.36-0.02-0.51c-0.02-0.16-0.05-0.29-0.11-0.39c-0.06-0.11-0.14-0.19-0.25-0.25c-0.1-0.06-0.25-0.09-0.43-0.09
		c-0.31,0-0.61,0.08-0.89,0.25c-0.05,0.02-0.09,0.05-0.13,0.08c-0.05,0.03-0.09,0.06-0.13,0.09v3.48h-0.73v-3.23l-0.07-1.17H24.37z"
		/>
	<path class="st1" d="M31.61,19.74l0.08,0.32c0.18-0.13,0.37-0.23,0.56-0.29c0.26-0.09,0.52-0.14,0.8-0.14
		c0.62,0,1.08,0.2,1.37,0.58s0.44,0.94,0.44,1.66c0,0.34-0.04,0.66-0.12,0.96c-0.08,0.29-0.2,0.54-0.37,0.75s-0.39,0.37-0.66,0.49
		c-0.27,0.12-0.59,0.18-0.96,0.18c-0.23,0-0.43-0.03-0.61-0.09c-0.06-0.01-0.12-0.03-0.18-0.05c-0.05-0.02-0.12-0.05-0.18-0.08v2.17
		l-0.73,0.11v-5.44l-0.07-1.12H31.61z M32.68,23.68c0.45,0,0.8-0.14,1.05-0.42s0.37-0.74,0.37-1.39c0-0.22-0.02-0.44-0.05-0.64
		c-0.04-0.2-0.11-0.38-0.2-0.53c-0.1-0.15-0.23-0.27-0.38-0.36c-0.16-0.09-0.37-0.13-0.62-0.13c-0.26,0-0.48,0.05-0.7,0.16
		c-0.12,0.07-0.24,0.15-0.36,0.25v2.78C32.04,23.59,32.34,23.68,32.68,23.68z"/>
	<path class="st1" d="M37.63,24.25c-0.38,0-0.7-0.05-0.96-0.14c-0.26-0.09-0.47-0.24-0.62-0.43c-0.16-0.2-0.27-0.43-0.34-0.73
		s-0.1-0.64-0.1-1.03c0-0.77,0.16-1.35,0.5-1.72c0.33-0.37,0.84-0.56,1.52-0.56c0.37,0,0.66,0.05,0.89,0.16
		c0.23,0.11,0.41,0.26,0.55,0.45c0.12,0.19,0.22,0.42,0.27,0.68s0.07,0.55,0.07,0.85v0.35h-3.04c0,0.25,0.02,0.46,0.05,0.63
		c0.09,0.35,0.24,0.59,0.46,0.71c0.21,0.13,0.5,0.2,0.88,0.2c0.31,0,0.59-0.04,0.83-0.12c0.23-0.08,0.42-0.16,0.56-0.23l0.2,0.5
		c-0.07,0.05-0.17,0.11-0.3,0.16s-0.27,0.1-0.41,0.14c-0.16,0.04-0.32,0.08-0.48,0.1C37.95,24.24,37.79,24.25,37.63,24.25z
		 M38.63,21.59c0-0.52-0.09-0.89-0.27-1.09c-0.18-0.2-0.43-0.31-0.74-0.31c-0.37,0-0.64,0.08-0.83,0.24s-0.32,0.41-0.39,0.74
		c-0.02,0.07-0.02,0.13-0.03,0.2s-0.01,0.14-0.02,0.22H38.63z"/>
	<path class="st1" d="M41.34,20.32v2.17c0,0.19,0.01,0.36,0.02,0.5s0.05,0.27,0.11,0.36c0.05,0.1,0.14,0.17,0.26,0.22
		c0.11,0.05,0.26,0.08,0.45,0.08c0.27,0,0.53-0.05,0.8-0.14l0.13,0.51c-0.18,0.08-0.37,0.13-0.56,0.17c-0.2,0.04-0.4,0.06-0.59,0.06
		c-0.28,0-0.52-0.04-0.69-0.11c-0.18-0.08-0.31-0.18-0.41-0.32c-0.1-0.13-0.16-0.29-0.2-0.48c-0.03-0.19-0.05-0.39-0.05-0.6v-2.4
		h-0.75v-0.52l0.75-0.08v-0.92l0.72-0.12v1.04h1.66v0.58H41.34z"/>
	<path class="st1" d="M45.6,24.25c-0.38,0-0.7-0.05-0.96-0.14c-0.26-0.09-0.47-0.24-0.62-0.43c-0.16-0.2-0.27-0.43-0.34-0.73
		s-0.1-0.64-0.1-1.03c0-0.77,0.16-1.35,0.5-1.72c0.33-0.37,0.84-0.56,1.52-0.56c0.37,0,0.66,0.05,0.89,0.16
		c0.23,0.11,0.41,0.26,0.55,0.45c0.12,0.19,0.22,0.42,0.27,0.68s0.07,0.55,0.07,0.85v0.35h-3.04c0,0.25,0.02,0.46,0.05,0.63
		c0.09,0.35,0.24,0.59,0.46,0.71c0.21,0.13,0.5,0.2,0.88,0.2c0.31,0,0.59-0.04,0.83-0.12c0.23-0.08,0.42-0.16,0.56-0.23l0.2,0.5
		c-0.07,0.05-0.17,0.11-0.3,0.16s-0.27,0.1-0.41,0.14c-0.16,0.04-0.32,0.08-0.48,0.1C45.93,24.24,45.77,24.25,45.6,24.25z
		 M46.6,21.59c0-0.52-0.09-0.89-0.27-1.09c-0.18-0.2-0.43-0.31-0.74-0.31c-0.37,0-0.64,0.08-0.83,0.24s-0.32,0.41-0.39,0.74
		c-0.02,0.07-0.02,0.13-0.03,0.2s-0.01,0.14-0.02,0.22H46.6z"/>
	<path class="st1" d="M50.64,17.93h0.74v0.77h-0.74V17.93z M50.65,19.74h0.73v4.4h-0.73V19.74z"/>
	<path class="st1" d="M53.2,19.74l0.03,0.39c0.18-0.12,0.38-0.23,0.59-0.32c0.32-0.12,0.64-0.18,0.96-0.18
		c0.29,0,0.53,0.04,0.72,0.11c0.18,0.07,0.33,0.18,0.44,0.32s0.19,0.32,0.23,0.52s0.06,0.45,0.06,0.71v2.83h-0.73v-2.67
		c0-0.19-0.01-0.36-0.03-0.51c-0.02-0.16-0.06-0.29-0.12-0.39s-0.16-0.19-0.27-0.25s-0.27-0.09-0.48-0.09
		c-0.16,0-0.33,0.02-0.48,0.07s-0.3,0.11-0.45,0.18c-0.12,0.05-0.23,0.12-0.34,0.2v3.46h-0.73v-3.23l-0.07-1.17H53.2z"/>
	<path class="st1" d="M60.69,20.32v2.17c0,0.19,0.01,0.36,0.02,0.5s0.05,0.27,0.11,0.36c0.05,0.1,0.14,0.17,0.26,0.22
		c0.11,0.05,0.26,0.08,0.45,0.08c0.27,0,0.53-0.05,0.8-0.14l0.13,0.51c-0.18,0.08-0.37,0.13-0.56,0.17c-0.2,0.04-0.4,0.06-0.59,0.06
		c-0.28,0-0.52-0.04-0.69-0.11c-0.18-0.08-0.31-0.18-0.41-0.32c-0.1-0.13-0.16-0.29-0.2-0.48c-0.03-0.19-0.05-0.39-0.05-0.6v-2.4
		h-0.75v-0.52l0.75-0.08v-0.92l0.72-0.12v1.04h1.66v0.58H60.69z"/>
	<path class="st1" d="M66.11,24.14v-2.66c0-0.18-0.01-0.35-0.03-0.5c-0.02-0.16-0.06-0.29-0.12-0.39s-0.16-0.19-0.27-0.24
		c-0.12-0.06-0.27-0.09-0.48-0.09c-0.16,0-0.33,0.02-0.48,0.07c-0.16,0.04-0.3,0.11-0.45,0.18c-0.06,0.04-0.12,0.07-0.18,0.1
		s-0.11,0.07-0.16,0.1v3.44H63.2V17.6l0.73-0.11v2.57c0.15-0.1,0.31-0.18,0.5-0.25c0.32-0.12,0.64-0.18,0.96-0.18
		c0.29,0,0.53,0.04,0.72,0.11c0.18,0.07,0.33,0.18,0.44,0.32s0.19,0.32,0.23,0.52s0.06,0.45,0.06,0.71v2.83H66.11z"/>
	<path class="st1" d="M67.98,17.93h0.74v0.77h-0.74V17.93z M67.98,19.74h0.73v4.4h-0.73V19.74z"/>
	<path class="st1" d="M70.93,21.4c0.15,0.08,0.34,0.15,0.57,0.23s0.46,0.16,0.68,0.25c0.25,0.1,0.45,0.23,0.62,0.39
		c0.16,0.16,0.25,0.4,0.25,0.71c0,0.44-0.16,0.76-0.48,0.96c-0.32,0.2-0.78,0.3-1.38,0.3c-0.28,0-0.56-0.03-0.84-0.08
		s-0.51-0.13-0.7-0.23l0.23-0.55c0.16,0.09,0.34,0.15,0.57,0.2s0.48,0.08,0.75,0.08c0.14,0,0.27-0.01,0.41-0.03
		c0.14-0.02,0.26-0.04,0.36-0.09c0.1-0.04,0.19-0.11,0.25-0.19s0.09-0.2,0.09-0.34c0-0.28-0.18-0.48-0.53-0.61
		c-0.21-0.09-0.42-0.17-0.66-0.25c-0.23-0.07-0.44-0.15-0.62-0.23c-0.23-0.09-0.42-0.21-0.56-0.37c-0.15-0.15-0.23-0.38-0.23-0.67
		c0-0.23,0.05-0.43,0.16-0.6c0.1-0.16,0.24-0.29,0.41-0.39c0.17-0.09,0.37-0.16,0.58-0.21c0.21-0.04,0.42-0.06,0.63-0.06
		c0.33,0,0.62,0.03,0.86,0.08s0.45,0.11,0.61,0.18l-0.23,0.55c-0.17-0.07-0.36-0.13-0.56-0.18c-0.21-0.05-0.44-0.07-0.7-0.07
		c-0.38,0-0.66,0.06-0.81,0.18s-0.23,0.26-0.23,0.42c0,0.14,0.04,0.26,0.12,0.35C70.63,21.24,70.75,21.32,70.93,21.4z"/>
	<path class="st1" d="M79.86,19.74v4.61c0,0.36-0.05,0.66-0.15,0.91s-0.23,0.45-0.41,0.6c-0.18,0.15-0.39,0.27-0.64,0.34
		s-0.52,0.11-0.83,0.11c-0.28,0-0.55-0.02-0.77-0.06c-0.23-0.04-0.43-0.09-0.6-0.15l0.19-0.56c0.14,0.05,0.31,0.09,0.51,0.13
		c0.2,0.04,0.42,0.06,0.67,0.06c0.18,0,0.35-0.02,0.51-0.06c0.16-0.04,0.3-0.11,0.42-0.21c0.12-0.1,0.21-0.23,0.27-0.4
		c0.07-0.16,0.1-0.37,0.1-0.62V23.9c-0.18,0.1-0.38,0.18-0.57,0.25c-0.2,0.07-0.41,0.1-0.66,0.1c-0.65,0-1.12-0.19-1.41-0.57
		c-0.29-0.39-0.44-0.94-0.44-1.65c0-0.35,0.04-0.66,0.11-0.96c0.07-0.29,0.2-0.54,0.37-0.75c0.16-0.21,0.39-0.38,0.66-0.49
		s0.59-0.18,0.98-0.18c0.23,0,0.43,0.03,0.6,0.08s0.33,0.11,0.48,0.18l0.05-0.16H79.86z M79.13,20.44
		c-0.12-0.05-0.26-0.11-0.41-0.16c-0.14-0.05-0.3-0.08-0.48-0.08c-0.5,0-0.86,0.14-1.09,0.43c-0.23,0.29-0.35,0.75-0.35,1.39
		c0,0.21,0.02,0.41,0.05,0.61s0.11,0.38,0.2,0.54c0.09,0.16,0.23,0.28,0.39,0.37c0.17,0.09,0.38,0.14,0.65,0.14
		c0.2,0,0.38-0.03,0.54-0.09c0.16-0.06,0.33-0.15,0.49-0.25V20.44z"/>
	<path class="st1" d="M81.64,19.74l0.08,0.61c0.18-0.21,0.38-0.38,0.59-0.48c0.29-0.15,0.59-0.23,0.88-0.23
		c0.24,0,0.44,0.04,0.59,0.12l-0.2,0.61c-0.12-0.06-0.3-0.09-0.51-0.09c-0.27,0-0.52,0.08-0.76,0.24c-0.09,0.06-0.17,0.12-0.25,0.2
		c-0.09,0.07-0.16,0.16-0.25,0.25v3.18h-0.73v-3.2l-0.11-1.2H81.64z"/>
	<path class="st1" d="M85.81,24.25c-0.38,0-0.69-0.05-0.94-0.16c-0.25-0.11-0.45-0.26-0.6-0.46c-0.15-0.2-0.26-0.45-0.31-0.73
		c-0.06-0.29-0.09-0.61-0.09-0.98c0-0.77,0.17-1.35,0.51-1.72s0.89-0.56,1.64-0.56c0.38,0,0.69,0.05,0.94,0.16s0.45,0.26,0.6,0.46
		c0.16,0.2,0.26,0.45,0.33,0.73c0.06,0.29,0.09,0.61,0.09,0.98c0,0.77-0.18,1.34-0.53,1.71C87.09,24.06,86.56,24.25,85.81,24.25z
		 M85.81,23.68c0.54,0,0.91-0.15,1.11-0.45s0.3-0.75,0.3-1.35c0-0.23-0.02-0.45-0.05-0.65c-0.03-0.2-0.09-0.38-0.19-0.54
		c-0.09-0.16-0.21-0.28-0.37-0.37s-0.36-0.14-0.6-0.14c-0.54,0-0.91,0.16-1.11,0.47c-0.2,0.31-0.3,0.76-0.3,1.35
		c0,0.24,0.02,0.46,0.05,0.66c0.04,0.2,0.1,0.38,0.19,0.53c0.09,0.15,0.21,0.27,0.38,0.36C85.38,23.64,85.57,23.68,85.81,23.68z"/>
	<path class="st1" d="M92.23,19.74l0.9,3.84h0.09l1.01-3.84h0.73l-1.26,4.4h-1.06l-0.89-3.84h-0.09l-0.89,3.84h-1.07l-1.22-4.4h0.74
		l0.99,3.84h0.08l0.88-3.84H92.23z"/>
	<path class="st1" d="M95.65,17.93h0.74v0.77h-0.74V17.93z M95.66,19.74h0.73v4.4h-0.73V19.74z"/>
	<path class="st1" d="M98.21,19.74l0.03,0.39c0.18-0.12,0.38-0.23,0.59-0.32c0.32-0.12,0.64-0.18,0.96-0.18
		c0.29,0,0.53,0.04,0.72,0.11c0.18,0.07,0.33,0.18,0.44,0.32s0.19,0.32,0.23,0.52s0.06,0.45,0.06,0.71v2.83h-0.73v-2.67
		c0-0.19-0.01-0.36-0.03-0.51c-0.02-0.16-0.06-0.29-0.12-0.39s-0.16-0.19-0.27-0.25s-0.27-0.09-0.48-0.09
		c-0.16,0-0.33,0.02-0.48,0.07s-0.3,0.11-0.45,0.18c-0.12,0.05-0.23,0.12-0.34,0.2v3.46H97.6v-3.23l-0.07-1.17H98.21z"/>
	<path class="st1" d="M105.97,19.74v4.61c0,0.36-0.05,0.66-0.15,0.91s-0.23,0.45-0.41,0.6c-0.18,0.15-0.39,0.27-0.64,0.34
		s-0.52,0.11-0.83,0.11c-0.28,0-0.55-0.02-0.77-0.06c-0.23-0.04-0.43-0.09-0.6-0.15l0.19-0.56c0.14,0.05,0.31,0.09,0.51,0.13
		c0.2,0.04,0.42,0.06,0.67,0.06c0.18,0,0.35-0.02,0.51-0.06c0.16-0.04,0.3-0.11,0.42-0.21c0.12-0.1,0.21-0.23,0.27-0.4
		c0.07-0.16,0.1-0.37,0.1-0.62V23.9c-0.18,0.1-0.38,0.18-0.57,0.25c-0.2,0.07-0.41,0.1-0.66,0.1c-0.65,0-1.12-0.19-1.41-0.57
		c-0.29-0.39-0.44-0.94-0.44-1.65c0-0.35,0.04-0.66,0.11-0.96c0.07-0.29,0.2-0.54,0.37-0.75c0.16-0.21,0.39-0.38,0.66-0.49
		s0.59-0.18,0.98-0.18c0.23,0,0.43,0.03,0.6,0.08s0.33,0.11,0.48,0.18l0.05-0.16H105.97z M105.24,20.44
		c-0.12-0.05-0.26-0.11-0.41-0.16c-0.14-0.05-0.3-0.08-0.48-0.08c-0.5,0-0.86,0.14-1.09,0.43c-0.23,0.29-0.35,0.75-0.35,1.39
		c0,0.21,0.02,0.41,0.05,0.61s0.11,0.38,0.2,0.54c0.09,0.16,0.23,0.28,0.39,0.37c0.17,0.09,0.38,0.14,0.65,0.14
		c0.2,0,0.38-0.03,0.54-0.09c0.16-0.06,0.33-0.15,0.49-0.25V20.44z"/>
	<path class="st1" d="M109.48,17.93h0.74v0.77h-0.74V17.93z M109.49,19.74h0.73v4.4h-0.73V19.74z"/>
	<path class="st1" d="M112.05,19.74l0.03,0.39c0.18-0.12,0.38-0.23,0.59-0.32c0.32-0.12,0.64-0.18,0.96-0.18
		c0.29,0,0.53,0.04,0.72,0.11c0.18,0.07,0.33,0.18,0.44,0.32s0.19,0.32,0.23,0.52s0.06,0.45,0.06,0.71v2.83h-0.73v-2.67
		c0-0.19-0.01-0.36-0.03-0.51c-0.02-0.16-0.06-0.29-0.12-0.39s-0.16-0.19-0.27-0.25s-0.27-0.09-0.48-0.09
		c-0.16,0-0.33,0.02-0.48,0.07s-0.3,0.11-0.45,0.18c-0.12,0.05-0.23,0.12-0.34,0.2v3.46h-0.73v-3.23l-0.07-1.17H112.05z"/>
	<path class="st1" d="M117.8,24.25c-0.62,0-1.08-0.2-1.37-0.58c-0.3-0.39-0.44-0.94-0.44-1.66c0-0.34,0.04-0.66,0.11-0.95
		c0.08-0.29,0.2-0.54,0.38-0.75c0.16-0.21,0.38-0.37,0.65-0.49s0.59-0.18,0.97-0.18c0.22,0,0.42,0.03,0.61,0.08
		c0.12,0.03,0.25,0.08,0.37,0.14V17.6l0.72-0.11v5.52l0.08,1.12h-0.63l-0.09-0.31c-0.17,0.13-0.36,0.23-0.55,0.29
		C118.37,24.21,118.1,24.25,117.8,24.25z M118.16,20.2c-0.46,0-0.81,0.14-1.05,0.42s-0.36,0.75-0.36,1.39
		c0,0.23,0.02,0.44,0.05,0.64c0.04,0.2,0.1,0.37,0.2,0.53c0.09,0.15,0.23,0.27,0.38,0.36c0.16,0.09,0.38,0.14,0.62,0.14
		c0.26,0,0.49-0.05,0.69-0.16c0.06-0.03,0.12-0.07,0.19-0.11s0.12-0.09,0.19-0.14v-2.79C118.79,20.29,118.48,20.2,118.16,20.2z"/>
	<path class="st1" d="M124.59,22.97l0.07,1.17h-0.68l-0.05-0.38c-0.16,0.11-0.35,0.21-0.58,0.3c-0.34,0.13-0.66,0.19-0.96,0.19
		c-0.29,0-0.52-0.04-0.71-0.11c-0.18-0.07-0.33-0.18-0.43-0.32c-0.11-0.14-0.18-0.32-0.23-0.52c-0.04-0.21-0.06-0.45-0.06-0.73
		v-2.82h0.72v2.67c0,0.18,0.02,0.36,0.04,0.51s0.06,0.29,0.12,0.39c0.05,0.11,0.15,0.19,0.27,0.25c0.12,0.05,0.27,0.09,0.47,0.09
		c0.16,0,0.33-0.02,0.48-0.07c0.16-0.04,0.3-0.1,0.45-0.17l0.35-0.2v-3.47h0.73V22.97z"/>
	<path class="st1" d="M126.8,21.4c0.15,0.08,0.34,0.15,0.57,0.23s0.46,0.16,0.68,0.25c0.25,0.1,0.45,0.23,0.62,0.39
		c0.16,0.16,0.25,0.4,0.25,0.71c0,0.44-0.16,0.76-0.48,0.96c-0.32,0.2-0.78,0.3-1.38,0.3c-0.28,0-0.56-0.03-0.84-0.08
		s-0.51-0.13-0.7-0.23l0.23-0.55c0.16,0.09,0.34,0.15,0.57,0.2s0.48,0.08,0.75,0.08c0.14,0,0.27-0.01,0.41-0.03
		c0.14-0.02,0.26-0.04,0.36-0.09c0.1-0.04,0.19-0.11,0.25-0.19s0.09-0.2,0.09-0.34c0-0.28-0.18-0.48-0.53-0.61
		c-0.21-0.09-0.42-0.17-0.66-0.25c-0.23-0.07-0.44-0.15-0.62-0.23c-0.23-0.09-0.42-0.21-0.56-0.37c-0.15-0.15-0.23-0.38-0.23-0.67
		c0-0.23,0.05-0.43,0.16-0.6c0.1-0.16,0.24-0.29,0.41-0.39c0.17-0.09,0.37-0.16,0.58-0.21c0.21-0.04,0.42-0.06,0.63-0.06
		c0.33,0,0.62,0.03,0.86,0.08c0.24,0.05,0.45,0.11,0.61,0.18l-0.23,0.55c-0.17-0.07-0.36-0.13-0.56-0.18
		c-0.21-0.05-0.44-0.07-0.7-0.07c-0.38,0-0.66,0.06-0.81,0.18s-0.23,0.26-0.23,0.42c0,0.14,0.04,0.26,0.12,0.35
		C126.49,21.24,126.62,21.32,126.8,21.4z"/>
	<path class="st1" d="M130.81,20.32v2.17c0,0.19,0.01,0.36,0.02,0.5s0.05,0.27,0.11,0.36c0.05,0.1,0.14,0.17,0.26,0.22
		c0.11,0.05,0.26,0.08,0.45,0.08c0.27,0,0.53-0.05,0.8-0.14l0.13,0.51c-0.18,0.08-0.37,0.13-0.56,0.17c-0.2,0.04-0.4,0.06-0.59,0.06
		c-0.28,0-0.52-0.04-0.69-0.11c-0.18-0.08-0.31-0.18-0.41-0.32c-0.1-0.13-0.16-0.29-0.2-0.48c-0.03-0.19-0.05-0.39-0.05-0.6v-2.4
		h-0.75v-0.52l0.75-0.08v-0.92l0.72-0.12v1.04h1.66v0.58H130.81z"/>
	<path class="st1" d="M133.9,19.74l0.08,0.61c0.18-0.21,0.38-0.38,0.59-0.48c0.29-0.15,0.59-0.23,0.88-0.23
		c0.24,0,0.44,0.04,0.59,0.12l-0.2,0.61c-0.12-0.06-0.3-0.09-0.51-0.09c-0.27,0-0.52,0.08-0.76,0.24c-0.09,0.06-0.17,0.12-0.25,0.2
		c-0.09,0.07-0.16,0.16-0.25,0.25v3.18h-0.73v-3.2l-0.11-1.2H133.9z"/>
	<path class="st1" d="M136.2,19.74h0.81l1.27,3.5h0.09l1.17-3.5h0.75l-1.68,4.68c-0.11,0.27-0.2,0.52-0.3,0.75s-0.22,0.43-0.36,0.6
		c-0.13,0.17-0.3,0.3-0.51,0.39c-0.21,0.09-0.47,0.14-0.78,0.14c-0.08,0-0.15,0-0.23-0.01c-0.07-0.01-0.13-0.02-0.19-0.04l0.09-0.56
		l0.16,0.03c0.02,0,0.07,0.01,0.16,0.01c0.23,0,0.42-0.04,0.55-0.12s0.23-0.18,0.3-0.3c0.04-0.05,0.08-0.12,0.12-0.21
		c0.04-0.09,0.08-0.19,0.12-0.29c0.04-0.1,0.08-0.21,0.12-0.31s0.07-0.21,0.1-0.3L136.2,19.74z"/>
	<path class="st1" d="M144.96,24.25c-0.23,0-0.43-0.03-0.61-0.09c-0.13-0.03-0.3-0.09-0.48-0.19l-0.07,0.17h-0.54V17.6l0.73-0.11
		v2.52c0.15-0.1,0.3-0.18,0.47-0.24c0.26-0.09,0.52-0.14,0.8-0.14c0.62,0,1.08,0.2,1.37,0.58s0.44,0.94,0.44,1.66
		c0,0.34-0.04,0.66-0.12,0.96c-0.08,0.29-0.2,0.54-0.37,0.75s-0.39,0.37-0.66,0.49C145.66,24.19,145.34,24.25,144.96,24.25z
		 M144.89,23.68c0.45,0,0.8-0.14,1.05-0.42s0.37-0.74,0.37-1.39c0-0.22-0.02-0.44-0.05-0.64c-0.04-0.2-0.11-0.38-0.2-0.53
		c-0.1-0.15-0.23-0.27-0.38-0.36c-0.16-0.09-0.37-0.13-0.62-0.13c-0.26,0-0.48,0.05-0.7,0.16c-0.12,0.07-0.24,0.15-0.36,0.25v2.78
		C144.25,23.59,144.55,23.68,144.89,23.68z"/>
	<path class="st1" d="M147.48,19.74h0.81l1.27,3.5h0.09l1.17-3.5h0.75l-1.68,4.68c-0.11,0.27-0.2,0.52-0.3,0.75s-0.22,0.43-0.36,0.6
		c-0.13,0.17-0.3,0.3-0.51,0.39c-0.21,0.09-0.47,0.14-0.78,0.14c-0.08,0-0.15,0-0.23-0.01c-0.07-0.01-0.13-0.02-0.19-0.04l0.09-0.56
		l0.16,0.03c0.02,0,0.07,0.01,0.16,0.01c0.23,0,0.42-0.04,0.55-0.12s0.23-0.18,0.3-0.3c0.04-0.05,0.08-0.12,0.12-0.21
		c0.04-0.09,0.08-0.19,0.12-0.29c0.04-0.1,0.08-0.21,0.12-0.31s0.07-0.21,0.1-0.3L147.48,19.74z"/>
	<path class="st1" d="M14.86,36.25c-0.62,0-1.08-0.2-1.37-0.58c-0.3-0.39-0.44-0.94-0.44-1.66c0-0.34,0.04-0.66,0.11-0.95
		c0.08-0.29,0.2-0.54,0.38-0.75c0.16-0.21,0.38-0.37,0.65-0.49s0.59-0.18,0.97-0.18c0.22,0,0.42,0.03,0.61,0.08
		c0.12,0.03,0.25,0.08,0.37,0.14V29.6l0.72-0.11v5.52l0.08,1.12H16.3l-0.09-0.31c-0.17,0.13-0.36,0.23-0.55,0.29
		C15.43,36.21,15.16,36.25,14.86,36.25z M15.22,32.2c-0.46,0-0.81,0.14-1.05,0.42s-0.36,0.75-0.36,1.39c0,0.23,0.02,0.44,0.05,0.64
		c0.04,0.2,0.1,0.37,0.2,0.53c0.09,0.15,0.23,0.27,0.38,0.36c0.16,0.09,0.38,0.14,0.62,0.14c0.26,0,0.49-0.05,0.69-0.16
		c0.06-0.03,0.12-0.07,0.19-0.11s0.12-0.09,0.19-0.14v-2.79C15.85,32.29,15.55,32.2,15.22,32.2z"/>
	<path class="st1" d="M19.88,36.25c-0.38,0-0.7-0.05-0.96-0.14c-0.26-0.09-0.47-0.24-0.62-0.43c-0.16-0.2-0.27-0.43-0.34-0.73
		s-0.1-0.64-0.1-1.03c0-0.77,0.16-1.35,0.5-1.72c0.33-0.37,0.84-0.56,1.52-0.56c0.37,0,0.66,0.05,0.89,0.16
		c0.23,0.11,0.41,0.26,0.55,0.45c0.12,0.19,0.22,0.42,0.27,0.68s0.07,0.55,0.07,0.85v0.35H18.6c0,0.25,0.02,0.46,0.05,0.63
		c0.09,0.35,0.24,0.59,0.46,0.71c0.21,0.13,0.5,0.2,0.88,0.2c0.31,0,0.59-0.04,0.83-0.12c0.23-0.08,0.42-0.16,0.56-0.23l0.2,0.5
		c-0.07,0.05-0.17,0.11-0.3,0.16s-0.27,0.1-0.41,0.14c-0.16,0.04-0.32,0.08-0.48,0.1C20.21,36.24,20.05,36.25,19.88,36.25z
		 M20.88,33.59c0-0.52-0.09-0.89-0.27-1.09c-0.18-0.2-0.43-0.31-0.74-0.31c-0.37,0-0.64,0.08-0.83,0.24s-0.32,0.41-0.39,0.74
		c-0.02,0.07-0.02,0.13-0.03,0.2s-0.01,0.14-0.02,0.22H20.88z"/>
	<path class="st1" d="M23.77,36.17c-0.01,0.01-0.03,0.01-0.09,0.01c-0.02,0-0.07,0.01-0.17,0.01c-0.34,0-0.59-0.1-0.71-0.29
		s-0.2-0.48-0.2-0.87V29.6l0.73-0.11v5.52c0,0.27,0.03,0.43,0.09,0.5s0.18,0.11,0.34,0.11V36.17z"/>
	<path class="st1" d="M24.61,29.93h0.74v0.77h-0.74V29.93z M24.62,31.74h0.73v4.4h-0.73V31.74z"/>
	<path class="st1" d="M28.09,35.58l1.27-3.84h0.75l-1.58,4.4h-1.02l-1.54-4.4h0.79l1.24,3.84H28.09z"/>
	<path class="st1" d="M32.43,36.25c-0.38,0-0.7-0.05-0.96-0.14c-0.26-0.09-0.47-0.24-0.62-0.43c-0.16-0.2-0.27-0.43-0.34-0.73
		s-0.1-0.64-0.1-1.03c0-0.77,0.16-1.35,0.5-1.72c0.33-0.37,0.84-0.56,1.52-0.56c0.37,0,0.66,0.05,0.89,0.16
		c0.23,0.11,0.41,0.26,0.55,0.45c0.12,0.19,0.22,0.42,0.27,0.68s0.07,0.55,0.07,0.85v0.35h-3.04c0,0.25,0.02,0.46,0.05,0.63
		c0.09,0.35,0.24,0.59,0.46,0.71c0.21,0.13,0.5,0.2,0.88,0.2c0.31,0,0.59-0.04,0.83-0.12c0.23-0.08,0.42-0.16,0.56-0.23l0.2,0.5
		c-0.07,0.05-0.17,0.11-0.3,0.16s-0.27,0.1-0.41,0.14c-0.16,0.04-0.32,0.08-0.48,0.1C32.76,36.24,32.59,36.25,32.43,36.25z
		 M33.43,33.59c0-0.52-0.09-0.89-0.27-1.09c-0.18-0.2-0.43-0.31-0.74-0.31c-0.37,0-0.64,0.08-0.83,0.24s-0.32,0.41-0.39,0.74
		c-0.02,0.07-0.02,0.13-0.03,0.2s-0.01,0.14-0.02,0.22H33.43z"/>
	<path class="st1" d="M35.73,31.74l0.08,0.61c0.18-0.21,0.38-0.37,0.59-0.48c0.29-0.15,0.59-0.23,0.88-0.23
		c0.24,0,0.44,0.04,0.59,0.12l-0.2,0.61c-0.12-0.06-0.3-0.09-0.51-0.09c-0.27,0-0.52,0.08-0.76,0.24c-0.09,0.06-0.17,0.12-0.25,0.2
		c-0.09,0.07-0.16,0.16-0.25,0.25v3.18h-0.73v-3.2l-0.11-1.2H35.73z"/>
	<path class="st1" d="M38.31,29.93h0.74v0.77h-0.74V29.93z M38.31,31.74h0.73v4.4h-0.73V31.74z"/>
	<path class="st1" d="M40.87,31.74l0.03,0.39c0.18-0.12,0.38-0.23,0.59-0.32c0.32-0.12,0.64-0.18,0.96-0.18
		c0.29,0,0.53,0.04,0.72,0.11c0.18,0.07,0.33,0.18,0.44,0.32c0.11,0.14,0.19,0.32,0.23,0.52s0.06,0.45,0.06,0.71v2.83h-0.73v-2.67
		c0-0.19-0.01-0.36-0.03-0.51c-0.02-0.16-0.06-0.29-0.12-0.39s-0.16-0.19-0.27-0.25s-0.27-0.09-0.48-0.09
		c-0.16,0-0.33,0.02-0.48,0.07s-0.3,0.11-0.45,0.18c-0.12,0.05-0.23,0.12-0.34,0.2v3.46h-0.73v-3.23l-0.07-1.17H40.87z"/>
	<path class="st1" d="M48.63,31.74v4.61c0,0.36-0.05,0.66-0.15,0.91s-0.23,0.45-0.41,0.6c-0.18,0.15-0.39,0.27-0.64,0.34
		s-0.52,0.11-0.83,0.11c-0.28,0-0.55-0.02-0.77-0.06c-0.23-0.04-0.43-0.09-0.6-0.15l0.19-0.56c0.14,0.05,0.31,0.09,0.51,0.13
		c0.2,0.04,0.42,0.06,0.67,0.06c0.18,0,0.35-0.02,0.51-0.06c0.16-0.04,0.3-0.11,0.42-0.21c0.12-0.1,0.21-0.23,0.27-0.4
		c0.07-0.16,0.1-0.37,0.1-0.62V35.9c-0.18,0.1-0.38,0.18-0.57,0.25c-0.2,0.07-0.41,0.1-0.66,0.1c-0.65,0-1.12-0.19-1.41-0.57
		c-0.29-0.39-0.44-0.94-0.44-1.65c0-0.35,0.04-0.66,0.11-0.96c0.07-0.29,0.2-0.54,0.37-0.75c0.16-0.21,0.39-0.37,0.66-0.49
		s0.59-0.18,0.98-0.18c0.23,0,0.43,0.03,0.6,0.08s0.33,0.11,0.48,0.18l0.05-0.16H48.63z M47.9,32.44c-0.12-0.05-0.26-0.11-0.41-0.16
		c-0.14-0.05-0.3-0.08-0.48-0.08c-0.5,0-0.86,0.14-1.09,0.43c-0.23,0.29-0.35,0.75-0.35,1.39c0,0.21,0.02,0.41,0.05,0.61
		s0.11,0.38,0.2,0.54c0.09,0.16,0.23,0.28,0.39,0.37c0.17,0.09,0.38,0.14,0.65,0.14c0.2,0,0.38-0.03,0.54-0.09
		c0.16-0.06,0.33-0.15,0.49-0.25V32.44z"/>
	<path class="st1" d="M55.83,36.16c-0.06,0.01-0.1,0.02-0.12,0.02h-0.14c-0.23,0-0.4-0.04-0.51-0.13s-0.2-0.21-0.27-0.37
		c-0.16,0.15-0.37,0.28-0.62,0.39c-0.25,0.11-0.55,0.17-0.9,0.17c-0.27,0-0.49-0.04-0.66-0.11c-0.18-0.07-0.32-0.17-0.43-0.29
		s-0.19-0.26-0.23-0.43c-0.05-0.16-0.07-0.34-0.07-0.53c0-0.27,0.05-0.49,0.14-0.66c0.09-0.17,0.22-0.3,0.39-0.41
		c0.16-0.1,0.36-0.18,0.59-0.21c0.23-0.04,0.48-0.06,0.76-0.06c0.18,0,0.34,0,0.47,0.02c0.13,0.01,0.29,0.02,0.46,0.03v-0.23
		c0-0.21-0.02-0.4-0.05-0.55s-0.09-0.27-0.17-0.36s-0.19-0.16-0.33-0.2c-0.13-0.04-0.31-0.06-0.52-0.06c-0.25,0-0.49,0.04-0.74,0.11
		s-0.46,0.14-0.62,0.22l-0.18-0.51c0.22-0.1,0.48-0.19,0.77-0.27c0.3-0.08,0.62-0.12,0.96-0.12c0.3,0,0.56,0.03,0.77,0.09
		c0.21,0.06,0.38,0.16,0.5,0.3c0.12,0.14,0.21,0.33,0.26,0.56c0.05,0.23,0.08,0.51,0.08,0.84v1.59c0,0.23,0.04,0.38,0.1,0.46
		c0.07,0.09,0.17,0.12,0.31,0.12V36.16z M53.69,34.11c-0.4,0-0.67,0.06-0.82,0.19s-0.23,0.32-0.23,0.57c0,0.29,0.06,0.5,0.2,0.62
		c0.12,0.13,0.34,0.19,0.66,0.19c0.21,0,0.43-0.05,0.64-0.14c0.21-0.09,0.39-0.2,0.55-0.33v-1.06c-0.16-0.01-0.33-0.02-0.48-0.03
		C54.05,34.11,53.88,34.11,53.69,34.11z"/>
	<path class="st1" d="M60.49,36.25c-0.62,0-1.08-0.2-1.37-0.58c-0.3-0.39-0.44-0.94-0.44-1.66c0-0.34,0.04-0.66,0.11-0.95
		c0.08-0.29,0.2-0.54,0.38-0.75c0.16-0.21,0.38-0.37,0.65-0.49s0.59-0.18,0.97-0.18c0.22,0,0.42,0.03,0.61,0.08
		c0.12,0.03,0.25,0.08,0.37,0.14V29.6l0.72-0.11v5.52l0.08,1.12h-0.63l-0.09-0.31c-0.17,0.13-0.36,0.23-0.55,0.29
		C61.06,36.21,60.8,36.25,60.49,36.25z M60.85,32.2c-0.46,0-0.81,0.14-1.05,0.42s-0.36,0.75-0.36,1.39c0,0.23,0.02,0.44,0.05,0.64
		c0.04,0.2,0.1,0.37,0.2,0.53c0.09,0.15,0.23,0.27,0.38,0.36c0.16,0.09,0.38,0.14,0.62,0.14c0.26,0,0.49-0.05,0.69-0.16
		c0.06-0.03,0.12-0.07,0.19-0.11s0.12-0.09,0.19-0.14v-2.79C61.48,32.29,61.18,32.2,60.85,32.2z"/>
	<path class="st1" d="M63.7,29.93h0.74v0.77H63.7V29.93z M63.71,31.74h0.73v4.4h-0.73V31.74z"/>
	<path class="st1" d="M68.25,31.74v0.58h-1.61v3.82h-0.73v-3.82h-0.64v-0.58h0.64V31.2c0-0.32,0.04-0.6,0.12-0.82
		c0.08-0.21,0.19-0.39,0.33-0.52c0.14-0.13,0.3-0.23,0.5-0.28s0.41-0.08,0.66-0.08c0.16,0,0.32,0.02,0.48,0.05
		c0.16,0.03,0.3,0.07,0.45,0.11l-0.16,0.57c-0.21-0.09-0.46-0.12-0.73-0.12c-0.33,0-0.56,0.09-0.7,0.26c-0.14,0.18-0.2,0.48-0.2,0.9
		v0.49H68.25z"/>
	<path class="st1" d="M71.58,31.74v0.58h-1.61v3.82h-0.73v-3.82h-0.64v-0.58h0.64V31.2c0-0.32,0.04-0.6,0.12-0.82
		c0.08-0.21,0.19-0.39,0.33-0.52c0.14-0.13,0.3-0.23,0.5-0.28s0.41-0.08,0.66-0.08c0.16,0,0.32,0.02,0.48,0.05
		c0.16,0.03,0.3,0.07,0.45,0.11l-0.16,0.57c-0.21-0.09-0.46-0.12-0.73-0.12c-0.33,0-0.56,0.09-0.7,0.26c-0.14,0.18-0.2,0.48-0.2,0.9
		v0.49H71.58z"/>
	<path class="st1" d="M73.91,36.25c-0.38,0-0.7-0.05-0.96-0.14c-0.26-0.09-0.47-0.24-0.62-0.43c-0.16-0.2-0.27-0.43-0.34-0.73
		s-0.1-0.64-0.1-1.03c0-0.77,0.16-1.35,0.5-1.72c0.33-0.37,0.84-0.56,1.52-0.56c0.37,0,0.66,0.05,0.89,0.16
		c0.23,0.11,0.41,0.26,0.55,0.45c0.12,0.19,0.22,0.42,0.27,0.68s0.07,0.55,0.07,0.85v0.35h-3.04c0,0.25,0.02,0.46,0.05,0.63
		c0.09,0.35,0.24,0.59,0.46,0.71c0.21,0.13,0.5,0.2,0.88,0.2c0.31,0,0.59-0.04,0.83-0.12c0.23-0.08,0.42-0.16,0.56-0.23l0.2,0.5
		c-0.07,0.05-0.17,0.11-0.3,0.16s-0.27,0.1-0.41,0.14c-0.16,0.04-0.32,0.08-0.48,0.1C74.23,36.24,74.07,36.25,73.91,36.25z
		 M74.91,33.59c0-0.52-0.09-0.89-0.27-1.09c-0.18-0.2-0.43-0.31-0.74-0.31c-0.37,0-0.64,0.08-0.83,0.24s-0.32,0.41-0.39,0.74
		c-0.02,0.07-0.02,0.13-0.03,0.2s-0.01,0.14-0.02,0.22H74.91z"/>
	<path class="st1" d="M77.21,31.74l0.08,0.61c0.18-0.21,0.38-0.37,0.59-0.48c0.29-0.15,0.59-0.23,0.88-0.23
		c0.24,0,0.44,0.04,0.59,0.12l-0.2,0.61c-0.12-0.06-0.3-0.09-0.51-0.09c-0.27,0-0.52,0.08-0.76,0.24c-0.09,0.06-0.17,0.12-0.25,0.2
		c-0.09,0.07-0.16,0.16-0.25,0.25v3.18h-0.73v-3.2l-0.11-1.2H77.21z"/>
	<path class="st1" d="M81.48,36.25c-0.38,0-0.7-0.05-0.96-0.14c-0.26-0.09-0.47-0.24-0.62-0.43c-0.16-0.2-0.27-0.43-0.34-0.73
		s-0.1-0.64-0.1-1.03c0-0.77,0.16-1.35,0.5-1.72c0.33-0.37,0.84-0.56,1.52-0.56c0.37,0,0.66,0.05,0.89,0.16
		c0.23,0.11,0.41,0.26,0.55,0.45c0.12,0.19,0.22,0.42,0.27,0.68s0.07,0.55,0.07,0.85v0.35H80.2c0,0.25,0.02,0.46,0.05,0.63
		c0.09,0.35,0.24,0.59,0.46,0.71c0.21,0.13,0.5,0.2,0.88,0.2c0.31,0,0.59-0.04,0.83-0.12c0.23-0.08,0.42-0.16,0.56-0.23l0.2,0.5
		c-0.07,0.05-0.17,0.11-0.3,0.16s-0.27,0.1-0.41,0.14c-0.16,0.04-0.32,0.08-0.48,0.1C81.81,36.24,81.64,36.25,81.48,36.25z
		 M82.48,33.59c0-0.52-0.09-0.89-0.27-1.09c-0.18-0.2-0.43-0.31-0.74-0.31c-0.37,0-0.64,0.08-0.83,0.24s-0.32,0.41-0.39,0.74
		c-0.02,0.07-0.02,0.13-0.03,0.2s-0.01,0.14-0.02,0.22H82.48z"/>
	<path class="st1" d="M84.81,31.74l0.03,0.39c0.18-0.12,0.38-0.23,0.59-0.32c0.32-0.12,0.64-0.18,0.96-0.18
		c0.29,0,0.53,0.04,0.72,0.11c0.18,0.07,0.33,0.18,0.44,0.32c0.11,0.14,0.19,0.32,0.23,0.52s0.06,0.45,0.06,0.71v2.83h-0.73v-2.67
		c0-0.19-0.01-0.36-0.03-0.51c-0.02-0.16-0.06-0.29-0.12-0.39s-0.16-0.19-0.27-0.25s-0.27-0.09-0.48-0.09
		c-0.16,0-0.33,0.02-0.48,0.07s-0.3,0.11-0.45,0.18c-0.12,0.05-0.23,0.12-0.34,0.2v3.46H84.2v-3.23l-0.07-1.17H84.81z"/>
	<path class="st1" d="M89.98,32.32v2.17c0,0.19,0.01,0.36,0.02,0.5s0.05,0.27,0.11,0.36c0.05,0.1,0.14,0.17,0.26,0.22
		c0.11,0.05,0.26,0.08,0.45,0.08c0.27,0,0.53-0.05,0.8-0.14l0.13,0.51c-0.18,0.08-0.37,0.13-0.56,0.17c-0.2,0.04-0.4,0.06-0.59,0.06
		c-0.28,0-0.52-0.04-0.69-0.11c-0.18-0.08-0.31-0.18-0.41-0.32c-0.1-0.13-0.16-0.29-0.2-0.48c-0.03-0.19-0.05-0.39-0.05-0.6v-2.4
		h-0.75v-0.52l0.75-0.08v-0.92l0.72-0.12v1.04h1.66v0.58H89.98z"/>
	<path class="st1" d="M92.48,29.93h0.74v0.77h-0.74V29.93z M92.48,31.74h0.73v4.4h-0.73V31.74z"/>
	<path class="st1" d="M98.11,36.16c-0.06,0.01-0.1,0.02-0.12,0.02h-0.14c-0.23,0-0.4-0.04-0.51-0.13s-0.2-0.21-0.27-0.37
		c-0.16,0.15-0.37,0.28-0.62,0.39c-0.25,0.11-0.55,0.17-0.9,0.17c-0.27,0-0.49-0.04-0.66-0.11c-0.18-0.07-0.32-0.17-0.43-0.29
		s-0.19-0.26-0.23-0.43c-0.05-0.16-0.07-0.34-0.07-0.53c0-0.27,0.05-0.49,0.14-0.66c0.09-0.17,0.22-0.3,0.39-0.41
		c0.16-0.1,0.36-0.18,0.59-0.21c0.23-0.04,0.48-0.06,0.76-0.06c0.18,0,0.34,0,0.47,0.02c0.13,0.01,0.29,0.02,0.46,0.03v-0.23
		c0-0.21-0.02-0.4-0.05-0.55s-0.09-0.27-0.17-0.36s-0.19-0.16-0.33-0.2c-0.13-0.04-0.31-0.06-0.52-0.06c-0.25,0-0.49,0.04-0.74,0.11
		s-0.46,0.14-0.62,0.22l-0.18-0.51c0.22-0.1,0.48-0.19,0.77-0.27c0.3-0.08,0.62-0.12,0.96-0.12c0.3,0,0.56,0.03,0.77,0.09
		c0.21,0.06,0.38,0.16,0.5,0.3c0.12,0.14,0.21,0.33,0.26,0.56c0.05,0.23,0.08,0.51,0.08,0.84v1.59c0,0.23,0.04,0.38,0.1,0.46
		c0.07,0.09,0.17,0.12,0.31,0.12V36.16z M95.97,34.11c-0.4,0-0.67,0.06-0.82,0.19s-0.23,0.32-0.23,0.57c0,0.29,0.06,0.5,0.2,0.62
		c0.12,0.13,0.34,0.19,0.66,0.19c0.21,0,0.43-0.05,0.64-0.14c0.21-0.09,0.39-0.2,0.55-0.33v-1.06c-0.16-0.01-0.33-0.02-0.48-0.03
		C96.33,34.11,96.16,34.11,95.97,34.11z"/>
	<path class="st1" d="M99.87,32.32v2.17c0,0.19,0.01,0.36,0.02,0.5s0.05,0.27,0.11,0.36c0.05,0.1,0.14,0.17,0.26,0.22
		c0.11,0.05,0.26,0.08,0.45,0.08c0.27,0,0.53-0.05,0.8-0.14l0.13,0.51c-0.18,0.08-0.37,0.13-0.56,0.17c-0.2,0.04-0.4,0.06-0.59,0.06
		c-0.28,0-0.52-0.04-0.69-0.11c-0.18-0.08-0.31-0.18-0.41-0.32c-0.1-0.13-0.16-0.29-0.2-0.48c-0.03-0.19-0.05-0.39-0.05-0.6v-2.4
		H98.4v-0.52l0.75-0.08v-0.92l0.72-0.12v1.04h1.66v0.58H99.87z"/>
	<path class="st1" d="M104.13,36.25c-0.38,0-0.7-0.05-0.96-0.14c-0.26-0.09-0.47-0.24-0.62-0.43c-0.16-0.2-0.27-0.43-0.34-0.73
		s-0.1-0.64-0.1-1.03c0-0.77,0.16-1.35,0.5-1.72c0.33-0.37,0.84-0.56,1.52-0.56c0.37,0,0.66,0.05,0.89,0.16
		c0.23,0.11,0.41,0.26,0.55,0.45c0.12,0.19,0.22,0.42,0.27,0.68s0.07,0.55,0.07,0.85v0.35h-3.04c0,0.25,0.02,0.46,0.05,0.63
		c0.09,0.35,0.24,0.59,0.46,0.71c0.21,0.13,0.5,0.2,0.88,0.2c0.31,0,0.59-0.04,0.83-0.12c0.23-0.08,0.42-0.16,0.56-0.23l0.2,0.5
		c-0.07,0.05-0.17,0.11-0.3,0.16s-0.27,0.1-0.41,0.14c-0.16,0.04-0.32,0.08-0.48,0.1C104.45,36.24,104.29,36.25,104.13,36.25z
		 M105.13,33.59c0-0.52-0.09-0.89-0.27-1.09c-0.18-0.2-0.43-0.31-0.74-0.31c-0.37,0-0.64,0.08-0.83,0.24s-0.32,0.41-0.39,0.74
		c-0.02,0.07-0.02,0.13-0.03,0.2s-0.01,0.14-0.02,0.22H105.13z"/>
	<path class="st1" d="M108.42,36.25c-0.62,0-1.08-0.2-1.37-0.58c-0.3-0.39-0.44-0.94-0.44-1.66c0-0.34,0.04-0.66,0.11-0.95
		c0.08-0.29,0.2-0.54,0.38-0.75c0.16-0.21,0.38-0.37,0.65-0.49s0.59-0.18,0.97-0.18c0.22,0,0.42,0.03,0.61,0.08
		c0.12,0.03,0.25,0.08,0.37,0.14V29.6l0.72-0.11v5.52l0.08,1.12h-0.63l-0.09-0.31c-0.17,0.13-0.36,0.23-0.55,0.29
		C108.99,36.21,108.73,36.25,108.42,36.25z M108.78,32.2c-0.46,0-0.81,0.14-1.05,0.42s-0.36,0.75-0.36,1.39
		c0,0.23,0.02,0.44,0.05,0.64c0.04,0.2,0.1,0.37,0.2,0.53c0.09,0.15,0.23,0.27,0.38,0.36c0.16,0.09,0.38,0.14,0.62,0.14
		c0.26,0,0.49-0.05,0.69-0.16c0.06-0.03,0.12-0.07,0.19-0.11s0.12-0.09,0.19-0.14v-2.79C109.41,32.29,109.11,32.2,108.78,32.2z"/>
	<path class="st1" d="M115.77,36.25c-0.38,0-0.7-0.05-0.96-0.14c-0.26-0.09-0.47-0.24-0.62-0.43c-0.16-0.2-0.27-0.43-0.34-0.73
		s-0.1-0.64-0.1-1.03c0-0.77,0.16-1.35,0.5-1.72c0.33-0.37,0.84-0.56,1.52-0.56c0.37,0,0.66,0.05,0.89,0.16
		c0.23,0.11,0.41,0.26,0.55,0.45c0.12,0.19,0.22,0.42,0.27,0.68s0.07,0.55,0.07,0.85v0.35h-3.04c0,0.25,0.02,0.46,0.05,0.63
		c0.09,0.35,0.24,0.59,0.46,0.71c0.21,0.13,0.5,0.2,0.88,0.2c0.31,0,0.59-0.04,0.83-0.12c0.23-0.08,0.42-0.16,0.56-0.23l0.2,0.5
		c-0.07,0.05-0.17,0.11-0.3,0.16s-0.27,0.1-0.41,0.14c-0.16,0.04-0.32,0.08-0.48,0.1C116.09,36.24,115.93,36.25,115.77,36.25z
		 M116.77,33.59c0-0.52-0.09-0.89-0.27-1.09c-0.18-0.2-0.43-0.31-0.74-0.31c-0.37,0-0.64,0.08-0.83,0.24s-0.32,0.41-0.39,0.74
		c-0.02,0.07-0.02,0.13-0.03,0.2s-0.01,0.14-0.02,0.22H116.77z"/>
	<path class="st1" d="M119.94,34.19l-1.18,1.95h-0.79l1.4-2.27l-1.39-2.13h0.83l1.14,1.82h0.15l1.12-1.82H122l-1.36,2.13l1.43,2.27
		h-0.82l-1.16-1.95H119.94z"/>
	<path class="st1" d="M123.37,31.74l0.08,0.32c0.18-0.13,0.37-0.23,0.56-0.29c0.26-0.09,0.52-0.14,0.8-0.14
		c0.62,0,1.08,0.2,1.37,0.58c0.29,0.39,0.44,0.94,0.44,1.66c0,0.34-0.04,0.66-0.12,0.96c-0.08,0.29-0.2,0.54-0.37,0.75
		s-0.39,0.37-0.66,0.49c-0.27,0.12-0.59,0.18-0.96,0.18c-0.23,0-0.43-0.03-0.61-0.09c-0.06-0.01-0.12-0.03-0.18-0.05
		c-0.05-0.02-0.12-0.05-0.18-0.08v2.17l-0.73,0.11v-5.44l-0.07-1.12H123.37z M124.44,35.68c0.45,0,0.8-0.14,1.05-0.42
		s0.37-0.74,0.37-1.39c0-0.22-0.02-0.44-0.05-0.64c-0.04-0.2-0.11-0.38-0.2-0.53c-0.1-0.15-0.23-0.27-0.38-0.36
		c-0.16-0.09-0.37-0.13-0.62-0.13c-0.26,0-0.48,0.05-0.7,0.16c-0.12,0.07-0.24,0.15-0.36,0.25v2.78
		C123.8,35.59,124.09,35.68,124.44,35.68z"/>
	<path class="st1" d="M129.38,36.25c-0.38,0-0.7-0.05-0.96-0.14c-0.26-0.09-0.47-0.24-0.62-0.43c-0.16-0.2-0.27-0.43-0.34-0.73
		s-0.1-0.64-0.1-1.03c0-0.77,0.16-1.35,0.5-1.72c0.33-0.37,0.84-0.56,1.52-0.56c0.37,0,0.66,0.05,0.89,0.16
		c0.23,0.11,0.41,0.26,0.55,0.45c0.12,0.19,0.22,0.42,0.27,0.68s0.07,0.55,0.07,0.85v0.35h-3.04c0,0.25,0.02,0.46,0.05,0.63
		c0.09,0.35,0.24,0.59,0.46,0.71c0.21,0.13,0.5,0.2,0.88,0.2c0.31,0,0.59-0.04,0.83-0.12c0.23-0.08,0.42-0.16,0.56-0.23l0.2,0.5
		c-0.07,0.05-0.17,0.11-0.3,0.16s-0.27,0.1-0.41,0.14c-0.16,0.04-0.32,0.08-0.48,0.1C129.71,36.24,129.55,36.25,129.38,36.25z
		 M130.38,33.59c0-0.52-0.09-0.89-0.27-1.09c-0.18-0.2-0.43-0.31-0.74-0.31c-0.37,0-0.64,0.08-0.83,0.24s-0.32,0.41-0.39,0.74
		c-0.02,0.07-0.02,0.13-0.03,0.2s-0.01,0.14-0.02,0.22H130.38z"/>
	<path class="st1" d="M132.69,31.74l0.08,0.61c0.18-0.21,0.38-0.37,0.59-0.48c0.29-0.15,0.59-0.23,0.88-0.23
		c0.24,0,0.44,0.04,0.59,0.12l-0.2,0.61c-0.12-0.06-0.3-0.09-0.51-0.09c-0.27,0-0.52,0.08-0.76,0.24c-0.09,0.06-0.17,0.12-0.25,0.2
		c-0.09,0.07-0.16,0.16-0.25,0.25v3.18h-0.73v-3.2l-0.11-1.2H132.69z"/>
	<path class="st1" d="M135.27,29.93h0.74v0.77h-0.74V29.93z M135.27,31.74h0.73v4.4h-0.73V31.74z"/>
	<path class="st1" d="M139.02,36.25c-0.38,0-0.7-0.05-0.96-0.14c-0.26-0.09-0.47-0.24-0.62-0.43c-0.16-0.2-0.27-0.43-0.34-0.73
		s-0.1-0.64-0.1-1.03c0-0.77,0.16-1.35,0.5-1.72c0.33-0.37,0.84-0.56,1.52-0.56c0.37,0,0.66,0.05,0.89,0.16
		c0.23,0.11,0.41,0.26,0.55,0.45c0.12,0.19,0.22,0.42,0.27,0.68s0.07,0.55,0.07,0.85v0.35h-3.04c0,0.25,0.02,0.46,0.05,0.63
		c0.09,0.35,0.24,0.59,0.46,0.71c0.21,0.13,0.5,0.2,0.88,0.2c0.31,0,0.59-0.04,0.83-0.12c0.23-0.08,0.42-0.16,0.56-0.23l0.2,0.5
		c-0.07,0.05-0.17,0.11-0.3,0.16s-0.27,0.1-0.41,0.14c-0.16,0.04-0.32,0.08-0.48,0.1C139.35,36.24,139.19,36.25,139.02,36.25z
		 M140.02,33.59c0-0.52-0.09-0.89-0.27-1.09c-0.18-0.2-0.43-0.31-0.74-0.31c-0.37,0-0.64,0.08-0.83,0.24s-0.32,0.41-0.39,0.74
		c-0.02,0.07-0.02,0.13-0.03,0.2s-0.01,0.14-0.02,0.22H140.02z"/>
	<path class="st1" d="M142.36,31.74l0.03,0.39c0.18-0.12,0.38-0.23,0.59-0.32c0.32-0.12,0.64-0.18,0.96-0.18
		c0.29,0,0.53,0.04,0.72,0.11c0.18,0.07,0.33,0.18,0.44,0.32c0.11,0.14,0.19,0.32,0.23,0.52s0.06,0.45,0.06,0.71v2.83h-0.73v-2.67
		c0-0.19-0.01-0.36-0.03-0.51c-0.02-0.16-0.06-0.29-0.12-0.39s-0.16-0.19-0.27-0.25s-0.27-0.09-0.48-0.09
		c-0.16,0-0.33,0.02-0.48,0.07s-0.3,0.11-0.45,0.18c-0.12,0.05-0.23,0.12-0.34,0.2v3.46h-0.73v-3.23l-0.07-1.17H142.36z"/>
	<path class="st1" d="M149.81,35.89c-0.14,0.08-0.34,0.16-0.59,0.24c-0.27,0.07-0.55,0.11-0.85,0.11c-0.73,0-1.26-0.2-1.58-0.58
		s-0.48-0.94-0.48-1.66c0-0.79,0.19-1.39,0.55-1.78c0.38-0.39,0.93-0.59,1.66-0.59c0.27,0,0.53,0.05,0.77,0.14s0.44,0.22,0.58,0.38
		l-0.44,0.43c-0.11-0.12-0.24-0.22-0.4-0.29c-0.16-0.07-0.34-0.11-0.52-0.11c-0.48,0-0.85,0.15-1.1,0.44
		c-0.24,0.29-0.37,0.76-0.37,1.4c0,0.24,0.02,0.46,0.07,0.67c0.05,0.2,0.12,0.37,0.23,0.52c0.12,0.14,0.26,0.26,0.44,0.34
		c0.17,0.08,0.39,0.12,0.63,0.12c0.26,0,0.48-0.03,0.68-0.08s0.38-0.12,0.55-0.2L149.81,35.89z"/>
	<path class="st1" d="M152.26,36.25c-0.38,0-0.7-0.05-0.96-0.14c-0.26-0.09-0.47-0.24-0.62-0.43c-0.16-0.2-0.27-0.43-0.34-0.73
		s-0.1-0.64-0.1-1.03c0-0.77,0.16-1.35,0.5-1.72c0.33-0.37,0.84-0.56,1.52-0.56c0.37,0,0.66,0.05,0.89,0.16
		c0.23,0.11,0.41,0.26,0.55,0.45c0.12,0.19,0.22,0.42,0.27,0.68s0.07,0.55,0.07,0.85v0.35h-3.04c0,0.25,0.02,0.46,0.05,0.63
		c0.09,0.35,0.24,0.59,0.46,0.71c0.21,0.13,0.5,0.2,0.88,0.2c0.31,0,0.59-0.04,0.83-0.12c0.23-0.08,0.42-0.16,0.56-0.23l0.2,0.5
		c-0.07,0.05-0.17,0.11-0.3,0.16s-0.27,0.1-0.41,0.14c-0.16,0.04-0.32,0.08-0.48,0.1C152.59,36.24,152.42,36.25,152.26,36.25z
		 M153.26,33.59c0-0.52-0.09-0.89-0.27-1.09c-0.18-0.2-0.43-0.31-0.74-0.31c-0.37,0-0.64,0.08-0.83,0.24s-0.32,0.41-0.39,0.74
		c-0.02,0.07-0.02,0.13-0.03,0.2s-0.01,0.14-0.02,0.22H153.26z"/>
</g>
</svg>
