<?xml version="1.0" encoding="utf-8"?>
<!-- Generator: Adobe Illustrator 23.0.0, SVG Export Plug-In . SVG Version: 6.00 Build 0)  -->
<svg version="1.1" id="Layer_1" xmlns="http://www.w3.org/2000/svg" xmlns:xlink="http://www.w3.org/1999/xlink" x="0px" y="0px"
	 viewBox="0 0 182.66 52.5" style="enable-background:new 0 0 182.66 52.5;" xml:space="preserve">
<style type="text/css">
	.st0{fill:#F1F2F2;stroke:#808285;stroke-width:0.8;stroke-miterlimit:10;}
	.st1{fill:#464A4C;}
</style>
<path class="st0" d="M162.25,51.35H19.14c-9.5,0-17.28-7.78-17.28-17.28V19.63c0-9.5,7.78-17.28,17.28-17.28h143.11
	c9.5,0,17.28,7.78,17.28,17.28v14.44C179.53,43.58,171.76,51.35,162.25,51.35z"/>
<g>
	<path class="st1" d="M19.78,25.93v2.17c0,0.19,0.01,0.36,0.02,0.5s0.05,0.27,0.11,0.36c0.06,0.1,0.14,0.17,0.26,0.22
		c0.11,0.05,0.27,0.08,0.45,0.08c0.27,0,0.54-0.05,0.8-0.14l0.13,0.51c-0.18,0.08-0.37,0.13-0.56,0.17c-0.2,0.04-0.4,0.06-0.59,0.06
		c-0.28,0-0.51-0.04-0.69-0.11c-0.18-0.08-0.31-0.18-0.41-0.32c-0.09-0.13-0.16-0.29-0.2-0.48c-0.04-0.19-0.05-0.39-0.05-0.6v-2.4
		h-0.75v-0.52l0.75-0.08v-0.92l0.72-0.12v1.04h1.66v0.58H19.78z"/>
	<path class="st1" d="M25.2,29.75v-2.66c0-0.18-0.01-0.35-0.02-0.5c-0.02-0.16-0.06-0.29-0.12-0.39S24.9,26,24.78,25.94
		c-0.12-0.06-0.28-0.09-0.48-0.09c-0.16,0-0.33,0.02-0.48,0.07c-0.16,0.04-0.31,0.11-0.45,0.18c-0.07,0.04-0.12,0.07-0.18,0.1
		s-0.11,0.07-0.16,0.1v3.44H22.3v-6.54l0.73-0.11v2.57c0.14-0.1,0.31-0.18,0.49-0.25c0.32-0.12,0.64-0.18,0.96-0.18
		c0.3,0,0.54,0.04,0.72,0.11c0.19,0.07,0.34,0.18,0.45,0.32s0.19,0.32,0.23,0.52s0.06,0.45,0.06,0.71v2.83H25.2z"/>
	<path class="st1" d="M27.66,25.35l0.08,0.61c0.18-0.21,0.38-0.38,0.59-0.48c0.29-0.15,0.58-0.23,0.88-0.23
		c0.23,0,0.43,0.04,0.59,0.12l-0.2,0.61c-0.12-0.06-0.3-0.09-0.51-0.09c-0.27,0-0.52,0.08-0.76,0.24c-0.09,0.06-0.17,0.12-0.26,0.2
		c-0.08,0.07-0.16,0.16-0.24,0.25v3.18h-0.73v-3.2L27,25.35H27.66z"/>
	<path class="st1" d="M31.84,29.85c-0.38,0-0.7-0.05-0.95-0.16c-0.25-0.11-0.45-0.26-0.6-0.46c-0.15-0.2-0.25-0.45-0.31-0.73
		s-0.09-0.61-0.09-0.98c0-0.77,0.17-1.35,0.51-1.72c0.34-0.38,0.89-0.56,1.64-0.56c0.38,0,0.69,0.05,0.94,0.16
		c0.26,0.11,0.45,0.26,0.61,0.46c0.15,0.2,0.26,0.45,0.32,0.73S34,27.21,34,27.58c0,0.77-0.17,1.34-0.52,1.71
		C33.12,29.67,32.58,29.85,31.84,29.85z M31.84,29.28c0.53,0,0.91-0.15,1.11-0.45c0.2-0.3,0.3-0.75,0.3-1.35
		c0-0.23-0.02-0.45-0.05-0.65c-0.03-0.2-0.09-0.38-0.18-0.54c-0.09-0.16-0.22-0.28-0.38-0.37s-0.35-0.14-0.6-0.14
		c-0.53,0-0.91,0.16-1.11,0.47c-0.2,0.31-0.3,0.76-0.3,1.35c0,0.24,0.02,0.46,0.05,0.66c0.03,0.2,0.09,0.38,0.19,0.53
		c0.09,0.15,0.21,0.27,0.37,0.36S31.59,29.28,31.84,29.28z"/>
	<path class="st1" d="M38.55,28.57l0.08,1.17h-0.69l-0.05-0.38c-0.16,0.11-0.35,0.21-0.58,0.3c-0.34,0.13-0.66,0.19-0.95,0.19
		s-0.53-0.04-0.71-0.11c-0.19-0.07-0.34-0.18-0.44-0.32c-0.11-0.14-0.18-0.32-0.22-0.52c-0.05-0.21-0.06-0.45-0.06-0.73v-2.82h0.72
		v2.67c0,0.18,0.01,0.36,0.03,0.51s0.06,0.29,0.12,0.39s0.15,0.19,0.27,0.25c0.12,0.05,0.27,0.09,0.47,0.09
		c0.16,0,0.33-0.02,0.48-0.07c0.16-0.04,0.3-0.1,0.45-0.17l0.36-0.2v-3.47h0.72V28.57z"/>
	<path class="st1" d="M43.34,25.35v4.61c0,0.36-0.05,0.66-0.15,0.91c-0.09,0.25-0.23,0.45-0.41,0.6c-0.17,0.15-0.39,0.27-0.64,0.34
		s-0.52,0.11-0.82,0.11c-0.29,0-0.55-0.02-0.78-0.06c-0.23-0.04-0.43-0.09-0.6-0.15l0.19-0.56c0.14,0.05,0.31,0.09,0.51,0.13
		c0.2,0.04,0.43,0.06,0.68,0.06c0.17,0,0.34-0.02,0.51-0.06c0.16-0.04,0.3-0.11,0.41-0.21c0.12-0.1,0.21-0.23,0.28-0.4
		c0.06-0.16,0.1-0.37,0.1-0.62v-0.53c-0.19,0.1-0.38,0.18-0.57,0.25c-0.2,0.07-0.42,0.1-0.66,0.1c-0.65,0-1.12-0.19-1.41-0.57
		c-0.29-0.39-0.44-0.94-0.44-1.65c0-0.35,0.04-0.66,0.11-0.96c0.08-0.29,0.2-0.54,0.37-0.75s0.39-0.38,0.66-0.49
		c0.27-0.12,0.59-0.18,0.98-0.18c0.23,0,0.43,0.03,0.59,0.08c0.17,0.05,0.34,0.11,0.48,0.18l0.05-0.16H43.34z M42.62,26.04
		c-0.13-0.05-0.27-0.11-0.41-0.16c-0.14-0.05-0.3-0.08-0.47-0.08c-0.5,0-0.87,0.14-1.1,0.43c-0.23,0.29-0.35,0.75-0.35,1.39
		c0,0.21,0.02,0.41,0.05,0.61s0.11,0.38,0.2,0.54c0.09,0.16,0.23,0.28,0.4,0.37c0.16,0.09,0.38,0.14,0.64,0.14
		c0.2,0,0.38-0.03,0.54-0.09c0.16-0.06,0.33-0.15,0.5-0.25V26.04z"/>
	<path class="st1" d="M47.45,29.75v-2.66c0-0.18-0.01-0.35-0.03-0.5c-0.02-0.16-0.05-0.29-0.12-0.39c-0.06-0.11-0.16-0.19-0.27-0.24
		c-0.12-0.06-0.27-0.09-0.48-0.09c-0.16,0-0.33,0.02-0.48,0.07c-0.16,0.04-0.3,0.11-0.45,0.18c-0.06,0.04-0.12,0.07-0.18,0.1
		s-0.1,0.07-0.16,0.1v3.44h-0.73v-6.54l0.73-0.11v2.57c0.15-0.1,0.31-0.18,0.5-0.25c0.32-0.12,0.64-0.18,0.96-0.18
		c0.3,0,0.53,0.04,0.72,0.11s0.34,0.18,0.45,0.32c0.1,0.14,0.18,0.32,0.22,0.52c0.05,0.21,0.06,0.45,0.06,0.71v2.83H47.45z"/>
	<path class="st1" d="M55.34,29.77c-0.06,0.01-0.11,0.02-0.12,0.02h-0.15c-0.22,0-0.39-0.04-0.5-0.13s-0.2-0.21-0.27-0.37
		c-0.16,0.15-0.37,0.28-0.62,0.39c-0.26,0.11-0.55,0.17-0.9,0.17c-0.27,0-0.49-0.04-0.66-0.11c-0.18-0.07-0.32-0.17-0.43-0.29
		s-0.19-0.26-0.23-0.43c-0.04-0.16-0.06-0.34-0.06-0.53c0-0.27,0.05-0.49,0.14-0.66c0.09-0.17,0.22-0.3,0.38-0.41
		c0.17-0.1,0.37-0.18,0.59-0.21c0.23-0.04,0.48-0.06,0.75-0.06c0.18,0,0.34,0,0.48,0.02c0.13,0.01,0.28,0.02,0.46,0.03v-0.23
		c0-0.21-0.02-0.4-0.05-0.55c-0.03-0.15-0.09-0.27-0.16-0.36s-0.19-0.16-0.33-0.2c-0.13-0.04-0.31-0.06-0.52-0.06
		c-0.25,0-0.5,0.04-0.75,0.11s-0.45,0.14-0.61,0.22l-0.19-0.51c0.23-0.1,0.48-0.19,0.78-0.27c0.3-0.08,0.62-0.12,0.96-0.12
		c0.3,0,0.56,0.03,0.77,0.09c0.2,0.06,0.37,0.16,0.49,0.3c0.12,0.14,0.22,0.33,0.27,0.56c0.05,0.23,0.08,0.51,0.08,0.84v1.59
		c0,0.23,0.03,0.38,0.1,0.46c0.06,0.09,0.17,0.12,0.31,0.12V29.77z M53.2,27.71c-0.4,0-0.67,0.06-0.82,0.19
		c-0.16,0.12-0.23,0.32-0.23,0.57c0,0.29,0.06,0.5,0.19,0.62c0.13,0.13,0.35,0.19,0.66,0.19c0.21,0,0.42-0.05,0.63-0.14
		c0.21-0.09,0.4-0.2,0.56-0.33v-1.06c-0.17-0.01-0.33-0.02-0.48-0.03C53.55,27.71,53.38,27.71,53.2,27.71z"/>
	<path class="st1" d="M60,29.85c-0.62,0-1.08-0.2-1.37-0.58s-0.44-0.94-0.44-1.66c0-0.34,0.04-0.66,0.12-0.95
		c0.08-0.29,0.2-0.54,0.37-0.75s0.39-0.37,0.66-0.49s0.59-0.18,0.96-0.18c0.22,0,0.42,0.03,0.62,0.08c0.12,0.03,0.24,0.08,0.36,0.14
		v-2.26L62,23.1v5.52l0.07,1.12h-0.63l-0.09-0.31c-0.17,0.13-0.36,0.23-0.55,0.29C60.57,29.81,60.3,29.85,60,29.85z M60.37,25.8
		c-0.46,0-0.81,0.14-1.06,0.42c-0.24,0.28-0.36,0.75-0.36,1.39c0,0.23,0.02,0.44,0.05,0.64c0.04,0.2,0.11,0.37,0.2,0.53
		c0.09,0.15,0.23,0.27,0.39,0.36s0.37,0.14,0.62,0.14c0.27,0,0.49-0.05,0.69-0.16c0.07-0.03,0.13-0.07,0.19-0.11
		c0.06-0.04,0.12-0.09,0.19-0.14v-2.79C60.99,25.89,60.69,25.8,60.37,25.8z"/>
	<path class="st1" d="M63.21,23.53h0.74v0.77h-0.74V23.53z M63.23,25.35h0.73v4.4h-0.73V25.35z"/>
	<path class="st1" d="M68.74,25.35v4.61c0,0.36-0.05,0.66-0.14,0.91s-0.23,0.45-0.41,0.6c-0.18,0.15-0.39,0.27-0.64,0.34
		s-0.52,0.11-0.83,0.11c-0.29,0-0.55-0.02-0.77-0.06c-0.23-0.04-0.44-0.09-0.61-0.15l0.2-0.56c0.14,0.05,0.31,0.09,0.51,0.13
		c0.2,0.04,0.42,0.06,0.67,0.06c0.18,0,0.35-0.02,0.51-0.06c0.16-0.04,0.3-0.11,0.42-0.21c0.12-0.1,0.21-0.23,0.27-0.4
		c0.07-0.16,0.1-0.37,0.1-0.62v-0.53c-0.19,0.1-0.38,0.18-0.57,0.25c-0.2,0.07-0.41,0.1-0.66,0.1c-0.66,0-1.12-0.19-1.41-0.57
		c-0.3-0.39-0.44-0.94-0.44-1.65c0-0.35,0.03-0.66,0.11-0.96c0.07-0.29,0.2-0.54,0.36-0.75c0.17-0.21,0.39-0.38,0.66-0.49
		c0.27-0.12,0.59-0.18,0.98-0.18c0.23,0,0.43,0.03,0.6,0.08s0.33,0.11,0.48,0.18l0.05-0.16H68.74z M68.02,26.04
		c-0.12-0.05-0.27-0.11-0.41-0.16c-0.15-0.05-0.3-0.08-0.48-0.08c-0.5,0-0.87,0.14-1.1,0.43c-0.23,0.29-0.34,0.75-0.34,1.39
		c0,0.21,0.02,0.41,0.05,0.61s0.1,0.38,0.2,0.54c0.09,0.16,0.23,0.28,0.39,0.37c0.16,0.09,0.38,0.14,0.64,0.14
		c0.2,0,0.38-0.03,0.55-0.09c0.16-0.06,0.33-0.15,0.49-0.25V26.04z"/>
	<path class="st1" d="M69.95,23.53h0.74v0.77h-0.74V23.53z M69.95,25.35h0.73v4.4h-0.73V25.35z"/>
	<path class="st1" d="M72.88,25.93v2.17c0,0.19,0.01,0.36,0.02,0.5s0.05,0.27,0.11,0.36c0.06,0.1,0.14,0.17,0.26,0.22
		c0.11,0.05,0.27,0.08,0.45,0.08c0.27,0,0.54-0.05,0.8-0.14l0.13,0.51c-0.18,0.08-0.37,0.13-0.56,0.17c-0.2,0.04-0.4,0.06-0.59,0.06
		c-0.28,0-0.51-0.04-0.69-0.11c-0.18-0.08-0.31-0.18-0.41-0.32c-0.09-0.13-0.16-0.29-0.2-0.48c-0.04-0.19-0.05-0.39-0.05-0.6v-2.4
		h-0.75v-0.52l0.75-0.08v-0.92l0.72-0.12v1.04h1.66v0.58H72.88z"/>
	<path class="st1" d="M79.08,29.77c-0.06,0.01-0.11,0.02-0.12,0.02H78.8c-0.22,0-0.39-0.04-0.5-0.13s-0.2-0.21-0.27-0.37
		c-0.16,0.15-0.37,0.28-0.62,0.39c-0.26,0.11-0.55,0.17-0.9,0.17c-0.27,0-0.49-0.04-0.66-0.11c-0.18-0.07-0.32-0.17-0.43-0.29
		s-0.19-0.26-0.23-0.43c-0.04-0.16-0.06-0.34-0.06-0.53c0-0.27,0.05-0.49,0.14-0.66c0.09-0.17,0.22-0.3,0.38-0.41
		c0.17-0.1,0.37-0.18,0.59-0.21c0.23-0.04,0.48-0.06,0.75-0.06c0.18,0,0.34,0,0.48,0.02c0.13,0.01,0.28,0.02,0.46,0.03v-0.23
		c0-0.21-0.02-0.4-0.05-0.55c-0.03-0.15-0.09-0.27-0.16-0.36s-0.19-0.16-0.33-0.2c-0.13-0.04-0.31-0.06-0.52-0.06
		c-0.25,0-0.5,0.04-0.75,0.11s-0.45,0.14-0.61,0.22l-0.19-0.51c0.23-0.1,0.48-0.19,0.78-0.27c0.3-0.08,0.62-0.12,0.96-0.12
		c0.3,0,0.56,0.03,0.77,0.09c0.2,0.06,0.37,0.16,0.49,0.3c0.12,0.14,0.22,0.33,0.27,0.56c0.05,0.23,0.08,0.51,0.08,0.84v1.59
		c0,0.23,0.03,0.38,0.1,0.46c0.06,0.09,0.17,0.12,0.31,0.12V29.77z M76.94,27.71c-0.4,0-0.67,0.06-0.82,0.19
		c-0.16,0.12-0.23,0.32-0.23,0.57c0,0.29,0.06,0.5,0.19,0.62c0.13,0.13,0.35,0.19,0.66,0.19c0.21,0,0.42-0.05,0.63-0.14
		c0.21-0.09,0.4-0.2,0.56-0.33v-1.06c-0.17-0.01-0.33-0.02-0.48-0.03C77.29,27.71,77.13,27.71,76.94,27.71z"/>
	<path class="st1" d="M81.02,29.77c-0.01,0.01-0.04,0.01-0.09,0.01c-0.02,0-0.07,0.01-0.17,0.01c-0.35,0-0.59-0.1-0.71-0.29
		c-0.13-0.2-0.2-0.48-0.2-0.87v-5.43l0.72-0.11v5.52c0,0.27,0.03,0.43,0.1,0.5c0.06,0.07,0.18,0.11,0.34,0.11V29.77z"/>
	<path class="st1" d="M85.18,27c0.15,0.08,0.34,0.15,0.58,0.23c0.23,0.08,0.45,0.16,0.67,0.25c0.25,0.1,0.46,0.23,0.62,0.39
		c0.16,0.16,0.25,0.4,0.25,0.71c0,0.44-0.16,0.76-0.48,0.96c-0.32,0.2-0.77,0.3-1.38,0.3c-0.29,0-0.57-0.03-0.84-0.08
		s-0.5-0.13-0.7-0.23L84.14,29c0.15,0.09,0.34,0.15,0.57,0.2s0.47,0.08,0.74,0.08c0.14,0,0.28-0.01,0.41-0.03
		c0.14-0.02,0.26-0.04,0.36-0.09c0.1-0.04,0.19-0.11,0.25-0.19c0.07-0.08,0.1-0.2,0.1-0.34c0-0.28-0.18-0.48-0.54-0.61
		c-0.2-0.09-0.42-0.17-0.66-0.25c-0.23-0.07-0.44-0.15-0.62-0.23c-0.23-0.09-0.41-0.21-0.56-0.37c-0.15-0.15-0.22-0.38-0.22-0.67
		c0-0.23,0.05-0.43,0.16-0.6c0.1-0.16,0.24-0.29,0.41-0.39c0.16-0.09,0.36-0.16,0.57-0.21c0.21-0.04,0.42-0.06,0.63-0.06
		c0.34,0,0.62,0.03,0.87,0.08c0.24,0.05,0.44,0.11,0.6,0.18l-0.23,0.55c-0.17-0.07-0.36-0.13-0.56-0.18
		c-0.2-0.05-0.44-0.07-0.69-0.07c-0.39,0-0.66,0.06-0.81,0.18s-0.23,0.26-0.23,0.42c0,0.14,0.03,0.26,0.11,0.35
		C84.88,26.84,85.01,26.92,85.18,27z"/>
	<path class="st1" d="M88.2,23.53h0.74v0.77H88.2V23.53z M88.22,25.35h0.73v4.4h-0.73V25.35z"/>
	<path class="st1" d="M93.73,25.35v4.61c0,0.36-0.05,0.66-0.14,0.91s-0.23,0.45-0.41,0.6c-0.18,0.15-0.39,0.27-0.64,0.34
		s-0.52,0.11-0.83,0.11c-0.29,0-0.55-0.02-0.77-0.06c-0.23-0.04-0.44-0.09-0.61-0.15l0.2-0.56c0.14,0.05,0.31,0.09,0.51,0.13
		c0.2,0.04,0.42,0.06,0.67,0.06c0.18,0,0.35-0.02,0.51-0.06c0.16-0.04,0.3-0.11,0.42-0.21c0.12-0.1,0.21-0.23,0.27-0.4
		c0.07-0.16,0.1-0.37,0.1-0.62v-0.53c-0.19,0.1-0.38,0.18-0.57,0.25c-0.2,0.07-0.41,0.1-0.66,0.1c-0.66,0-1.12-0.19-1.41-0.57
		c-0.3-0.39-0.44-0.94-0.44-1.65c0-0.35,0.03-0.66,0.11-0.96c0.07-0.29,0.2-0.54,0.36-0.75c0.17-0.21,0.39-0.38,0.66-0.49
		c0.27-0.12,0.59-0.18,0.98-0.18c0.23,0,0.43,0.03,0.6,0.08s0.33,0.11,0.48,0.18l0.05-0.16H93.73z M93.02,26.04
		c-0.12-0.05-0.27-0.11-0.41-0.16c-0.15-0.05-0.3-0.08-0.48-0.08c-0.5,0-0.87,0.14-1.1,0.43c-0.23,0.29-0.34,0.75-0.34,1.39
		c0,0.21,0.02,0.41,0.05,0.61s0.1,0.38,0.2,0.54c0.09,0.16,0.23,0.28,0.39,0.37c0.16,0.09,0.38,0.14,0.64,0.14
		c0.2,0,0.38-0.03,0.55-0.09c0.16-0.06,0.33-0.15,0.49-0.25V26.04z"/>
	<path class="st1" d="M95.55,25.35l0.02,0.39c0.19-0.12,0.38-0.23,0.59-0.32c0.32-0.12,0.64-0.18,0.96-0.18
		c0.3,0,0.54,0.04,0.72,0.11c0.19,0.07,0.34,0.18,0.45,0.32s0.19,0.32,0.23,0.52s0.06,0.45,0.06,0.71v2.83h-0.73v-2.67
		c0-0.19-0.01-0.36-0.02-0.51c-0.02-0.16-0.06-0.29-0.12-0.39s-0.16-0.19-0.27-0.25s-0.28-0.09-0.48-0.09
		c-0.16,0-0.33,0.02-0.48,0.07s-0.31,0.11-0.45,0.18c-0.12,0.05-0.23,0.12-0.34,0.2v3.46h-0.73v-3.23l-0.08-1.17H95.55z"/>
	<path class="st1" d="M103.41,29.77c-0.06,0.01-0.11,0.02-0.12,0.02h-0.15c-0.22,0-0.39-0.04-0.5-0.13s-0.2-0.21-0.27-0.37
		c-0.16,0.15-0.37,0.28-0.62,0.39c-0.26,0.11-0.55,0.17-0.9,0.17c-0.27,0-0.49-0.04-0.66-0.11c-0.18-0.07-0.32-0.17-0.43-0.29
		s-0.19-0.26-0.23-0.43c-0.04-0.16-0.06-0.34-0.06-0.53c0-0.27,0.05-0.49,0.14-0.66c0.09-0.17,0.22-0.3,0.38-0.41
		c0.17-0.1,0.37-0.18,0.59-0.21c0.23-0.04,0.48-0.06,0.75-0.06c0.18,0,0.34,0,0.48,0.02c0.13,0.01,0.28,0.02,0.46,0.03v-0.23
		c0-0.21-0.02-0.4-0.05-0.55c-0.03-0.15-0.09-0.27-0.16-0.36s-0.19-0.16-0.33-0.2c-0.13-0.04-0.31-0.06-0.52-0.06
		c-0.25,0-0.5,0.04-0.75,0.11s-0.45,0.14-0.61,0.22l-0.19-0.51c0.23-0.1,0.48-0.19,0.78-0.27c0.3-0.08,0.62-0.12,0.96-0.12
		c0.3,0,0.56,0.03,0.77,0.09c0.2,0.06,0.37,0.16,0.49,0.3c0.12,0.14,0.22,0.33,0.27,0.56c0.05,0.23,0.08,0.51,0.08,0.84v1.59
		c0,0.23,0.03,0.38,0.1,0.46c0.06,0.09,0.17,0.12,0.31,0.12V29.77z M101.27,27.71c-0.4,0-0.67,0.06-0.82,0.19
		c-0.16,0.12-0.23,0.32-0.23,0.57c0,0.29,0.06,0.5,0.19,0.62c0.13,0.13,0.35,0.19,0.66,0.19c0.21,0,0.42-0.05,0.63-0.14
		c0.21-0.09,0.4-0.2,0.56-0.33v-1.06c-0.17-0.01-0.33-0.02-0.48-0.03C101.63,27.71,101.46,27.71,101.27,27.71z"/>
	<path class="st1" d="M107.76,25.35v4.61c0,0.36-0.05,0.66-0.14,0.91s-0.23,0.45-0.41,0.6c-0.18,0.15-0.39,0.27-0.64,0.34
		s-0.52,0.11-0.83,0.11c-0.29,0-0.55-0.02-0.77-0.06c-0.23-0.04-0.44-0.09-0.61-0.15l0.2-0.56c0.14,0.05,0.31,0.09,0.51,0.13
		c0.2,0.04,0.42,0.06,0.67,0.06c0.18,0,0.35-0.02,0.51-0.06c0.16-0.04,0.3-0.11,0.42-0.21c0.12-0.1,0.21-0.23,0.27-0.4
		c0.07-0.16,0.1-0.37,0.1-0.62v-0.53c-0.19,0.1-0.38,0.18-0.57,0.25c-0.2,0.07-0.41,0.1-0.66,0.1c-0.66,0-1.12-0.19-1.41-0.57
		c-0.3-0.39-0.44-0.94-0.44-1.65c0-0.35,0.03-0.66,0.11-0.96c0.07-0.29,0.2-0.54,0.36-0.75c0.17-0.21,0.39-0.38,0.66-0.49
		c0.27-0.12,0.59-0.18,0.98-0.18c0.23,0,0.43,0.03,0.6,0.08s0.33,0.11,0.48,0.18l0.05-0.16H107.76z M107.04,26.04
		c-0.12-0.05-0.27-0.11-0.41-0.16c-0.15-0.05-0.3-0.08-0.48-0.08c-0.5,0-0.87,0.14-1.1,0.43c-0.23,0.29-0.34,0.75-0.34,1.39
		c0,0.21,0.02,0.41,0.05,0.61s0.1,0.38,0.2,0.54c0.09,0.16,0.23,0.28,0.39,0.37c0.16,0.09,0.38,0.14,0.64,0.14
		c0.2,0,0.38-0.03,0.55-0.09c0.16-0.06,0.33-0.15,0.49-0.25V26.04z"/>
	<path class="st1" d="M110.77,29.85c-0.38,0-0.7-0.05-0.96-0.14c-0.26-0.09-0.47-0.24-0.62-0.43c-0.16-0.2-0.27-0.43-0.34-0.73
		s-0.1-0.64-0.1-1.03c0-0.77,0.16-1.35,0.5-1.72c0.33-0.37,0.84-0.56,1.52-0.56c0.36,0,0.66,0.05,0.89,0.16s0.41,0.26,0.54,0.45
		c0.13,0.19,0.23,0.42,0.27,0.68s0.07,0.55,0.07,0.85v0.35h-3.04c0,0.25,0.02,0.46,0.05,0.63c0.09,0.35,0.24,0.59,0.45,0.71
		c0.22,0.13,0.51,0.2,0.88,0.2c0.31,0,0.59-0.04,0.82-0.12c0.24-0.08,0.43-0.16,0.57-0.23l0.19,0.5c-0.07,0.05-0.16,0.11-0.29,0.16
		s-0.27,0.1-0.41,0.14c-0.16,0.04-0.32,0.08-0.49,0.1C111.1,29.84,110.94,29.85,110.77,29.85z M111.77,27.19
		c0-0.52-0.09-0.89-0.27-1.09c-0.18-0.2-0.43-0.31-0.74-0.31c-0.37,0-0.64,0.08-0.84,0.24c-0.19,0.16-0.31,0.41-0.38,0.74
		c-0.02,0.07-0.02,0.13-0.03,0.2s-0.02,0.14-0.02,0.22H111.77z"/>
	<path class="st1" d="M116.43,25.35l0.03,0.39c0.19-0.12,0.38-0.23,0.59-0.32c0.32-0.12,0.64-0.18,0.96-0.18
		c0.3,0,0.53,0.04,0.72,0.11s0.34,0.18,0.45,0.32c0.1,0.14,0.18,0.32,0.22,0.52c0.05,0.21,0.06,0.45,0.06,0.71v2.83h-0.73v-2.67
		c0-0.19-0.01-0.36-0.03-0.51c-0.02-0.16-0.05-0.29-0.12-0.39c-0.06-0.11-0.16-0.19-0.27-0.25s-0.27-0.09-0.48-0.09
		c-0.16,0-0.33,0.02-0.48,0.07s-0.3,0.11-0.45,0.18c-0.12,0.05-0.23,0.12-0.34,0.2v3.46h-0.73v-3.23l-0.08-1.17H116.43z"/>
	<path class="st1" d="M122.42,29.85c-0.38,0-0.71-0.05-0.97-0.14c-0.26-0.09-0.47-0.24-0.62-0.43c-0.16-0.2-0.27-0.43-0.34-0.73
		s-0.11-0.64-0.11-1.03c0-0.77,0.16-1.35,0.5-1.72s0.84-0.56,1.52-0.56c0.37,0,0.66,0.05,0.89,0.16c0.23,0.11,0.41,0.26,0.55,0.45
		c0.13,0.19,0.22,0.42,0.27,0.68s0.08,0.55,0.08,0.85v0.35h-3.05c0,0.25,0.02,0.46,0.05,0.63c0.09,0.35,0.24,0.59,0.46,0.71
		c0.21,0.13,0.51,0.2,0.88,0.2c0.31,0,0.59-0.04,0.83-0.12c0.23-0.08,0.42-0.16,0.56-0.23l0.2,0.5c-0.07,0.05-0.17,0.11-0.3,0.16
		s-0.26,0.1-0.41,0.14c-0.16,0.04-0.31,0.08-0.48,0.1C122.74,29.84,122.58,29.85,122.42,29.85z M123.41,27.19
		c0-0.52-0.09-0.89-0.27-1.09c-0.18-0.2-0.43-0.31-0.74-0.31c-0.36,0-0.64,0.08-0.83,0.24s-0.32,0.41-0.39,0.74
		c-0.01,0.07-0.02,0.13-0.03,0.2c0,0.07-0.01,0.14-0.02,0.22H123.41z"/>
	<path class="st1" d="M126.13,25.93v2.17c0,0.19,0.01,0.36,0.02,0.5s0.05,0.27,0.11,0.36c0.06,0.1,0.14,0.17,0.26,0.22
		c0.11,0.05,0.27,0.08,0.45,0.08c0.27,0,0.54-0.05,0.8-0.14l0.13,0.51c-0.18,0.08-0.37,0.13-0.56,0.17c-0.2,0.04-0.4,0.06-0.59,0.06
		c-0.28,0-0.51-0.04-0.69-0.11c-0.18-0.08-0.31-0.18-0.41-0.32c-0.09-0.13-0.16-0.29-0.2-0.48c-0.04-0.19-0.05-0.39-0.05-0.6v-2.4
		h-0.75v-0.52l0.75-0.08v-0.92l0.72-0.12v1.04h1.66v0.58H126.13z"/>
	<path class="st1" d="M131.96,25.35l0.89,3.84h0.09l1.01-3.84h0.73l-1.26,4.4h-1.06l-0.9-3.84h-0.09l-0.89,3.84h-1.08l-1.22-4.4
		h0.75l0.99,3.84h0.08l0.88-3.84H131.96z"/>
	<path class="st1" d="M137.11,29.85c-0.38,0-0.7-0.05-0.95-0.16c-0.25-0.11-0.45-0.26-0.6-0.46c-0.15-0.2-0.25-0.45-0.31-0.73
		s-0.09-0.61-0.09-0.98c0-0.77,0.17-1.35,0.51-1.72c0.34-0.38,0.89-0.56,1.64-0.56c0.38,0,0.69,0.05,0.94,0.16
		c0.26,0.11,0.45,0.26,0.61,0.46c0.15,0.2,0.26,0.45,0.32,0.73s0.09,0.61,0.09,0.98c0,0.77-0.17,1.34-0.52,1.71
		C138.38,29.67,137.84,29.85,137.11,29.85z M137.11,29.28c0.53,0,0.91-0.15,1.11-0.45c0.2-0.3,0.3-0.75,0.3-1.35
		c0-0.23-0.02-0.45-0.05-0.65c-0.03-0.2-0.09-0.38-0.18-0.54c-0.09-0.16-0.22-0.28-0.38-0.37s-0.35-0.14-0.6-0.14
		c-0.53,0-0.91,0.16-1.11,0.47c-0.2,0.31-0.3,0.76-0.3,1.35c0,0.24,0.02,0.46,0.05,0.66c0.03,0.2,0.09,0.38,0.19,0.53
		c0.09,0.15,0.21,0.27,0.37,0.36S136.86,29.28,137.11,29.28z"/>
	<path class="st1" d="M140.82,25.35l0.08,0.61c0.18-0.21,0.38-0.38,0.59-0.48c0.29-0.15,0.59-0.23,0.88-0.23
		c0.24,0,0.44,0.04,0.59,0.12l-0.2,0.61c-0.13-0.06-0.3-0.09-0.52-0.09c-0.27,0-0.52,0.08-0.76,0.24c-0.09,0.06-0.17,0.12-0.25,0.2
		c-0.08,0.07-0.16,0.16-0.24,0.25v3.18h-0.73v-3.2l-0.1-1.2H140.82z"/>
	<path class="st1" d="M143.52,29.75v-6.54l0.72-0.11v3.96h0.44l1.7-1.72h0.84l-1.95,2.01l2.03,2.39h-0.86l-1.77-2.1h-0.43v2.1
		H143.52z"/>
	<path class="st1" d="M148.6,29.75h-0.83v-0.8h0.83V29.75z"/>
</g>
</svg>
