<?xml version="1.0" encoding="utf-8"?>
<!-- Generator: Adobe Illustrator 23.0.0, SVG Export Plug-In . SVG Version: 6.00 Build 0)  -->
<svg version="1.1" id="Layer_1" xmlns="http://www.w3.org/2000/svg" xmlns:xlink="http://www.w3.org/1999/xlink" x="0px" y="0px"
	 viewBox="0 0 182.66 52.5" style="enable-background:new 0 0 182.66 52.5;" xml:space="preserve">
<style type="text/css">
	.st0{fill:#A7A9AC;stroke:#808285;stroke-width:0.8;stroke-miterlimit:10;}
	.st1{fill:#464A4C;}
</style>
<path class="st0" d="M163.17,50.79H20.06c-9.5,0-17.28-7.78-17.28-17.28V19.07c0-9.5,7.78-17.28,17.28-17.28h143.11
	c9.5,0,17.28,7.78,17.28,17.28v14.44C180.45,43.01,172.67,50.79,163.17,50.79z"/>
<g>
	<path class="st1" d="M15.12,23.63c-0.62,0-1.08-0.2-1.37-0.58c-0.3-0.39-0.44-0.94-0.44-1.66c0-0.34,0.04-0.66,0.11-0.95
		c0.08-0.29,0.2-0.54,0.38-0.75c0.16-0.21,0.38-0.37,0.65-0.49s0.59-0.18,0.97-0.18c0.22,0,0.42,0.03,0.61,0.08
		c0.12,0.03,0.25,0.08,0.37,0.14v-2.26l0.72-0.11v5.52l0.08,1.12h-0.63l-0.09-0.31c-0.17,0.13-0.36,0.23-0.55,0.29
		C15.69,23.58,15.43,23.63,15.12,23.63z M15.48,19.58c-0.46,0-0.81,0.14-1.05,0.42s-0.36,0.75-0.36,1.39c0,0.23,0.02,0.44,0.05,0.64
		c0.04,0.2,0.1,0.37,0.2,0.53c0.09,0.15,0.23,0.27,0.38,0.36c0.16,0.09,0.38,0.14,0.62,0.14c0.26,0,0.49-0.05,0.69-0.16
		c0.06-0.03,0.12-0.07,0.19-0.11s0.12-0.09,0.19-0.14v-2.79C16.12,19.67,15.81,19.58,15.48,19.58z"/>
	<path class="st1" d="M20.15,23.63c-0.38,0-0.7-0.05-0.96-0.14c-0.26-0.09-0.47-0.24-0.62-0.43c-0.16-0.2-0.27-0.43-0.34-0.73
		s-0.1-0.64-0.1-1.03c0-0.77,0.16-1.35,0.5-1.72c0.33-0.37,0.84-0.56,1.52-0.56c0.37,0,0.66,0.05,0.89,0.16
		c0.23,0.11,0.41,0.26,0.55,0.45c0.12,0.19,0.22,0.42,0.27,0.68s0.07,0.55,0.07,0.85v0.35h-3.04c0,0.25,0.02,0.46,0.05,0.63
		c0.09,0.35,0.24,0.59,0.46,0.71c0.21,0.13,0.5,0.2,0.88,0.2c0.31,0,0.59-0.04,0.83-0.12c0.23-0.08,0.42-0.16,0.56-0.23l0.2,0.5
		c-0.07,0.05-0.17,0.11-0.3,0.16s-0.27,0.1-0.41,0.14c-0.16,0.04-0.32,0.08-0.48,0.1C20.47,23.62,20.31,23.63,20.15,23.63z
		 M21.15,20.97c0-0.52-0.09-0.89-0.27-1.09c-0.18-0.2-0.43-0.31-0.74-0.31c-0.37,0-0.64,0.08-0.83,0.24s-0.32,0.41-0.39,0.74
		c-0.02,0.07-0.02,0.13-0.03,0.2s-0.01,0.14-0.02,0.22H21.15z"/>
	<path class="st1" d="M24.04,23.55c-0.01,0.01-0.03,0.01-0.09,0.01c-0.02,0-0.07,0.01-0.17,0.01c-0.34,0-0.59-0.1-0.71-0.29
		s-0.2-0.48-0.2-0.87v-5.43l0.73-0.11v5.52c0,0.27,0.03,0.43,0.09,0.5S23.87,23,24.04,23V23.55z"/>
	<path class="st1" d="M24.87,17.31h0.74v0.77h-0.74V17.31z M24.88,19.12h0.73v4.4h-0.73V19.12z"/>
	<path class="st1" d="M28.36,22.96l1.27-3.84h0.75l-1.58,4.4h-1.02l-1.54-4.4h0.79l1.24,3.84H28.36z"/>
	<path class="st1" d="M32.69,23.63c-0.38,0-0.7-0.05-0.96-0.14c-0.26-0.09-0.47-0.24-0.62-0.43c-0.16-0.2-0.27-0.43-0.34-0.73
		s-0.1-0.64-0.1-1.03c0-0.77,0.16-1.35,0.5-1.72c0.33-0.37,0.84-0.56,1.52-0.56c0.37,0,0.66,0.05,0.89,0.16
		c0.23,0.11,0.41,0.26,0.55,0.45c0.12,0.19,0.22,0.42,0.27,0.68s0.07,0.55,0.07,0.85v0.35h-3.04c0,0.25,0.02,0.46,0.05,0.63
		c0.09,0.35,0.24,0.59,0.46,0.71c0.21,0.13,0.5,0.2,0.88,0.2c0.31,0,0.59-0.04,0.83-0.12c0.23-0.08,0.42-0.16,0.56-0.23l0.2,0.5
		c-0.07,0.05-0.17,0.11-0.3,0.16s-0.27,0.1-0.41,0.14c-0.16,0.04-0.32,0.08-0.48,0.1C33.02,23.62,32.86,23.63,32.69,23.63z
		 M33.69,20.97c0-0.52-0.09-0.89-0.27-1.09c-0.18-0.2-0.43-0.31-0.74-0.31c-0.37,0-0.64,0.08-0.83,0.24s-0.32,0.41-0.39,0.74
		c-0.02,0.07-0.02,0.13-0.03,0.2s-0.01,0.14-0.02,0.22H33.69z"/>
	<path class="st1" d="M36,19.12l0.08,0.61c0.18-0.21,0.38-0.38,0.59-0.48c0.29-0.15,0.59-0.23,0.88-0.23c0.24,0,0.44,0.04,0.59,0.12
		l-0.2,0.61c-0.12-0.06-0.3-0.09-0.51-0.09c-0.27,0-0.52,0.08-0.76,0.24c-0.09,0.06-0.17,0.12-0.25,0.2
		c-0.09,0.07-0.16,0.16-0.25,0.25v3.18h-0.73v-3.2l-0.11-1.2H36z"/>
	<path class="st1" d="M41,17.31h0.74v0.77H41V17.31z M41.01,19.12h0.73v4.4h-0.73V19.12z"/>
	<path class="st1" d="M43.56,19.12l0.03,0.38c0.07-0.05,0.16-0.11,0.24-0.16c0.09-0.05,0.19-0.09,0.29-0.14
		c0.28-0.12,0.58-0.18,0.9-0.18c0.28,0,0.52,0.04,0.7,0.11c0.17,0.07,0.31,0.18,0.41,0.32l0.05,0.08c0.18-0.14,0.38-0.25,0.59-0.33
		c0.31-0.12,0.62-0.18,0.95-0.18c0.28,0,0.51,0.04,0.69,0.11c0.17,0.07,0.31,0.18,0.41,0.32s0.17,0.32,0.21,0.52
		c0.03,0.21,0.05,0.45,0.05,0.71v2.83h-0.72v-2.67c0-0.19-0.01-0.36-0.02-0.51c-0.02-0.16-0.06-0.29-0.12-0.39
		c-0.06-0.11-0.14-0.19-0.25-0.25c-0.1-0.06-0.24-0.09-0.42-0.09c-0.16,0-0.32,0.02-0.47,0.07s-0.29,0.11-0.42,0.18
		c-0.05,0.02-0.11,0.05-0.16,0.09c-0.05,0.03-0.1,0.07-0.16,0.11c0.02,0.09,0.02,0.2,0.03,0.3s0.01,0.22,0.01,0.33v2.83h-0.73v-2.67
		c0-0.19-0.01-0.36-0.02-0.51c-0.02-0.16-0.05-0.29-0.11-0.39c-0.06-0.11-0.14-0.19-0.25-0.25c-0.1-0.06-0.25-0.09-0.43-0.09
		c-0.31,0-0.61,0.08-0.89,0.25c-0.05,0.02-0.09,0.05-0.13,0.08c-0.05,0.03-0.09,0.06-0.13,0.09v3.48h-0.73V20.3l-0.07-1.17H43.56z"
		/>
	<path class="st1" d="M50.85,19.12l0.03,0.38c0.07-0.05,0.16-0.11,0.24-0.16c0.09-0.05,0.19-0.09,0.29-0.14
		c0.28-0.12,0.58-0.18,0.9-0.18c0.28,0,0.52,0.04,0.7,0.11c0.17,0.07,0.31,0.18,0.41,0.32l0.05,0.08c0.18-0.14,0.38-0.25,0.59-0.33
		c0.31-0.12,0.62-0.18,0.95-0.18c0.28,0,0.51,0.04,0.69,0.11c0.17,0.07,0.31,0.18,0.41,0.32s0.17,0.32,0.21,0.52
		c0.03,0.21,0.05,0.45,0.05,0.71v2.83h-0.72v-2.67c0-0.19-0.01-0.36-0.02-0.51c-0.02-0.16-0.06-0.29-0.12-0.39
		c-0.06-0.11-0.14-0.19-0.25-0.25c-0.1-0.06-0.24-0.09-0.42-0.09c-0.16,0-0.32,0.02-0.47,0.07s-0.29,0.11-0.42,0.18
		c-0.05,0.02-0.11,0.05-0.16,0.09c-0.05,0.03-0.1,0.07-0.16,0.11c0.02,0.09,0.02,0.2,0.03,0.3s0.01,0.22,0.01,0.33v2.83h-0.73v-2.67
		c0-0.19-0.01-0.36-0.02-0.51c-0.02-0.16-0.05-0.29-0.11-0.39c-0.06-0.11-0.14-0.19-0.25-0.25c-0.1-0.06-0.25-0.09-0.43-0.09
		c-0.31,0-0.61,0.08-0.89,0.25c-0.05,0.02-0.09,0.05-0.13,0.08c-0.05,0.03-0.09,0.06-0.13,0.09v3.48h-0.73V20.3l-0.07-1.17H50.85z"
		/>
	<path class="st1" d="M59.33,23.63c-0.38,0-0.7-0.05-0.96-0.14c-0.26-0.09-0.47-0.24-0.62-0.43c-0.16-0.2-0.27-0.43-0.34-0.73
		s-0.1-0.64-0.1-1.03c0-0.77,0.16-1.35,0.5-1.72c0.33-0.37,0.84-0.56,1.52-0.56c0.37,0,0.66,0.05,0.89,0.16
		c0.23,0.11,0.41,0.26,0.55,0.45c0.12,0.19,0.22,0.42,0.27,0.68s0.07,0.55,0.07,0.85v0.35h-3.04c0,0.25,0.02,0.46,0.05,0.63
		c0.09,0.35,0.24,0.59,0.46,0.71c0.21,0.13,0.5,0.2,0.88,0.2c0.31,0,0.59-0.04,0.83-0.12c0.23-0.08,0.42-0.16,0.56-0.23l0.2,0.5
		c-0.07,0.05-0.17,0.11-0.3,0.16s-0.27,0.1-0.41,0.14c-0.16,0.04-0.32,0.08-0.48,0.1C59.66,23.62,59.5,23.63,59.33,23.63z
		 M60.33,20.97c0-0.52-0.09-0.89-0.27-1.09c-0.18-0.2-0.43-0.31-0.74-0.31c-0.37,0-0.64,0.08-0.83,0.24s-0.32,0.41-0.39,0.74
		c-0.02,0.07-0.02,0.13-0.03,0.2s-0.01,0.14-0.02,0.22H60.33z"/>
	<path class="st1" d="M62.64,19.12l0.08,0.61c0.18-0.21,0.38-0.38,0.59-0.48c0.29-0.15,0.59-0.23,0.88-0.23
		c0.24,0,0.44,0.04,0.59,0.12l-0.2,0.61c-0.12-0.06-0.3-0.09-0.51-0.09c-0.27,0-0.52,0.08-0.76,0.24c-0.09,0.06-0.17,0.12-0.25,0.2
		c-0.09,0.07-0.16,0.16-0.25,0.25v3.18h-0.73v-3.2l-0.11-1.2H62.64z"/>
	<path class="st1" d="M66.12,20.78c0.15,0.08,0.34,0.15,0.57,0.23s0.46,0.16,0.68,0.25c0.25,0.1,0.45,0.23,0.62,0.39
		c0.16,0.16,0.25,0.4,0.25,0.71c0,0.44-0.16,0.76-0.48,0.96c-0.32,0.2-0.78,0.3-1.38,0.3c-0.28,0-0.56-0.03-0.84-0.08
		s-0.51-0.13-0.7-0.23l0.23-0.55c0.16,0.09,0.34,0.15,0.57,0.2s0.48,0.08,0.75,0.08c0.14,0,0.27-0.01,0.41-0.03
		c0.14-0.02,0.26-0.04,0.36-0.09c0.1-0.04,0.19-0.11,0.25-0.19s0.09-0.2,0.09-0.34c0-0.28-0.18-0.48-0.53-0.61
		c-0.21-0.09-0.42-0.17-0.66-0.25c-0.23-0.07-0.44-0.15-0.62-0.23c-0.23-0.09-0.42-0.21-0.56-0.37c-0.15-0.15-0.23-0.38-0.23-0.67
		c0-0.23,0.05-0.43,0.16-0.6c0.1-0.16,0.24-0.29,0.41-0.39c0.17-0.09,0.37-0.16,0.58-0.21c0.21-0.04,0.42-0.06,0.63-0.06
		c0.33,0,0.62,0.03,0.86,0.08s0.45,0.11,0.61,0.18l-0.23,0.55c-0.17-0.07-0.36-0.13-0.56-0.18c-0.21-0.05-0.44-0.07-0.7-0.07
		c-0.38,0-0.66,0.06-0.81,0.18s-0.23,0.26-0.23,0.42c0,0.14,0.04,0.26,0.12,0.35C65.81,20.62,65.94,20.7,66.12,20.78z"/>
	<path class="st1" d="M69.14,17.31h0.74v0.77h-0.74V17.31z M69.15,19.12h0.73v4.4h-0.73V19.12z"/>
	<path class="st1" d="M72.62,22.96l1.27-3.84h0.75l-1.58,4.4h-1.02l-1.54-4.4h0.79l1.24,3.84H72.62z"/>
	<path class="st1" d="M76.95,23.63c-0.38,0-0.7-0.05-0.96-0.14c-0.26-0.09-0.47-0.24-0.62-0.43c-0.16-0.2-0.27-0.43-0.34-0.73
		s-0.1-0.64-0.1-1.03c0-0.77,0.16-1.35,0.5-1.72c0.33-0.37,0.84-0.56,1.52-0.56c0.37,0,0.66,0.05,0.89,0.16
		c0.23,0.11,0.41,0.26,0.55,0.45c0.12,0.19,0.22,0.42,0.27,0.68s0.07,0.55,0.07,0.85v0.35h-3.04c0,0.25,0.02,0.46,0.05,0.63
		c0.09,0.35,0.24,0.59,0.46,0.71c0.21,0.13,0.5,0.2,0.88,0.2c0.31,0,0.59-0.04,0.83-0.12c0.23-0.08,0.42-0.16,0.56-0.23l0.2,0.5
		c-0.07,0.05-0.17,0.11-0.3,0.16s-0.27,0.1-0.41,0.14c-0.16,0.04-0.32,0.08-0.48,0.1C77.28,23.62,77.12,23.63,76.95,23.63z
		 M77.95,20.97c0-0.52-0.09-0.89-0.27-1.09c-0.18-0.2-0.43-0.31-0.74-0.31c-0.37,0-0.64,0.08-0.83,0.24s-0.32,0.41-0.39,0.74
		c-0.02,0.07-0.02,0.13-0.03,0.2s-0.01,0.14-0.02,0.22H77.95z"/>
	<path class="st1" d="M85.68,23.54c-0.06,0.01-0.1,0.02-0.12,0.02h-0.14c-0.23,0-0.4-0.04-0.51-0.13s-0.2-0.21-0.27-0.37
		c-0.16,0.15-0.37,0.28-0.62,0.39c-0.25,0.11-0.55,0.17-0.9,0.17c-0.27,0-0.49-0.04-0.66-0.11c-0.18-0.07-0.32-0.17-0.43-0.29
		s-0.19-0.26-0.23-0.43c-0.05-0.16-0.07-0.34-0.07-0.53c0-0.27,0.05-0.49,0.14-0.66c0.09-0.17,0.22-0.3,0.39-0.41
		c0.16-0.1,0.36-0.18,0.59-0.21c0.23-0.04,0.48-0.06,0.76-0.06c0.18,0,0.34,0,0.47,0.02c0.13,0.01,0.29,0.02,0.46,0.03v-0.23
		c0-0.21-0.02-0.4-0.05-0.55s-0.09-0.27-0.17-0.36s-0.19-0.16-0.33-0.2c-0.13-0.04-0.31-0.06-0.52-0.06c-0.25,0-0.49,0.04-0.74,0.11
		s-0.46,0.14-0.62,0.22l-0.18-0.51c0.22-0.1,0.48-0.19,0.77-0.27c0.3-0.08,0.62-0.12,0.96-0.12c0.3,0,0.56,0.03,0.77,0.09
		c0.21,0.06,0.38,0.16,0.5,0.3c0.12,0.14,0.21,0.33,0.26,0.56c0.05,0.23,0.08,0.51,0.08,0.84v1.59c0,0.23,0.04,0.38,0.1,0.46
		c0.07,0.09,0.17,0.12,0.31,0.12V23.54z M83.54,21.49c-0.4,0-0.67,0.06-0.82,0.19s-0.23,0.32-0.23,0.57c0,0.29,0.06,0.5,0.2,0.62
		c0.12,0.13,0.34,0.19,0.66,0.19c0.21,0,0.43-0.05,0.64-0.14c0.21-0.09,0.39-0.2,0.55-0.33v-1.06c-0.16-0.01-0.33-0.02-0.48-0.03
		C83.9,21.49,83.72,21.49,83.54,21.49z"/>
	<path class="st1" d="M87.06,19.12l0.03,0.39c0.18-0.12,0.38-0.23,0.59-0.32c0.32-0.12,0.64-0.18,0.96-0.18
		c0.29,0,0.53,0.04,0.72,0.11c0.18,0.07,0.33,0.18,0.44,0.32s0.19,0.32,0.23,0.52s0.06,0.45,0.06,0.71v2.83h-0.73v-2.67
		c0-0.19-0.01-0.36-0.03-0.51c-0.02-0.16-0.06-0.29-0.12-0.39s-0.16-0.19-0.27-0.25s-0.27-0.09-0.48-0.09
		c-0.16,0-0.33,0.02-0.48,0.07s-0.3,0.11-0.45,0.18c-0.12,0.05-0.23,0.12-0.34,0.2v3.46h-0.73V20.3l-0.07-1.17H87.06z"/>
	<path class="st1" d="M92.81,23.63c-0.62,0-1.08-0.2-1.37-0.58c-0.3-0.39-0.44-0.94-0.44-1.66c0-0.34,0.04-0.66,0.11-0.95
		c0.08-0.29,0.2-0.54,0.38-0.75c0.16-0.21,0.38-0.37,0.65-0.49s0.59-0.18,0.97-0.18c0.22,0,0.42,0.03,0.61,0.08
		c0.12,0.03,0.25,0.08,0.37,0.14v-2.26l0.72-0.11v5.52l0.08,1.12h-0.63l-0.09-0.31c-0.17,0.13-0.36,0.23-0.55,0.29
		C93.38,23.58,93.12,23.63,92.81,23.63z M93.17,19.58c-0.46,0-0.81,0.14-1.05,0.42s-0.36,0.75-0.36,1.39c0,0.23,0.02,0.44,0.05,0.64
		c0.04,0.2,0.1,0.37,0.2,0.53c0.09,0.15,0.23,0.27,0.38,0.36c0.16,0.09,0.38,0.14,0.62,0.14c0.26,0,0.49-0.05,0.69-0.16
		c0.06-0.03,0.12-0.07,0.19-0.11s0.12-0.09,0.19-0.14v-2.79C93.8,19.67,93.5,19.58,93.17,19.58z"/>
	<path class="st1" d="M100.15,23.63c-0.38,0-0.7-0.05-0.96-0.14c-0.26-0.09-0.47-0.24-0.62-0.43c-0.16-0.2-0.27-0.43-0.34-0.73
		s-0.1-0.64-0.1-1.03c0-0.77,0.16-1.35,0.5-1.72c0.33-0.37,0.84-0.56,1.52-0.56c0.37,0,0.66,0.05,0.89,0.16
		c0.23,0.11,0.41,0.26,0.55,0.45c0.12,0.19,0.22,0.42,0.27,0.68s0.07,0.55,0.07,0.85v0.35h-3.04c0,0.25,0.02,0.46,0.05,0.63
		c0.09,0.35,0.24,0.59,0.46,0.71c0.21,0.13,0.5,0.2,0.88,0.2c0.31,0,0.59-0.04,0.83-0.12c0.23-0.08,0.42-0.16,0.56-0.23l0.2,0.5
		c-0.07,0.05-0.17,0.11-0.3,0.16s-0.27,0.1-0.41,0.14c-0.16,0.04-0.32,0.08-0.48,0.1C100.48,23.62,100.32,23.63,100.15,23.63z
		 M101.15,20.97c0-0.52-0.09-0.89-0.27-1.09c-0.18-0.2-0.43-0.31-0.74-0.31c-0.37,0-0.64,0.08-0.83,0.24s-0.32,0.41-0.39,0.74
		c-0.02,0.07-0.02,0.13-0.03,0.2s-0.01,0.14-0.02,0.22H101.15z"/>
	<path class="st1" d="M103.49,19.12l0.03,0.39c0.18-0.12,0.38-0.23,0.59-0.32c0.32-0.12,0.64-0.18,0.96-0.18
		c0.29,0,0.53,0.04,0.72,0.11c0.18,0.07,0.33,0.18,0.44,0.32s0.19,0.32,0.23,0.52s0.06,0.45,0.06,0.71v2.83h-0.73v-2.67
		c0-0.19-0.01-0.36-0.03-0.51c-0.02-0.16-0.06-0.29-0.12-0.39s-0.16-0.19-0.27-0.25s-0.27-0.09-0.48-0.09
		c-0.16,0-0.33,0.02-0.48,0.07s-0.3,0.11-0.45,0.18c-0.12,0.05-0.23,0.12-0.34,0.2v3.46h-0.73V20.3l-0.07-1.17H103.49z"/>
	<path class="st1" d="M111.25,19.12v4.61c0,0.36-0.05,0.66-0.15,0.91s-0.23,0.45-0.41,0.6c-0.18,0.15-0.39,0.27-0.64,0.34
		s-0.52,0.11-0.83,0.11c-0.28,0-0.55-0.02-0.77-0.06c-0.23-0.04-0.43-0.09-0.6-0.15l0.19-0.56c0.14,0.05,0.31,0.09,0.51,0.13
		c0.2,0.04,0.42,0.06,0.67,0.06c0.18,0,0.35-0.02,0.51-0.06c0.16-0.04,0.3-0.11,0.42-0.21c0.12-0.1,0.21-0.23,0.27-0.4
		c0.07-0.16,0.1-0.37,0.1-0.62v-0.53c-0.18,0.1-0.38,0.18-0.57,0.25c-0.2,0.07-0.41,0.1-0.66,0.1c-0.65,0-1.12-0.19-1.41-0.57
		c-0.29-0.39-0.44-0.94-0.44-1.65c0-0.35,0.04-0.66,0.11-0.96c0.07-0.29,0.2-0.54,0.37-0.75c0.16-0.21,0.39-0.38,0.66-0.49
		s0.59-0.18,0.98-0.18c0.23,0,0.43,0.03,0.6,0.08s0.33,0.11,0.48,0.18l0.05-0.16H111.25z M110.52,19.82
		c-0.12-0.05-0.26-0.11-0.41-0.16c-0.14-0.05-0.3-0.08-0.48-0.08c-0.5,0-0.86,0.14-1.09,0.43c-0.23,0.29-0.35,0.75-0.35,1.39
		c0,0.21,0.02,0.41,0.05,0.61s0.11,0.38,0.2,0.54c0.09,0.16,0.23,0.28,0.39,0.37c0.17,0.09,0.38,0.14,0.65,0.14
		c0.2,0,0.38-0.03,0.54-0.09c0.16-0.06,0.33-0.15,0.49-0.25V19.82z"/>
	<path class="st1" d="M116.13,23.54c-0.06,0.01-0.1,0.02-0.12,0.02h-0.14c-0.23,0-0.4-0.04-0.51-0.13s-0.2-0.21-0.27-0.37
		c-0.16,0.15-0.37,0.28-0.62,0.39c-0.25,0.11-0.55,0.17-0.9,0.17c-0.27,0-0.49-0.04-0.66-0.11c-0.18-0.07-0.32-0.17-0.43-0.29
		s-0.19-0.26-0.23-0.43c-0.05-0.16-0.07-0.34-0.07-0.53c0-0.27,0.05-0.49,0.14-0.66c0.09-0.17,0.22-0.3,0.39-0.41
		c0.16-0.1,0.36-0.18,0.59-0.21c0.23-0.04,0.48-0.06,0.76-0.06c0.18,0,0.34,0,0.47,0.02c0.13,0.01,0.29,0.02,0.46,0.03v-0.23
		c0-0.21-0.02-0.4-0.05-0.55s-0.09-0.27-0.17-0.36s-0.19-0.16-0.33-0.2c-0.13-0.04-0.31-0.06-0.52-0.06c-0.25,0-0.49,0.04-0.74,0.11
		s-0.46,0.14-0.62,0.22l-0.18-0.51c0.22-0.1,0.48-0.19,0.77-0.27c0.3-0.08,0.62-0.12,0.96-0.12c0.3,0,0.56,0.03,0.77,0.09
		c0.21,0.06,0.38,0.16,0.5,0.3c0.12,0.14,0.21,0.33,0.26,0.56c0.05,0.23,0.08,0.51,0.08,0.84v1.59c0,0.23,0.04,0.38,0.1,0.46
		c0.07,0.09,0.17,0.12,0.31,0.12V23.54z M113.99,21.49c-0.4,0-0.67,0.06-0.82,0.19s-0.23,0.32-0.23,0.57c0,0.29,0.06,0.5,0.2,0.62
		c0.12,0.13,0.34,0.19,0.66,0.19c0.21,0,0.43-0.05,0.64-0.14c0.21-0.09,0.39-0.2,0.55-0.33v-1.06c-0.16-0.01-0.33-0.02-0.48-0.03
		C114.35,21.49,114.18,21.49,113.99,21.49z"/>
	<path class="st1" d="M120.48,19.12v4.61c0,0.36-0.05,0.66-0.15,0.91s-0.23,0.45-0.41,0.6c-0.18,0.15-0.39,0.27-0.64,0.34
		s-0.52,0.11-0.83,0.11c-0.28,0-0.55-0.02-0.77-0.06c-0.23-0.04-0.43-0.09-0.6-0.15l0.19-0.56c0.14,0.05,0.31,0.09,0.51,0.13
		c0.2,0.04,0.42,0.06,0.67,0.06c0.18,0,0.35-0.02,0.51-0.06c0.16-0.04,0.3-0.11,0.42-0.21c0.12-0.1,0.21-0.23,0.27-0.4
		c0.07-0.16,0.1-0.37,0.1-0.62v-0.53c-0.18,0.1-0.38,0.18-0.57,0.25c-0.2,0.07-0.41,0.1-0.66,0.1c-0.65,0-1.12-0.19-1.41-0.57
		c-0.29-0.39-0.44-0.94-0.44-1.65c0-0.35,0.04-0.66,0.11-0.96c0.07-0.29,0.2-0.54,0.37-0.75c0.16-0.21,0.39-0.38,0.66-0.49
		s0.59-0.18,0.98-0.18c0.23,0,0.43,0.03,0.6,0.08s0.33,0.11,0.48,0.18l0.05-0.16H120.48z M119.76,19.82
		c-0.12-0.05-0.26-0.11-0.41-0.16c-0.14-0.05-0.3-0.08-0.48-0.08c-0.5,0-0.86,0.14-1.09,0.43c-0.23,0.29-0.35,0.75-0.35,1.39
		c0,0.21,0.02,0.41,0.05,0.61s0.11,0.38,0.2,0.54c0.09,0.16,0.23,0.28,0.39,0.37c0.17,0.09,0.38,0.14,0.65,0.14
		c0.2,0,0.38-0.03,0.54-0.09c0.16-0.06,0.33-0.15,0.49-0.25V19.82z"/>
	<path class="st1" d="M121.68,17.31h0.74v0.77h-0.74V17.31z M121.69,19.12h0.73v4.4h-0.73V19.12z"/>
	<path class="st1" d="M124.24,19.12l0.03,0.39c0.18-0.12,0.38-0.23,0.59-0.32c0.32-0.12,0.64-0.18,0.96-0.18
		c0.29,0,0.53,0.04,0.72,0.11c0.18,0.07,0.33,0.18,0.44,0.32s0.19,0.32,0.23,0.52s0.06,0.45,0.06,0.71v2.83h-0.73v-2.67
		c0-0.19-0.01-0.36-0.03-0.51c-0.02-0.16-0.06-0.29-0.12-0.39s-0.16-0.19-0.27-0.25s-0.27-0.09-0.48-0.09
		c-0.16,0-0.33,0.02-0.48,0.07s-0.3,0.11-0.45,0.18c-0.12,0.05-0.23,0.12-0.34,0.2v3.46h-0.73V20.3l-0.07-1.17H124.24z"/>
	<path class="st1" d="M132,19.12v4.61c0,0.36-0.05,0.66-0.15,0.91s-0.23,0.45-0.41,0.6c-0.18,0.15-0.39,0.27-0.64,0.34
		s-0.52,0.11-0.83,0.11c-0.28,0-0.55-0.02-0.77-0.06c-0.23-0.04-0.43-0.09-0.6-0.15l0.19-0.56c0.14,0.05,0.31,0.09,0.51,0.13
		c0.2,0.04,0.42,0.06,0.67,0.06c0.18,0,0.35-0.02,0.51-0.06c0.16-0.04,0.3-0.11,0.42-0.21c0.12-0.1,0.21-0.23,0.27-0.4
		c0.07-0.16,0.1-0.37,0.1-0.62v-0.53c-0.18,0.1-0.38,0.18-0.57,0.25c-0.2,0.07-0.41,0.1-0.66,0.1c-0.65,0-1.12-0.19-1.41-0.57
		c-0.29-0.39-0.44-0.94-0.44-1.65c0-0.35,0.04-0.66,0.11-0.96c0.07-0.29,0.2-0.54,0.37-0.75c0.16-0.21,0.39-0.38,0.66-0.49
		s0.59-0.18,0.98-0.18c0.23,0,0.43,0.03,0.6,0.08s0.33,0.11,0.48,0.18l0.05-0.16H132z M131.27,19.82c-0.12-0.05-0.26-0.11-0.41-0.16
		c-0.14-0.05-0.3-0.08-0.48-0.08c-0.5,0-0.86,0.14-1.09,0.43c-0.23,0.29-0.35,0.75-0.35,1.39c0,0.21,0.02,0.41,0.05,0.61
		s0.11,0.38,0.2,0.54c0.09,0.16,0.23,0.28,0.39,0.37c0.17,0.09,0.38,0.14,0.65,0.14c0.2,0,0.38-0.03,0.54-0.09
		c0.16-0.06,0.33-0.15,0.49-0.25V19.82z"/>
	<path class="st1" d="M16.83,36.07c-0.14,0.08-0.34,0.16-0.59,0.24c-0.27,0.07-0.55,0.11-0.85,0.11c-0.73,0-1.26-0.2-1.58-0.58
		s-0.48-0.94-0.48-1.66c0-0.79,0.19-1.39,0.55-1.78c0.38-0.39,0.93-0.59,1.66-0.59c0.27,0,0.53,0.05,0.77,0.14s0.44,0.22,0.58,0.38
		l-0.44,0.43c-0.11-0.12-0.24-0.22-0.4-0.29c-0.16-0.07-0.34-0.11-0.52-0.11c-0.48,0-0.85,0.15-1.1,0.44
		c-0.24,0.29-0.37,0.76-0.37,1.4c0,0.24,0.02,0.46,0.07,0.67c0.05,0.2,0.12,0.37,0.23,0.52c0.12,0.14,0.26,0.26,0.44,0.34
		c0.17,0.08,0.39,0.12,0.63,0.12c0.26,0,0.48-0.03,0.68-0.08c0.2-0.05,0.38-0.12,0.55-0.2L16.83,36.07z"/>
	<path class="st1" d="M19.19,36.42c-0.38,0-0.69-0.05-0.94-0.16c-0.25-0.11-0.45-0.26-0.6-0.46c-0.15-0.2-0.26-0.45-0.31-0.73
		c-0.06-0.29-0.09-0.61-0.09-0.98c0-0.77,0.17-1.35,0.51-1.72s0.89-0.56,1.64-0.56c0.38,0,0.69,0.05,0.94,0.16s0.45,0.26,0.6,0.46
		c0.16,0.2,0.26,0.45,0.33,0.73c0.06,0.29,0.09,0.61,0.09,0.98c0,0.77-0.18,1.34-0.53,1.71C20.47,36.24,19.93,36.42,19.19,36.42z
		 M19.19,35.86c0.54,0,0.91-0.15,1.11-0.45s0.3-0.75,0.3-1.35c0-0.23-0.02-0.45-0.05-0.65c-0.03-0.2-0.09-0.38-0.19-0.54
		c-0.09-0.16-0.21-0.28-0.37-0.37s-0.36-0.14-0.6-0.14c-0.54,0-0.91,0.16-1.11,0.47c-0.2,0.31-0.3,0.76-0.3,1.35
		c0,0.24,0.02,0.46,0.05,0.66c0.04,0.2,0.1,0.38,0.19,0.53c0.09,0.15,0.21,0.27,0.38,0.36C18.75,35.82,18.94,35.86,19.19,35.86z"/>
	<path class="st1" d="M22.94,31.92l0.03,0.39c0.18-0.12,0.38-0.23,0.59-0.32c0.32-0.12,0.64-0.18,0.96-0.18
		c0.29,0,0.53,0.04,0.72,0.11c0.18,0.07,0.33,0.18,0.44,0.32s0.19,0.32,0.23,0.52s0.06,0.45,0.06,0.71v2.83h-0.73v-2.67
		c0-0.19-0.01-0.36-0.03-0.51c-0.02-0.16-0.06-0.29-0.12-0.39s-0.16-0.19-0.27-0.25s-0.27-0.09-0.48-0.09
		c-0.16,0-0.33,0.02-0.48,0.07s-0.3,0.11-0.45,0.18c-0.12,0.05-0.23,0.12-0.34,0.2v3.46h-0.73v-3.23l-0.07-1.17H22.94z"/>
	<path class="st1" d="M28.1,32.5v2.17c0,0.19,0.01,0.36,0.02,0.5s0.05,0.27,0.11,0.36c0.05,0.1,0.14,0.17,0.26,0.22
		c0.11,0.05,0.26,0.08,0.45,0.08c0.27,0,0.53-0.05,0.8-0.14l0.13,0.51c-0.18,0.08-0.37,0.13-0.56,0.17c-0.2,0.04-0.4,0.06-0.59,0.06
		c-0.28,0-0.52-0.04-0.69-0.11c-0.18-0.08-0.31-0.18-0.41-0.32c-0.1-0.13-0.16-0.29-0.2-0.48c-0.03-0.19-0.05-0.39-0.05-0.6v-2.4
		h-0.75V32l0.75-0.08V31l0.72-0.12v1.04h1.66v0.58H28.1z"/>
	<path class="st1" d="M32.37,36.42c-0.38,0-0.7-0.05-0.96-0.14c-0.26-0.09-0.47-0.24-0.62-0.43c-0.16-0.2-0.27-0.43-0.34-0.73
		s-0.1-0.64-0.1-1.03c0-0.77,0.16-1.35,0.5-1.72c0.33-0.37,0.84-0.56,1.52-0.56c0.37,0,0.66,0.05,0.89,0.16
		c0.23,0.11,0.41,0.26,0.55,0.45c0.12,0.19,0.22,0.42,0.27,0.68s0.07,0.55,0.07,0.85v0.35h-3.04c0,0.25,0.02,0.46,0.05,0.63
		c0.09,0.35,0.24,0.59,0.46,0.71c0.21,0.13,0.5,0.2,0.88,0.2c0.31,0,0.59-0.04,0.83-0.12c0.23-0.08,0.42-0.16,0.56-0.23l0.2,0.5
		c-0.07,0.05-0.17,0.11-0.3,0.16s-0.27,0.1-0.41,0.14c-0.16,0.04-0.32,0.08-0.48,0.1C32.69,36.41,32.53,36.42,32.37,36.42z
		 M33.37,33.76c0-0.52-0.09-0.89-0.27-1.09c-0.18-0.2-0.43-0.31-0.74-0.31c-0.37,0-0.64,0.08-0.83,0.24s-0.32,0.41-0.39,0.74
		c-0.02,0.07-0.02,0.13-0.03,0.2s-0.01,0.14-0.02,0.22H33.37z"/>
	<path class="st1" d="M35.7,31.92l0.03,0.39c0.18-0.12,0.38-0.23,0.59-0.32c0.32-0.12,0.64-0.18,0.96-0.18
		c0.29,0,0.53,0.04,0.72,0.11c0.18,0.07,0.33,0.18,0.44,0.32s0.19,0.32,0.23,0.52s0.06,0.45,0.06,0.71v2.83h-0.73v-2.67
		c0-0.19-0.01-0.36-0.03-0.51c-0.02-0.16-0.06-0.29-0.12-0.39s-0.16-0.19-0.27-0.25s-0.27-0.09-0.48-0.09
		c-0.16,0-0.33,0.02-0.48,0.07s-0.3,0.11-0.45,0.18c-0.12,0.05-0.23,0.12-0.34,0.2v3.46h-0.73v-3.23l-0.07-1.17H35.7z"/>
	<path class="st1" d="M40.87,32.5v2.17c0,0.19,0.01,0.36,0.02,0.5s0.05,0.27,0.11,0.36c0.05,0.1,0.14,0.17,0.26,0.22
		c0.11,0.05,0.26,0.08,0.45,0.08c0.27,0,0.53-0.05,0.8-0.14l0.13,0.51c-0.18,0.08-0.37,0.13-0.56,0.17c-0.2,0.04-0.4,0.06-0.59,0.06
		c-0.28,0-0.52-0.04-0.69-0.11c-0.18-0.08-0.31-0.18-0.41-0.32c-0.1-0.13-0.16-0.29-0.2-0.48c-0.03-0.19-0.05-0.39-0.05-0.6v-2.4
		H39.4V32l0.75-0.08V31l0.72-0.12v1.04h1.66v0.58H40.87z"/>
</g>
</svg>
