<?xml version="1.0" encoding="utf-8"?>
<!-- Generator: Adobe Illustrator 23.0.0, SVG Export Plug-In . SVG Version: 6.00 Build 0)  -->
<svg version="1.1" id="Layer_1" xmlns="http://www.w3.org/2000/svg" xmlns:xlink="http://www.w3.org/1999/xlink" x="0px" y="0px"
	 viewBox="0 0 182.66 52.5" style="enable-background:new 0 0 182.66 52.5;" xml:space="preserve">
<style type="text/css">
	.st0{fill:#F1F2F2;stroke:#808285;stroke-width:0.8;stroke-miterlimit:10;}
	.st1{fill:#464A4C;}
</style>
<path class="st0" d="M161.86,51.17H18.75c-9.5,0-17.28-7.78-17.28-17.28V19.45c0-9.5,7.78-17.28,17.28-17.28h143.11
	c9.5,0,17.28,7.78,17.28,17.28v14.44C179.14,43.4,171.36,51.17,161.86,51.17z"/>
<g>
	<path class="st1" d="M19.39,25.75v2.17c0,0.19,0.01,0.36,0.02,0.5s0.05,0.27,0.11,0.36c0.05,0.1,0.14,0.17,0.25,0.22
		c0.12,0.05,0.27,0.08,0.46,0.08c0.27,0,0.53-0.05,0.8-0.14l0.13,0.51c-0.18,0.08-0.37,0.13-0.57,0.17
		c-0.2,0.04-0.39,0.06-0.59,0.06c-0.28,0-0.51-0.04-0.68-0.11c-0.18-0.08-0.31-0.18-0.41-0.32c-0.09-0.13-0.16-0.29-0.2-0.48
		c-0.03-0.19-0.05-0.39-0.05-0.6v-2.4h-0.75v-0.52l0.75-0.08v-0.92l0.73-0.12v1.04h1.66v0.58H19.39z"/>
	<path class="st1" d="M22.48,25.17l0.08,0.61c0.18-0.21,0.38-0.38,0.59-0.48c0.29-0.15,0.59-0.23,0.88-0.23
		c0.24,0,0.44,0.04,0.59,0.12l-0.2,0.61c-0.13-0.06-0.3-0.09-0.52-0.09c-0.27,0-0.52,0.08-0.76,0.24c-0.09,0.06-0.17,0.12-0.25,0.2
		c-0.08,0.07-0.16,0.16-0.24,0.25v3.18h-0.73v-3.2l-0.1-1.2H22.48z"/>
	<path class="st1" d="M28.7,29.59c-0.06,0.01-0.11,0.02-0.12,0.02h-0.15c-0.22,0-0.39-0.04-0.5-0.13s-0.2-0.21-0.27-0.37
		c-0.16,0.15-0.37,0.28-0.62,0.39c-0.26,0.11-0.55,0.17-0.9,0.17c-0.27,0-0.49-0.04-0.66-0.11c-0.18-0.07-0.32-0.17-0.43-0.29
		s-0.19-0.26-0.23-0.43c-0.04-0.16-0.06-0.34-0.06-0.53c0-0.27,0.05-0.49,0.14-0.66c0.09-0.17,0.22-0.3,0.38-0.41
		c0.17-0.1,0.37-0.18,0.59-0.21c0.23-0.04,0.48-0.06,0.75-0.06c0.18,0,0.34,0,0.48,0.02c0.13,0.01,0.28,0.02,0.46,0.03V26.8
		c0-0.21-0.02-0.4-0.05-0.55c-0.03-0.15-0.09-0.27-0.16-0.36s-0.19-0.16-0.33-0.2c-0.13-0.04-0.31-0.06-0.52-0.06
		c-0.25,0-0.5,0.04-0.75,0.11s-0.45,0.14-0.61,0.22l-0.19-0.51c0.23-0.1,0.48-0.19,0.78-0.27c0.3-0.08,0.62-0.12,0.96-0.12
		c0.3,0,0.56,0.03,0.77,0.09c0.2,0.06,0.37,0.16,0.49,0.3c0.12,0.14,0.22,0.33,0.27,0.56c0.05,0.23,0.08,0.51,0.08,0.84v1.59
		c0,0.23,0.03,0.38,0.1,0.46c0.06,0.09,0.17,0.12,0.31,0.12V29.59z M26.56,27.53c-0.4,0-0.67,0.06-0.82,0.19
		c-0.16,0.12-0.23,0.32-0.23,0.57c0,0.29,0.06,0.5,0.19,0.62c0.13,0.13,0.35,0.19,0.66,0.19c0.21,0,0.42-0.05,0.63-0.14
		c0.21-0.09,0.4-0.2,0.56-0.33v-1.06c-0.17-0.01-0.33-0.02-0.48-0.03C26.91,27.54,26.74,27.53,26.56,27.53z"/>
	<path class="st1" d="M30.08,25.17l0.02,0.39c0.19-0.12,0.38-0.23,0.59-0.32c0.32-0.12,0.64-0.18,0.96-0.18
		c0.3,0,0.54,0.04,0.72,0.11c0.19,0.07,0.34,0.18,0.45,0.32s0.19,0.32,0.23,0.52s0.06,0.45,0.06,0.71v2.83h-0.73V26.9
		c0-0.19-0.01-0.36-0.02-0.51c-0.02-0.16-0.06-0.29-0.12-0.39s-0.16-0.19-0.27-0.25c-0.12-0.06-0.28-0.09-0.48-0.09
		c-0.16,0-0.33,0.02-0.48,0.07s-0.31,0.11-0.45,0.18c-0.12,0.05-0.23,0.12-0.34,0.2v3.46h-0.73v-3.23l-0.08-1.17H30.08z"/>
	<path class="st1" d="M35.26,26.82c0.15,0.08,0.34,0.15,0.57,0.23s0.46,0.16,0.68,0.25c0.25,0.1,0.45,0.23,0.62,0.39
		c0.16,0.16,0.24,0.4,0.24,0.71c0,0.44-0.16,0.76-0.48,0.96c-0.31,0.2-0.77,0.3-1.38,0.3c-0.29,0-0.57-0.03-0.84-0.08
		c-0.27-0.05-0.51-0.13-0.7-0.23l0.23-0.55c0.16,0.09,0.34,0.15,0.57,0.2s0.48,0.08,0.74,0.08c0.14,0,0.28-0.01,0.42-0.03
		c0.13-0.02,0.26-0.04,0.36-0.09c0.1-0.04,0.19-0.11,0.25-0.19s0.09-0.2,0.09-0.34c0-0.28-0.18-0.48-0.54-0.61
		c-0.2-0.09-0.42-0.17-0.65-0.25c-0.23-0.07-0.44-0.15-0.62-0.23c-0.23-0.09-0.42-0.21-0.57-0.37c-0.14-0.15-0.22-0.38-0.22-0.67
		c0-0.23,0.05-0.43,0.16-0.6c0.11-0.16,0.25-0.29,0.41-0.39c0.17-0.09,0.36-0.16,0.57-0.21c0.21-0.04,0.42-0.06,0.63-0.06
		c0.34,0,0.62,0.03,0.87,0.08s0.45,0.11,0.6,0.18l-0.23,0.55c-0.17-0.07-0.36-0.13-0.57-0.18c-0.2-0.05-0.43-0.07-0.69-0.07
		c-0.38,0-0.66,0.06-0.81,0.18s-0.23,0.26-0.23,0.42c0,0.14,0.04,0.26,0.12,0.35C34.95,26.66,35.08,26.74,35.26,26.82z"/>
	<path class="st1" d="M40.88,25.17v0.58h-1.61v3.82h-0.73v-3.82H37.9v-0.58h0.64v-0.55c0-0.32,0.04-0.6,0.12-0.82
		c0.08-0.21,0.19-0.39,0.33-0.52c0.14-0.13,0.3-0.23,0.5-0.28s0.41-0.08,0.66-0.08c0.16,0,0.32,0.02,0.48,0.05
		c0.16,0.03,0.3,0.07,0.44,0.11l-0.16,0.57c-0.21-0.09-0.45-0.12-0.73-0.12c-0.34,0-0.56,0.09-0.7,0.26c-0.13,0.18-0.2,0.48-0.2,0.9
		v0.49H40.88z"/>
	<path class="st1" d="M43.13,29.67c-0.38,0-0.7-0.05-0.95-0.16c-0.25-0.11-0.45-0.26-0.6-0.46c-0.15-0.2-0.25-0.45-0.31-0.73
		s-0.09-0.61-0.09-0.98c0-0.77,0.17-1.35,0.51-1.72c0.34-0.38,0.89-0.56,1.64-0.56c0.38,0,0.69,0.05,0.94,0.16
		c0.26,0.11,0.45,0.26,0.61,0.46c0.15,0.2,0.26,0.45,0.32,0.73s0.09,0.61,0.09,0.98c0,0.77-0.17,1.34-0.52,1.71
		C44.41,29.49,43.87,29.67,43.13,29.67z M43.13,29.11c0.53,0,0.91-0.15,1.11-0.45c0.2-0.3,0.3-0.75,0.3-1.35
		c0-0.23-0.02-0.45-0.05-0.65c-0.03-0.2-0.09-0.38-0.18-0.54c-0.09-0.16-0.22-0.28-0.38-0.37s-0.35-0.14-0.6-0.14
		c-0.53,0-0.91,0.16-1.11,0.47c-0.2,0.31-0.3,0.76-0.3,1.35c0,0.24,0.02,0.46,0.05,0.66c0.03,0.2,0.09,0.38,0.19,0.53
		c0.09,0.15,0.21,0.27,0.37,0.36S42.88,29.11,43.13,29.11z"/>
	<path class="st1" d="M46.85,25.17l0.08,0.61c0.18-0.21,0.38-0.38,0.59-0.48c0.29-0.15,0.59-0.23,0.88-0.23
		c0.24,0,0.44,0.04,0.59,0.12l-0.2,0.61c-0.13-0.06-0.3-0.09-0.52-0.09c-0.27,0-0.52,0.08-0.76,0.24c-0.09,0.06-0.17,0.12-0.25,0.2
		c-0.08,0.07-0.16,0.16-0.24,0.25v3.18h-0.73v-3.2l-0.1-1.2H46.85z"/>
	<path class="st1" d="M50.14,25.17l0.03,0.38c0.08-0.05,0.16-0.11,0.25-0.16c0.09-0.05,0.18-0.09,0.29-0.14
		c0.28-0.12,0.58-0.18,0.89-0.18c0.29,0,0.52,0.04,0.7,0.11c0.17,0.07,0.31,0.18,0.41,0.32l0.06,0.08c0.17-0.14,0.38-0.25,0.59-0.33
		c0.3-0.12,0.62-0.18,0.94-0.18c0.28,0,0.51,0.04,0.69,0.11s0.31,0.18,0.41,0.32c0.11,0.14,0.17,0.32,0.21,0.52
		c0.03,0.21,0.05,0.45,0.05,0.71v2.83h-0.73V26.9c0-0.19-0.01-0.36-0.02-0.51c-0.02-0.16-0.06-0.29-0.12-0.39s-0.14-0.19-0.24-0.25
		c-0.11-0.06-0.25-0.09-0.43-0.09c-0.16,0-0.31,0.02-0.47,0.07c-0.15,0.04-0.29,0.11-0.42,0.18c-0.05,0.02-0.1,0.05-0.16,0.09
		c-0.05,0.03-0.1,0.07-0.16,0.11c0.02,0.09,0.02,0.2,0.03,0.3s0.01,0.22,0.01,0.33v2.83h-0.73V26.9c0-0.19-0.01-0.36-0.02-0.51
		c-0.02-0.16-0.05-0.29-0.11-0.39c-0.06-0.11-0.14-0.19-0.25-0.25c-0.1-0.06-0.24-0.09-0.42-0.09c-0.31,0-0.62,0.08-0.9,0.25
		c-0.04,0.02-0.09,0.05-0.13,0.08c-0.04,0.03-0.09,0.06-0.13,0.09v3.48h-0.73v-3.23l-0.08-1.17H50.14z"/>
	<path class="st1" d="M56.81,23.36h0.74v0.77h-0.74V23.36z M56.82,25.17h0.73v4.4h-0.73V25.17z"/>
	<path class="st1" d="M59.38,25.17l0.03,0.39c0.19-0.12,0.38-0.23,0.59-0.32c0.32-0.12,0.64-0.18,0.96-0.18
		c0.3,0,0.53,0.04,0.72,0.11s0.34,0.18,0.45,0.32c0.1,0.14,0.18,0.32,0.22,0.52c0.05,0.21,0.06,0.45,0.06,0.71v2.83h-0.73V26.9
		c0-0.19-0.01-0.36-0.03-0.51c-0.02-0.16-0.05-0.29-0.12-0.39c-0.06-0.11-0.16-0.19-0.27-0.25s-0.27-0.09-0.48-0.09
		c-0.16,0-0.33,0.02-0.48,0.07s-0.3,0.11-0.45,0.18c-0.12,0.05-0.23,0.12-0.34,0.2v3.46h-0.73v-3.23l-0.08-1.17H59.38z"/>
	<path class="st1" d="M67.13,25.17v4.61c0,0.36-0.05,0.66-0.15,0.91c-0.09,0.25-0.23,0.45-0.41,0.6c-0.17,0.15-0.39,0.27-0.64,0.34
		s-0.52,0.11-0.82,0.11c-0.29,0-0.55-0.02-0.78-0.06c-0.23-0.04-0.43-0.09-0.6-0.15l0.19-0.56c0.14,0.05,0.31,0.09,0.51,0.13
		c0.2,0.04,0.43,0.06,0.68,0.06c0.17,0,0.34-0.02,0.51-0.06c0.16-0.04,0.3-0.11,0.41-0.21c0.12-0.1,0.21-0.23,0.28-0.4
		c0.06-0.16,0.1-0.37,0.1-0.62v-0.53c-0.19,0.1-0.38,0.18-0.57,0.25c-0.2,0.07-0.42,0.1-0.66,0.1c-0.65,0-1.12-0.19-1.41-0.57
		c-0.29-0.39-0.44-0.94-0.44-1.65c0-0.35,0.04-0.66,0.11-0.96c0.08-0.29,0.2-0.54,0.37-0.75s0.39-0.38,0.66-0.49
		c0.27-0.12,0.59-0.18,0.98-0.18c0.23,0,0.43,0.03,0.59,0.08c0.17,0.05,0.34,0.11,0.48,0.18l0.05-0.16H67.13z M66.42,25.86
		c-0.13-0.05-0.27-0.11-0.41-0.16c-0.14-0.05-0.3-0.08-0.47-0.08c-0.5,0-0.87,0.14-1.1,0.43c-0.23,0.29-0.35,0.75-0.35,1.39
		c0,0.21,0.02,0.41,0.05,0.61s0.11,0.38,0.2,0.54c0.09,0.16,0.23,0.28,0.4,0.37c0.16,0.09,0.38,0.14,0.64,0.14
		c0.2,0,0.38-0.03,0.54-0.09c0.16-0.06,0.33-0.15,0.5-0.25V25.86z"/>
	<path class="st1" d="M71.65,25.75v2.17c0,0.19,0.01,0.36,0.02,0.5s0.05,0.27,0.11,0.36c0.05,0.1,0.14,0.17,0.25,0.22
		c0.12,0.05,0.27,0.08,0.46,0.08c0.27,0,0.53-0.05,0.8-0.14l0.13,0.51c-0.18,0.08-0.37,0.13-0.57,0.17
		c-0.2,0.04-0.39,0.06-0.59,0.06c-0.28,0-0.51-0.04-0.68-0.11c-0.18-0.08-0.31-0.18-0.41-0.32c-0.09-0.13-0.16-0.29-0.2-0.48
		c-0.03-0.19-0.05-0.39-0.05-0.6v-2.4h-0.75v-0.52l0.75-0.08v-0.92l0.73-0.12v1.04h1.66v0.58H71.65z"/>
	<path class="st1" d="M73.67,25.17h0.8l1.27,3.5h0.09l1.17-3.5h0.75l-1.68,4.68c-0.1,0.27-0.2,0.52-0.3,0.75s-0.22,0.43-0.35,0.6
		c-0.14,0.17-0.31,0.3-0.52,0.39c-0.2,0.09-0.46,0.14-0.78,0.14c-0.07,0-0.15,0-0.23-0.01c-0.07-0.01-0.13-0.02-0.18-0.04l0.09-0.56
		l0.15,0.03c0.02,0,0.08,0.01,0.16,0.01c0.23,0,0.42-0.04,0.55-0.12c0.13-0.08,0.23-0.18,0.31-0.3c0.03-0.05,0.08-0.12,0.12-0.21
		s0.09-0.19,0.12-0.29s0.08-0.21,0.12-0.31s0.08-0.21,0.11-0.3L73.67,25.17z"/>
	<path class="st1" d="M78.96,25.17l0.08,0.32c0.19-0.13,0.38-0.23,0.56-0.29c0.26-0.09,0.52-0.14,0.8-0.14
		c0.62,0,1.08,0.2,1.37,0.58c0.3,0.39,0.44,0.94,0.44,1.66c0,0.34-0.04,0.66-0.11,0.96c-0.08,0.29-0.2,0.54-0.38,0.75
		s-0.38,0.37-0.65,0.49c-0.27,0.12-0.59,0.18-0.97,0.18c-0.23,0-0.43-0.03-0.6-0.09c-0.06-0.01-0.12-0.03-0.19-0.05
		c-0.05-0.02-0.12-0.05-0.18-0.08v2.17l-0.73,0.11v-5.44l-0.08-1.12H78.96z M80.04,29.11c0.45,0,0.8-0.14,1.04-0.42
		c0.25-0.28,0.37-0.74,0.37-1.39c0-0.22-0.02-0.44-0.05-0.64c-0.04-0.2-0.11-0.38-0.2-0.53c-0.09-0.15-0.23-0.27-0.38-0.36
		c-0.16-0.09-0.37-0.13-0.62-0.13c-0.26,0-0.48,0.05-0.69,0.16c-0.13,0.07-0.25,0.15-0.37,0.25v2.78
		C79.39,29.02,79.69,29.11,80.04,29.11z"/>
	<path class="st1" d="M83.17,23.36h0.74v0.77h-0.74V23.36z M83.17,25.17h0.73v4.4h-0.73V25.17z"/>
	<path class="st1" d="M88.4,29.32c-0.14,0.08-0.34,0.16-0.6,0.24c-0.26,0.07-0.55,0.11-0.85,0.11c-0.73,0-1.25-0.2-1.57-0.58
		s-0.48-0.94-0.48-1.66c0-0.79,0.19-1.39,0.55-1.78c0.38-0.39,0.93-0.59,1.66-0.59c0.27,0,0.53,0.05,0.78,0.14
		c0.24,0.09,0.43,0.22,0.57,0.38l-0.44,0.43c-0.11-0.12-0.24-0.22-0.4-0.29s-0.34-0.11-0.52-0.11c-0.48,0-0.84,0.15-1.09,0.44
		s-0.38,0.76-0.38,1.4c0,0.24,0.02,0.46,0.07,0.67c0.05,0.2,0.12,0.37,0.24,0.52c0.11,0.14,0.25,0.26,0.43,0.34
		c0.18,0.08,0.39,0.12,0.64,0.12s0.48-0.03,0.67-0.08s0.38-0.12,0.55-0.2L88.4,29.32z"/>
	<path class="st1" d="M92.82,29.59c-0.06,0.01-0.1,0.02-0.12,0.02h-0.14c-0.23,0-0.39-0.04-0.51-0.13c-0.11-0.09-0.2-0.21-0.26-0.37
		c-0.16,0.15-0.37,0.28-0.62,0.39c-0.25,0.11-0.55,0.17-0.9,0.17c-0.27,0-0.48-0.04-0.66-0.11s-0.32-0.17-0.43-0.29
		s-0.18-0.26-0.23-0.43s-0.07-0.34-0.07-0.53c0-0.27,0.05-0.49,0.14-0.66c0.09-0.17,0.23-0.3,0.39-0.41s0.36-0.18,0.59-0.21
		c0.23-0.04,0.48-0.06,0.76-0.06c0.18,0,0.34,0,0.47,0.02c0.13,0.01,0.29,0.02,0.46,0.03V26.8c0-0.21-0.02-0.4-0.05-0.55
		s-0.09-0.27-0.17-0.36c-0.08-0.09-0.19-0.16-0.32-0.2c-0.14-0.04-0.31-0.06-0.52-0.06c-0.25,0-0.5,0.04-0.75,0.11
		s-0.45,0.14-0.62,0.22l-0.18-0.51c0.22-0.1,0.48-0.19,0.77-0.27c0.3-0.08,0.62-0.12,0.96-0.12c0.31,0,0.56,0.03,0.77,0.09
		c0.2,0.06,0.37,0.16,0.49,0.3c0.12,0.14,0.21,0.33,0.27,0.56c0.05,0.23,0.07,0.51,0.07,0.84v1.59c0,0.23,0.04,0.38,0.1,0.46
		c0.07,0.09,0.17,0.12,0.31,0.12V29.59z M90.68,27.53c-0.4,0-0.67,0.06-0.82,0.19s-0.23,0.32-0.23,0.57c0,0.29,0.07,0.5,0.2,0.62
		s0.35,0.19,0.66,0.19c0.21,0,0.42-0.05,0.63-0.14c0.21-0.09,0.4-0.2,0.55-0.33v-1.06c-0.16-0.01-0.33-0.02-0.48-0.03
		C91.04,27.54,90.87,27.53,90.68,27.53z"/>
	<path class="st1" d="M94.76,29.59c0,0.01-0.03,0.01-0.09,0.01c-0.01,0-0.07,0.01-0.17,0.01c-0.34,0-0.58-0.1-0.71-0.29
		c-0.12-0.2-0.19-0.48-0.19-0.87v-5.43l0.72-0.11v5.52c0,0.27,0.03,0.43,0.09,0.5s0.18,0.11,0.34,0.11V29.59z"/>
	<path class="st1" d="M101.5,25.17v4.61c0,0.36-0.05,0.66-0.14,0.91s-0.23,0.45-0.41,0.6c-0.18,0.15-0.39,0.27-0.64,0.34
		s-0.52,0.11-0.83,0.11c-0.29,0-0.55-0.02-0.77-0.06c-0.23-0.04-0.44-0.09-0.61-0.15l0.2-0.56c0.14,0.05,0.31,0.09,0.51,0.13
		c0.2,0.04,0.42,0.06,0.67,0.06c0.18,0,0.35-0.02,0.51-0.06c0.16-0.04,0.3-0.11,0.42-0.21c0.12-0.1,0.21-0.23,0.27-0.4
		c0.07-0.16,0.1-0.37,0.1-0.62v-0.53c-0.19,0.1-0.38,0.18-0.57,0.25c-0.2,0.07-0.41,0.1-0.66,0.1c-0.66,0-1.12-0.19-1.41-0.57
		c-0.3-0.39-0.44-0.94-0.44-1.65c0-0.35,0.03-0.66,0.11-0.96c0.07-0.29,0.2-0.54,0.36-0.75c0.17-0.21,0.39-0.38,0.66-0.49
		c0.27-0.12,0.59-0.18,0.98-0.18c0.23,0,0.43,0.03,0.6,0.08s0.33,0.11,0.48,0.18l0.05-0.16H101.5z M100.78,25.86
		c-0.12-0.05-0.27-0.11-0.41-0.16c-0.15-0.05-0.3-0.08-0.48-0.08c-0.5,0-0.87,0.14-1.1,0.43c-0.23,0.29-0.34,0.75-0.34,1.39
		c0,0.21,0.02,0.41,0.05,0.61s0.1,0.38,0.2,0.54c0.09,0.16,0.23,0.28,0.39,0.37c0.16,0.09,0.38,0.14,0.64,0.14
		c0.2,0,0.38-0.03,0.55-0.09c0.16-0.06,0.33-0.15,0.49-0.25V25.86z"/>
	<path class="st1" d="M102.17,25.17h0.8l1.27,3.5h0.09l1.17-3.5h0.74l-1.68,4.68c-0.1,0.27-0.2,0.52-0.3,0.75
		c-0.1,0.23-0.22,0.43-0.36,0.6c-0.13,0.17-0.3,0.3-0.52,0.39c-0.2,0.09-0.46,0.14-0.77,0.14c-0.08,0-0.16,0-0.23-0.01
		c-0.07-0.01-0.13-0.02-0.19-0.04l0.09-0.56l0.16,0.03c0.02,0,0.07,0.01,0.16,0.01c0.23,0,0.41-0.04,0.55-0.12
		c0.12-0.08,0.23-0.18,0.3-0.3c0.04-0.05,0.08-0.12,0.12-0.21c0.05-0.09,0.09-0.19,0.12-0.29c0.05-0.1,0.09-0.21,0.12-0.31
		s0.07-0.21,0.1-0.3L102.17,25.17z"/>
	<path class="st1" d="M107.52,25.17l0.02,0.38c0.08-0.05,0.16-0.11,0.25-0.16c0.09-0.05,0.19-0.09,0.29-0.14
		c0.28-0.12,0.58-0.18,0.89-0.18c0.29,0,0.52,0.04,0.7,0.11c0.18,0.07,0.31,0.18,0.41,0.32l0.05,0.08c0.18-0.14,0.38-0.25,0.59-0.33
		c0.31-0.12,0.62-0.18,0.95-0.18c0.28,0,0.51,0.04,0.69,0.11c0.17,0.07,0.31,0.18,0.41,0.32s0.17,0.32,0.2,0.52
		c0.04,0.21,0.05,0.45,0.05,0.71v2.83h-0.72V26.9c0-0.19-0.01-0.36-0.03-0.51c-0.02-0.16-0.05-0.29-0.11-0.39
		c-0.06-0.11-0.14-0.19-0.25-0.25c-0.1-0.06-0.25-0.09-0.42-0.09c-0.16,0-0.32,0.02-0.47,0.07s-0.3,0.11-0.43,0.18
		c-0.05,0.02-0.1,0.05-0.15,0.09c-0.05,0.03-0.11,0.07-0.16,0.11c0.02,0.09,0.02,0.2,0.03,0.3c0,0.11,0.01,0.22,0.01,0.33v2.83
		h-0.73V26.9c0-0.19-0.01-0.36-0.02-0.51c-0.02-0.16-0.05-0.29-0.11-0.39c-0.05-0.11-0.14-0.19-0.24-0.25
		c-0.11-0.06-0.25-0.09-0.43-0.09c-0.31,0-0.61,0.08-0.89,0.25c-0.05,0.02-0.09,0.05-0.13,0.08c-0.05,0.03-0.09,0.06-0.13,0.09v3.48
		h-0.73v-3.23l-0.08-1.17H107.52z"/>
	<path class="st1" d="M115.19,26.82c0.15,0.08,0.34,0.15,0.58,0.23c0.23,0.08,0.45,0.16,0.67,0.25c0.25,0.1,0.46,0.23,0.62,0.39
		c0.16,0.16,0.25,0.4,0.25,0.71c0,0.44-0.16,0.76-0.48,0.96c-0.32,0.2-0.77,0.3-1.38,0.3c-0.29,0-0.57-0.03-0.84-0.08
		s-0.5-0.13-0.7-0.23l0.23-0.55c0.15,0.09,0.34,0.15,0.57,0.2s0.47,0.08,0.74,0.08c0.14,0,0.28-0.01,0.41-0.03
		c0.14-0.02,0.26-0.04,0.36-0.09c0.1-0.04,0.19-0.11,0.25-0.19c0.07-0.08,0.1-0.2,0.1-0.34c0-0.28-0.18-0.48-0.54-0.61
		c-0.2-0.09-0.42-0.17-0.66-0.25c-0.23-0.07-0.44-0.15-0.62-0.23c-0.23-0.09-0.41-0.21-0.56-0.37c-0.15-0.15-0.22-0.38-0.22-0.67
		c0-0.23,0.05-0.43,0.16-0.6c0.1-0.16,0.24-0.29,0.41-0.39c0.16-0.09,0.36-0.16,0.57-0.21c0.21-0.04,0.42-0.06,0.63-0.06
		c0.34,0,0.62,0.03,0.87,0.08c0.24,0.05,0.44,0.11,0.6,0.18l-0.23,0.55c-0.17-0.07-0.36-0.13-0.56-0.18
		c-0.2-0.05-0.44-0.07-0.69-0.07c-0.39,0-0.66,0.06-0.81,0.18s-0.23,0.26-0.23,0.42c0,0.14,0.03,0.26,0.11,0.35
		C114.88,26.66,115.02,26.74,115.19,26.82z"/>
	<path class="st1" d="M120.54,23.36h0.74v0.77h-0.74V23.36z M120.55,25.17h0.73v4.4h-0.73V25.17z"/>
	<path class="st1" d="M123.1,25.17l0.03,0.39c0.19-0.12,0.38-0.23,0.59-0.32c0.32-0.12,0.64-0.18,0.96-0.18
		c0.3,0,0.53,0.04,0.72,0.11s0.34,0.18,0.45,0.32c0.1,0.14,0.18,0.32,0.22,0.52c0.05,0.21,0.06,0.45,0.06,0.71v2.83h-0.73V26.9
		c0-0.19-0.01-0.36-0.03-0.51c-0.02-0.16-0.05-0.29-0.12-0.39c-0.06-0.11-0.16-0.19-0.27-0.25s-0.27-0.09-0.48-0.09
		c-0.16,0-0.33,0.02-0.48,0.07s-0.3,0.11-0.45,0.18c-0.12,0.05-0.23,0.12-0.34,0.2v3.46h-0.73v-3.23l-0.08-1.17H123.1z"/>
	<path class="st1" d="M128.27,25.75v2.17c0,0.19,0.01,0.36,0.02,0.5s0.05,0.27,0.11,0.36c0.06,0.1,0.14,0.17,0.26,0.22
		c0.11,0.05,0.27,0.08,0.45,0.08c0.27,0,0.54-0.05,0.8-0.14l0.13,0.51c-0.18,0.08-0.37,0.13-0.56,0.17c-0.2,0.04-0.4,0.06-0.59,0.06
		c-0.28,0-0.51-0.04-0.69-0.11c-0.18-0.08-0.31-0.18-0.41-0.32c-0.09-0.13-0.16-0.29-0.2-0.48c-0.04-0.19-0.05-0.39-0.05-0.6v-2.4
		h-0.75v-0.52l0.75-0.08v-0.92l0.72-0.12v1.04h1.66v0.58H128.27z"/>
	<path class="st1" d="M132.45,29.67c-0.38,0-0.69-0.05-0.94-0.16c-0.25-0.11-0.45-0.26-0.6-0.46c-0.15-0.2-0.26-0.45-0.32-0.73
		c-0.05-0.29-0.09-0.61-0.09-0.98c0-0.77,0.16-1.35,0.51-1.72c0.34-0.38,0.88-0.56,1.64-0.56c0.37,0,0.68,0.05,0.94,0.16
		c0.25,0.11,0.45,0.26,0.6,0.46s0.26,0.45,0.32,0.73s0.1,0.61,0.1,0.98c0,0.77-0.18,1.34-0.53,1.71
		C133.74,29.49,133.19,29.67,132.45,29.67z M132.45,29.11c0.54,0,0.91-0.15,1.11-0.45s0.3-0.75,0.3-1.35c0-0.23-0.02-0.45-0.05-0.65
		c-0.04-0.2-0.1-0.38-0.19-0.54c-0.09-0.16-0.21-0.28-0.37-0.37s-0.36-0.14-0.6-0.14c-0.54,0-0.91,0.16-1.11,0.47
		c-0.2,0.31-0.3,0.76-0.3,1.35c0,0.24,0.02,0.46,0.05,0.66c0.04,0.2,0.1,0.38,0.19,0.53c0.09,0.15,0.21,0.27,0.37,0.36
		S132.21,29.11,132.45,29.11z"/>
</g>
</svg>
