<?xml version="1.0" encoding="utf-8"?>
<!-- Generator: Adobe Illustrator 23.0.0, SVG Export Plug-In . SVG Version: 6.00 Build 0)  -->
<svg version="1.1" id="Layer_1" xmlns="http://www.w3.org/2000/svg" xmlns:xlink="http://www.w3.org/1999/xlink" x="0px" y="0px"
	 viewBox="0 0 182.66 52.5" style="enable-background:new 0 0 182.66 52.5;" xml:space="preserve">
<style type="text/css">
	.st0{fill:#D1D3D4;stroke:#808285;stroke-width:0.8;stroke-miterlimit:10;}
	.st1{fill:#464A4C;}
</style>
<path class="st0" d="M163,50.89H19.9c-9.5,0-17.28-7.78-17.28-17.28V19.17c0-9.5,7.78-17.28,17.28-17.28H163
	c9.5,0,17.28,7.78,17.28,17.28v14.44C180.28,43.11,172.51,50.89,163,50.89z"/>
<g>
	<path class="st1" d="M21.36,29.39c-0.38,0-0.7-0.05-0.96-0.14c-0.26-0.09-0.47-0.24-0.62-0.43c-0.16-0.2-0.27-0.43-0.34-0.73
		s-0.1-0.64-0.1-1.03c0-0.77,0.16-1.35,0.5-1.72c0.33-0.37,0.84-0.56,1.52-0.56c0.36,0,0.66,0.05,0.89,0.16s0.41,0.26,0.54,0.45
		c0.13,0.19,0.23,0.42,0.27,0.68s0.07,0.55,0.07,0.85v0.35h-3.04c0,0.25,0.02,0.46,0.05,0.63c0.09,0.35,0.24,0.59,0.45,0.71
		c0.22,0.13,0.51,0.2,0.88,0.2c0.31,0,0.59-0.04,0.82-0.12c0.24-0.08,0.43-0.16,0.57-0.23l0.19,0.5c-0.07,0.05-0.16,0.11-0.29,0.16
		s-0.27,0.1-0.41,0.14c-0.16,0.04-0.32,0.08-0.49,0.1C21.69,29.38,21.52,29.39,21.36,29.39z M22.36,26.73
		c0-0.52-0.09-0.89-0.27-1.09c-0.18-0.2-0.43-0.31-0.74-0.31c-0.37,0-0.64,0.08-0.84,0.24c-0.19,0.16-0.31,0.41-0.38,0.74
		c-0.02,0.07-0.02,0.13-0.03,0.2s-0.02,0.14-0.02,0.22H22.36z"/>
	<path class="st1" d="M25.53,27.33l-1.19,1.95h-0.78l1.4-2.27l-1.39-2.13h0.83l1.14,1.82h0.14l1.12-1.82h0.79l-1.37,2.13l1.43,2.27
		h-0.81l-1.16-1.95H25.53z"/>
	<path class="st1" d="M31.57,29.03c-0.14,0.08-0.34,0.16-0.6,0.24c-0.26,0.07-0.55,0.11-0.85,0.11c-0.73,0-1.25-0.2-1.57-0.58
		s-0.48-0.94-0.48-1.66c0-0.79,0.19-1.39,0.55-1.78c0.38-0.39,0.93-0.59,1.66-0.59c0.27,0,0.53,0.05,0.78,0.14
		c0.24,0.09,0.43,0.22,0.57,0.38l-0.44,0.43c-0.11-0.12-0.24-0.22-0.4-0.29s-0.34-0.11-0.52-0.11c-0.48,0-0.84,0.15-1.09,0.44
		s-0.38,0.76-0.38,1.4c0,0.24,0.02,0.46,0.07,0.67c0.05,0.2,0.12,0.37,0.24,0.52c0.11,0.14,0.25,0.26,0.43,0.34
		c0.18,0.08,0.39,0.12,0.64,0.12s0.48-0.03,0.67-0.08s0.38-0.12,0.55-0.2L31.57,29.03z"/>
	<path class="st1" d="M32.41,23.07h0.74v0.77h-0.74V23.07z M32.42,24.89h0.73v4.4h-0.73V24.89z"/>
	<path class="st1" d="M35.35,25.46v2.17c0,0.19,0.01,0.36,0.02,0.5s0.05,0.27,0.11,0.36c0.06,0.1,0.14,0.17,0.26,0.22
		c0.11,0.05,0.27,0.08,0.45,0.08c0.27,0,0.54-0.05,0.8-0.14l0.13,0.51c-0.18,0.08-0.37,0.13-0.56,0.17c-0.2,0.04-0.4,0.06-0.59,0.06
		c-0.28,0-0.51-0.04-0.69-0.11c-0.18-0.08-0.31-0.18-0.41-0.32c-0.09-0.13-0.16-0.29-0.2-0.48c-0.04-0.19-0.05-0.39-0.05-0.6v-2.4
		h-0.75v-0.52l0.75-0.08v-0.92l0.72-0.12v1.04h1.66v0.58H35.35z"/>
	<path class="st1" d="M37.86,23.07h0.74v0.77h-0.74V23.07z M37.87,24.89h0.73v4.4h-0.73V24.89z"/>
	<path class="st1" d="M40.42,24.89l0.03,0.39c0.19-0.12,0.38-0.23,0.59-0.32c0.32-0.12,0.64-0.18,0.96-0.18
		c0.3,0,0.53,0.04,0.72,0.11s0.34,0.18,0.45,0.32c0.1,0.14,0.18,0.32,0.22,0.52c0.05,0.21,0.06,0.45,0.06,0.71v2.83h-0.73v-2.67
		c0-0.19-0.01-0.36-0.03-0.51c-0.02-0.16-0.05-0.29-0.12-0.39c-0.06-0.11-0.16-0.19-0.27-0.25s-0.27-0.09-0.48-0.09
		c-0.16,0-0.33,0.02-0.48,0.07s-0.3,0.11-0.45,0.18c-0.12,0.05-0.23,0.12-0.34,0.2v3.46h-0.73v-3.23l-0.08-1.17H40.42z"/>
	<path class="st1" d="M48.18,24.89v4.61c0,0.36-0.05,0.66-0.15,0.91c-0.09,0.25-0.23,0.45-0.41,0.6c-0.17,0.15-0.39,0.27-0.64,0.34
		s-0.52,0.11-0.82,0.11c-0.29,0-0.55-0.02-0.78-0.06c-0.23-0.04-0.43-0.09-0.6-0.15l0.19-0.56c0.14,0.05,0.31,0.09,0.51,0.13
		c0.2,0.04,0.43,0.06,0.68,0.06c0.17,0,0.34-0.02,0.51-0.06c0.16-0.04,0.3-0.11,0.41-0.21c0.12-0.1,0.21-0.23,0.28-0.4
		c0.06-0.16,0.1-0.37,0.1-0.62v-0.53c-0.19,0.1-0.38,0.18-0.57,0.25c-0.2,0.07-0.42,0.1-0.66,0.1c-0.65,0-1.12-0.19-1.41-0.57
		c-0.29-0.39-0.44-0.94-0.44-1.65c0-0.35,0.04-0.66,0.11-0.96c0.08-0.29,0.2-0.54,0.37-0.75s0.39-0.38,0.66-0.49
		c0.27-0.12,0.59-0.18,0.98-0.18c0.23,0,0.43,0.03,0.59,0.08c0.17,0.05,0.34,0.11,0.48,0.18l0.05-0.16H48.18z M47.46,25.58
		c-0.13-0.05-0.27-0.11-0.41-0.16c-0.14-0.05-0.3-0.08-0.47-0.08c-0.5,0-0.87,0.14-1.1,0.43c-0.23,0.29-0.35,0.75-0.35,1.39
		c0,0.21,0.02,0.41,0.05,0.61s0.11,0.38,0.2,0.54c0.09,0.16,0.23,0.28,0.4,0.37c0.16,0.09,0.38,0.14,0.64,0.14
		c0.2,0,0.38-0.03,0.54-0.09c0.16-0.06,0.33-0.15,0.5-0.25V25.58z"/>
	<path class="st1" d="M48.86,30.38c0.16-0.31,0.27-0.62,0.34-0.91c0.07-0.3,0.11-0.62,0.11-0.99h0.71
		c-0.01,0.48-0.07,0.88-0.19,1.22c-0.11,0.33-0.28,0.66-0.49,0.98L48.86,30.38z"/>
	<path class="st1" d="M55,29.39c-0.62,0-1.07-0.2-1.37-0.58c-0.29-0.39-0.44-0.94-0.44-1.66c0-0.34,0.04-0.66,0.12-0.95
		c0.08-0.29,0.2-0.54,0.37-0.75c0.17-0.21,0.39-0.37,0.66-0.49s0.59-0.18,0.97-0.18c0.21,0,0.42,0.03,0.61,0.08
		c0.12,0.03,0.24,0.08,0.37,0.14v-2.26L57,22.64v5.52l0.08,1.12h-0.63l-0.09-0.31C56.19,29.1,56,29.2,55.8,29.26
		C55.58,29.35,55.31,29.39,55,29.39z M55.37,25.34c-0.46,0-0.81,0.14-1.05,0.42s-0.37,0.75-0.37,1.39c0,0.23,0.02,0.44,0.06,0.64
		c0.04,0.2,0.1,0.37,0.2,0.53c0.1,0.15,0.23,0.27,0.39,0.36s0.38,0.14,0.62,0.14c0.27,0,0.5-0.05,0.7-0.16
		c0.06-0.03,0.12-0.07,0.19-0.11s0.12-0.09,0.19-0.14v-2.79C56,25.43,55.69,25.34,55.37,25.34z"/>
	<path class="st1" d="M57.68,24.89h0.8l1.27,3.5h0.09l1.17-3.5h0.74l-1.68,4.68c-0.1,0.27-0.2,0.52-0.3,0.75
		c-0.1,0.23-0.22,0.43-0.36,0.6c-0.13,0.17-0.3,0.3-0.52,0.39c-0.2,0.09-0.46,0.14-0.77,0.14c-0.08,0-0.16,0-0.23-0.01
		c-0.07-0.01-0.13-0.02-0.19-0.04l0.09-0.56l0.16,0.03c0.02,0,0.07,0.01,0.16,0.01c0.23,0,0.41-0.04,0.55-0.12
		c0.12-0.08,0.23-0.18,0.3-0.3c0.04-0.05,0.08-0.12,0.12-0.21c0.05-0.09,0.09-0.19,0.12-0.29c0.05-0.1,0.09-0.21,0.12-0.31
		s0.07-0.21,0.1-0.3L57.68,24.89z"/>
	<path class="st1" d="M63.03,24.89l0.02,0.39c0.19-0.12,0.38-0.23,0.59-0.32c0.32-0.12,0.64-0.18,0.96-0.18
		c0.3,0,0.54,0.04,0.72,0.11c0.19,0.07,0.34,0.18,0.45,0.32s0.19,0.32,0.23,0.52s0.06,0.45,0.06,0.71v2.83h-0.73v-2.67
		c0-0.19-0.01-0.36-0.02-0.51c-0.02-0.16-0.06-0.29-0.12-0.39s-0.16-0.19-0.27-0.25s-0.28-0.09-0.48-0.09
		c-0.16,0-0.33,0.02-0.48,0.07s-0.31,0.11-0.45,0.18c-0.12,0.05-0.23,0.12-0.34,0.2v3.46h-0.73v-3.23l-0.08-1.17H63.03z"/>
	<path class="st1" d="M70.89,29.3c-0.06,0.01-0.11,0.02-0.12,0.02h-0.15c-0.22,0-0.39-0.04-0.5-0.13s-0.2-0.21-0.27-0.37
		c-0.16,0.15-0.37,0.28-0.62,0.39c-0.26,0.11-0.55,0.17-0.9,0.17c-0.27,0-0.49-0.04-0.66-0.11c-0.18-0.07-0.32-0.17-0.43-0.29
		s-0.19-0.26-0.23-0.43c-0.04-0.16-0.06-0.34-0.06-0.53c0-0.27,0.05-0.49,0.14-0.66c0.09-0.17,0.22-0.3,0.38-0.41
		c0.17-0.1,0.37-0.18,0.59-0.21c0.23-0.04,0.48-0.06,0.75-0.06c0.18,0,0.34,0,0.48,0.02c0.13,0.01,0.28,0.02,0.46,0.03v-0.23
		c0-0.21-0.02-0.4-0.05-0.55c-0.03-0.15-0.09-0.27-0.16-0.36s-0.19-0.16-0.33-0.2c-0.13-0.04-0.31-0.06-0.52-0.06
		c-0.25,0-0.5,0.04-0.75,0.11s-0.45,0.14-0.61,0.22l-0.19-0.51c0.23-0.1,0.48-0.19,0.78-0.27c0.3-0.08,0.62-0.12,0.96-0.12
		c0.3,0,0.56,0.03,0.77,0.09c0.2,0.06,0.37,0.16,0.49,0.3c0.12,0.14,0.22,0.33,0.27,0.56c0.05,0.23,0.08,0.51,0.08,0.84v1.59
		c0,0.23,0.03,0.38,0.1,0.46c0.06,0.09,0.17,0.12,0.31,0.12V29.3z M68.75,27.25c-0.4,0-0.67,0.06-0.82,0.19
		c-0.16,0.12-0.23,0.32-0.23,0.57c0,0.29,0.06,0.5,0.19,0.62c0.13,0.13,0.35,0.19,0.66,0.19c0.21,0,0.42-0.05,0.63-0.14
		c0.21-0.09,0.4-0.2,0.56-0.33V27.3c-0.17-0.01-0.33-0.02-0.48-0.03C69.1,27.25,68.94,27.25,68.75,27.25z"/>
	<path class="st1" d="M72.27,24.89l0.02,0.38c0.08-0.05,0.16-0.11,0.25-0.16c0.09-0.05,0.19-0.09,0.29-0.14
		c0.28-0.12,0.58-0.18,0.89-0.18c0.29,0,0.52,0.04,0.7,0.11c0.18,0.07,0.31,0.18,0.41,0.32l0.05,0.08c0.18-0.14,0.38-0.25,0.59-0.33
		c0.31-0.12,0.62-0.18,0.95-0.18c0.28,0,0.51,0.04,0.69,0.11c0.17,0.07,0.31,0.18,0.41,0.32s0.17,0.32,0.2,0.52
		c0.04,0.21,0.05,0.45,0.05,0.71v2.83h-0.72v-2.67c0-0.19-0.01-0.36-0.03-0.51c-0.02-0.16-0.05-0.29-0.11-0.39
		c-0.06-0.11-0.14-0.19-0.25-0.25c-0.1-0.06-0.25-0.09-0.42-0.09c-0.16,0-0.32,0.02-0.47,0.07s-0.3,0.11-0.43,0.18
		c-0.05,0.02-0.1,0.05-0.15,0.09c-0.05,0.03-0.11,0.07-0.16,0.11c0.02,0.09,0.02,0.2,0.03,0.3c0,0.11,0.01,0.22,0.01,0.33v2.83
		h-0.73v-2.67c0-0.19-0.01-0.36-0.02-0.51c-0.02-0.16-0.05-0.29-0.11-0.39c-0.05-0.11-0.14-0.19-0.24-0.25
		c-0.11-0.06-0.25-0.09-0.43-0.09c-0.31,0-0.61,0.08-0.89,0.25c-0.05,0.02-0.09,0.05-0.13,0.08c-0.05,0.03-0.09,0.06-0.13,0.09v3.48
		h-0.73v-3.23l-0.08-1.17H72.27z"/>
	<path class="st1" d="M78.94,23.07h0.74v0.77h-0.74V23.07z M78.95,24.89h0.73v4.4h-0.73V24.89z"/>
	<path class="st1" d="M84.17,29.03c-0.14,0.08-0.34,0.16-0.6,0.24c-0.26,0.07-0.54,0.11-0.84,0.11c-0.73,0-1.26-0.2-1.58-0.58
		s-0.48-0.94-0.48-1.66c0-0.79,0.18-1.39,0.55-1.78c0.37-0.39,0.92-0.59,1.66-0.59c0.27,0,0.53,0.05,0.77,0.14s0.44,0.22,0.58,0.38
		l-0.45,0.43c-0.11-0.12-0.24-0.22-0.4-0.29s-0.33-0.11-0.52-0.11c-0.48,0-0.84,0.15-1.09,0.44s-0.38,0.76-0.38,1.4
		c0,0.24,0.02,0.46,0.08,0.67c0.05,0.2,0.12,0.37,0.23,0.52c0.12,0.14,0.26,0.26,0.44,0.34c0.17,0.08,0.38,0.12,0.63,0.12
		c0.26,0,0.48-0.03,0.68-0.08s0.38-0.12,0.54-0.2L84.17,29.03z"/>
	<path class="st1" d="M89.94,24.89v0.58h-1.61v3.82H87.6v-3.82h-0.64v-0.58h0.64v-0.55c0-0.32,0.04-0.6,0.12-0.82
		c0.08-0.21,0.19-0.39,0.33-0.52c0.14-0.13,0.3-0.23,0.5-0.28s0.41-0.08,0.66-0.08c0.16,0,0.32,0.02,0.48,0.05
		c0.16,0.03,0.3,0.07,0.44,0.11l-0.16,0.57c-0.21-0.09-0.45-0.12-0.73-0.12c-0.34,0-0.56,0.09-0.7,0.26c-0.13,0.18-0.2,0.48-0.2,0.9
		v0.49H89.94z"/>
	<path class="st1" d="M90.46,23.07h0.74v0.77h-0.74V23.07z M90.47,24.89h0.73v4.4h-0.73V24.89z"/>
	<path class="st1" d="M93.4,25.46v2.17c0,0.19,0.01,0.36,0.02,0.5s0.05,0.27,0.11,0.36c0.05,0.1,0.14,0.17,0.25,0.22
		c0.12,0.05,0.27,0.08,0.46,0.08c0.27,0,0.53-0.05,0.8-0.14l0.13,0.51c-0.18,0.08-0.37,0.13-0.57,0.17
		c-0.2,0.04-0.39,0.06-0.59,0.06c-0.28,0-0.51-0.04-0.68-0.11c-0.18-0.08-0.31-0.18-0.41-0.32c-0.09-0.13-0.16-0.29-0.2-0.48
		c-0.03-0.19-0.05-0.39-0.05-0.6v-2.4h-0.75v-0.52l0.75-0.08v-0.92l0.73-0.12v1.04h1.66v0.58H93.4z"/>
	<path class="st1" d="M96.52,24.89l0.03,0.39c0.19-0.12,0.38-0.23,0.59-0.32c0.32-0.12,0.64-0.18,0.96-0.18
		c0.3,0,0.53,0.04,0.72,0.11s0.34,0.18,0.45,0.32c0.1,0.14,0.18,0.32,0.22,0.52c0.05,0.21,0.06,0.45,0.06,0.71v2.83h-0.73v-2.67
		c0-0.19-0.01-0.36-0.03-0.51c-0.02-0.16-0.05-0.29-0.12-0.39c-0.06-0.11-0.16-0.19-0.27-0.25s-0.27-0.09-0.48-0.09
		c-0.16,0-0.33,0.02-0.48,0.07s-0.3,0.11-0.45,0.18c-0.12,0.05-0.23,0.12-0.34,0.2v3.46h-0.73v-3.23l-0.08-1.17H96.52z"/>
	<path class="st1" d="M102.51,29.39c-0.38,0-0.71-0.05-0.97-0.14c-0.26-0.09-0.47-0.24-0.62-0.43c-0.16-0.2-0.27-0.43-0.34-0.73
		s-0.11-0.64-0.11-1.03c0-0.77,0.16-1.35,0.5-1.72s0.84-0.56,1.52-0.56c0.37,0,0.66,0.05,0.89,0.16c0.23,0.11,0.41,0.26,0.55,0.45
		c0.13,0.19,0.22,0.42,0.27,0.68s0.08,0.55,0.08,0.85v0.35h-3.05c0,0.25,0.02,0.46,0.05,0.63c0.09,0.35,0.24,0.59,0.46,0.71
		c0.21,0.13,0.51,0.2,0.88,0.2c0.31,0,0.59-0.04,0.83-0.12c0.23-0.08,0.42-0.16,0.56-0.23l0.2,0.5c-0.07,0.05-0.17,0.11-0.3,0.16
		s-0.26,0.1-0.41,0.14c-0.16,0.04-0.31,0.08-0.48,0.1C102.83,29.38,102.67,29.39,102.51,29.39z M103.51,26.73
		c0-0.52-0.09-0.89-0.27-1.09c-0.18-0.2-0.43-0.31-0.74-0.31c-0.36,0-0.64,0.08-0.83,0.24s-0.32,0.41-0.39,0.74
		c-0.01,0.07-0.02,0.13-0.03,0.2c0,0.07-0.01,0.14-0.02,0.22H103.51z"/>
	<path class="st1" d="M106.23,26.54c0.15,0.08,0.34,0.15,0.58,0.23c0.23,0.08,0.45,0.16,0.67,0.25c0.25,0.1,0.46,0.23,0.62,0.39
		c0.16,0.16,0.25,0.4,0.25,0.71c0,0.44-0.16,0.76-0.48,0.96c-0.32,0.2-0.77,0.3-1.38,0.3c-0.29,0-0.57-0.03-0.84-0.08
		s-0.5-0.13-0.7-0.23l0.23-0.55c0.15,0.09,0.34,0.15,0.57,0.2s0.47,0.08,0.74,0.08c0.14,0,0.28-0.01,0.41-0.03
		c0.14-0.02,0.26-0.04,0.36-0.09c0.1-0.04,0.19-0.11,0.25-0.19c0.07-0.08,0.1-0.2,0.1-0.34c0-0.28-0.18-0.48-0.54-0.61
		c-0.2-0.09-0.42-0.17-0.66-0.25c-0.23-0.07-0.44-0.15-0.62-0.23c-0.23-0.09-0.41-0.21-0.56-0.37c-0.15-0.15-0.22-0.38-0.22-0.67
		c0-0.23,0.05-0.43,0.16-0.6c0.1-0.16,0.24-0.29,0.41-0.39c0.16-0.09,0.36-0.16,0.57-0.21c0.21-0.04,0.42-0.06,0.63-0.06
		c0.34,0,0.62,0.03,0.87,0.08c0.24,0.05,0.44,0.11,0.6,0.18l-0.23,0.55c-0.17-0.07-0.36-0.13-0.56-0.18
		c-0.2-0.05-0.44-0.07-0.69-0.07c-0.39,0-0.66,0.06-0.81,0.18s-0.23,0.26-0.23,0.42c0,0.14,0.03,0.26,0.11,0.35
		C105.93,26.38,106.06,26.46,106.23,26.54z"/>
	<path class="st1" d="M110.26,26.54c0.15,0.08,0.34,0.15,0.58,0.23c0.23,0.08,0.45,0.16,0.67,0.25c0.25,0.1,0.46,0.23,0.62,0.39
		c0.16,0.16,0.25,0.4,0.25,0.71c0,0.44-0.16,0.76-0.48,0.96c-0.32,0.2-0.77,0.3-1.38,0.3c-0.29,0-0.57-0.03-0.84-0.08
		s-0.5-0.13-0.7-0.23l0.23-0.55c0.15,0.09,0.34,0.15,0.57,0.2s0.47,0.08,0.74,0.08c0.14,0,0.28-0.01,0.41-0.03
		c0.14-0.02,0.26-0.04,0.36-0.09c0.1-0.04,0.19-0.11,0.25-0.19c0.07-0.08,0.1-0.2,0.1-0.34c0-0.28-0.18-0.48-0.54-0.61
		c-0.2-0.09-0.42-0.17-0.66-0.25c-0.23-0.07-0.44-0.15-0.62-0.23c-0.23-0.09-0.41-0.21-0.56-0.37c-0.15-0.15-0.22-0.38-0.22-0.67
		c0-0.23,0.05-0.43,0.16-0.6c0.1-0.16,0.24-0.29,0.41-0.39c0.16-0.09,0.36-0.16,0.57-0.21c0.21-0.04,0.42-0.06,0.63-0.06
		c0.34,0,0.62,0.03,0.87,0.08c0.24,0.05,0.44,0.11,0.6,0.18l-0.23,0.55c-0.17-0.07-0.36-0.13-0.56-0.18
		c-0.2-0.05-0.44-0.07-0.69-0.07c-0.39,0-0.66,0.06-0.81,0.18s-0.23,0.26-0.23,0.42c0,0.14,0.03,0.26,0.11,0.35
		C109.96,26.38,110.09,26.46,110.26,26.54z"/>
	<path class="st1" d="M118.9,29.03c-0.14,0.08-0.34,0.16-0.6,0.24c-0.26,0.07-0.54,0.11-0.84,0.11c-0.73,0-1.26-0.2-1.58-0.58
		s-0.48-0.94-0.48-1.66c0-0.79,0.18-1.39,0.55-1.78c0.37-0.39,0.92-0.59,1.66-0.59c0.27,0,0.53,0.05,0.77,0.14s0.44,0.22,0.58,0.38
		l-0.45,0.43c-0.11-0.12-0.24-0.22-0.4-0.29s-0.33-0.11-0.52-0.11c-0.48,0-0.84,0.15-1.09,0.44s-0.38,0.76-0.38,1.4
		c0,0.24,0.02,0.46,0.08,0.67c0.05,0.2,0.12,0.37,0.23,0.52c0.12,0.14,0.26,0.26,0.44,0.34c0.17,0.08,0.38,0.12,0.63,0.12
		c0.26,0,0.48-0.03,0.68-0.08s0.38-0.12,0.54-0.2L118.9,29.03z"/>
	<path class="st1" d="M121.35,29.39c-0.38,0-0.71-0.05-0.97-0.14c-0.26-0.09-0.47-0.24-0.62-0.43c-0.16-0.2-0.27-0.43-0.34-0.73
		s-0.11-0.64-0.11-1.03c0-0.77,0.16-1.35,0.5-1.72s0.84-0.56,1.52-0.56c0.37,0,0.66,0.05,0.89,0.16c0.23,0.11,0.41,0.26,0.55,0.45
		c0.13,0.19,0.22,0.42,0.27,0.68s0.08,0.55,0.08,0.85v0.35h-3.05c0,0.25,0.02,0.46,0.05,0.63c0.09,0.35,0.24,0.59,0.46,0.71
		c0.21,0.13,0.51,0.2,0.88,0.2c0.31,0,0.59-0.04,0.83-0.12c0.23-0.08,0.42-0.16,0.56-0.23l0.2,0.5c-0.07,0.05-0.17,0.11-0.3,0.16
		s-0.26,0.1-0.41,0.14c-0.16,0.04-0.31,0.08-0.48,0.1C121.67,29.38,121.51,29.39,121.35,29.39z M122.34,26.73
		c0-0.52-0.09-0.89-0.27-1.09c-0.18-0.2-0.43-0.31-0.74-0.31c-0.36,0-0.64,0.08-0.83,0.24s-0.32,0.41-0.39,0.74
		c-0.01,0.07-0.02,0.13-0.03,0.2c0,0.07-0.01,0.14-0.02,0.22H122.34z"/>
	<path class="st1" d="M124.68,24.89l0.03,0.39c0.19-0.12,0.38-0.23,0.59-0.32c0.32-0.12,0.64-0.18,0.96-0.18
		c0.3,0,0.53,0.04,0.72,0.11s0.34,0.18,0.45,0.32c0.1,0.14,0.18,0.32,0.22,0.52c0.05,0.21,0.06,0.45,0.06,0.71v2.83h-0.73v-2.67
		c0-0.19-0.01-0.36-0.03-0.51c-0.02-0.16-0.05-0.29-0.12-0.39c-0.06-0.11-0.16-0.19-0.27-0.25s-0.27-0.09-0.48-0.09
		c-0.16,0-0.33,0.02-0.48,0.07s-0.3,0.11-0.45,0.18c-0.12,0.05-0.23,0.12-0.34,0.2v3.46h-0.73v-3.23L124,24.89H124.68z"/>
	<path class="st1" d="M129.84,25.46v2.17c0,0.19,0.01,0.36,0.02,0.5s0.05,0.27,0.11,0.36c0.06,0.1,0.14,0.17,0.26,0.22
		c0.11,0.05,0.27,0.08,0.45,0.08c0.27,0,0.54-0.05,0.8-0.14l0.13,0.51c-0.18,0.08-0.37,0.13-0.56,0.17c-0.2,0.04-0.4,0.06-0.59,0.06
		c-0.28,0-0.51-0.04-0.69-0.11c-0.18-0.08-0.31-0.18-0.41-0.32c-0.09-0.13-0.16-0.29-0.2-0.48c-0.04-0.19-0.05-0.39-0.05-0.6v-2.4
		h-0.75v-0.52l0.75-0.08v-0.92l0.72-0.12v1.04h1.66v0.58H129.84z"/>
	<path class="st1" d="M134.12,29.39c-0.38,0-0.71-0.05-0.97-0.14c-0.26-0.09-0.47-0.24-0.62-0.43c-0.16-0.2-0.27-0.43-0.34-0.73
		s-0.11-0.64-0.11-1.03c0-0.77,0.16-1.35,0.5-1.72s0.84-0.56,1.52-0.56c0.37,0,0.66,0.05,0.89,0.16c0.23,0.11,0.41,0.26,0.55,0.45
		c0.13,0.19,0.22,0.42,0.27,0.68s0.08,0.55,0.08,0.85v0.35h-3.05c0,0.25,0.02,0.46,0.05,0.63c0.09,0.35,0.24,0.59,0.46,0.71
		c0.21,0.13,0.51,0.2,0.88,0.2c0.31,0,0.59-0.04,0.83-0.12c0.23-0.08,0.42-0.16,0.56-0.23l0.2,0.5c-0.07,0.05-0.17,0.11-0.3,0.16
		s-0.26,0.1-0.41,0.14c-0.16,0.04-0.31,0.08-0.48,0.1C134.44,29.38,134.27,29.39,134.12,29.39z M135.11,26.73
		c0-0.52-0.09-0.89-0.27-1.09c-0.18-0.2-0.43-0.31-0.74-0.31c-0.36,0-0.64,0.08-0.83,0.24s-0.32,0.41-0.39,0.74
		c-0.01,0.07-0.02,0.13-0.03,0.2c0,0.07-0.01,0.14-0.02,0.22H135.11z"/>
	<path class="st1" d="M137.41,24.89l0.08,0.61c0.18-0.21,0.38-0.38,0.59-0.48c0.29-0.15,0.59-0.23,0.88-0.23
		c0.24,0,0.44,0.04,0.59,0.12l-0.2,0.61c-0.13-0.06-0.3-0.09-0.52-0.09c-0.27,0-0.52,0.08-0.76,0.24c-0.09,0.06-0.17,0.12-0.25,0.2
		c-0.08,0.07-0.16,0.16-0.24,0.25v3.18h-0.73v-3.2l-0.1-1.2H137.41z"/>
	<path class="st1" d="M140.89,26.54c0.15,0.08,0.34,0.15,0.58,0.23c0.23,0.08,0.45,0.16,0.67,0.25c0.25,0.1,0.46,0.23,0.62,0.39
		c0.16,0.16,0.25,0.4,0.25,0.71c0,0.44-0.16,0.76-0.48,0.96c-0.32,0.2-0.77,0.3-1.38,0.3c-0.29,0-0.57-0.03-0.84-0.08
		s-0.5-0.13-0.7-0.23l0.23-0.55c0.15,0.09,0.34,0.15,0.57,0.2s0.47,0.08,0.74,0.08c0.14,0,0.28-0.01,0.41-0.03
		c0.14-0.02,0.26-0.04,0.36-0.09c0.1-0.04,0.19-0.11,0.25-0.19c0.07-0.08,0.1-0.2,0.1-0.34c0-0.28-0.18-0.48-0.54-0.61
		c-0.2-0.09-0.42-0.17-0.66-0.25c-0.23-0.07-0.44-0.15-0.62-0.23c-0.23-0.09-0.41-0.21-0.56-0.37c-0.15-0.15-0.22-0.38-0.22-0.67
		c0-0.23,0.05-0.43,0.16-0.6c0.1-0.16,0.24-0.29,0.41-0.39c0.16-0.09,0.36-0.16,0.57-0.21c0.21-0.04,0.42-0.06,0.63-0.06
		c0.34,0,0.62,0.03,0.87,0.08c0.24,0.05,0.44,0.11,0.6,0.18l-0.23,0.55c-0.17-0.07-0.36-0.13-0.56-0.18
		c-0.2-0.05-0.44-0.07-0.69-0.07c-0.39,0-0.66,0.06-0.81,0.18s-0.23,0.26-0.23,0.42c0,0.14,0.03,0.26,0.11,0.35
		C140.58,26.38,140.72,26.46,140.89,26.54z"/>
	<path class="st1" d="M144.61,29.28h-0.83v-0.8h0.83V29.28z"/>
</g>
</svg>
