<?xml version="1.0" encoding="utf-8"?>
<!-- Generator: Adobe Illustrator 23.0.0, SVG Export Plug-In . SVG Version: 6.00 Build 0)  -->
<svg version="1.1" id="Layer_1" xmlns="http://www.w3.org/2000/svg" xmlns:xlink="http://www.w3.org/1999/xlink" x="0px" y="0px"
	 viewBox="0 0 182.66 52.5" style="enable-background:new 0 0 182.66 52.5;" xml:space="preserve">
<style type="text/css">
	.st0{fill:#E6E7E8;stroke:#808285;stroke-width:0.8;stroke-miterlimit:10;}
	.st1{fill:#C40452;}
	.st2{fill:#464A4C;}
</style>
<path class="st0" d="M163.21,50.77H20.1c-9.5,0-17.28-7.78-17.28-17.28V19.05c0-9.5,7.78-17.28,17.28-17.28h143.11
	c9.5,0,17.28,7.78,17.28,17.28v14.44C180.49,42.99,172.72,50.77,163.21,50.77z"/>
<g>
	<path class="st1" d="M13.34,14.63c0.18,0.09,0.41,0.16,0.67,0.24c0.27,0.07,0.55,0.11,0.86,0.11c0.23,0,0.45-0.03,0.66-0.09
		c0.21-0.06,0.38-0.14,0.52-0.25c0.15-0.11,0.26-0.23,0.34-0.38c0.09-0.15,0.12-0.32,0.12-0.5c0-0.19-0.05-0.35-0.15-0.48
		s-0.21-0.23-0.33-0.3c-0.22-0.14-0.45-0.25-0.69-0.35c-0.23-0.1-0.48-0.22-0.73-0.36c-0.24-0.13-0.44-0.3-0.59-0.51
		c-0.14-0.21-0.21-0.45-0.21-0.72c0-0.34,0.06-0.64,0.19-0.89c0.13-0.25,0.3-0.45,0.52-0.61s0.48-0.28,0.78-0.35
		c0.3-0.07,0.62-0.11,0.97-0.11c0.35,0,0.66,0.03,0.94,0.09c0.28,0.06,0.53,0.14,0.76,0.24l-0.31,0.59
		c-0.16-0.07-0.37-0.14-0.6-0.21c-0.23-0.06-0.52-0.09-0.84-0.09c-0.48,0-0.87,0.1-1.16,0.3c-0.3,0.2-0.45,0.49-0.45,0.88
		c0,0.2,0.05,0.36,0.15,0.48s0.21,0.22,0.35,0.3c0.2,0.12,0.43,0.23,0.68,0.34c0.25,0.11,0.5,0.23,0.74,0.37
		c0.23,0.13,0.41,0.3,0.55,0.5c0.13,0.21,0.2,0.45,0.2,0.74c0,0.35-0.06,0.64-0.19,0.9c-0.13,0.25-0.3,0.46-0.54,0.62
		c-0.23,0.16-0.48,0.29-0.79,0.36c-0.3,0.08-0.62,0.12-0.97,0.12c-0.35,0-0.67-0.04-0.97-0.11s-0.56-0.16-0.8-0.27L13.34,14.63z"/>
	<path class="st1" d="M17.34,17.06c0.1,0.03,0.2,0.04,0.3,0.04c0.22,0,0.41-0.05,0.55-0.13c0.15-0.09,0.26-0.19,0.34-0.29
		c0.05-0.05,0.1-0.12,0.16-0.21c0.05-0.09,0.12-0.19,0.18-0.29s0.12-0.21,0.18-0.32c0.06-0.11,0.12-0.21,0.16-0.3l-0.8-4.45h0.76
		l0.53,3.83h0.08l1.83-3.83h0.77l-2.57,4.69c-0.16,0.3-0.3,0.57-0.45,0.8c-0.14,0.23-0.3,0.43-0.47,0.59
		c-0.16,0.16-0.35,0.28-0.56,0.36s-0.46,0.12-0.75,0.12c-0.06,0-0.13,0-0.2-0.01c-0.08-0.01-0.15-0.02-0.21-0.04L17.34,17.06z"/>
	<path class="st1" d="M22.41,14.76c0.22,0.09,0.42,0.16,0.62,0.2c0.2,0.04,0.42,0.06,0.68,0.06c0.11,0,0.23-0.01,0.35-0.02
		s0.23-0.05,0.34-0.1s0.19-0.12,0.26-0.22c0.06-0.1,0.1-0.23,0.1-0.39c0-0.22-0.14-0.39-0.41-0.52c-0.14-0.07-0.3-0.14-0.47-0.21
		c-0.17-0.06-0.33-0.13-0.47-0.2c-0.24-0.11-0.42-0.25-0.55-0.39c-0.12-0.15-0.19-0.32-0.19-0.51c0-0.29,0.06-0.52,0.19-0.71
		c0.12-0.19,0.28-0.34,0.48-0.44c0.2-0.11,0.41-0.19,0.64-0.23c0.23-0.05,0.46-0.07,0.69-0.07c0.3,0,0.57,0.03,0.79,0.08
		s0.4,0.11,0.52,0.16l-0.24,0.55c-0.15-0.06-0.32-0.11-0.52-0.15c-0.2-0.04-0.41-0.06-0.65-0.06c-0.37,0-0.65,0.07-0.84,0.21
		s-0.3,0.31-0.3,0.51c0,0.14,0.04,0.25,0.12,0.32c0.09,0.07,0.2,0.14,0.34,0.21c0.06,0.03,0.14,0.06,0.23,0.1s0.17,0.08,0.27,0.11
		c0.09,0.04,0.18,0.08,0.27,0.12s0.16,0.07,0.21,0.09c0.18,0.09,0.34,0.21,0.46,0.36c0.12,0.15,0.19,0.32,0.19,0.53
		c0,0.52-0.18,0.89-0.52,1.12c-0.34,0.23-0.8,0.35-1.39,0.35c-0.29,0-0.55-0.02-0.77-0.07c-0.23-0.05-0.45-0.12-0.67-0.22
		L22.41,14.76z"/>
	<path class="st1" d="M28.91,15.4c-0.17,0.07-0.35,0.12-0.54,0.16c-0.18,0.04-0.38,0.05-0.61,0.05c-0.74,0-1.11-0.34-1.11-1.02
		c0-0.08,0.01-0.16,0.02-0.25c0.02-0.09,0.03-0.17,0.04-0.25l0.52-2.4h-0.73l0.12-0.52l0.73-0.08l0.21-0.92l0.73-0.12l-0.22,1.04
		h1.59l-0.12,0.58h-1.59l-0.45,2.14c-0.02,0.1-0.04,0.21-0.05,0.32c-0.02,0.11-0.03,0.22-0.03,0.32c0,0.17,0.05,0.3,0.13,0.39
		c0.09,0.09,0.27,0.14,0.52,0.14c0.13,0,0.27-0.02,0.4-0.04c0.12-0.03,0.26-0.06,0.39-0.1L28.91,15.4z"/>
	<path class="st1" d="M33.12,15.21c-0.1,0.04-0.21,0.09-0.34,0.14c-0.13,0.05-0.27,0.09-0.42,0.13c-0.16,0.04-0.32,0.07-0.49,0.09
		c-0.17,0.03-0.34,0.04-0.52,0.04c-0.24,0-0.46-0.03-0.66-0.09c-0.2-0.06-0.38-0.16-0.53-0.29c-0.16-0.13-0.27-0.3-0.36-0.51
		c-0.09-0.21-0.12-0.46-0.12-0.75c0-0.4,0.05-0.77,0.16-1.13c0.1-0.36,0.27-0.68,0.48-0.95c0.22-0.27,0.48-0.49,0.8-0.65
		S31.81,11,32.24,11c0.42,0,0.75,0.1,1,0.29c0.24,0.19,0.36,0.46,0.36,0.82c0,0.33-0.09,0.6-0.29,0.8
		c-0.19,0.21-0.44,0.37-0.74,0.49c-0.3,0.12-0.64,0.2-1.02,0.25s-0.74,0.09-1.11,0.11v0.21c0,0.35,0.09,0.62,0.27,0.79
		c0.17,0.18,0.46,0.27,0.87,0.27c0.29,0,0.55-0.04,0.8-0.12c0.24-0.08,0.46-0.16,0.66-0.24L33.12,15.21z M32.14,11.56
		c-0.27,0-0.49,0.05-0.69,0.15s-0.35,0.23-0.48,0.38c-0.13,0.16-0.23,0.34-0.3,0.54c-0.08,0.2-0.12,0.41-0.16,0.61
		c0.27-0.02,0.54-0.05,0.82-0.09c0.27-0.04,0.52-0.1,0.75-0.17c0.23-0.08,0.41-0.18,0.55-0.3c0.14-0.12,0.21-0.27,0.21-0.46
		c0-0.22-0.06-0.38-0.2-0.5C32.51,11.61,32.35,11.56,32.14,11.56z"/>
	<path class="st1" d="M34.03,15.5l0.65-3.04l0.2-1.36h0.62l-0.03,0.55c0.23-0.2,0.49-0.36,0.76-0.48S36.75,11,36.99,11
		c0.31,0,0.54,0.06,0.7,0.19c0.15,0.12,0.25,0.3,0.3,0.52c0.23-0.22,0.49-0.4,0.77-0.52S39.31,11,39.57,11
		c0.38,0,0.64,0.09,0.8,0.28c0.15,0.18,0.23,0.43,0.23,0.75c0,0.19-0.02,0.42-0.08,0.69l-0.59,2.79h-0.75l0.58-2.67
		c0.02-0.12,0.03-0.23,0.05-0.34s0.02-0.2,0.02-0.29c0-0.41-0.16-0.61-0.51-0.61c-0.39,0-0.82,0.24-1.3,0.73
		c-0.01,0.05-0.02,0.12-0.02,0.18c-0.02,0.07-0.03,0.14-0.04,0.21l-0.59,2.79h-0.76l0.57-2.67c0.06-0.26,0.09-0.46,0.09-0.62
		c0-0.41-0.17-0.61-0.52-0.61c-0.38,0-0.8,0.23-1.28,0.69l-0.67,3.21H34.03z"/>
	<path class="st1" d="M45.26,15.61c-0.55,0-0.95-0.14-1.22-0.42s-0.4-0.68-0.4-1.2c0-0.41,0.05-0.79,0.16-1.15s0.27-0.68,0.48-0.95
		c0.21-0.27,0.47-0.49,0.78-0.65S45.74,11,46.15,11c0.55,0,0.95,0.14,1.22,0.43s0.4,0.68,0.4,1.2c0,0.4-0.05,0.79-0.16,1.15
		c-0.11,0.36-0.27,0.68-0.48,0.95s-0.47,0.48-0.78,0.64S45.66,15.61,45.26,15.61z M45.34,15.04c0.27,0,0.51-0.06,0.71-0.19
		c0.21-0.13,0.38-0.3,0.52-0.52s0.25-0.47,0.32-0.76c0.07-0.29,0.1-0.6,0.1-0.92c0-0.15-0.02-0.29-0.05-0.42s-0.08-0.25-0.15-0.35
		c-0.07-0.1-0.17-0.18-0.29-0.23c-0.12-0.06-0.27-0.09-0.45-0.09c-0.27,0-0.52,0.07-0.73,0.2c-0.21,0.13-0.39,0.31-0.53,0.53
		c-0.14,0.22-0.24,0.48-0.31,0.77s-0.11,0.59-0.11,0.91c0,0.16,0.02,0.3,0.05,0.43c0.03,0.13,0.09,0.24,0.16,0.34
		c0.07,0.1,0.17,0.17,0.29,0.23C45.01,15.01,45.16,15.04,45.34,15.04z"/>
	<path class="st1" d="M48.3,15.5l0.65-3.04l0.2-1.36h0.62l-0.03,0.56c0.24-0.2,0.51-0.37,0.78-0.48c0.28-0.12,0.55-0.18,0.82-0.18
		c0.42,0,0.71,0.09,0.88,0.28c0.16,0.18,0.25,0.44,0.25,0.76c0,0.1-0.01,0.21-0.02,0.32c-0.02,0.11-0.04,0.23-0.06,0.36L51.8,15.5
		h-0.75l0.57-2.67c0.05-0.24,0.09-0.44,0.09-0.61c0-0.42-0.2-0.62-0.62-0.62c-0.41,0-0.86,0.23-1.38,0.71l-0.67,3.2H48.3z"/>
	<path class="st1" d="M57.89,15.61c-0.72-0.01-1.27-0.2-1.66-0.59s-0.58-0.97-0.58-1.74c0-0.64,0.08-1.22,0.25-1.74
		c0.16-0.52,0.4-0.96,0.7-1.32c0.31-0.37,0.68-0.64,1.12-0.84s0.92-0.29,1.45-0.29c0.75,0,1.34,0.2,1.77,0.61l-0.46,0.46
		c-0.17-0.15-0.36-0.26-0.57-0.34c-0.21-0.08-0.48-0.12-0.81-0.12c-0.49,0-0.9,0.11-1.24,0.32c-0.34,0.21-0.62,0.49-0.83,0.83
		c-0.22,0.34-0.37,0.71-0.47,1.14c-0.09,0.42-0.14,0.83-0.14,1.24c0,0.55,0.13,0.98,0.39,1.3c0.27,0.32,0.68,0.48,1.24,0.48
		c0.38,0,0.7-0.04,0.97-0.12c0.26-0.07,0.5-0.15,0.71-0.23l0.09,0.6c-0.2,0.09-0.48,0.17-0.8,0.25
		C58.69,15.57,58.31,15.61,57.89,15.61z"/>
	<path class="st1" d="M60.76,15.5l1.39-6.54l0.77-0.11l-0.57,2.7c0.23-0.18,0.47-0.32,0.72-0.41c0.25-0.09,0.5-0.14,0.74-0.14
		c0.42,0,0.71,0.09,0.87,0.28c0.16,0.18,0.25,0.44,0.25,0.76c0,0.1-0.01,0.21-0.02,0.32c-0.02,0.11-0.04,0.23-0.06,0.36l-0.59,2.79
		h-0.75l0.57-2.67c0.03-0.12,0.05-0.23,0.06-0.33c0.02-0.1,0.02-0.2,0.02-0.28c0-0.42-0.2-0.62-0.62-0.62
		c-0.39,0-0.84,0.23-1.38,0.71l-0.67,3.2H60.76z"/>
	<path class="st1" d="M65.5,15.5l0.93-4.4h0.73l-0.92,4.4H65.5z M66.65,10.08l0.16-0.79h0.75l-0.16,0.79H66.65z"/>
	<path class="st1" d="M68.22,12.22l0.17-1.12h0.62l-0.01,0.5c0.22-0.18,0.45-0.33,0.7-0.44c0.24-0.11,0.52-0.16,0.83-0.16
		c0.41,0,0.72,0.13,0.93,0.39c0.2,0.26,0.31,0.59,0.31,1c0,0.43-0.05,0.85-0.16,1.24s-0.25,0.73-0.45,1.02
		c-0.2,0.29-0.45,0.52-0.73,0.69c-0.29,0.17-0.62,0.26-0.99,0.26c-0.42,0-0.8-0.11-1.13-0.31l-0.48,2.29l-0.76,0.09L68.22,12.22z
		 M70.25,11.56c-0.2,0-0.41,0.05-0.62,0.16c-0.21,0.11-0.44,0.26-0.66,0.45l-0.54,2.57c0.15,0.12,0.3,0.2,0.45,0.25
		s0.3,0.07,0.44,0.07c0.3,0,0.55-0.07,0.77-0.22c0.21-0.15,0.39-0.34,0.52-0.58c0.14-0.24,0.24-0.51,0.3-0.82
		c0.06-0.3,0.09-0.61,0.09-0.93c0-0.3-0.05-0.53-0.18-0.69C70.69,11.64,70.51,11.56,70.25,11.56z"/>
	<path class="st1" d="M74.82,14.33c0-0.59,0.06-1.16,0.2-1.68c0.12-0.52,0.31-1.02,0.55-1.5c0.24-0.48,0.55-0.93,0.91-1.36
		s0.77-0.84,1.24-1.24l0.39,0.46c-0.38,0.3-0.74,0.64-1.05,1.03c-0.32,0.39-0.59,0.8-0.82,1.26c-0.23,0.45-0.4,0.93-0.52,1.43
		c-0.12,0.51-0.18,1.03-0.18,1.57c0,0.52,0.07,1,0.22,1.44c0.14,0.44,0.34,0.87,0.62,1.3l-0.52,0.38c-0.31-0.44-0.56-0.91-0.74-1.4
		C74.91,15.52,74.82,14.96,74.82,14.33z"/>
	<path class="st1" d="M77.99,14.63c0.18,0.09,0.41,0.16,0.67,0.24c0.27,0.07,0.55,0.11,0.86,0.11c0.23,0,0.45-0.03,0.66-0.09
		c0.21-0.06,0.38-0.14,0.52-0.25c0.15-0.11,0.26-0.23,0.34-0.38c0.09-0.15,0.12-0.32,0.12-0.5c0-0.19-0.05-0.35-0.15-0.48
		s-0.21-0.23-0.33-0.3c-0.22-0.14-0.45-0.25-0.69-0.35c-0.23-0.1-0.48-0.22-0.73-0.36c-0.24-0.13-0.44-0.3-0.59-0.51
		c-0.14-0.21-0.21-0.45-0.21-0.72c0-0.34,0.06-0.64,0.19-0.89c0.13-0.25,0.3-0.45,0.52-0.61s0.48-0.28,0.78-0.35
		c0.3-0.07,0.62-0.11,0.97-0.11c0.35,0,0.66,0.03,0.94,0.09c0.28,0.06,0.53,0.14,0.76,0.24l-0.31,0.59
		c-0.16-0.07-0.37-0.14-0.6-0.21c-0.23-0.06-0.52-0.09-0.84-0.09c-0.48,0-0.87,0.1-1.16,0.3c-0.3,0.2-0.45,0.49-0.45,0.88
		c0,0.2,0.05,0.36,0.15,0.48s0.21,0.22,0.35,0.3c0.2,0.12,0.43,0.23,0.68,0.34s0.5,0.23,0.74,0.37c0.23,0.13,0.41,0.3,0.55,0.5
		c0.13,0.21,0.2,0.45,0.2,0.74c0,0.35-0.06,0.64-0.19,0.9c-0.13,0.25-0.3,0.46-0.54,0.62c-0.23,0.16-0.48,0.29-0.79,0.36
		c-0.3,0.08-0.62,0.12-0.97,0.12c-0.35,0-0.67-0.04-0.97-0.11s-0.56-0.16-0.8-0.27L77.99,14.63z"/>
	<path class="st1" d="M84.41,15.61c-0.55,0-0.95-0.14-1.22-0.42s-0.4-0.68-0.4-1.2c0-0.41,0.05-0.79,0.16-1.15s0.27-0.68,0.48-0.95
		c0.21-0.27,0.47-0.49,0.78-0.65S84.89,11,85.3,11c0.55,0,0.95,0.14,1.22,0.43s0.4,0.68,0.4,1.2c0,0.4-0.05,0.79-0.16,1.15
		c-0.11,0.36-0.27,0.68-0.48,0.95s-0.47,0.48-0.78,0.64S84.81,15.61,84.41,15.61z M84.49,15.04c0.27,0,0.51-0.06,0.71-0.19
		c0.21-0.13,0.38-0.3,0.52-0.52s0.25-0.47,0.32-0.76c0.07-0.29,0.1-0.6,0.1-0.92c0-0.15-0.02-0.29-0.05-0.42s-0.08-0.25-0.15-0.35
		c-0.07-0.1-0.17-0.18-0.29-0.23c-0.12-0.06-0.27-0.09-0.45-0.09c-0.27,0-0.52,0.07-0.73,0.2c-0.21,0.13-0.39,0.31-0.53,0.53
		c-0.14,0.22-0.24,0.48-0.31,0.77s-0.11,0.59-0.11,0.91c0,0.16,0.02,0.3,0.05,0.43c0.03,0.13,0.09,0.24,0.16,0.34
		c0.07,0.1,0.17,0.17,0.29,0.23C84.16,15.01,84.31,15.04,84.49,15.04z"/>
	<path class="st1" d="M89.98,15.61c-0.72-0.01-1.27-0.2-1.66-0.59s-0.58-0.97-0.58-1.74c0-0.64,0.08-1.22,0.25-1.74
		c0.16-0.52,0.4-0.96,0.7-1.32c0.31-0.37,0.68-0.64,1.12-0.84s0.92-0.29,1.45-0.29c0.75,0,1.34,0.2,1.77,0.61l-0.46,0.46
		c-0.17-0.15-0.36-0.26-0.57-0.34c-0.21-0.08-0.48-0.12-0.81-0.12c-0.49,0-0.9,0.11-1.24,0.32c-0.34,0.21-0.62,0.49-0.83,0.83
		c-0.22,0.34-0.37,0.71-0.47,1.14c-0.09,0.42-0.14,0.83-0.14,1.24c0,0.55,0.13,0.98,0.39,1.3c0.27,0.32,0.68,0.48,1.24,0.48
		c0.38,0,0.7-0.04,0.97-0.12c0.26-0.07,0.5-0.15,0.71-0.23l0.09,0.6c-0.2,0.09-0.48,0.17-0.8,0.25
		C90.78,15.57,90.41,15.61,89.98,15.61z"/>
	<path class="st1" d="M95.58,11.64c0,0.59-0.06,1.16-0.19,1.68s-0.32,1.02-0.57,1.49c-0.25,0.47-0.55,0.92-0.91,1.35
		c-0.36,0.43-0.77,0.84-1.24,1.25l-0.38-0.45c0.38-0.3,0.73-0.65,1.05-1.04c0.32-0.39,0.59-0.81,0.82-1.27
		c0.23-0.46,0.4-0.94,0.52-1.45s0.19-1.04,0.19-1.59c0-0.52-0.07-0.99-0.21-1.42c-0.15-0.43-0.35-0.86-0.62-1.29l0.52-0.36
		c0.15,0.22,0.29,0.45,0.42,0.68s0.24,0.47,0.34,0.72c0.09,0.25,0.16,0.51,0.21,0.79C95.55,11.03,95.58,11.32,95.58,11.64z"/>
	<path class="st2" d="M100.63,15.61c-0.38,0-0.7-0.05-0.96-0.14c-0.26-0.09-0.47-0.24-0.62-0.43c-0.16-0.2-0.27-0.43-0.34-0.73
		s-0.1-0.64-0.1-1.03c0-0.77,0.16-1.35,0.5-1.72c0.33-0.37,0.84-0.56,1.52-0.56c0.37,0,0.66,0.05,0.89,0.16
		c0.23,0.11,0.41,0.26,0.55,0.45c0.12,0.19,0.22,0.42,0.27,0.68s0.07,0.55,0.07,0.85v0.35h-3.04c0,0.25,0.02,0.46,0.05,0.63
		c0.09,0.35,0.24,0.59,0.46,0.71c0.21,0.13,0.5,0.2,0.88,0.2c0.31,0,0.59-0.04,0.83-0.12c0.23-0.08,0.42-0.16,0.56-0.23l0.2,0.5
		c-0.07,0.05-0.17,0.11-0.3,0.16s-0.27,0.1-0.41,0.14c-0.16,0.04-0.32,0.08-0.48,0.1C100.96,15.6,100.8,15.61,100.63,15.61z
		 M101.63,12.95c0-0.52-0.09-0.89-0.27-1.09c-0.18-0.2-0.43-0.31-0.74-0.31c-0.37,0-0.64,0.08-0.83,0.24s-0.32,0.41-0.39,0.74
		c-0.02,0.07-0.02,0.13-0.03,0.2s-0.01,0.14-0.02,0.22H101.63z"/>
	<path class="st2" d="M104.52,15.53c-0.01,0.01-0.03,0.01-0.09,0.01c-0.02,0-0.07,0.01-0.17,0.01c-0.34,0-0.59-0.1-0.71-0.29
		s-0.2-0.48-0.2-0.87V8.96l0.73-0.11v5.52c0,0.27,0.03,0.43,0.09,0.5s0.18,0.11,0.34,0.11V15.53z"/>
	<path class="st2" d="M105.36,9.29h0.74v0.77h-0.74V9.29z M105.37,11.1h0.73v4.4h-0.73V11.1z"/>
	<path class="st2" d="M107.92,11.1l0.03,0.38c0.07-0.05,0.16-0.11,0.24-0.16c0.09-0.05,0.19-0.09,0.29-0.14
		c0.28-0.12,0.58-0.18,0.9-0.18c0.28,0,0.52,0.04,0.7,0.11c0.17,0.07,0.31,0.18,0.41,0.32l0.05,0.08c0.18-0.14,0.38-0.25,0.59-0.33
		c0.31-0.12,0.62-0.18,0.95-0.18c0.28,0,0.51,0.04,0.69,0.11c0.17,0.07,0.31,0.18,0.41,0.32s0.17,0.32,0.21,0.52
		c0.03,0.21,0.05,0.45,0.05,0.71v2.83h-0.72v-2.67c0-0.19-0.01-0.36-0.02-0.51c-0.02-0.16-0.06-0.29-0.12-0.39
		c-0.06-0.11-0.14-0.19-0.25-0.25c-0.1-0.06-0.24-0.09-0.42-0.09c-0.16,0-0.32,0.02-0.47,0.07s-0.29,0.11-0.42,0.18
		c-0.05,0.02-0.11,0.05-0.16,0.09c-0.05,0.03-0.1,0.07-0.16,0.11c0.02,0.09,0.02,0.2,0.03,0.3s0.01,0.22,0.01,0.33v2.83h-0.73v-2.67
		c0-0.19-0.01-0.36-0.02-0.51c-0.02-0.16-0.05-0.29-0.11-0.39c-0.06-0.11-0.14-0.19-0.25-0.25c-0.1-0.06-0.25-0.09-0.43-0.09
		c-0.31,0-0.61,0.08-0.89,0.25c-0.05,0.02-0.09,0.05-0.13,0.08c-0.05,0.03-0.09,0.06-0.13,0.09v3.48h-0.73v-3.23l-0.07-1.17H107.92z
		"/>
	<path class="st2" d="M114.59,9.29h0.74v0.77h-0.74V9.29z M114.6,11.1h0.73v4.4h-0.73V11.1z"/>
	<path class="st2" d="M117.16,11.1l0.03,0.39c0.18-0.12,0.38-0.23,0.59-0.32c0.32-0.12,0.64-0.18,0.96-0.18
		c0.29,0,0.53,0.04,0.72,0.11c0.18,0.07,0.33,0.18,0.44,0.32s0.19,0.32,0.23,0.52s0.06,0.45,0.06,0.71v2.83h-0.73v-2.67
		c0-0.19-0.01-0.36-0.03-0.51c-0.02-0.16-0.06-0.29-0.12-0.39s-0.16-0.19-0.27-0.25s-0.27-0.09-0.48-0.09
		c-0.16,0-0.33,0.02-0.48,0.07s-0.3,0.11-0.45,0.18c-0.12,0.05-0.23,0.12-0.34,0.2v3.46h-0.73v-3.23l-0.07-1.17H117.16z"/>
	<path class="st2" d="M125.01,15.52c-0.06,0.01-0.1,0.02-0.12,0.02h-0.14c-0.23,0-0.4-0.04-0.51-0.13s-0.2-0.21-0.27-0.37
		c-0.16,0.15-0.37,0.28-0.62,0.39c-0.25,0.11-0.55,0.17-0.9,0.17c-0.27,0-0.49-0.04-0.66-0.11c-0.18-0.07-0.32-0.17-0.43-0.29
		s-0.19-0.26-0.23-0.43c-0.05-0.16-0.07-0.34-0.07-0.53c0-0.27,0.05-0.49,0.14-0.66c0.09-0.17,0.22-0.3,0.39-0.41
		c0.16-0.1,0.36-0.18,0.59-0.21c0.23-0.04,0.48-0.06,0.76-0.06c0.18,0,0.34,0,0.47,0.02c0.13,0.01,0.29,0.02,0.46,0.03v-0.23
		c0-0.21-0.02-0.4-0.05-0.55s-0.09-0.27-0.17-0.36s-0.19-0.16-0.33-0.2c-0.13-0.04-0.31-0.06-0.52-0.06c-0.25,0-0.49,0.04-0.74,0.11
		s-0.46,0.14-0.62,0.22l-0.18-0.51c0.22-0.1,0.48-0.19,0.77-0.27c0.3-0.08,0.62-0.12,0.96-0.12c0.3,0,0.56,0.03,0.77,0.09
		c0.21,0.06,0.38,0.16,0.5,0.3c0.12,0.14,0.21,0.33,0.26,0.56c0.05,0.23,0.08,0.51,0.08,0.84v1.59c0,0.23,0.04,0.38,0.1,0.46
		c0.07,0.09,0.17,0.12,0.31,0.12V15.52z M122.87,13.47c-0.4,0-0.67,0.06-0.82,0.19s-0.23,0.32-0.23,0.57c0,0.29,0.06,0.5,0.2,0.62
		c0.12,0.13,0.34,0.19,0.66,0.19c0.21,0,0.43-0.05,0.64-0.14c0.21-0.09,0.39-0.2,0.55-0.33v-1.06c-0.16-0.01-0.33-0.02-0.48-0.03
		C123.23,13.47,123.06,13.47,122.87,13.47z"/>
	<path class="st2" d="M126.77,11.68v2.17c0,0.19,0.01,0.36,0.02,0.5s0.05,0.27,0.11,0.36c0.05,0.1,0.14,0.17,0.26,0.22
		c0.11,0.05,0.26,0.08,0.45,0.08c0.27,0,0.53-0.05,0.8-0.14l0.13,0.51c-0.18,0.08-0.37,0.13-0.56,0.17c-0.2,0.04-0.4,0.06-0.59,0.06
		c-0.28,0-0.52-0.04-0.69-0.11c-0.18-0.08-0.31-0.18-0.41-0.32c-0.1-0.13-0.16-0.29-0.2-0.48c-0.03-0.19-0.05-0.39-0.05-0.6v-2.4
		h-0.75v-0.52l0.75-0.08v-0.92l0.72-0.12v1.04h1.66v0.58H126.77z"/>
	<path class="st2" d="M131.04,15.61c-0.38,0-0.7-0.05-0.96-0.14c-0.26-0.09-0.47-0.24-0.62-0.43c-0.16-0.2-0.27-0.43-0.34-0.73
		s-0.1-0.64-0.1-1.03c0-0.77,0.16-1.35,0.5-1.72c0.33-0.37,0.84-0.56,1.52-0.56c0.37,0,0.66,0.05,0.89,0.16
		c0.23,0.11,0.41,0.26,0.55,0.45c0.12,0.19,0.22,0.42,0.27,0.68s0.07,0.55,0.07,0.85v0.35h-3.04c0,0.25,0.02,0.46,0.05,0.63
		c0.09,0.35,0.24,0.59,0.46,0.71c0.21,0.13,0.5,0.2,0.88,0.2c0.31,0,0.59-0.04,0.83-0.12c0.23-0.08,0.42-0.16,0.56-0.23l0.2,0.5
		c-0.07,0.05-0.17,0.11-0.3,0.16s-0.27,0.1-0.41,0.14c-0.16,0.04-0.32,0.08-0.48,0.1C131.37,15.6,131.2,15.61,131.04,15.61z
		 M132.04,12.95c0-0.52-0.09-0.89-0.27-1.09c-0.18-0.2-0.43-0.31-0.74-0.31c-0.37,0-0.64,0.08-0.83,0.24s-0.32,0.41-0.39,0.74
		c-0.02,0.07-0.02,0.13-0.03,0.2s-0.01,0.14-0.02,0.22H132.04z"/>
	<path class="st2" d="M139,15.5v-2.66c0-0.18-0.01-0.35-0.03-0.5c-0.02-0.16-0.06-0.29-0.12-0.39s-0.16-0.19-0.27-0.24
		c-0.12-0.06-0.27-0.09-0.48-0.09c-0.16,0-0.33,0.02-0.48,0.07c-0.16,0.04-0.3,0.11-0.45,0.18c-0.06,0.04-0.12,0.07-0.18,0.1
		s-0.11,0.07-0.16,0.1v3.44h-0.73V8.96l0.73-0.11v2.57c0.15-0.1,0.31-0.18,0.5-0.25c0.32-0.12,0.64-0.18,0.96-0.18
		c0.29,0,0.53,0.04,0.72,0.11c0.18,0.07,0.33,0.18,0.44,0.32s0.19,0.32,0.23,0.52s0.06,0.45,0.06,0.71v2.83H139z"/>
	<path class="st2" d="M144.55,15.52c-0.06,0.01-0.1,0.02-0.12,0.02h-0.14c-0.23,0-0.4-0.04-0.51-0.13s-0.2-0.21-0.27-0.37
		c-0.16,0.15-0.37,0.28-0.62,0.39c-0.25,0.11-0.55,0.17-0.9,0.17c-0.27,0-0.49-0.04-0.66-0.11c-0.18-0.07-0.32-0.17-0.43-0.29
		s-0.19-0.26-0.23-0.43c-0.05-0.16-0.07-0.34-0.07-0.53c0-0.27,0.05-0.49,0.14-0.66c0.09-0.17,0.22-0.3,0.39-0.41
		c0.16-0.1,0.36-0.18,0.59-0.21c0.23-0.04,0.48-0.06,0.76-0.06c0.18,0,0.34,0,0.47,0.02c0.13,0.01,0.29,0.02,0.46,0.03v-0.23
		c0-0.21-0.02-0.4-0.05-0.55s-0.09-0.27-0.17-0.36s-0.19-0.16-0.33-0.2c-0.13-0.04-0.31-0.06-0.52-0.06c-0.25,0-0.49,0.04-0.74,0.11
		s-0.46,0.14-0.62,0.22l-0.18-0.51c0.22-0.1,0.48-0.19,0.77-0.27c0.3-0.08,0.62-0.12,0.96-0.12c0.3,0,0.56,0.03,0.77,0.09
		c0.21,0.06,0.38,0.16,0.5,0.3c0.12,0.14,0.21,0.33,0.26,0.56c0.05,0.23,0.08,0.51,0.08,0.84v1.59c0,0.23,0.04,0.38,0.1,0.46
		c0.07,0.09,0.17,0.12,0.31,0.12V15.52z M142.41,13.47c-0.4,0-0.67,0.06-0.82,0.19s-0.23,0.32-0.23,0.57c0,0.29,0.06,0.5,0.2,0.62
		c0.12,0.13,0.34,0.19,0.66,0.19c0.21,0,0.43-0.05,0.64-0.14c0.21-0.09,0.39-0.2,0.55-0.33v-1.06c-0.16-0.01-0.33-0.02-0.48-0.03
		C142.77,13.47,142.6,13.47,142.41,13.47z"/>
	<path class="st2" d="M145.91,11.1l0.08,0.61c0.18-0.21,0.38-0.38,0.59-0.48c0.29-0.15,0.59-0.23,0.88-0.23
		c0.24,0,0.44,0.04,0.59,0.12l-0.2,0.61c-0.12-0.06-0.3-0.09-0.51-0.09c-0.27,0-0.52,0.08-0.76,0.24c-0.09,0.06-0.17,0.12-0.25,0.2
		c-0.09,0.07-0.16,0.16-0.25,0.25v3.18h-0.73v-3.2l-0.11-1.2H145.91z"/>
	<path class="st2" d="M149.93,15.61c-0.62,0-1.08-0.2-1.37-0.58c-0.3-0.39-0.44-0.94-0.44-1.66c0-0.34,0.04-0.66,0.11-0.95
		c0.08-0.29,0.2-0.54,0.38-0.75c0.16-0.21,0.38-0.37,0.65-0.49s0.59-0.18,0.97-0.18c0.22,0,0.42,0.03,0.61,0.08
		c0.12,0.03,0.25,0.08,0.37,0.14V8.96l0.72-0.11v5.52L152,15.5h-0.63l-0.09-0.31c-0.17,0.13-0.36,0.23-0.55,0.29
		C150.5,15.57,150.23,15.61,149.93,15.61z M150.29,11.56c-0.46,0-0.81,0.14-1.05,0.42s-0.36,0.75-0.36,1.39
		c0,0.23,0.02,0.44,0.05,0.64c0.04,0.2,0.1,0.37,0.2,0.53c0.09,0.15,0.23,0.27,0.38,0.36c0.16,0.09,0.38,0.14,0.62,0.14
		c0.26,0,0.49-0.05,0.69-0.16c0.06-0.03,0.12-0.07,0.19-0.11s0.12-0.09,0.19-0.14v-2.79C150.92,11.65,150.62,11.56,150.29,11.56z"/>
	<path class="st2" d="M156.42,11.1l0.9,3.84h0.09l1.01-3.84h0.73l-1.26,4.4h-1.06l-0.89-3.84h-0.09l-0.89,3.84h-1.07l-1.22-4.4h0.74
		l0.99,3.84h0.08l0.88-3.84H156.42z"/>
	<path class="st2" d="M163.43,15.52c-0.06,0.01-0.1,0.02-0.12,0.02h-0.14c-0.23,0-0.4-0.04-0.51-0.13s-0.2-0.21-0.27-0.37
		c-0.16,0.15-0.37,0.28-0.62,0.39c-0.25,0.11-0.55,0.17-0.9,0.17c-0.27,0-0.49-0.04-0.66-0.11c-0.18-0.07-0.32-0.17-0.43-0.29
		s-0.19-0.26-0.23-0.43c-0.05-0.16-0.07-0.34-0.07-0.53c0-0.27,0.05-0.49,0.14-0.66c0.09-0.17,0.22-0.3,0.39-0.41
		c0.16-0.1,0.36-0.18,0.59-0.21c0.23-0.04,0.48-0.06,0.76-0.06c0.18,0,0.34,0,0.47,0.02c0.13,0.01,0.29,0.02,0.46,0.03v-0.23
		c0-0.21-0.02-0.4-0.05-0.55s-0.09-0.27-0.17-0.36s-0.19-0.16-0.33-0.2c-0.13-0.04-0.31-0.06-0.52-0.06c-0.25,0-0.49,0.04-0.74,0.11
		s-0.46,0.14-0.62,0.22l-0.18-0.51c0.22-0.1,0.48-0.19,0.77-0.27c0.3-0.08,0.62-0.12,0.96-0.12c0.3,0,0.56,0.03,0.77,0.09
		c0.21,0.06,0.38,0.16,0.5,0.3c0.12,0.14,0.21,0.33,0.26,0.56c0.05,0.23,0.08,0.51,0.08,0.84v1.59c0,0.23,0.04,0.38,0.1,0.46
		c0.07,0.09,0.17,0.12,0.31,0.12V15.52z M161.29,13.47c-0.4,0-0.67,0.06-0.82,0.19s-0.23,0.32-0.23,0.57c0,0.29,0.06,0.5,0.2,0.62
		c0.12,0.13,0.34,0.19,0.66,0.19c0.21,0,0.43-0.05,0.64-0.14c0.21-0.09,0.39-0.2,0.55-0.33v-1.06c-0.16-0.01-0.33-0.02-0.48-0.03
		C161.65,13.47,161.48,13.47,161.29,13.47z"/>
	<path class="st2" d="M164.78,11.1l0.08,0.61c0.18-0.21,0.38-0.38,0.59-0.48c0.29-0.15,0.59-0.23,0.88-0.23
		c0.24,0,0.44,0.04,0.59,0.12l-0.2,0.61c-0.12-0.06-0.3-0.09-0.51-0.09c-0.27,0-0.52,0.08-0.76,0.24c-0.09,0.06-0.17,0.12-0.25,0.2
		c-0.09,0.07-0.16,0.16-0.25,0.25v3.18h-0.73v-3.2l-0.11-1.2H164.78z"/>
	<path class="st2" d="M169.04,15.61c-0.38,0-0.7-0.05-0.96-0.14c-0.26-0.09-0.47-0.24-0.62-0.43c-0.16-0.2-0.27-0.43-0.34-0.73
		s-0.1-0.64-0.1-1.03c0-0.77,0.16-1.35,0.5-1.72c0.33-0.37,0.84-0.56,1.52-0.56c0.37,0,0.66,0.05,0.89,0.16
		c0.23,0.11,0.41,0.26,0.55,0.45c0.12,0.19,0.22,0.42,0.27,0.68s0.07,0.55,0.07,0.85v0.35h-3.04c0,0.25,0.02,0.46,0.05,0.63
		c0.09,0.35,0.24,0.59,0.46,0.71c0.21,0.13,0.5,0.2,0.88,0.2c0.31,0,0.59-0.04,0.83-0.12c0.23-0.08,0.42-0.16,0.56-0.23l0.2,0.5
		c-0.07,0.05-0.17,0.11-0.3,0.16s-0.27,0.1-0.41,0.14c-0.16,0.04-0.32,0.08-0.48,0.1C169.37,15.6,169.2,15.61,169.04,15.61z
		 M170.04,12.95c0-0.52-0.09-0.89-0.27-1.09c-0.18-0.2-0.43-0.31-0.74-0.31c-0.37,0-0.64,0.08-0.83,0.24s-0.32,0.41-0.39,0.74
		c-0.02,0.07-0.02,0.13-0.03,0.2s-0.01,0.14-0.02,0.22H170.04z"/>
	<path class="st2" d="M16.87,24.85c-0.14,0.08-0.34,0.16-0.59,0.24c-0.27,0.07-0.55,0.11-0.85,0.11c-0.73,0-1.26-0.2-1.58-0.58
		s-0.48-0.94-0.48-1.66c0-0.79,0.19-1.39,0.55-1.78c0.38-0.39,0.93-0.59,1.66-0.59c0.27,0,0.53,0.05,0.77,0.14s0.44,0.22,0.58,0.38
		l-0.44,0.43c-0.11-0.12-0.24-0.22-0.4-0.29c-0.16-0.07-0.34-0.11-0.52-0.11c-0.48,0-0.85,0.15-1.1,0.44
		c-0.24,0.29-0.37,0.76-0.37,1.4c0,0.24,0.02,0.46,0.07,0.67c0.05,0.2,0.12,0.37,0.23,0.52c0.12,0.14,0.26,0.26,0.44,0.34
		c0.17,0.08,0.39,0.12,0.63,0.12c0.26,0,0.48-0.03,0.68-0.08c0.2-0.05,0.38-0.12,0.55-0.2L16.87,24.85z"/>
	<path class="st2" d="M19.23,25.21c-0.38,0-0.69-0.05-0.94-0.16c-0.25-0.11-0.45-0.26-0.6-0.46c-0.15-0.2-0.26-0.45-0.31-0.73
		c-0.06-0.29-0.09-0.61-0.09-0.98c0-0.77,0.17-1.35,0.51-1.72s0.89-0.56,1.64-0.56c0.38,0,0.69,0.05,0.94,0.16s0.45,0.26,0.6,0.46
		c0.16,0.2,0.26,0.45,0.33,0.73c0.06,0.29,0.09,0.61,0.09,0.98c0,0.77-0.18,1.34-0.53,1.71C20.51,25.02,19.97,25.21,19.23,25.21z
		 M19.23,24.64c0.54,0,0.91-0.15,1.11-0.45s0.3-0.75,0.3-1.35c0-0.23-0.02-0.45-0.05-0.65c-0.03-0.2-0.09-0.38-0.19-0.54
		c-0.09-0.16-0.21-0.28-0.37-0.37s-0.36-0.14-0.6-0.14c-0.54,0-0.91,0.16-1.11,0.47c-0.2,0.31-0.3,0.76-0.3,1.35
		c0,0.24,0.02,0.46,0.05,0.66c0.04,0.2,0.1,0.38,0.19,0.53c0.09,0.15,0.21,0.27,0.38,0.36C18.79,24.6,18.98,24.64,19.23,24.64z"/>
	<path class="st2" d="M23.37,22.35c0.15,0.08,0.34,0.15,0.57,0.23s0.46,0.16,0.68,0.25c0.25,0.1,0.45,0.23,0.62,0.39
		c0.16,0.16,0.25,0.4,0.25,0.71c0,0.44-0.16,0.76-0.48,0.96c-0.32,0.2-0.78,0.3-1.38,0.3c-0.28,0-0.56-0.03-0.84-0.08
		s-0.51-0.13-0.7-0.23l0.23-0.55c0.16,0.09,0.34,0.15,0.57,0.2s0.48,0.08,0.75,0.08c0.14,0,0.27-0.01,0.41-0.03
		c0.14-0.02,0.26-0.04,0.36-0.09c0.1-0.04,0.19-0.11,0.25-0.19s0.09-0.2,0.09-0.34c0-0.28-0.18-0.48-0.53-0.61
		c-0.21-0.09-0.42-0.17-0.66-0.25c-0.23-0.07-0.44-0.15-0.62-0.23c-0.23-0.09-0.42-0.21-0.56-0.37c-0.15-0.15-0.23-0.38-0.23-0.67
		c0-0.23,0.05-0.43,0.16-0.6c0.1-0.16,0.24-0.29,0.41-0.39c0.17-0.09,0.37-0.16,0.58-0.21c0.21-0.04,0.42-0.06,0.63-0.06
		c0.33,0,0.62,0.03,0.86,0.08s0.45,0.11,0.61,0.18l-0.23,0.55c-0.17-0.07-0.36-0.13-0.56-0.18c-0.21-0.05-0.44-0.07-0.7-0.07
		c-0.38,0-0.66,0.06-0.81,0.18s-0.23,0.26-0.23,0.42c0,0.14,0.04,0.26,0.12,0.35C23.06,22.2,23.19,22.28,23.37,22.35z"/>
	<path class="st2" d="M27.38,21.28v2.17c0,0.19,0.01,0.36,0.02,0.5s0.05,0.27,0.11,0.36c0.05,0.1,0.14,0.17,0.26,0.22
		c0.11,0.05,0.26,0.08,0.45,0.08c0.27,0,0.53-0.05,0.8-0.14l0.13,0.51c-0.18,0.08-0.37,0.13-0.56,0.17c-0.2,0.04-0.4,0.06-0.59,0.06
		c-0.28,0-0.52-0.04-0.69-0.11c-0.18-0.08-0.31-0.18-0.41-0.32c-0.1-0.13-0.16-0.29-0.2-0.48c-0.03-0.19-0.05-0.39-0.05-0.6v-2.4
		h-0.75v-0.52l0.75-0.08v-0.92l0.72-0.12v1.04h1.66v0.58H27.38z"/>
	<path class="st2" d="M30.89,22.35c0.15,0.08,0.34,0.15,0.57,0.23s0.46,0.16,0.68,0.25c0.25,0.1,0.45,0.23,0.62,0.39
		c0.16,0.16,0.25,0.4,0.25,0.71c0,0.44-0.16,0.76-0.48,0.96c-0.32,0.2-0.78,0.3-1.38,0.3c-0.28,0-0.56-0.03-0.84-0.08
		S29.8,25,29.62,24.9l0.23-0.55c0.16,0.09,0.34,0.15,0.57,0.2s0.48,0.08,0.75,0.08c0.14,0,0.27-0.01,0.41-0.03
		c0.14-0.02,0.26-0.04,0.36-0.09c0.1-0.04,0.19-0.11,0.25-0.19s0.09-0.2,0.09-0.34c0-0.28-0.18-0.48-0.53-0.61
		c-0.21-0.09-0.42-0.17-0.66-0.25c-0.23-0.07-0.44-0.15-0.62-0.23c-0.23-0.09-0.42-0.21-0.56-0.37c-0.15-0.15-0.23-0.38-0.23-0.67
		c0-0.23,0.05-0.43,0.16-0.6c0.1-0.16,0.24-0.29,0.41-0.39c0.17-0.09,0.37-0.16,0.58-0.21c0.21-0.04,0.42-0.06,0.63-0.06
		c0.33,0,0.62,0.03,0.86,0.08s0.45,0.11,0.61,0.18l-0.23,0.55c-0.17-0.07-0.36-0.13-0.56-0.18c-0.21-0.05-0.44-0.07-0.7-0.07
		c-0.38,0-0.66,0.06-0.81,0.18s-0.23,0.26-0.23,0.42c0,0.14,0.04,0.26,0.12,0.35C30.59,22.2,30.71,22.28,30.89,22.35z"/>
	<path class="st2" d="M39.92,25.12c-0.06,0.01-0.1,0.02-0.12,0.02h-0.14c-0.23,0-0.4-0.04-0.51-0.13s-0.2-0.21-0.27-0.37
		c-0.16,0.15-0.37,0.28-0.62,0.39c-0.25,0.11-0.55,0.17-0.9,0.17c-0.27,0-0.49-0.04-0.66-0.11c-0.18-0.07-0.32-0.17-0.43-0.29
		s-0.19-0.26-0.23-0.43c-0.05-0.16-0.07-0.34-0.07-0.53c0-0.27,0.05-0.49,0.14-0.66c0.09-0.17,0.22-0.3,0.39-0.41
		c0.16-0.1,0.36-0.18,0.59-0.21c0.23-0.04,0.48-0.06,0.76-0.06c0.18,0,0.34,0,0.47,0.02c0.13,0.01,0.29,0.02,0.46,0.03v-0.23
		c0-0.21-0.02-0.4-0.05-0.55s-0.09-0.27-0.17-0.36s-0.19-0.16-0.33-0.2c-0.13-0.04-0.31-0.06-0.52-0.06c-0.25,0-0.49,0.04-0.74,0.11
		s-0.46,0.14-0.62,0.22l-0.18-0.51c0.22-0.1,0.48-0.19,0.77-0.27c0.3-0.08,0.62-0.12,0.96-0.12c0.3,0,0.56,0.03,0.77,0.09
		c0.21,0.06,0.38,0.16,0.5,0.3c0.12,0.14,0.21,0.33,0.26,0.56c0.05,0.23,0.08,0.51,0.08,0.84V24c0,0.23,0.04,0.38,0.1,0.46
		c0.07,0.09,0.17,0.12,0.31,0.12V25.12z M37.78,23.07c-0.4,0-0.67,0.06-0.82,0.19s-0.23,0.32-0.23,0.57c0,0.29,0.06,0.5,0.2,0.62
		c0.12,0.13,0.34,0.19,0.66,0.19c0.21,0,0.43-0.05,0.64-0.14c0.21-0.09,0.39-0.2,0.55-0.33v-1.06c-0.16-0.01-0.33-0.02-0.48-0.03
		C38.14,23.07,37.97,23.07,37.78,23.07z"/>
	<path class="st2" d="M41.3,20.7l0.03,0.39c0.18-0.12,0.38-0.23,0.59-0.32c0.32-0.12,0.64-0.18,0.96-0.18
		c0.29,0,0.53,0.04,0.72,0.11c0.18,0.07,0.33,0.18,0.44,0.32s0.19,0.32,0.23,0.52s0.06,0.45,0.06,0.71v2.83h-0.73v-2.67
		c0-0.19-0.01-0.36-0.03-0.51c-0.02-0.16-0.06-0.29-0.12-0.39s-0.16-0.19-0.27-0.25s-0.27-0.09-0.48-0.09
		c-0.16,0-0.33,0.02-0.48,0.07s-0.3,0.11-0.45,0.18c-0.12,0.05-0.23,0.12-0.34,0.2v3.46h-0.73v-3.23l-0.07-1.17H41.3z"/>
	<path class="st2" d="M47.05,25.21c-0.62,0-1.08-0.2-1.37-0.58c-0.3-0.39-0.44-0.94-0.44-1.66c0-0.34,0.04-0.66,0.11-0.95
		c0.08-0.29,0.2-0.54,0.38-0.75c0.16-0.21,0.38-0.37,0.65-0.49s0.59-0.18,0.97-0.18c0.22,0,0.42,0.03,0.61,0.08
		c0.12,0.03,0.25,0.08,0.37,0.14v-2.26l0.72-0.11v5.52l0.08,1.12h-0.63l-0.09-0.31c-0.17,0.13-0.36,0.23-0.55,0.29
		C47.62,25.16,47.36,25.21,47.05,25.21z M47.41,21.16c-0.46,0-0.81,0.14-1.05,0.42S46,22.32,46,22.97c0,0.23,0.02,0.44,0.05,0.64
		c0.04,0.2,0.1,0.37,0.2,0.53c0.09,0.15,0.23,0.27,0.38,0.36c0.16,0.09,0.38,0.14,0.62,0.14c0.26,0,0.49-0.05,0.69-0.16
		c0.06-0.03,0.12-0.07,0.19-0.11s0.12-0.09,0.19-0.14v-2.79C48.05,21.25,47.74,21.16,47.41,21.16z"/>
	<path class="st2" d="M55.87,24.85c-0.14,0.08-0.34,0.16-0.59,0.24c-0.27,0.07-0.55,0.11-0.85,0.11c-0.73,0-1.26-0.2-1.58-0.58
		s-0.48-0.94-0.48-1.66c0-0.79,0.19-1.39,0.55-1.78c0.38-0.39,0.93-0.59,1.66-0.59c0.27,0,0.53,0.05,0.77,0.14s0.44,0.22,0.58,0.38
		l-0.44,0.43c-0.11-0.12-0.24-0.22-0.4-0.29c-0.16-0.07-0.34-0.11-0.52-0.11c-0.48,0-0.85,0.15-1.1,0.44
		c-0.24,0.29-0.37,0.76-0.37,1.4c0,0.24,0.02,0.46,0.07,0.67c0.05,0.2,0.12,0.37,0.23,0.52c0.12,0.14,0.26,0.26,0.44,0.34
		c0.17,0.08,0.39,0.12,0.63,0.12c0.26,0,0.48-0.03,0.68-0.08s0.38-0.12,0.55-0.2L55.87,24.85z"/>
	<path class="st2" d="M58.23,25.21c-0.38,0-0.69-0.05-0.94-0.16c-0.25-0.11-0.45-0.26-0.6-0.46c-0.15-0.2-0.26-0.45-0.31-0.73
		c-0.06-0.29-0.09-0.61-0.09-0.98c0-0.77,0.17-1.35,0.51-1.72s0.89-0.56,1.64-0.56c0.38,0,0.69,0.05,0.94,0.16s0.45,0.26,0.6,0.46
		c0.16,0.2,0.26,0.45,0.33,0.73c0.06,0.29,0.09,0.61,0.09,0.98c0,0.77-0.18,1.34-0.53,1.71C59.51,25.02,58.97,25.21,58.23,25.21z
		 M58.23,24.64c0.54,0,0.91-0.15,1.11-0.45s0.3-0.75,0.3-1.35c0-0.23-0.02-0.45-0.05-0.65c-0.03-0.2-0.09-0.38-0.19-0.54
		c-0.09-0.16-0.21-0.28-0.37-0.37s-0.36-0.14-0.6-0.14c-0.54,0-0.91,0.16-1.11,0.47c-0.2,0.31-0.3,0.76-0.3,1.35
		c0,0.24,0.02,0.46,0.05,0.66c0.04,0.2,0.1,0.38,0.19,0.53c0.09,0.15,0.21,0.27,0.38,0.36C57.79,24.6,57.98,24.64,58.23,24.64z"/>
	<path class="st2" d="M61.98,20.7l0.03,0.38c0.07-0.05,0.16-0.11,0.24-0.16c0.09-0.05,0.19-0.09,0.29-0.14
		c0.28-0.12,0.58-0.18,0.9-0.18c0.28,0,0.52,0.04,0.7,0.11c0.17,0.07,0.31,0.18,0.41,0.32l0.05,0.08c0.18-0.14,0.38-0.25,0.59-0.33
		c0.31-0.12,0.62-0.18,0.95-0.18c0.28,0,0.51,0.04,0.69,0.11c0.17,0.07,0.31,0.18,0.41,0.32s0.17,0.32,0.21,0.52
		c0.03,0.21,0.05,0.45,0.05,0.71v2.83h-0.72v-2.67c0-0.19-0.01-0.36-0.02-0.51c-0.02-0.16-0.06-0.29-0.12-0.39
		c-0.06-0.11-0.14-0.19-0.25-0.25c-0.1-0.06-0.24-0.09-0.42-0.09c-0.16,0-0.32,0.02-0.47,0.07s-0.29,0.11-0.42,0.18
		c-0.05,0.02-0.11,0.05-0.16,0.09c-0.05,0.03-0.1,0.07-0.16,0.11c0.02,0.09,0.02,0.2,0.03,0.3s0.01,0.22,0.01,0.33v2.83h-0.73v-2.67
		c0-0.19-0.01-0.36-0.02-0.51c-0.02-0.16-0.05-0.29-0.11-0.39c-0.06-0.11-0.14-0.19-0.25-0.25c-0.1-0.06-0.25-0.09-0.43-0.09
		c-0.31,0-0.61,0.08-0.89,0.25c-0.05,0.02-0.09,0.05-0.13,0.08c-0.05,0.03-0.09,0.06-0.13,0.09v3.48h-0.73v-3.23L61.3,20.7H61.98z"
		/>
	<path class="st2" d="M69.22,20.7l0.08,0.32c0.18-0.13,0.37-0.23,0.56-0.29c0.26-0.09,0.52-0.14,0.8-0.14c0.62,0,1.08,0.2,1.37,0.58
		s0.44,0.94,0.44,1.66c0,0.34-0.04,0.66-0.12,0.96c-0.08,0.29-0.2,0.54-0.37,0.75s-0.39,0.37-0.66,0.49
		c-0.27,0.12-0.59,0.18-0.96,0.18c-0.23,0-0.43-0.03-0.61-0.09c-0.06-0.01-0.12-0.03-0.18-0.05c-0.05-0.02-0.12-0.05-0.18-0.08v2.17
		l-0.73,0.11v-5.44l-0.07-1.12H69.22z M70.29,24.64c0.45,0,0.8-0.14,1.05-0.42s0.37-0.74,0.37-1.39c0-0.22-0.02-0.44-0.05-0.64
		c-0.04-0.2-0.11-0.38-0.2-0.53c-0.1-0.15-0.23-0.27-0.38-0.36c-0.16-0.09-0.37-0.13-0.62-0.13c-0.26,0-0.48,0.05-0.7,0.16
		c-0.12,0.07-0.24,0.15-0.36,0.25v2.78C69.65,24.55,69.94,24.64,70.29,24.64z"/>
	<path class="st2" d="M74.59,25.13c-0.01,0.01-0.03,0.01-0.09,0.01c-0.02,0-0.07,0.01-0.17,0.01c-0.34,0-0.59-0.1-0.71-0.29
		s-0.2-0.48-0.2-0.87v-5.43l0.73-0.11v5.52c0,0.27,0.03,0.43,0.09,0.5s0.18,0.11,0.34,0.11V25.13z"/>
	<path class="st2" d="M77.24,25.21c-0.38,0-0.7-0.05-0.96-0.14c-0.26-0.09-0.47-0.24-0.62-0.43c-0.16-0.2-0.27-0.43-0.34-0.73
		s-0.1-0.64-0.1-1.03c0-0.77,0.16-1.35,0.5-1.72c0.33-0.37,0.84-0.56,1.52-0.56c0.37,0,0.66,0.05,0.89,0.16
		c0.23,0.11,0.41,0.26,0.55,0.45c0.12,0.19,0.22,0.42,0.27,0.68S79,22.43,79,22.74v0.35h-3.04c0,0.25,0.02,0.46,0.05,0.63
		c0.09,0.35,0.24,0.59,0.46,0.71c0.21,0.13,0.5,0.2,0.88,0.2c0.31,0,0.59-0.04,0.83-0.12c0.23-0.08,0.42-0.16,0.56-0.23l0.2,0.5
		c-0.07,0.05-0.17,0.11-0.3,0.16s-0.27,0.1-0.41,0.14c-0.16,0.04-0.32,0.08-0.48,0.1C77.57,25.19,77.41,25.21,77.24,25.21z
		 M78.24,22.55c0-0.52-0.09-0.89-0.27-1.09c-0.18-0.2-0.43-0.31-0.74-0.31c-0.37,0-0.64,0.08-0.83,0.24s-0.32,0.41-0.39,0.74
		c-0.02,0.07-0.02,0.13-0.03,0.2s-0.01,0.14-0.02,0.22H78.24z"/>
	<path class="st2" d="M81.41,23.15l-1.18,1.95h-0.79l1.4-2.27l-1.39-2.13h0.83l1.14,1.82h0.15l1.12-1.82h0.79l-1.36,2.13l1.43,2.27
		h-0.82l-1.16-1.95H81.41z"/>
	<path class="st2" d="M84.27,18.89h0.74v0.77h-0.74V18.89z M84.28,20.7h0.73v4.4h-0.73V20.7z"/>
	<path class="st2" d="M87.21,21.28v2.17c0,0.19,0.01,0.36,0.02,0.5s0.05,0.27,0.11,0.36c0.05,0.1,0.14,0.17,0.26,0.22
		c0.11,0.05,0.26,0.08,0.45,0.08c0.27,0,0.53-0.05,0.8-0.14l0.13,0.51c-0.18,0.08-0.37,0.13-0.56,0.17c-0.2,0.04-0.4,0.06-0.59,0.06
		c-0.28,0-0.52-0.04-0.69-0.11c-0.18-0.08-0.31-0.18-0.41-0.32c-0.1-0.13-0.16-0.29-0.2-0.48c-0.03-0.19-0.05-0.39-0.05-0.6v-2.4
		h-0.75v-0.52l0.75-0.08v-0.92l0.72-0.12v1.04h1.66v0.58H87.21z"/>
	<path class="st2" d="M89.22,20.7h0.81l1.27,3.5h0.09l1.17-3.5h0.75l-1.68,4.68c-0.11,0.27-0.2,0.52-0.3,0.75s-0.22,0.43-0.36,0.6
		c-0.13,0.17-0.3,0.3-0.51,0.39c-0.21,0.09-0.47,0.14-0.78,0.14c-0.08,0-0.15,0-0.23-0.01c-0.07-0.01-0.13-0.02-0.19-0.04l0.09-0.56
		l0.16,0.03c0.02,0,0.07,0.01,0.16,0.01c0.23,0,0.42-0.04,0.55-0.12s0.23-0.18,0.3-0.3c0.04-0.05,0.08-0.12,0.12-0.21
		c0.04-0.09,0.08-0.19,0.12-0.29c0.04-0.1,0.08-0.21,0.12-0.31s0.07-0.21,0.1-0.3L89.22,20.7z"/>
	<path class="st2" d="M98,25.21c-0.38,0-0.69-0.05-0.94-0.16c-0.25-0.11-0.45-0.26-0.6-0.46c-0.15-0.2-0.26-0.45-0.31-0.73
		c-0.06-0.29-0.09-0.61-0.09-0.98c0-0.77,0.17-1.35,0.51-1.72s0.89-0.56,1.64-0.56c0.38,0,0.69,0.05,0.94,0.16s0.45,0.26,0.6,0.46
		c0.16,0.2,0.26,0.45,0.33,0.73c0.06,0.29,0.09,0.61,0.09,0.98c0,0.77-0.18,1.34-0.53,1.71C99.28,25.02,98.74,25.21,98,25.21z
		 M98,24.64c0.54,0,0.91-0.15,1.11-0.45s0.3-0.75,0.3-1.35c0-0.23-0.02-0.45-0.05-0.65c-0.03-0.2-0.09-0.38-0.19-0.54
		c-0.09-0.16-0.21-0.28-0.37-0.37s-0.36-0.14-0.6-0.14c-0.54,0-0.91,0.16-1.11,0.47c-0.2,0.31-0.3,0.76-0.3,1.35
		c0,0.24,0.02,0.46,0.05,0.66c0.04,0.2,0.1,0.38,0.19,0.53c0.09,0.15,0.21,0.27,0.38,0.36C97.56,24.6,97.76,24.64,98,24.64z"/>
	<path class="st2" d="M103.69,20.7v0.58h-1.61v3.82h-0.73v-3.82h-0.64V20.7h0.64v-0.55c0-0.32,0.04-0.6,0.12-0.82
		c0.08-0.21,0.19-0.39,0.33-0.52c0.14-0.13,0.3-0.23,0.5-0.28s0.41-0.08,0.66-0.08c0.16,0,0.32,0.02,0.48,0.05
		c0.16,0.03,0.3,0.07,0.45,0.11l-0.16,0.57c-0.21-0.09-0.46-0.12-0.73-0.12c-0.33,0-0.56,0.09-0.7,0.26c-0.14,0.18-0.2,0.48-0.2,0.9
		v0.49H103.69z"/>
	<path class="st2" d="M107.53,22.35c0.15,0.08,0.34,0.15,0.57,0.23s0.46,0.16,0.68,0.25c0.25,0.1,0.45,0.23,0.62,0.39
		c0.16,0.16,0.25,0.4,0.25,0.71c0,0.44-0.16,0.76-0.48,0.96c-0.32,0.2-0.78,0.3-1.38,0.3c-0.28,0-0.56-0.03-0.84-0.08
		s-0.51-0.13-0.7-0.23l0.23-0.55c0.16,0.09,0.34,0.15,0.57,0.2s0.48,0.08,0.75,0.08c0.14,0,0.27-0.01,0.41-0.03
		c0.14-0.02,0.26-0.04,0.36-0.09c0.1-0.04,0.19-0.11,0.25-0.19s0.09-0.2,0.09-0.34c0-0.28-0.18-0.48-0.53-0.61
		c-0.21-0.09-0.42-0.17-0.66-0.25c-0.23-0.07-0.44-0.15-0.62-0.23c-0.23-0.09-0.42-0.21-0.56-0.37c-0.15-0.15-0.23-0.38-0.23-0.67
		c0-0.23,0.05-0.43,0.16-0.6c0.1-0.16,0.24-0.29,0.41-0.39c0.17-0.09,0.37-0.16,0.58-0.21c0.21-0.04,0.42-0.06,0.63-0.06
		c0.33,0,0.62,0.03,0.86,0.08s0.45,0.11,0.61,0.18l-0.23,0.55c-0.17-0.07-0.36-0.13-0.56-0.18c-0.21-0.05-0.44-0.07-0.7-0.07
		c-0.38,0-0.66,0.06-0.81,0.18s-0.23,0.26-0.23,0.42c0,0.14,0.04,0.26,0.12,0.35C107.23,22.2,107.35,22.28,107.53,22.35z"/>
	<path class="st2" d="M112.37,25.21c-0.38,0-0.7-0.05-0.96-0.14c-0.26-0.09-0.47-0.24-0.62-0.43c-0.16-0.2-0.27-0.43-0.34-0.73
		s-0.1-0.64-0.1-1.03c0-0.77,0.16-1.35,0.5-1.72c0.33-0.37,0.84-0.56,1.52-0.56c0.37,0,0.66,0.05,0.89,0.16
		c0.23,0.11,0.41,0.26,0.55,0.45c0.12,0.19,0.22,0.42,0.27,0.68s0.07,0.55,0.07,0.85v0.35h-3.04c0,0.25,0.02,0.46,0.05,0.63
		c0.09,0.35,0.24,0.59,0.46,0.71c0.21,0.13,0.5,0.2,0.88,0.2c0.31,0,0.59-0.04,0.83-0.12c0.23-0.08,0.42-0.16,0.56-0.23l0.2,0.5
		c-0.07,0.05-0.17,0.11-0.3,0.16s-0.27,0.1-0.41,0.14c-0.16,0.04-0.32,0.08-0.48,0.1C112.69,25.19,112.53,25.21,112.37,25.21z
		 M113.37,22.55c0-0.52-0.09-0.89-0.27-1.09c-0.18-0.2-0.43-0.31-0.74-0.31c-0.37,0-0.64,0.08-0.83,0.24s-0.32,0.41-0.39,0.74
		c-0.02,0.07-0.02,0.13-0.03,0.2s-0.01,0.14-0.02,0.22H113.37z"/>
	<path class="st2" d="M115.66,20.7l0.08,0.32c0.18-0.13,0.37-0.23,0.56-0.29c0.26-0.09,0.52-0.14,0.8-0.14
		c0.62,0,1.08,0.2,1.37,0.58s0.44,0.94,0.44,1.66c0,0.34-0.04,0.66-0.12,0.96c-0.08,0.29-0.2,0.54-0.37,0.75s-0.39,0.37-0.66,0.49
		c-0.27,0.12-0.59,0.18-0.96,0.18c-0.23,0-0.43-0.03-0.61-0.09c-0.06-0.01-0.12-0.03-0.18-0.05c-0.05-0.02-0.12-0.05-0.18-0.08v2.17
		l-0.73,0.11v-5.44l-0.07-1.12H115.66z M116.73,24.64c0.45,0,0.8-0.14,1.05-0.42s0.37-0.74,0.37-1.39c0-0.22-0.02-0.44-0.05-0.64
		c-0.04-0.2-0.11-0.38-0.2-0.53c-0.1-0.15-0.23-0.27-0.38-0.36c-0.16-0.09-0.37-0.13-0.62-0.13c-0.26,0-0.48,0.05-0.7,0.16
		c-0.12,0.07-0.24,0.15-0.36,0.25v2.78C116.09,24.55,116.38,24.64,116.73,24.64z"/>
	<path class="st2" d="M123.55,25.12c-0.06,0.01-0.1,0.02-0.12,0.02h-0.14c-0.23,0-0.4-0.04-0.51-0.13s-0.2-0.21-0.27-0.37
		c-0.16,0.15-0.37,0.28-0.62,0.39c-0.25,0.11-0.55,0.17-0.9,0.17c-0.27,0-0.49-0.04-0.66-0.11c-0.18-0.07-0.32-0.17-0.43-0.29
		s-0.19-0.26-0.23-0.43c-0.05-0.16-0.07-0.34-0.07-0.53c0-0.27,0.05-0.49,0.14-0.66c0.09-0.17,0.22-0.3,0.39-0.41
		c0.16-0.1,0.36-0.18,0.59-0.21c0.23-0.04,0.48-0.06,0.76-0.06c0.18,0,0.34,0,0.47,0.02c0.13,0.01,0.29,0.02,0.46,0.03v-0.23
		c0-0.21-0.02-0.4-0.05-0.55s-0.09-0.27-0.17-0.36s-0.19-0.16-0.33-0.2c-0.13-0.04-0.31-0.06-0.52-0.06c-0.25,0-0.49,0.04-0.74,0.11
		s-0.46,0.14-0.62,0.22l-0.18-0.51c0.22-0.1,0.48-0.19,0.77-0.27c0.3-0.08,0.62-0.12,0.96-0.12c0.3,0,0.56,0.03,0.77,0.09
		c0.21,0.06,0.38,0.16,0.5,0.3c0.12,0.14,0.21,0.33,0.26,0.56c0.05,0.23,0.08,0.51,0.08,0.84V24c0,0.23,0.04,0.38,0.1,0.46
		c0.07,0.09,0.17,0.12,0.31,0.12V25.12z M121.41,23.07c-0.4,0-0.67,0.06-0.82,0.19s-0.23,0.32-0.23,0.57c0,0.29,0.06,0.5,0.2,0.62
		c0.12,0.13,0.34,0.19,0.66,0.19c0.21,0,0.43-0.05,0.64-0.14c0.21-0.09,0.39-0.2,0.55-0.33v-1.06c-0.16-0.01-0.33-0.02-0.48-0.03
		C121.76,23.07,121.59,23.07,121.41,23.07z"/>
	<path class="st2" d="M124.9,20.7l0.08,0.61c0.18-0.21,0.38-0.38,0.59-0.48c0.29-0.15,0.59-0.23,0.88-0.23
		c0.24,0,0.44,0.04,0.59,0.12l-0.2,0.61c-0.12-0.06-0.3-0.09-0.51-0.09c-0.27,0-0.52,0.08-0.76,0.24c-0.09,0.06-0.17,0.12-0.25,0.2
		c-0.09,0.07-0.16,0.16-0.25,0.25v3.18h-0.73v-3.2l-0.11-1.2H124.9z"/>
	<path class="st2" d="M131.11,25.12c-0.06,0.01-0.1,0.02-0.12,0.02h-0.14c-0.23,0-0.4-0.04-0.51-0.13s-0.2-0.21-0.27-0.37
		c-0.16,0.15-0.37,0.28-0.62,0.39c-0.25,0.11-0.55,0.17-0.9,0.17c-0.27,0-0.49-0.04-0.66-0.11c-0.18-0.07-0.32-0.17-0.43-0.29
		s-0.19-0.26-0.23-0.43c-0.05-0.16-0.07-0.34-0.07-0.53c0-0.27,0.05-0.49,0.14-0.66c0.09-0.17,0.22-0.3,0.39-0.41
		c0.16-0.1,0.36-0.18,0.59-0.21c0.23-0.04,0.48-0.06,0.76-0.06c0.18,0,0.34,0,0.47,0.02c0.13,0.01,0.29,0.02,0.46,0.03v-0.23
		c0-0.21-0.02-0.4-0.05-0.55s-0.09-0.27-0.17-0.36s-0.19-0.16-0.33-0.2c-0.13-0.04-0.31-0.06-0.52-0.06c-0.25,0-0.49,0.04-0.74,0.11
		s-0.46,0.14-0.62,0.22l-0.18-0.51c0.22-0.1,0.48-0.19,0.77-0.27c0.3-0.08,0.62-0.12,0.96-0.12c0.3,0,0.56,0.03,0.77,0.09
		c0.21,0.06,0.38,0.16,0.5,0.3c0.12,0.14,0.21,0.33,0.26,0.56c0.05,0.23,0.08,0.51,0.08,0.84V24c0,0.23,0.04,0.38,0.1,0.46
		c0.07,0.09,0.17,0.12,0.31,0.12V25.12z M128.97,23.07c-0.4,0-0.67,0.06-0.82,0.19s-0.23,0.32-0.23,0.57c0,0.29,0.06,0.5,0.2,0.62
		c0.12,0.13,0.34,0.19,0.66,0.19c0.21,0,0.43-0.05,0.64-0.14c0.21-0.09,0.39-0.2,0.55-0.33v-1.06c-0.16-0.01-0.33-0.02-0.48-0.03
		C129.33,23.07,129.16,23.07,128.97,23.07z"/>
	<path class="st2" d="M132.87,21.28v2.17c0,0.19,0.01,0.36,0.02,0.5s0.05,0.27,0.11,0.36c0.05,0.1,0.14,0.17,0.26,0.22
		c0.11,0.05,0.26,0.08,0.45,0.08c0.27,0,0.53-0.05,0.8-0.14l0.13,0.51c-0.18,0.08-0.37,0.13-0.56,0.17c-0.2,0.04-0.4,0.06-0.59,0.06
		c-0.28,0-0.52-0.04-0.69-0.11c-0.18-0.08-0.31-0.18-0.41-0.32c-0.1-0.13-0.16-0.29-0.2-0.48c-0.03-0.19-0.05-0.39-0.05-0.6v-2.4
		h-0.75v-0.52l0.75-0.08v-0.92l0.72-0.12v1.04h1.66v0.58H132.87z"/>
	<path class="st2" d="M137.13,25.21c-0.38,0-0.7-0.05-0.96-0.14c-0.26-0.09-0.47-0.24-0.62-0.43c-0.16-0.2-0.27-0.43-0.34-0.73
		s-0.1-0.64-0.1-1.03c0-0.77,0.16-1.35,0.5-1.72c0.33-0.37,0.84-0.56,1.52-0.56c0.37,0,0.66,0.05,0.89,0.16
		c0.23,0.11,0.41,0.26,0.55,0.45c0.12,0.19,0.22,0.42,0.27,0.68s0.07,0.55,0.07,0.85v0.35h-3.04c0,0.25,0.02,0.46,0.05,0.63
		c0.09,0.35,0.24,0.59,0.46,0.71c0.21,0.13,0.5,0.2,0.88,0.2c0.31,0,0.59-0.04,0.83-0.12c0.23-0.08,0.42-0.16,0.56-0.23l0.2,0.5
		c-0.07,0.05-0.17,0.11-0.3,0.16s-0.27,0.1-0.41,0.14c-0.16,0.04-0.32,0.08-0.48,0.1C137.46,25.19,137.3,25.21,137.13,25.21z
		 M138.13,22.55c0-0.52-0.09-0.89-0.27-1.09c-0.18-0.2-0.43-0.31-0.74-0.31c-0.37,0-0.64,0.08-0.83,0.24s-0.32,0.41-0.39,0.74
		c-0.02,0.07-0.02,0.13-0.03,0.2s-0.01,0.14-0.02,0.22H138.13z"/>
	<path class="st2" d="M142.79,20.7l0.03,0.38c0.07-0.05,0.16-0.11,0.24-0.16c0.09-0.05,0.19-0.09,0.29-0.14
		c0.28-0.12,0.58-0.18,0.9-0.18c0.28,0,0.52,0.04,0.7,0.11c0.17,0.07,0.31,0.18,0.41,0.32l0.05,0.08c0.18-0.14,0.38-0.25,0.59-0.33
		c0.31-0.12,0.62-0.18,0.95-0.18c0.28,0,0.51,0.04,0.69,0.11c0.17,0.07,0.31,0.18,0.41,0.32s0.17,0.32,0.21,0.52
		c0.03,0.21,0.05,0.45,0.05,0.71v2.83h-0.72v-2.67c0-0.19-0.01-0.36-0.02-0.51c-0.02-0.16-0.06-0.29-0.12-0.39
		c-0.06-0.11-0.14-0.19-0.25-0.25c-0.1-0.06-0.24-0.09-0.42-0.09c-0.16,0-0.32,0.02-0.47,0.07s-0.29,0.11-0.42,0.18
		c-0.05,0.02-0.11,0.05-0.16,0.09c-0.05,0.03-0.1,0.07-0.16,0.11c0.02,0.09,0.02,0.2,0.03,0.3s0.01,0.22,0.01,0.33v2.83h-0.73v-2.67
		c0-0.19-0.01-0.36-0.02-0.51c-0.02-0.16-0.05-0.29-0.11-0.39c-0.06-0.11-0.14-0.19-0.25-0.25c-0.1-0.06-0.25-0.09-0.43-0.09
		c-0.31,0-0.61,0.08-0.89,0.25c-0.05,0.02-0.09,0.05-0.13,0.08c-0.05,0.03-0.09,0.06-0.13,0.09v3.48h-0.73v-3.23l-0.07-1.17H142.79z
		"/>
	<path class="st2" d="M151.27,25.21c-0.38,0-0.7-0.05-0.96-0.14c-0.26-0.09-0.47-0.24-0.62-0.43c-0.16-0.2-0.27-0.43-0.34-0.73
		s-0.1-0.64-0.1-1.03c0-0.77,0.16-1.35,0.5-1.72c0.33-0.37,0.84-0.56,1.52-0.56c0.37,0,0.66,0.05,0.89,0.16
		c0.23,0.11,0.41,0.26,0.55,0.45c0.12,0.19,0.22,0.42,0.27,0.68s0.07,0.55,0.07,0.85v0.35h-3.04c0,0.25,0.02,0.46,0.05,0.63
		c0.09,0.35,0.24,0.59,0.46,0.71c0.21,0.13,0.5,0.2,0.88,0.2c0.31,0,0.59-0.04,0.83-0.12c0.23-0.08,0.42-0.16,0.56-0.23l0.2,0.5
		c-0.07,0.05-0.17,0.11-0.3,0.16s-0.27,0.1-0.41,0.14c-0.16,0.04-0.32,0.08-0.48,0.1C151.6,25.19,151.44,25.21,151.27,25.21z
		 M152.27,22.55c0-0.52-0.09-0.89-0.27-1.09c-0.18-0.2-0.43-0.31-0.74-0.31c-0.37,0-0.64,0.08-0.83,0.24s-0.32,0.41-0.39,0.74
		c-0.02,0.07-0.02,0.13-0.03,0.2s-0.01,0.14-0.02,0.22H152.27z"/>
	<path class="st2" d="M155.57,25.21c-0.62,0-1.08-0.2-1.37-0.58c-0.3-0.39-0.44-0.94-0.44-1.66c0-0.34,0.04-0.66,0.11-0.95
		c0.08-0.29,0.2-0.54,0.38-0.75c0.16-0.21,0.38-0.37,0.65-0.49s0.59-0.18,0.97-0.18c0.22,0,0.42,0.03,0.61,0.08
		c0.12,0.03,0.25,0.08,0.37,0.14v-2.26l0.72-0.11v5.52l0.08,1.12h-0.63l-0.09-0.31c-0.17,0.13-0.36,0.23-0.55,0.29
		C156.14,25.16,155.87,25.21,155.57,25.21z M155.93,21.16c-0.46,0-0.81,0.14-1.05,0.42s-0.36,0.75-0.36,1.39
		c0,0.23,0.02,0.44,0.05,0.64c0.04,0.2,0.1,0.37,0.2,0.53c0.09,0.15,0.23,0.27,0.38,0.36c0.16,0.09,0.38,0.14,0.62,0.14
		c0.26,0,0.49-0.05,0.69-0.16c0.06-0.03,0.12-0.07,0.19-0.11s0.12-0.09,0.19-0.14v-2.79C156.56,21.25,156.26,21.16,155.93,21.16z"/>
	<path class="st2" d="M158.78,18.89h0.74v0.77h-0.74V18.89z M158.79,20.7h0.73v4.4h-0.73V20.7z"/>
	<path class="st2" d="M164.41,25.12c-0.06,0.01-0.1,0.02-0.12,0.02h-0.14c-0.23,0-0.4-0.04-0.51-0.13s-0.2-0.21-0.27-0.37
		c-0.16,0.15-0.37,0.28-0.62,0.39c-0.25,0.11-0.55,0.17-0.9,0.17c-0.27,0-0.49-0.04-0.66-0.11c-0.18-0.07-0.32-0.17-0.43-0.29
		s-0.19-0.26-0.23-0.43c-0.05-0.16-0.07-0.34-0.07-0.53c0-0.27,0.05-0.49,0.14-0.66c0.09-0.17,0.22-0.3,0.39-0.41
		c0.16-0.1,0.36-0.18,0.59-0.21c0.23-0.04,0.48-0.06,0.76-0.06c0.18,0,0.34,0,0.47,0.02c0.13,0.01,0.29,0.02,0.46,0.03v-0.23
		c0-0.21-0.02-0.4-0.05-0.55s-0.09-0.27-0.17-0.36s-0.19-0.16-0.33-0.2c-0.13-0.04-0.31-0.06-0.52-0.06c-0.25,0-0.49,0.04-0.74,0.11
		s-0.46,0.14-0.62,0.22l-0.18-0.51c0.22-0.1,0.48-0.19,0.77-0.27c0.3-0.08,0.62-0.12,0.96-0.12c0.3,0,0.56,0.03,0.77,0.09
		c0.21,0.06,0.38,0.16,0.5,0.3c0.12,0.14,0.21,0.33,0.26,0.56c0.05,0.23,0.08,0.51,0.08,0.84V24c0,0.23,0.04,0.38,0.1,0.46
		c0.07,0.09,0.17,0.12,0.31,0.12V25.12z M162.27,23.07c-0.4,0-0.67,0.06-0.82,0.19s-0.23,0.32-0.23,0.57c0,0.29,0.06,0.5,0.2,0.62
		c0.12,0.13,0.34,0.19,0.66,0.19c0.21,0,0.43-0.05,0.64-0.14c0.21-0.09,0.39-0.2,0.55-0.33v-1.06c-0.16-0.01-0.33-0.02-0.48-0.03
		C162.63,23.07,162.46,23.07,162.27,23.07z"/>
	<path class="st2" d="M14.16,30.3l0.08,0.32c0.18-0.13,0.37-0.23,0.56-0.29c0.26-0.09,0.52-0.14,0.8-0.14c0.62,0,1.08,0.2,1.37,0.58
		s0.44,0.94,0.44,1.66c0,0.34-0.04,0.66-0.12,0.96c-0.08,0.29-0.2,0.54-0.37,0.75s-0.39,0.37-0.66,0.49
		c-0.27,0.12-0.59,0.18-0.96,0.18c-0.23,0-0.43-0.03-0.61-0.09c-0.06-0.01-0.12-0.03-0.18-0.05c-0.05-0.02-0.12-0.05-0.18-0.08v2.17
		l-0.73,0.11v-5.44l-0.07-1.12H14.16z M15.23,34.24c0.45,0,0.8-0.14,1.05-0.42s0.37-0.74,0.37-1.39c0-0.22-0.02-0.44-0.05-0.64
		c-0.04-0.2-0.11-0.38-0.2-0.53c-0.1-0.15-0.23-0.27-0.38-0.36c-0.16-0.09-0.37-0.13-0.62-0.13c-0.26,0-0.48,0.05-0.7,0.16
		c-0.12,0.07-0.24,0.15-0.36,0.25v2.78C14.59,34.15,14.88,34.24,15.23,34.24z"/>
	<path class="st2" d="M19.53,34.73c-0.01,0.01-0.03,0.01-0.09,0.01c-0.02,0-0.07,0.01-0.17,0.01c-0.34,0-0.59-0.1-0.71-0.29
		s-0.2-0.48-0.2-0.87v-5.43l0.73-0.11v5.52c0,0.27,0.03,0.43,0.09,0.5s0.18,0.11,0.34,0.11V34.73z"/>
	<path class="st2" d="M24.18,34.72c-0.06,0.01-0.1,0.02-0.12,0.02h-0.14c-0.23,0-0.4-0.04-0.51-0.13s-0.2-0.21-0.27-0.37
		c-0.16,0.15-0.37,0.28-0.62,0.39c-0.25,0.11-0.55,0.17-0.9,0.17c-0.27,0-0.49-0.04-0.66-0.11c-0.18-0.07-0.32-0.17-0.43-0.29
		s-0.19-0.26-0.23-0.43c-0.05-0.16-0.07-0.34-0.07-0.53c0-0.27,0.05-0.49,0.14-0.66c0.09-0.17,0.22-0.3,0.39-0.41
		c0.16-0.1,0.36-0.18,0.59-0.21c0.23-0.04,0.48-0.06,0.76-0.06c0.18,0,0.34,0,0.47,0.02c0.13,0.01,0.29,0.02,0.46,0.03v-0.23
		c0-0.21-0.02-0.4-0.05-0.55s-0.09-0.27-0.17-0.36s-0.19-0.16-0.33-0.2c-0.13-0.04-0.31-0.06-0.52-0.06c-0.25,0-0.49,0.04-0.74,0.11
		s-0.46,0.14-0.62,0.22l-0.18-0.51c0.22-0.1,0.48-0.19,0.77-0.27c0.3-0.08,0.62-0.12,0.96-0.12c0.3,0,0.56,0.03,0.77,0.09
		c0.21,0.06,0.38,0.16,0.5,0.3c0.12,0.14,0.21,0.33,0.26,0.56c0.05,0.23,0.08,0.51,0.08,0.84v1.59c0,0.23,0.04,0.38,0.1,0.46
		c0.07,0.09,0.17,0.12,0.31,0.12V34.72z M22.04,32.67c-0.4,0-0.67,0.06-0.82,0.19s-0.23,0.32-0.23,0.57c0,0.29,0.06,0.5,0.2,0.62
		c0.12,0.13,0.34,0.19,0.66,0.19c0.21,0,0.43-0.05,0.64-0.14c0.21-0.09,0.39-0.2,0.55-0.33v-1.06c-0.16-0.01-0.33-0.02-0.48-0.03
		C22.4,32.67,22.23,32.67,22.04,32.67z"/>
	<path class="st2" d="M24.25,30.3h0.81l1.27,3.5h0.09l1.17-3.5h0.75l-1.68,4.68c-0.11,0.27-0.2,0.52-0.3,0.75s-0.22,0.43-0.36,0.6
		c-0.13,0.17-0.3,0.3-0.51,0.39c-0.21,0.09-0.47,0.14-0.78,0.14c-0.08,0-0.15,0-0.23-0.01c-0.07-0.01-0.13-0.02-0.19-0.04l0.09-0.56
		l0.16,0.03c0.02,0,0.07,0.01,0.16,0.01c0.23,0,0.42-0.04,0.55-0.12s0.23-0.18,0.3-0.3c0.04-0.05,0.08-0.12,0.12-0.21
		c0.04-0.09,0.08-0.19,0.12-0.29c0.04-0.1,0.08-0.21,0.12-0.31s0.07-0.21,0.1-0.3L24.25,30.3z"/>
	<path class="st2" d="M30.69,34.81c-0.38,0-0.7-0.05-0.96-0.14c-0.26-0.09-0.47-0.24-0.62-0.43c-0.16-0.2-0.27-0.43-0.34-0.73
		s-0.1-0.64-0.1-1.03c0-0.77,0.16-1.35,0.5-1.72c0.33-0.37,0.84-0.56,1.52-0.56c0.37,0,0.66,0.05,0.89,0.16
		c0.23,0.11,0.41,0.26,0.55,0.45c0.12,0.19,0.22,0.42,0.27,0.68s0.07,0.55,0.07,0.85v0.35h-3.04c0,0.25,0.02,0.46,0.05,0.63
		c0.09,0.35,0.24,0.59,0.46,0.71c0.21,0.13,0.5,0.2,0.88,0.2c0.31,0,0.59-0.04,0.83-0.12c0.23-0.08,0.42-0.16,0.56-0.23l0.2,0.5
		c-0.07,0.05-0.17,0.11-0.3,0.16s-0.27,0.1-0.41,0.14c-0.16,0.04-0.32,0.08-0.48,0.1C31.02,34.8,30.86,34.81,30.69,34.81z
		 M31.69,32.15c0-0.52-0.09-0.89-0.27-1.09c-0.18-0.2-0.43-0.31-0.74-0.31c-0.37,0-0.64,0.08-0.83,0.24s-0.32,0.41-0.39,0.74
		c-0.02,0.07-0.02,0.13-0.03,0.2s-0.01,0.14-0.02,0.22H31.69z"/>
	<path class="st2" d="M34,30.3l0.08,0.61c0.18-0.21,0.38-0.38,0.59-0.48c0.29-0.15,0.59-0.23,0.88-0.23c0.24,0,0.44,0.04,0.59,0.12
		l-0.2,0.61c-0.12-0.06-0.3-0.09-0.51-0.09c-0.27,0-0.52,0.08-0.76,0.24c-0.09,0.06-0.17,0.12-0.25,0.2
		c-0.09,0.07-0.16,0.16-0.25,0.25v3.18h-0.73v-3.2l-0.11-1.2H34z"/>
	<path class="st2" d="M37.48,31.96c0.15,0.08,0.34,0.15,0.57,0.23s0.46,0.16,0.68,0.25c0.25,0.1,0.45,0.23,0.62,0.39
		c0.16,0.16,0.25,0.4,0.25,0.71c0,0.44-0.16,0.76-0.48,0.96c-0.32,0.2-0.78,0.3-1.38,0.3c-0.28,0-0.56-0.03-0.84-0.08
		s-0.51-0.13-0.7-0.23l0.23-0.55c0.16,0.09,0.34,0.15,0.57,0.2s0.48,0.08,0.75,0.08c0.14,0,0.27-0.01,0.41-0.03
		c0.14-0.02,0.26-0.04,0.36-0.09c0.1-0.04,0.19-0.11,0.25-0.19s0.09-0.2,0.09-0.34c0-0.28-0.18-0.48-0.53-0.61
		c-0.21-0.09-0.42-0.17-0.66-0.25c-0.23-0.07-0.44-0.15-0.62-0.23c-0.23-0.09-0.42-0.21-0.56-0.37c-0.15-0.15-0.23-0.38-0.23-0.67
		c0-0.23,0.05-0.43,0.16-0.6c0.1-0.16,0.24-0.29,0.41-0.39c0.17-0.09,0.37-0.16,0.58-0.21c0.21-0.04,0.42-0.06,0.63-0.06
		c0.33,0,0.62,0.03,0.86,0.08s0.45,0.11,0.61,0.18l-0.23,0.55c-0.17-0.07-0.36-0.13-0.56-0.18c-0.21-0.05-0.44-0.07-0.7-0.07
		c-0.38,0-0.66,0.06-0.81,0.18s-0.23,0.26-0.23,0.42c0,0.14,0.04,0.26,0.12,0.35C37.17,31.8,37.3,31.88,37.48,31.96z"/>
	<path class="st2" d="M39.98,35.8c0.15-0.31,0.27-0.62,0.34-0.91c0.08-0.3,0.12-0.62,0.12-0.99h0.71c-0.01,0.48-0.07,0.88-0.19,1.22
		c-0.12,0.33-0.28,0.66-0.5,0.98L39.98,35.8z"/>
	<path class="st2" d="M45.13,30.3l0.08,0.61c0.18-0.21,0.38-0.38,0.59-0.48c0.29-0.15,0.59-0.23,0.88-0.23
		c0.24,0,0.44,0.04,0.59,0.12l-0.2,0.61c-0.12-0.06-0.3-0.09-0.51-0.09c-0.27,0-0.52,0.08-0.76,0.24c-0.09,0.06-0.17,0.12-0.25,0.2
		c-0.09,0.07-0.16,0.16-0.25,0.25v3.18h-0.73v-3.2l-0.11-1.2H45.13z"/>
	<path class="st2" d="M49.39,34.81c-0.38,0-0.7-0.05-0.96-0.14c-0.26-0.09-0.47-0.24-0.62-0.43c-0.16-0.2-0.27-0.43-0.34-0.73
		s-0.1-0.64-0.1-1.03c0-0.77,0.16-1.35,0.5-1.72c0.33-0.37,0.84-0.56,1.52-0.56c0.37,0,0.66,0.05,0.89,0.16
		c0.23,0.11,0.41,0.26,0.55,0.45c0.12,0.19,0.22,0.42,0.27,0.68s0.07,0.55,0.07,0.85v0.35h-3.04c0,0.25,0.02,0.46,0.05,0.63
		c0.09,0.35,0.24,0.59,0.46,0.71c0.21,0.13,0.5,0.2,0.88,0.2c0.31,0,0.59-0.04,0.83-0.12c0.23-0.08,0.42-0.16,0.56-0.23l0.2,0.5
		c-0.07,0.05-0.17,0.11-0.3,0.16s-0.27,0.1-0.41,0.14c-0.16,0.04-0.32,0.08-0.48,0.1C49.72,34.8,49.55,34.81,49.39,34.81z
		 M50.39,32.15c0-0.52-0.09-0.89-0.27-1.09c-0.18-0.2-0.43-0.31-0.74-0.31c-0.37,0-0.64,0.08-0.83,0.24s-0.32,0.41-0.39,0.74
		c-0.02,0.07-0.02,0.13-0.03,0.2s-0.01,0.14-0.02,0.22H50.39z"/>
	<path class="st2" d="M53.28,34.73c-0.01,0.01-0.03,0.01-0.09,0.01c-0.02,0-0.07,0.01-0.17,0.01c-0.34,0-0.59-0.1-0.71-0.29
		s-0.2-0.48-0.2-0.87v-5.43l0.73-0.11v5.52c0,0.27,0.03,0.43,0.09,0.5s0.18,0.11,0.34,0.11V34.73z"/>
	<path class="st2" d="M57.93,34.72c-0.06,0.01-0.1,0.02-0.12,0.02h-0.14c-0.23,0-0.4-0.04-0.51-0.13s-0.2-0.21-0.27-0.37
		c-0.16,0.15-0.37,0.28-0.62,0.39c-0.25,0.11-0.55,0.17-0.9,0.17c-0.27,0-0.49-0.04-0.66-0.11c-0.18-0.07-0.32-0.17-0.43-0.29
		s-0.19-0.26-0.23-0.43c-0.05-0.16-0.07-0.34-0.07-0.53c0-0.27,0.05-0.49,0.14-0.66c0.09-0.17,0.22-0.3,0.39-0.41
		c0.16-0.1,0.36-0.18,0.59-0.21c0.23-0.04,0.48-0.06,0.76-0.06c0.18,0,0.34,0,0.47,0.02c0.13,0.01,0.29,0.02,0.46,0.03v-0.23
		c0-0.21-0.02-0.4-0.05-0.55s-0.09-0.27-0.17-0.36s-0.19-0.16-0.33-0.2c-0.13-0.04-0.31-0.06-0.52-0.06c-0.25,0-0.49,0.04-0.74,0.11
		s-0.46,0.14-0.62,0.22l-0.18-0.51c0.22-0.1,0.48-0.19,0.77-0.27c0.3-0.08,0.62-0.12,0.96-0.12c0.3,0,0.56,0.03,0.77,0.09
		c0.21,0.06,0.38,0.16,0.5,0.3c0.12,0.14,0.21,0.33,0.26,0.56c0.05,0.23,0.08,0.51,0.08,0.84v1.59c0,0.23,0.04,0.38,0.1,0.46
		c0.07,0.09,0.17,0.12,0.31,0.12V34.72z M55.79,32.67c-0.4,0-0.67,0.06-0.82,0.19s-0.23,0.32-0.23,0.57c0,0.29,0.06,0.5,0.2,0.62
		c0.12,0.13,0.34,0.19,0.66,0.19c0.21,0,0.43-0.05,0.64-0.14c0.21-0.09,0.39-0.2,0.55-0.33v-1.06c-0.16-0.01-0.33-0.02-0.48-0.03
		C56.15,32.67,55.98,32.67,55.79,32.67z"/>
	<path class="st2" d="M59.69,30.88v2.17c0,0.19,0.01,0.36,0.02,0.5s0.05,0.27,0.11,0.36c0.05,0.1,0.14,0.17,0.26,0.22
		c0.11,0.05,0.26,0.08,0.45,0.08c0.27,0,0.53-0.05,0.8-0.14l0.13,0.51c-0.18,0.08-0.37,0.13-0.56,0.17c-0.2,0.04-0.4,0.06-0.59,0.06
		c-0.28,0-0.52-0.04-0.69-0.11c-0.18-0.08-0.31-0.18-0.41-0.32c-0.1-0.13-0.16-0.29-0.2-0.48c-0.03-0.19-0.05-0.39-0.05-0.6v-2.4
		h-0.75v-0.52l0.75-0.08v-0.92l0.72-0.12v1.04h1.66v0.58H59.69z"/>
	<path class="st2" d="M63.95,34.81c-0.38,0-0.7-0.05-0.96-0.14c-0.26-0.09-0.47-0.24-0.62-0.43c-0.16-0.2-0.27-0.43-0.34-0.73
		s-0.1-0.64-0.1-1.03c0-0.77,0.16-1.35,0.5-1.72c0.33-0.37,0.84-0.56,1.52-0.56c0.37,0,0.66,0.05,0.89,0.16
		c0.23,0.11,0.41,0.26,0.55,0.45c0.12,0.19,0.22,0.42,0.27,0.68s0.07,0.55,0.07,0.85v0.35h-3.04c0,0.25,0.02,0.46,0.05,0.63
		c0.09,0.35,0.24,0.59,0.46,0.71c0.21,0.13,0.5,0.2,0.87,0.2c0.31,0,0.59-0.04,0.83-0.12c0.23-0.08,0.42-0.16,0.56-0.23l0.2,0.5
		c-0.07,0.05-0.17,0.11-0.3,0.16s-0.27,0.1-0.41,0.14c-0.16,0.04-0.32,0.08-0.48,0.1C64.28,34.8,64.12,34.81,63.95,34.81z
		 M64.95,32.15c0-0.52-0.09-0.89-0.27-1.09c-0.18-0.2-0.43-0.31-0.74-0.31c-0.37,0-0.64,0.08-0.83,0.24s-0.32,0.41-0.39,0.74
		c-0.02,0.07-0.02,0.13-0.03,0.2s-0.01,0.14-0.02,0.22H64.95z"/>
	<path class="st2" d="M68.25,34.81c-0.62,0-1.08-0.2-1.37-0.58c-0.3-0.39-0.44-0.94-0.44-1.66c0-0.34,0.04-0.66,0.11-0.95
		c0.08-0.29,0.2-0.54,0.38-0.75c0.16-0.21,0.38-0.37,0.65-0.49s0.59-0.18,0.97-0.18c0.22,0,0.42,0.03,0.61,0.08
		c0.12,0.03,0.25,0.08,0.37,0.14v-2.26l0.72-0.11v5.52l0.08,1.12h-0.63l-0.09-0.31c-0.17,0.13-0.36,0.23-0.55,0.29
		C68.82,34.76,68.55,34.81,68.25,34.81z M68.61,30.76c-0.46,0-0.81,0.14-1.05,0.42s-0.36,0.75-0.36,1.39c0,0.23,0.02,0.44,0.05,0.64
		c0.04,0.2,0.1,0.37,0.2,0.53c0.09,0.15,0.23,0.27,0.38,0.36c0.16,0.09,0.38,0.14,0.62,0.14c0.26,0,0.49-0.05,0.69-0.16
		c0.06-0.03,0.12-0.07,0.19-0.11s0.12-0.09,0.19-0.14v-2.79C69.24,30.85,68.94,30.76,68.61,30.76z"/>
	<path class="st2" d="M77.06,34.45c-0.14,0.08-0.34,0.16-0.59,0.24c-0.27,0.07-0.55,0.11-0.85,0.11c-0.73,0-1.26-0.2-1.58-0.58
		s-0.48-0.94-0.48-1.66c0-0.79,0.19-1.39,0.55-1.78c0.38-0.39,0.93-0.59,1.66-0.59c0.27,0,0.53,0.05,0.77,0.14s0.44,0.22,0.58,0.38
		l-0.44,0.43c-0.11-0.12-0.24-0.22-0.4-0.29c-0.16-0.07-0.34-0.11-0.52-0.11c-0.48,0-0.85,0.15-1.1,0.44
		c-0.24,0.29-0.37,0.76-0.37,1.4c0,0.24,0.02,0.46,0.07,0.67c0.05,0.2,0.12,0.37,0.23,0.52c0.12,0.14,0.26,0.26,0.44,0.34
		c0.17,0.08,0.39,0.12,0.63,0.12c0.26,0,0.48-0.03,0.68-0.08s0.38-0.12,0.55-0.2L77.06,34.45z"/>
	<path class="st2" d="M81.49,34.72c-0.06,0.01-0.1,0.02-0.12,0.02h-0.14c-0.23,0-0.4-0.04-0.51-0.13s-0.2-0.21-0.27-0.37
		c-0.16,0.15-0.37,0.28-0.62,0.39c-0.25,0.11-0.55,0.17-0.9,0.17c-0.27,0-0.49-0.04-0.66-0.11c-0.18-0.07-0.32-0.17-0.43-0.29
		s-0.19-0.26-0.23-0.43c-0.05-0.16-0.07-0.34-0.07-0.53c0-0.27,0.05-0.49,0.14-0.66c0.09-0.17,0.22-0.3,0.39-0.41
		c0.16-0.1,0.36-0.18,0.59-0.21c0.23-0.04,0.48-0.06,0.76-0.06c0.18,0,0.34,0,0.47,0.02c0.13,0.01,0.29,0.02,0.46,0.03v-0.23
		c0-0.21-0.02-0.4-0.05-0.55s-0.09-0.27-0.17-0.36s-0.19-0.16-0.33-0.2c-0.13-0.04-0.31-0.06-0.52-0.06c-0.25,0-0.49,0.04-0.74,0.11
		s-0.46,0.14-0.62,0.22l-0.18-0.51c0.22-0.1,0.48-0.19,0.77-0.27c0.3-0.08,0.62-0.12,0.96-0.12c0.3,0,0.56,0.03,0.77,0.09
		c0.21,0.06,0.38,0.16,0.5,0.3c0.12,0.14,0.21,0.33,0.26,0.56c0.05,0.23,0.08,0.51,0.08,0.84v1.59c0,0.23,0.04,0.38,0.1,0.46
		c0.07,0.09,0.17,0.12,0.31,0.12V34.72z M79.35,32.67c-0.4,0-0.67,0.06-0.82,0.19s-0.23,0.32-0.23,0.57c0,0.29,0.06,0.5,0.2,0.62
		c0.12,0.13,0.34,0.19,0.66,0.19c0.21,0,0.43-0.05,0.64-0.14c0.21-0.09,0.39-0.2,0.55-0.33v-1.06c-0.16-0.01-0.33-0.02-0.48-0.03
		C79.71,32.67,79.54,32.67,79.35,32.67z"/>
	<path class="st2" d="M83.97,34.81c-0.23,0-0.43-0.03-0.61-0.09c-0.13-0.03-0.3-0.09-0.48-0.19L82.8,34.7h-0.54v-6.54L83,28.06v2.52
		c0.15-0.1,0.3-0.18,0.47-0.24c0.26-0.09,0.52-0.14,0.8-0.14c0.62,0,1.08,0.2,1.37,0.58s0.44,0.94,0.44,1.66
		c0,0.34-0.04,0.66-0.12,0.96c-0.08,0.29-0.2,0.54-0.37,0.75s-0.39,0.37-0.66,0.49C84.66,34.75,84.34,34.81,83.97,34.81z
		 M83.9,34.24c0.45,0,0.8-0.14,1.05-0.42s0.37-0.74,0.37-1.39c0-0.22-0.02-0.44-0.05-0.64c-0.04-0.2-0.11-0.38-0.2-0.53
		c-0.1-0.15-0.23-0.27-0.38-0.36c-0.16-0.09-0.37-0.13-0.62-0.13c-0.26,0-0.48,0.05-0.7,0.16c-0.12,0.07-0.24,0.15-0.36,0.25v2.78
		C83.26,34.15,83.55,34.24,83.9,34.24z"/>
	<path class="st2" d="M88.2,34.73c-0.01,0.01-0.03,0.01-0.09,0.01c-0.02,0-0.07,0.01-0.17,0.01c-0.34,0-0.59-0.1-0.71-0.29
		s-0.2-0.48-0.2-0.87v-5.43l0.73-0.11v5.52c0,0.27,0.03,0.43,0.09,0.5s0.18,0.11,0.34,0.11V34.73z"/>
	<path class="st2" d="M89.04,28.49h0.74v0.77h-0.74V28.49z M89.05,30.3h0.73v4.4h-0.73V30.3z"/>
	<path class="st2" d="M91.6,30.3l0.03,0.39c0.18-0.12,0.38-0.23,0.59-0.32c0.32-0.12,0.64-0.18,0.96-0.18
		c0.29,0,0.53,0.04,0.72,0.11c0.18,0.07,0.33,0.18,0.44,0.32s0.19,0.32,0.23,0.52s0.06,0.45,0.06,0.71v2.83h-0.73v-2.67
		c0-0.19-0.01-0.36-0.03-0.51c-0.02-0.16-0.06-0.29-0.12-0.39s-0.16-0.19-0.27-0.25S93.2,30.8,93,30.8c-0.16,0-0.33,0.02-0.48,0.07
		s-0.3,0.11-0.45,0.18c-0.12,0.05-0.23,0.12-0.34,0.2v3.46h-0.73v-3.23l-0.07-1.17H91.6z"/>
	<path class="st2" d="M99.36,30.3v4.61c0,0.36-0.05,0.66-0.15,0.91s-0.23,0.45-0.41,0.6c-0.18,0.15-0.39,0.27-0.64,0.34
		s-0.52,0.11-0.83,0.11c-0.28,0-0.55-0.02-0.77-0.06c-0.23-0.04-0.43-0.09-0.6-0.15l0.19-0.56c0.14,0.05,0.31,0.09,0.51,0.13
		c0.2,0.04,0.42,0.06,0.67,0.06c0.18,0,0.35-0.02,0.51-0.06c0.16-0.04,0.3-0.11,0.42-0.21c0.12-0.1,0.21-0.23,0.27-0.4
		c0.07-0.16,0.1-0.37,0.1-0.62v-0.53c-0.18,0.1-0.38,0.18-0.57,0.25c-0.2,0.07-0.41,0.1-0.66,0.1c-0.65,0-1.12-0.19-1.41-0.57
		c-0.29-0.39-0.44-0.94-0.44-1.65c0-0.35,0.04-0.66,0.11-0.96c0.07-0.29,0.2-0.54,0.37-0.75c0.16-0.21,0.39-0.38,0.66-0.49
		s0.59-0.18,0.98-0.18c0.23,0,0.43,0.03,0.6,0.08s0.33,0.11,0.48,0.18l0.05-0.16H99.36z M98.63,31c-0.12-0.05-0.26-0.11-0.41-0.16
		c-0.14-0.05-0.3-0.08-0.48-0.08c-0.5,0-0.86,0.14-1.09,0.43c-0.23,0.29-0.35,0.75-0.35,1.39c0,0.21,0.02,0.41,0.05,0.61
		s0.11,0.38,0.2,0.54c0.09,0.16,0.23,0.28,0.39,0.37c0.17,0.09,0.38,0.14,0.65,0.14c0.2,0,0.38-0.03,0.54-0.09
		c0.16-0.06,0.33-0.15,0.49-0.25V31z"/>
	<path class="st2" d="M106.56,34.72c-0.06,0.01-0.1,0.02-0.12,0.02h-0.14c-0.23,0-0.4-0.04-0.51-0.13s-0.2-0.21-0.27-0.37
		c-0.16,0.15-0.37,0.28-0.62,0.39c-0.25,0.11-0.55,0.17-0.9,0.17c-0.27,0-0.49-0.04-0.66-0.11c-0.18-0.07-0.32-0.17-0.43-0.29
		s-0.19-0.26-0.23-0.43c-0.05-0.16-0.07-0.34-0.07-0.53c0-0.27,0.05-0.49,0.14-0.66c0.09-0.17,0.22-0.3,0.39-0.41
		c0.16-0.1,0.36-0.18,0.59-0.21c0.23-0.04,0.48-0.06,0.76-0.06c0.18,0,0.34,0,0.47,0.02c0.13,0.01,0.29,0.02,0.46,0.03v-0.23
		c0-0.21-0.02-0.4-0.05-0.55s-0.09-0.27-0.17-0.36s-0.19-0.16-0.33-0.2c-0.13-0.04-0.31-0.06-0.52-0.06c-0.25,0-0.49,0.04-0.74,0.11
		s-0.46,0.14-0.62,0.22l-0.18-0.51c0.22-0.1,0.48-0.19,0.77-0.27c0.3-0.08,0.62-0.12,0.96-0.12c0.3,0,0.56,0.03,0.77,0.09
		c0.21,0.06,0.38,0.16,0.5,0.3c0.12,0.14,0.21,0.33,0.26,0.56c0.05,0.23,0.08,0.51,0.08,0.84v1.59c0,0.23,0.04,0.38,0.1,0.46
		c0.07,0.09,0.17,0.12,0.31,0.12V34.72z M104.42,32.67c-0.4,0-0.67,0.06-0.82,0.19s-0.23,0.32-0.23,0.57c0,0.29,0.06,0.5,0.2,0.62
		c0.12,0.13,0.34,0.19,0.66,0.19c0.21,0,0.43-0.05,0.64-0.14c0.21-0.09,0.39-0.2,0.55-0.33v-1.06c-0.16-0.01-0.33-0.02-0.48-0.03
		C104.78,32.67,104.61,32.67,104.42,32.67z"/>
	<path class="st2" d="M107.94,30.3l0.03,0.39c0.18-0.12,0.38-0.23,0.59-0.32c0.32-0.12,0.64-0.18,0.96-0.18
		c0.29,0,0.53,0.04,0.72,0.11c0.18,0.07,0.33,0.18,0.44,0.32s0.19,0.32,0.23,0.52s0.06,0.45,0.06,0.71v2.83h-0.73v-2.67
		c0-0.19-0.01-0.36-0.03-0.51c-0.02-0.16-0.06-0.29-0.12-0.39s-0.16-0.19-0.27-0.25s-0.27-0.09-0.48-0.09
		c-0.16,0-0.33,0.02-0.48,0.07s-0.3,0.11-0.45,0.18c-0.12,0.05-0.23,0.12-0.34,0.2v3.46h-0.73v-3.23l-0.07-1.17H107.94z"/>
	<path class="st2" d="M113.69,34.81c-0.62,0-1.08-0.2-1.37-0.58c-0.3-0.39-0.44-0.94-0.44-1.66c0-0.34,0.04-0.66,0.11-0.95
		c0.08-0.29,0.2-0.54,0.38-0.75c0.16-0.21,0.38-0.37,0.65-0.49s0.59-0.18,0.97-0.18c0.22,0,0.42,0.03,0.61,0.08
		c0.12,0.03,0.25,0.08,0.37,0.14v-2.26l0.72-0.11v5.52l0.08,1.12h-0.63l-0.09-0.31c-0.17,0.13-0.36,0.23-0.55,0.29
		C114.26,34.76,114,34.81,113.69,34.81z M114.05,30.76c-0.46,0-0.81,0.14-1.05,0.42s-0.36,0.75-0.36,1.39
		c0,0.23,0.02,0.44,0.05,0.64c0.04,0.2,0.1,0.37,0.2,0.53c0.09,0.15,0.23,0.27,0.38,0.36c0.16,0.09,0.38,0.14,0.62,0.14
		c0.26,0,0.49-0.05,0.69-0.16c0.06-0.03,0.12-0.07,0.19-0.11s0.12-0.09,0.19-0.14v-2.79C114.69,30.85,114.38,30.76,114.05,30.76z"/>
	<path class="st2" d="M119.84,30.3l0.03,0.38c0.07-0.05,0.16-0.11,0.24-0.16c0.09-0.05,0.19-0.09,0.29-0.14
		c0.28-0.12,0.58-0.18,0.9-0.18c0.28,0,0.52,0.04,0.7,0.11c0.17,0.07,0.31,0.18,0.41,0.32l0.05,0.08c0.18-0.14,0.38-0.25,0.59-0.33
		c0.31-0.12,0.62-0.18,0.95-0.18c0.28,0,0.51,0.04,0.69,0.11c0.17,0.07,0.31,0.18,0.41,0.32s0.17,0.32,0.21,0.52
		c0.03,0.21,0.05,0.45,0.05,0.71v2.83h-0.72v-2.67c0-0.19-0.01-0.36-0.02-0.51c-0.02-0.16-0.06-0.29-0.12-0.39
		c-0.06-0.11-0.14-0.19-0.25-0.25c-0.1-0.06-0.24-0.09-0.42-0.09c-0.16,0-0.32,0.02-0.47,0.07s-0.29,0.11-0.42,0.18
		c-0.05,0.02-0.11,0.05-0.16,0.09c-0.05,0.03-0.1,0.07-0.16,0.11c0.02,0.09,0.02,0.2,0.03,0.3s0.01,0.22,0.01,0.33v2.83h-0.73v-2.67
		c0-0.19-0.01-0.36-0.02-0.51c-0.02-0.16-0.05-0.29-0.11-0.39c-0.06-0.11-0.14-0.19-0.25-0.25c-0.1-0.06-0.25-0.09-0.43-0.09
		c-0.31,0-0.61,0.08-0.89,0.25c-0.05,0.02-0.09,0.05-0.13,0.08c-0.05,0.03-0.09,0.06-0.13,0.09v3.48h-0.73v-3.23l-0.07-1.17H119.84z
		"/>
	<path class="st2" d="M128.24,34.81c-0.38,0-0.69-0.05-0.94-0.16c-0.25-0.11-0.45-0.26-0.6-0.46c-0.15-0.2-0.26-0.45-0.31-0.73
		c-0.06-0.29-0.09-0.61-0.09-0.98c0-0.77,0.17-1.35,0.51-1.72s0.89-0.56,1.64-0.56c0.38,0,0.69,0.05,0.94,0.16s0.45,0.26,0.6,0.46
		c0.16,0.2,0.26,0.45,0.33,0.73c0.06,0.29,0.09,0.61,0.09,0.98c0,0.77-0.18,1.34-0.53,1.71C129.52,34.62,128.98,34.81,128.24,34.81z
		 M128.24,34.24c0.54,0,0.91-0.15,1.11-0.45s0.3-0.75,0.3-1.35c0-0.23-0.02-0.45-0.05-0.65c-0.03-0.2-0.09-0.38-0.19-0.54
		c-0.09-0.16-0.21-0.28-0.37-0.37s-0.36-0.14-0.6-0.14c-0.54,0-0.91,0.16-1.11,0.47c-0.2,0.31-0.3,0.76-0.3,1.35
		c0,0.24,0.02,0.46,0.05,0.66c0.04,0.2,0.1,0.38,0.19,0.53c0.09,0.15,0.21,0.27,0.38,0.36C127.8,34.2,128,34.24,128.24,34.24z"/>
	<path class="st2" d="M134.96,33.53l0.07,1.17h-0.68l-0.05-0.38c-0.16,0.11-0.35,0.21-0.58,0.3c-0.34,0.13-0.66,0.19-0.96,0.19
		c-0.29,0-0.52-0.04-0.71-0.11c-0.18-0.07-0.33-0.18-0.43-0.32c-0.11-0.14-0.18-0.32-0.23-0.52c-0.04-0.21-0.06-0.45-0.06-0.73V30.3
		h0.72v2.67c0,0.18,0.02,0.36,0.04,0.51s0.06,0.29,0.12,0.39c0.05,0.11,0.15,0.19,0.27,0.25c0.12,0.05,0.27,0.09,0.47,0.09
		c0.16,0,0.33-0.02,0.48-0.07c0.16-0.04,0.3-0.1,0.45-0.17l0.35-0.2V30.3h0.73V33.53z"/>
	<path class="st2" d="M136.77,30.3l0.03,0.39c0.18-0.12,0.38-0.23,0.59-0.32c0.32-0.12,0.64-0.18,0.96-0.18
		c0.29,0,0.53,0.04,0.72,0.11c0.18,0.07,0.33,0.18,0.44,0.32s0.19,0.32,0.23,0.52s0.06,0.45,0.06,0.71v2.83h-0.73v-2.67
		c0-0.19-0.01-0.36-0.03-0.51c-0.02-0.16-0.06-0.29-0.12-0.39s-0.16-0.19-0.27-0.25s-0.27-0.09-0.48-0.09
		c-0.16,0-0.33,0.02-0.48,0.07s-0.3,0.11-0.45,0.18c-0.12,0.05-0.23,0.12-0.34,0.2v3.46h-0.73v-3.23l-0.07-1.17H136.77z"/>
	<path class="st2" d="M141.94,30.88v2.17c0,0.19,0.01,0.36,0.02,0.5s0.05,0.27,0.11,0.36c0.05,0.1,0.14,0.17,0.26,0.22
		c0.11,0.05,0.26,0.08,0.45,0.08c0.27,0,0.53-0.05,0.8-0.14l0.13,0.51c-0.18,0.08-0.37,0.13-0.56,0.17c-0.2,0.04-0.4,0.06-0.59,0.06
		c-0.28,0-0.52-0.04-0.69-0.11c-0.18-0.08-0.31-0.18-0.41-0.32c-0.1-0.13-0.16-0.29-0.2-0.48c-0.03-0.19-0.05-0.39-0.05-0.6v-2.4
		h-0.75v-0.52l0.75-0.08v-0.92l0.72-0.12v1.04h1.66v0.58H141.94z"/>
	<path class="st2" d="M144.44,28.49h0.74v0.77h-0.74V28.49z M144.44,30.3h0.73v4.4h-0.73V30.3z"/>
	<path class="st2" d="M147,30.3l0.03,0.39c0.18-0.12,0.38-0.23,0.59-0.32c0.32-0.12,0.64-0.18,0.96-0.18c0.29,0,0.53,0.04,0.72,0.11
		c0.18,0.07,0.33,0.18,0.44,0.32s0.19,0.32,0.23,0.52s0.06,0.45,0.06,0.71v2.83h-0.73v-2.67c0-0.19-0.01-0.36-0.03-0.51
		c-0.02-0.16-0.06-0.29-0.12-0.39s-0.16-0.19-0.27-0.25s-0.27-0.09-0.48-0.09c-0.16,0-0.33,0.02-0.48,0.07s-0.3,0.11-0.45,0.18
		c-0.12,0.05-0.23,0.12-0.34,0.2v3.46h-0.73v-3.23l-0.07-1.17H147z"/>
	<path class="st2" d="M154.76,30.3v4.61c0,0.36-0.05,0.66-0.15,0.91s-0.23,0.45-0.41,0.6c-0.18,0.15-0.39,0.27-0.64,0.34
		s-0.52,0.11-0.83,0.11c-0.28,0-0.55-0.02-0.77-0.06c-0.23-0.04-0.43-0.09-0.6-0.15l0.19-0.56c0.14,0.05,0.31,0.09,0.51,0.13
		c0.2,0.04,0.42,0.06,0.67,0.06c0.18,0,0.35-0.02,0.51-0.06c0.16-0.04,0.3-0.11,0.42-0.21c0.12-0.1,0.21-0.23,0.27-0.4
		c0.07-0.16,0.1-0.37,0.1-0.62v-0.53c-0.18,0.1-0.38,0.18-0.57,0.25c-0.2,0.07-0.41,0.1-0.66,0.1c-0.65,0-1.12-0.19-1.41-0.57
		c-0.29-0.39-0.44-0.94-0.44-1.65c0-0.35,0.04-0.66,0.11-0.96c0.07-0.29,0.2-0.54,0.37-0.75c0.16-0.21,0.39-0.38,0.66-0.49
		s0.59-0.18,0.98-0.18c0.23,0,0.43,0.03,0.6,0.08s0.33,0.11,0.48,0.18l0.05-0.16H154.76z M154.03,31c-0.12-0.05-0.26-0.11-0.41-0.16
		c-0.14-0.05-0.3-0.08-0.48-0.08c-0.5,0-0.86,0.14-1.09,0.43c-0.23,0.29-0.35,0.75-0.35,1.39c0,0.21,0.02,0.41,0.05,0.61
		s0.11,0.38,0.2,0.54c0.09,0.16,0.23,0.28,0.39,0.37c0.17,0.09,0.38,0.14,0.65,0.14c0.2,0,0.38-0.03,0.54-0.09
		c0.16-0.06,0.33-0.15,0.49-0.25V31z"/>
	<path class="st2" d="M17.27,44.32c-0.06,0.01-0.1,0.02-0.12,0.02h-0.14c-0.23,0-0.4-0.04-0.51-0.13s-0.2-0.21-0.27-0.37
		c-0.16,0.15-0.37,0.28-0.62,0.39c-0.25,0.11-0.55,0.17-0.9,0.17c-0.27,0-0.49-0.04-0.66-0.11c-0.18-0.07-0.32-0.17-0.43-0.29
		s-0.19-0.26-0.23-0.43c-0.05-0.16-0.07-0.34-0.07-0.53c0-0.27,0.05-0.49,0.14-0.66c0.09-0.17,0.22-0.3,0.39-0.41
		c0.16-0.1,0.36-0.18,0.59-0.21c0.23-0.04,0.48-0.06,0.76-0.06c0.18,0,0.34,0,0.47,0.02c0.13,0.01,0.29,0.02,0.46,0.03v-0.23
		c0-0.21-0.02-0.4-0.05-0.55s-0.09-0.27-0.17-0.36s-0.19-0.16-0.33-0.2c-0.13-0.04-0.31-0.06-0.52-0.06c-0.25,0-0.49,0.04-0.74,0.11
		s-0.46,0.14-0.62,0.22l-0.18-0.51c0.22-0.1,0.48-0.19,0.77-0.27c0.3-0.08,0.62-0.12,0.96-0.12c0.3,0,0.56,0.03,0.77,0.09
		c0.21,0.06,0.38,0.16,0.5,0.3c0.12,0.14,0.21,0.33,0.26,0.56c0.05,0.23,0.08,0.51,0.08,0.84v1.59c0,0.23,0.04,0.38,0.1,0.46
		c0.07,0.09,0.17,0.12,0.31,0.12V44.32z M15.13,42.26c-0.4,0-0.67,0.06-0.82,0.19s-0.23,0.32-0.23,0.57c0,0.29,0.06,0.5,0.2,0.62
		c0.12,0.13,0.34,0.19,0.66,0.19c0.21,0,0.43-0.05,0.64-0.14c0.21-0.09,0.39-0.2,0.55-0.33v-1.06c-0.16-0.01-0.33-0.02-0.48-0.03
		C15.49,42.27,15.32,42.26,15.13,42.26z"/>
	<path class="st2" d="M21.32,44.05c-0.14,0.08-0.34,0.16-0.59,0.24c-0.27,0.07-0.55,0.11-0.85,0.11c-0.73,0-1.26-0.2-1.58-0.58
		s-0.48-0.94-0.48-1.66c0-0.79,0.19-1.39,0.55-1.78c0.38-0.39,0.93-0.59,1.66-0.59c0.27,0,0.53,0.05,0.77,0.14s0.44,0.22,0.58,0.38
		l-0.44,0.43c-0.11-0.12-0.24-0.22-0.4-0.29c-0.16-0.07-0.34-0.11-0.52-0.11c-0.48,0-0.85,0.15-1.1,0.44
		c-0.24,0.29-0.37,0.76-0.37,1.4c0,0.24,0.02,0.46,0.07,0.67c0.05,0.2,0.12,0.37,0.23,0.52c0.12,0.14,0.26,0.26,0.44,0.34
		c0.17,0.08,0.39,0.12,0.63,0.12c0.26,0,0.48-0.03,0.68-0.08s0.38-0.12,0.55-0.2L21.32,44.05z"/>
	<path class="st2" d="M25.23,44.05c-0.14,0.08-0.34,0.16-0.59,0.24c-0.27,0.07-0.55,0.11-0.85,0.11c-0.73,0-1.26-0.2-1.58-0.58
		s-0.48-0.94-0.48-1.66c0-0.79,0.19-1.39,0.55-1.78c0.38-0.39,0.93-0.59,1.66-0.59c0.27,0,0.53,0.05,0.77,0.14s0.44,0.22,0.58,0.38
		l-0.44,0.43c-0.11-0.12-0.24-0.22-0.4-0.29c-0.16-0.07-0.34-0.11-0.52-0.11c-0.48,0-0.85,0.15-1.1,0.44
		c-0.24,0.29-0.37,0.76-0.37,1.4c0,0.24,0.02,0.46,0.07,0.67c0.05,0.2,0.12,0.37,0.23,0.52c0.12,0.14,0.26,0.26,0.44,0.34
		c0.17,0.08,0.39,0.12,0.63,0.12c0.26,0,0.48-0.03,0.68-0.08s0.38-0.12,0.55-0.2L25.23,44.05z"/>
	<path class="st2" d="M27.68,44.41c-0.38,0-0.7-0.05-0.96-0.14c-0.26-0.09-0.47-0.24-0.62-0.43c-0.16-0.2-0.27-0.43-0.34-0.73
		s-0.1-0.64-0.1-1.03c0-0.77,0.16-1.35,0.5-1.72c0.33-0.37,0.84-0.56,1.52-0.56c0.37,0,0.66,0.05,0.89,0.16
		c0.23,0.11,0.41,0.26,0.55,0.45c0.12,0.19,0.22,0.42,0.27,0.68s0.07,0.55,0.07,0.85v0.35H26.4c0,0.25,0.02,0.46,0.05,0.63
		c0.09,0.35,0.24,0.59,0.46,0.71c0.21,0.13,0.5,0.2,0.88,0.2c0.31,0,0.59-0.04,0.83-0.12c0.23-0.08,0.42-0.16,0.56-0.23l0.2,0.5
		c-0.07,0.05-0.17,0.11-0.3,0.16s-0.27,0.1-0.41,0.14c-0.16,0.04-0.32,0.08-0.48,0.1C28.01,44.39,27.84,44.41,27.68,44.41z
		 M28.68,41.75c0-0.52-0.09-0.89-0.27-1.09c-0.18-0.2-0.43-0.31-0.74-0.31c-0.37,0-0.64,0.08-0.83,0.24s-0.32,0.41-0.39,0.74
		c-0.02,0.07-0.02,0.13-0.03,0.2s-0.01,0.14-0.02,0.22H28.68z"/>
	<path class="st2" d="M31.41,41.55c0.15,0.08,0.34,0.15,0.57,0.23s0.46,0.16,0.68,0.25c0.25,0.1,0.45,0.23,0.62,0.39
		c0.16,0.16,0.25,0.4,0.25,0.71c0,0.44-0.16,0.76-0.48,0.96c-0.32,0.2-0.78,0.3-1.38,0.3c-0.28,0-0.56-0.03-0.84-0.08
		s-0.51-0.13-0.7-0.23l0.23-0.55c0.16,0.09,0.34,0.15,0.57,0.2s0.48,0.08,0.75,0.08c0.14,0,0.27-0.01,0.41-0.03
		c0.14-0.02,0.26-0.04,0.36-0.09c0.1-0.04,0.19-0.11,0.25-0.19s0.09-0.2,0.09-0.34c0-0.28-0.18-0.48-0.53-0.61
		c-0.21-0.09-0.42-0.17-0.66-0.25c-0.23-0.07-0.44-0.15-0.62-0.23c-0.23-0.09-0.42-0.21-0.56-0.37c-0.15-0.15-0.23-0.38-0.23-0.67
		c0-0.23,0.05-0.43,0.16-0.6c0.1-0.16,0.24-0.29,0.41-0.39c0.17-0.09,0.37-0.16,0.58-0.21c0.21-0.04,0.42-0.06,0.63-0.06
		c0.33,0,0.62,0.03,0.86,0.08s0.45,0.11,0.61,0.18l-0.23,0.55c-0.17-0.07-0.36-0.13-0.56-0.18c-0.21-0.05-0.44-0.07-0.7-0.07
		c-0.38,0-0.66,0.06-0.81,0.18s-0.23,0.26-0.23,0.42c0,0.14,0.04,0.26,0.12,0.35C31.1,41.4,31.23,41.48,31.41,41.55z"/>
	<path class="st2" d="M35.44,41.55c0.15,0.08,0.34,0.15,0.57,0.23s0.46,0.16,0.68,0.25c0.25,0.1,0.45,0.23,0.62,0.39
		c0.16,0.16,0.25,0.4,0.25,0.71c0,0.44-0.16,0.76-0.48,0.96c-0.32,0.2-0.78,0.3-1.38,0.3c-0.28,0-0.56-0.03-0.84-0.08
		s-0.51-0.13-0.7-0.23l0.23-0.55c0.16,0.09,0.34,0.15,0.57,0.2s0.48,0.08,0.75,0.08c0.14,0,0.27-0.01,0.41-0.03
		c0.14-0.02,0.26-0.04,0.36-0.09c0.1-0.04,0.19-0.11,0.25-0.19s0.09-0.2,0.09-0.34c0-0.28-0.18-0.48-0.53-0.61
		c-0.21-0.09-0.42-0.17-0.66-0.25c-0.23-0.07-0.44-0.15-0.62-0.23c-0.23-0.09-0.42-0.21-0.56-0.37c-0.15-0.15-0.23-0.38-0.23-0.67
		c0-0.23,0.05-0.43,0.16-0.6c0.1-0.16,0.24-0.29,0.41-0.39c0.17-0.09,0.37-0.16,0.58-0.21c0.21-0.04,0.42-0.06,0.63-0.06
		c0.33,0,0.62,0.03,0.86,0.08s0.45,0.11,0.61,0.18l-0.23,0.55c-0.17-0.07-0.36-0.13-0.56-0.18c-0.21-0.05-0.44-0.07-0.7-0.07
		c-0.38,0-0.66,0.06-0.81,0.18s-0.23,0.26-0.23,0.42c0,0.14,0.04,0.26,0.12,0.35C35.13,41.4,35.26,41.48,35.44,41.55z"/>
	<path class="st2" d="M40.19,44.41c-0.38,0-0.69-0.05-0.94-0.16c-0.25-0.11-0.45-0.26-0.6-0.46c-0.15-0.2-0.26-0.45-0.31-0.73
		c-0.06-0.29-0.09-0.61-0.09-0.98c0-0.77,0.17-1.35,0.51-1.72s0.89-0.56,1.64-0.56c0.38,0,0.69,0.05,0.94,0.16s0.45,0.26,0.6,0.46
		c0.16,0.2,0.26,0.45,0.33,0.73c0.06,0.29,0.09,0.61,0.09,0.98c0,0.77-0.18,1.34-0.53,1.71C41.47,44.22,40.93,44.41,40.19,44.41z
		 M40.19,43.84c0.54,0,0.91-0.15,1.11-0.45s0.3-0.75,0.3-1.35c0-0.23-0.02-0.45-0.05-0.65c-0.03-0.2-0.09-0.38-0.19-0.54
		c-0.09-0.16-0.21-0.28-0.37-0.37s-0.36-0.14-0.6-0.14c-0.54,0-0.91,0.16-1.11,0.47c-0.2,0.31-0.3,0.76-0.3,1.35
		c0,0.24,0.02,0.46,0.05,0.66c0.04,0.2,0.1,0.38,0.19,0.53c0.09,0.15,0.21,0.27,0.38,0.36C39.75,43.8,39.94,43.84,40.19,43.84z"/>
	<path class="st2" d="M43.91,39.9l0.08,0.61c0.18-0.21,0.38-0.38,0.59-0.48c0.29-0.15,0.59-0.23,0.88-0.23
		c0.24,0,0.44,0.04,0.59,0.12l-0.2,0.61c-0.12-0.06-0.3-0.09-0.51-0.09c-0.27,0-0.52,0.08-0.76,0.24c-0.09,0.06-0.17,0.12-0.25,0.2
		c-0.09,0.07-0.16,0.16-0.25,0.25v3.18h-0.73v-3.2l-0.11-1.2H43.91z"/>
	<path class="st2" d="M46.48,38.09h0.74v0.77h-0.74V38.09z M46.48,39.9h0.73v4.4h-0.73V39.9z"/>
	<path class="st2" d="M50.23,44.41c-0.38,0-0.7-0.05-0.96-0.14c-0.26-0.09-0.47-0.24-0.62-0.43c-0.16-0.2-0.27-0.43-0.34-0.73
		s-0.1-0.64-0.1-1.03c0-0.77,0.16-1.35,0.5-1.72c0.33-0.37,0.84-0.56,1.52-0.56c0.37,0,0.66,0.05,0.89,0.16
		c0.23,0.11,0.41,0.26,0.55,0.45c0.12,0.19,0.22,0.42,0.27,0.68s0.07,0.55,0.07,0.85v0.35h-3.04c0,0.25,0.02,0.46,0.05,0.63
		c0.09,0.35,0.24,0.59,0.46,0.71c0.21,0.13,0.5,0.2,0.88,0.2c0.31,0,0.59-0.04,0.83-0.12c0.23-0.08,0.42-0.16,0.56-0.23l0.2,0.5
		c-0.07,0.05-0.17,0.11-0.3,0.16s-0.27,0.1-0.41,0.14c-0.16,0.04-0.32,0.08-0.48,0.1C50.56,44.39,50.4,44.41,50.23,44.41z
		 M51.23,41.75c0-0.52-0.09-0.89-0.27-1.09c-0.18-0.2-0.43-0.31-0.74-0.31c-0.37,0-0.64,0.08-0.83,0.24s-0.32,0.41-0.39,0.74
		c-0.02,0.07-0.02,0.13-0.03,0.2s-0.01,0.14-0.02,0.22H51.23z"/>
	<path class="st2" d="M53.96,41.55c0.15,0.08,0.34,0.15,0.57,0.23s0.46,0.16,0.68,0.25c0.25,0.1,0.45,0.23,0.62,0.39
		c0.16,0.16,0.25,0.4,0.25,0.71c0,0.44-0.16,0.76-0.48,0.96c-0.32,0.2-0.78,0.3-1.38,0.3c-0.28,0-0.56-0.03-0.84-0.08
		s-0.51-0.13-0.7-0.23l0.23-0.55c0.16,0.09,0.34,0.15,0.57,0.2s0.48,0.08,0.75,0.08c0.14,0,0.27-0.01,0.41-0.03
		c0.14-0.02,0.26-0.04,0.36-0.09c0.1-0.04,0.19-0.11,0.25-0.19s0.09-0.2,0.09-0.34c0-0.28-0.18-0.48-0.53-0.61
		c-0.21-0.09-0.42-0.17-0.66-0.25c-0.23-0.07-0.44-0.15-0.62-0.23c-0.23-0.09-0.42-0.21-0.56-0.37c-0.15-0.15-0.23-0.38-0.23-0.67
		c0-0.23,0.05-0.43,0.16-0.6c0.1-0.16,0.24-0.29,0.41-0.39c0.17-0.09,0.37-0.16,0.58-0.21c0.21-0.04,0.42-0.06,0.63-0.06
		c0.33,0,0.62,0.03,0.86,0.08s0.45,0.11,0.61,0.18l-0.23,0.55c-0.17-0.07-0.36-0.13-0.56-0.18c-0.21-0.05-0.44-0.07-0.7-0.07
		c-0.38,0-0.66,0.06-0.81,0.18s-0.23,0.26-0.23,0.42c0,0.14,0.04,0.26,0.12,0.35C53.66,41.4,53.78,41.48,53.96,41.55z"/>
	<path class="st2" d="M56.47,45.39c0.15-0.31,0.27-0.62,0.34-0.91c0.08-0.3,0.12-0.62,0.12-0.99h0.71
		c-0.01,0.48-0.07,0.88-0.19,1.22c-0.12,0.33-0.28,0.66-0.5,0.98L56.47,45.39z"/>
	<path class="st2" d="M62.04,41.55c0.15,0.08,0.34,0.15,0.57,0.23s0.46,0.16,0.68,0.25c0.25,0.1,0.45,0.23,0.62,0.39
		c0.16,0.16,0.25,0.4,0.25,0.71c0,0.44-0.16,0.76-0.48,0.96c-0.32,0.2-0.78,0.3-1.38,0.3c-0.28,0-0.56-0.03-0.84-0.08
		s-0.51-0.13-0.7-0.23l0.23-0.55c0.16,0.09,0.34,0.15,0.57,0.2s0.48,0.08,0.75,0.08c0.14,0,0.27-0.01,0.41-0.03
		c0.14-0.02,0.26-0.04,0.36-0.09c0.1-0.04,0.19-0.11,0.25-0.19s0.09-0.2,0.09-0.34c0-0.28-0.18-0.48-0.53-0.61
		c-0.21-0.09-0.42-0.17-0.66-0.25c-0.23-0.07-0.44-0.15-0.62-0.23c-0.23-0.09-0.42-0.21-0.56-0.37c-0.15-0.15-0.23-0.38-0.23-0.67
		c0-0.23,0.05-0.43,0.16-0.6c0.1-0.16,0.24-0.29,0.41-0.39c0.17-0.09,0.37-0.16,0.58-0.21c0.21-0.04,0.42-0.06,0.63-0.06
		c0.33,0,0.62,0.03,0.86,0.08s0.45,0.11,0.61,0.18l-0.23,0.55c-0.17-0.07-0.36-0.13-0.56-0.18c-0.21-0.05-0.44-0.07-0.7-0.07
		c-0.38,0-0.66,0.06-0.81,0.18s-0.23,0.26-0.23,0.42c0,0.14,0.04,0.26,0.12,0.35C61.73,41.4,61.86,41.48,62.04,41.55z"/>
	<path class="st2" d="M66.05,40.48v2.17c0,0.19,0.01,0.36,0.02,0.5s0.05,0.27,0.11,0.36c0.05,0.1,0.14,0.17,0.26,0.22
		c0.11,0.05,0.26,0.08,0.45,0.08c0.27,0,0.53-0.05,0.8-0.14l0.13,0.51c-0.18,0.08-0.37,0.13-0.56,0.17c-0.2,0.04-0.4,0.06-0.59,0.06
		c-0.28,0-0.52-0.04-0.69-0.11c-0.18-0.08-0.31-0.18-0.41-0.32c-0.1-0.13-0.16-0.29-0.2-0.48c-0.03-0.19-0.05-0.39-0.05-0.6v-2.4
		h-0.75v-0.52l0.75-0.08v-0.92l0.72-0.12v1.04h1.66v0.58H66.05z"/>
	<path class="st2" d="M69.14,39.9l0.08,0.61c0.18-0.21,0.38-0.38,0.59-0.48c0.29-0.15,0.59-0.23,0.88-0.23
		c0.24,0,0.44,0.04,0.59,0.12l-0.2,0.61c-0.12-0.06-0.3-0.09-0.51-0.09c-0.27,0-0.52,0.08-0.76,0.24c-0.09,0.06-0.17,0.12-0.25,0.2
		c-0.09,0.07-0.16,0.16-0.25,0.25v3.18h-0.73v-3.2l-0.11-1.2H69.14z"/>
	<path class="st2" d="M73.41,44.41c-0.38,0-0.7-0.05-0.96-0.14c-0.26-0.09-0.47-0.24-0.62-0.43c-0.16-0.2-0.27-0.43-0.34-0.73
		s-0.1-0.64-0.1-1.03c0-0.77,0.16-1.35,0.5-1.72c0.33-0.37,0.84-0.56,1.52-0.56c0.37,0,0.66,0.05,0.89,0.16
		c0.23,0.11,0.41,0.26,0.55,0.45c0.12,0.19,0.22,0.42,0.27,0.68s0.07,0.55,0.07,0.85v0.35h-3.04c0,0.25,0.02,0.46,0.05,0.63
		c0.09,0.35,0.24,0.59,0.46,0.71c0.21,0.13,0.5,0.2,0.88,0.2c0.31,0,0.59-0.04,0.83-0.12c0.23-0.08,0.42-0.16,0.56-0.23l0.2,0.5
		c-0.07,0.05-0.17,0.11-0.3,0.16s-0.27,0.1-0.41,0.14c-0.16,0.04-0.32,0.08-0.48,0.1C73.73,44.39,73.57,44.41,73.41,44.41z
		 M74.41,41.75c0-0.52-0.09-0.89-0.27-1.09c-0.18-0.2-0.43-0.31-0.74-0.31c-0.37,0-0.64,0.08-0.83,0.24s-0.32,0.41-0.39,0.74
		c-0.02,0.07-0.02,0.13-0.03,0.2s-0.01,0.14-0.02,0.22H74.41z"/>
	<path class="st2" d="M79.81,44.32c-0.06,0.01-0.1,0.02-0.12,0.02h-0.14c-0.23,0-0.4-0.04-0.51-0.13s-0.2-0.21-0.27-0.37
		c-0.16,0.15-0.37,0.28-0.62,0.39c-0.25,0.11-0.55,0.17-0.9,0.17c-0.27,0-0.49-0.04-0.66-0.11c-0.18-0.07-0.32-0.17-0.43-0.29
		s-0.19-0.26-0.23-0.43c-0.05-0.16-0.07-0.34-0.07-0.53c0-0.27,0.05-0.49,0.14-0.66c0.09-0.17,0.22-0.3,0.39-0.41
		c0.16-0.1,0.36-0.18,0.59-0.21c0.23-0.04,0.48-0.06,0.76-0.06c0.18,0,0.34,0,0.47,0.02c0.13,0.01,0.29,0.02,0.46,0.03v-0.23
		c0-0.21-0.02-0.4-0.05-0.55s-0.09-0.27-0.17-0.36s-0.19-0.16-0.33-0.2c-0.13-0.04-0.31-0.06-0.52-0.06c-0.25,0-0.49,0.04-0.74,0.11
		s-0.46,0.14-0.62,0.22l-0.18-0.51c0.22-0.1,0.48-0.19,0.77-0.27c0.3-0.08,0.62-0.12,0.96-0.12c0.3,0,0.56,0.03,0.77,0.09
		c0.21,0.06,0.38,0.16,0.5,0.3c0.12,0.14,0.21,0.33,0.26,0.56c0.05,0.23,0.08,0.51,0.08,0.84v1.59c0,0.23,0.04,0.38,0.1,0.46
		c0.07,0.09,0.17,0.12,0.31,0.12V44.32z M77.67,42.26c-0.4,0-0.67,0.06-0.82,0.19s-0.23,0.32-0.23,0.57c0,0.29,0.06,0.5,0.2,0.62
		c0.12,0.13,0.34,0.19,0.66,0.19c0.21,0,0.43-0.05,0.64-0.14c0.21-0.09,0.39-0.2,0.55-0.33v-1.06c-0.16-0.01-0.33-0.02-0.48-0.03
		C78.03,42.27,77.86,42.26,77.67,42.26z"/>
	<path class="st2" d="M81.19,39.9l0.03,0.38c0.07-0.05,0.16-0.11,0.24-0.16c0.09-0.05,0.19-0.09,0.29-0.14
		c0.28-0.12,0.58-0.18,0.9-0.18c0.28,0,0.52,0.04,0.7,0.11c0.17,0.07,0.31,0.18,0.41,0.32l0.05,0.08c0.18-0.14,0.38-0.25,0.59-0.33
		c0.31-0.12,0.62-0.18,0.95-0.18c0.28,0,0.51,0.04,0.69,0.11c0.17,0.07,0.31,0.18,0.41,0.32s0.17,0.32,0.21,0.52
		c0.03,0.21,0.05,0.45,0.05,0.71v2.83h-0.72v-2.67c0-0.19-0.01-0.36-0.02-0.51c-0.02-0.16-0.06-0.29-0.12-0.39
		c-0.06-0.11-0.14-0.19-0.25-0.25c-0.1-0.06-0.24-0.09-0.42-0.09c-0.16,0-0.32,0.02-0.47,0.07s-0.29,0.11-0.42,0.18
		c-0.05,0.02-0.11,0.05-0.16,0.09c-0.05,0.03-0.1,0.07-0.16,0.11c0.02,0.09,0.02,0.2,0.03,0.3s0.01,0.22,0.01,0.33v2.83h-0.73v-2.67
		c0-0.19-0.01-0.36-0.02-0.51c-0.02-0.16-0.05-0.29-0.11-0.39c-0.06-0.11-0.14-0.19-0.25-0.25c-0.1-0.06-0.25-0.09-0.43-0.09
		c-0.31,0-0.61,0.08-0.89,0.25c-0.05,0.02-0.09,0.05-0.13,0.08c-0.05,0.03-0.09,0.06-0.13,0.09v3.48h-0.73v-3.23l-0.07-1.17H81.19z"
		/>
	<path class="st2" d="M89.04,44.33c-0.01,0.01-0.03,0.01-0.09,0.01c-0.02,0-0.07,0.01-0.17,0.01c-0.34,0-0.59-0.1-0.71-0.29
		s-0.2-0.48-0.2-0.87v-5.43l0.73-0.11v5.52c0,0.27,0.03,0.43,0.09,0.5s0.18,0.11,0.34,0.11V44.33z"/>
	<path class="st2" d="M89.87,38.09h0.74v0.77h-0.74V38.09z M89.88,39.9h0.73v4.4h-0.73V39.9z"/>
	<path class="st2" d="M92.44,39.9l0.03,0.39c0.18-0.12,0.38-0.23,0.59-0.32c0.32-0.12,0.64-0.18,0.96-0.18
		c0.29,0,0.53,0.04,0.72,0.11c0.18,0.07,0.33,0.18,0.44,0.32s0.19,0.32,0.23,0.52s0.06,0.45,0.06,0.71v2.83h-0.73v-2.67
		c0-0.19-0.01-0.36-0.03-0.51c-0.02-0.16-0.06-0.29-0.12-0.39s-0.16-0.19-0.27-0.25s-0.27-0.09-0.48-0.09
		c-0.16,0-0.33,0.02-0.48,0.07s-0.3,0.11-0.45,0.18c-0.12,0.05-0.23,0.12-0.34,0.2v3.46h-0.73v-3.23l-0.07-1.17H92.44z"/>
	<path class="st2" d="M96.61,38.09h0.74v0.77h-0.74V38.09z M96.62,39.9h0.73v4.4h-0.73V39.9z"/>
	<path class="st2" d="M99.17,39.9l0.03,0.39c0.18-0.12,0.38-0.23,0.59-0.32c0.32-0.12,0.64-0.18,0.96-0.18
		c0.29,0,0.53,0.04,0.72,0.11c0.18,0.07,0.33,0.18,0.44,0.32s0.19,0.32,0.23,0.52s0.06,0.45,0.06,0.71v2.83h-0.73v-2.67
		c0-0.19-0.01-0.36-0.03-0.51c-0.02-0.16-0.06-0.29-0.12-0.39s-0.16-0.19-0.27-0.25s-0.27-0.09-0.48-0.09
		c-0.16,0-0.33,0.02-0.48,0.07s-0.3,0.11-0.45,0.18c-0.12,0.05-0.23,0.12-0.34,0.2v3.46h-0.73v-3.23l-0.07-1.17H99.17z"/>
	<path class="st2" d="M106.93,39.9v4.61c0,0.36-0.05,0.66-0.15,0.91s-0.23,0.45-0.41,0.6c-0.18,0.15-0.39,0.27-0.64,0.34
		s-0.52,0.11-0.83,0.11c-0.28,0-0.55-0.02-0.77-0.06c-0.23-0.04-0.43-0.09-0.6-0.15l0.19-0.56c0.14,0.05,0.31,0.09,0.51,0.13
		c0.2,0.04,0.42,0.06,0.67,0.06c0.18,0,0.35-0.02,0.51-0.06c0.16-0.04,0.3-0.11,0.42-0.21c0.12-0.1,0.21-0.23,0.27-0.4
		c0.07-0.16,0.1-0.37,0.1-0.62v-0.53c-0.18,0.1-0.38,0.18-0.57,0.25c-0.2,0.07-0.41,0.1-0.66,0.1c-0.65,0-1.12-0.19-1.41-0.57
		c-0.29-0.39-0.44-0.94-0.44-1.65c0-0.35,0.04-0.66,0.11-0.96c0.07-0.29,0.2-0.54,0.37-0.75c0.16-0.21,0.39-0.38,0.66-0.49
		s0.59-0.18,0.98-0.18c0.23,0,0.43,0.03,0.6,0.08s0.33,0.11,0.48,0.18l0.05-0.16H106.93z M106.2,40.59
		c-0.12-0.05-0.26-0.11-0.41-0.16c-0.14-0.05-0.3-0.08-0.48-0.08c-0.5,0-0.86,0.14-1.09,0.43c-0.23,0.29-0.35,0.75-0.35,1.39
		c0,0.21,0.02,0.41,0.05,0.61s0.11,0.38,0.2,0.54c0.09,0.16,0.23,0.28,0.39,0.37c0.17,0.09,0.38,0.14,0.65,0.14
		c0.2,0,0.38-0.03,0.54-0.09c0.16-0.06,0.33-0.15,0.49-0.25V40.59z"/>
	<path class="st2" d="M110.44,38.09h0.74v0.77h-0.74V38.09z M110.45,39.9h0.73v4.4h-0.73V39.9z"/>
	<path class="st2" d="M113.01,39.9l0.03,0.39c0.18-0.12,0.38-0.23,0.59-0.32c0.32-0.12,0.64-0.18,0.96-0.18
		c0.29,0,0.53,0.04,0.72,0.11c0.18,0.07,0.33,0.18,0.44,0.32s0.19,0.32,0.23,0.52s0.06,0.45,0.06,0.71v2.83h-0.73v-2.67
		c0-0.19-0.01-0.36-0.03-0.51c-0.02-0.16-0.06-0.29-0.12-0.39s-0.16-0.19-0.27-0.25s-0.27-0.09-0.48-0.09
		c-0.16,0-0.33,0.02-0.48,0.07s-0.3,0.11-0.45,0.18c-0.12,0.05-0.23,0.12-0.34,0.2v3.46h-0.73v-3.23l-0.07-1.17H113.01z"/>
	<path class="st2" d="M118.19,41.55c0.15,0.08,0.34,0.15,0.57,0.23s0.46,0.16,0.68,0.25c0.25,0.1,0.45,0.23,0.62,0.39
		c0.16,0.16,0.25,0.4,0.25,0.71c0,0.44-0.16,0.76-0.48,0.96c-0.32,0.2-0.78,0.3-1.38,0.3c-0.28,0-0.56-0.03-0.84-0.08
		s-0.51-0.13-0.7-0.23l0.23-0.55c0.16,0.09,0.34,0.15,0.57,0.2s0.48,0.08,0.75,0.08c0.14,0,0.27-0.01,0.41-0.03
		c0.14-0.02,0.26-0.04,0.36-0.09c0.1-0.04,0.19-0.11,0.25-0.19s0.09-0.2,0.09-0.34c0-0.28-0.18-0.48-0.53-0.61
		c-0.21-0.09-0.42-0.17-0.66-0.25c-0.23-0.07-0.44-0.15-0.62-0.23c-0.23-0.09-0.42-0.21-0.56-0.37c-0.15-0.15-0.23-0.38-0.23-0.67
		c0-0.23,0.05-0.43,0.16-0.6c0.1-0.16,0.24-0.29,0.41-0.39c0.17-0.09,0.37-0.16,0.58-0.21c0.21-0.04,0.42-0.06,0.63-0.06
		c0.33,0,0.62,0.03,0.86,0.08s0.45,0.11,0.61,0.18l-0.23,0.55c-0.17-0.07-0.36-0.13-0.56-0.18c-0.21-0.05-0.44-0.07-0.7-0.07
		c-0.38,0-0.66,0.06-0.81,0.18s-0.23,0.26-0.23,0.42c0,0.14,0.04,0.26,0.12,0.35C117.88,41.4,118.01,41.48,118.19,41.55z"/>
	<path class="st2" d="M122.2,40.48v2.17c0,0.19,0.01,0.36,0.02,0.5s0.05,0.27,0.11,0.36c0.05,0.1,0.14,0.17,0.26,0.22
		c0.11,0.05,0.26,0.08,0.45,0.08c0.27,0,0.53-0.05,0.8-0.14l0.13,0.51c-0.18,0.08-0.37,0.13-0.56,0.17c-0.2,0.04-0.4,0.06-0.59,0.06
		c-0.28,0-0.52-0.04-0.69-0.11c-0.18-0.08-0.31-0.18-0.41-0.32c-0.1-0.13-0.16-0.29-0.2-0.48c-0.03-0.19-0.05-0.39-0.05-0.6v-2.4
		h-0.75v-0.52l0.75-0.08v-0.92l0.72-0.12v1.04h1.66v0.58H122.2z"/>
	<path class="st2" d="M128.39,44.32c-0.06,0.01-0.1,0.02-0.12,0.02h-0.14c-0.23,0-0.4-0.04-0.51-0.13s-0.2-0.21-0.27-0.37
		c-0.16,0.15-0.37,0.28-0.62,0.39c-0.25,0.11-0.55,0.17-0.9,0.17c-0.27,0-0.49-0.04-0.66-0.11c-0.18-0.07-0.32-0.17-0.43-0.29
		s-0.19-0.26-0.23-0.43c-0.05-0.16-0.07-0.34-0.07-0.53c0-0.27,0.05-0.49,0.14-0.66c0.09-0.17,0.22-0.3,0.39-0.41
		c0.16-0.1,0.36-0.18,0.59-0.21c0.23-0.04,0.48-0.06,0.76-0.06c0.18,0,0.34,0,0.47,0.02c0.13,0.01,0.29,0.02,0.46,0.03v-0.23
		c0-0.21-0.02-0.4-0.05-0.55s-0.09-0.27-0.17-0.36s-0.19-0.16-0.33-0.2c-0.13-0.04-0.31-0.06-0.52-0.06c-0.25,0-0.49,0.04-0.74,0.11
		s-0.46,0.14-0.62,0.22l-0.18-0.51c0.22-0.1,0.48-0.19,0.77-0.27c0.3-0.08,0.62-0.12,0.96-0.12c0.3,0,0.56,0.03,0.77,0.09
		c0.21,0.06,0.38,0.16,0.5,0.3c0.12,0.14,0.21,0.33,0.26,0.56c0.05,0.23,0.08,0.51,0.08,0.84v1.59c0,0.23,0.04,0.38,0.1,0.46
		c0.07,0.09,0.17,0.12,0.31,0.12V44.32z M126.25,42.26c-0.4,0-0.67,0.06-0.82,0.19s-0.23,0.32-0.23,0.57c0,0.29,0.06,0.5,0.2,0.62
		c0.12,0.13,0.34,0.19,0.66,0.19c0.21,0,0.43-0.05,0.64-0.14c0.21-0.09,0.39-0.2,0.55-0.33v-1.06c-0.16-0.01-0.33-0.02-0.48-0.03
		C126.61,42.27,126.44,42.26,126.25,42.26z"/>
	<path class="st2" d="M130.33,44.33c-0.01,0.01-0.03,0.01-0.09,0.01c-0.02,0-0.07,0.01-0.17,0.01c-0.34,0-0.59-0.1-0.71-0.29
		s-0.2-0.48-0.2-0.87v-5.43l0.73-0.11v5.52c0,0.27,0.03,0.43,0.09,0.5s0.18,0.11,0.34,0.11V44.33z"/>
	<path class="st2" d="M132.34,44.33c-0.01,0.01-0.03,0.01-0.09,0.01c-0.02,0-0.07,0.01-0.17,0.01c-0.34,0-0.59-0.1-0.71-0.29
		s-0.2-0.48-0.2-0.87v-5.43l0.73-0.11v5.52c0,0.27,0.03,0.43,0.09,0.5s0.18,0.11,0.34,0.11V44.33z"/>
	<path class="st2" d="M136.98,44.32c-0.06,0.01-0.1,0.02-0.12,0.02h-0.14c-0.23,0-0.4-0.04-0.51-0.13s-0.2-0.21-0.27-0.37
		c-0.16,0.15-0.37,0.28-0.62,0.39c-0.25,0.11-0.55,0.17-0.9,0.17c-0.27,0-0.49-0.04-0.66-0.11c-0.18-0.07-0.32-0.17-0.43-0.29
		s-0.19-0.26-0.23-0.43c-0.05-0.16-0.07-0.34-0.07-0.53c0-0.27,0.05-0.49,0.14-0.66c0.09-0.17,0.22-0.3,0.39-0.41
		c0.16-0.1,0.36-0.18,0.59-0.21c0.23-0.04,0.48-0.06,0.76-0.06c0.18,0,0.34,0,0.47,0.02c0.13,0.01,0.29,0.02,0.46,0.03v-0.23
		c0-0.21-0.02-0.4-0.05-0.55s-0.09-0.27-0.17-0.36s-0.19-0.16-0.33-0.2c-0.13-0.04-0.31-0.06-0.52-0.06c-0.25,0-0.49,0.04-0.74,0.11
		s-0.46,0.14-0.62,0.22l-0.18-0.51c0.22-0.1,0.48-0.19,0.77-0.27c0.3-0.08,0.62-0.12,0.96-0.12c0.3,0,0.56,0.03,0.77,0.09
		c0.21,0.06,0.38,0.16,0.5,0.3c0.12,0.14,0.21,0.33,0.26,0.56c0.05,0.23,0.08,0.51,0.08,0.84v1.59c0,0.23,0.04,0.38,0.1,0.46
		c0.07,0.09,0.17,0.12,0.31,0.12V44.32z M134.84,42.26c-0.4,0-0.67,0.06-0.82,0.19s-0.23,0.32-0.23,0.57c0,0.29,0.06,0.5,0.2,0.62
		c0.12,0.13,0.34,0.19,0.66,0.19c0.21,0,0.43-0.05,0.64-0.14c0.21-0.09,0.39-0.2,0.55-0.33v-1.06c-0.16-0.01-0.33-0.02-0.48-0.03
		C135.2,42.27,135.03,42.26,134.84,42.26z"/>
	<path class="st2" d="M138.74,40.48v2.17c0,0.19,0.01,0.36,0.02,0.5s0.05,0.27,0.11,0.36c0.05,0.1,0.14,0.17,0.26,0.22
		c0.11,0.05,0.26,0.08,0.45,0.08c0.27,0,0.53-0.05,0.8-0.14l0.13,0.51c-0.18,0.08-0.37,0.13-0.56,0.17c-0.2,0.04-0.4,0.06-0.59,0.06
		c-0.28,0-0.52-0.04-0.69-0.11c-0.18-0.08-0.31-0.18-0.41-0.32c-0.1-0.13-0.16-0.29-0.2-0.48c-0.03-0.19-0.05-0.39-0.05-0.6v-2.4
		h-0.75v-0.52l0.75-0.08v-0.92l0.72-0.12v1.04h1.66v0.58H138.74z"/>
	<path class="st2" d="M141.24,38.09h0.74v0.77h-0.74V38.09z M141.25,39.9h0.73v4.4h-0.73V39.9z"/>
	<path class="st2" d="M144.91,44.41c-0.38,0-0.69-0.05-0.94-0.16c-0.25-0.11-0.45-0.26-0.6-0.46c-0.15-0.2-0.26-0.45-0.31-0.73
		c-0.06-0.29-0.09-0.61-0.09-0.98c0-0.77,0.17-1.35,0.51-1.72s0.89-0.56,1.64-0.56c0.38,0,0.69,0.05,0.94,0.16s0.45,0.26,0.6,0.46
		c0.16,0.2,0.26,0.45,0.33,0.73c0.06,0.29,0.09,0.61,0.09,0.98c0,0.77-0.18,1.34-0.53,1.71C146.19,44.22,145.66,44.41,144.91,44.41z
		 M144.91,43.84c0.54,0,0.91-0.15,1.11-0.45s0.3-0.75,0.3-1.35c0-0.23-0.02-0.45-0.05-0.65c-0.03-0.2-0.09-0.38-0.19-0.54
		c-0.09-0.16-0.21-0.28-0.37-0.37s-0.36-0.14-0.6-0.14c-0.54,0-0.91,0.16-1.11,0.47c-0.2,0.31-0.3,0.76-0.3,1.35
		c0,0.24,0.02,0.46,0.05,0.66c0.04,0.2,0.1,0.38,0.19,0.53c0.09,0.15,0.21,0.27,0.38,0.36C144.48,43.8,144.67,43.84,144.91,43.84z"
		/>
	<path class="st2" d="M148.66,39.9l0.03,0.39c0.18-0.12,0.38-0.23,0.59-0.32c0.32-0.12,0.64-0.18,0.96-0.18
		c0.29,0,0.53,0.04,0.72,0.11c0.18,0.07,0.33,0.18,0.44,0.32s0.19,0.32,0.23,0.52s0.06,0.45,0.06,0.71v2.83h-0.73v-2.67
		c0-0.19-0.01-0.36-0.03-0.51c-0.02-0.16-0.06-0.29-0.12-0.39s-0.16-0.19-0.27-0.25s-0.27-0.09-0.48-0.09
		c-0.16,0-0.33,0.02-0.48,0.07s-0.3,0.11-0.45,0.18c-0.12,0.05-0.23,0.12-0.34,0.2v3.46h-0.73v-3.23l-0.07-1.17H148.66z"/>
	<path class="st2" d="M156.87,44.41c-0.23,0-0.43-0.03-0.61-0.09c-0.13-0.03-0.3-0.09-0.48-0.19l-0.07,0.17h-0.54v-6.54l0.73-0.11
		v2.52c0.15-0.1,0.3-0.18,0.47-0.24c0.26-0.09,0.52-0.14,0.8-0.14c0.62,0,1.08,0.2,1.37,0.58s0.44,0.94,0.44,1.66
		c0,0.34-0.04,0.66-0.12,0.96c-0.08,0.29-0.2,0.54-0.37,0.75s-0.39,0.37-0.66,0.49C157.56,44.35,157.24,44.41,156.87,44.41z
		 M156.8,43.84c0.45,0,0.8-0.14,1.05-0.42s0.37-0.74,0.37-1.39c0-0.22-0.02-0.44-0.05-0.64c-0.04-0.2-0.11-0.38-0.2-0.53
		c-0.1-0.15-0.23-0.27-0.38-0.36c-0.16-0.09-0.37-0.13-0.62-0.13c-0.26,0-0.48,0.05-0.7,0.16c-0.12,0.07-0.24,0.15-0.36,0.25v2.78
		C156.16,43.75,156.45,43.84,156.8,43.84z"/>
	<path class="st2" d="M159.39,39.9h0.81l1.27,3.5h0.09l1.17-3.5h0.75l-1.68,4.68c-0.11,0.27-0.2,0.52-0.3,0.75s-0.22,0.43-0.36,0.6
		c-0.13,0.17-0.3,0.3-0.51,0.39c-0.21,0.09-0.47,0.14-0.78,0.14c-0.08,0-0.15,0-0.23-0.01c-0.07-0.01-0.13-0.02-0.19-0.04l0.09-0.56
		l0.16,0.03c0.02,0,0.07,0.01,0.16,0.01c0.23,0,0.42-0.04,0.55-0.12s0.23-0.18,0.3-0.3c0.04-0.05,0.08-0.12,0.12-0.21
		c0.04-0.09,0.08-0.19,0.12-0.29c0.04-0.1,0.08-0.21,0.12-0.31s0.07-0.21,0.1-0.3L159.39,39.9z"/>
</g>
</svg>
