<?xml version="1.0" encoding="utf-8"?>
<!-- Generator: Adobe Illustrator 23.0.0, SVG Export Plug-In . SVG Version: 6.00 Build 0)  -->
<svg version="1.1" id="Layer_1" xmlns="http://www.w3.org/2000/svg" xmlns:xlink="http://www.w3.org/1999/xlink" x="0px" y="0px"
	 viewBox="0 0 182.66 52.5" style="enable-background:new 0 0 182.66 52.5;" xml:space="preserve">
<style type="text/css">
	.st0{fill:#F1F2F2;stroke:#808285;stroke-width:0.8;stroke-miterlimit:10;}
	.st1{fill:#464A4C;}
</style>
<path class="st0" d="M160.91,50.36H17.8c-9.5,0-17.28-7.78-17.28-17.28V18.64c0-9.5,7.78-17.28,17.28-17.28h143.11
	c9.5,0,17.28,7.78,17.28,17.28v14.44C178.19,42.58,170.41,50.36,160.91,50.36z"/>
<g>
	<path class="st1" d="M16.73,13.77c-0.14,0.08-0.34,0.16-0.6,0.24c-0.26,0.07-0.54,0.11-0.84,0.11c-0.73,0-1.26-0.2-1.58-0.58
		s-0.48-0.94-0.48-1.66c0-0.79,0.18-1.39,0.55-1.78c0.37-0.39,0.92-0.59,1.66-0.59c0.27,0,0.53,0.05,0.77,0.14
		c0.24,0.09,0.44,0.22,0.58,0.38l-0.45,0.43c-0.11-0.12-0.24-0.22-0.4-0.29c-0.16-0.07-0.33-0.11-0.52-0.11
		c-0.48,0-0.84,0.15-1.09,0.44s-0.38,0.76-0.38,1.4c0,0.24,0.02,0.46,0.08,0.67c0.05,0.2,0.12,0.37,0.23,0.52
		c0.12,0.14,0.26,0.26,0.44,0.34c0.17,0.08,0.38,0.12,0.63,0.12c0.26,0,0.48-0.03,0.68-0.08c0.2-0.05,0.38-0.12,0.54-0.2
		L16.73,13.77z"/>
	<path class="st1" d="M19.1,14.13c-0.38,0-0.7-0.05-0.95-0.16c-0.25-0.11-0.45-0.26-0.6-0.46c-0.15-0.2-0.25-0.45-0.31-0.73
		s-0.09-0.61-0.09-0.98c0-0.77,0.17-1.35,0.51-1.72c0.34-0.38,0.89-0.56,1.64-0.56c0.38,0,0.69,0.05,0.94,0.16
		c0.26,0.11,0.45,0.26,0.61,0.46c0.15,0.2,0.26,0.45,0.32,0.73s0.09,0.61,0.09,0.98c0,0.77-0.17,1.34-0.52,1.71
		C20.37,13.94,19.83,14.13,19.1,14.13z M19.1,13.56c0.53,0,0.91-0.15,1.11-0.45c0.2-0.3,0.3-0.75,0.3-1.35
		c0-0.23-0.02-0.45-0.05-0.65c-0.03-0.2-0.09-0.38-0.18-0.54c-0.09-0.16-0.22-0.28-0.38-0.37s-0.35-0.14-0.6-0.14
		c-0.53,0-0.91,0.16-1.11,0.47c-0.2,0.31-0.3,0.76-0.3,1.35c0,0.24,0.02,0.46,0.05,0.66c0.03,0.2,0.09,0.38,0.19,0.53
		c0.09,0.15,0.21,0.27,0.37,0.36S18.85,13.56,19.1,13.56z"/>
	<path class="st1" d="M22.84,9.62l0.03,0.39c0.19-0.12,0.38-0.23,0.59-0.32c0.32-0.12,0.64-0.18,0.96-0.18
		c0.3,0,0.53,0.04,0.72,0.11s0.34,0.18,0.45,0.32c0.1,0.14,0.18,0.32,0.22,0.52c0.05,0.21,0.06,0.45,0.06,0.71v2.83h-0.73v-2.67
		c0-0.19-0.01-0.36-0.03-0.51c-0.02-0.16-0.05-0.29-0.12-0.39c-0.06-0.11-0.16-0.19-0.27-0.25s-0.27-0.09-0.48-0.09
		c-0.16,0-0.33,0.02-0.48,0.07s-0.3,0.11-0.45,0.18c-0.12,0.05-0.23,0.12-0.34,0.2v3.46h-0.73V10.8l-0.08-1.17H22.84z"/>
	<path class="st1" d="M28.02,11.28c0.15,0.08,0.34,0.15,0.58,0.23c0.23,0.08,0.45,0.16,0.67,0.25c0.25,0.1,0.46,0.23,0.62,0.39
		c0.16,0.16,0.25,0.4,0.25,0.71c0,0.44-0.16,0.76-0.48,0.96c-0.32,0.2-0.77,0.3-1.38,0.3c-0.29,0-0.57-0.03-0.84-0.08
		s-0.5-0.13-0.7-0.23l0.23-0.55c0.15,0.09,0.34,0.15,0.57,0.2s0.47,0.08,0.74,0.08c0.14,0,0.28-0.01,0.41-0.03
		c0.14-0.02,0.26-0.04,0.36-0.09c0.1-0.04,0.19-0.11,0.25-0.19c0.07-0.08,0.1-0.2,0.1-0.34c0-0.28-0.18-0.48-0.54-0.61
		c-0.2-0.09-0.42-0.17-0.66-0.25c-0.23-0.07-0.44-0.15-0.62-0.23c-0.23-0.09-0.41-0.21-0.56-0.37c-0.15-0.15-0.22-0.38-0.22-0.67
		c0-0.23,0.05-0.43,0.16-0.6c0.1-0.16,0.24-0.29,0.41-0.39c0.16-0.09,0.36-0.16,0.57-0.21c0.21-0.04,0.42-0.06,0.63-0.06
		c0.34,0,0.62,0.03,0.87,0.08c0.24,0.05,0.44,0.11,0.6,0.18l-0.23,0.55c-0.17-0.07-0.36-0.13-0.56-0.18
		c-0.2-0.05-0.44-0.07-0.69-0.07c-0.39,0-0.66,0.06-0.81,0.18s-0.23,0.26-0.23,0.42c0,0.14,0.03,0.26,0.11,0.35
		C27.72,11.12,27.85,11.2,28.02,11.28z"/>
	<path class="st1" d="M32.78,14.13c-0.38,0-0.7-0.05-0.95-0.16c-0.25-0.11-0.45-0.26-0.6-0.46c-0.15-0.2-0.25-0.45-0.31-0.73
		s-0.09-0.61-0.09-0.98c0-0.77,0.17-1.35,0.51-1.72c0.34-0.38,0.89-0.56,1.64-0.56c0.38,0,0.69,0.05,0.94,0.16
		c0.26,0.11,0.45,0.26,0.61,0.46c0.15,0.2,0.26,0.45,0.32,0.73s0.09,0.61,0.09,0.98c0,0.77-0.17,1.34-0.52,1.71
		C34.05,13.94,33.51,14.13,32.78,14.13z M32.78,13.56c0.53,0,0.91-0.15,1.11-0.45c0.2-0.3,0.3-0.75,0.3-1.35
		c0-0.23-0.02-0.45-0.05-0.65c-0.03-0.2-0.09-0.38-0.18-0.54c-0.09-0.16-0.22-0.28-0.38-0.37s-0.35-0.14-0.6-0.14
		c-0.53,0-0.91,0.16-1.11,0.47c-0.2,0.31-0.3,0.76-0.3,1.35c0,0.24,0.02,0.46,0.05,0.66c0.03,0.2,0.09,0.38,0.19,0.53
		c0.09,0.15,0.21,0.27,0.37,0.36S32.53,13.56,32.78,13.56z"/>
	<path class="st1" d="M37.08,14.05c0,0.01-0.03,0.01-0.09,0.01c-0.01,0-0.07,0.01-0.17,0.01c-0.34,0-0.58-0.1-0.71-0.29
		c-0.12-0.2-0.19-0.48-0.19-0.87V7.48l0.72-0.11v5.52c0,0.27,0.03,0.43,0.09,0.5s0.18,0.11,0.34,0.11V14.05z"/>
	<path class="st1" d="M37.91,7.81h0.74v0.77h-0.74V7.81z M37.93,9.62h0.73v4.4h-0.73V9.62z"/>
	<path class="st1" d="M41.44,14.13c-0.62,0-1.07-0.2-1.37-0.58c-0.29-0.39-0.44-0.94-0.44-1.66c0-0.34,0.04-0.66,0.12-0.95
		c0.08-0.29,0.2-0.54,0.37-0.75c0.17-0.21,0.39-0.37,0.66-0.49s0.59-0.18,0.97-0.18c0.21,0,0.42,0.03,0.61,0.08
		c0.12,0.03,0.24,0.08,0.37,0.14V7.48l0.72-0.11v5.52l0.08,1.12h-0.63l-0.09-0.31c-0.17,0.13-0.36,0.23-0.56,0.29
		C42.01,14.08,41.75,14.13,41.44,14.13z M41.8,10.08c-0.46,0-0.81,0.14-1.05,0.42s-0.37,0.75-0.37,1.39c0,0.23,0.02,0.44,0.06,0.64
		c0.04,0.2,0.1,0.37,0.2,0.53c0.1,0.15,0.23,0.27,0.39,0.36s0.38,0.14,0.62,0.14c0.27,0,0.5-0.05,0.7-0.16
		c0.06-0.03,0.12-0.07,0.19-0.11s0.12-0.09,0.19-0.14v-2.79C42.44,10.17,42.13,10.08,41.8,10.08z"/>
	<path class="st1" d="M48.34,14.04c-0.06,0.01-0.11,0.02-0.12,0.02h-0.15c-0.22,0-0.39-0.04-0.5-0.13s-0.2-0.21-0.27-0.37
		c-0.16,0.15-0.37,0.28-0.62,0.39c-0.26,0.11-0.55,0.17-0.9,0.17c-0.27,0-0.49-0.04-0.66-0.11c-0.18-0.07-0.32-0.17-0.43-0.29
		s-0.19-0.26-0.23-0.43c-0.04-0.16-0.06-0.34-0.06-0.53c0-0.27,0.05-0.49,0.14-0.66c0.09-0.17,0.22-0.3,0.38-0.41
		c0.17-0.1,0.37-0.18,0.59-0.21c0.23-0.04,0.48-0.06,0.75-0.06c0.18,0,0.34,0,0.48,0.02c0.13,0.01,0.28,0.02,0.46,0.03v-0.23
		c0-0.21-0.02-0.4-0.05-0.55c-0.03-0.15-0.09-0.27-0.16-0.36s-0.19-0.16-0.33-0.2c-0.13-0.04-0.31-0.06-0.52-0.06
		c-0.25,0-0.5,0.04-0.75,0.11s-0.45,0.14-0.61,0.22l-0.19-0.51c0.23-0.1,0.48-0.19,0.78-0.27c0.3-0.08,0.62-0.12,0.96-0.12
		c0.3,0,0.56,0.03,0.77,0.09c0.2,0.06,0.37,0.16,0.49,0.3c0.12,0.14,0.22,0.33,0.27,0.56c0.05,0.23,0.08,0.51,0.08,0.84v1.59
		c0,0.23,0.03,0.38,0.1,0.46c0.06,0.09,0.17,0.12,0.31,0.12V14.04z M46.2,11.99c-0.4,0-0.67,0.06-0.82,0.19
		c-0.16,0.12-0.23,0.32-0.23,0.57c0,0.29,0.06,0.5,0.19,0.62c0.13,0.13,0.35,0.19,0.66,0.19c0.21,0,0.42-0.05,0.63-0.14
		c0.21-0.09,0.4-0.2,0.56-0.33v-1.06c-0.17-0.01-0.33-0.02-0.48-0.03C46.55,11.99,46.39,11.99,46.2,11.99z"/>
	<path class="st1" d="M50.1,10.2v2.17c0,0.19,0.01,0.36,0.02,0.5s0.05,0.27,0.11,0.36c0.05,0.1,0.14,0.17,0.25,0.22
		c0.12,0.05,0.27,0.08,0.46,0.08c0.27,0,0.53-0.05,0.8-0.14l0.13,0.51c-0.18,0.08-0.37,0.13-0.57,0.17
		c-0.2,0.04-0.39,0.06-0.59,0.06c-0.28,0-0.51-0.04-0.68-0.11c-0.18-0.08-0.31-0.18-0.41-0.32c-0.09-0.13-0.16-0.29-0.2-0.48
		c-0.03-0.19-0.05-0.39-0.05-0.6v-2.4h-0.75V9.7l0.75-0.08V8.7l0.73-0.12v1.04h1.66v0.58H50.1z"/>
	<path class="st1" d="M52.6,7.81h0.74v0.77H52.6V7.81z M52.62,9.62h0.73v4.4h-0.73V9.62z"/>
	<path class="st1" d="M55.17,9.62l0.02,0.39c0.19-0.12,0.38-0.23,0.59-0.32c0.32-0.12,0.64-0.18,0.96-0.18
		c0.3,0,0.54,0.04,0.72,0.11c0.19,0.07,0.34,0.18,0.45,0.32s0.19,0.32,0.23,0.52s0.06,0.45,0.06,0.71v2.83h-0.73v-2.67
		c0-0.19-0.01-0.36-0.02-0.51c-0.02-0.16-0.06-0.29-0.12-0.39s-0.16-0.19-0.27-0.25s-0.28-0.09-0.48-0.09
		c-0.16,0-0.33,0.02-0.48,0.07s-0.31,0.11-0.45,0.18c-0.12,0.05-0.23,0.12-0.34,0.2v3.46h-0.73V10.8l-0.08-1.17H55.17z"/>
	<path class="st1" d="M62.92,9.62v4.61c0,0.36-0.05,0.66-0.14,0.91s-0.23,0.45-0.41,0.6c-0.18,0.15-0.39,0.27-0.64,0.34
		s-0.52,0.11-0.83,0.11c-0.29,0-0.55-0.02-0.77-0.06c-0.23-0.04-0.44-0.09-0.61-0.15l0.2-0.56c0.14,0.05,0.31,0.09,0.51,0.13
		c0.2,0.04,0.42,0.06,0.67,0.06c0.18,0,0.35-0.02,0.51-0.06c0.16-0.04,0.3-0.11,0.42-0.21c0.12-0.1,0.21-0.23,0.27-0.4
		c0.07-0.16,0.1-0.37,0.1-0.62v-0.53c-0.19,0.1-0.38,0.18-0.57,0.25c-0.2,0.07-0.41,0.1-0.66,0.1c-0.66,0-1.12-0.19-1.41-0.57
		c-0.3-0.39-0.44-0.94-0.44-1.65c0-0.35,0.03-0.66,0.11-0.96c0.07-0.29,0.2-0.54,0.36-0.75c0.17-0.21,0.39-0.38,0.66-0.49
		c0.27-0.12,0.59-0.18,0.98-0.18c0.23,0,0.43,0.03,0.6,0.08s0.33,0.11,0.48,0.18l0.05-0.16H62.92z M62.2,10.32
		c-0.12-0.05-0.27-0.11-0.41-0.16c-0.15-0.05-0.3-0.08-0.48-0.08c-0.5,0-0.87,0.14-1.1,0.43c-0.23,0.29-0.34,0.75-0.34,1.39
		c0,0.21,0.02,0.41,0.05,0.61s0.1,0.38,0.2,0.54c0.09,0.16,0.23,0.28,0.39,0.37c0.16,0.09,0.38,0.14,0.64,0.14
		c0.2,0,0.38-0.03,0.55-0.09c0.16-0.06,0.33-0.15,0.49-0.25V10.32z"/>
	<path class="st1" d="M68.26,14.13c-0.38,0-0.71-0.05-0.97-0.14c-0.26-0.09-0.47-0.24-0.62-0.43c-0.16-0.2-0.27-0.43-0.34-0.73
		s-0.11-0.64-0.11-1.03c0-0.77,0.16-1.35,0.5-1.72s0.84-0.56,1.52-0.56c0.37,0,0.66,0.05,0.89,0.16c0.23,0.11,0.41,0.26,0.55,0.45
		c0.13,0.19,0.22,0.42,0.27,0.68s0.08,0.55,0.08,0.85v0.35h-3.05c0,0.25,0.02,0.46,0.05,0.63c0.09,0.35,0.24,0.59,0.46,0.71
		c0.21,0.13,0.51,0.2,0.88,0.2c0.31,0,0.59-0.04,0.83-0.12c0.23-0.08,0.42-0.16,0.56-0.23l0.2,0.5c-0.07,0.05-0.17,0.11-0.3,0.16
		s-0.26,0.1-0.41,0.14c-0.16,0.04-0.31,0.08-0.48,0.1C68.58,14.12,68.42,14.13,68.26,14.13z M69.26,11.47
		c0-0.52-0.09-0.89-0.27-1.09c-0.18-0.2-0.43-0.31-0.74-0.31c-0.36,0-0.64,0.08-0.83,0.24s-0.32,0.41-0.39,0.74
		c-0.01,0.07-0.02,0.13-0.03,0.2c0,0.07-0.01,0.14-0.02,0.22H69.26z"/>
	<path class="st1" d="M72.41,13.46l1.27-3.84h0.75l-1.58,4.4h-1.02l-1.54-4.4h0.79l1.23,3.84H72.41z"/>
	<path class="st1" d="M76.75,14.13c-0.38,0-0.7-0.05-0.96-0.14c-0.26-0.09-0.47-0.24-0.62-0.43c-0.16-0.2-0.27-0.43-0.34-0.73
		s-0.1-0.64-0.1-1.03c0-0.77,0.16-1.35,0.5-1.72c0.33-0.37,0.84-0.56,1.52-0.56c0.36,0,0.66,0.05,0.89,0.16s0.41,0.26,0.54,0.45
		c0.13,0.19,0.23,0.42,0.27,0.68s0.07,0.55,0.07,0.85v0.35h-3.04c0,0.25,0.02,0.46,0.05,0.63c0.09,0.35,0.24,0.59,0.45,0.71
		c0.22,0.13,0.51,0.2,0.88,0.2c0.31,0,0.59-0.04,0.82-0.12c0.24-0.08,0.43-0.16,0.57-0.23l0.19,0.5c-0.07,0.05-0.16,0.11-0.29,0.16
		s-0.27,0.1-0.41,0.14c-0.16,0.04-0.32,0.08-0.49,0.1C77.08,14.12,76.91,14.13,76.75,14.13z M77.75,11.47
		c0-0.52-0.09-0.89-0.27-1.09c-0.18-0.2-0.43-0.31-0.74-0.31c-0.37,0-0.64,0.08-0.84,0.24c-0.19,0.16-0.31,0.41-0.38,0.74
		c-0.02,0.07-0.02,0.13-0.03,0.2s-0.02,0.14-0.02,0.22H77.75z"/>
	<path class="st1" d="M80.05,9.62l0.08,0.61c0.18-0.21,0.38-0.38,0.59-0.48c0.29-0.15,0.58-0.23,0.88-0.23
		c0.23,0,0.43,0.04,0.59,0.12l-0.2,0.61c-0.12-0.06-0.3-0.09-0.51-0.09c-0.27,0-0.52,0.08-0.76,0.24c-0.09,0.06-0.17,0.12-0.26,0.2
		c-0.08,0.07-0.16,0.16-0.24,0.25v3.18H79.5v-3.2l-0.11-1.2H80.05z"/>
	<path class="st1" d="M82.35,9.62h0.8l1.27,3.5h0.09l1.17-3.5h0.75l-1.68,4.68c-0.1,0.27-0.2,0.52-0.3,0.75s-0.22,0.43-0.35,0.6
		c-0.14,0.17-0.31,0.3-0.52,0.39c-0.2,0.09-0.46,0.14-0.78,0.14c-0.07,0-0.15,0-0.23-0.01c-0.07-0.01-0.13-0.02-0.18-0.04l0.09-0.56
		l0.15,0.03c0.02,0,0.08,0.01,0.16,0.01c0.23,0,0.42-0.04,0.55-0.12c0.13-0.08,0.23-0.18,0.31-0.3c0.03-0.05,0.08-0.12,0.12-0.21
		s0.09-0.19,0.12-0.29s0.08-0.21,0.12-0.31s0.08-0.21,0.11-0.3L82.35,9.62z"/>
	<path class="st1" d="M88.28,10.2v2.17c0,0.19,0.01,0.36,0.02,0.5s0.05,0.27,0.11,0.36c0.06,0.1,0.14,0.17,0.26,0.22
		c0.11,0.05,0.27,0.08,0.45,0.08c0.27,0,0.54-0.05,0.8-0.14l0.13,0.51c-0.18,0.08-0.37,0.13-0.56,0.17c-0.2,0.04-0.4,0.06-0.59,0.06
		c-0.28,0-0.51-0.04-0.69-0.11c-0.18-0.08-0.31-0.18-0.41-0.32c-0.09-0.13-0.16-0.29-0.2-0.48c-0.04-0.19-0.05-0.39-0.05-0.6v-2.4
		h-0.75V9.7l0.75-0.08V8.7l0.72-0.12v1.04h1.66v0.58H88.28z"/>
	<path class="st1" d="M93.7,14.02v-2.66c0-0.18-0.01-0.35-0.02-0.5c-0.02-0.16-0.06-0.29-0.12-0.39s-0.16-0.19-0.27-0.24
		c-0.12-0.06-0.28-0.09-0.48-0.09c-0.16,0-0.33,0.02-0.48,0.07c-0.16,0.04-0.31,0.11-0.45,0.18c-0.07,0.04-0.12,0.07-0.18,0.1
		s-0.11,0.07-0.16,0.1v3.44h-0.73V7.48l0.73-0.11v2.57c0.14-0.1,0.31-0.18,0.49-0.25c0.32-0.12,0.64-0.18,0.96-0.18
		c0.3,0,0.54,0.04,0.72,0.11c0.19,0.07,0.34,0.18,0.45,0.32s0.19,0.32,0.23,0.52s0.06,0.45,0.06,0.71v2.83H93.7z"/>
	<path class="st1" d="M95.58,7.81h0.74v0.77h-0.74V7.81z M95.58,9.62h0.73v4.4h-0.73V9.62z"/>
	<path class="st1" d="M98.14,9.62l0.03,0.39c0.19-0.12,0.38-0.23,0.59-0.32c0.32-0.12,0.64-0.18,0.96-0.18
		c0.3,0,0.53,0.04,0.72,0.11s0.34,0.18,0.45,0.32c0.1,0.14,0.18,0.32,0.22,0.52c0.05,0.21,0.06,0.45,0.06,0.71v2.83h-0.73v-2.67
		c0-0.19-0.01-0.36-0.03-0.51c-0.02-0.16-0.05-0.29-0.12-0.39c-0.06-0.11-0.16-0.19-0.27-0.25s-0.27-0.09-0.48-0.09
		c-0.16,0-0.33,0.02-0.48,0.07s-0.3,0.11-0.45,0.18c-0.12,0.05-0.23,0.12-0.34,0.2v3.46h-0.73V10.8l-0.08-1.17H98.14z"/>
	<path class="st1" d="M105.9,9.62v4.61c0,0.36-0.05,0.66-0.15,0.91c-0.09,0.25-0.23,0.45-0.41,0.6c-0.17,0.15-0.39,0.27-0.64,0.34
		s-0.52,0.11-0.82,0.11c-0.29,0-0.55-0.02-0.78-0.06c-0.23-0.04-0.43-0.09-0.6-0.15l0.19-0.56c0.14,0.05,0.31,0.09,0.51,0.13
		c0.2,0.04,0.43,0.06,0.68,0.06c0.17,0,0.34-0.02,0.51-0.06c0.16-0.04,0.3-0.11,0.41-0.21c0.12-0.1,0.21-0.23,0.28-0.4
		c0.06-0.16,0.1-0.37,0.1-0.62v-0.53c-0.19,0.1-0.38,0.18-0.57,0.25c-0.2,0.07-0.42,0.1-0.66,0.1c-0.65,0-1.12-0.19-1.41-0.57
		c-0.29-0.39-0.44-0.94-0.44-1.65c0-0.35,0.04-0.66,0.11-0.96c0.08-0.29,0.2-0.54,0.37-0.75s0.39-0.38,0.66-0.49
		c0.27-0.12,0.59-0.18,0.98-0.18c0.23,0,0.43,0.03,0.59,0.08c0.17,0.05,0.34,0.11,0.48,0.18l0.05-0.16H105.9z M105.18,10.32
		c-0.13-0.05-0.27-0.11-0.41-0.16c-0.14-0.05-0.3-0.08-0.47-0.08c-0.5,0-0.87,0.14-1.1,0.43c-0.23,0.29-0.35,0.75-0.35,1.39
		c0,0.21,0.02,0.41,0.05,0.61s0.11,0.38,0.2,0.54c0.09,0.16,0.23,0.28,0.4,0.37c0.16,0.09,0.38,0.14,0.64,0.14
		c0.2,0,0.38-0.03,0.54-0.09c0.16-0.06,0.33-0.15,0.5-0.25V10.32z"/>
	<path class="st1" d="M110.04,9.62l0.02,0.39c0.19-0.12,0.38-0.23,0.59-0.32c0.32-0.12,0.64-0.18,0.96-0.18
		c0.3,0,0.54,0.04,0.72,0.11c0.19,0.07,0.34,0.18,0.45,0.32s0.19,0.32,0.23,0.52s0.06,0.45,0.06,0.71v2.83h-0.73v-2.67
		c0-0.19-0.01-0.36-0.02-0.51c-0.02-0.16-0.06-0.29-0.12-0.39s-0.16-0.19-0.27-0.25s-0.28-0.09-0.48-0.09
		c-0.16,0-0.33,0.02-0.48,0.07s-0.31,0.11-0.45,0.18c-0.12,0.05-0.23,0.12-0.34,0.2v3.46h-0.73V10.8l-0.08-1.17H110.04z"/>
	<path class="st1" d="M116.02,14.13c-0.38,0-0.7-0.05-0.96-0.14c-0.26-0.09-0.47-0.24-0.62-0.43c-0.16-0.2-0.27-0.43-0.34-0.73
		s-0.1-0.64-0.1-1.03c0-0.77,0.16-1.35,0.5-1.72c0.33-0.37,0.84-0.56,1.52-0.56c0.36,0,0.66,0.05,0.89,0.16s0.41,0.26,0.54,0.45
		c0.13,0.19,0.23,0.42,0.27,0.68s0.07,0.55,0.07,0.85v0.35h-3.04c0,0.25,0.02,0.46,0.05,0.63c0.09,0.35,0.24,0.59,0.45,0.71
		c0.22,0.13,0.51,0.2,0.88,0.2c0.31,0,0.59-0.04,0.82-0.12c0.24-0.08,0.43-0.16,0.57-0.23l0.19,0.5c-0.07,0.05-0.16,0.11-0.29,0.16
		s-0.27,0.1-0.41,0.14c-0.16,0.04-0.32,0.08-0.49,0.1C116.35,14.12,116.19,14.13,116.02,14.13z M117.02,11.47
		c0-0.52-0.09-0.89-0.27-1.09c-0.18-0.2-0.43-0.31-0.74-0.31c-0.37,0-0.64,0.08-0.84,0.24c-0.19,0.16-0.31,0.41-0.38,0.74
		c-0.02,0.07-0.02,0.13-0.03,0.2s-0.02,0.14-0.02,0.22H117.02z"/>
	<path class="st1" d="M120.55,14.13c-0.38,0-0.7-0.05-0.96-0.14c-0.26-0.09-0.47-0.24-0.62-0.43c-0.16-0.2-0.27-0.43-0.34-0.73
		s-0.1-0.64-0.1-1.03c0-0.77,0.16-1.35,0.5-1.72c0.33-0.37,0.84-0.56,1.52-0.56c0.36,0,0.66,0.05,0.89,0.16s0.41,0.26,0.54,0.45
		c0.13,0.19,0.23,0.42,0.27,0.68s0.07,0.55,0.07,0.85v0.35h-3.04c0,0.25,0.02,0.46,0.05,0.63c0.09,0.35,0.24,0.59,0.45,0.71
		c0.22,0.13,0.51,0.2,0.88,0.2c0.31,0,0.59-0.04,0.82-0.12c0.24-0.08,0.43-0.16,0.57-0.23l0.19,0.5c-0.07,0.05-0.16,0.11-0.29,0.16
		s-0.27,0.1-0.41,0.14c-0.16,0.04-0.32,0.08-0.49,0.1C120.88,14.12,120.72,14.13,120.55,14.13z M121.55,11.47
		c0-0.52-0.09-0.89-0.27-1.09c-0.18-0.2-0.43-0.31-0.74-0.31c-0.37,0-0.64,0.08-0.84,0.24c-0.19,0.16-0.31,0.41-0.38,0.74
		c-0.02,0.07-0.02,0.13-0.03,0.2s-0.02,0.14-0.02,0.22H121.55z"/>
	<path class="st1" d="M124.84,14.13c-0.62,0-1.07-0.2-1.37-0.58c-0.29-0.39-0.44-0.94-0.44-1.66c0-0.34,0.04-0.66,0.12-0.95
		c0.08-0.29,0.2-0.54,0.37-0.75c0.17-0.21,0.39-0.37,0.66-0.49s0.59-0.18,0.97-0.18c0.21,0,0.42,0.03,0.61,0.08
		c0.12,0.03,0.24,0.08,0.37,0.14V7.48l0.72-0.11v5.52l0.08,1.12h-0.63l-0.09-0.31c-0.17,0.13-0.36,0.23-0.56,0.29
		C125.42,14.08,125.15,14.13,124.84,14.13z M125.21,10.08c-0.46,0-0.81,0.14-1.05,0.42s-0.37,0.75-0.37,1.39
		c0,0.23,0.02,0.44,0.06,0.64c0.04,0.2,0.1,0.37,0.2,0.53c0.1,0.15,0.23,0.27,0.39,0.36s0.38,0.14,0.62,0.14
		c0.27,0,0.5-0.05,0.7-0.16c0.06-0.03,0.12-0.07,0.19-0.11s0.12-0.09,0.19-0.14v-2.79C125.84,10.17,125.54,10.08,125.21,10.08z"/>
	<path class="st1" d="M129.87,14.13c-0.38,0-0.7-0.05-0.96-0.14c-0.26-0.09-0.47-0.24-0.62-0.43c-0.16-0.2-0.27-0.43-0.34-0.73
		c-0.07-0.29-0.1-0.64-0.1-1.03c0-0.77,0.16-1.35,0.5-1.72c0.33-0.37,0.84-0.56,1.52-0.56c0.36,0,0.66,0.05,0.89,0.16
		s0.41,0.26,0.54,0.45c0.13,0.19,0.23,0.42,0.27,0.68s0.07,0.55,0.07,0.85v0.35h-3.04c0,0.25,0.02,0.46,0.05,0.63
		c0.09,0.35,0.24,0.59,0.45,0.71c0.22,0.13,0.51,0.2,0.88,0.2c0.31,0,0.59-0.04,0.82-0.12c0.24-0.08,0.43-0.16,0.57-0.23l0.19,0.5
		c-0.07,0.05-0.16,0.11-0.29,0.16s-0.27,0.1-0.41,0.14c-0.16,0.04-0.32,0.08-0.49,0.1C130.2,14.12,130.04,14.13,129.87,14.13z
		 M130.87,11.47c0-0.52-0.09-0.89-0.27-1.09c-0.18-0.2-0.43-0.31-0.74-0.31c-0.37,0-0.64,0.08-0.84,0.24
		c-0.19,0.16-0.31,0.41-0.38,0.74c-0.02,0.07-0.02,0.13-0.03,0.2s-0.02,0.14-0.02,0.22H130.87z"/>
	<path class="st1" d="M134.16,14.13c-0.62,0-1.07-0.2-1.37-0.58c-0.29-0.39-0.44-0.94-0.44-1.66c0-0.34,0.04-0.66,0.12-0.95
		c0.08-0.29,0.2-0.54,0.37-0.75c0.17-0.21,0.39-0.37,0.66-0.49s0.59-0.18,0.97-0.18c0.21,0,0.42,0.03,0.61,0.08
		c0.12,0.03,0.24,0.08,0.37,0.14V7.48l0.72-0.11v5.52l0.08,1.12h-0.63l-0.09-0.31c-0.17,0.13-0.36,0.23-0.56,0.29
		C134.74,14.08,134.47,14.13,134.16,14.13z M134.53,10.08c-0.46,0-0.81,0.14-1.05,0.42s-0.37,0.75-0.37,1.39
		c0,0.23,0.02,0.44,0.06,0.64c0.04,0.2,0.1,0.37,0.2,0.53c0.1,0.15,0.23,0.27,0.39,0.36s0.38,0.14,0.62,0.14
		c0.27,0,0.5-0.05,0.7-0.16c0.06-0.03,0.12-0.07,0.19-0.11s0.12-0.09,0.19-0.14v-2.79C135.16,10.17,134.86,10.08,134.53,10.08z"/>
	<path class="st1" d="M142.3,9.62v0.58h-1.61v3.82h-0.73V10.2h-0.65V9.62h0.65V9.08c0-0.32,0.04-0.6,0.11-0.82
		c0.08-0.21,0.19-0.39,0.33-0.52c0.14-0.13,0.31-0.23,0.51-0.28s0.41-0.08,0.66-0.08c0.16,0,0.32,0.02,0.48,0.05
		c0.16,0.03,0.31,0.07,0.45,0.11l-0.16,0.57c-0.21-0.09-0.45-0.13-0.73-0.13c-0.34,0-0.57,0.09-0.7,0.26s-0.2,0.48-0.2,0.9v0.49
		H142.3z"/>
	<path class="st1" d="M144.55,14.13c-0.38,0-0.69-0.05-0.94-0.16c-0.25-0.11-0.45-0.26-0.6-0.46c-0.15-0.2-0.26-0.45-0.32-0.73
		c-0.05-0.29-0.09-0.61-0.09-0.98c0-0.77,0.16-1.35,0.51-1.72c0.34-0.38,0.88-0.56,1.64-0.56c0.37,0,0.68,0.05,0.94,0.16
		c0.25,0.11,0.45,0.26,0.6,0.46s0.26,0.45,0.32,0.73s0.1,0.61,0.1,0.98c0,0.77-0.18,1.34-0.53,1.71
		C145.83,13.94,145.29,14.13,144.55,14.13z M144.55,13.56c0.54,0,0.91-0.15,1.11-0.45s0.3-0.75,0.3-1.35c0-0.23-0.02-0.45-0.05-0.65
		c-0.04-0.2-0.1-0.38-0.19-0.54c-0.09-0.16-0.21-0.28-0.37-0.37s-0.36-0.14-0.6-0.14c-0.54,0-0.91,0.16-1.11,0.47
		c-0.2,0.31-0.3,0.76-0.3,1.35c0,0.24,0.02,0.46,0.05,0.66c0.04,0.2,0.1,0.38,0.19,0.53c0.09,0.15,0.21,0.27,0.37,0.36
		S144.31,13.56,144.55,13.56z"/>
	<path class="st1" d="M148.27,9.62l0.08,0.61c0.18-0.21,0.38-0.38,0.59-0.48c0.29-0.15,0.58-0.23,0.88-0.23
		c0.23,0,0.43,0.04,0.59,0.12l-0.2,0.61c-0.12-0.06-0.3-0.09-0.51-0.09c-0.27,0-0.52,0.08-0.76,0.24c-0.09,0.06-0.17,0.12-0.26,0.2
		c-0.08,0.07-0.16,0.16-0.24,0.25v3.18h-0.73v-3.2l-0.11-1.2H148.27z"/>
	<path class="st1" d="M156.96,14.04c-0.06,0.01-0.1,0.02-0.12,0.02h-0.14c-0.23,0-0.39-0.04-0.51-0.13
		c-0.11-0.09-0.2-0.21-0.26-0.37c-0.16,0.15-0.37,0.28-0.62,0.39c-0.25,0.11-0.55,0.17-0.9,0.17c-0.27,0-0.48-0.04-0.66-0.11
		s-0.32-0.17-0.43-0.29s-0.18-0.26-0.23-0.43s-0.07-0.34-0.07-0.53c0-0.27,0.05-0.49,0.14-0.66c0.09-0.17,0.23-0.3,0.39-0.41
		s0.36-0.18,0.59-0.21c0.23-0.04,0.48-0.06,0.76-0.06c0.18,0,0.34,0,0.47,0.02c0.13,0.01,0.29,0.02,0.46,0.03v-0.23
		c0-0.21-0.02-0.4-0.05-0.55s-0.09-0.27-0.17-0.36c-0.08-0.09-0.19-0.16-0.32-0.2c-0.14-0.04-0.31-0.06-0.52-0.06
		c-0.25,0-0.5,0.04-0.75,0.11s-0.45,0.14-0.62,0.22l-0.18-0.51c0.22-0.1,0.48-0.19,0.77-0.27c0.3-0.08,0.62-0.12,0.96-0.12
		c0.31,0,0.56,0.03,0.77,0.09c0.2,0.06,0.37,0.16,0.49,0.3c0.12,0.14,0.21,0.33,0.27,0.56c0.05,0.23,0.07,0.51,0.07,0.84v1.59
		c0,0.23,0.04,0.38,0.1,0.46c0.07,0.09,0.17,0.12,0.31,0.12V14.04z M154.82,11.99c-0.4,0-0.67,0.06-0.82,0.19s-0.23,0.32-0.23,0.57
		c0,0.29,0.07,0.5,0.2,0.62s0.35,0.19,0.66,0.19c0.21,0,0.42-0.05,0.63-0.14c0.21-0.09,0.4-0.2,0.55-0.33v-1.06
		c-0.16-0.01-0.33-0.02-0.48-0.03C155.18,11.99,155.01,11.99,154.82,11.99z"/>
	<path class="st1" d="M15.02,23.73c-0.62,0-1.07-0.2-1.37-0.58c-0.29-0.39-0.44-0.94-0.44-1.66c0-0.34,0.04-0.66,0.12-0.95
		c0.08-0.29,0.2-0.54,0.37-0.75c0.17-0.21,0.39-0.37,0.66-0.49s0.59-0.18,0.97-0.18c0.21,0,0.42,0.03,0.61,0.08
		c0.12,0.03,0.24,0.08,0.37,0.14v-2.26l0.72-0.11v5.52l0.08,1.12h-0.63l-0.09-0.31c-0.17,0.13-0.36,0.23-0.56,0.29
		C15.6,23.69,15.33,23.73,15.02,23.73z M15.39,19.68c-0.46,0-0.81,0.14-1.05,0.42s-0.37,0.75-0.37,1.39c0,0.23,0.02,0.44,0.06,0.64
		c0.04,0.2,0.1,0.37,0.2,0.53c0.1,0.15,0.23,0.27,0.39,0.36s0.38,0.14,0.62,0.14c0.27,0,0.5-0.05,0.7-0.16
		c0.06-0.03,0.12-0.07,0.19-0.11s0.12-0.09,0.19-0.14v-2.79C16.02,19.77,15.72,19.68,15.39,19.68z"/>
	<path class="st1" d="M18.24,17.41h0.74v0.77h-0.74V17.41z M18.25,19.23h0.73v4.4h-0.73V19.23z"/>
	<path class="st1" d="M23.77,19.23v4.61c0,0.36-0.05,0.66-0.15,0.91c-0.09,0.25-0.23,0.45-0.41,0.6c-0.17,0.15-0.39,0.27-0.64,0.34
		s-0.52,0.11-0.82,0.11c-0.29,0-0.55-0.02-0.78-0.06c-0.23-0.04-0.43-0.09-0.6-0.15l0.19-0.56c0.14,0.05,0.31,0.09,0.51,0.13
		c0.2,0.04,0.43,0.06,0.68,0.06c0.17,0,0.34-0.02,0.51-0.06c0.16-0.04,0.3-0.11,0.41-0.21c0.12-0.1,0.21-0.23,0.28-0.4
		c0.06-0.16,0.1-0.37,0.1-0.62v-0.53c-0.19,0.1-0.38,0.18-0.57,0.25c-0.2,0.07-0.42,0.1-0.66,0.1c-0.65,0-1.12-0.19-1.41-0.57
		c-0.29-0.39-0.44-0.94-0.44-1.65c0-0.35,0.04-0.66,0.11-0.96c0.08-0.29,0.2-0.54,0.37-0.75s0.39-0.38,0.66-0.49
		c0.27-0.12,0.59-0.18,0.98-0.18c0.23,0,0.43,0.03,0.59,0.08c0.17,0.05,0.34,0.11,0.48,0.18l0.05-0.16H23.77z M23.05,19.92
		c-0.13-0.05-0.27-0.11-0.41-0.16c-0.14-0.05-0.3-0.08-0.47-0.08c-0.5,0-0.87,0.14-1.1,0.43c-0.23,0.29-0.35,0.75-0.35,1.39
		c0,0.21,0.02,0.41,0.05,0.61s0.11,0.38,0.2,0.54c0.09,0.16,0.23,0.28,0.4,0.37c0.16,0.09,0.38,0.14,0.64,0.14
		c0.2,0,0.38-0.03,0.54-0.09c0.16-0.06,0.33-0.15,0.5-0.25V19.92z"/>
	<path class="st1" d="M24.97,17.41h0.74v0.77h-0.74V17.41z M24.98,19.23h0.73v4.4h-0.73V19.23z"/>
	<path class="st1" d="M27.91,19.8v2.17c0,0.19,0.01,0.36,0.02,0.5s0.05,0.27,0.11,0.36c0.05,0.1,0.14,0.17,0.25,0.22
		c0.12,0.05,0.27,0.08,0.46,0.08c0.27,0,0.53-0.05,0.8-0.14l0.13,0.51c-0.18,0.08-0.37,0.13-0.57,0.17
		c-0.2,0.04-0.39,0.06-0.59,0.06c-0.28,0-0.51-0.04-0.68-0.11c-0.18-0.08-0.31-0.18-0.41-0.32c-0.09-0.13-0.16-0.29-0.2-0.48
		c-0.03-0.19-0.05-0.39-0.05-0.6v-2.4h-0.75V19.3l0.75-0.08V18.3l0.73-0.12v1.04h1.66v0.58H27.91z"/>
	<path class="st1" d="M34.1,23.64c-0.06,0.01-0.1,0.02-0.12,0.02h-0.14c-0.23,0-0.39-0.04-0.51-0.13c-0.11-0.09-0.2-0.21-0.26-0.37
		c-0.16,0.15-0.37,0.28-0.62,0.39c-0.25,0.11-0.55,0.17-0.9,0.17c-0.27,0-0.48-0.04-0.66-0.11s-0.32-0.17-0.43-0.29
		s-0.18-0.26-0.23-0.43s-0.07-0.34-0.07-0.53c0-0.27,0.05-0.49,0.14-0.66c0.09-0.17,0.23-0.3,0.39-0.41s0.36-0.18,0.59-0.21
		c0.23-0.04,0.48-0.06,0.76-0.06c0.18,0,0.34,0,0.47,0.02c0.13,0.01,0.29,0.02,0.46,0.03v-0.23c0-0.21-0.02-0.4-0.05-0.55
		s-0.09-0.27-0.17-0.36c-0.08-0.09-0.19-0.16-0.32-0.2c-0.14-0.04-0.31-0.06-0.52-0.06c-0.25,0-0.5,0.04-0.75,0.11
		s-0.45,0.14-0.62,0.22l-0.18-0.51c0.22-0.1,0.48-0.19,0.77-0.27c0.3-0.08,0.62-0.12,0.96-0.12c0.31,0,0.56,0.03,0.77,0.09
		c0.2,0.06,0.37,0.16,0.49,0.3c0.12,0.14,0.21,0.33,0.27,0.56c0.05,0.23,0.07,0.51,0.07,0.84v1.59c0,0.23,0.04,0.38,0.1,0.46
		c0.07,0.09,0.17,0.12,0.31,0.12V23.64z M31.96,21.59c-0.4,0-0.67,0.06-0.82,0.19s-0.23,0.32-0.23,0.57c0,0.29,0.07,0.5,0.2,0.62
		s0.35,0.19,0.66,0.19c0.21,0,0.42-0.05,0.63-0.14c0.21-0.09,0.4-0.2,0.55-0.33v-1.06c-0.16-0.01-0.33-0.02-0.48-0.03
		C32.32,21.59,32.15,21.59,31.96,21.59z"/>
	<path class="st1" d="M36.04,23.65c0,0.01-0.03,0.01-0.09,0.01c-0.01,0-0.07,0.01-0.17,0.01c-0.34,0-0.58-0.1-0.71-0.29
		c-0.12-0.2-0.19-0.48-0.19-0.87v-5.43l0.72-0.11v5.52c0,0.27,0.03,0.43,0.09,0.5s0.18,0.11,0.34,0.11V23.65z"/>
	<path class="st1" d="M40.21,20.88c0.15,0.08,0.34,0.15,0.57,0.23s0.46,0.16,0.68,0.25c0.25,0.1,0.45,0.23,0.62,0.39
		c0.16,0.16,0.24,0.4,0.24,0.71c0,0.44-0.16,0.76-0.48,0.96c-0.31,0.2-0.77,0.3-1.38,0.3c-0.29,0-0.57-0.03-0.84-0.08
		c-0.27-0.05-0.51-0.13-0.7-0.23l0.23-0.55c0.16,0.09,0.34,0.15,0.57,0.2s0.48,0.08,0.74,0.08c0.14,0,0.28-0.01,0.42-0.03
		c0.13-0.02,0.26-0.04,0.36-0.09c0.1-0.04,0.19-0.11,0.25-0.19s0.09-0.2,0.09-0.34c0-0.28-0.18-0.48-0.54-0.61
		c-0.2-0.09-0.42-0.17-0.65-0.25c-0.23-0.07-0.44-0.15-0.62-0.23c-0.23-0.09-0.42-0.21-0.57-0.37C39.08,20.9,39,20.67,39,20.38
		c0-0.23,0.05-0.43,0.16-0.6c0.11-0.16,0.25-0.29,0.41-0.39c0.17-0.09,0.36-0.16,0.57-0.21c0.21-0.04,0.42-0.06,0.63-0.06
		c0.34,0,0.62,0.03,0.87,0.08s0.45,0.11,0.6,0.18l-0.23,0.55c-0.17-0.07-0.36-0.13-0.57-0.18c-0.2-0.05-0.43-0.07-0.69-0.07
		c-0.38,0-0.66,0.06-0.81,0.18s-0.23,0.26-0.23,0.42c0,0.14,0.04,0.26,0.12,0.35C39.9,20.72,40.03,20.8,40.21,20.88z"/>
	<path class="st1" d="M43.23,17.41h0.74v0.77h-0.74V17.41z M43.24,19.23h0.73v4.4h-0.73V19.23z"/>
	<path class="st1" d="M48.76,19.23v4.61c0,0.36-0.05,0.66-0.15,0.91c-0.09,0.25-0.23,0.45-0.41,0.6c-0.17,0.15-0.39,0.27-0.64,0.34
		s-0.52,0.11-0.82,0.11c-0.29,0-0.55-0.02-0.78-0.06c-0.23-0.04-0.43-0.09-0.6-0.15l0.19-0.56c0.14,0.05,0.31,0.09,0.51,0.13
		c0.2,0.04,0.43,0.06,0.68,0.06c0.17,0,0.34-0.02,0.51-0.06c0.16-0.04,0.3-0.11,0.41-0.21c0.12-0.1,0.21-0.23,0.28-0.4
		c0.06-0.16,0.1-0.37,0.1-0.62v-0.53c-0.19,0.1-0.38,0.18-0.57,0.25c-0.2,0.07-0.42,0.1-0.66,0.1c-0.65,0-1.12-0.19-1.41-0.57
		c-0.29-0.39-0.44-0.94-0.44-1.65c0-0.35,0.04-0.66,0.11-0.96c0.08-0.29,0.2-0.54,0.37-0.75s0.39-0.38,0.66-0.49
		c0.27-0.12,0.59-0.18,0.98-0.18c0.23,0,0.43,0.03,0.59,0.08c0.17,0.05,0.34,0.11,0.48,0.18l0.05-0.16H48.76z M48.04,19.92
		c-0.13-0.05-0.27-0.11-0.41-0.16c-0.14-0.05-0.3-0.08-0.47-0.08c-0.5,0-0.87,0.14-1.1,0.43c-0.23,0.29-0.35,0.75-0.35,1.39
		c0,0.21,0.02,0.41,0.05,0.61s0.11,0.38,0.2,0.54c0.09,0.16,0.23,0.28,0.4,0.37c0.16,0.09,0.38,0.14,0.64,0.14
		c0.2,0,0.38-0.03,0.54-0.09c0.16-0.06,0.33-0.15,0.5-0.25V19.92z"/>
	<path class="st1" d="M50.58,19.23l0.03,0.39c0.19-0.12,0.38-0.23,0.59-0.32c0.32-0.12,0.64-0.18,0.96-0.18
		c0.3,0,0.53,0.04,0.72,0.11s0.34,0.18,0.45,0.32c0.1,0.14,0.18,0.32,0.22,0.52c0.05,0.21,0.06,0.45,0.06,0.71v2.83h-0.73v-2.67
		c0-0.19-0.01-0.36-0.03-0.51c-0.02-0.16-0.05-0.29-0.12-0.39c-0.06-0.11-0.16-0.19-0.27-0.25s-0.27-0.09-0.48-0.09
		c-0.16,0-0.33,0.02-0.48,0.07s-0.3,0.11-0.45,0.18c-0.12,0.05-0.23,0.12-0.34,0.2v3.46h-0.73V20.4l-0.08-1.17H50.58z"/>
	<path class="st1" d="M58.44,23.64c-0.06,0.01-0.1,0.02-0.12,0.02h-0.14c-0.23,0-0.39-0.04-0.51-0.13c-0.11-0.09-0.2-0.21-0.26-0.37
		c-0.16,0.15-0.37,0.28-0.62,0.39c-0.25,0.11-0.55,0.17-0.9,0.17c-0.27,0-0.48-0.04-0.66-0.11s-0.32-0.17-0.43-0.29
		s-0.18-0.26-0.23-0.43s-0.07-0.34-0.07-0.53c0-0.27,0.05-0.49,0.14-0.66c0.09-0.17,0.23-0.3,0.39-0.41s0.36-0.18,0.59-0.21
		c0.23-0.04,0.48-0.06,0.76-0.06c0.18,0,0.34,0,0.47,0.02c0.13,0.01,0.29,0.02,0.46,0.03v-0.23c0-0.21-0.02-0.4-0.05-0.55
		s-0.09-0.27-0.17-0.36c-0.08-0.09-0.19-0.16-0.32-0.2c-0.14-0.04-0.31-0.06-0.52-0.06c-0.25,0-0.5,0.04-0.75,0.11
		s-0.45,0.14-0.62,0.22l-0.18-0.51c0.22-0.1,0.48-0.19,0.77-0.27c0.3-0.08,0.62-0.12,0.96-0.12c0.31,0,0.56,0.03,0.77,0.09
		c0.2,0.06,0.37,0.16,0.49,0.3c0.12,0.14,0.21,0.33,0.27,0.56c0.05,0.23,0.07,0.51,0.07,0.84v1.59c0,0.23,0.04,0.38,0.1,0.46
		c0.07,0.09,0.17,0.12,0.31,0.12V23.64z M56.29,21.59c-0.4,0-0.67,0.06-0.82,0.19s-0.23,0.32-0.23,0.57c0,0.29,0.07,0.5,0.2,0.62
		s0.35,0.19,0.66,0.19c0.21,0,0.42-0.05,0.63-0.14c0.21-0.09,0.4-0.2,0.55-0.33v-1.06c-0.16-0.01-0.33-0.02-0.48-0.03
		C56.65,21.59,56.48,21.59,56.29,21.59z"/>
	<path class="st1" d="M62.79,19.23v4.61c0,0.36-0.05,0.66-0.15,0.91c-0.09,0.25-0.23,0.45-0.41,0.6c-0.17,0.15-0.39,0.27-0.64,0.34
		s-0.52,0.11-0.82,0.11c-0.29,0-0.55-0.02-0.78-0.06c-0.23-0.04-0.43-0.09-0.6-0.15l0.19-0.56c0.14,0.05,0.31,0.09,0.51,0.13
		c0.2,0.04,0.43,0.06,0.68,0.06c0.17,0,0.34-0.02,0.51-0.06c0.16-0.04,0.3-0.11,0.41-0.21c0.12-0.1,0.21-0.23,0.28-0.4
		c0.06-0.16,0.1-0.37,0.1-0.62v-0.53c-0.19,0.1-0.38,0.18-0.57,0.25c-0.2,0.07-0.42,0.1-0.66,0.1c-0.65,0-1.12-0.19-1.41-0.57
		c-0.29-0.39-0.44-0.94-0.44-1.65c0-0.35,0.04-0.66,0.11-0.96c0.08-0.29,0.2-0.54,0.37-0.75s0.39-0.38,0.66-0.49
		c0.27-0.12,0.59-0.18,0.98-0.18c0.23,0,0.43,0.03,0.59,0.08c0.17,0.05,0.34,0.11,0.48,0.18l0.05-0.16H62.79z M62.07,19.92
		c-0.13-0.05-0.27-0.11-0.41-0.16c-0.14-0.05-0.3-0.08-0.47-0.08c-0.5,0-0.87,0.14-1.1,0.43c-0.23,0.29-0.35,0.75-0.35,1.39
		c0,0.21,0.02,0.41,0.05,0.61s0.11,0.38,0.2,0.54c0.09,0.16,0.23,0.28,0.4,0.37c0.16,0.09,0.38,0.14,0.64,0.14
		c0.2,0,0.38-0.03,0.54-0.09c0.16-0.06,0.33-0.15,0.5-0.25V19.92z"/>
	<path class="st1" d="M65.8,23.73c-0.38,0-0.71-0.05-0.97-0.14c-0.26-0.09-0.47-0.24-0.62-0.43c-0.16-0.2-0.27-0.43-0.34-0.73
		s-0.11-0.64-0.11-1.03c0-0.77,0.16-1.35,0.5-1.72c0.34-0.37,0.84-0.56,1.52-0.56c0.37,0,0.66,0.05,0.89,0.16
		c0.23,0.11,0.41,0.26,0.55,0.45c0.13,0.19,0.22,0.42,0.27,0.68s0.08,0.55,0.08,0.85v0.35h-3.05c0,0.25,0.02,0.46,0.05,0.63
		c0.09,0.35,0.24,0.59,0.46,0.71c0.21,0.13,0.51,0.2,0.88,0.2c0.31,0,0.59-0.04,0.83-0.12c0.23-0.08,0.42-0.16,0.56-0.23l0.2,0.5
		c-0.07,0.05-0.17,0.11-0.3,0.16s-0.26,0.1-0.41,0.14c-0.16,0.04-0.31,0.08-0.48,0.1C66.12,23.72,65.96,23.73,65.8,23.73z
		 M66.79,21.07c0-0.52-0.09-0.89-0.27-1.09c-0.18-0.2-0.43-0.31-0.74-0.31c-0.36,0-0.64,0.08-0.83,0.24s-0.32,0.41-0.39,0.74
		c-0.01,0.07-0.02,0.13-0.03,0.2c0,0.07-0.01,0.14-0.02,0.22H66.79z"/>
	<path class="st1" d="M71.46,19.23l0.02,0.39c0.19-0.12,0.38-0.23,0.59-0.32c0.32-0.12,0.64-0.18,0.96-0.18
		c0.3,0,0.54,0.04,0.72,0.11c0.19,0.07,0.34,0.18,0.45,0.32s0.19,0.32,0.23,0.52s0.06,0.45,0.06,0.71v2.83h-0.73v-2.67
		c0-0.19-0.01-0.36-0.02-0.51c-0.02-0.16-0.06-0.29-0.12-0.39s-0.16-0.19-0.27-0.25s-0.28-0.09-0.48-0.09
		c-0.16,0-0.33,0.02-0.48,0.07s-0.31,0.11-0.45,0.18c-0.12,0.05-0.23,0.12-0.34,0.2v3.46h-0.73V20.4l-0.08-1.17H71.46z"/>
	<path class="st1" d="M77.44,23.73c-0.38,0-0.7-0.05-0.96-0.14c-0.26-0.09-0.47-0.24-0.62-0.43c-0.16-0.2-0.27-0.43-0.34-0.73
		s-0.1-0.64-0.1-1.03c0-0.77,0.16-1.35,0.5-1.72c0.33-0.37,0.84-0.56,1.52-0.56c0.36,0,0.66,0.05,0.89,0.16s0.41,0.26,0.54,0.45
		c0.13,0.19,0.23,0.42,0.27,0.68s0.07,0.55,0.07,0.85v0.35h-3.04c0,0.25,0.02,0.46,0.05,0.63c0.09,0.35,0.24,0.59,0.45,0.71
		c0.22,0.13,0.51,0.2,0.88,0.2c0.31,0,0.59-0.04,0.82-0.12c0.24-0.08,0.43-0.16,0.57-0.23l0.19,0.5c-0.07,0.05-0.16,0.11-0.29,0.16
		s-0.27,0.1-0.41,0.14c-0.16,0.04-0.32,0.08-0.49,0.1C77.77,23.72,77.61,23.73,77.44,23.73z M78.44,21.07
		c0-0.52-0.09-0.89-0.27-1.09c-0.18-0.2-0.43-0.31-0.74-0.31c-0.37,0-0.64,0.08-0.84,0.24c-0.19,0.16-0.31,0.41-0.38,0.74
		c-0.02,0.07-0.02,0.13-0.03,0.2s-0.02,0.14-0.02,0.22H78.44z"/>
	<path class="st1" d="M81.15,19.8v2.17c0,0.19,0.01,0.36,0.02,0.5s0.05,0.27,0.11,0.36c0.05,0.1,0.14,0.17,0.25,0.22
		c0.12,0.05,0.27,0.08,0.46,0.08c0.27,0,0.53-0.05,0.8-0.14l0.13,0.51c-0.18,0.08-0.37,0.13-0.57,0.17
		c-0.2,0.04-0.39,0.06-0.59,0.06c-0.28,0-0.51-0.04-0.68-0.11c-0.18-0.08-0.31-0.18-0.41-0.32c-0.09-0.13-0.16-0.29-0.2-0.48
		c-0.03-0.19-0.05-0.39-0.05-0.6v-2.4h-0.75V19.3l0.75-0.08V18.3l0.73-0.12v1.04h1.66v0.58H81.15z"/>
	<path class="st1" d="M86.99,19.23l0.89,3.84h0.09l1.01-3.84h0.73l-1.26,4.4h-1.06l-0.89-3.84H86.4l-0.9,3.84h-1.07l-1.22-4.4h0.75
		l0.98,3.84h0.08l0.88-3.84H86.99z"/>
	<path class="st1" d="M92.13,23.73c-0.38,0-0.69-0.05-0.94-0.16c-0.25-0.11-0.45-0.26-0.6-0.46c-0.15-0.2-0.26-0.45-0.32-0.73
		c-0.05-0.29-0.09-0.61-0.09-0.98c0-0.77,0.16-1.35,0.51-1.72c0.34-0.38,0.88-0.56,1.64-0.56c0.37,0,0.68,0.05,0.94,0.16
		c0.25,0.11,0.45,0.26,0.6,0.46s0.26,0.45,0.32,0.73s0.1,0.61,0.1,0.98c0,0.77-0.18,1.34-0.53,1.71
		C93.41,23.55,92.87,23.73,92.13,23.73z M92.13,23.16c0.54,0,0.91-0.15,1.11-0.45s0.3-0.75,0.3-1.35c0-0.23-0.02-0.45-0.05-0.65
		c-0.04-0.2-0.1-0.38-0.19-0.54c-0.09-0.16-0.21-0.28-0.37-0.37s-0.36-0.14-0.6-0.14c-0.54,0-0.91,0.16-1.11,0.47
		c-0.2,0.31-0.3,0.76-0.3,1.35c0,0.24,0.02,0.46,0.05,0.66c0.04,0.2,0.1,0.38,0.19,0.53c0.09,0.15,0.21,0.27,0.37,0.36
		S91.89,23.16,92.13,23.16z"/>
	<path class="st1" d="M95.85,19.23l0.08,0.61c0.18-0.21,0.38-0.38,0.59-0.48c0.29-0.15,0.58-0.23,0.88-0.23
		c0.23,0,0.43,0.04,0.59,0.12l-0.2,0.61c-0.12-0.06-0.3-0.09-0.51-0.09c-0.27,0-0.52,0.08-0.76,0.24c-0.09,0.06-0.17,0.12-0.26,0.2
		c-0.08,0.07-0.16,0.16-0.24,0.25v3.18h-0.73v-3.2l-0.11-1.2H95.85z"/>
	<path class="st1" d="M98.54,23.62v-6.54l0.72-0.11v3.96h0.45l1.7-1.72h0.84l-1.95,2.01l2.02,2.39h-0.85l-1.77-2.1h-0.44v2.1H98.54z
		"/>
	<path class="st1" d="M105.26,17.41H106v0.77h-0.74V17.41z M105.27,19.23H106v4.4h-0.73V19.23z"/>
	<path class="st1" d="M107.83,19.23l0.02,0.39c0.19-0.12,0.38-0.23,0.59-0.32c0.32-0.12,0.64-0.18,0.96-0.18
		c0.3,0,0.54,0.04,0.72,0.11c0.19,0.07,0.34,0.18,0.45,0.32s0.19,0.32,0.23,0.52s0.06,0.45,0.06,0.71v2.83h-0.73v-2.67
		c0-0.19-0.01-0.36-0.02-0.51c-0.02-0.16-0.06-0.29-0.12-0.39s-0.16-0.19-0.27-0.25s-0.28-0.09-0.48-0.09
		c-0.16,0-0.33,0.02-0.48,0.07s-0.31,0.11-0.45,0.18c-0.12,0.05-0.23,0.12-0.34,0.2v3.46h-0.73V20.4l-0.08-1.17H107.83z"/>
	<path class="st1" d="M113.01,20.88c0.15,0.08,0.34,0.15,0.57,0.23s0.46,0.16,0.68,0.25c0.25,0.1,0.45,0.23,0.62,0.39
		c0.16,0.16,0.24,0.4,0.24,0.71c0,0.44-0.16,0.76-0.48,0.96c-0.31,0.2-0.77,0.3-1.38,0.3c-0.29,0-0.57-0.03-0.84-0.08
		c-0.27-0.05-0.51-0.13-0.7-0.23l0.23-0.55c0.16,0.09,0.34,0.15,0.57,0.2s0.48,0.08,0.74,0.08c0.14,0,0.28-0.01,0.42-0.03
		c0.13-0.02,0.26-0.04,0.36-0.09c0.1-0.04,0.19-0.11,0.25-0.19s0.09-0.2,0.09-0.34c0-0.28-0.18-0.48-0.54-0.61
		c-0.2-0.09-0.42-0.17-0.65-0.25c-0.23-0.07-0.44-0.15-0.62-0.23c-0.23-0.09-0.42-0.21-0.57-0.37c-0.14-0.15-0.22-0.38-0.22-0.67
		c0-0.23,0.05-0.43,0.16-0.6c0.11-0.16,0.25-0.29,0.41-0.39c0.17-0.09,0.36-0.16,0.57-0.21c0.21-0.04,0.42-0.06,0.63-0.06
		c0.34,0,0.62,0.03,0.87,0.08s0.45,0.11,0.6,0.18l-0.23,0.55c-0.17-0.07-0.36-0.13-0.57-0.18c-0.2-0.05-0.43-0.07-0.69-0.07
		c-0.38,0-0.66,0.06-0.81,0.18s-0.23,0.26-0.23,0.42c0,0.14,0.04,0.26,0.12,0.35C112.7,20.72,112.83,20.8,113.01,20.88z"/>
	<path class="st1" d="M116.03,17.41h0.74v0.77h-0.74V17.41z M116.04,19.23h0.73v4.4h-0.73V19.23z"/>
	<path class="st1" d="M119.55,23.73c-0.62,0-1.08-0.2-1.37-0.58s-0.44-0.94-0.44-1.66c0-0.34,0.04-0.66,0.12-0.95
		c0.08-0.29,0.2-0.54,0.37-0.75s0.39-0.37,0.66-0.49s0.59-0.18,0.96-0.18c0.22,0,0.42,0.03,0.62,0.08c0.12,0.03,0.24,0.08,0.36,0.14
		v-2.26l0.73-0.11v5.52l0.07,1.12h-0.63l-0.09-0.31c-0.17,0.13-0.36,0.23-0.55,0.29C120.12,23.69,119.86,23.73,119.55,23.73z
		 M119.92,19.68c-0.46,0-0.81,0.14-1.06,0.42c-0.24,0.28-0.36,0.75-0.36,1.39c0,0.23,0.02,0.44,0.05,0.64
		c0.04,0.2,0.11,0.37,0.2,0.53c0.09,0.15,0.23,0.27,0.39,0.36s0.37,0.14,0.62,0.14c0.27,0,0.49-0.05,0.69-0.16
		c0.07-0.03,0.13-0.07,0.19-0.11c0.06-0.04,0.12-0.09,0.19-0.14v-2.79C120.54,19.77,120.24,19.68,119.92,19.68z"/>
	<path class="st1" d="M124.58,23.73c-0.38,0-0.71-0.05-0.97-0.14c-0.26-0.09-0.47-0.24-0.62-0.43c-0.16-0.2-0.27-0.43-0.34-0.73
		s-0.11-0.64-0.11-1.03c0-0.77,0.16-1.35,0.5-1.72s0.84-0.56,1.52-0.56c0.37,0,0.66,0.05,0.89,0.16c0.23,0.11,0.41,0.26,0.55,0.45
		c0.13,0.19,0.22,0.42,0.27,0.68s0.08,0.55,0.08,0.85v0.35h-3.05c0,0.25,0.02,0.46,0.05,0.63c0.09,0.35,0.24,0.59,0.46,0.71
		c0.21,0.13,0.51,0.2,0.88,0.2c0.31,0,0.59-0.04,0.83-0.12c0.23-0.08,0.42-0.16,0.56-0.23l0.2,0.5c-0.07,0.05-0.17,0.11-0.3,0.16
		s-0.26,0.1-0.41,0.14c-0.16,0.04-0.31,0.08-0.48,0.1C124.9,23.72,124.74,23.73,124.58,23.73z M125.58,21.07
		c0-0.52-0.09-0.89-0.27-1.09c-0.18-0.2-0.43-0.31-0.74-0.31c-0.36,0-0.64,0.08-0.83,0.24s-0.32,0.41-0.39,0.74
		c-0.01,0.07-0.02,0.13-0.03,0.2c0,0.07-0.01,0.14-0.02,0.22H125.58z"/>
	<path class="st1" d="M130.62,19.8v2.17c0,0.19,0.01,0.36,0.02,0.5s0.05,0.27,0.11,0.36c0.05,0.1,0.14,0.17,0.25,0.22
		c0.12,0.05,0.27,0.08,0.46,0.08c0.27,0,0.53-0.05,0.8-0.14l0.13,0.51c-0.18,0.08-0.37,0.13-0.57,0.17
		c-0.2,0.04-0.39,0.06-0.59,0.06c-0.28,0-0.51-0.04-0.68-0.11c-0.18-0.08-0.31-0.18-0.41-0.32c-0.09-0.13-0.16-0.29-0.2-0.48
		c-0.03-0.19-0.05-0.39-0.05-0.6v-2.4h-0.75V19.3l0.75-0.08V18.3l0.73-0.12v1.04h1.66v0.58H130.62z"/>
	<path class="st1" d="M136.04,23.62v-2.66c0-0.18-0.01-0.35-0.03-0.5c-0.02-0.16-0.05-0.29-0.12-0.39
		c-0.06-0.11-0.16-0.19-0.27-0.24c-0.12-0.06-0.27-0.09-0.48-0.09c-0.16,0-0.33,0.02-0.48,0.07c-0.16,0.04-0.3,0.11-0.45,0.18
		c-0.06,0.04-0.12,0.07-0.18,0.1s-0.1,0.07-0.16,0.1v3.44h-0.73v-6.54l0.73-0.11v2.57c0.15-0.1,0.31-0.18,0.5-0.25
		c0.32-0.12,0.64-0.18,0.96-0.18c0.3,0,0.53,0.04,0.72,0.11s0.34,0.18,0.45,0.32c0.1,0.14,0.18,0.32,0.22,0.52
		c0.05,0.21,0.06,0.45,0.06,0.71v2.83H136.04z"/>
	<path class="st1" d="M139.72,23.73c-0.38,0-0.71-0.05-0.97-0.14c-0.26-0.09-0.47-0.24-0.62-0.43c-0.16-0.2-0.27-0.43-0.34-0.73
		s-0.11-0.64-0.11-1.03c0-0.77,0.16-1.35,0.5-1.72s0.84-0.56,1.52-0.56c0.37,0,0.66,0.05,0.89,0.16c0.23,0.11,0.41,0.26,0.55,0.45
		c0.13,0.19,0.22,0.42,0.27,0.68s0.08,0.55,0.08,0.85v0.35h-3.05c0,0.25,0.02,0.46,0.05,0.63c0.09,0.35,0.24,0.59,0.46,0.71
		c0.21,0.13,0.51,0.2,0.88,0.2c0.31,0,0.59-0.04,0.83-0.12c0.23-0.08,0.42-0.16,0.56-0.23l0.2,0.5c-0.07,0.05-0.17,0.11-0.3,0.16
		s-0.26,0.1-0.41,0.14c-0.16,0.04-0.31,0.08-0.48,0.1C140.04,23.72,139.88,23.73,139.72,23.73z M140.72,21.07
		c0-0.52-0.09-0.89-0.27-1.09c-0.18-0.2-0.43-0.31-0.74-0.31c-0.36,0-0.64,0.08-0.83,0.24s-0.32,0.41-0.39,0.74
		c-0.01,0.07-0.02,0.13-0.03,0.2c0,0.07-0.01,0.14-0.02,0.22H140.72z"/>
	<path class="st1" d="M146.33,23.73c-0.62,0-1.07-0.2-1.37-0.58c-0.29-0.39-0.44-0.94-0.44-1.66c0-0.34,0.04-0.66,0.12-0.95
		c0.08-0.29,0.2-0.54,0.37-0.75c0.17-0.21,0.39-0.37,0.66-0.49s0.59-0.18,0.97-0.18c0.21,0,0.42,0.03,0.61,0.08
		c0.12,0.03,0.24,0.08,0.37,0.14v-2.26l0.72-0.11v5.52l0.08,1.12h-0.63l-0.09-0.31c-0.17,0.13-0.36,0.23-0.56,0.29
		C146.91,23.69,146.65,23.73,146.33,23.73z M146.7,19.68c-0.46,0-0.81,0.14-1.05,0.42s-0.37,0.75-0.37,1.39
		c0,0.23,0.02,0.44,0.06,0.64c0.04,0.2,0.1,0.37,0.2,0.53c0.1,0.15,0.23,0.27,0.39,0.36s0.38,0.14,0.62,0.14
		c0.27,0,0.5-0.05,0.7-0.16c0.06-0.03,0.12-0.07,0.19-0.11s0.12-0.09,0.19-0.14v-2.79C147.33,19.77,147.03,19.68,146.7,19.68z"/>
	<path class="st1" d="M149.55,17.41h0.74v0.77h-0.74V17.41z M149.56,19.23h0.73v4.4h-0.73V19.23z"/>
	<path class="st1" d="M152.51,20.88c0.15,0.08,0.34,0.15,0.58,0.23c0.23,0.08,0.45,0.16,0.67,0.25c0.25,0.1,0.46,0.23,0.62,0.39
		c0.16,0.16,0.25,0.4,0.25,0.71c0,0.44-0.16,0.76-0.48,0.96c-0.32,0.2-0.77,0.3-1.38,0.3c-0.29,0-0.57-0.03-0.84-0.08
		s-0.5-0.13-0.7-0.23l0.23-0.55c0.15,0.09,0.34,0.15,0.57,0.2s0.47,0.08,0.74,0.08c0.14,0,0.28-0.01,0.41-0.03
		c0.14-0.02,0.26-0.04,0.36-0.09c0.1-0.04,0.19-0.11,0.25-0.19c0.07-0.08,0.1-0.2,0.1-0.34c0-0.28-0.18-0.48-0.54-0.61
		c-0.2-0.09-0.42-0.17-0.66-0.25c-0.23-0.07-0.44-0.15-0.62-0.23c-0.23-0.09-0.41-0.21-0.56-0.37c-0.15-0.15-0.22-0.38-0.22-0.67
		c0-0.23,0.05-0.43,0.16-0.6c0.1-0.16,0.24-0.29,0.41-0.39c0.16-0.09,0.36-0.16,0.57-0.21c0.21-0.04,0.42-0.06,0.63-0.06
		c0.34,0,0.62,0.03,0.87,0.08c0.24,0.05,0.44,0.11,0.6,0.18l-0.23,0.55c-0.17-0.07-0.36-0.13-0.56-0.18
		c-0.2-0.05-0.44-0.07-0.69-0.07c-0.39,0-0.66,0.06-0.81,0.18s-0.23,0.26-0.23,0.42c0,0.14,0.03,0.26,0.11,0.35
		C152.2,20.72,152.33,20.8,152.51,20.88z"/>
	<path class="st1" d="M156.1,19.23l0.08,0.32c0.19-0.13,0.38-0.23,0.56-0.29c0.26-0.09,0.52-0.14,0.8-0.14
		c0.62,0,1.08,0.2,1.37,0.58c0.3,0.39,0.44,0.94,0.44,1.66c0,0.34-0.04,0.66-0.11,0.96c-0.08,0.29-0.2,0.54-0.38,0.75
		s-0.38,0.37-0.65,0.49c-0.27,0.12-0.59,0.18-0.97,0.18c-0.23,0-0.43-0.03-0.6-0.09c-0.06-0.01-0.12-0.03-0.19-0.05
		c-0.05-0.02-0.12-0.05-0.18-0.08v2.17l-0.73,0.11v-5.44l-0.08-1.12H156.1z M157.18,23.16c0.45,0,0.8-0.14,1.04-0.42
		c0.25-0.28,0.37-0.74,0.37-1.39c0-0.22-0.02-0.44-0.05-0.64c-0.04-0.2-0.11-0.38-0.2-0.53c-0.09-0.15-0.23-0.27-0.38-0.36
		c-0.16-0.09-0.37-0.13-0.62-0.13c-0.26,0-0.48,0.05-0.69,0.16c-0.13,0.07-0.25,0.15-0.37,0.25v2.78
		C156.53,23.07,156.83,23.16,157.18,23.16z"/>
	<path class="st1" d="M161.47,23.65c-0.01,0.01-0.04,0.01-0.09,0.01c-0.02,0-0.07,0.01-0.17,0.01c-0.35,0-0.59-0.1-0.71-0.29
		c-0.13-0.2-0.2-0.48-0.2-0.87v-5.43l0.72-0.11v5.52c0,0.27,0.03,0.43,0.1,0.5c0.06,0.07,0.18,0.11,0.34,0.11V23.65z"/>
	<path class="st1" d="M166.12,23.64c-0.06,0.01-0.11,0.02-0.12,0.02h-0.15c-0.22,0-0.39-0.04-0.5-0.13s-0.2-0.21-0.27-0.37
		c-0.16,0.15-0.37,0.28-0.62,0.39c-0.26,0.11-0.55,0.17-0.9,0.17c-0.27,0-0.49-0.04-0.66-0.11c-0.18-0.07-0.32-0.17-0.43-0.29
		s-0.19-0.26-0.23-0.43c-0.04-0.16-0.06-0.34-0.06-0.53c0-0.27,0.05-0.49,0.14-0.66c0.09-0.17,0.22-0.3,0.38-0.41
		c0.17-0.1,0.37-0.18,0.59-0.21c0.23-0.04,0.48-0.06,0.75-0.06c0.18,0,0.34,0,0.48,0.02c0.13,0.01,0.28,0.02,0.46,0.03v-0.23
		c0-0.21-0.02-0.4-0.05-0.55c-0.03-0.15-0.09-0.27-0.16-0.36s-0.19-0.16-0.33-0.2c-0.13-0.04-0.31-0.06-0.52-0.06
		c-0.25,0-0.5,0.04-0.75,0.11s-0.45,0.14-0.61,0.22l-0.19-0.51c0.23-0.1,0.48-0.19,0.78-0.27c0.3-0.08,0.62-0.12,0.96-0.12
		c0.3,0,0.56,0.03,0.77,0.09c0.2,0.06,0.37,0.16,0.49,0.3c0.12,0.14,0.22,0.33,0.27,0.56c0.05,0.23,0.08,0.51,0.08,0.84v1.59
		c0,0.23,0.03,0.38,0.1,0.46c0.06,0.09,0.17,0.12,0.31,0.12V23.64z M163.98,21.59c-0.4,0-0.67,0.06-0.82,0.19
		c-0.16,0.12-0.23,0.32-0.23,0.57c0,0.29,0.06,0.5,0.19,0.62c0.13,0.13,0.35,0.19,0.66,0.19c0.21,0,0.42-0.05,0.63-0.14
		c0.21-0.09,0.4-0.2,0.56-0.33v-1.06c-0.17-0.01-0.33-0.02-0.48-0.03C164.33,21.59,164.17,21.59,163.98,21.59z"/>
	<path class="st1" d="M166.2,19.23h0.8l1.27,3.5h0.09l1.17-3.5h0.75l-1.68,4.68c-0.1,0.27-0.2,0.52-0.3,0.75s-0.22,0.43-0.35,0.6
		c-0.14,0.17-0.31,0.3-0.52,0.39c-0.2,0.09-0.46,0.14-0.78,0.14c-0.07,0-0.15,0-0.23-0.01c-0.07-0.01-0.13-0.02-0.18-0.04l0.09-0.56
		l0.15,0.03c0.02,0,0.08,0.01,0.16,0.01c0.23,0,0.42-0.04,0.55-0.12c0.13-0.08,0.23-0.18,0.31-0.3c0.03-0.05,0.08-0.12,0.12-0.21
		s0.09-0.19,0.12-0.29s0.08-0.21,0.12-0.31s0.08-0.21,0.11-0.3L166.2,19.23z"/>
	<path class="st1" d="M169.79,24.72c0.16-0.31,0.27-0.62,0.34-0.91c0.07-0.3,0.11-0.62,0.11-0.99h0.71
		c-0.01,0.48-0.07,0.88-0.19,1.22c-0.11,0.33-0.28,0.66-0.49,0.98L169.79,24.72z"/>
	<path class="st1" d="M14.04,28.82l0.08,0.61c0.18-0.21,0.38-0.38,0.59-0.48c0.29-0.15,0.58-0.23,0.88-0.23
		c0.23,0,0.43,0.04,0.59,0.12l-0.2,0.61c-0.12-0.06-0.3-0.09-0.51-0.09c-0.27,0-0.52,0.08-0.76,0.24c-0.09,0.06-0.17,0.12-0.26,0.2
		c-0.08,0.07-0.16,0.16-0.24,0.25v3.18h-0.73v-3.2l-0.11-1.2H14.04z"/>
	<path class="st1" d="M18.3,33.33c-0.38,0-0.71-0.05-0.97-0.14c-0.26-0.09-0.47-0.24-0.62-0.43c-0.16-0.2-0.27-0.43-0.34-0.73
		s-0.11-0.64-0.11-1.03c0-0.77,0.16-1.35,0.5-1.72s0.84-0.56,1.52-0.56c0.37,0,0.66,0.05,0.89,0.16c0.23,0.11,0.41,0.26,0.55,0.45
		c0.13,0.19,0.22,0.42,0.27,0.68s0.08,0.55,0.08,0.85v0.35h-3.05c0,0.25,0.02,0.46,0.05,0.63c0.09,0.35,0.24,0.59,0.46,0.71
		c0.21,0.13,0.51,0.2,0.88,0.2c0.31,0,0.59-0.04,0.83-0.12c0.23-0.08,0.42-0.16,0.56-0.23l0.2,0.5c-0.07,0.05-0.17,0.11-0.3,0.16
		s-0.26,0.1-0.41,0.14c-0.16,0.04-0.31,0.08-0.48,0.1C18.62,33.32,18.46,33.33,18.3,33.33z M19.29,30.67c0-0.52-0.09-0.89-0.27-1.09
		c-0.18-0.2-0.43-0.31-0.74-0.31c-0.36,0-0.64,0.08-0.83,0.24s-0.32,0.41-0.39,0.74c-0.01,0.07-0.02,0.13-0.03,0.2
		c0,0.07-0.01,0.14-0.02,0.22H19.29z"/>
	<path class="st1" d="M22.89,28.72c0.22,0,0.42,0.03,0.62,0.08c0.14,0.04,0.3,0.11,0.48,0.2l0.05-0.18h0.55v6.45l-0.73,0.11v-2.42
		c-0.16,0.09-0.32,0.18-0.48,0.24c-0.23,0.08-0.49,0.12-0.8,0.12c-0.62,0-1.08-0.2-1.37-0.58s-0.44-0.94-0.44-1.66
		c0-0.34,0.04-0.66,0.12-0.95c0.08-0.29,0.2-0.54,0.37-0.75s0.39-0.37,0.66-0.49S22.51,28.72,22.89,28.72z M22.96,29.28
		c-0.46,0-0.81,0.14-1.06,0.42c-0.24,0.28-0.36,0.75-0.36,1.39c0,0.23,0.02,0.44,0.05,0.64c0.04,0.2,0.11,0.37,0.2,0.53
		c0.09,0.15,0.23,0.27,0.39,0.36s0.37,0.14,0.62,0.14c0.27,0,0.49-0.05,0.69-0.16c0.07-0.03,0.13-0.07,0.19-0.11
		c0.06-0.04,0.12-0.09,0.19-0.14v-2.79C23.58,29.37,23.28,29.28,22.96,29.28z"/>
	<path class="st1" d="M29.38,32.05l0.08,1.17h-0.69l-0.05-0.38c-0.16,0.11-0.35,0.21-0.58,0.3c-0.34,0.13-0.66,0.19-0.95,0.19
		s-0.53-0.04-0.71-0.11c-0.19-0.07-0.34-0.18-0.44-0.32c-0.11-0.14-0.18-0.32-0.22-0.52c-0.05-0.21-0.06-0.45-0.06-0.73v-2.82h0.72
		v2.67c0,0.18,0.01,0.36,0.03,0.51s0.06,0.29,0.12,0.39s0.15,0.19,0.27,0.25c0.12,0.05,0.27,0.09,0.47,0.09
		c0.16,0,0.33-0.02,0.48-0.07c0.16-0.04,0.3-0.1,0.45-0.17l0.36-0.2v-3.47h0.72V32.05z"/>
	<path class="st1" d="M30.58,27.01h0.74v0.77h-0.74V27.01z M30.59,28.82h0.73v4.4h-0.73V28.82z"/>
	<path class="st1" d="M33.12,28.82l0.08,0.61c0.18-0.21,0.38-0.38,0.59-0.48c0.29-0.15,0.58-0.23,0.88-0.23
		c0.23,0,0.43,0.04,0.59,0.12l-0.2,0.61c-0.12-0.06-0.3-0.09-0.51-0.09c-0.27,0-0.52,0.08-0.76,0.24c-0.09,0.06-0.17,0.12-0.26,0.2
		c-0.08,0.07-0.16,0.16-0.24,0.25v3.18h-0.73v-3.2l-0.11-1.2H33.12z"/>
	<path class="st1" d="M35.69,27.01h0.74v0.77h-0.74V27.01z M35.7,28.82h0.73v4.4H35.7V28.82z"/>
	<path class="st1" d="M38.26,28.82l0.02,0.39c0.19-0.12,0.38-0.23,0.59-0.32c0.32-0.12,0.64-0.18,0.96-0.18
		c0.3,0,0.54,0.04,0.72,0.11c0.19,0.07,0.34,0.18,0.45,0.32s0.19,0.32,0.23,0.52s0.06,0.45,0.06,0.71v2.83h-0.73v-2.67
		c0-0.19-0.01-0.36-0.02-0.51c-0.02-0.16-0.06-0.29-0.12-0.39s-0.16-0.19-0.27-0.25s-0.28-0.09-0.48-0.09
		c-0.16,0-0.33,0.02-0.48,0.07s-0.31,0.11-0.45,0.18c-0.12,0.05-0.23,0.12-0.34,0.2v3.46h-0.73v-3.23l-0.08-1.17H38.26z"/>
	<path class="st1" d="M46.01,28.82v4.61c0,0.36-0.05,0.66-0.14,0.91s-0.23,0.45-0.41,0.6c-0.18,0.15-0.39,0.27-0.64,0.34
		s-0.52,0.11-0.83,0.11c-0.29,0-0.55-0.02-0.77-0.06c-0.23-0.04-0.44-0.09-0.61-0.15l0.2-0.56c0.14,0.05,0.31,0.09,0.51,0.13
		c0.2,0.04,0.42,0.06,0.67,0.06c0.18,0,0.35-0.02,0.51-0.06c0.16-0.04,0.3-0.11,0.42-0.21c0.12-0.1,0.21-0.23,0.27-0.4
		c0.07-0.16,0.1-0.37,0.1-0.62v-0.53c-0.19,0.1-0.38,0.18-0.57,0.25c-0.2,0.07-0.41,0.1-0.66,0.1c-0.66,0-1.12-0.19-1.41-0.57
		c-0.3-0.39-0.44-0.94-0.44-1.65c0-0.35,0.03-0.66,0.11-0.96c0.07-0.29,0.2-0.54,0.36-0.75c0.17-0.21,0.39-0.38,0.66-0.49
		c0.27-0.12,0.59-0.18,0.98-0.18c0.23,0,0.43,0.03,0.6,0.08s0.33,0.11,0.48,0.18l0.05-0.16H46.01z M45.29,29.51
		c-0.12-0.05-0.27-0.11-0.41-0.16c-0.15-0.05-0.3-0.08-0.48-0.08c-0.5,0-0.87,0.14-1.1,0.43c-0.23,0.29-0.34,0.75-0.34,1.39
		c0,0.21,0.02,0.41,0.05,0.61s0.1,0.38,0.2,0.54c0.09,0.16,0.23,0.28,0.39,0.37c0.16,0.09,0.38,0.14,0.64,0.14
		c0.2,0,0.38-0.03,0.55-0.09c0.16-0.06,0.33-0.15,0.49-0.25V29.51z"/>
	<path class="st1" d="M48.69,34.81h0.07c0.16,0,0.3-0.02,0.41-0.05c0.1-0.03,0.18-0.09,0.23-0.17c0.06-0.08,0.1-0.19,0.12-0.32
		c0.02-0.14,0.03-0.31,0.03-0.52v-4.92h0.73v4.73c0,0.3-0.02,0.57-0.05,0.8c-0.03,0.23-0.1,0.42-0.21,0.57
		c-0.1,0.15-0.26,0.27-0.45,0.34c-0.2,0.08-0.45,0.12-0.77,0.12h-0.1V34.81z M50.27,27.78h-0.74v-0.77h0.74V27.78z"/>
	<path class="st1" d="M55.06,32.05l0.08,1.17h-0.68l-0.05-0.38c-0.16,0.11-0.35,0.21-0.58,0.3c-0.34,0.13-0.66,0.19-0.96,0.19
		c-0.29,0-0.52-0.04-0.71-0.11s-0.33-0.18-0.44-0.32c-0.1-0.14-0.18-0.32-0.22-0.52s-0.06-0.45-0.06-0.73v-2.82h0.72v2.67
		c0,0.18,0.02,0.36,0.03,0.51c0.02,0.15,0.07,0.29,0.12,0.39c0.06,0.11,0.16,0.19,0.27,0.25c0.12,0.05,0.27,0.09,0.46,0.09
		c0.17,0,0.33-0.02,0.49-0.07c0.16-0.04,0.3-0.1,0.45-0.17l0.35-0.2v-3.47h0.72V32.05z"/>
	<path class="st1" d="M57.27,30.48c0.15,0.08,0.34,0.15,0.57,0.23s0.46,0.16,0.68,0.25c0.25,0.1,0.45,0.23,0.62,0.39
		c0.16,0.16,0.24,0.4,0.24,0.71c0,0.44-0.16,0.76-0.48,0.96c-0.31,0.2-0.77,0.3-1.38,0.3c-0.29,0-0.57-0.03-0.84-0.08
		c-0.27-0.05-0.51-0.13-0.7-0.23l0.23-0.55c0.16,0.09,0.34,0.15,0.57,0.2s0.48,0.08,0.74,0.08c0.14,0,0.28-0.01,0.42-0.03
		c0.13-0.02,0.26-0.04,0.36-0.09c0.1-0.04,0.19-0.11,0.25-0.19s0.09-0.2,0.09-0.34c0-0.28-0.18-0.48-0.54-0.61
		c-0.2-0.09-0.42-0.17-0.65-0.25c-0.23-0.07-0.44-0.15-0.62-0.23c-0.23-0.09-0.42-0.21-0.57-0.37c-0.14-0.15-0.22-0.38-0.22-0.67
		c0-0.23,0.05-0.43,0.16-0.6c0.11-0.16,0.25-0.29,0.41-0.39c0.17-0.09,0.36-0.16,0.57-0.21c0.21-0.04,0.42-0.06,0.63-0.06
		c0.34,0,0.62,0.03,0.87,0.08s0.45,0.11,0.6,0.18l-0.23,0.55c-0.17-0.07-0.36-0.13-0.57-0.18c-0.2-0.05-0.43-0.07-0.69-0.07
		c-0.38,0-0.66,0.06-0.81,0.18s-0.23,0.26-0.23,0.42c0,0.14,0.04,0.26,0.12,0.35C56.97,30.32,57.09,30.4,57.27,30.48z"/>
	<path class="st1" d="M61.29,29.4v2.17c0,0.19,0.01,0.36,0.02,0.5s0.05,0.27,0.11,0.36c0.05,0.1,0.14,0.17,0.25,0.22
		c0.12,0.05,0.27,0.08,0.46,0.08c0.27,0,0.53-0.05,0.8-0.14l0.13,0.51c-0.18,0.08-0.37,0.13-0.57,0.17
		c-0.2,0.04-0.39,0.06-0.59,0.06c-0.28,0-0.51-0.04-0.68-0.11c-0.18-0.08-0.31-0.18-0.41-0.32c-0.09-0.13-0.16-0.29-0.2-0.48
		c-0.03-0.19-0.05-0.39-0.05-0.6v-2.4h-0.75V28.9l0.75-0.08V27.9l0.73-0.12v1.04h1.66v0.58H61.29z"/>
	<path class="st1" d="M69.8,33.24c-0.06,0.01-0.11,0.02-0.12,0.02h-0.15c-0.22,0-0.39-0.04-0.5-0.13s-0.2-0.21-0.27-0.37
		c-0.16,0.15-0.37,0.28-0.62,0.39c-0.26,0.11-0.55,0.17-0.9,0.17c-0.27,0-0.49-0.04-0.66-0.11c-0.18-0.07-0.32-0.17-0.43-0.29
		s-0.19-0.26-0.23-0.43c-0.04-0.16-0.06-0.34-0.06-0.53c0-0.27,0.05-0.49,0.14-0.66c0.09-0.17,0.22-0.3,0.38-0.41
		c0.17-0.1,0.37-0.18,0.59-0.21c0.23-0.04,0.48-0.06,0.75-0.06c0.18,0,0.34,0,0.48,0.02c0.13,0.01,0.28,0.02,0.46,0.03v-0.23
		c0-0.21-0.02-0.4-0.05-0.55c-0.03-0.15-0.09-0.27-0.16-0.36s-0.19-0.16-0.33-0.2c-0.13-0.04-0.31-0.06-0.52-0.06
		c-0.25,0-0.5,0.04-0.75,0.11s-0.45,0.14-0.61,0.22l-0.19-0.51c0.23-0.1,0.48-0.19,0.78-0.27c0.3-0.08,0.62-0.12,0.96-0.12
		c0.3,0,0.56,0.03,0.77,0.09c0.2,0.06,0.37,0.16,0.49,0.3c0.12,0.14,0.22,0.33,0.27,0.56c0.05,0.23,0.08,0.51,0.08,0.84v1.59
		c0,0.23,0.03,0.38,0.1,0.46c0.06,0.09,0.17,0.12,0.31,0.12V33.24z M67.66,31.19c-0.4,0-0.67,0.06-0.82,0.19
		c-0.16,0.12-0.23,0.32-0.23,0.57c0,0.29,0.06,0.5,0.19,0.62c0.13,0.13,0.35,0.19,0.66,0.19c0.21,0,0.42-0.05,0.63-0.14
		c0.21-0.09,0.4-0.2,0.56-0.33v-1.06c-0.17-0.01-0.33-0.02-0.48-0.03C68.01,31.19,67.85,31.19,67.66,31.19z"/>
	<path class="st1" d="M73.9,30.48c0.15,0.08,0.34,0.15,0.58,0.23c0.23,0.08,0.45,0.16,0.67,0.25c0.25,0.1,0.46,0.23,0.62,0.39
		c0.16,0.16,0.25,0.4,0.25,0.71c0,0.44-0.16,0.76-0.48,0.96c-0.32,0.2-0.77,0.3-1.38,0.3c-0.29,0-0.57-0.03-0.84-0.08
		s-0.5-0.13-0.7-0.23l0.23-0.55c0.15,0.09,0.34,0.15,0.57,0.2s0.47,0.08,0.74,0.08c0.14,0,0.28-0.01,0.41-0.03
		c0.14-0.02,0.26-0.04,0.36-0.09c0.1-0.04,0.19-0.11,0.25-0.19c0.07-0.08,0.1-0.2,0.1-0.34c0-0.28-0.18-0.48-0.54-0.61
		c-0.2-0.09-0.42-0.17-0.66-0.25c-0.23-0.07-0.44-0.15-0.62-0.23c-0.23-0.09-0.41-0.21-0.56-0.37c-0.15-0.15-0.22-0.38-0.22-0.67
		c0-0.23,0.05-0.43,0.16-0.6c0.1-0.16,0.24-0.29,0.41-0.39c0.16-0.09,0.36-0.16,0.57-0.21c0.21-0.04,0.42-0.06,0.63-0.06
		c0.34,0,0.62,0.03,0.87,0.08c0.24,0.05,0.44,0.11,0.6,0.18l-0.23,0.55c-0.17-0.07-0.36-0.13-0.56-0.18
		c-0.2-0.05-0.44-0.07-0.69-0.07c-0.39,0-0.66,0.06-0.81,0.18s-0.23,0.26-0.23,0.42c0,0.14,0.03,0.26,0.11,0.35
		C73.59,30.32,73.72,30.4,73.9,30.48z"/>
	<path class="st1" d="M76.92,27.01h0.74v0.77h-0.74V27.01z M76.94,28.82h0.73v4.4h-0.73V28.82z"/>
	<path class="st1" d="M79.49,28.82l0.02,0.39c0.19-0.12,0.38-0.23,0.59-0.32c0.32-0.12,0.64-0.18,0.96-0.18
		c0.3,0,0.54,0.04,0.72,0.11c0.19,0.07,0.34,0.18,0.45,0.32s0.19,0.32,0.23,0.52s0.06,0.45,0.06,0.71v2.83h-0.73v-2.67
		c0-0.19-0.01-0.36-0.02-0.51c-0.02-0.16-0.06-0.29-0.12-0.39s-0.16-0.19-0.27-0.25s-0.28-0.09-0.48-0.09
		c-0.16,0-0.33,0.02-0.48,0.07s-0.31,0.11-0.45,0.18c-0.12,0.05-0.23,0.12-0.34,0.2v3.46h-0.73v-3.23l-0.08-1.17H79.49z"/>
	<path class="st1" d="M87.24,28.82v4.61c0,0.36-0.05,0.66-0.14,0.91s-0.23,0.45-0.41,0.6c-0.18,0.15-0.39,0.27-0.64,0.34
		s-0.52,0.11-0.83,0.11c-0.29,0-0.55-0.02-0.77-0.06c-0.23-0.04-0.44-0.09-0.61-0.15l0.2-0.56c0.14,0.05,0.31,0.09,0.51,0.13
		c0.2,0.04,0.42,0.06,0.67,0.06c0.18,0,0.35-0.02,0.51-0.06c0.16-0.04,0.3-0.11,0.42-0.21c0.12-0.1,0.21-0.23,0.27-0.4
		c0.07-0.16,0.1-0.37,0.1-0.62v-0.53c-0.19,0.1-0.38,0.18-0.57,0.25c-0.2,0.07-0.41,0.1-0.66,0.1c-0.66,0-1.12-0.19-1.41-0.57
		c-0.3-0.39-0.44-0.94-0.44-1.65c0-0.35,0.03-0.66,0.11-0.96c0.07-0.29,0.2-0.54,0.36-0.75c0.17-0.21,0.39-0.38,0.66-0.49
		c0.27-0.12,0.59-0.18,0.98-0.18c0.23,0,0.43,0.03,0.6,0.08s0.33,0.11,0.48,0.18l0.05-0.16H87.24z M86.52,29.51
		c-0.12-0.05-0.27-0.11-0.41-0.16c-0.15-0.05-0.3-0.08-0.48-0.08c-0.5,0-0.87,0.14-1.1,0.43c-0.23,0.29-0.34,0.75-0.34,1.39
		c0,0.21,0.02,0.41,0.05,0.61s0.1,0.38,0.2,0.54c0.09,0.16,0.23,0.28,0.39,0.37c0.16,0.09,0.38,0.14,0.64,0.14
		c0.2,0,0.38-0.03,0.55-0.09c0.16-0.06,0.33-0.15,0.49-0.25V29.51z"/>
	<path class="st1" d="M89.62,33.25c-0.01,0.01-0.04,0.01-0.09,0.01c-0.02,0-0.07,0.01-0.17,0.01c-0.35,0-0.59-0.1-0.71-0.29
		c-0.13-0.2-0.2-0.48-0.2-0.87v-5.43l0.72-0.11v5.52c0,0.27,0.03,0.43,0.1,0.5c0.06,0.07,0.18,0.11,0.34,0.11V33.25z"/>
	<path class="st1" d="M92.26,33.33c-0.38,0-0.7-0.05-0.96-0.14c-0.26-0.09-0.47-0.24-0.62-0.43c-0.16-0.2-0.27-0.43-0.34-0.73
		s-0.1-0.64-0.1-1.03c0-0.77,0.16-1.35,0.5-1.72c0.33-0.37,0.84-0.56,1.52-0.56c0.36,0,0.66,0.05,0.89,0.16s0.41,0.26,0.54,0.45
		c0.13,0.19,0.23,0.42,0.27,0.68s0.07,0.55,0.07,0.85v0.35h-3.04c0,0.25,0.02,0.46,0.05,0.63c0.09,0.35,0.24,0.59,0.45,0.71
		c0.22,0.13,0.51,0.2,0.88,0.2c0.31,0,0.59-0.04,0.82-0.12c0.24-0.08,0.43-0.16,0.57-0.23l0.19,0.5c-0.07,0.05-0.16,0.11-0.29,0.16
		s-0.27,0.1-0.41,0.14c-0.16,0.04-0.32,0.08-0.49,0.1C92.59,33.32,92.43,33.33,92.26,33.33z M93.26,30.67
		c0-0.52-0.09-0.89-0.27-1.09c-0.18-0.2-0.43-0.31-0.74-0.31c-0.37,0-0.64,0.08-0.84,0.24c-0.19,0.16-0.31,0.41-0.38,0.74
		c-0.02,0.07-0.02,0.13-0.03,0.2s-0.02,0.14-0.02,0.22H93.26z"/>
	<path class="st1" d="M97.87,28.82l0.08,0.32c0.19-0.13,0.38-0.23,0.56-0.29c0.26-0.09,0.52-0.14,0.8-0.14
		c0.62,0,1.08,0.2,1.37,0.58c0.3,0.39,0.44,0.94,0.44,1.66c0,0.34-0.04,0.66-0.11,0.96c-0.08,0.29-0.2,0.54-0.38,0.75
		s-0.38,0.37-0.65,0.49c-0.27,0.12-0.59,0.18-0.97,0.18c-0.23,0-0.43-0.03-0.6-0.09c-0.06-0.01-0.12-0.03-0.19-0.05
		c-0.05-0.02-0.12-0.05-0.18-0.08v2.17l-0.73,0.11v-5.44l-0.08-1.12H97.87z M98.95,32.76c0.45,0,0.8-0.14,1.04-0.42
		c0.25-0.28,0.37-0.74,0.37-1.39c0-0.22-0.02-0.44-0.05-0.64c-0.04-0.2-0.11-0.38-0.2-0.53c-0.09-0.15-0.23-0.27-0.38-0.36
		c-0.16-0.09-0.37-0.13-0.62-0.13c-0.26,0-0.48,0.05-0.69,0.16c-0.13,0.07-0.25,0.15-0.37,0.25v2.78
		C98.3,32.67,98.6,32.76,98.95,32.76z"/>
	<path class="st1" d="M103.8,33.33c-0.38,0-0.69-0.05-0.94-0.16c-0.25-0.11-0.45-0.26-0.6-0.46c-0.15-0.2-0.26-0.45-0.32-0.73
		c-0.05-0.29-0.09-0.61-0.09-0.98c0-0.77,0.16-1.35,0.51-1.72c0.34-0.38,0.88-0.56,1.64-0.56c0.37,0,0.68,0.05,0.94,0.16
		c0.25,0.11,0.45,0.26,0.6,0.46s0.26,0.45,0.32,0.73s0.1,0.61,0.1,0.98c0,0.77-0.18,1.34-0.53,1.71
		C105.08,33.14,104.54,33.33,103.8,33.33z M103.8,32.76c0.54,0,0.91-0.15,1.11-0.45s0.3-0.75,0.3-1.35c0-0.23-0.02-0.45-0.05-0.65
		c-0.04-0.2-0.1-0.38-0.19-0.54c-0.09-0.16-0.21-0.28-0.37-0.37s-0.36-0.14-0.6-0.14c-0.54,0-0.91,0.16-1.11,0.47
		c-0.2,0.31-0.3,0.76-0.3,1.35c0,0.24,0.02,0.46,0.05,0.66c0.04,0.2,0.1,0.38,0.19,0.53c0.09,0.15,0.21,0.27,0.37,0.36
		S103.56,32.76,103.8,32.76z"/>
	<path class="st1" d="M110.22,28.82l0.89,3.84h0.09l1.01-3.84h0.73l-1.26,4.4h-1.06l-0.9-3.84h-0.09l-0.89,3.84h-1.08l-1.22-4.4
		h0.75l0.99,3.84h0.08l0.88-3.84H110.22z"/>
	<path class="st1" d="M115.34,33.33c-0.38,0-0.7-0.05-0.96-0.14c-0.26-0.09-0.47-0.24-0.62-0.43c-0.16-0.2-0.27-0.43-0.34-0.73
		s-0.1-0.64-0.1-1.03c0-0.77,0.16-1.35,0.5-1.72c0.33-0.37,0.84-0.56,1.52-0.56c0.36,0,0.66,0.05,0.89,0.16s0.41,0.26,0.54,0.45
		c0.13,0.19,0.23,0.42,0.27,0.68s0.07,0.55,0.07,0.85v0.35h-3.04c0,0.25,0.02,0.46,0.05,0.63c0.09,0.35,0.24,0.59,0.45,0.71
		c0.22,0.13,0.51,0.2,0.88,0.2c0.31,0,0.59-0.04,0.82-0.12c0.24-0.08,0.43-0.16,0.57-0.23l0.19,0.5c-0.07,0.05-0.16,0.11-0.29,0.16
		s-0.27,0.1-0.41,0.14c-0.16,0.04-0.32,0.08-0.49,0.1C115.67,33.32,115.51,33.33,115.34,33.33z M116.34,30.67
		c0-0.52-0.09-0.89-0.27-1.09c-0.18-0.2-0.43-0.31-0.74-0.31c-0.37,0-0.64,0.08-0.84,0.24c-0.19,0.16-0.31,0.41-0.38,0.74
		c-0.02,0.07-0.02,0.13-0.03,0.2s-0.02,0.14-0.02,0.22H116.34z"/>
	<path class="st1" d="M118.65,28.82l0.08,0.61c0.18-0.21,0.38-0.38,0.59-0.48c0.29-0.15,0.58-0.23,0.88-0.23
		c0.23,0,0.43,0.04,0.59,0.12l-0.2,0.61c-0.12-0.06-0.3-0.09-0.51-0.09c-0.27,0-0.52,0.08-0.76,0.24c-0.09,0.06-0.17,0.12-0.26,0.2
		c-0.08,0.07-0.16,0.16-0.24,0.25v3.18h-0.73v-3.2l-0.11-1.2H118.65z"/>
	<path class="st1" d="M126.94,32.97c-0.14,0.08-0.34,0.16-0.6,0.24c-0.26,0.07-0.55,0.11-0.85,0.11c-0.73,0-1.25-0.2-1.57-0.58
		s-0.48-0.94-0.48-1.66c0-0.79,0.19-1.39,0.55-1.78c0.38-0.39,0.93-0.59,1.66-0.59c0.27,0,0.53,0.05,0.78,0.14
		c0.24,0.09,0.43,0.22,0.57,0.38l-0.44,0.43c-0.11-0.12-0.24-0.22-0.4-0.29s-0.34-0.11-0.52-0.11c-0.48,0-0.84,0.15-1.09,0.44
		s-0.38,0.76-0.38,1.4c0,0.24,0.02,0.46,0.07,0.67c0.05,0.2,0.12,0.37,0.24,0.52c0.11,0.14,0.25,0.26,0.43,0.34
		c0.18,0.08,0.39,0.12,0.64,0.12s0.48-0.03,0.67-0.08s0.38-0.12,0.55-0.2L126.94,32.97z"/>
	<path class="st1" d="M131.36,33.24c-0.06,0.01-0.1,0.02-0.12,0.02h-0.14c-0.23,0-0.39-0.04-0.51-0.13
		c-0.11-0.09-0.2-0.21-0.26-0.37c-0.16,0.15-0.37,0.28-0.62,0.39c-0.25,0.11-0.55,0.17-0.9,0.17c-0.27,0-0.48-0.04-0.66-0.11
		c-0.18-0.07-0.32-0.17-0.43-0.29s-0.18-0.26-0.23-0.43s-0.07-0.34-0.07-0.53c0-0.27,0.05-0.49,0.14-0.66
		c0.09-0.17,0.23-0.3,0.39-0.41c0.16-0.1,0.36-0.18,0.59-0.21c0.23-0.04,0.48-0.06,0.76-0.06c0.18,0,0.34,0,0.47,0.02
		c0.13,0.01,0.29,0.02,0.46,0.03v-0.23c0-0.21-0.02-0.4-0.05-0.55s-0.09-0.27-0.17-0.36c-0.08-0.09-0.19-0.16-0.32-0.2
		c-0.14-0.04-0.31-0.06-0.52-0.06c-0.25,0-0.5,0.04-0.75,0.11s-0.45,0.14-0.62,0.22l-0.18-0.51c0.22-0.1,0.48-0.19,0.77-0.27
		c0.3-0.08,0.62-0.12,0.96-0.12c0.31,0,0.56,0.03,0.77,0.09c0.2,0.06,0.37,0.16,0.49,0.3c0.12,0.14,0.21,0.33,0.27,0.56
		c0.05,0.23,0.07,0.51,0.07,0.84v1.59c0,0.23,0.04,0.38,0.1,0.46c0.07,0.09,0.17,0.12,0.31,0.12V33.24z M129.22,31.19
		c-0.4,0-0.67,0.06-0.82,0.19s-0.23,0.32-0.23,0.57c0,0.29,0.07,0.5,0.2,0.62s0.35,0.19,0.66,0.19c0.21,0,0.42-0.05,0.63-0.14
		c0.21-0.09,0.4-0.2,0.55-0.33v-1.06c-0.16-0.01-0.33-0.02-0.48-0.03C129.58,31.19,129.4,31.19,129.22,31.19z"/>
	<path class="st1" d="M133.83,33.33c-0.23,0-0.43-0.03-0.6-0.09c-0.13-0.03-0.3-0.09-0.49-0.19l-0.07,0.17h-0.53v-6.54l0.73-0.11
		v2.52c0.15-0.1,0.3-0.18,0.47-0.24c0.26-0.09,0.52-0.14,0.8-0.14c0.62,0,1.08,0.2,1.37,0.58c0.3,0.39,0.44,0.94,0.44,1.66
		c0,0.34-0.04,0.66-0.11,0.96c-0.08,0.29-0.2,0.54-0.38,0.75s-0.38,0.37-0.65,0.49C134.54,33.27,134.21,33.33,133.83,33.33z
		 M133.77,32.76c0.45,0,0.8-0.14,1.04-0.42c0.25-0.28,0.37-0.74,0.37-1.39c0-0.22-0.02-0.44-0.05-0.64c-0.04-0.2-0.11-0.38-0.2-0.53
		c-0.09-0.15-0.23-0.27-0.38-0.36c-0.16-0.09-0.37-0.13-0.62-0.13c-0.26,0-0.48,0.05-0.69,0.16c-0.13,0.07-0.25,0.15-0.37,0.25v2.78
		C133.12,32.67,133.42,32.76,133.77,32.76z"/>
	<path class="st1" d="M138.07,33.25c-0.01,0.01-0.04,0.01-0.09,0.01c-0.02,0-0.07,0.01-0.17,0.01c-0.35,0-0.59-0.1-0.71-0.29
		c-0.13-0.2-0.2-0.48-0.2-0.87v-5.43l0.72-0.11v5.52c0,0.27,0.03,0.43,0.1,0.5c0.06,0.07,0.18,0.11,0.34,0.11V33.25z"/>
	<path class="st1" d="M140.72,33.33c-0.38,0-0.7-0.05-0.96-0.14c-0.26-0.09-0.47-0.24-0.62-0.43c-0.16-0.2-0.27-0.43-0.34-0.73
		s-0.1-0.64-0.1-1.03c0-0.77,0.16-1.35,0.5-1.72c0.33-0.37,0.84-0.56,1.52-0.56c0.36,0,0.66,0.05,0.89,0.16s0.41,0.26,0.54,0.45
		c0.13,0.19,0.23,0.42,0.27,0.68s0.07,0.55,0.07,0.85v0.35h-3.04c0,0.25,0.02,0.46,0.05,0.63c0.09,0.35,0.24,0.59,0.45,0.71
		c0.22,0.13,0.51,0.2,0.88,0.2c0.31,0,0.59-0.04,0.82-0.12c0.24-0.08,0.43-0.16,0.57-0.23l0.19,0.5c-0.07,0.05-0.16,0.11-0.29,0.16
		s-0.27,0.1-0.41,0.14c-0.16,0.04-0.32,0.08-0.49,0.1C141.04,33.32,140.88,33.33,140.72,33.33z M141.72,30.67
		c0-0.52-0.09-0.89-0.27-1.09c-0.18-0.2-0.43-0.31-0.74-0.31c-0.37,0-0.64,0.08-0.84,0.24c-0.19,0.16-0.31,0.41-0.38,0.74
		c-0.02,0.07-0.02,0.13-0.03,0.2s-0.02,0.14-0.02,0.22H141.72z"/>
	<path class="st1" d="M149.44,33.24c-0.06,0.01-0.1,0.02-0.12,0.02h-0.14c-0.23,0-0.39-0.04-0.51-0.13
		c-0.11-0.09-0.2-0.21-0.26-0.37c-0.16,0.15-0.37,0.28-0.62,0.39c-0.25,0.11-0.55,0.17-0.9,0.17c-0.27,0-0.48-0.04-0.66-0.11
		s-0.32-0.17-0.43-0.29s-0.18-0.26-0.23-0.43s-0.07-0.34-0.07-0.53c0-0.27,0.05-0.49,0.14-0.66c0.09-0.17,0.23-0.3,0.39-0.41
		s0.36-0.18,0.59-0.21c0.23-0.04,0.48-0.06,0.76-0.06c0.18,0,0.34,0,0.47,0.02c0.13,0.01,0.29,0.02,0.46,0.03v-0.23
		c0-0.21-0.02-0.4-0.05-0.55s-0.09-0.27-0.17-0.36c-0.08-0.09-0.19-0.16-0.32-0.2c-0.14-0.04-0.31-0.06-0.52-0.06
		c-0.25,0-0.5,0.04-0.75,0.11s-0.45,0.14-0.62,0.22l-0.18-0.51c0.22-0.1,0.48-0.19,0.77-0.27c0.3-0.08,0.62-0.12,0.96-0.12
		c0.31,0,0.56,0.03,0.77,0.09c0.2,0.06,0.37,0.16,0.49,0.3c0.12,0.14,0.21,0.33,0.27,0.56c0.05,0.23,0.07,0.51,0.07,0.84v1.59
		c0,0.23,0.04,0.38,0.1,0.46c0.07,0.09,0.17,0.12,0.31,0.12V33.24z M147.3,31.19c-0.4,0-0.67,0.06-0.82,0.19s-0.23,0.32-0.23,0.57
		c0,0.29,0.07,0.5,0.2,0.62s0.35,0.19,0.66,0.19c0.21,0,0.42-0.05,0.63-0.14c0.21-0.09,0.4-0.2,0.55-0.33v-1.06
		c-0.16-0.01-0.33-0.02-0.48-0.03C147.66,31.19,147.49,31.19,147.3,31.19z"/>
	<path class="st1" d="M150.83,28.82l0.03,0.39c0.19-0.12,0.38-0.23,0.59-0.32c0.32-0.12,0.64-0.18,0.96-0.18
		c0.3,0,0.53,0.04,0.72,0.11s0.34,0.18,0.45,0.32c0.1,0.14,0.18,0.32,0.22,0.52c0.05,0.21,0.06,0.45,0.06,0.71v2.83h-0.73v-2.67
		c0-0.19-0.01-0.36-0.03-0.51c-0.02-0.16-0.05-0.29-0.12-0.39c-0.06-0.11-0.16-0.19-0.27-0.25s-0.27-0.09-0.48-0.09
		c-0.16,0-0.33,0.02-0.48,0.07s-0.3,0.11-0.45,0.18c-0.12,0.05-0.23,0.12-0.34,0.2v3.46h-0.73v-3.23l-0.08-1.17H150.83z"/>
	<path class="st1" d="M156.58,33.33c-0.62,0-1.08-0.2-1.37-0.58s-0.44-0.94-0.44-1.66c0-0.34,0.04-0.66,0.12-0.95
		c0.08-0.29,0.2-0.54,0.37-0.75s0.39-0.37,0.66-0.49s0.59-0.18,0.96-0.18c0.22,0,0.42,0.03,0.62,0.08c0.12,0.03,0.24,0.08,0.36,0.14
		v-2.26l0.73-0.11v5.52l0.07,1.12h-0.63l-0.09-0.31c-0.17,0.13-0.36,0.23-0.55,0.29C157.15,33.28,156.88,33.33,156.58,33.33z
		 M156.94,29.28c-0.46,0-0.81,0.14-1.06,0.42c-0.24,0.28-0.36,0.75-0.36,1.39c0,0.23,0.02,0.44,0.05,0.64
		c0.04,0.2,0.11,0.37,0.2,0.53c0.09,0.15,0.23,0.27,0.39,0.36s0.37,0.14,0.62,0.14c0.27,0,0.49-0.05,0.69-0.16
		c0.07-0.03,0.13-0.07,0.19-0.11c0.06-0.04,0.12-0.09,0.19-0.14v-2.79C157.57,29.37,157.26,29.28,156.94,29.28z"/>
	<path class="st1" d="M165.8,33.24c-0.06,0.01-0.11,0.02-0.12,0.02h-0.15c-0.22,0-0.39-0.04-0.5-0.13s-0.2-0.21-0.27-0.37
		c-0.16,0.15-0.37,0.28-0.62,0.39c-0.26,0.11-0.55,0.17-0.9,0.17c-0.27,0-0.49-0.04-0.66-0.11c-0.18-0.07-0.32-0.17-0.43-0.29
		s-0.19-0.26-0.23-0.43c-0.04-0.16-0.06-0.34-0.06-0.53c0-0.27,0.05-0.49,0.14-0.66c0.09-0.17,0.22-0.3,0.38-0.41
		c0.17-0.1,0.37-0.18,0.59-0.21c0.23-0.04,0.48-0.06,0.75-0.06c0.18,0,0.34,0,0.48,0.02c0.13,0.01,0.28,0.02,0.46,0.03v-0.23
		c0-0.21-0.02-0.4-0.05-0.55c-0.03-0.15-0.09-0.27-0.16-0.36s-0.19-0.16-0.33-0.2c-0.13-0.04-0.31-0.06-0.52-0.06
		c-0.25,0-0.5,0.04-0.75,0.11s-0.45,0.14-0.61,0.22l-0.19-0.51c0.23-0.1,0.48-0.19,0.78-0.27c0.3-0.08,0.62-0.12,0.96-0.12
		c0.3,0,0.56,0.03,0.77,0.09c0.2,0.06,0.37,0.16,0.49,0.3c0.12,0.14,0.22,0.33,0.27,0.56c0.05,0.23,0.08,0.51,0.08,0.84v1.59
		c0,0.23,0.03,0.38,0.1,0.46c0.06,0.09,0.17,0.12,0.31,0.12V33.24z M163.66,31.19c-0.4,0-0.67,0.06-0.82,0.19
		c-0.16,0.12-0.23,0.32-0.23,0.57c0,0.29,0.06,0.5,0.19,0.62c0.13,0.13,0.35,0.19,0.66,0.19c0.21,0,0.42-0.05,0.63-0.14
		c0.21-0.09,0.4-0.2,0.56-0.33v-1.06c-0.17-0.01-0.33-0.02-0.48-0.03C164.01,31.19,163.85,31.19,163.66,31.19z"/>
	<path class="st1" d="M21.61,36.49l-1.72,6.33h-1.14l-1.41-5.71h-0.09l-1.37,5.71h-1.14l-1.79-6.33h0.8l1.52,5.71h0.09l1.34-5.71
		h1.19l1.42,5.71h0.07l1.45-5.71H21.61z"/>
	<path class="st1" d="M22.3,36.61h0.74v0.77H22.3V36.61z M22.31,38.42h0.73v4.4h-0.73V38.42z"/>
	<path class="st1" d="M26.62,40.9h-2.4v-0.63h2.4V40.9z"/>
	<path class="st1" d="M28.59,42.82h-0.73v-6.33h3.59v0.62h-2.85v2.14h2.65v0.61h-2.65V42.82z"/>
	<path class="st1" d="M32.47,36.61h0.74v0.77h-0.74V36.61z M32.49,38.42h0.73v4.4h-0.73V38.42z"/>
	<path class="st1" d="M40.04,42.57c-0.14,0.08-0.34,0.16-0.6,0.24c-0.26,0.07-0.55,0.11-0.85,0.11c-0.73,0-1.25-0.2-1.57-0.58
		s-0.48-0.94-0.48-1.66c0-0.79,0.19-1.39,0.55-1.78c0.38-0.39,0.93-0.59,1.66-0.59c0.27,0,0.53,0.05,0.78,0.14
		c0.24,0.09,0.43,0.22,0.57,0.38l-0.44,0.43c-0.11-0.12-0.24-0.22-0.4-0.29s-0.34-0.11-0.52-0.11c-0.48,0-0.84,0.15-1.09,0.44
		s-0.38,0.76-0.38,1.4c0,0.24,0.02,0.46,0.07,0.67c0.05,0.2,0.12,0.37,0.24,0.52c0.11,0.14,0.25,0.26,0.43,0.34
		c0.18,0.08,0.39,0.12,0.64,0.12s0.48-0.03,0.67-0.08s0.38-0.12,0.55-0.2L40.04,42.57z"/>
	<path class="st1" d="M42.4,42.93c-0.38,0-0.69-0.05-0.94-0.16c-0.25-0.11-0.45-0.26-0.6-0.46c-0.15-0.2-0.26-0.45-0.32-0.73
		c-0.05-0.29-0.09-0.61-0.09-0.98c0-0.77,0.16-1.35,0.51-1.72c0.34-0.38,0.88-0.56,1.64-0.56c0.37,0,0.68,0.05,0.94,0.16
		c0.25,0.11,0.45,0.26,0.6,0.46s0.26,0.45,0.32,0.73s0.1,0.61,0.1,0.98c0,0.77-0.18,1.34-0.53,1.71
		C43.68,42.74,43.13,42.93,42.4,42.93z M42.4,42.36c0.54,0,0.91-0.15,1.11-0.45s0.3-0.75,0.3-1.35c0-0.23-0.02-0.45-0.05-0.65
		c-0.04-0.2-0.1-0.38-0.19-0.54c-0.09-0.16-0.21-0.28-0.37-0.37s-0.36-0.14-0.6-0.14c-0.54,0-0.91,0.16-1.11,0.47
		c-0.2,0.31-0.3,0.76-0.3,1.35c0,0.24,0.02,0.46,0.05,0.66c0.04,0.2,0.1,0.38,0.19,0.53c0.09,0.15,0.21,0.27,0.37,0.36
		S42.15,42.36,42.4,42.36z"/>
	<path class="st1" d="M46.15,38.42l0.02,0.39c0.19-0.12,0.38-0.23,0.59-0.32c0.32-0.12,0.64-0.18,0.96-0.18
		c0.3,0,0.54,0.04,0.72,0.11c0.19,0.07,0.34,0.18,0.45,0.32s0.19,0.32,0.23,0.52s0.06,0.45,0.06,0.71v2.83h-0.73v-2.67
		c0-0.19-0.01-0.36-0.02-0.51c-0.02-0.16-0.06-0.29-0.12-0.39s-0.16-0.19-0.27-0.25s-0.28-0.09-0.48-0.09
		c-0.16,0-0.33,0.02-0.48,0.07s-0.31,0.11-0.45,0.18c-0.12,0.05-0.23,0.12-0.34,0.2v3.46h-0.73V39.6l-0.08-1.17H46.15z"/>
	<path class="st1" d="M50.94,38.42l0.02,0.39c0.19-0.12,0.38-0.23,0.59-0.32c0.32-0.12,0.64-0.18,0.96-0.18
		c0.3,0,0.54,0.04,0.72,0.11c0.19,0.07,0.34,0.18,0.45,0.32s0.19,0.32,0.23,0.52s0.06,0.45,0.06,0.71v2.83h-0.73v-2.67
		c0-0.19-0.01-0.36-0.02-0.51c-0.02-0.16-0.06-0.29-0.12-0.39s-0.16-0.19-0.27-0.25s-0.28-0.09-0.48-0.09
		c-0.16,0-0.33,0.02-0.48,0.07s-0.31,0.11-0.45,0.18c-0.12,0.05-0.23,0.12-0.34,0.2v3.46h-0.73V39.6l-0.08-1.17H50.94z"/>
	<path class="st1" d="M56.92,42.93c-0.38,0-0.7-0.05-0.96-0.14c-0.26-0.09-0.47-0.24-0.62-0.43c-0.16-0.2-0.27-0.43-0.34-0.73
		s-0.1-0.64-0.1-1.03c0-0.77,0.16-1.35,0.5-1.72c0.33-0.37,0.84-0.56,1.52-0.56c0.36,0,0.66,0.05,0.89,0.16s0.41,0.26,0.54,0.45
		c0.13,0.19,0.23,0.42,0.27,0.68s0.07,0.55,0.07,0.85v0.35h-3.04c0,0.25,0.02,0.46,0.05,0.63c0.09,0.35,0.24,0.59,0.45,0.71
		c0.22,0.13,0.51,0.2,0.88,0.2c0.31,0,0.59-0.04,0.82-0.12c0.24-0.08,0.43-0.16,0.57-0.23l0.19,0.5c-0.07,0.05-0.16,0.11-0.29,0.16
		s-0.27,0.1-0.41,0.14c-0.16,0.04-0.32,0.08-0.49,0.1C57.25,42.92,57.08,42.93,56.92,42.93z M57.92,40.27
		c0-0.52-0.09-0.89-0.27-1.09c-0.18-0.2-0.43-0.31-0.74-0.31c-0.37,0-0.64,0.08-0.84,0.24c-0.19,0.16-0.31,0.41-0.38,0.74
		c-0.02,0.07-0.02,0.13-0.03,0.2s-0.02,0.14-0.02,0.22H57.92z"/>
	<path class="st1" d="M62.92,42.57c-0.14,0.08-0.34,0.16-0.6,0.24c-0.26,0.07-0.54,0.11-0.84,0.11c-0.73,0-1.26-0.2-1.58-0.58
		s-0.48-0.94-0.48-1.66c0-0.79,0.18-1.39,0.55-1.78c0.37-0.39,0.92-0.59,1.66-0.59c0.27,0,0.53,0.05,0.77,0.14s0.44,0.22,0.58,0.38
		l-0.45,0.43c-0.11-0.12-0.24-0.22-0.4-0.29s-0.33-0.11-0.52-0.11c-0.48,0-0.84,0.15-1.09,0.44s-0.38,0.76-0.38,1.4
		c0,0.24,0.02,0.46,0.08,0.67c0.05,0.2,0.12,0.37,0.23,0.52c0.12,0.14,0.26,0.26,0.44,0.34c0.17,0.08,0.38,0.12,0.63,0.12
		c0.26,0,0.48-0.03,0.68-0.08s0.38-0.12,0.54-0.2L62.92,42.57z"/>
	<path class="st1" d="M64.76,39v2.17c0,0.19,0.01,0.36,0.02,0.5s0.05,0.27,0.11,0.36c0.06,0.1,0.14,0.17,0.26,0.22
		c0.11,0.05,0.27,0.08,0.45,0.08c0.27,0,0.54-0.05,0.8-0.14l0.13,0.51c-0.18,0.08-0.37,0.13-0.56,0.17c-0.2,0.04-0.4,0.06-0.59,0.06
		c-0.28,0-0.51-0.04-0.69-0.11c-0.18-0.08-0.31-0.18-0.41-0.32c-0.09-0.13-0.16-0.29-0.2-0.48c-0.04-0.19-0.05-0.39-0.05-0.6v-2.4
		h-0.75V38.5l0.75-0.08V37.5l0.72-0.12v1.04h1.66V39H64.76z"/>
	<path class="st1" d="M67.26,36.61h0.74v0.77h-0.74V36.61z M67.27,38.42h0.73v4.4h-0.73V38.42z"/>
	<path class="st1" d="M70.94,42.93c-0.38,0-0.7-0.05-0.95-0.16c-0.25-0.11-0.45-0.26-0.6-0.46c-0.15-0.2-0.25-0.45-0.31-0.73
		s-0.09-0.61-0.09-0.98c0-0.77,0.17-1.35,0.51-1.72c0.34-0.38,0.89-0.56,1.64-0.56c0.38,0,0.69,0.05,0.94,0.16
		c0.26,0.11,0.45,0.26,0.61,0.46c0.15,0.2,0.26,0.45,0.32,0.73s0.09,0.61,0.09,0.98c0,0.77-0.17,1.34-0.52,1.71
		C72.22,42.74,71.68,42.93,70.94,42.93z M70.94,42.36c0.53,0,0.91-0.15,1.11-0.45c0.2-0.3,0.3-0.75,0.3-1.35
		c0-0.23-0.02-0.45-0.05-0.65c-0.03-0.2-0.09-0.38-0.18-0.54c-0.09-0.16-0.22-0.28-0.38-0.37s-0.35-0.14-0.6-0.14
		c-0.53,0-0.91,0.16-1.11,0.47c-0.2,0.31-0.3,0.76-0.3,1.35c0,0.24,0.02,0.46,0.05,0.66c0.03,0.2,0.09,0.38,0.19,0.53
		c0.09,0.15,0.21,0.27,0.37,0.36S70.69,42.36,70.94,42.36z"/>
	<path class="st1" d="M74.69,38.42l0.03,0.39c0.19-0.12,0.38-0.23,0.59-0.32c0.32-0.12,0.64-0.18,0.96-0.18
		c0.3,0,0.53,0.04,0.72,0.11s0.34,0.18,0.45,0.32c0.1,0.14,0.18,0.32,0.22,0.52c0.05,0.21,0.06,0.45,0.06,0.71v2.83h-0.73v-2.67
		c0-0.19-0.01-0.36-0.03-0.51c-0.02-0.16-0.05-0.29-0.12-0.39c-0.06-0.11-0.16-0.19-0.27-0.25s-0.27-0.09-0.48-0.09
		c-0.16,0-0.33,0.02-0.48,0.07s-0.3,0.11-0.45,0.18c-0.12,0.05-0.23,0.12-0.34,0.2v3.46h-0.73V39.6l-0.08-1.17H74.69z"/>
	<path class="st1" d="M79.55,42.82h-0.83v-0.8h0.83V42.82z"/>
</g>
</svg>
