<?xml version="1.0" encoding="utf-8"?>
<!-- Generator: Adobe Illustrator 23.0.0, SVG Export Plug-In . SVG Version: 6.00 Build 0)  -->
<svg version="1.1" id="Layer_1" xmlns="http://www.w3.org/2000/svg" xmlns:xlink="http://www.w3.org/1999/xlink" x="0px" y="0px"
	 viewBox="0 0 182.66 52.5" style="enable-background:new 0 0 182.66 52.5;" xml:space="preserve">
<style type="text/css">
	.st0{fill:#BCBEC0;stroke:#808285;stroke-width:0.8;stroke-miterlimit:10;}
	.st1{fill:#C40452;}
	.st2{fill:#464A4C;}
</style>
<path class="st0" d="M163,51.16H19.9c-9.5,0-17.28-7.78-17.28-17.28V19.44c0-9.5,7.78-17.28,17.28-17.28H163
	c9.5,0,17.28,7.78,17.28,17.28v14.44C180.28,43.38,172.51,51.16,163,51.16z"/>
<g>
	<path class="st1" d="M17.07,20.57l-0.02-3.83h-0.09l-1.62,3.83h-1.09l-0.24-4.4h0.74l0.13,3.82h0.09l1.59-3.82h1.1l0.03,3.82h0.09
		l1.74-3.82h0.76l-2.12,4.4H17.07z"/>
	<path class="st1" d="M23.66,20.27c-0.1,0.04-0.21,0.09-0.34,0.14c-0.13,0.05-0.27,0.09-0.42,0.13c-0.16,0.04-0.32,0.07-0.49,0.09
		c-0.17,0.03-0.34,0.04-0.52,0.04c-0.24,0-0.46-0.03-0.66-0.09c-0.2-0.06-0.38-0.16-0.53-0.29c-0.16-0.13-0.27-0.3-0.36-0.51
		c-0.09-0.21-0.12-0.46-0.12-0.75c0-0.4,0.05-0.77,0.16-1.13c0.1-0.36,0.27-0.68,0.48-0.95c0.22-0.27,0.48-0.49,0.8-0.65
		s0.7-0.24,1.12-0.24c0.42,0,0.75,0.1,1,0.29c0.24,0.19,0.36,0.46,0.36,0.82c0,0.33-0.09,0.6-0.29,0.8
		c-0.19,0.21-0.44,0.37-0.74,0.49c-0.3,0.12-0.64,0.2-1.02,0.25s-0.74,0.09-1.11,0.11v0.21c0,0.35,0.09,0.62,0.27,0.79
		c0.17,0.18,0.46,0.27,0.87,0.27c0.29,0,0.55-0.04,0.8-0.12c0.24-0.08,0.46-0.16,0.66-0.24L23.66,20.27z M22.68,16.62
		c-0.27,0-0.49,0.05-0.69,0.15s-0.35,0.23-0.48,0.38c-0.13,0.16-0.23,0.34-0.3,0.54c-0.08,0.2-0.12,0.41-0.16,0.61
		c0.27-0.02,0.54-0.05,0.82-0.09c0.27-0.04,0.52-0.1,0.75-0.17c0.23-0.08,0.41-0.18,0.55-0.3c0.14-0.12,0.21-0.27,0.21-0.46
		c0-0.22-0.06-0.38-0.2-0.5C23.05,16.68,22.89,16.62,22.68,16.62z"/>
	<path class="st1" d="M26.14,16.57c0.21-0.16,0.43-0.29,0.66-0.38c0.22-0.09,0.48-0.14,0.77-0.14c0.41,0,0.72,0.13,0.92,0.39
		c0.21,0.26,0.31,0.59,0.31,1c0,0.43-0.05,0.84-0.16,1.23c-0.1,0.39-0.26,0.73-0.45,1.02c-0.2,0.29-0.45,0.52-0.73,0.7
		c-0.28,0.17-0.62,0.26-0.98,0.26c-0.48,0-0.89-0.12-1.22-0.35l-0.13,0.25h-0.55l1.39-6.54l0.76-0.11L26.14,16.57z M27.28,16.62
		c-0.2,0-0.4,0.05-0.61,0.16c-0.21,0.11-0.44,0.26-0.66,0.45l-0.55,2.57c0.15,0.12,0.3,0.2,0.45,0.25c0.14,0.05,0.29,0.07,0.43,0.07
		c0.3,0,0.55-0.07,0.77-0.22c0.21-0.15,0.38-0.34,0.52-0.58c0.14-0.24,0.24-0.51,0.3-0.82c0.06-0.3,0.09-0.61,0.09-0.93
		c0-0.3-0.06-0.53-0.18-0.69C27.72,16.7,27.54,16.62,27.28,16.62z"/>
	<path class="st1" d="M31.76,20.67c-0.72,0-1.26-0.19-1.62-0.57c-0.35-0.39-0.53-0.95-0.53-1.7c0-0.55,0.06-1.07,0.2-1.58
		c0.14-0.51,0.34-0.96,0.62-1.36c0.28-0.4,0.62-0.72,1.05-0.96c0.41-0.24,0.91-0.36,1.46-0.36c0.71,0,1.25,0.2,1.61,0.59
		s0.54,0.95,0.54,1.69c0,0.54-0.06,1.06-0.2,1.57s-0.34,0.97-0.62,1.36c-0.27,0.4-0.62,0.71-1.04,0.96
		C32.81,20.55,32.32,20.67,31.76,20.67z M32.87,14.76c-0.38,0-0.73,0.09-1.03,0.29c-0.3,0.19-0.56,0.45-0.77,0.77
		c-0.21,0.33-0.38,0.71-0.48,1.16c-0.12,0.45-0.17,0.92-0.17,1.42c0,0.52,0.12,0.93,0.36,1.22s0.59,0.44,1.05,0.44
		c0.39,0,0.73-0.09,1.04-0.29c0.3-0.19,0.56-0.45,0.77-0.77c0.22-0.32,0.38-0.71,0.49-1.16c0.12-0.44,0.17-0.92,0.17-1.43
		c0-0.52-0.12-0.93-0.37-1.22C33.69,14.91,33.33,14.76,32.87,14.76z"/>
	<path class="st1" d="M35.62,19.69c0.18,0.09,0.41,0.16,0.67,0.24c0.27,0.07,0.55,0.11,0.86,0.11c0.23,0,0.45-0.03,0.66-0.09
		c0.21-0.06,0.38-0.14,0.52-0.25c0.15-0.11,0.26-0.23,0.34-0.38c0.09-0.15,0.12-0.32,0.12-0.5c0-0.19-0.05-0.35-0.15-0.48
		s-0.21-0.23-0.33-0.3c-0.22-0.14-0.45-0.25-0.69-0.35c-0.23-0.1-0.48-0.22-0.73-0.36c-0.24-0.13-0.44-0.3-0.59-0.51
		c-0.14-0.21-0.21-0.45-0.21-0.72c0-0.34,0.06-0.64,0.19-0.89c0.13-0.25,0.3-0.45,0.52-0.61s0.48-0.28,0.78-0.35
		c0.3-0.07,0.62-0.11,0.97-0.11c0.35,0,0.66,0.03,0.94,0.09c0.28,0.06,0.53,0.14,0.76,0.24l-0.31,0.59
		c-0.16-0.07-0.37-0.14-0.6-0.21c-0.23-0.06-0.52-0.09-0.84-0.09c-0.48,0-0.87,0.1-1.16,0.3c-0.3,0.2-0.45,0.49-0.45,0.88
		c0,0.2,0.05,0.36,0.15,0.48s0.21,0.22,0.35,0.3c0.2,0.12,0.43,0.23,0.68,0.34s0.5,0.23,0.74,0.37c0.23,0.13,0.41,0.3,0.55,0.5
		c0.13,0.21,0.2,0.45,0.2,0.74c0,0.35-0.06,0.64-0.19,0.9c-0.13,0.25-0.3,0.46-0.54,0.62c-0.23,0.16-0.48,0.29-0.79,0.36
		c-0.3,0.08-0.62,0.12-0.97,0.12c-0.35,0-0.67-0.04-0.97-0.11s-0.56-0.16-0.8-0.27L35.62,19.69z"/>
	<path class="st1" d="M42.82,19.69c0.18,0.09,0.41,0.16,0.67,0.24c0.27,0.07,0.55,0.11,0.86,0.11c0.23,0,0.45-0.03,0.66-0.09
		c0.21-0.06,0.38-0.14,0.52-0.25c0.15-0.11,0.26-0.23,0.34-0.38C45.96,19.17,46,19,46,18.82c0-0.19-0.05-0.35-0.15-0.48
		s-0.21-0.23-0.33-0.3c-0.22-0.14-0.45-0.25-0.69-0.35c-0.23-0.1-0.48-0.22-0.73-0.36c-0.24-0.13-0.44-0.3-0.59-0.51
		c-0.14-0.21-0.21-0.45-0.21-0.72c0-0.34,0.06-0.64,0.19-0.89c0.13-0.25,0.3-0.45,0.52-0.61s0.48-0.28,0.78-0.35
		c0.3-0.07,0.62-0.11,0.97-0.11c0.35,0,0.66,0.03,0.94,0.09c0.28,0.06,0.53,0.14,0.76,0.24l-0.31,0.59
		c-0.16-0.07-0.37-0.14-0.6-0.21c-0.23-0.06-0.52-0.09-0.84-0.09c-0.48,0-0.87,0.1-1.16,0.3c-0.3,0.2-0.45,0.49-0.45,0.88
		c0,0.2,0.05,0.36,0.15,0.48s0.21,0.22,0.35,0.3c0.2,0.12,0.43,0.23,0.68,0.34s0.5,0.23,0.74,0.37c0.23,0.13,0.41,0.3,0.55,0.5
		c0.13,0.21,0.2,0.45,0.2,0.74c0,0.35-0.06,0.64-0.19,0.9c-0.13,0.25-0.3,0.46-0.54,0.62c-0.23,0.16-0.48,0.29-0.79,0.36
		c-0.3,0.08-0.62,0.12-0.97,0.12c-0.35,0-0.67-0.04-0.97-0.11s-0.56-0.16-0.8-0.27L42.82,19.69z"/>
	<path class="st1" d="M47.46,20.57l0.65-3.04l0.2-1.36h0.62l-0.03,0.55c0.23-0.2,0.49-0.36,0.76-0.48s0.52-0.18,0.76-0.18
		c0.31,0,0.54,0.06,0.7,0.19c0.15,0.12,0.25,0.3,0.3,0.52c0.23-0.22,0.49-0.4,0.77-0.52s0.55-0.19,0.8-0.19
		c0.38,0,0.64,0.09,0.8,0.28c0.15,0.18,0.23,0.43,0.23,0.75c0,0.19-0.02,0.42-0.08,0.69l-0.59,2.79H52.6l0.58-2.67
		c0.02-0.12,0.03-0.23,0.05-0.34s0.02-0.2,0.02-0.29c0-0.41-0.16-0.61-0.51-0.61c-0.39,0-0.82,0.24-1.3,0.73
		c-0.01,0.05-0.02,0.12-0.02,0.18c-0.02,0.07-0.03,0.14-0.04,0.21l-0.59,2.79h-0.76l0.57-2.67c0.06-0.26,0.09-0.46,0.09-0.62
		c0-0.41-0.17-0.61-0.52-0.61c-0.38,0-0.8,0.23-1.28,0.69l-0.67,3.21H47.46z"/>
	<path class="st1" d="M57.47,20.06c-0.2,0.2-0.41,0.35-0.66,0.45c-0.24,0.11-0.52,0.16-0.82,0.16c-0.42,0-0.73-0.12-0.94-0.38
		s-0.31-0.59-0.31-1.01c0-0.48,0.06-0.92,0.18-1.31c0.11-0.39,0.27-0.73,0.47-1.02c0.2-0.29,0.45-0.5,0.73-0.66
		c0.28-0.15,0.59-0.23,0.93-0.23c0.47,0,0.86,0.11,1.18,0.33l0.11-0.22h0.59l-0.72,3.25l-0.16,1.15h-0.57L57.47,20.06z M56.27,20.11
		c0.2,0,0.39-0.05,0.59-0.14c0.2-0.09,0.4-0.23,0.6-0.41l0.56-2.67c-0.13-0.1-0.27-0.18-0.42-0.22c-0.14-0.04-0.28-0.07-0.4-0.07
		c-0.28,0-0.53,0.07-0.74,0.21s-0.38,0.33-0.52,0.56s-0.25,0.5-0.31,0.82c-0.07,0.31-0.1,0.63-0.1,0.96c0,0.29,0.05,0.53,0.17,0.7
		S56,20.11,56.27,20.11z"/>
	<path class="st1" d="M59.38,20.57L60,17.69l0.19-1.52h0.66l-0.06,0.8c0.51-0.6,1.05-0.9,1.62-0.9c0.2,0,0.37,0.04,0.52,0.11
		l-0.3,0.62c-0.06-0.03-0.12-0.05-0.19-0.06c-0.05-0.01-0.13-0.02-0.21-0.02c-0.24,0-0.49,0.09-0.73,0.27
		c-0.25,0.18-0.5,0.43-0.76,0.74l-0.61,2.85H59.38z"/>
	<path class="st1" d="M65.62,20.46c-0.17,0.07-0.35,0.12-0.54,0.16c-0.18,0.04-0.38,0.05-0.61,0.05c-0.74,0-1.11-0.34-1.11-1.02
		c0-0.08,0.01-0.16,0.02-0.25c0.02-0.09,0.03-0.17,0.04-0.25l0.52-2.4h-0.73l0.12-0.52l0.73-0.08l0.21-0.92l0.73-0.12l-0.22,1.04
		h1.59l-0.12,0.58h-1.59l-0.45,2.14c-0.02,0.1-0.04,0.21-0.05,0.32c-0.02,0.11-0.03,0.22-0.03,0.32c0,0.17,0.05,0.3,0.13,0.39
		c0.09,0.09,0.27,0.14,0.52,0.14c0.13,0,0.27-0.02,0.4-0.04c0.12-0.03,0.26-0.06,0.39-0.1L65.62,20.46z"/>
	<path class="st1" d="M68.92,19.69c0.18,0.09,0.41,0.16,0.67,0.24c0.27,0.07,0.55,0.11,0.86,0.11c0.23,0,0.45-0.03,0.66-0.09
		c0.21-0.06,0.38-0.14,0.52-0.25c0.15-0.11,0.26-0.23,0.34-0.38c0.09-0.15,0.12-0.32,0.12-0.5c0-0.19-0.05-0.35-0.15-0.48
		s-0.21-0.23-0.33-0.3c-0.22-0.14-0.45-0.25-0.69-0.35c-0.23-0.1-0.48-0.22-0.73-0.36c-0.24-0.13-0.44-0.3-0.59-0.51
		c-0.14-0.21-0.21-0.45-0.21-0.72c0-0.34,0.06-0.64,0.19-0.89c0.13-0.25,0.3-0.45,0.52-0.61s0.48-0.28,0.78-0.35
		c0.3-0.07,0.62-0.11,0.97-0.11c0.35,0,0.66,0.03,0.94,0.09c0.28,0.06,0.53,0.14,0.76,0.24l-0.31,0.59
		c-0.16-0.07-0.37-0.14-0.6-0.21c-0.23-0.06-0.52-0.09-0.84-0.09c-0.48,0-0.87,0.1-1.16,0.3c-0.3,0.2-0.45,0.49-0.45,0.88
		c0,0.2,0.05,0.36,0.15,0.48s0.21,0.22,0.35,0.3c0.2,0.12,0.43,0.23,0.68,0.34s0.5,0.23,0.74,0.37c0.23,0.13,0.41,0.3,0.55,0.5
		c0.13,0.21,0.2,0.45,0.2,0.74c0,0.35-0.06,0.64-0.19,0.9c-0.13,0.25-0.3,0.46-0.54,0.62c-0.23,0.16-0.48,0.29-0.79,0.36
		c-0.3,0.08-0.62,0.12-0.97,0.12c-0.35,0-0.67-0.04-0.97-0.11s-0.56-0.16-0.8-0.27L68.92,19.69z"/>
	<path class="st1" d="M73.56,20.57l0.93-4.4h0.73l-0.92,4.4H73.56z M74.71,15.14l0.16-0.79h0.75l-0.16,0.79H74.71z"/>
	<path class="st1" d="M78.03,16.06c0.47,0,0.88,0.12,1.24,0.37l0.12-0.26h0.57l-0.99,4.61c-0.08,0.37-0.18,0.68-0.32,0.93
		c-0.14,0.25-0.3,0.45-0.5,0.6c-0.2,0.15-0.41,0.26-0.67,0.32c-0.25,0.07-0.53,0.1-0.84,0.1c-0.26,0-0.5-0.02-0.72-0.05
		s-0.41-0.08-0.56-0.13l0.26-0.59c0.13,0.05,0.29,0.09,0.47,0.12s0.4,0.06,0.64,0.06c0.17,0,0.34-0.02,0.49-0.06s0.3-0.11,0.43-0.21
		c0.13-0.1,0.25-0.24,0.35-0.41c0.09-0.17,0.17-0.39,0.23-0.65l0.14-0.66c-0.19,0.18-0.39,0.31-0.62,0.4
		c-0.23,0.09-0.48,0.14-0.77,0.14c-0.42,0-0.74-0.12-0.95-0.38s-0.3-0.59-0.3-1.01c0-0.48,0.05-0.92,0.17-1.31s0.27-0.73,0.48-1.02
		s0.45-0.5,0.73-0.66C77.39,16.14,77.69,16.06,78.03,16.06z M77.25,20.11c0.41,0,0.83-0.21,1.26-0.62l0.55-2.55
		c-0.15-0.12-0.3-0.21-0.45-0.25c-0.15-0.05-0.3-0.07-0.43-0.07c-0.28,0-0.52,0.07-0.73,0.21c-0.21,0.14-0.39,0.32-0.53,0.56
		s-0.24,0.51-0.31,0.82c-0.06,0.31-0.1,0.63-0.1,0.96c0,0.29,0.06,0.53,0.17,0.7C76.79,20.02,76.98,20.11,77.25,20.11z"/>
	<path class="st1" d="M80.33,20.57l0.65-3.04l0.2-1.36h0.62l-0.03,0.56c0.24-0.2,0.51-0.37,0.78-0.48c0.28-0.12,0.55-0.18,0.82-0.18
		c0.42,0,0.71,0.09,0.88,0.28c0.16,0.18,0.25,0.44,0.25,0.76c0,0.1-0.01,0.21-0.02,0.32c-0.02,0.11-0.04,0.23-0.06,0.36l-0.59,2.79
		h-0.75l0.57-2.67c0.05-0.24,0.09-0.44,0.09-0.61c0-0.42-0.2-0.62-0.62-0.62c-0.41,0-0.86,0.23-1.38,0.71l-0.67,3.2H80.33z"/>
	<path class="st1" d="M87.94,20.06c-0.2,0.2-0.41,0.35-0.66,0.45c-0.24,0.11-0.52,0.16-0.82,0.16c-0.42,0-0.73-0.12-0.94-0.38
		s-0.31-0.59-0.31-1.01c0-0.48,0.06-0.92,0.18-1.31c0.11-0.39,0.27-0.73,0.47-1.02c0.2-0.29,0.45-0.5,0.73-0.66
		c0.28-0.15,0.59-0.23,0.93-0.23c0.47,0,0.86,0.11,1.18,0.33l0.11-0.22h0.59l-0.72,3.25l-0.16,1.15h-0.57L87.94,20.06z M86.74,20.11
		c0.2,0,0.39-0.05,0.59-0.14c0.2-0.09,0.4-0.23,0.6-0.41l0.56-2.67c-0.13-0.1-0.27-0.18-0.42-0.22c-0.14-0.04-0.28-0.07-0.4-0.07
		c-0.28,0-0.53,0.07-0.74,0.21s-0.38,0.33-0.52,0.56s-0.25,0.5-0.31,0.82c-0.07,0.31-0.1,0.63-0.1,0.96c0,0.29,0.05,0.53,0.17,0.7
		S86.47,20.11,86.74,20.11z"/>
	<path class="st1" d="M92.27,16.06c0.47,0,0.88,0.12,1.24,0.37l0.12-0.26h0.57l-0.99,4.61c-0.08,0.37-0.18,0.68-0.32,0.93
		c-0.14,0.25-0.3,0.45-0.5,0.6c-0.2,0.15-0.41,0.26-0.67,0.32c-0.25,0.07-0.53,0.1-0.84,0.1c-0.26,0-0.5-0.02-0.72-0.05
		s-0.41-0.08-0.56-0.13l0.26-0.59c0.13,0.05,0.29,0.09,0.47,0.12s0.4,0.06,0.64,0.06c0.17,0,0.34-0.02,0.49-0.06s0.3-0.11,0.43-0.21
		c0.13-0.1,0.25-0.24,0.35-0.41c0.09-0.17,0.17-0.39,0.23-0.65l0.14-0.66c-0.19,0.18-0.39,0.31-0.62,0.4
		c-0.23,0.09-0.48,0.14-0.77,0.14c-0.42,0-0.74-0.12-0.95-0.38s-0.3-0.59-0.3-1.01c0-0.48,0.05-0.92,0.17-1.31s0.27-0.73,0.48-1.02
		s0.45-0.5,0.73-0.66C91.63,16.14,91.94,16.06,92.27,16.06z M91.49,20.11c0.41,0,0.83-0.21,1.26-0.62l0.55-2.55
		c-0.15-0.12-0.3-0.21-0.45-0.25c-0.15-0.05-0.3-0.07-0.43-0.07c-0.28,0-0.52,0.07-0.73,0.21c-0.21,0.14-0.39,0.32-0.53,0.56
		s-0.24,0.51-0.31,0.82c-0.06,0.31-0.1,0.63-0.1,0.96c0,0.29,0.06,0.53,0.17,0.7C91.03,20.02,91.22,20.11,91.49,20.11z"/>
	<path class="st1" d="M98.19,20.27c-0.1,0.04-0.21,0.09-0.34,0.14c-0.13,0.05-0.27,0.09-0.42,0.13c-0.16,0.04-0.32,0.07-0.49,0.09
		c-0.17,0.03-0.34,0.04-0.52,0.04c-0.24,0-0.46-0.03-0.66-0.09c-0.2-0.06-0.38-0.16-0.53-0.29c-0.16-0.13-0.27-0.3-0.36-0.51
		c-0.09-0.21-0.12-0.46-0.12-0.75c0-0.4,0.05-0.77,0.16-1.13c0.1-0.36,0.27-0.68,0.48-0.95c0.22-0.27,0.48-0.49,0.8-0.65
		s0.7-0.24,1.12-0.24c0.42,0,0.75,0.1,1,0.29c0.24,0.19,0.36,0.46,0.36,0.82c0,0.33-0.09,0.6-0.29,0.8
		c-0.19,0.21-0.44,0.37-0.74,0.49c-0.3,0.12-0.64,0.2-1.02,0.25s-0.74,0.09-1.11,0.11v0.21c0,0.35,0.09,0.62,0.27,0.79
		c0.17,0.18,0.46,0.27,0.87,0.27c0.29,0,0.55-0.04,0.8-0.12c0.24-0.08,0.46-0.16,0.66-0.24L98.19,20.27z M97.2,16.62
		c-0.27,0-0.49,0.05-0.69,0.15s-0.35,0.23-0.48,0.38c-0.13,0.16-0.23,0.34-0.3,0.54c-0.08,0.2-0.12,0.41-0.16,0.61
		c0.27-0.02,0.54-0.05,0.82-0.09c0.27-0.04,0.52-0.1,0.75-0.17c0.23-0.08,0.41-0.18,0.55-0.3c0.14-0.12,0.21-0.27,0.21-0.46
		c0-0.22-0.06-0.38-0.2-0.5C97.58,16.68,97.41,16.62,97.2,16.62z"/>
	<path class="st1" d="M101.46,20.57l1.34-6.33h1.95c0.59,0,1.05,0.12,1.36,0.38s0.47,0.62,0.47,1.11c0,0.38-0.06,0.72-0.19,1.02
		c-0.12,0.3-0.29,0.55-0.51,0.75c-0.23,0.2-0.48,0.36-0.79,0.46s-0.64,0.16-1.01,0.16h-1.36l-0.52,2.46H101.46z M102.86,17.5h1.29
		c0.23,0,0.45-0.04,0.65-0.12c0.2-0.08,0.38-0.19,0.52-0.33c0.14-0.14,0.26-0.32,0.34-0.52s0.12-0.43,0.12-0.69
		c0-0.36-0.1-0.61-0.3-0.76c-0.21-0.15-0.48-0.23-0.83-0.23h-1.23L102.86,17.5z"/>
	<path class="st1" d="M107.74,20.59c-0.02,0.01-0.05,0.01-0.09,0.01c-0.03,0-0.09,0.01-0.17,0.01c-0.49,0-0.74-0.23-0.74-0.68
		c0-0.14,0.03-0.3,0.08-0.49l1.14-5.41l0.77-0.11l-1.16,5.5c-0.05,0.15-0.07,0.27-0.07,0.35c0,0.11,0.03,0.18,0.09,0.21
		c0.05,0.03,0.14,0.05,0.27,0.05L107.74,20.59z"/>
	<path class="st1" d="M111.66,20.06c-0.2,0.2-0.41,0.35-0.66,0.45c-0.24,0.11-0.52,0.16-0.82,0.16c-0.42,0-0.73-0.12-0.94-0.38
		s-0.31-0.59-0.31-1.01c0-0.48,0.06-0.92,0.18-1.31c0.11-0.39,0.27-0.73,0.47-1.02c0.2-0.29,0.45-0.5,0.73-0.66
		c0.28-0.15,0.59-0.23,0.93-0.23c0.47,0,0.86,0.11,1.18,0.33l0.11-0.22h0.59l-0.72,3.25l-0.16,1.15h-0.57L111.66,20.06z
		 M110.46,20.11c0.2,0,0.39-0.05,0.59-0.14c0.2-0.09,0.4-0.23,0.6-0.41l0.56-2.67c-0.13-0.1-0.27-0.18-0.42-0.22
		c-0.14-0.04-0.28-0.07-0.4-0.07c-0.28,0-0.53,0.07-0.74,0.21s-0.38,0.33-0.52,0.56s-0.25,0.5-0.31,0.82
		c-0.07,0.31-0.1,0.63-0.1,0.96c0,0.29,0.05,0.53,0.17,0.7S110.19,20.11,110.46,20.11z"/>
	<path class="st1" d="M116.17,20.46c-0.17,0.07-0.35,0.12-0.54,0.16c-0.18,0.04-0.38,0.05-0.61,0.05c-0.74,0-1.11-0.34-1.11-1.02
		c0-0.08,0.01-0.16,0.02-0.25c0.02-0.09,0.03-0.17,0.04-0.25l0.52-2.4h-0.73l0.12-0.52l0.73-0.08l0.21-0.92l0.73-0.12l-0.22,1.04
		h1.59l-0.12,0.58h-1.59l-0.45,2.14c-0.02,0.1-0.04,0.21-0.05,0.32c-0.02,0.11-0.03,0.22-0.03,0.32c0,0.17,0.05,0.3,0.13,0.39
		c0.09,0.09,0.27,0.14,0.52,0.14c0.13,0,0.27-0.02,0.4-0.04c0.12-0.03,0.26-0.06,0.39-0.1L116.17,20.46z"/>
	<path class="st1" d="M119.93,14.54c-0.3,0-0.55,0.09-0.73,0.27c-0.17,0.18-0.3,0.47-0.39,0.88l-0.09,0.48h1.41l-0.12,0.6h-1.41
		l-0.9,4.26c-0.07,0.33-0.17,0.61-0.29,0.82c-0.12,0.22-0.26,0.39-0.41,0.52c-0.16,0.13-0.34,0.22-0.54,0.27s-0.41,0.08-0.66,0.08
		c-0.16,0-0.3-0.01-0.43-0.04l0.17-0.61c0.05,0.01,0.11,0.02,0.17,0.02c0.06,0.01,0.12,0.01,0.16,0.01c0.31,0,0.55-0.09,0.71-0.27
		c0.17-0.18,0.3-0.47,0.38-0.88l0.88-4.2h-0.65l0.12-0.6h0.65l0.12-0.55c0.07-0.33,0.16-0.61,0.29-0.82
		c0.12-0.22,0.27-0.39,0.42-0.52c0.16-0.12,0.35-0.22,0.55-0.27c0.2-0.05,0.41-0.08,0.66-0.08c0.16,0,0.31,0.02,0.47,0.05
		s0.29,0.07,0.41,0.11l-0.29,0.59C120.4,14.58,120.18,14.54,119.93,14.54z"/>
	<path class="st1" d="M121.67,20.67c-0.55,0-0.95-0.14-1.22-0.42s-0.4-0.68-0.4-1.2c0-0.41,0.05-0.79,0.16-1.15s0.27-0.68,0.48-0.95
		c0.21-0.27,0.47-0.49,0.78-0.65s0.67-0.24,1.08-0.24c0.55,0,0.95,0.14,1.22,0.43s0.4,0.68,0.4,1.2c0,0.4-0.05,0.79-0.16,1.15
		c-0.11,0.36-0.27,0.68-0.48,0.95s-0.47,0.48-0.78,0.64S122.08,20.67,121.67,20.67z M121.76,20.11c0.27,0,0.51-0.06,0.71-0.19
		c0.21-0.13,0.38-0.3,0.52-0.52s0.25-0.47,0.32-0.76c0.07-0.29,0.1-0.6,0.1-0.92c0-0.15-0.02-0.29-0.05-0.42s-0.08-0.25-0.15-0.35
		c-0.07-0.1-0.17-0.18-0.29-0.23c-0.12-0.06-0.27-0.09-0.45-0.09c-0.27,0-0.52,0.07-0.73,0.2c-0.21,0.13-0.39,0.31-0.53,0.53
		c-0.14,0.22-0.24,0.48-0.31,0.77s-0.11,0.59-0.11,0.91c0,0.16,0.02,0.3,0.05,0.43c0.03,0.13,0.09,0.24,0.16,0.34
		c0.07,0.1,0.17,0.17,0.29,0.23C121.43,20.08,121.58,20.11,121.76,20.11z"/>
	<path class="st1" d="M124.73,20.57l0.62-2.88l0.19-1.52h0.66l-0.06,0.8c0.51-0.6,1.05-0.9,1.62-0.9c0.2,0,0.37,0.04,0.52,0.11
		l-0.3,0.62c-0.06-0.03-0.12-0.05-0.19-0.06c-0.05-0.01-0.13-0.02-0.21-0.02c-0.24,0-0.49,0.09-0.73,0.27
		c-0.25,0.18-0.5,0.43-0.76,0.74l-0.61,2.85H124.73z"/>
	<path class="st1" d="M128.07,20.57l0.65-3.04l0.2-1.36h0.62l-0.03,0.55c0.23-0.2,0.49-0.36,0.76-0.48s0.52-0.18,0.76-0.18
		c0.31,0,0.54,0.06,0.7,0.19c0.15,0.12,0.25,0.3,0.3,0.52c0.23-0.22,0.49-0.4,0.77-0.52s0.55-0.19,0.8-0.19
		c0.38,0,0.64,0.09,0.8,0.28c0.15,0.18,0.23,0.43,0.23,0.75c0,0.19-0.02,0.42-0.08,0.69l-0.59,2.79h-0.75l0.58-2.67
		c0.02-0.12,0.03-0.23,0.05-0.34s0.02-0.2,0.02-0.29c0-0.41-0.16-0.61-0.51-0.61c-0.39,0-0.82,0.24-1.3,0.73
		c-0.01,0.05-0.02,0.12-0.02,0.18c-0.02,0.07-0.03,0.14-0.04,0.21l-0.59,2.79h-0.76l0.57-2.67c0.06-0.26,0.09-0.46,0.09-0.62
		c0-0.41-0.17-0.61-0.52-0.61c-0.38,0-0.8,0.23-1.28,0.69l-0.67,3.21H128.07z"/>
	<path class="st2" d="M141.8,19.95v0.61h-3.69v-6.33h0.73v5.71H141.8z"/>
	<path class="st2" d="M147.01,20.26c-0.27,0.11-0.59,0.21-0.98,0.29s-0.8,0.12-1.24,0.12c-0.97,0-1.68-0.27-2.12-0.82
		S142,18.5,142,17.41c0-0.57,0.06-1.06,0.2-1.47c0.14-0.41,0.33-0.75,0.59-1.02c0.25-0.27,0.55-0.46,0.91-0.59s0.77-0.19,1.22-0.19
		c0.45,0,0.84,0.07,1.18,0.2c0.34,0.13,0.62,0.33,0.84,0.6l-0.45,0.42c-0.17-0.19-0.39-0.34-0.63-0.45
		c-0.24-0.11-0.55-0.17-0.91-0.17c-0.76,0-1.3,0.23-1.66,0.71c-0.34,0.47-0.52,1.15-0.52,2.05c0,0.83,0.16,1.46,0.49,1.9
		c0.32,0.44,0.84,0.66,1.56,0.66c0.37,0,0.69-0.03,0.97-0.09c0.09-0.02,0.18-0.04,0.27-0.06s0.16-0.04,0.23-0.07v-1.89h-1.59v-0.62
		h2.3V20.26z"/>
	<path class="st2" d="M17.33,29.91c-0.14,0.08-0.34,0.16-0.59,0.24c-0.27,0.07-0.55,0.11-0.85,0.11c-0.73,0-1.26-0.2-1.58-0.58
		s-0.48-0.94-0.48-1.66c0-0.79,0.19-1.39,0.55-1.78c0.38-0.39,0.93-0.59,1.66-0.59c0.27,0,0.53,0.05,0.77,0.14s0.44,0.22,0.58,0.38
		l-0.44,0.43c-0.11-0.12-0.24-0.22-0.4-0.29c-0.16-0.07-0.34-0.11-0.52-0.11c-0.48,0-0.85,0.15-1.1,0.44
		c-0.24,0.29-0.37,0.76-0.37,1.4c0,0.24,0.02,0.46,0.07,0.67c0.05,0.2,0.12,0.37,0.23,0.52c0.12,0.14,0.26,0.26,0.44,0.34
		c0.17,0.08,0.39,0.12,0.63,0.12c0.26,0,0.48-0.03,0.68-0.08s0.38-0.12,0.55-0.2L17.33,29.91z"/>
	<path class="st2" d="M19.69,30.27c-0.38,0-0.69-0.05-0.94-0.16c-0.25-0.11-0.45-0.26-0.6-0.46c-0.15-0.2-0.26-0.45-0.31-0.73
		c-0.06-0.29-0.09-0.61-0.09-0.98c0-0.77,0.17-1.35,0.51-1.72s0.89-0.56,1.64-0.56c0.38,0,0.69,0.05,0.94,0.16s0.45,0.26,0.6,0.46
		c0.16,0.2,0.26,0.45,0.33,0.73c0.06,0.29,0.09,0.61,0.09,0.98c0,0.77-0.18,1.34-0.53,1.71C20.97,30.09,20.43,30.27,19.69,30.27z
		 M19.69,29.7c0.54,0,0.91-0.15,1.11-0.45s0.3-0.75,0.3-1.35c0-0.23-0.02-0.45-0.05-0.65c-0.03-0.2-0.09-0.38-0.19-0.54
		c-0.09-0.16-0.21-0.28-0.37-0.37s-0.36-0.14-0.6-0.14c-0.54,0-0.91,0.16-1.11,0.47c-0.2,0.31-0.3,0.76-0.3,1.35
		c0,0.24,0.02,0.46,0.05,0.66c0.04,0.2,0.1,0.38,0.19,0.53c0.09,0.15,0.21,0.27,0.38,0.36C19.25,29.66,19.44,29.7,19.69,29.7z"/>
	<path class="st2" d="M23.44,25.77l0.03,0.38c0.07-0.05,0.16-0.11,0.24-0.16c0.09-0.05,0.19-0.09,0.29-0.14
		c0.28-0.12,0.58-0.18,0.9-0.18c0.28,0,0.52,0.04,0.7,0.11c0.17,0.07,0.31,0.18,0.41,0.32l0.05,0.08c0.18-0.14,0.38-0.25,0.59-0.33
		c0.31-0.12,0.62-0.18,0.95-0.18c0.28,0,0.51,0.04,0.69,0.11c0.17,0.07,0.31,0.18,0.41,0.32s0.17,0.32,0.21,0.52
		c0.03,0.21,0.05,0.45,0.05,0.71v2.83h-0.72V27.5c0-0.19-0.01-0.36-0.02-0.51c-0.02-0.16-0.06-0.29-0.12-0.39
		c-0.06-0.11-0.14-0.19-0.25-0.25c-0.1-0.06-0.24-0.09-0.42-0.09c-0.16,0-0.32,0.02-0.47,0.07s-0.29,0.11-0.42,0.18
		c-0.05,0.02-0.11,0.05-0.16,0.09c-0.05,0.03-0.1,0.07-0.16,0.11c0.02,0.09,0.02,0.2,0.03,0.3s0.01,0.22,0.01,0.33v2.83h-0.73V27.5
		c0-0.19-0.01-0.36-0.02-0.51c-0.02-0.16-0.05-0.29-0.11-0.39c-0.06-0.11-0.14-0.19-0.25-0.25c-0.1-0.06-0.25-0.09-0.43-0.09
		c-0.31,0-0.61,0.08-0.89,0.25c-0.05,0.02-0.09,0.05-0.13,0.08c-0.05,0.03-0.09,0.06-0.13,0.09v3.48h-0.73v-3.23l-0.07-1.17H23.44z"
		/>
	<path class="st2" d="M30.72,25.77l0.03,0.38c0.07-0.05,0.16-0.11,0.24-0.16c0.09-0.05,0.19-0.09,0.29-0.14
		c0.28-0.12,0.58-0.18,0.9-0.18c0.28,0,0.52,0.04,0.7,0.11c0.17,0.07,0.31,0.18,0.41,0.32l0.05,0.08c0.18-0.14,0.38-0.25,0.59-0.33
		c0.31-0.12,0.62-0.18,0.95-0.18c0.28,0,0.51,0.04,0.69,0.11c0.17,0.07,0.31,0.18,0.41,0.32s0.17,0.32,0.21,0.52
		c0.03,0.21,0.05,0.45,0.05,0.71v2.83h-0.72V27.5c0-0.19-0.01-0.36-0.02-0.51c-0.02-0.16-0.06-0.29-0.12-0.39
		c-0.06-0.11-0.14-0.19-0.25-0.25c-0.1-0.06-0.24-0.09-0.42-0.09c-0.16,0-0.32,0.02-0.47,0.07s-0.29,0.11-0.42,0.18
		c-0.05,0.02-0.11,0.05-0.16,0.09c-0.05,0.03-0.1,0.07-0.16,0.11c0.02,0.09,0.02,0.2,0.03,0.3s0.01,0.22,0.01,0.33v2.83h-0.73V27.5
		c0-0.19-0.01-0.36-0.02-0.51c-0.02-0.16-0.05-0.29-0.11-0.39c-0.06-0.11-0.14-0.19-0.25-0.25c-0.1-0.06-0.25-0.09-0.43-0.09
		c-0.31,0-0.61,0.08-0.89,0.25c-0.05,0.02-0.09,0.05-0.13,0.08c-0.05,0.03-0.09,0.06-0.13,0.09v3.48h-0.73v-3.23l-0.07-1.17H30.72z"
		/>
	<path class="st2" d="M39.21,30.27c-0.38,0-0.7-0.05-0.96-0.14c-0.26-0.09-0.47-0.24-0.62-0.43c-0.16-0.2-0.27-0.43-0.34-0.73
		s-0.1-0.64-0.1-1.03c0-0.77,0.16-1.35,0.5-1.72c0.33-0.37,0.84-0.56,1.52-0.56c0.37,0,0.66,0.05,0.89,0.16
		c0.23,0.11,0.41,0.26,0.55,0.45c0.12,0.19,0.22,0.42,0.27,0.68s0.07,0.55,0.07,0.85v0.35h-3.04c0,0.25,0.02,0.46,0.05,0.63
		c0.09,0.35,0.24,0.59,0.46,0.71c0.21,0.13,0.5,0.2,0.88,0.2c0.31,0,0.59-0.04,0.83-0.12c0.23-0.08,0.42-0.16,0.56-0.23l0.2,0.5
		c-0.07,0.05-0.17,0.11-0.3,0.16s-0.27,0.1-0.41,0.14c-0.16,0.04-0.32,0.08-0.48,0.1C39.54,30.26,39.37,30.27,39.21,30.27z
		 M40.21,27.61c0-0.52-0.09-0.89-0.27-1.09c-0.18-0.2-0.43-0.31-0.74-0.31c-0.37,0-0.64,0.08-0.83,0.24s-0.32,0.41-0.39,0.74
		c-0.02,0.07-0.02,0.13-0.03,0.2s-0.01,0.14-0.02,0.22H40.21z"/>
	<path class="st2" d="M42.51,25.77l0.08,0.61c0.18-0.21,0.38-0.38,0.59-0.48c0.29-0.15,0.59-0.23,0.88-0.23
		c0.24,0,0.44,0.04,0.59,0.12l-0.2,0.61c-0.12-0.06-0.3-0.09-0.51-0.09c-0.27,0-0.52,0.08-0.76,0.24c-0.09,0.06-0.17,0.12-0.25,0.2
		c-0.09,0.07-0.16,0.16-0.25,0.25v3.18h-0.73v-3.2l-0.11-1.2H42.51z"/>
	<path class="st2" d="M48.25,29.91c-0.14,0.08-0.34,0.16-0.59,0.24c-0.27,0.07-0.55,0.11-0.85,0.11c-0.73,0-1.26-0.2-1.58-0.58
		s-0.48-0.94-0.48-1.66c0-0.79,0.19-1.39,0.55-1.78c0.38-0.39,0.93-0.59,1.66-0.59c0.27,0,0.53,0.05,0.77,0.14s0.44,0.22,0.58,0.38
		l-0.44,0.43c-0.11-0.12-0.24-0.22-0.4-0.29c-0.16-0.07-0.34-0.11-0.52-0.11c-0.48,0-0.85,0.15-1.1,0.44
		c-0.24,0.29-0.37,0.76-0.37,1.4c0,0.24,0.02,0.46,0.07,0.67c0.05,0.2,0.12,0.37,0.23,0.52c0.12,0.14,0.26,0.26,0.44,0.34
		c0.17,0.08,0.39,0.12,0.63,0.12c0.26,0,0.48-0.03,0.68-0.08s0.38-0.12,0.55-0.2L48.25,29.91z"/>
	<path class="st2" d="M49.09,23.95h0.74v0.77h-0.74V23.95z M49.1,25.77h0.73v4.4H49.1V25.77z"/>
	<path class="st2" d="M54.72,30.18c-0.06,0.01-0.1,0.02-0.12,0.02h-0.14c-0.23,0-0.4-0.04-0.51-0.13s-0.2-0.21-0.27-0.37
		c-0.16,0.15-0.37,0.28-0.62,0.39c-0.25,0.11-0.55,0.17-0.9,0.17c-0.27,0-0.49-0.04-0.66-0.11c-0.18-0.07-0.32-0.17-0.43-0.29
		s-0.19-0.26-0.23-0.43c-0.05-0.16-0.07-0.34-0.07-0.53c0-0.27,0.05-0.49,0.14-0.66c0.09-0.17,0.22-0.3,0.39-0.41
		c0.16-0.1,0.36-0.18,0.59-0.21c0.23-0.04,0.48-0.06,0.76-0.06c0.18,0,0.34,0,0.47,0.02c0.13,0.01,0.29,0.02,0.46,0.03V27.4
		c0-0.21-0.02-0.4-0.05-0.55s-0.09-0.27-0.17-0.36s-0.19-0.16-0.33-0.2c-0.13-0.04-0.31-0.06-0.52-0.06c-0.25,0-0.49,0.04-0.74,0.11
		s-0.46,0.14-0.62,0.22l-0.18-0.51c0.22-0.1,0.48-0.19,0.77-0.27c0.3-0.08,0.62-0.12,0.96-0.12c0.3,0,0.56,0.03,0.77,0.09
		c0.21,0.06,0.38,0.16,0.5,0.3c0.12,0.14,0.21,0.33,0.26,0.56c0.05,0.23,0.08,0.51,0.08,0.84v1.59c0,0.23,0.04,0.38,0.1,0.46
		c0.07,0.09,0.17,0.12,0.31,0.12V30.18z M52.58,28.13c-0.4,0-0.67,0.06-0.82,0.19s-0.23,0.32-0.23,0.57c0,0.29,0.06,0.5,0.2,0.62
		c0.12,0.13,0.34,0.19,0.66,0.19c0.21,0,0.43-0.05,0.64-0.14c0.21-0.09,0.39-0.2,0.55-0.33v-1.06c-0.16-0.01-0.33-0.02-0.48-0.03
		C52.94,28.13,52.77,28.13,52.58,28.13z"/>
	<path class="st2" d="M56.66,30.19c-0.01,0.01-0.03,0.01-0.09,0.01c-0.02,0-0.07,0.01-0.17,0.01c-0.34,0-0.59-0.1-0.71-0.29
		s-0.2-0.48-0.2-0.87v-5.43l0.73-0.11v5.52c0,0.27,0.03,0.43,0.09,0.5s0.18,0.11,0.34,0.11V30.19z"/>
	<path class="st2" d="M61.4,30.27c-0.62,0-1.08-0.2-1.37-0.58c-0.3-0.39-0.44-0.94-0.44-1.66c0-0.34,0.04-0.66,0.11-0.95
		c0.08-0.29,0.2-0.54,0.38-0.75c0.16-0.21,0.38-0.37,0.65-0.49s0.59-0.18,0.97-0.18c0.22,0,0.42,0.03,0.61,0.08
		c0.12,0.03,0.25,0.08,0.37,0.14v-2.26l0.72-0.11v5.52l0.08,1.12h-0.63l-0.09-0.31c-0.17,0.13-0.36,0.23-0.55,0.29
		C61.97,30.23,61.7,30.27,61.4,30.27z M61.76,26.22c-0.46,0-0.81,0.14-1.05,0.42s-0.36,0.75-0.36,1.39c0,0.23,0.02,0.44,0.05,0.64
		c0.04,0.2,0.1,0.37,0.2,0.53c0.09,0.15,0.23,0.27,0.38,0.36c0.16,0.09,0.38,0.14,0.62,0.14c0.26,0,0.49-0.05,0.69-0.16
		c0.06-0.03,0.12-0.07,0.19-0.11s0.12-0.09,0.19-0.14V26.5C62.39,26.31,62.08,26.22,61.76,26.22z"/>
	<path class="st2" d="M64.61,23.95h0.74v0.77h-0.74V23.95z M64.62,25.77h0.73v4.4h-0.73V25.77z"/>
	<path class="st2" d="M67.56,27.42c0.15,0.08,0.34,0.15,0.57,0.23s0.46,0.16,0.68,0.25c0.25,0.1,0.45,0.23,0.62,0.39
		c0.16,0.16,0.25,0.4,0.25,0.71c0,0.44-0.16,0.76-0.48,0.96c-0.32,0.2-0.78,0.3-1.38,0.3c-0.28,0-0.56-0.03-0.84-0.08
		s-0.51-0.13-0.7-0.23l0.23-0.55c0.16,0.09,0.34,0.15,0.57,0.2s0.48,0.08,0.75,0.08c0.14,0,0.27-0.01,0.41-0.03
		c0.14-0.02,0.26-0.04,0.36-0.09c0.1-0.04,0.19-0.11,0.25-0.19s0.09-0.2,0.09-0.34c0-0.28-0.18-0.48-0.53-0.61
		c-0.21-0.09-0.42-0.17-0.66-0.25c-0.23-0.07-0.44-0.15-0.62-0.23c-0.23-0.09-0.42-0.21-0.56-0.37c-0.15-0.15-0.23-0.38-0.23-0.67
		c0-0.23,0.05-0.43,0.16-0.6c0.1-0.16,0.24-0.29,0.41-0.39c0.17-0.09,0.37-0.16,0.58-0.21c0.21-0.04,0.42-0.06,0.63-0.06
		c0.33,0,0.62,0.03,0.86,0.08s0.45,0.11,0.61,0.18l-0.23,0.55c-0.17-0.07-0.36-0.13-0.56-0.18c-0.21-0.05-0.44-0.07-0.7-0.07
		c-0.38,0-0.66,0.06-0.81,0.18s-0.23,0.26-0.23,0.42c0,0.14,0.04,0.26,0.12,0.35C67.26,27.26,67.38,27.34,67.56,27.42z"/>
	<path class="st2" d="M71.15,25.77l0.08,0.32c0.18-0.13,0.37-0.23,0.56-0.29c0.26-0.09,0.52-0.14,0.8-0.14
		c0.62,0,1.08,0.2,1.37,0.58s0.44,0.94,0.44,1.66c0,0.34-0.04,0.66-0.12,0.96c-0.08,0.29-0.2,0.54-0.37,0.75s-0.39,0.37-0.66,0.49
		c-0.27,0.12-0.59,0.18-0.96,0.18c-0.23,0-0.43-0.03-0.61-0.09c-0.06-0.01-0.12-0.03-0.18-0.05c-0.05-0.02-0.12-0.05-0.18-0.08v2.17
		l-0.73,0.11v-5.44l-0.07-1.12H71.15z M72.22,29.7c0.45,0,0.8-0.14,1.05-0.42s0.37-0.74,0.37-1.39c0-0.22-0.02-0.44-0.05-0.64
		c-0.04-0.2-0.11-0.38-0.2-0.53c-0.1-0.15-0.23-0.27-0.38-0.36c-0.16-0.09-0.37-0.13-0.62-0.13c-0.26,0-0.48,0.05-0.7,0.16
		c-0.12,0.07-0.24,0.15-0.36,0.25v2.78C71.58,29.61,71.88,29.7,72.22,29.7z"/>
	<path class="st2" d="M76.53,30.19c-0.01,0.01-0.03,0.01-0.09,0.01c-0.02,0-0.07,0.01-0.17,0.01c-0.34,0-0.59-0.1-0.71-0.29
		s-0.2-0.48-0.2-0.87v-5.43l0.73-0.11v5.52c0,0.27,0.03,0.43,0.09,0.5s0.18,0.11,0.34,0.11V30.19z"/>
	<path class="st2" d="M81.17,30.18c-0.06,0.01-0.1,0.02-0.12,0.02H80.9c-0.23,0-0.4-0.04-0.51-0.13s-0.2-0.21-0.27-0.37
		c-0.16,0.15-0.37,0.28-0.62,0.39c-0.25,0.11-0.55,0.17-0.9,0.17c-0.27,0-0.49-0.04-0.66-0.11c-0.18-0.07-0.32-0.17-0.43-0.29
		s-0.19-0.26-0.23-0.43c-0.05-0.16-0.07-0.34-0.07-0.53c0-0.27,0.05-0.49,0.14-0.66c0.09-0.17,0.22-0.3,0.39-0.41
		c0.16-0.1,0.36-0.18,0.59-0.21c0.23-0.04,0.48-0.06,0.76-0.06c0.18,0,0.34,0,0.47,0.02c0.13,0.01,0.29,0.02,0.46,0.03V27.4
		c0-0.21-0.02-0.4-0.05-0.55s-0.09-0.27-0.17-0.36s-0.19-0.16-0.33-0.2c-0.13-0.04-0.31-0.06-0.52-0.06c-0.25,0-0.49,0.04-0.74,0.11
		s-0.46,0.14-0.62,0.22l-0.18-0.51c0.22-0.1,0.48-0.19,0.77-0.27c0.3-0.08,0.62-0.12,0.96-0.12c0.3,0,0.56,0.03,0.77,0.09
		c0.21,0.06,0.38,0.16,0.5,0.3c0.12,0.14,0.21,0.33,0.26,0.56c0.05,0.23,0.08,0.51,0.08,0.84v1.59c0,0.23,0.04,0.38,0.1,0.46
		c0.07,0.09,0.17,0.12,0.31,0.12V30.18z M79.03,28.13c-0.4,0-0.67,0.06-0.82,0.19s-0.23,0.32-0.23,0.57c0,0.29,0.06,0.5,0.2,0.62
		c0.12,0.13,0.34,0.19,0.66,0.19c0.21,0,0.43-0.05,0.64-0.14c0.21-0.09,0.39-0.2,0.55-0.33v-1.06c-0.16-0.01-0.33-0.02-0.48-0.03
		C79.39,28.13,79.22,28.13,79.03,28.13z"/>
	<path class="st2" d="M81.25,25.77h0.81l1.27,3.5h0.09l1.17-3.5h0.75l-1.68,4.68c-0.11,0.27-0.2,0.52-0.3,0.75s-0.22,0.43-0.36,0.6
		c-0.13,0.17-0.3,0.3-0.51,0.39c-0.21,0.09-0.47,0.14-0.78,0.14c-0.08,0-0.15,0-0.23-0.01c-0.07-0.01-0.13-0.02-0.19-0.04l0.09-0.56
		l0.16,0.03c0.02,0,0.07,0.01,0.16,0.01c0.23,0,0.42-0.04,0.55-0.12s0.23-0.18,0.3-0.3c0.04-0.05,0.08-0.12,0.12-0.21
		c0.04-0.09,0.08-0.19,0.12-0.29c0.04-0.1,0.08-0.21,0.12-0.31s0.07-0.21,0.1-0.3L81.25,25.77z"/>
	<path class="st2" d="M86.99,27.42c0.15,0.08,0.34,0.15,0.57,0.23s0.46,0.16,0.68,0.25c0.25,0.1,0.45,0.23,0.62,0.39
		c0.16,0.16,0.25,0.4,0.25,0.71c0,0.44-0.16,0.76-0.48,0.96c-0.32,0.2-0.78,0.3-1.38,0.3c-0.28,0-0.56-0.03-0.84-0.08
		s-0.51-0.13-0.7-0.23l0.23-0.55c0.16,0.09,0.34,0.15,0.57,0.2s0.48,0.08,0.75,0.08c0.14,0,0.27-0.01,0.41-0.03
		c0.14-0.02,0.26-0.04,0.36-0.09c0.1-0.04,0.19-0.11,0.25-0.19s0.09-0.2,0.09-0.34c0-0.28-0.18-0.48-0.53-0.61
		c-0.21-0.09-0.42-0.17-0.66-0.25c-0.23-0.07-0.44-0.15-0.62-0.23c-0.23-0.09-0.42-0.21-0.56-0.37c-0.15-0.15-0.23-0.38-0.23-0.67
		c0-0.23,0.05-0.43,0.16-0.6c0.1-0.16,0.24-0.29,0.41-0.39c0.17-0.09,0.37-0.16,0.58-0.21c0.21-0.04,0.42-0.06,0.63-0.06
		c0.33,0,0.62,0.03,0.86,0.08s0.45,0.11,0.61,0.18l-0.23,0.55c-0.17-0.07-0.36-0.13-0.56-0.18c-0.21-0.05-0.44-0.07-0.7-0.07
		c-0.38,0-0.66,0.06-0.81,0.18s-0.23,0.26-0.23,0.42c0,0.14,0.04,0.26,0.12,0.35C86.69,27.26,86.81,27.34,86.99,27.42z"/>
	<path class="st2" d="M95.62,25.77l0.9,3.84h0.09l1.01-3.84h0.73l-1.26,4.4h-1.06l-0.89-3.84h-0.09l-0.89,3.84h-1.07l-1.22-4.4h0.74
		l0.99,3.84h0.08l0.88-3.84H95.62z"/>
	<path class="st2" d="M99.04,23.95h0.74v0.77h-0.74V23.95z M99.05,25.77h0.73v4.4h-0.73V25.77z"/>
	<path class="st2" d="M101.97,26.34v2.17c0,0.19,0.01,0.36,0.02,0.5s0.05,0.27,0.11,0.36c0.05,0.1,0.14,0.17,0.26,0.22
		c0.11,0.05,0.26,0.08,0.45,0.08c0.27,0,0.53-0.05,0.8-0.14l0.13,0.51c-0.18,0.08-0.37,0.13-0.56,0.17c-0.2,0.04-0.4,0.06-0.59,0.06
		c-0.28,0-0.52-0.04-0.69-0.11c-0.18-0.08-0.31-0.18-0.41-0.32c-0.1-0.13-0.16-0.29-0.2-0.48c-0.03-0.19-0.05-0.39-0.05-0.6v-2.4
		h-0.75v-0.52l0.75-0.08v-0.92l0.72-0.12v1.04h1.66v0.58H101.97z"/>
	<path class="st2" d="M107.4,30.16V27.5c0-0.18-0.01-0.35-0.03-0.5c-0.02-0.16-0.06-0.29-0.12-0.39s-0.16-0.19-0.27-0.24
		c-0.12-0.06-0.27-0.09-0.48-0.09c-0.16,0-0.33,0.02-0.48,0.07c-0.16,0.04-0.3,0.11-0.45,0.18c-0.06,0.04-0.12,0.07-0.18,0.1
		s-0.11,0.07-0.16,0.1v3.44h-0.73v-6.54l0.73-0.11v2.57c0.15-0.1,0.31-0.18,0.5-0.25c0.32-0.12,0.64-0.18,0.96-0.18
		c0.29,0,0.53,0.04,0.72,0.11c0.18,0.07,0.33,0.18,0.44,0.32s0.19,0.32,0.23,0.52s0.06,0.45,0.06,0.71v2.83H107.4z"/>
	<path class="st2" d="M114.87,25.77l0.9,3.84h0.09l1.01-3.84h0.73l-1.26,4.4h-1.06l-0.89-3.84h-0.09l-0.89,3.84h-1.07l-1.22-4.4
		h0.74l0.99,3.84h0.08l0.88-3.84H114.87z"/>
	<path class="st2" d="M119.99,30.27c-0.38,0-0.7-0.05-0.96-0.14c-0.26-0.09-0.47-0.24-0.62-0.43c-0.16-0.2-0.27-0.43-0.34-0.73
		s-0.1-0.64-0.1-1.03c0-0.77,0.16-1.35,0.5-1.72c0.33-0.37,0.84-0.56,1.52-0.56c0.37,0,0.66,0.05,0.89,0.16
		c0.23,0.11,0.41,0.26,0.55,0.45c0.12,0.19,0.22,0.42,0.27,0.68s0.07,0.55,0.07,0.85v0.35h-3.04c0,0.25,0.02,0.46,0.05,0.63
		c0.09,0.35,0.24,0.59,0.46,0.71c0.21,0.13,0.5,0.2,0.88,0.2c0.31,0,0.59-0.04,0.83-0.12c0.23-0.08,0.42-0.16,0.56-0.23l0.2,0.5
		c-0.07,0.05-0.17,0.11-0.3,0.16s-0.27,0.1-0.41,0.14c-0.16,0.04-0.32,0.08-0.48,0.1C120.32,30.26,120.15,30.27,119.99,30.27z
		 M120.99,27.61c0-0.52-0.09-0.89-0.27-1.09c-0.18-0.2-0.43-0.31-0.74-0.31c-0.37,0-0.64,0.08-0.83,0.24s-0.32,0.41-0.39,0.74
		c-0.02,0.07-0.02,0.13-0.03,0.2s-0.01,0.14-0.02,0.22H120.99z"/>
	<path class="st2" d="M124.42,30.27c-0.23,0-0.43-0.03-0.61-0.09c-0.13-0.03-0.3-0.09-0.48-0.19l-0.07,0.17h-0.54v-6.54l0.73-0.11
		v2.52c0.15-0.1,0.3-0.18,0.47-0.24c0.26-0.09,0.52-0.14,0.8-0.14c0.62,0,1.08,0.2,1.37,0.58s0.44,0.94,0.44,1.66
		c0,0.34-0.04,0.66-0.12,0.96c-0.08,0.29-0.2,0.54-0.37,0.75s-0.39,0.37-0.66,0.49C125.12,30.21,124.8,30.27,124.42,30.27z
		 M124.35,29.7c0.45,0,0.8-0.14,1.05-0.42s0.37-0.74,0.37-1.39c0-0.22-0.02-0.44-0.05-0.64c-0.04-0.2-0.11-0.38-0.2-0.53
		c-0.1-0.15-0.23-0.27-0.38-0.36c-0.16-0.09-0.37-0.13-0.62-0.13c-0.26,0-0.48,0.05-0.7,0.16c-0.12,0.07-0.24,0.15-0.36,0.25v2.78
		C123.71,29.61,124.01,29.7,124.35,29.7z"/>
	<path class="st2" d="M127.3,26.97c0-1.11,0.22-1.93,0.66-2.45s1.15-0.78,2.11-0.78c0.47,0,0.88,0.07,1.2,0.22
		c0.33,0.15,0.59,0.36,0.8,0.65s0.34,0.63,0.43,1.04s0.13,0.87,0.13,1.39c0,1.11-0.23,1.92-0.67,2.45
		c-0.45,0.52-1.16,0.79-2.12,0.79c-0.48,0-0.88-0.07-1.2-0.23c-0.32-0.15-0.59-0.37-0.78-0.65c-0.2-0.29-0.34-0.63-0.43-1.04
		S127.3,27.48,127.3,26.97z M131.85,26.91c0-0.35-0.02-0.68-0.08-1c-0.05-0.31-0.14-0.59-0.27-0.82s-0.32-0.42-0.55-0.55
		c-0.23-0.14-0.52-0.2-0.87-0.2c-0.38,0-0.7,0.06-0.97,0.18c-0.27,0.12-0.47,0.29-0.62,0.52s-0.27,0.52-0.34,0.86
		c-0.07,0.34-0.1,0.73-0.1,1.18c0,0.36,0.02,0.7,0.08,1.02s0.15,0.59,0.28,0.82s0.3,0.42,0.54,0.55c0.23,0.13,0.51,0.2,0.86,0.2
		c0.39,0,0.71-0.06,0.98-0.17c0.26-0.12,0.47-0.29,0.62-0.52s0.27-0.52,0.34-0.86C131.82,27.76,131.85,27.36,131.85,26.91z"/>
	<path class="st2" d="M136.31,27.71c-0.12-0.06-0.27-0.12-0.44-0.18c-0.16-0.06-0.34-0.13-0.52-0.2c-0.17-0.07-0.34-0.14-0.52-0.21
		s-0.32-0.15-0.46-0.23c-0.3-0.15-0.53-0.34-0.7-0.57c-0.16-0.22-0.24-0.54-0.24-0.93c0-0.29,0.05-0.53,0.17-0.73
		c0.12-0.21,0.27-0.38,0.48-0.52s0.44-0.23,0.71-0.3c0.27-0.07,0.56-0.1,0.88-0.1c0.72,0,1.34,0.13,1.84,0.38l-0.26,0.59
		c-0.18-0.08-0.41-0.16-0.68-0.24c-0.27-0.08-0.57-0.12-0.89-0.12c-0.47,0-0.84,0.09-1.1,0.26c-0.27,0.18-0.4,0.42-0.4,0.72
		c0,0.21,0.05,0.39,0.15,0.54s0.26,0.28,0.48,0.4c0.12,0.06,0.26,0.12,0.41,0.19c0.16,0.06,0.32,0.12,0.49,0.19
		c0.17,0.06,0.34,0.13,0.5,0.2c0.17,0.07,0.32,0.14,0.46,0.21c0.14,0.08,0.27,0.16,0.38,0.25c0.12,0.09,0.22,0.19,0.3,0.3
		c0.09,0.12,0.16,0.25,0.2,0.4c0.05,0.16,0.08,0.34,0.08,0.55c0,0.29-0.05,0.54-0.17,0.75c-0.12,0.21-0.27,0.39-0.48,0.53
		c-0.2,0.14-0.44,0.25-0.71,0.32s-0.58,0.11-0.91,0.11c-0.35,0-0.7-0.04-1.05-0.11s-0.66-0.18-0.94-0.32l0.27-0.57
		c0.29,0.13,0.57,0.23,0.84,0.29s0.55,0.1,0.87,0.1c0.52,0,0.91-0.09,1.16-0.28c0.25-0.19,0.38-0.43,0.38-0.74
		C136.91,28.22,136.71,27.91,136.31,27.71z"/>
	<path class="st2" d="M144.51,25.77v4.61c0,0.36-0.05,0.66-0.15,0.91s-0.23,0.45-0.41,0.6c-0.18,0.15-0.39,0.27-0.64,0.34
		s-0.52,0.11-0.83,0.11c-0.28,0-0.55-0.02-0.77-0.06c-0.23-0.04-0.43-0.09-0.6-0.15l0.19-0.56c0.14,0.05,0.31,0.09,0.51,0.13
		c0.2,0.04,0.42,0.06,0.67,0.06c0.18,0,0.35-0.02,0.51-0.06c0.16-0.04,0.3-0.11,0.42-0.21c0.12-0.1,0.21-0.23,0.27-0.4
		c0.07-0.16,0.1-0.37,0.1-0.62v-0.53c-0.18,0.1-0.38,0.18-0.57,0.25c-0.2,0.07-0.41,0.1-0.66,0.1c-0.65,0-1.12-0.19-1.41-0.57
		c-0.29-0.39-0.44-0.94-0.44-1.65c0-0.35,0.04-0.66,0.11-0.96c0.07-0.29,0.2-0.54,0.37-0.75c0.16-0.21,0.39-0.38,0.66-0.49
		s0.59-0.18,0.98-0.18c0.23,0,0.43,0.03,0.6,0.08s0.33,0.11,0.48,0.18l0.05-0.16H144.51z M143.79,26.46
		c-0.12-0.05-0.26-0.11-0.41-0.16c-0.14-0.05-0.3-0.08-0.48-0.08c-0.5,0-0.86,0.14-1.09,0.43c-0.23,0.29-0.35,0.75-0.35,1.39
		c0,0.21,0.02,0.41,0.05,0.61s0.11,0.38,0.2,0.54c0.09,0.16,0.23,0.28,0.39,0.37c0.17,0.09,0.38,0.14,0.65,0.14
		c0.2,0,0.38-0.03,0.54-0.09c0.16-0.06,0.33-0.15,0.49-0.25V26.46z"/>
	<path class="st2" d="M145.71,23.95h0.74v0.77h-0.74V23.95z M145.72,25.77h0.73v4.4h-0.73V25.77z"/>
	<path class="st2" d="M149.19,29.61l1.27-3.84h0.75l-1.58,4.4h-1.02l-1.54-4.4h0.79l1.24,3.84H149.19z"/>
	<path class="st2" d="M153.53,30.27c-0.38,0-0.7-0.05-0.96-0.14c-0.26-0.09-0.47-0.24-0.62-0.43c-0.16-0.2-0.27-0.43-0.34-0.73
		s-0.1-0.64-0.1-1.03c0-0.77,0.16-1.35,0.5-1.72c0.33-0.37,0.84-0.56,1.52-0.56c0.37,0,0.66,0.05,0.89,0.16
		c0.23,0.11,0.41,0.26,0.55,0.45c0.12,0.19,0.22,0.42,0.27,0.68s0.07,0.55,0.07,0.85v0.35h-3.04c0,0.25,0.02,0.46,0.05,0.63
		c0.09,0.35,0.24,0.59,0.46,0.71c0.21,0.13,0.5,0.2,0.88,0.2c0.31,0,0.59-0.04,0.83-0.12c0.23-0.08,0.42-0.16,0.56-0.23l0.2,0.5
		c-0.07,0.05-0.17,0.11-0.3,0.16s-0.27,0.1-0.41,0.14c-0.16,0.04-0.32,0.08-0.48,0.1C153.86,30.26,153.69,30.27,153.53,30.27z
		 M154.53,27.61c0-0.52-0.09-0.89-0.27-1.09c-0.18-0.2-0.43-0.31-0.74-0.31c-0.37,0-0.64,0.08-0.83,0.24s-0.32,0.41-0.39,0.74
		c-0.02,0.07-0.02,0.13-0.03,0.2s-0.01,0.14-0.02,0.22H154.53z"/>
	<path class="st2" d="M157.26,27.42c0.15,0.08,0.34,0.15,0.57,0.23s0.46,0.16,0.68,0.25c0.25,0.1,0.45,0.23,0.62,0.39
		c0.16,0.16,0.25,0.4,0.25,0.71c0,0.44-0.16,0.76-0.48,0.96c-0.32,0.2-0.78,0.3-1.38,0.3c-0.28,0-0.56-0.03-0.84-0.08
		s-0.51-0.13-0.7-0.23l0.23-0.55c0.16,0.09,0.34,0.15,0.57,0.2s0.48,0.08,0.75,0.08c0.14,0,0.27-0.01,0.41-0.03
		c0.14-0.02,0.26-0.04,0.36-0.09c0.1-0.04,0.19-0.11,0.25-0.19s0.09-0.2,0.09-0.34c0-0.28-0.18-0.48-0.53-0.61
		c-0.21-0.09-0.42-0.17-0.66-0.25c-0.23-0.07-0.44-0.15-0.62-0.23c-0.23-0.09-0.42-0.21-0.56-0.37c-0.15-0.15-0.23-0.38-0.23-0.67
		c0-0.23,0.05-0.43,0.16-0.6c0.1-0.16,0.24-0.29,0.41-0.39c0.17-0.09,0.37-0.16,0.58-0.21c0.21-0.04,0.42-0.06,0.63-0.06
		c0.33,0,0.62,0.03,0.86,0.08s0.45,0.11,0.61,0.18l-0.23,0.55c-0.17-0.07-0.36-0.13-0.56-0.18c-0.21-0.05-0.44-0.07-0.7-0.07
		c-0.38,0-0.66,0.06-0.81,0.18s-0.23,0.26-0.23,0.42c0,0.14,0.04,0.26,0.12,0.35C156.95,27.26,157.08,27.34,157.26,27.42z"/>
	<path class="st2" d="M13.51,35.37h0.81l1.27,3.5h0.09l1.17-3.5h0.75l-1.68,4.68c-0.11,0.27-0.2,0.52-0.3,0.75s-0.22,0.43-0.36,0.6
		c-0.13,0.17-0.3,0.3-0.51,0.39c-0.21,0.09-0.47,0.14-0.78,0.14c-0.08,0-0.15,0-0.23-0.01c-0.07-0.01-0.13-0.02-0.19-0.04l0.09-0.56
		l0.16,0.03c0.02,0,0.07,0.01,0.16,0.01c0.23,0,0.42-0.04,0.55-0.12s0.23-0.18,0.3-0.3c0.04-0.05,0.08-0.12,0.12-0.21
		c0.04-0.09,0.08-0.19,0.12-0.29c0.04-0.1,0.08-0.21,0.12-0.31s0.07-0.21,0.1-0.3L13.51,35.37z"/>
	<path class="st2" d="M19.97,39.87c-0.38,0-0.69-0.05-0.94-0.16c-0.25-0.11-0.45-0.26-0.6-0.46c-0.15-0.2-0.26-0.45-0.31-0.73
		c-0.06-0.29-0.09-0.61-0.09-0.98c0-0.77,0.17-1.35,0.51-1.72s0.89-0.56,1.64-0.56c0.38,0,0.69,0.05,0.94,0.16s0.45,0.26,0.6,0.46
		c0.16,0.2,0.26,0.45,0.33,0.73c0.06,0.29,0.09,0.61,0.09,0.98c0,0.77-0.18,1.34-0.53,1.71C21.25,39.69,20.71,39.87,19.97,39.87z
		 M19.97,39.3c0.54,0,0.91-0.15,1.11-0.45s0.3-0.75,0.3-1.35c0-0.23-0.02-0.45-0.05-0.65c-0.03-0.2-0.09-0.38-0.19-0.54
		c-0.09-0.16-0.21-0.28-0.37-0.37s-0.36-0.14-0.6-0.14c-0.54,0-0.91,0.16-1.11,0.47c-0.2,0.31-0.3,0.76-0.3,1.35
		c0,0.24,0.02,0.46,0.05,0.66c0.04,0.2,0.1,0.38,0.19,0.53c0.09,0.15,0.21,0.27,0.38,0.36C19.53,39.26,19.72,39.3,19.97,39.3z"/>
	<path class="st2" d="M26.69,38.59l0.07,1.17h-0.68l-0.05-0.38c-0.16,0.11-0.35,0.21-0.58,0.3c-0.34,0.13-0.66,0.19-0.96,0.19
		c-0.29,0-0.52-0.04-0.71-0.11c-0.18-0.07-0.33-0.18-0.43-0.32c-0.11-0.14-0.18-0.32-0.23-0.52c-0.04-0.21-0.06-0.45-0.06-0.73
		v-2.82h0.72v2.67c0,0.18,0.02,0.36,0.04,0.51s0.06,0.29,0.12,0.39c0.05,0.11,0.15,0.19,0.27,0.25c0.12,0.05,0.27,0.09,0.47,0.09
		c0.16,0,0.33-0.02,0.48-0.07c0.16-0.04,0.3-0.1,0.45-0.17l0.35-0.2v-3.47h0.73V38.59z"/>
	<path class="st2" d="M30.77,35.37l0.08,0.32c0.18-0.13,0.37-0.23,0.56-0.29c0.26-0.09,0.52-0.14,0.8-0.14
		c0.62,0,1.08,0.2,1.37,0.58s0.44,0.94,0.44,1.66c0,0.34-0.04,0.66-0.12,0.96c-0.08,0.29-0.2,0.54-0.37,0.75s-0.39,0.37-0.66,0.49
		c-0.27,0.12-0.59,0.18-0.96,0.18c-0.23,0-0.43-0.03-0.61-0.09c-0.06-0.01-0.12-0.03-0.18-0.05c-0.05-0.02-0.12-0.05-0.18-0.08v2.17
		l-0.73,0.11v-5.44l-0.07-1.12H30.77z M31.84,39.3c0.45,0,0.8-0.14,1.05-0.42s0.37-0.74,0.37-1.39c0-0.22-0.02-0.44-0.05-0.64
		c-0.04-0.2-0.11-0.38-0.2-0.53c-0.1-0.15-0.23-0.27-0.38-0.36c-0.16-0.09-0.37-0.13-0.62-0.13c-0.26,0-0.48,0.05-0.7,0.16
		c-0.12,0.07-0.24,0.15-0.36,0.25v2.78C31.2,39.22,31.5,39.3,31.84,39.3z"/>
	<path class="st2" d="M36.7,39.87c-0.38,0-0.69-0.05-0.94-0.16c-0.25-0.11-0.45-0.26-0.6-0.46c-0.15-0.2-0.26-0.45-0.31-0.73
		c-0.06-0.29-0.09-0.61-0.09-0.98c0-0.77,0.17-1.35,0.51-1.72s0.89-0.56,1.64-0.56c0.38,0,0.69,0.05,0.94,0.16s0.45,0.26,0.6,0.46
		c0.16,0.2,0.26,0.45,0.33,0.73c0.06,0.29,0.09,0.61,0.09,0.98c0,0.77-0.18,1.34-0.53,1.71C37.98,39.69,37.44,39.87,36.7,39.87z
		 M36.7,39.3c0.54,0,0.91-0.15,1.11-0.45s0.3-0.75,0.3-1.35c0-0.23-0.02-0.45-0.05-0.65c-0.03-0.2-0.09-0.38-0.19-0.54
		c-0.09-0.16-0.21-0.28-0.37-0.37s-0.36-0.14-0.6-0.14c-0.54,0-0.91,0.16-1.11,0.47c-0.2,0.31-0.3,0.76-0.3,1.35
		c0,0.24,0.02,0.46,0.05,0.66c0.04,0.2,0.1,0.38,0.19,0.53c0.09,0.15,0.21,0.27,0.38,0.36C36.26,39.26,36.46,39.3,36.7,39.3z"/>
	<path class="st2" d="M43.12,35.37l0.9,3.84h0.09l1.01-3.84h0.73l-1.26,4.4h-1.06l-0.89-3.84h-0.09l-0.89,3.84h-1.07l-1.22-4.4h0.74
		l0.99,3.84h0.08l0.88-3.84H43.12z"/>
	<path class="st2" d="M48.25,39.87c-0.38,0-0.7-0.05-0.96-0.14c-0.26-0.09-0.47-0.24-0.62-0.43c-0.16-0.2-0.27-0.43-0.34-0.73
		s-0.1-0.64-0.1-1.03c0-0.77,0.16-1.35,0.5-1.72c0.33-0.37,0.84-0.56,1.52-0.56c0.37,0,0.66,0.05,0.89,0.16
		c0.23,0.11,0.41,0.26,0.55,0.45c0.12,0.19,0.22,0.42,0.27,0.68s0.07,0.55,0.07,0.85v0.35h-3.04c0,0.25,0.02,0.46,0.05,0.63
		c0.09,0.35,0.24,0.59,0.46,0.71c0.21,0.13,0.5,0.2,0.88,0.2c0.31,0,0.59-0.04,0.83-0.12c0.23-0.08,0.42-0.16,0.56-0.23l0.2,0.5
		c-0.07,0.05-0.17,0.11-0.3,0.16s-0.27,0.1-0.41,0.14c-0.16,0.04-0.32,0.08-0.48,0.1C48.58,39.86,48.41,39.87,48.25,39.87z
		 M49.25,37.21c0-0.52-0.09-0.89-0.27-1.09c-0.18-0.2-0.43-0.31-0.74-0.31c-0.37,0-0.64,0.08-0.83,0.24s-0.32,0.41-0.39,0.74
		c-0.02,0.07-0.02,0.13-0.03,0.2s-0.01,0.14-0.02,0.22H49.25z"/>
	<path class="st2" d="M51.55,35.37l0.08,0.61c0.18-0.21,0.38-0.38,0.59-0.48c0.29-0.15,0.59-0.23,0.88-0.23
		c0.24,0,0.44,0.04,0.59,0.12l-0.2,0.61c-0.12-0.06-0.3-0.09-0.51-0.09c-0.27,0-0.52,0.08-0.76,0.24c-0.09,0.06-0.17,0.12-0.25,0.2
		c-0.09,0.07-0.16,0.16-0.25,0.25v3.18H51v-3.2l-0.11-1.2H51.55z"/>
	<path class="st2" d="M56.83,35.37v0.58h-1.61v3.82h-0.73v-3.82h-0.64v-0.58h0.64v-0.55c0-0.32,0.04-0.6,0.12-0.82
		c0.08-0.21,0.19-0.39,0.33-0.52c0.14-0.13,0.3-0.23,0.5-0.28s0.41-0.08,0.66-0.08c0.16,0,0.32,0.02,0.48,0.05
		c0.16,0.03,0.3,0.07,0.45,0.11l-0.16,0.57c-0.21-0.09-0.46-0.12-0.73-0.12c-0.33,0-0.56,0.09-0.7,0.26c-0.14,0.18-0.2,0.48-0.2,0.9
		v0.49H56.83z"/>
	<path class="st2" d="M60.94,38.59l0.07,1.17h-0.68l-0.05-0.38c-0.16,0.11-0.35,0.21-0.58,0.3c-0.34,0.13-0.66,0.19-0.96,0.19
		c-0.29,0-0.52-0.04-0.71-0.11c-0.18-0.07-0.33-0.18-0.43-0.32c-0.11-0.14-0.18-0.32-0.23-0.52c-0.04-0.21-0.06-0.45-0.06-0.73
		v-2.82h0.72v2.67c0,0.18,0.02,0.36,0.04,0.51s0.06,0.29,0.12,0.39c0.05,0.11,0.15,0.19,0.27,0.25c0.12,0.05,0.27,0.09,0.47,0.09
		c0.16,0,0.33-0.02,0.48-0.07c0.16-0.04,0.3-0.1,0.45-0.17l0.35-0.2v-3.47h0.73V38.59z"/>
	<path class="st2" d="M63.3,39.79c-0.01,0.01-0.03,0.01-0.09,0.01c-0.02,0-0.07,0.01-0.17,0.01c-0.34,0-0.59-0.1-0.71-0.29
		s-0.2-0.48-0.2-0.87v-5.43l0.73-0.11v5.52c0,0.27,0.03,0.43,0.09,0.5s0.18,0.11,0.34,0.11V39.79z"/>
	<path class="st2" d="M67.08,35.37l0.03,0.38c0.07-0.05,0.16-0.11,0.24-0.16c0.09-0.05,0.19-0.09,0.29-0.14
		c0.28-0.12,0.58-0.18,0.9-0.18c0.28,0,0.52,0.04,0.7,0.11c0.17,0.07,0.31,0.18,0.41,0.32l0.05,0.08c0.18-0.14,0.38-0.25,0.59-0.33
		c0.31-0.12,0.62-0.18,0.95-0.18c0.28,0,0.51,0.04,0.69,0.11c0.17,0.07,0.31,0.18,0.41,0.32s0.17,0.32,0.21,0.52
		c0.03,0.21,0.05,0.45,0.05,0.71v2.83h-0.72V37.1c0-0.19-0.01-0.36-0.02-0.51c-0.02-0.16-0.06-0.29-0.12-0.39
		c-0.06-0.11-0.14-0.19-0.25-0.25c-0.1-0.06-0.24-0.09-0.42-0.09c-0.16,0-0.32,0.02-0.47,0.07s-0.29,0.11-0.42,0.18
		c-0.05,0.02-0.11,0.05-0.16,0.09c-0.05,0.03-0.1,0.07-0.16,0.11c0.02,0.09,0.02,0.2,0.03,0.3s0.01,0.22,0.01,0.33v2.83h-0.73V37.1
		c0-0.19-0.01-0.36-0.02-0.51c-0.02-0.16-0.05-0.29-0.11-0.39c-0.06-0.11-0.14-0.19-0.25-0.25c-0.1-0.06-0.25-0.09-0.43-0.09
		c-0.31,0-0.61,0.08-0.89,0.25c-0.05,0.02-0.09,0.05-0.13,0.08c-0.05,0.03-0.09,0.06-0.13,0.09v3.48h-0.73v-3.23l-0.07-1.17H67.08z"
		/>
	<path class="st2" d="M77.33,38.59l0.07,1.17h-0.68l-0.05-0.38c-0.16,0.11-0.35,0.21-0.58,0.3c-0.34,0.13-0.66,0.19-0.96,0.19
		c-0.29,0-0.52-0.04-0.71-0.11c-0.18-0.07-0.33-0.18-0.43-0.32c-0.11-0.14-0.18-0.32-0.23-0.52c-0.04-0.21-0.06-0.45-0.06-0.73
		v-2.82h0.72v2.67c0,0.18,0.02,0.36,0.04,0.51s0.06,0.29,0.12,0.39c0.05,0.11,0.15,0.19,0.27,0.25c0.12,0.05,0.27,0.09,0.47,0.09
		c0.16,0,0.33-0.02,0.48-0.07c0.16-0.04,0.3-0.1,0.45-0.17l0.35-0.2v-3.47h0.73V38.59z"/>
	<path class="st2" d="M79.7,39.79c-0.01,0.01-0.03,0.01-0.09,0.01c-0.02,0-0.07,0.01-0.17,0.01c-0.34,0-0.59-0.1-0.71-0.29
		s-0.2-0.48-0.2-0.87v-5.43l0.73-0.11v5.52c0,0.27,0.03,0.43,0.09,0.5s0.18,0.11,0.34,0.11V39.79z"/>
	<path class="st2" d="M81.53,35.95v2.17c0,0.19,0.01,0.36,0.02,0.5s0.05,0.27,0.11,0.36c0.05,0.1,0.14,0.17,0.26,0.22
		c0.11,0.05,0.26,0.08,0.45,0.08c0.27,0,0.53-0.05,0.8-0.14l0.13,0.51c-0.18,0.08-0.37,0.13-0.56,0.17c-0.2,0.04-0.4,0.06-0.59,0.06
		c-0.28,0-0.52-0.04-0.69-0.11c-0.18-0.08-0.31-0.18-0.41-0.32c-0.1-0.13-0.16-0.29-0.2-0.48c-0.03-0.19-0.05-0.39-0.05-0.6v-2.4
		h-0.75v-0.52l0.75-0.08v-0.92l0.72-0.12v1.04h1.66v0.58H81.53z"/>
	<path class="st2" d="M84.03,33.55h0.74v0.77h-0.74V33.55z M84.04,35.37h0.73v4.4h-0.73V35.37z"/>
	<path class="st2" d="M86.59,35.37l0.03,0.38c0.07-0.05,0.16-0.11,0.24-0.16c0.09-0.05,0.19-0.09,0.29-0.14
		c0.28-0.12,0.58-0.18,0.9-0.18c0.28,0,0.52,0.04,0.7,0.11c0.17,0.07,0.31,0.18,0.41,0.32l0.05,0.08c0.18-0.14,0.38-0.25,0.59-0.33
		c0.31-0.12,0.62-0.18,0.95-0.18c0.28,0,0.51,0.04,0.69,0.11c0.17,0.07,0.31,0.18,0.41,0.32s0.17,0.32,0.21,0.52
		c0.03,0.21,0.05,0.45,0.05,0.71v2.83h-0.72V37.1c0-0.19-0.01-0.36-0.02-0.51c-0.02-0.16-0.06-0.29-0.12-0.39
		C91.19,36.09,91.11,36,91,35.95c-0.1-0.06-0.24-0.09-0.42-0.09c-0.16,0-0.32,0.02-0.47,0.07s-0.29,0.11-0.42,0.18
		c-0.05,0.02-0.11,0.05-0.16,0.09c-0.05,0.03-0.1,0.07-0.16,0.11c0.02,0.09,0.02,0.2,0.03,0.3s0.01,0.22,0.01,0.33v2.83h-0.73V37.1
		c0-0.19-0.01-0.36-0.02-0.51c-0.02-0.16-0.05-0.29-0.11-0.39c-0.06-0.11-0.14-0.19-0.25-0.25c-0.1-0.06-0.25-0.09-0.43-0.09
		c-0.31,0-0.61,0.08-0.89,0.25c-0.05,0.02-0.09,0.05-0.13,0.08c-0.05,0.03-0.09,0.06-0.13,0.09v3.48h-0.73v-3.23l-0.07-1.17H86.59z"
		/>
	<path class="st2" d="M95.08,39.87c-0.38,0-0.7-0.05-0.96-0.14c-0.26-0.09-0.47-0.24-0.62-0.43c-0.16-0.2-0.27-0.43-0.34-0.73
		s-0.1-0.64-0.1-1.03c0-0.77,0.16-1.35,0.5-1.72c0.33-0.37,0.84-0.56,1.52-0.56c0.37,0,0.66,0.05,0.89,0.16
		c0.23,0.11,0.41,0.26,0.55,0.45c0.12,0.19,0.22,0.42,0.27,0.68s0.07,0.55,0.07,0.85v0.35H93.8c0,0.25,0.02,0.46,0.05,0.63
		c0.09,0.35,0.24,0.59,0.46,0.71c0.21,0.13,0.5,0.2,0.88,0.2c0.31,0,0.59-0.04,0.83-0.12c0.23-0.08,0.42-0.16,0.56-0.23l0.2,0.5
		c-0.07,0.05-0.17,0.11-0.3,0.16s-0.27,0.1-0.41,0.14c-0.16,0.04-0.32,0.08-0.48,0.1C95.4,39.86,95.24,39.87,95.08,39.87z
		 M96.08,37.21c0-0.52-0.09-0.89-0.27-1.09c-0.18-0.2-0.43-0.31-0.74-0.31c-0.37,0-0.64,0.08-0.83,0.24s-0.32,0.41-0.39,0.74
		c-0.02,0.07-0.02,0.13-0.03,0.2s-0.01,0.14-0.02,0.22H96.08z"/>
	<path class="st2" d="M99.37,39.87c-0.62,0-1.08-0.2-1.37-0.58c-0.3-0.39-0.44-0.94-0.44-1.66c0-0.34,0.04-0.66,0.11-0.95
		c0.08-0.29,0.2-0.54,0.38-0.75c0.16-0.21,0.38-0.37,0.65-0.49s0.59-0.18,0.97-0.18c0.22,0,0.42,0.03,0.61,0.08
		c0.12,0.03,0.25,0.08,0.37,0.14v-2.26l0.72-0.11v5.52l0.08,1.12h-0.63l-0.09-0.31c-0.17,0.13-0.36,0.23-0.55,0.29
		C99.94,39.83,99.68,39.87,99.37,39.87z M99.73,35.82c-0.46,0-0.81,0.14-1.05,0.42s-0.36,0.75-0.36,1.39c0,0.23,0.02,0.44,0.05,0.64
		c0.04,0.2,0.1,0.37,0.2,0.53c0.09,0.15,0.23,0.27,0.38,0.36c0.16,0.09,0.38,0.14,0.62,0.14c0.26,0,0.49-0.05,0.69-0.16
		c0.06-0.03,0.12-0.07,0.19-0.11s0.12-0.09,0.19-0.14V36.1C100.37,35.91,100.06,35.82,99.73,35.82z"/>
	<path class="st2" d="M102.58,33.55h0.74v0.77h-0.74V33.55z M102.59,35.37h0.73v4.4h-0.73V35.37z"/>
	<path class="st2" d="M108.22,39.79c-0.06,0.01-0.1,0.02-0.12,0.02h-0.14c-0.23,0-0.4-0.04-0.51-0.13s-0.2-0.21-0.27-0.37
		c-0.16,0.15-0.37,0.28-0.62,0.39c-0.25,0.11-0.55,0.17-0.9,0.17c-0.27,0-0.49-0.04-0.66-0.11c-0.18-0.07-0.32-0.17-0.43-0.29
		s-0.19-0.26-0.23-0.43c-0.05-0.16-0.07-0.34-0.07-0.53c0-0.27,0.05-0.49,0.14-0.66c0.09-0.17,0.22-0.3,0.39-0.41
		c0.16-0.1,0.36-0.18,0.59-0.21c0.23-0.04,0.48-0.06,0.76-0.06c0.18,0,0.34,0,0.47,0.02c0.13,0.01,0.29,0.02,0.46,0.03V37
		c0-0.21-0.02-0.4-0.05-0.55s-0.09-0.27-0.17-0.36s-0.19-0.16-0.33-0.2c-0.13-0.04-0.31-0.06-0.52-0.06c-0.25,0-0.49,0.04-0.74,0.11
		s-0.46,0.14-0.62,0.22l-0.18-0.51c0.22-0.1,0.48-0.19,0.77-0.27c0.3-0.08,0.62-0.12,0.96-0.12c0.3,0,0.56,0.03,0.77,0.09
		c0.21,0.06,0.38,0.16,0.5,0.3c0.12,0.14,0.21,0.33,0.26,0.56c0.05,0.23,0.08,0.51,0.08,0.84v1.59c0,0.23,0.04,0.38,0.1,0.46
		c0.07,0.09,0.17,0.12,0.31,0.12V39.79z M106.08,37.73c-0.4,0-0.67,0.06-0.82,0.19s-0.23,0.32-0.23,0.57c0,0.29,0.06,0.5,0.2,0.62
		c0.12,0.13,0.34,0.19,0.66,0.19c0.21,0,0.43-0.05,0.64-0.14c0.21-0.09,0.39-0.2,0.55-0.33v-1.06c-0.16-0.01-0.33-0.02-0.48-0.03
		C106.44,37.73,106.26,37.73,106.08,37.73z"/>
	<path class="st2" d="M114.58,39.52c-0.14,0.08-0.34,0.16-0.59,0.24c-0.27,0.07-0.55,0.11-0.85,0.11c-0.73,0-1.26-0.2-1.58-0.58
		s-0.48-0.94-0.48-1.66c0-0.79,0.19-1.39,0.55-1.78c0.38-0.39,0.93-0.59,1.66-0.59c0.27,0,0.53,0.05,0.77,0.14s0.44,0.22,0.58,0.38
		l-0.44,0.43c-0.11-0.12-0.24-0.22-0.4-0.29c-0.16-0.07-0.34-0.11-0.52-0.11c-0.48,0-0.85,0.15-1.1,0.44
		c-0.24,0.29-0.37,0.76-0.37,1.4c0,0.24,0.02,0.46,0.07,0.67c0.05,0.2,0.12,0.37,0.23,0.52c0.12,0.14,0.26,0.26,0.44,0.34
		c0.17,0.08,0.39,0.12,0.63,0.12c0.26,0,0.48-0.03,0.68-0.08s0.38-0.12,0.55-0.2L114.58,39.52z"/>
	<path class="st2" d="M119.01,39.79c-0.06,0.01-0.1,0.02-0.12,0.02h-0.14c-0.23,0-0.4-0.04-0.51-0.13s-0.2-0.21-0.27-0.37
		c-0.16,0.15-0.37,0.28-0.62,0.39c-0.25,0.11-0.55,0.17-0.9,0.17c-0.27,0-0.49-0.04-0.66-0.11c-0.18-0.07-0.32-0.17-0.43-0.29
		s-0.19-0.26-0.23-0.43c-0.05-0.16-0.07-0.34-0.07-0.53c0-0.27,0.05-0.49,0.14-0.66c0.09-0.17,0.22-0.3,0.39-0.41
		c0.16-0.1,0.36-0.18,0.59-0.21c0.23-0.04,0.48-0.06,0.76-0.06c0.18,0,0.34,0,0.47,0.02c0.13,0.01,0.29,0.02,0.46,0.03V37
		c0-0.21-0.02-0.4-0.05-0.55s-0.09-0.27-0.17-0.36s-0.19-0.16-0.33-0.2c-0.13-0.04-0.31-0.06-0.52-0.06c-0.25,0-0.49,0.04-0.74,0.11
		s-0.46,0.14-0.62,0.22l-0.18-0.51c0.22-0.1,0.48-0.19,0.77-0.27c0.3-0.08,0.62-0.12,0.96-0.12c0.3,0,0.56,0.03,0.77,0.09
		c0.21,0.06,0.38,0.16,0.5,0.3c0.12,0.14,0.21,0.33,0.26,0.56c0.05,0.23,0.08,0.51,0.08,0.84v1.59c0,0.23,0.04,0.38,0.1,0.46
		c0.07,0.09,0.17,0.12,0.31,0.12V39.79z M116.87,37.73c-0.4,0-0.67,0.06-0.82,0.19s-0.23,0.32-0.23,0.57c0,0.29,0.06,0.5,0.2,0.62
		c0.12,0.13,0.34,0.19,0.66,0.19c0.21,0,0.43-0.05,0.64-0.14c0.21-0.09,0.39-0.2,0.55-0.33v-1.06c-0.16-0.01-0.33-0.02-0.48-0.03
		C117.22,37.73,117.05,37.73,116.87,37.73z"/>
	<path class="st2" d="M120.34,35.37l0.08,0.32c0.18-0.13,0.37-0.23,0.56-0.29c0.26-0.09,0.52-0.14,0.8-0.14
		c0.62,0,1.08,0.2,1.37,0.58s0.44,0.94,0.44,1.66c0,0.34-0.04,0.66-0.12,0.96c-0.08,0.29-0.2,0.54-0.37,0.75s-0.39,0.37-0.66,0.49
		c-0.27,0.12-0.59,0.18-0.96,0.18c-0.23,0-0.43-0.03-0.61-0.09c-0.06-0.01-0.12-0.03-0.18-0.05c-0.05-0.02-0.12-0.05-0.18-0.08v2.17
		l-0.73,0.11v-5.44l-0.07-1.12H120.34z M121.41,39.3c0.45,0,0.8-0.14,1.05-0.42s0.37-0.74,0.37-1.39c0-0.22-0.02-0.44-0.05-0.64
		c-0.04-0.2-0.11-0.38-0.2-0.53c-0.1-0.15-0.23-0.27-0.38-0.36c-0.16-0.09-0.37-0.13-0.62-0.13c-0.26,0-0.48,0.05-0.7,0.16
		c-0.12,0.07-0.24,0.15-0.36,0.25v2.78C120.77,39.22,121.07,39.3,121.41,39.3z"/>
	<path class="st2" d="M128.23,39.79c-0.06,0.01-0.1,0.02-0.12,0.02h-0.14c-0.23,0-0.4-0.04-0.51-0.13s-0.2-0.21-0.27-0.37
		c-0.16,0.15-0.37,0.28-0.62,0.39c-0.25,0.11-0.55,0.17-0.9,0.17c-0.27,0-0.49-0.04-0.66-0.11c-0.18-0.07-0.32-0.17-0.43-0.29
		s-0.19-0.26-0.23-0.43c-0.05-0.16-0.07-0.34-0.07-0.53c0-0.27,0.05-0.49,0.14-0.66c0.09-0.17,0.22-0.3,0.39-0.41
		c0.16-0.1,0.36-0.18,0.59-0.21c0.23-0.04,0.48-0.06,0.76-0.06c0.18,0,0.34,0,0.47,0.02c0.13,0.01,0.29,0.02,0.46,0.03V37
		c0-0.21-0.02-0.4-0.05-0.55s-0.09-0.27-0.17-0.36s-0.19-0.16-0.33-0.2c-0.13-0.04-0.31-0.06-0.52-0.06c-0.25,0-0.49,0.04-0.74,0.11
		s-0.46,0.14-0.62,0.22l-0.18-0.51c0.22-0.1,0.48-0.19,0.77-0.27c0.3-0.08,0.62-0.12,0.96-0.12c0.3,0,0.56,0.03,0.77,0.09
		c0.21,0.06,0.38,0.16,0.5,0.3c0.12,0.14,0.21,0.33,0.26,0.56c0.05,0.23,0.08,0.51,0.08,0.84v1.59c0,0.23,0.04,0.38,0.1,0.46
		c0.07,0.09,0.17,0.12,0.31,0.12V39.79z M126.09,37.73c-0.4,0-0.67,0.06-0.82,0.19s-0.23,0.32-0.23,0.57c0,0.29,0.06,0.5,0.2,0.62
		c0.12,0.13,0.34,0.19,0.66,0.19c0.21,0,0.43-0.05,0.64-0.14c0.21-0.09,0.39-0.2,0.55-0.33v-1.06c-0.16-0.01-0.33-0.02-0.48-0.03
		C126.45,37.73,126.28,37.73,126.09,37.73z"/>
	<path class="st2" d="M130.71,39.87c-0.23,0-0.43-0.03-0.61-0.09c-0.13-0.03-0.3-0.09-0.48-0.19l-0.07,0.17h-0.54v-6.54l0.73-0.11
		v2.52c0.15-0.1,0.3-0.18,0.47-0.24c0.26-0.09,0.52-0.14,0.8-0.14c0.62,0,1.08,0.2,1.37,0.58s0.44,0.94,0.44,1.66
		c0,0.34-0.04,0.66-0.12,0.96c-0.08,0.29-0.2,0.54-0.37,0.75s-0.39,0.37-0.66,0.49C131.4,39.81,131.08,39.87,130.71,39.87z
		 M130.64,39.3c0.45,0,0.8-0.14,1.05-0.42s0.37-0.74,0.37-1.39c0-0.22-0.02-0.44-0.05-0.64c-0.04-0.2-0.11-0.38-0.2-0.53
		c-0.1-0.15-0.23-0.27-0.38-0.36c-0.16-0.09-0.37-0.13-0.62-0.13c-0.26,0-0.48,0.05-0.7,0.16c-0.12,0.07-0.24,0.15-0.36,0.25v2.78
		C130,39.22,130.3,39.3,130.64,39.3z"/>
	<path class="st2" d="M133.77,33.55h0.74v0.77h-0.74V33.55z M133.78,35.37h0.73v4.4h-0.73V35.37z"/>
	<path class="st2" d="M136.89,39.79c-0.01,0.01-0.03,0.01-0.09,0.01c-0.02,0-0.07,0.01-0.17,0.01c-0.34,0-0.59-0.1-0.71-0.29
		s-0.2-0.48-0.2-0.87v-5.43l0.73-0.11v5.52c0,0.27,0.03,0.43,0.09,0.5s0.18,0.11,0.34,0.11V39.79z"/>
	<path class="st2" d="M137.72,33.55h0.74v0.77h-0.74V33.55z M137.73,35.37h0.73v4.4h-0.73V35.37z"/>
	<path class="st2" d="M140.66,35.95v2.17c0,0.19,0.01,0.36,0.02,0.5s0.05,0.27,0.11,0.36c0.05,0.1,0.14,0.17,0.26,0.22
		c0.11,0.05,0.26,0.08,0.45,0.08c0.27,0,0.53-0.05,0.8-0.14l0.13,0.51c-0.18,0.08-0.37,0.13-0.56,0.17c-0.2,0.04-0.4,0.06-0.59,0.06
		c-0.28,0-0.52-0.04-0.69-0.11c-0.18-0.08-0.31-0.18-0.41-0.32c-0.1-0.13-0.16-0.29-0.2-0.48c-0.03-0.19-0.05-0.39-0.05-0.6v-2.4
		h-0.75v-0.52l0.75-0.08v-0.92l0.72-0.12v1.04h1.66v0.58H140.66z"/>
	<path class="st2" d="M143.16,33.55h0.74v0.77h-0.74V33.55z M143.17,35.37h0.73v4.4h-0.73V35.37z"/>
	<path class="st2" d="M146.92,39.87c-0.38,0-0.7-0.05-0.96-0.14c-0.26-0.09-0.47-0.24-0.62-0.43c-0.16-0.2-0.27-0.43-0.34-0.73
		s-0.1-0.64-0.1-1.03c0-0.77,0.16-1.35,0.5-1.72c0.33-0.37,0.84-0.56,1.52-0.56c0.37,0,0.66,0.05,0.89,0.16
		c0.23,0.11,0.41,0.26,0.55,0.45c0.12,0.19,0.22,0.42,0.27,0.68s0.07,0.55,0.07,0.85v0.35h-3.04c0,0.25,0.02,0.46,0.05,0.63
		c0.09,0.35,0.24,0.59,0.46,0.71c0.21,0.13,0.5,0.2,0.88,0.2c0.31,0,0.59-0.04,0.83-0.12c0.23-0.08,0.42-0.16,0.56-0.23l0.2,0.5
		c-0.07,0.05-0.17,0.11-0.3,0.16s-0.27,0.1-0.41,0.14c-0.16,0.04-0.32,0.08-0.48,0.1C147.25,39.86,147.08,39.87,146.92,39.87z
		 M147.92,37.21c0-0.52-0.09-0.89-0.27-1.09c-0.18-0.2-0.43-0.31-0.74-0.31c-0.37,0-0.64,0.08-0.83,0.24s-0.32,0.41-0.39,0.74
		c-0.02,0.07-0.02,0.13-0.03,0.2s-0.01,0.14-0.02,0.22H147.92z"/>
	<path class="st2" d="M150.65,37.02c0.15,0.08,0.34,0.15,0.57,0.23s0.46,0.16,0.68,0.25c0.25,0.1,0.45,0.23,0.62,0.39
		c0.16,0.16,0.25,0.4,0.25,0.71c0,0.44-0.16,0.76-0.48,0.96c-0.32,0.2-0.78,0.3-1.38,0.3c-0.28,0-0.56-0.03-0.84-0.08
		s-0.51-0.13-0.7-0.23l0.23-0.55c0.16,0.09,0.34,0.15,0.57,0.2s0.48,0.08,0.75,0.08c0.14,0,0.27-0.01,0.41-0.03
		c0.14-0.02,0.26-0.04,0.36-0.09c0.1-0.04,0.19-0.11,0.25-0.19s0.09-0.2,0.09-0.34c0-0.28-0.18-0.48-0.53-0.61
		c-0.21-0.09-0.42-0.17-0.66-0.25c-0.23-0.07-0.44-0.15-0.62-0.23c-0.23-0.09-0.42-0.21-0.56-0.37c-0.15-0.15-0.23-0.38-0.23-0.67
		c0-0.23,0.05-0.43,0.16-0.6c0.1-0.16,0.24-0.29,0.41-0.39c0.17-0.09,0.37-0.16,0.58-0.21c0.21-0.04,0.42-0.06,0.63-0.06
		c0.33,0,0.62,0.03,0.86,0.08s0.45,0.11,0.61,0.18l-0.23,0.55c-0.17-0.07-0.36-0.13-0.56-0.18c-0.21-0.05-0.44-0.07-0.7-0.07
		c-0.38,0-0.66,0.06-0.81,0.18s-0.23,0.26-0.23,0.42c0,0.14,0.04,0.26,0.12,0.35C150.34,36.86,150.47,36.94,150.65,37.02z"/>
</g>
</svg>
