<?xml version="1.0" encoding="utf-8"?>
<!-- Generator: Adobe Illustrator 23.0.0, SVG Export Plug-In . SVG Version: 6.00 Build 0)  -->
<svg version="1.1" id="Layer_1" xmlns="http://www.w3.org/2000/svg" xmlns:xlink="http://www.w3.org/1999/xlink" x="0px" y="0px"
	 viewBox="0 0 182.66 52.5" style="enable-background:new 0 0 182.66 52.5;" xml:space="preserve">
<style type="text/css">
	.st0{fill:#D1D3D4;stroke:#808285;stroke-width:0.8;stroke-miterlimit:10;}
	.st1{fill:#464A4C;}
</style>
<path class="st0" d="M162.97,50.47H19.86c-9.5,0-17.28-7.78-17.28-17.28V18.75c0-9.5,7.78-17.28,17.28-17.28h143.11
	c9.5,0,17.28,7.78,17.28,17.28v14.44C180.25,42.69,172.47,50.47,162.97,50.47z"/>
<g>
	<path class="st1" d="M25.2,20.89c-0.06,0.01-0.11,0.02-0.12,0.02h-0.15c-0.22,0-0.39-0.04-0.5-0.13s-0.2-0.21-0.27-0.37
		c-0.16,0.15-0.37,0.28-0.62,0.39c-0.26,0.11-0.55,0.17-0.9,0.17c-0.27,0-0.49-0.04-0.66-0.11c-0.18-0.07-0.32-0.17-0.43-0.29
		s-0.19-0.26-0.23-0.43c-0.04-0.16-0.06-0.34-0.06-0.53c0-0.27,0.05-0.49,0.14-0.66c0.09-0.17,0.22-0.3,0.38-0.41
		c0.17-0.1,0.37-0.18,0.59-0.21c0.23-0.04,0.48-0.06,0.75-0.06c0.18,0,0.34,0,0.48,0.02c0.13,0.01,0.28,0.02,0.46,0.03v-0.23
		c0-0.21-0.02-0.4-0.05-0.55c-0.03-0.15-0.09-0.27-0.16-0.36s-0.19-0.16-0.33-0.2c-0.13-0.04-0.31-0.06-0.52-0.06
		c-0.25,0-0.5,0.04-0.75,0.11s-0.45,0.14-0.61,0.22l-0.19-0.51c0.23-0.1,0.48-0.19,0.78-0.27c0.3-0.08,0.62-0.12,0.96-0.12
		c0.3,0,0.56,0.03,0.77,0.09c0.2,0.06,0.37,0.16,0.49,0.3c0.12,0.14,0.22,0.33,0.27,0.56c0.05,0.23,0.08,0.51,0.08,0.84v1.59
		c0,0.23,0.03,0.38,0.1,0.46c0.06,0.09,0.17,0.12,0.31,0.12V20.89z M23.05,18.84c-0.4,0-0.67,0.06-0.82,0.19
		c-0.16,0.12-0.23,0.32-0.23,0.57c0,0.29,0.06,0.5,0.19,0.62c0.13,0.13,0.35,0.19,0.66,0.19c0.21,0,0.42-0.05,0.63-0.14
		c0.21-0.09,0.4-0.2,0.56-0.33v-1.06c-0.17-0.01-0.33-0.02-0.48-0.03C23.41,18.84,23.24,18.84,23.05,18.84z"/>
	<path class="st1" d="M26.58,16.47l0.02,0.39c0.19-0.12,0.38-0.23,0.59-0.32c0.32-0.12,0.64-0.18,0.96-0.18
		c0.3,0,0.54,0.04,0.72,0.11c0.19,0.07,0.34,0.18,0.45,0.32s0.19,0.32,0.23,0.52s0.06,0.45,0.06,0.71v2.83h-0.73V18.2
		c0-0.19-0.01-0.36-0.02-0.51c-0.02-0.16-0.06-0.29-0.12-0.39s-0.16-0.19-0.27-0.25s-0.28-0.09-0.48-0.09
		c-0.16,0-0.33,0.02-0.48,0.07s-0.31,0.11-0.45,0.18c-0.12,0.05-0.23,0.12-0.34,0.2v3.46h-0.73v-3.23l-0.08-1.17H26.58z"/>
	<path class="st1" d="M32.32,20.98c-0.62,0-1.07-0.2-1.37-0.58c-0.29-0.39-0.44-0.94-0.44-1.66c0-0.34,0.04-0.66,0.12-0.95
		c0.08-0.29,0.2-0.54,0.37-0.75c0.17-0.21,0.39-0.37,0.66-0.49s0.59-0.18,0.97-0.18c0.21,0,0.42,0.03,0.61,0.08
		c0.12,0.03,0.24,0.08,0.37,0.14v-2.26l0.72-0.11v5.52l0.08,1.12h-0.63l-0.09-0.31c-0.17,0.13-0.36,0.23-0.56,0.29
		C32.9,20.93,32.63,20.98,32.32,20.98z M32.69,16.93c-0.46,0-0.81,0.14-1.05,0.42s-0.37,0.75-0.37,1.39c0,0.23,0.02,0.44,0.06,0.64
		c0.04,0.2,0.1,0.37,0.2,0.53c0.1,0.15,0.23,0.27,0.39,0.36c0.16,0.09,0.37,0.14,0.62,0.14c0.27,0,0.5-0.05,0.7-0.16
		c0.06-0.03,0.12-0.07,0.19-0.11s0.12-0.09,0.19-0.14V17.2C33.32,17.02,33.02,16.93,32.69,16.93z"/>
	<path class="st1" d="M38.85,17.05v2.17c0,0.19,0.01,0.36,0.02,0.5s0.05,0.27,0.11,0.36c0.06,0.1,0.14,0.17,0.26,0.22
		c0.11,0.05,0.27,0.08,0.45,0.08c0.27,0,0.54-0.05,0.8-0.14l0.13,0.51c-0.18,0.08-0.37,0.13-0.56,0.17c-0.2,0.04-0.4,0.06-0.59,0.06
		c-0.28,0-0.51-0.04-0.69-0.11c-0.18-0.08-0.31-0.18-0.41-0.32c-0.09-0.13-0.16-0.29-0.2-0.48c-0.04-0.19-0.05-0.39-0.05-0.6v-2.4
		h-0.75v-0.52l0.75-0.08v-0.92l0.72-0.12v1.04h1.66v0.58H38.85z"/>
	<path class="st1" d="M44.27,20.87v-2.66c0-0.18-0.01-0.35-0.02-0.5c-0.02-0.16-0.06-0.29-0.12-0.39s-0.16-0.19-0.27-0.24
		c-0.12-0.06-0.28-0.09-0.48-0.09c-0.16,0-0.33,0.02-0.48,0.07c-0.16,0.04-0.31,0.11-0.45,0.18c-0.07,0.04-0.12,0.07-0.18,0.1
		s-0.11,0.07-0.16,0.1v3.44h-0.73v-6.54l0.73-0.11v2.57c0.14-0.1,0.31-0.18,0.49-0.25c0.32-0.12,0.64-0.18,0.96-0.18
		c0.3,0,0.54,0.04,0.72,0.11c0.19,0.07,0.34,0.18,0.45,0.32s0.19,0.32,0.23,0.52s0.06,0.45,0.06,0.71v2.83H44.27z"/>
	<path class="st1" d="M47.96,20.98c-0.38,0-0.7-0.05-0.96-0.14c-0.26-0.09-0.47-0.24-0.62-0.43c-0.16-0.2-0.27-0.43-0.34-0.73
		s-0.1-0.64-0.1-1.03c0-0.77,0.16-1.35,0.5-1.72c0.33-0.37,0.84-0.56,1.52-0.56c0.36,0,0.66,0.05,0.89,0.16s0.41,0.26,0.54,0.45
		c0.13,0.19,0.23,0.42,0.27,0.68s0.07,0.55,0.07,0.85v0.35h-3.04c0,0.25,0.02,0.46,0.05,0.63c0.09,0.35,0.24,0.59,0.45,0.71
		c0.22,0.13,0.51,0.2,0.88,0.2c0.31,0,0.59-0.04,0.82-0.12c0.24-0.08,0.43-0.16,0.57-0.23l0.19,0.5c-0.07,0.05-0.16,0.11-0.29,0.16
		s-0.27,0.1-0.41,0.14c-0.16,0.04-0.32,0.08-0.49,0.1C48.29,20.97,48.12,20.98,47.96,20.98z M48.96,18.32
		c0-0.52-0.09-0.89-0.27-1.09c-0.18-0.2-0.43-0.31-0.74-0.31c-0.37,0-0.64,0.08-0.84,0.24c-0.19,0.16-0.31,0.41-0.38,0.74
		c-0.02,0.07-0.02,0.13-0.03,0.2s-0.02,0.14-0.02,0.22H48.96z"/>
	<path class="st1" d="M56.29,20.62c-0.14,0.08-0.34,0.16-0.6,0.24c-0.26,0.07-0.55,0.11-0.85,0.11c-0.73,0-1.25-0.2-1.57-0.58
		s-0.48-0.94-0.48-1.66c0-0.79,0.19-1.39,0.55-1.78c0.38-0.39,0.93-0.59,1.66-0.59c0.27,0,0.53,0.05,0.78,0.14
		c0.24,0.09,0.43,0.22,0.57,0.38l-0.44,0.43c-0.11-0.12-0.24-0.22-0.4-0.29s-0.34-0.11-0.52-0.11c-0.48,0-0.84,0.15-1.09,0.44
		s-0.38,0.76-0.38,1.4c0,0.24,0.02,0.46,0.07,0.67c0.05,0.2,0.12,0.37,0.24,0.52c0.11,0.14,0.25,0.26,0.43,0.34
		c0.18,0.08,0.39,0.12,0.64,0.12s0.48-0.03,0.67-0.08s0.38-0.12,0.55-0.2L56.29,20.62z"/>
	<path class="st1" d="M57.72,16.47l0.08,0.61c0.18-0.21,0.38-0.38,0.59-0.48c0.29-0.15,0.58-0.23,0.88-0.23
		c0.23,0,0.43,0.04,0.59,0.12l-0.2,0.61c-0.12-0.06-0.3-0.09-0.51-0.09c-0.27,0-0.52,0.08-0.76,0.24c-0.09,0.06-0.17,0.12-0.26,0.2
		c-0.08,0.07-0.16,0.16-0.24,0.25v3.18h-0.73v-3.2l-0.11-1.2H57.72z"/>
	<path class="st1" d="M60.29,14.66h0.74v0.77h-0.74V14.66z M60.3,16.47h0.73v4.4H60.3V16.47z"/>
	<path class="st1" d="M63.23,17.05v2.17c0,0.19,0.01,0.36,0.02,0.5s0.05,0.27,0.11,0.36c0.05,0.1,0.14,0.17,0.25,0.22
		c0.12,0.05,0.27,0.08,0.46,0.08c0.27,0,0.53-0.05,0.8-0.14l0.13,0.51c-0.18,0.08-0.37,0.13-0.57,0.17
		c-0.2,0.04-0.39,0.06-0.59,0.06c-0.28,0-0.51-0.04-0.68-0.11c-0.18-0.08-0.31-0.18-0.41-0.32c-0.09-0.13-0.16-0.29-0.2-0.48
		c-0.03-0.19-0.05-0.39-0.05-0.6v-2.4h-0.75v-0.52l0.75-0.08v-0.92l0.73-0.12v1.04h1.66v0.58H63.23z"/>
	<path class="st1" d="M65.73,14.66h0.74v0.77h-0.74V14.66z M65.75,16.47h0.73v4.4h-0.73V16.47z"/>
	<path class="st1" d="M70.97,20.62c-0.14,0.08-0.34,0.16-0.6,0.24c-0.26,0.07-0.54,0.11-0.84,0.11c-0.73,0-1.26-0.2-1.58-0.58
		s-0.48-0.94-0.48-1.66c0-0.79,0.18-1.39,0.55-1.78c0.37-0.39,0.92-0.59,1.66-0.59c0.27,0,0.53,0.05,0.77,0.14s0.44,0.22,0.58,0.38
		l-0.45,0.43c-0.11-0.12-0.24-0.22-0.4-0.29s-0.33-0.11-0.52-0.11c-0.48,0-0.84,0.15-1.09,0.44s-0.38,0.76-0.38,1.4
		c0,0.24,0.02,0.46,0.08,0.67c0.05,0.2,0.12,0.37,0.23,0.52c0.12,0.14,0.26,0.26,0.44,0.34c0.17,0.08,0.38,0.12,0.63,0.12
		c0.26,0,0.48-0.03,0.68-0.08s0.38-0.12,0.54-0.2L70.97,20.62z"/>
	<path class="st1" d="M75.4,20.89c-0.06,0.01-0.11,0.02-0.12,0.02h-0.15c-0.22,0-0.39-0.04-0.5-0.13s-0.2-0.21-0.27-0.37
		c-0.16,0.15-0.37,0.28-0.62,0.39c-0.26,0.11-0.55,0.17-0.9,0.17c-0.27,0-0.49-0.04-0.66-0.11c-0.18-0.07-0.32-0.17-0.43-0.29
		s-0.19-0.26-0.23-0.43c-0.04-0.16-0.06-0.34-0.06-0.53c0-0.27,0.05-0.49,0.14-0.66c0.09-0.17,0.22-0.3,0.38-0.41
		c0.17-0.1,0.37-0.18,0.59-0.21c0.23-0.04,0.48-0.06,0.75-0.06c0.18,0,0.34,0,0.48,0.02c0.13,0.01,0.28,0.02,0.46,0.03v-0.23
		c0-0.21-0.02-0.4-0.05-0.55c-0.03-0.15-0.09-0.27-0.16-0.36s-0.19-0.16-0.33-0.2c-0.13-0.04-0.31-0.06-0.52-0.06
		c-0.25,0-0.5,0.04-0.75,0.11s-0.45,0.14-0.61,0.22l-0.19-0.51c0.23-0.1,0.48-0.19,0.78-0.27c0.3-0.08,0.62-0.12,0.96-0.12
		c0.3,0,0.56,0.03,0.77,0.09c0.2,0.06,0.37,0.16,0.49,0.3c0.12,0.14,0.22,0.33,0.27,0.56c0.05,0.23,0.08,0.51,0.08,0.84v1.59
		c0,0.23,0.03,0.38,0.1,0.46c0.06,0.09,0.17,0.12,0.31,0.12V20.89z M73.26,18.84c-0.4,0-0.67,0.06-0.82,0.19
		c-0.16,0.12-0.23,0.32-0.23,0.57c0,0.29,0.06,0.5,0.19,0.62c0.13,0.13,0.35,0.19,0.66,0.19c0.21,0,0.42-0.05,0.63-0.14
		c0.21-0.09,0.4-0.2,0.56-0.33v-1.06c-0.17-0.01-0.33-0.02-0.48-0.03C73.61,18.84,73.45,18.84,73.26,18.84z"/>
	<path class="st1" d="M77.34,20.9c-0.01,0.01-0.04,0.01-0.09,0.01c-0.02,0-0.07,0.01-0.17,0.01c-0.35,0-0.59-0.1-0.71-0.29
		c-0.13-0.2-0.2-0.48-0.2-0.87v-5.43l0.72-0.11v5.52c0,0.27,0.03,0.43,0.1,0.5c0.06,0.07,0.18,0.11,0.34,0.11V20.9z"/>
	<path class="st1" d="M81.11,16.47l0.03,0.38c0.08-0.05,0.16-0.11,0.25-0.16c0.09-0.05,0.18-0.09,0.29-0.14
		c0.28-0.12,0.58-0.18,0.89-0.18c0.29,0,0.52,0.04,0.7,0.11c0.17,0.07,0.31,0.18,0.41,0.32l0.06,0.08c0.17-0.14,0.38-0.25,0.59-0.33
		c0.3-0.12,0.62-0.18,0.94-0.18c0.28,0,0.51,0.04,0.69,0.11s0.31,0.18,0.41,0.32c0.11,0.14,0.17,0.32,0.21,0.52
		c0.03,0.21,0.05,0.45,0.05,0.71v2.83h-0.73V18.2c0-0.19-0.01-0.36-0.02-0.51c-0.02-0.16-0.06-0.29-0.12-0.39s-0.14-0.19-0.24-0.25
		c-0.11-0.06-0.25-0.09-0.43-0.09c-0.16,0-0.31,0.02-0.47,0.07c-0.15,0.04-0.29,0.11-0.42,0.18c-0.05,0.02-0.1,0.05-0.16,0.09
		c-0.05,0.03-0.1,0.07-0.16,0.11c0.02,0.09,0.02,0.2,0.03,0.3s0.01,0.22,0.01,0.33v2.83H83.2V18.2c0-0.19-0.01-0.36-0.02-0.51
		c-0.02-0.16-0.05-0.29-0.11-0.39c-0.06-0.11-0.14-0.19-0.25-0.25c-0.1-0.06-0.24-0.09-0.42-0.09c-0.31,0-0.62,0.08-0.9,0.25
		c-0.04,0.02-0.09,0.05-0.13,0.08c-0.04,0.03-0.09,0.06-0.13,0.09v3.48h-0.73v-3.23l-0.08-1.17H81.11z"/>
	<path class="st1" d="M91.47,20.89c-0.06,0.01-0.11,0.02-0.12,0.02H91.2c-0.22,0-0.39-0.04-0.5-0.13s-0.2-0.21-0.27-0.37
		c-0.16,0.15-0.37,0.28-0.62,0.39c-0.26,0.11-0.55,0.17-0.9,0.17c-0.27,0-0.49-0.04-0.66-0.11c-0.18-0.07-0.32-0.17-0.43-0.29
		s-0.19-0.26-0.23-0.43c-0.04-0.16-0.06-0.34-0.06-0.53c0-0.27,0.05-0.49,0.14-0.66c0.09-0.17,0.22-0.3,0.38-0.41
		c0.17-0.1,0.37-0.18,0.59-0.21c0.23-0.04,0.48-0.06,0.75-0.06c0.18,0,0.34,0,0.48,0.02c0.13,0.01,0.28,0.02,0.46,0.03v-0.23
		c0-0.21-0.02-0.4-0.05-0.55c-0.03-0.15-0.09-0.27-0.16-0.36s-0.19-0.16-0.33-0.2c-0.13-0.04-0.31-0.06-0.52-0.06
		c-0.25,0-0.5,0.04-0.75,0.11s-0.45,0.14-0.61,0.22l-0.19-0.51c0.23-0.1,0.48-0.19,0.78-0.27c0.3-0.08,0.62-0.12,0.96-0.12
		c0.3,0,0.56,0.03,0.77,0.09c0.2,0.06,0.37,0.16,0.49,0.3c0.12,0.14,0.22,0.33,0.27,0.56c0.05,0.23,0.08,0.51,0.08,0.84v1.59
		c0,0.23,0.03,0.38,0.1,0.46c0.06,0.09,0.17,0.12,0.31,0.12V20.89z M89.33,18.84c-0.4,0-0.67,0.06-0.82,0.19
		c-0.16,0.12-0.23,0.32-0.23,0.57c0,0.29,0.06,0.5,0.19,0.62c0.13,0.13,0.35,0.19,0.66,0.19c0.21,0,0.42-0.05,0.63-0.14
		c0.21-0.09,0.4-0.2,0.56-0.33v-1.06c-0.17-0.01-0.33-0.02-0.48-0.03C89.68,18.84,89.52,18.84,89.33,18.84z"/>
	<path class="st1" d="M92.85,16.47l0.02,0.39c0.19-0.12,0.38-0.23,0.59-0.32c0.32-0.12,0.64-0.18,0.96-0.18
		c0.3,0,0.54,0.04,0.72,0.11c0.19,0.07,0.34,0.18,0.45,0.32s0.19,0.32,0.23,0.52s0.06,0.45,0.06,0.71v2.83h-0.73V18.2
		c0-0.19-0.01-0.36-0.02-0.51c-0.02-0.16-0.06-0.29-0.12-0.39s-0.16-0.19-0.27-0.25s-0.28-0.09-0.48-0.09
		c-0.16,0-0.33,0.02-0.48,0.07s-0.31,0.11-0.45,0.18c-0.12,0.05-0.23,0.12-0.34,0.2v3.46h-0.73v-3.23l-0.08-1.17H92.85z"/>
	<path class="st1" d="M100.71,20.89c-0.06,0.01-0.11,0.02-0.12,0.02h-0.15c-0.22,0-0.39-0.04-0.5-0.13s-0.2-0.21-0.27-0.37
		c-0.16,0.15-0.37,0.28-0.62,0.39c-0.26,0.11-0.55,0.17-0.9,0.17c-0.27,0-0.49-0.04-0.66-0.11c-0.18-0.07-0.32-0.17-0.43-0.29
		s-0.19-0.26-0.23-0.43c-0.04-0.16-0.06-0.34-0.06-0.53c0-0.27,0.05-0.49,0.14-0.66c0.09-0.17,0.22-0.3,0.38-0.41
		c0.17-0.1,0.37-0.18,0.59-0.21c0.23-0.04,0.48-0.06,0.75-0.06c0.18,0,0.34,0,0.48,0.02c0.13,0.01,0.28,0.02,0.46,0.03v-0.23
		c0-0.21-0.02-0.4-0.05-0.55c-0.03-0.15-0.09-0.27-0.16-0.36s-0.19-0.16-0.33-0.2c-0.13-0.04-0.31-0.06-0.52-0.06
		c-0.25,0-0.5,0.04-0.75,0.11s-0.45,0.14-0.61,0.22l-0.19-0.51c0.23-0.1,0.48-0.19,0.78-0.27c0.3-0.08,0.62-0.12,0.96-0.12
		c0.3,0,0.56,0.03,0.77,0.09c0.2,0.06,0.37,0.16,0.49,0.3c0.12,0.14,0.22,0.33,0.27,0.56c0.05,0.23,0.08,0.51,0.08,0.84v1.59
		c0,0.23,0.03,0.38,0.1,0.46c0.06,0.09,0.17,0.12,0.31,0.12V20.89z M98.57,18.84c-0.4,0-0.67,0.06-0.82,0.19
		c-0.16,0.12-0.23,0.32-0.23,0.57c0,0.29,0.06,0.5,0.19,0.62c0.13,0.13,0.35,0.19,0.66,0.19c0.21,0,0.42-0.05,0.63-0.14
		c0.21-0.09,0.4-0.2,0.56-0.33v-1.06c-0.17-0.01-0.33-0.02-0.48-0.03C98.92,18.84,98.76,18.84,98.57,18.84z"/>
	<path class="st1" d="M105.05,16.47v4.61c0,0.36-0.05,0.66-0.14,0.91s-0.23,0.45-0.41,0.6c-0.18,0.15-0.39,0.27-0.64,0.34
		s-0.52,0.11-0.83,0.11c-0.29,0-0.55-0.02-0.77-0.06c-0.23-0.04-0.44-0.09-0.61-0.15l0.2-0.56c0.14,0.05,0.31,0.09,0.51,0.13
		c0.2,0.04,0.42,0.06,0.67,0.06c0.18,0,0.35-0.02,0.51-0.06c0.16-0.04,0.3-0.11,0.42-0.21c0.12-0.1,0.21-0.23,0.27-0.4
		c0.07-0.16,0.1-0.37,0.1-0.62v-0.53c-0.19,0.1-0.38,0.18-0.57,0.25c-0.2,0.07-0.41,0.1-0.66,0.1c-0.66,0-1.12-0.19-1.41-0.57
		c-0.3-0.39-0.44-0.94-0.44-1.65c0-0.35,0.03-0.66,0.11-0.96c0.07-0.29,0.2-0.54,0.36-0.75c0.17-0.21,0.39-0.38,0.66-0.49
		c0.27-0.12,0.59-0.18,0.98-0.18c0.23,0,0.43,0.03,0.6,0.08s0.33,0.11,0.48,0.18l0.05-0.16H105.05z M104.34,17.16
		c-0.12-0.05-0.27-0.11-0.41-0.16c-0.15-0.05-0.3-0.08-0.48-0.08c-0.5,0-0.87,0.14-1.1,0.43c-0.23,0.29-0.34,0.75-0.34,1.39
		c0,0.21,0.02,0.41,0.05,0.61s0.1,0.38,0.2,0.54c0.09,0.16,0.23,0.28,0.39,0.37c0.16,0.09,0.38,0.14,0.64,0.14
		c0.2,0,0.38-0.03,0.55-0.09c0.16-0.06,0.33-0.15,0.49-0.25V17.16z"/>
	<path class="st1" d="M108.07,20.98c-0.38,0-0.7-0.05-0.96-0.14c-0.26-0.09-0.47-0.24-0.62-0.43c-0.16-0.2-0.27-0.43-0.34-0.73
		s-0.1-0.64-0.1-1.03c0-0.77,0.16-1.35,0.5-1.72c0.33-0.37,0.84-0.56,1.52-0.56c0.36,0,0.66,0.05,0.89,0.16s0.41,0.26,0.54,0.45
		c0.13,0.19,0.23,0.42,0.27,0.68s0.07,0.55,0.07,0.85v0.35h-3.04c0,0.25,0.02,0.46,0.05,0.63c0.09,0.35,0.24,0.59,0.45,0.71
		c0.22,0.13,0.51,0.2,0.88,0.2c0.31,0,0.59-0.04,0.82-0.12c0.24-0.08,0.43-0.16,0.57-0.23l0.19,0.5c-0.07,0.05-0.16,0.11-0.29,0.16
		s-0.27,0.1-0.41,0.14c-0.16,0.04-0.32,0.08-0.49,0.1C108.4,20.97,108.23,20.98,108.07,20.98z M109.07,18.32
		c0-0.52-0.09-0.89-0.27-1.09c-0.18-0.2-0.43-0.31-0.74-0.31c-0.37,0-0.64,0.08-0.84,0.24c-0.19,0.16-0.31,0.41-0.38,0.74
		c-0.02,0.07-0.02,0.13-0.03,0.2s-0.02,0.14-0.02,0.22H109.07z"/>
	<path class="st1" d="M111.41,16.47l0.02,0.38c0.08-0.05,0.16-0.11,0.25-0.16c0.09-0.05,0.19-0.09,0.29-0.14
		c0.28-0.12,0.58-0.18,0.89-0.18c0.29,0,0.52,0.04,0.7,0.11c0.18,0.07,0.31,0.18,0.41,0.32l0.05,0.08c0.18-0.14,0.38-0.25,0.59-0.33
		c0.31-0.12,0.62-0.18,0.95-0.18c0.28,0,0.51,0.04,0.69,0.11c0.17,0.07,0.31,0.18,0.41,0.32s0.17,0.32,0.2,0.52
		c0.04,0.21,0.05,0.45,0.05,0.71v2.83h-0.72V18.2c0-0.19-0.01-0.36-0.03-0.51c-0.02-0.16-0.05-0.29-0.11-0.39
		c-0.06-0.11-0.14-0.19-0.25-0.25c-0.1-0.06-0.25-0.09-0.42-0.09c-0.16,0-0.32,0.02-0.47,0.07s-0.3,0.11-0.43,0.18
		c-0.05,0.02-0.1,0.05-0.15,0.09c-0.05,0.03-0.11,0.07-0.16,0.11c0.02,0.09,0.02,0.2,0.03,0.3c0,0.11,0.01,0.22,0.01,0.33v2.83
		h-0.73V18.2c0-0.19-0.01-0.36-0.02-0.51c-0.02-0.16-0.05-0.29-0.11-0.39c-0.05-0.11-0.14-0.19-0.24-0.25
		c-0.11-0.06-0.25-0.09-0.43-0.09c-0.31,0-0.61,0.08-0.89,0.25c-0.05,0.02-0.09,0.05-0.13,0.08c-0.05,0.03-0.09,0.06-0.13,0.09v3.48
		h-0.73v-3.23l-0.08-1.17H111.41z"/>
	<path class="st1" d="M119.89,20.98c-0.38,0-0.71-0.05-0.97-0.14c-0.26-0.09-0.47-0.24-0.62-0.43c-0.16-0.2-0.27-0.43-0.34-0.73
		s-0.11-0.64-0.11-1.03c0-0.77,0.16-1.35,0.5-1.72s0.84-0.56,1.52-0.56c0.37,0,0.66,0.05,0.89,0.16c0.23,0.11,0.41,0.26,0.55,0.45
		c0.13,0.19,0.22,0.42,0.27,0.68s0.08,0.55,0.08,0.85v0.35h-3.05c0,0.25,0.02,0.46,0.05,0.63c0.09,0.35,0.24,0.59,0.46,0.71
		c0.21,0.13,0.51,0.2,0.88,0.2c0.31,0,0.59-0.04,0.83-0.12c0.23-0.08,0.42-0.16,0.56-0.23l0.2,0.5c-0.07,0.05-0.17,0.11-0.3,0.16
		s-0.26,0.1-0.41,0.14c-0.16,0.04-0.31,0.08-0.48,0.1C120.21,20.97,120.05,20.98,119.89,20.98z M120.88,18.32
		c0-0.52-0.09-0.89-0.27-1.09c-0.18-0.2-0.43-0.31-0.74-0.31c-0.36,0-0.64,0.08-0.83,0.24s-0.32,0.41-0.39,0.74
		c-0.01,0.07-0.02,0.13-0.03,0.2c0,0.07-0.01,0.14-0.02,0.22H120.88z"/>
	<path class="st1" d="M123.22,16.47l0.03,0.39c0.19-0.12,0.38-0.23,0.59-0.32c0.32-0.12,0.64-0.18,0.96-0.18
		c0.3,0,0.53,0.04,0.72,0.11s0.34,0.18,0.45,0.32c0.1,0.14,0.18,0.32,0.22,0.52c0.05,0.21,0.06,0.45,0.06,0.71v2.83h-0.73V18.2
		c0-0.19-0.01-0.36-0.03-0.51c-0.02-0.16-0.05-0.29-0.12-0.39c-0.06-0.11-0.16-0.19-0.27-0.25s-0.27-0.09-0.48-0.09
		c-0.16,0-0.33,0.02-0.48,0.07s-0.3,0.11-0.45,0.18c-0.12,0.05-0.23,0.12-0.34,0.2v3.46h-0.73v-3.23l-0.08-1.17H123.22z"/>
	<path class="st1" d="M128.38,17.05v2.17c0,0.19,0.01,0.36,0.02,0.5s0.05,0.27,0.11,0.36c0.06,0.1,0.14,0.17,0.26,0.22
		c0.11,0.05,0.27,0.08,0.45,0.08c0.27,0,0.54-0.05,0.8-0.14l0.13,0.51c-0.18,0.08-0.37,0.13-0.56,0.17c-0.2,0.04-0.4,0.06-0.59,0.06
		c-0.28,0-0.51-0.04-0.69-0.11c-0.18-0.08-0.31-0.18-0.41-0.32c-0.09-0.13-0.16-0.29-0.2-0.48c-0.04-0.19-0.05-0.39-0.05-0.6v-2.4
		h-0.75v-0.52l0.75-0.08v-0.92l0.72-0.12v1.04h1.66v0.58H128.38z"/>
	<path class="st1" d="M134.2,17.05v2.17c0,0.19,0.01,0.36,0.02,0.5s0.05,0.27,0.11,0.36c0.06,0.1,0.14,0.17,0.26,0.22
		c0.11,0.05,0.27,0.08,0.45,0.08c0.27,0,0.54-0.05,0.8-0.14l0.13,0.51c-0.18,0.08-0.37,0.13-0.56,0.17c-0.2,0.04-0.4,0.06-0.59,0.06
		c-0.28,0-0.51-0.04-0.69-0.11c-0.18-0.08-0.31-0.18-0.41-0.32c-0.09-0.13-0.16-0.29-0.2-0.48c-0.04-0.19-0.05-0.39-0.05-0.6v-2.4
		h-0.75v-0.52l0.75-0.08v-0.92l0.72-0.12v1.04h1.66v0.58H134.2z"/>
	<path class="st1" d="M138.39,20.98c-0.38,0-0.69-0.05-0.94-0.16c-0.25-0.11-0.45-0.26-0.6-0.46c-0.15-0.2-0.26-0.45-0.32-0.73
		c-0.05-0.29-0.09-0.61-0.09-0.98c0-0.77,0.16-1.35,0.51-1.72c0.34-0.38,0.88-0.56,1.64-0.56c0.37,0,0.68,0.05,0.94,0.16
		c0.25,0.11,0.45,0.26,0.6,0.46s0.26,0.45,0.32,0.73s0.1,0.61,0.1,0.98c0,0.77-0.18,1.34-0.53,1.71
		C139.67,20.79,139.12,20.98,138.39,20.98z M138.39,20.41c0.54,0,0.91-0.15,1.11-0.45s0.3-0.75,0.3-1.35c0-0.23-0.02-0.45-0.05-0.65
		c-0.04-0.2-0.1-0.38-0.19-0.54c-0.09-0.16-0.21-0.28-0.37-0.37s-0.36-0.14-0.6-0.14c-0.54,0-0.91,0.16-1.11,0.47
		c-0.2,0.31-0.3,0.76-0.3,1.35c0,0.24,0.02,0.46,0.05,0.66c0.04,0.2,0.1,0.38,0.19,0.53c0.09,0.15,0.21,0.27,0.37,0.36
		S138.15,20.41,138.39,20.41z"/>
	<path class="st1" d="M143.25,20.98c-0.38,0-0.69-0.05-0.94-0.16c-0.25-0.11-0.45-0.26-0.6-0.46c-0.15-0.2-0.26-0.45-0.32-0.73
		c-0.05-0.29-0.09-0.61-0.09-0.98c0-0.77,0.16-1.35,0.51-1.72c0.34-0.38,0.88-0.56,1.64-0.56c0.37,0,0.68,0.05,0.94,0.16
		c0.25,0.11,0.45,0.26,0.6,0.46s0.26,0.45,0.32,0.73s0.1,0.61,0.1,0.98c0,0.77-0.18,1.34-0.53,1.71
		C144.53,20.79,143.98,20.98,143.25,20.98z M143.25,20.41c0.54,0,0.91-0.15,1.11-0.45s0.3-0.75,0.3-1.35c0-0.23-0.02-0.45-0.05-0.65
		c-0.04-0.2-0.1-0.38-0.19-0.54c-0.09-0.16-0.21-0.28-0.37-0.37s-0.36-0.14-0.6-0.14c-0.54,0-0.91,0.16-1.11,0.47
		c-0.2,0.31-0.3,0.76-0.3,1.35c0,0.24,0.02,0.46,0.05,0.66c0.04,0.2,0.1,0.38,0.19,0.53c0.09,0.15,0.21,0.27,0.37,0.36
		S143.01,20.41,143.25,20.41z"/>
	<path class="st1" d="M147.55,20.9c-0.01,0.01-0.04,0.01-0.09,0.01c-0.02,0-0.07,0.01-0.17,0.01c-0.35,0-0.59-0.1-0.71-0.29
		c-0.13-0.2-0.2-0.48-0.2-0.87v-5.43l0.72-0.11v5.52c0,0.27,0.03,0.43,0.1,0.5c0.06,0.07,0.18,0.11,0.34,0.11V20.9z"/>
	<path class="st1" d="M149.4,18.13c0.15,0.08,0.34,0.15,0.57,0.23s0.46,0.16,0.68,0.25c0.25,0.1,0.45,0.23,0.62,0.39
		c0.16,0.16,0.24,0.4,0.24,0.71c0,0.44-0.16,0.76-0.48,0.96c-0.31,0.2-0.77,0.3-1.38,0.3c-0.29,0-0.57-0.03-0.84-0.08
		c-0.27-0.05-0.51-0.13-0.7-0.23l0.23-0.55c0.16,0.09,0.34,0.15,0.57,0.2s0.48,0.08,0.74,0.08c0.14,0,0.28-0.01,0.42-0.03
		c0.13-0.02,0.26-0.04,0.36-0.09c0.1-0.04,0.19-0.11,0.25-0.19s0.09-0.2,0.09-0.34c0-0.28-0.18-0.48-0.54-0.61
		c-0.2-0.09-0.42-0.17-0.65-0.25c-0.23-0.07-0.44-0.15-0.62-0.23c-0.23-0.09-0.42-0.21-0.57-0.37c-0.14-0.15-0.22-0.38-0.22-0.67
		c0-0.23,0.05-0.43,0.16-0.6c0.11-0.16,0.25-0.29,0.41-0.39c0.17-0.09,0.36-0.16,0.57-0.21c0.21-0.04,0.42-0.06,0.63-0.06
		c0.34,0,0.62,0.03,0.87,0.08s0.45,0.11,0.6,0.18l-0.23,0.55c-0.17-0.07-0.36-0.13-0.57-0.18c-0.2-0.05-0.43-0.07-0.69-0.07
		c-0.38,0-0.66,0.06-0.81,0.18s-0.23,0.26-0.23,0.42c0,0.14,0.04,0.26,0.12,0.35C149.09,17.97,149.22,18.05,149.4,18.13z"/>
	<path class="st1" d="M155.73,17.05v2.17c0,0.19,0.01,0.36,0.02,0.5s0.05,0.27,0.11,0.36c0.06,0.1,0.14,0.17,0.26,0.22
		c0.11,0.05,0.27,0.08,0.45,0.08c0.27,0,0.54-0.05,0.8-0.14l0.13,0.51c-0.18,0.08-0.37,0.13-0.56,0.17c-0.2,0.04-0.4,0.06-0.59,0.06
		c-0.28,0-0.51-0.04-0.69-0.11c-0.18-0.08-0.31-0.18-0.41-0.32c-0.09-0.13-0.16-0.29-0.2-0.48c-0.04-0.19-0.05-0.39-0.05-0.6v-2.4
		h-0.75v-0.52l0.75-0.08v-0.92l0.72-0.12v1.04h1.66v0.58H155.73z"/>
	<path class="st1" d="M159.92,20.98c-0.38,0-0.69-0.05-0.94-0.16c-0.25-0.11-0.45-0.26-0.6-0.46c-0.15-0.2-0.26-0.45-0.32-0.73
		c-0.05-0.29-0.09-0.61-0.09-0.98c0-0.77,0.16-1.35,0.51-1.72c0.34-0.38,0.88-0.56,1.64-0.56c0.37,0,0.68,0.05,0.94,0.16
		c0.25,0.11,0.45,0.26,0.6,0.46s0.26,0.45,0.32,0.73s0.1,0.61,0.1,0.98c0,0.77-0.18,1.34-0.53,1.71
		C161.2,20.79,160.66,20.98,159.92,20.98z M159.92,20.41c0.54,0,0.91-0.15,1.11-0.45s0.3-0.75,0.3-1.35c0-0.23-0.02-0.45-0.05-0.65
		c-0.04-0.2-0.1-0.38-0.19-0.54c-0.09-0.16-0.21-0.28-0.37-0.37s-0.36-0.14-0.6-0.14c-0.54,0-0.91,0.16-1.11,0.47
		c-0.2,0.31-0.3,0.76-0.3,1.35c0,0.24,0.02,0.46,0.05,0.66c0.04,0.2,0.1,0.38,0.19,0.53c0.09,0.15,0.21,0.27,0.37,0.36
		S159.68,20.41,159.92,20.41z"/>
	<path class="st1" d="M22.09,26.07l0.08,0.61c0.18-0.21,0.38-0.38,0.59-0.48c0.29-0.15,0.58-0.23,0.88-0.23
		c0.23,0,0.43,0.04,0.59,0.12l-0.2,0.61c-0.12-0.06-0.3-0.09-0.51-0.09c-0.27,0-0.52,0.08-0.76,0.24c-0.09,0.06-0.17,0.12-0.26,0.2
		c-0.08,0.07-0.16,0.16-0.24,0.25v3.18h-0.73v-3.2l-0.11-1.2H22.09z"/>
	<path class="st1" d="M26.36,30.58c-0.38,0-0.71-0.05-0.97-0.14c-0.26-0.09-0.47-0.24-0.62-0.43c-0.16-0.2-0.27-0.43-0.34-0.73
		s-0.11-0.64-0.11-1.03c0-0.77,0.16-1.35,0.5-1.72s0.84-0.56,1.52-0.56c0.37,0,0.66,0.05,0.89,0.16c0.23,0.11,0.41,0.26,0.55,0.45
		c0.13,0.19,0.22,0.42,0.27,0.68s0.08,0.55,0.08,0.85v0.35h-3.05c0,0.25,0.02,0.46,0.05,0.63c0.09,0.35,0.24,0.59,0.46,0.71
		c0.21,0.13,0.51,0.2,0.88,0.2c0.31,0,0.59-0.04,0.83-0.12c0.23-0.08,0.42-0.16,0.56-0.23l0.2,0.5c-0.07,0.05-0.17,0.11-0.3,0.16
		s-0.26,0.1-0.41,0.14c-0.16,0.04-0.31,0.08-0.48,0.1C26.68,30.57,26.52,30.58,26.36,30.58z M27.35,27.92
		c0-0.52-0.09-0.89-0.27-1.09c-0.18-0.2-0.43-0.31-0.74-0.31c-0.36,0-0.64,0.08-0.83,0.24s-0.32,0.41-0.39,0.74
		c-0.01,0.07-0.02,0.13-0.03,0.2c0,0.07-0.01,0.14-0.02,0.22H27.35z"/>
	<path class="st1" d="M29.69,26.07l0.03,0.38c0.08-0.05,0.16-0.11,0.25-0.16c0.09-0.05,0.18-0.09,0.29-0.14
		c0.28-0.12,0.58-0.18,0.89-0.18c0.29,0,0.52,0.04,0.7,0.11c0.17,0.07,0.31,0.18,0.41,0.32l0.06,0.08c0.17-0.14,0.38-0.25,0.59-0.33
		c0.3-0.12,0.62-0.18,0.94-0.18c0.28,0,0.51,0.04,0.69,0.11s0.31,0.18,0.41,0.32c0.11,0.14,0.17,0.32,0.21,0.52
		c0.03,0.21,0.05,0.45,0.05,0.71v2.83h-0.73v-2.67c0-0.19-0.01-0.36-0.02-0.51c-0.02-0.16-0.06-0.29-0.12-0.39s-0.14-0.19-0.24-0.25
		c-0.11-0.06-0.25-0.09-0.43-0.09c-0.16,0-0.31,0.02-0.47,0.07c-0.15,0.04-0.29,0.11-0.42,0.18c-0.05,0.02-0.1,0.05-0.16,0.09
		c-0.05,0.03-0.1,0.07-0.16,0.11c0.02,0.09,0.02,0.2,0.03,0.3s0.01,0.22,0.01,0.33v2.83h-0.73v-2.67c0-0.19-0.01-0.36-0.02-0.51
		c-0.02-0.16-0.05-0.29-0.11-0.39c-0.06-0.11-0.14-0.19-0.25-0.25c-0.1-0.06-0.24-0.09-0.42-0.09c-0.31,0-0.62,0.08-0.9,0.25
		c-0.04,0.02-0.09,0.05-0.13,0.08c-0.04,0.03-0.09,0.06-0.13,0.09v3.48h-0.73v-3.23l-0.08-1.17H29.69z"/>
	<path class="st1" d="M38.09,30.58c-0.38,0-0.69-0.05-0.94-0.16c-0.25-0.11-0.45-0.26-0.6-0.46c-0.15-0.2-0.26-0.45-0.32-0.73
		c-0.05-0.29-0.09-0.61-0.09-0.98c0-0.77,0.16-1.35,0.51-1.72c0.34-0.38,0.88-0.56,1.64-0.56c0.37,0,0.68,0.05,0.94,0.16
		c0.25,0.11,0.45,0.26,0.6,0.46s0.26,0.45,0.32,0.73s0.1,0.61,0.1,0.98c0,0.77-0.18,1.34-0.53,1.71
		C39.37,30.4,38.82,30.58,38.09,30.58z M38.09,30.01c0.54,0,0.91-0.15,1.11-0.45s0.3-0.75,0.3-1.35c0-0.23-0.02-0.45-0.05-0.65
		c-0.04-0.2-0.1-0.38-0.19-0.54c-0.09-0.16-0.21-0.28-0.37-0.37s-0.36-0.14-0.6-0.14c-0.54,0-0.91,0.16-1.11,0.47
		c-0.2,0.31-0.3,0.76-0.3,1.35c0,0.24,0.02,0.46,0.05,0.66c0.04,0.2,0.1,0.38,0.19,0.53c0.09,0.15,0.21,0.27,0.37,0.36
		S37.84,30.01,38.09,30.01z"/>
	<path class="st1" d="M42.1,26.65v2.17c0,0.19,0.01,0.36,0.02,0.5s0.05,0.27,0.11,0.36c0.06,0.1,0.14,0.17,0.26,0.22
		c0.11,0.05,0.27,0.08,0.45,0.08c0.27,0,0.54-0.05,0.8-0.14l0.13,0.51c-0.18,0.08-0.37,0.13-0.56,0.17c-0.2,0.04-0.4,0.06-0.59,0.06
		c-0.28,0-0.51-0.04-0.69-0.11c-0.18-0.08-0.31-0.18-0.41-0.32c-0.09-0.13-0.16-0.29-0.2-0.48c-0.04-0.19-0.05-0.39-0.05-0.6v-2.4
		h-0.75v-0.52l0.75-0.08v-0.92l0.72-0.12v1.04h1.66v0.58H42.1z"/>
	<path class="st1" d="M46.37,30.58c-0.38,0-0.7-0.05-0.96-0.14c-0.26-0.09-0.47-0.24-0.62-0.43c-0.16-0.2-0.27-0.43-0.34-0.73
		s-0.1-0.64-0.1-1.03c0-0.77,0.16-1.35,0.5-1.72c0.33-0.37,0.84-0.56,1.52-0.56c0.36,0,0.66,0.05,0.89,0.16s0.41,0.26,0.54,0.45
		c0.13,0.19,0.23,0.42,0.27,0.68s0.07,0.55,0.07,0.85v0.35h-3.04c0,0.25,0.02,0.46,0.05,0.63c0.09,0.35,0.24,0.59,0.45,0.71
		c0.22,0.13,0.51,0.2,0.88,0.2c0.31,0,0.59-0.04,0.82-0.12c0.24-0.08,0.43-0.16,0.57-0.23l0.19,0.5c-0.07,0.05-0.16,0.11-0.29,0.16
		s-0.27,0.1-0.41,0.14c-0.16,0.04-0.32,0.08-0.49,0.1C46.7,30.57,46.54,30.58,46.37,30.58z M47.37,27.92c0-0.52-0.09-0.89-0.27-1.09
		c-0.18-0.2-0.43-0.31-0.74-0.31c-0.37,0-0.64,0.08-0.84,0.24c-0.19,0.16-0.31,0.41-0.38,0.74c-0.02,0.07-0.02,0.13-0.03,0.2
		s-0.02,0.14-0.02,0.22H47.37z"/>
	<path class="st1" d="M50.27,30.5c-0.01,0.01-0.04,0.01-0.09,0.01c-0.02,0-0.07,0.01-0.17,0.01c-0.35,0-0.59-0.1-0.71-0.29
		c-0.13-0.2-0.2-0.48-0.2-0.87v-5.43l0.72-0.11v5.52c0,0.27,0.03,0.43,0.1,0.5c0.06,0.07,0.18,0.11,0.34,0.11V30.5z"/>
	<path class="st1" d="M50.56,26.07h0.8l1.27,3.5h0.09l1.17-3.5h0.74l-1.68,4.68c-0.1,0.27-0.2,0.52-0.3,0.75
		c-0.1,0.23-0.22,0.43-0.36,0.6c-0.13,0.17-0.3,0.3-0.52,0.39c-0.2,0.09-0.46,0.14-0.77,0.14c-0.08,0-0.16,0-0.23-0.01
		c-0.07-0.01-0.13-0.02-0.19-0.04l0.09-0.56l0.16,0.03c0.02,0,0.07,0.01,0.16,0.01c0.23,0,0.41-0.04,0.55-0.13
		c0.12-0.08,0.23-0.18,0.3-0.3c0.04-0.05,0.08-0.12,0.12-0.21c0.05-0.09,0.09-0.19,0.12-0.29c0.05-0.1,0.09-0.21,0.12-0.31
		s0.07-0.21,0.1-0.3L50.56,26.07z"/>
	<path class="st1" d="M61.3,30.49c-0.06,0.01-0.1,0.02-0.12,0.02h-0.14c-0.23,0-0.39-0.04-0.51-0.13c-0.11-0.09-0.2-0.21-0.26-0.37
		c-0.16,0.15-0.37,0.28-0.62,0.39c-0.25,0.11-0.55,0.17-0.9,0.17c-0.27,0-0.48-0.04-0.66-0.11s-0.32-0.17-0.43-0.29
		s-0.18-0.26-0.23-0.43s-0.07-0.34-0.07-0.53c0-0.27,0.05-0.49,0.14-0.66c0.09-0.17,0.23-0.3,0.39-0.41s0.36-0.18,0.59-0.21
		c0.23-0.04,0.48-0.06,0.76-0.06c0.18,0,0.34,0,0.47,0.02c0.13,0.01,0.29,0.02,0.46,0.03v-0.23c0-0.21-0.02-0.4-0.05-0.55
		s-0.09-0.27-0.17-0.36c-0.08-0.09-0.19-0.16-0.32-0.2c-0.14-0.04-0.31-0.06-0.52-0.06c-0.25,0-0.5,0.04-0.75,0.11
		s-0.45,0.14-0.62,0.22l-0.18-0.51c0.22-0.1,0.48-0.19,0.77-0.27c0.3-0.08,0.62-0.12,0.96-0.12c0.31,0,0.56,0.03,0.77,0.09
		c0.2,0.06,0.37,0.16,0.49,0.3c0.12,0.14,0.21,0.33,0.27,0.56c0.05,0.23,0.07,0.51,0.07,0.84v1.59c0,0.23,0.04,0.38,0.1,0.46
		c0.07,0.09,0.17,0.12,0.31,0.12V30.49z M59.16,28.44c-0.4,0-0.67,0.06-0.82,0.19s-0.23,0.32-0.23,0.57c0,0.29,0.07,0.5,0.2,0.62
		s0.35,0.19,0.66,0.19c0.21,0,0.42-0.05,0.63-0.14c0.21-0.09,0.4-0.2,0.55-0.33v-1.06c-0.16-0.01-0.33-0.02-0.48-0.03
		C59.52,28.44,59.35,28.44,59.16,28.44z"/>
	<path class="st1" d="M63.65,30.58c-0.62,0-1.08-0.2-1.37-0.58s-0.44-0.94-0.44-1.66c0-0.34,0.04-0.66,0.12-0.95
		c0.08-0.29,0.2-0.54,0.37-0.75s0.39-0.37,0.66-0.49s0.59-0.18,0.96-0.18c0.22,0,0.42,0.03,0.62,0.08c0.12,0.03,0.24,0.08,0.36,0.14
		v-2.26l0.73-0.11v5.52l0.07,1.12h-0.63L65,30.16c-0.17,0.13-0.36,0.23-0.55,0.29C64.22,30.54,63.95,30.58,63.65,30.58z
		 M64.02,26.53c-0.46,0-0.81,0.14-1.06,0.42c-0.24,0.28-0.36,0.75-0.36,1.39c0,0.23,0.02,0.44,0.05,0.64
		c0.04,0.2,0.11,0.37,0.2,0.53c0.09,0.15,0.23,0.27,0.39,0.36S63.61,30,63.86,30c0.27,0,0.49-0.05,0.69-0.16
		c0.07-0.03,0.13-0.07,0.19-0.11c0.06-0.04,0.12-0.09,0.19-0.14v-2.79C64.64,26.62,64.34,26.53,64.02,26.53z"/>
	<path class="st1" d="M68.44,30.58c-0.62,0-1.08-0.2-1.37-0.58s-0.44-0.94-0.44-1.66c0-0.34,0.04-0.66,0.12-0.95
		c0.08-0.29,0.2-0.54,0.37-0.75s0.39-0.37,0.66-0.49s0.59-0.18,0.96-0.18c0.22,0,0.42,0.03,0.62,0.08c0.12,0.03,0.24,0.08,0.36,0.14
		v-2.26l0.73-0.11v5.52l0.07,1.12h-0.63l-0.09-0.31c-0.17,0.13-0.36,0.23-0.55,0.29C69.01,30.54,68.74,30.58,68.44,30.58z
		 M68.8,26.53c-0.46,0-0.81,0.14-1.06,0.42c-0.24,0.28-0.36,0.75-0.36,1.39c0,0.23,0.02,0.44,0.05,0.64c0.04,0.2,0.11,0.37,0.2,0.53
		c0.09,0.15,0.23,0.27,0.39,0.36S68.4,30,68.65,30c0.27,0,0.49-0.05,0.69-0.16c0.07-0.03,0.13-0.07,0.19-0.11
		c0.06-0.04,0.12-0.09,0.19-0.14v-2.79C69.43,26.62,69.12,26.53,68.8,26.53z"/>
	<path class="st1" d="M72.23,26.07l0.08,0.61c0.18-0.21,0.38-0.38,0.59-0.48c0.29-0.15,0.59-0.23,0.88-0.23
		c0.24,0,0.44,0.04,0.59,0.12l-0.2,0.61c-0.13-0.06-0.3-0.09-0.52-0.09c-0.27,0-0.52,0.08-0.76,0.24c-0.09,0.06-0.17,0.12-0.25,0.2
		c-0.08,0.07-0.16,0.16-0.24,0.25v3.18h-0.73v-3.2l-0.1-1.2H72.23z"/>
	<path class="st1" d="M76.5,30.58c-0.38,0-0.7-0.05-0.96-0.14c-0.26-0.09-0.47-0.24-0.62-0.43c-0.16-0.2-0.27-0.43-0.34-0.73
		s-0.1-0.64-0.1-1.03c0-0.77,0.16-1.35,0.5-1.72c0.33-0.37,0.84-0.56,1.52-0.56c0.36,0,0.66,0.05,0.89,0.16s0.41,0.26,0.54,0.45
		c0.13,0.19,0.23,0.42,0.27,0.68s0.07,0.55,0.07,0.85v0.35h-3.04c0,0.25,0.02,0.46,0.05,0.63c0.09,0.35,0.24,0.59,0.45,0.71
		c0.22,0.13,0.51,0.2,0.88,0.2c0.31,0,0.59-0.04,0.82-0.12c0.24-0.08,0.43-0.16,0.57-0.23l0.19,0.5c-0.07,0.05-0.16,0.11-0.29,0.16
		s-0.27,0.1-0.41,0.14c-0.16,0.04-0.32,0.08-0.49,0.1C76.83,30.57,76.66,30.58,76.5,30.58z M77.5,27.92c0-0.52-0.09-0.89-0.27-1.09
		c-0.18-0.2-0.43-0.31-0.74-0.31c-0.37,0-0.64,0.08-0.84,0.24c-0.19,0.16-0.31,0.41-0.38,0.74c-0.02,0.07-0.02,0.13-0.03,0.2
		s-0.02,0.14-0.02,0.22H77.5z"/>
	<path class="st1" d="M80.23,27.73c0.15,0.08,0.34,0.15,0.57,0.23s0.46,0.16,0.68,0.25c0.25,0.1,0.45,0.23,0.62,0.39
		c0.16,0.16,0.24,0.4,0.24,0.71c0,0.44-0.16,0.76-0.48,0.96c-0.31,0.2-0.77,0.3-1.38,0.3c-0.29,0-0.57-0.03-0.84-0.08
		c-0.27-0.05-0.51-0.13-0.7-0.23l0.23-0.55c0.16,0.09,0.34,0.15,0.57,0.2S80.23,30,80.49,30c0.14,0,0.28-0.01,0.42-0.03
		c0.13-0.02,0.26-0.04,0.36-0.09c0.1-0.04,0.19-0.11,0.25-0.19s0.09-0.2,0.09-0.34c0-0.28-0.18-0.48-0.54-0.61
		c-0.2-0.09-0.42-0.17-0.65-0.25c-0.23-0.07-0.44-0.15-0.62-0.23c-0.23-0.09-0.42-0.21-0.57-0.37c-0.14-0.15-0.22-0.38-0.22-0.67
		c0-0.23,0.05-0.43,0.16-0.6c0.11-0.16,0.25-0.29,0.41-0.39c0.17-0.09,0.36-0.16,0.57-0.21c0.21-0.04,0.42-0.06,0.63-0.06
		c0.34,0,0.62,0.03,0.87,0.08s0.45,0.11,0.6,0.18l-0.23,0.55c-0.17-0.07-0.36-0.13-0.57-0.18c-0.2-0.05-0.43-0.07-0.69-0.07
		c-0.38,0-0.66,0.06-0.81,0.18s-0.23,0.26-0.23,0.42c0,0.14,0.04,0.26,0.12,0.35C79.92,27.57,80.05,27.65,80.23,27.73z"/>
	<path class="st1" d="M84.26,27.73c0.15,0.08,0.34,0.15,0.57,0.23s0.46,0.16,0.68,0.25c0.25,0.1,0.45,0.23,0.62,0.39
		c0.16,0.16,0.24,0.4,0.24,0.71c0,0.44-0.16,0.76-0.48,0.96c-0.31,0.2-0.77,0.3-1.38,0.3c-0.29,0-0.57-0.03-0.84-0.08
		c-0.27-0.05-0.51-0.13-0.7-0.23l0.23-0.55c0.16,0.09,0.34,0.15,0.57,0.2S84.26,30,84.52,30c0.14,0,0.28-0.01,0.42-0.03
		c0.13-0.02,0.26-0.04,0.36-0.09c0.1-0.04,0.19-0.11,0.25-0.19s0.09-0.2,0.09-0.34c0-0.28-0.18-0.48-0.54-0.61
		c-0.2-0.09-0.42-0.17-0.65-0.25c-0.23-0.07-0.44-0.15-0.62-0.23c-0.23-0.09-0.42-0.21-0.57-0.37c-0.14-0.15-0.22-0.38-0.22-0.67
		c0-0.23,0.05-0.43,0.16-0.6c0.11-0.16,0.25-0.29,0.41-0.39c0.17-0.09,0.36-0.16,0.57-0.21c0.21-0.04,0.42-0.06,0.63-0.06
		c0.34,0,0.62,0.03,0.87,0.08s0.45,0.11,0.6,0.18l-0.23,0.55c-0.17-0.07-0.36-0.13-0.57-0.18c-0.2-0.05-0.43-0.07-0.69-0.07
		c-0.38,0-0.66,0.06-0.81,0.18s-0.23,0.26-0.23,0.42c0,0.14,0.04,0.26,0.12,0.35C83.95,27.57,84.08,27.65,84.26,27.73z"/>
	<path class="st1" d="M91.42,30.58c-0.38,0-0.71-0.05-0.97-0.14c-0.26-0.09-0.47-0.24-0.62-0.43c-0.16-0.2-0.27-0.43-0.34-0.73
		s-0.11-0.64-0.11-1.03c0-0.77,0.16-1.35,0.5-1.72s0.84-0.56,1.52-0.56c0.37,0,0.66,0.05,0.89,0.16c0.23,0.11,0.41,0.26,0.55,0.45
		c0.13,0.19,0.22,0.42,0.27,0.68s0.08,0.55,0.08,0.85v0.35h-3.05c0,0.25,0.02,0.46,0.05,0.63c0.09,0.35,0.24,0.59,0.46,0.71
		c0.21,0.13,0.51,0.2,0.88,0.2c0.31,0,0.59-0.04,0.83-0.12c0.23-0.08,0.42-0.16,0.56-0.23l0.2,0.5c-0.07,0.05-0.17,0.11-0.3,0.16
		s-0.26,0.1-0.41,0.14c-0.16,0.04-0.31,0.08-0.48,0.1C91.74,30.57,91.58,30.58,91.42,30.58z M92.41,27.92
		c0-0.52-0.09-0.89-0.27-1.09c-0.18-0.2-0.43-0.31-0.74-0.31c-0.36,0-0.64,0.08-0.83,0.24s-0.32,0.41-0.39,0.74
		c-0.01,0.07-0.02,0.13-0.03,0.2c0,0.07-0.01,0.14-0.02,0.22H92.41z"/>
	<path class="st1" d="M94.75,26.07l0.03,0.39c0.19-0.12,0.38-0.23,0.59-0.32c0.32-0.12,0.64-0.18,0.96-0.18
		c0.3,0,0.53,0.04,0.72,0.11s0.34,0.18,0.45,0.32c0.1,0.14,0.18,0.32,0.22,0.52c0.05,0.21,0.06,0.45,0.06,0.71v2.83h-0.73v-2.67
		c0-0.19-0.01-0.36-0.03-0.51c-0.02-0.16-0.05-0.29-0.12-0.39c-0.06-0.11-0.16-0.19-0.27-0.25s-0.27-0.09-0.48-0.09
		c-0.16,0-0.33,0.02-0.48,0.07s-0.3,0.11-0.45,0.18c-0.12,0.05-0.23,0.12-0.34,0.2v3.46h-0.73v-3.23l-0.08-1.17H94.75z"/>
	<path class="st1" d="M99.91,26.65v2.17c0,0.19,0.01,0.36,0.02,0.5s0.05,0.27,0.11,0.36c0.06,0.1,0.14,0.17,0.26,0.22
		c0.11,0.05,0.27,0.08,0.45,0.08c0.27,0,0.54-0.05,0.8-0.14l0.13,0.51c-0.18,0.08-0.37,0.13-0.56,0.17c-0.2,0.04-0.4,0.06-0.59,0.06
		c-0.28,0-0.51-0.04-0.69-0.11c-0.18-0.08-0.31-0.18-0.41-0.32c-0.09-0.13-0.16-0.29-0.2-0.48c-0.04-0.19-0.05-0.39-0.05-0.6v-2.4
		h-0.75v-0.52l0.75-0.08v-0.92l0.72-0.12v1.04h1.66v0.58H99.91z"/>
	<path class="st1" d="M104.19,30.58c-0.38,0-0.7-0.05-0.96-0.14c-0.26-0.09-0.47-0.24-0.62-0.43c-0.16-0.2-0.27-0.43-0.34-0.73
		s-0.1-0.64-0.1-1.03c0-0.77,0.16-1.35,0.5-1.72c0.33-0.37,0.84-0.56,1.52-0.56c0.36,0,0.66,0.05,0.89,0.16s0.41,0.26,0.54,0.45
		c0.13,0.19,0.23,0.42,0.27,0.68s0.07,0.55,0.07,0.85v0.35h-3.04c0,0.25,0.02,0.46,0.05,0.63c0.09,0.35,0.24,0.59,0.45,0.71
		c0.22,0.13,0.51,0.2,0.88,0.2c0.31,0,0.59-0.04,0.82-0.12c0.24-0.08,0.43-0.16,0.57-0.23l0.19,0.5c-0.07,0.05-0.16,0.11-0.29,0.16
		s-0.27,0.1-0.41,0.14c-0.16,0.04-0.32,0.08-0.49,0.1C104.52,30.57,104.35,30.58,104.19,30.58z M105.19,27.92
		c0-0.52-0.09-0.89-0.27-1.09c-0.18-0.2-0.43-0.31-0.74-0.31c-0.37,0-0.64,0.08-0.84,0.24c-0.19,0.16-0.31,0.41-0.38,0.74
		c-0.02,0.07-0.02,0.13-0.03,0.2s-0.02,0.14-0.02,0.22H105.19z"/>
	<path class="st1" d="M107.49,26.07l0.08,0.61c0.18-0.21,0.38-0.38,0.59-0.48c0.29-0.15,0.58-0.23,0.88-0.23
		c0.23,0,0.43,0.04,0.59,0.12l-0.2,0.61c-0.12-0.06-0.3-0.09-0.51-0.09c-0.27,0-0.52,0.08-0.76,0.24c-0.09,0.06-0.17,0.12-0.26,0.2
		c-0.08,0.07-0.16,0.16-0.24,0.25v3.18h-0.73v-3.2l-0.11-1.2H107.49z"/>
	<path class="st1" d="M110.63,26.07l0.08,0.32c0.19-0.13,0.38-0.23,0.56-0.29c0.26-0.09,0.52-0.14,0.8-0.14
		c0.62,0,1.08,0.2,1.37,0.58c0.3,0.39,0.44,0.94,0.44,1.66c0,0.34-0.04,0.66-0.11,0.96c-0.08,0.29-0.2,0.54-0.38,0.75
		s-0.38,0.37-0.65,0.49c-0.27,0.12-0.59,0.18-0.97,0.18c-0.23,0-0.43-0.03-0.6-0.09c-0.06-0.01-0.12-0.03-0.19-0.05
		c-0.05-0.02-0.12-0.05-0.18-0.08v2.17l-0.73,0.11v-5.44L110,26.07H110.63z M111.71,30.01c0.45,0,0.8-0.14,1.04-0.42
		c0.25-0.28,0.37-0.74,0.37-1.39c0-0.22-0.02-0.44-0.05-0.64c-0.04-0.2-0.11-0.38-0.2-0.53c-0.09-0.15-0.23-0.27-0.38-0.36
		c-0.16-0.09-0.37-0.13-0.62-0.13c-0.26,0-0.48,0.05-0.69,0.16c-0.13,0.07-0.25,0.15-0.37,0.25v2.78
		C111.06,29.92,111.36,30.01,111.71,30.01z"/>
	<path class="st1" d="M115.42,26.07l0.08,0.61c0.18-0.21,0.38-0.38,0.59-0.48c0.29-0.15,0.58-0.23,0.88-0.23
		c0.23,0,0.43,0.04,0.59,0.12l-0.2,0.61c-0.12-0.06-0.3-0.09-0.51-0.09c-0.27,0-0.52,0.08-0.76,0.24c-0.09,0.06-0.17,0.12-0.26,0.2
		c-0.08,0.07-0.16,0.16-0.24,0.25v3.18h-0.73v-3.2l-0.11-1.2H115.42z"/>
	<path class="st1" d="M117.99,24.26h0.74v0.77h-0.74V24.26z M118.01,26.07h0.73v4.4h-0.73V26.07z"/>
	<path class="st1" d="M120.95,27.73c0.15,0.08,0.34,0.15,0.57,0.23s0.46,0.16,0.68,0.25c0.25,0.1,0.45,0.23,0.62,0.39
		c0.16,0.16,0.24,0.4,0.24,0.71c0,0.44-0.16,0.76-0.48,0.96c-0.31,0.2-0.77,0.3-1.38,0.3c-0.29,0-0.57-0.03-0.84-0.08
		c-0.27-0.05-0.51-0.13-0.7-0.23l0.23-0.55c0.16,0.09,0.34,0.15,0.57,0.2s0.48,0.08,0.74,0.08c0.14,0,0.28-0.01,0.42-0.03
		c0.13-0.02,0.26-0.04,0.36-0.09c0.1-0.04,0.19-0.11,0.25-0.19s0.09-0.2,0.09-0.34c0-0.28-0.18-0.48-0.54-0.61
		c-0.2-0.09-0.42-0.17-0.65-0.25c-0.23-0.07-0.44-0.15-0.62-0.23c-0.23-0.09-0.42-0.21-0.57-0.37c-0.14-0.15-0.22-0.38-0.22-0.67
		c0-0.23,0.05-0.43,0.16-0.6c0.11-0.16,0.25-0.29,0.41-0.39c0.17-0.09,0.36-0.16,0.57-0.21c0.21-0.04,0.42-0.06,0.63-0.06
		c0.34,0,0.62,0.03,0.87,0.08s0.45,0.11,0.6,0.18l-0.23,0.55c-0.17-0.07-0.36-0.13-0.57-0.18c-0.2-0.05-0.43-0.07-0.69-0.07
		c-0.38,0-0.66,0.06-0.81,0.18s-0.23,0.26-0.23,0.42c0,0.14,0.04,0.26,0.12,0.35C120.65,27.57,120.77,27.65,120.95,27.73z"/>
	<path class="st1" d="M125.79,30.58c-0.38,0-0.7-0.05-0.96-0.14c-0.26-0.09-0.47-0.24-0.62-0.43c-0.16-0.2-0.27-0.43-0.34-0.73
		s-0.1-0.64-0.1-1.03c0-0.77,0.16-1.35,0.5-1.72c0.33-0.37,0.84-0.56,1.52-0.56c0.36,0,0.66,0.05,0.89,0.16s0.41,0.26,0.54,0.45
		c0.13,0.19,0.23,0.42,0.27,0.68s0.07,0.55,0.07,0.85v0.35h-3.04c0,0.25,0.02,0.46,0.05,0.63c0.09,0.35,0.24,0.59,0.45,0.71
		c0.22,0.13,0.51,0.2,0.88,0.2c0.31,0,0.59-0.04,0.82-0.12c0.24-0.08,0.43-0.16,0.57-0.23l0.19,0.5c-0.07,0.05-0.16,0.11-0.29,0.16
		s-0.27,0.1-0.41,0.14c-0.16,0.04-0.32,0.08-0.49,0.1C126.12,30.57,125.95,30.58,125.79,30.58z M126.79,27.92
		c0-0.52-0.09-0.89-0.27-1.09c-0.18-0.2-0.43-0.31-0.74-0.31c-0.37,0-0.64,0.08-0.84,0.24c-0.19,0.16-0.31,0.41-0.38,0.74
		c-0.02,0.07-0.02,0.13-0.03,0.2s-0.02,0.14-0.02,0.22H126.79z"/>
	<path class="st1" d="M130.87,28.55h-2.4v-0.63h2.4V28.55z"/>
	<path class="st1" d="M135.3,30.22c-0.14,0.08-0.34,0.16-0.6,0.24c-0.26,0.07-0.55,0.11-0.85,0.11c-0.73,0-1.25-0.2-1.57-0.58
		s-0.48-0.94-0.48-1.66c0-0.79,0.19-1.39,0.55-1.78c0.38-0.39,0.93-0.59,1.66-0.59c0.27,0,0.53,0.05,0.78,0.14
		c0.24,0.09,0.43,0.22,0.57,0.38l-0.44,0.43c-0.11-0.12-0.24-0.22-0.4-0.29s-0.34-0.11-0.52-0.11c-0.48,0-0.84,0.15-1.09,0.44
		s-0.38,0.76-0.38,1.4c0,0.24,0.02,0.46,0.07,0.67c0.05,0.2,0.12,0.37,0.24,0.52c0.11,0.14,0.25,0.26,0.43,0.34
		c0.18,0.08,0.39,0.12,0.64,0.12s0.48-0.03,0.67-0.08s0.38-0.12,0.55-0.2L135.3,30.22z"/>
	<path class="st1" d="M137.31,30.5c-0.01,0.01-0.04,0.01-0.09,0.01c-0.02,0-0.07,0.01-0.17,0.01c-0.35,0-0.59-0.1-0.71-0.29
		c-0.13-0.2-0.2-0.48-0.2-0.87v-5.43l0.72-0.11v5.52c0,0.27,0.03,0.43,0.1,0.5c0.06,0.07,0.18,0.11,0.34,0.11V30.5z"/>
	<path class="st1" d="M141.96,30.49c-0.06,0.01-0.11,0.02-0.12,0.02h-0.15c-0.22,0-0.39-0.04-0.5-0.13s-0.2-0.21-0.27-0.37
		c-0.16,0.15-0.37,0.28-0.62,0.39c-0.26,0.11-0.55,0.17-0.9,0.17c-0.27,0-0.49-0.04-0.66-0.11c-0.18-0.07-0.32-0.17-0.43-0.29
		s-0.19-0.26-0.23-0.43c-0.04-0.16-0.06-0.34-0.06-0.53c0-0.27,0.05-0.49,0.14-0.66c0.09-0.17,0.22-0.3,0.38-0.41
		c0.17-0.1,0.37-0.18,0.59-0.21c0.23-0.04,0.48-0.06,0.75-0.06c0.18,0,0.34,0,0.48,0.02c0.13,0.01,0.28,0.02,0.46,0.03v-0.23
		c0-0.21-0.02-0.4-0.05-0.55c-0.03-0.15-0.09-0.27-0.16-0.36s-0.19-0.16-0.33-0.2c-0.13-0.04-0.31-0.06-0.52-0.06
		c-0.25,0-0.5,0.04-0.75,0.11s-0.45,0.14-0.61,0.22l-0.19-0.51c0.23-0.1,0.48-0.19,0.78-0.27c0.3-0.08,0.62-0.12,0.96-0.12
		c0.3,0,0.56,0.03,0.77,0.09c0.2,0.06,0.37,0.16,0.49,0.3c0.12,0.14,0.22,0.33,0.27,0.56c0.05,0.23,0.08,0.51,0.08,0.84v1.59
		c0,0.23,0.03,0.38,0.1,0.46c0.06,0.09,0.17,0.12,0.31,0.12V30.49z M139.82,28.44c-0.4,0-0.67,0.06-0.82,0.19
		c-0.16,0.12-0.23,0.32-0.23,0.57c0,0.29,0.06,0.5,0.19,0.62c0.13,0.13,0.35,0.19,0.66,0.19c0.21,0,0.42-0.05,0.63-0.14
		c0.21-0.09,0.4-0.2,0.56-0.33v-1.06c-0.17-0.01-0.33-0.02-0.48-0.03C140.17,28.44,140.01,28.44,139.82,28.44z"/>
	<path class="st1" d="M143.73,27.73c0.15,0.08,0.34,0.15,0.57,0.23s0.46,0.16,0.68,0.25c0.25,0.1,0.45,0.23,0.62,0.39
		c0.16,0.16,0.24,0.4,0.24,0.71c0,0.44-0.16,0.76-0.48,0.96c-0.31,0.2-0.77,0.3-1.38,0.3c-0.29,0-0.57-0.03-0.84-0.08
		c-0.27-0.05-0.51-0.13-0.7-0.23l0.23-0.55c0.16,0.09,0.34,0.15,0.57,0.2S143.73,30,144,30c0.14,0,0.28-0.01,0.42-0.03
		c0.13-0.02,0.26-0.04,0.36-0.09c0.1-0.04,0.19-0.11,0.25-0.19s0.09-0.2,0.09-0.34c0-0.28-0.18-0.48-0.54-0.61
		c-0.2-0.09-0.42-0.17-0.65-0.25c-0.23-0.07-0.44-0.15-0.62-0.23c-0.23-0.09-0.42-0.21-0.57-0.37c-0.14-0.15-0.22-0.38-0.22-0.67
		c0-0.23,0.05-0.43,0.16-0.6c0.11-0.16,0.25-0.29,0.41-0.39c0.17-0.09,0.36-0.16,0.57-0.21c0.21-0.04,0.42-0.06,0.63-0.06
		c0.34,0,0.62,0.03,0.87,0.08s0.45,0.11,0.6,0.18l-0.23,0.55c-0.17-0.07-0.36-0.13-0.57-0.18c-0.2-0.05-0.43-0.07-0.69-0.07
		c-0.38,0-0.66,0.06-0.81,0.18s-0.23,0.26-0.23,0.42c0,0.14,0.04,0.26,0.12,0.35C143.43,27.57,143.55,27.65,143.73,27.73z"/>
	<path class="st1" d="M147.77,27.73c0.15,0.08,0.34,0.15,0.57,0.23s0.46,0.16,0.68,0.25c0.25,0.1,0.45,0.23,0.62,0.39
		c0.16,0.16,0.24,0.4,0.24,0.71c0,0.44-0.16,0.76-0.48,0.96c-0.31,0.2-0.77,0.3-1.38,0.3c-0.29,0-0.57-0.03-0.84-0.08
		c-0.27-0.05-0.51-0.13-0.7-0.23l0.23-0.55c0.16,0.09,0.34,0.15,0.57,0.2s0.48,0.08,0.74,0.08c0.14,0,0.28-0.01,0.42-0.03
		c0.13-0.02,0.26-0.04,0.36-0.09c0.1-0.04,0.19-0.11,0.25-0.19s0.09-0.2,0.09-0.34c0-0.28-0.18-0.48-0.54-0.61
		c-0.2-0.09-0.42-0.17-0.65-0.25c-0.23-0.07-0.44-0.15-0.62-0.23c-0.23-0.09-0.42-0.21-0.57-0.37c-0.14-0.15-0.22-0.38-0.22-0.67
		c0-0.23,0.05-0.43,0.16-0.6c0.11-0.16,0.25-0.29,0.41-0.39c0.17-0.09,0.36-0.16,0.57-0.21c0.21-0.04,0.42-0.06,0.63-0.06
		c0.34,0,0.62,0.03,0.87,0.08s0.45,0.11,0.6,0.18l-0.23,0.55c-0.17-0.07-0.36-0.13-0.57-0.18c-0.2-0.05-0.43-0.07-0.69-0.07
		c-0.38,0-0.66,0.06-0.81,0.18s-0.23,0.26-0.23,0.42c0,0.14,0.04,0.26,0.12,0.35C147.46,27.57,147.59,27.65,147.77,27.73z"/>
	<path class="st1" d="M22.09,35.67l0.08,0.61c0.18-0.21,0.38-0.38,0.59-0.48c0.29-0.15,0.58-0.23,0.88-0.23
		c0.23,0,0.43,0.04,0.59,0.12l-0.2,0.61c-0.12-0.06-0.3-0.09-0.51-0.09c-0.27,0-0.52,0.08-0.76,0.24c-0.09,0.06-0.17,0.12-0.26,0.2
		c-0.08,0.07-0.16,0.16-0.24,0.25v3.18h-0.73v-3.2l-0.11-1.2H22.09z"/>
	<path class="st1" d="M26.36,40.18c-0.38,0-0.71-0.05-0.97-0.14c-0.26-0.09-0.47-0.24-0.62-0.43c-0.16-0.2-0.27-0.43-0.34-0.73
		s-0.11-0.64-0.11-1.03c0-0.77,0.16-1.35,0.5-1.72s0.84-0.56,1.52-0.56c0.37,0,0.66,0.05,0.89,0.16c0.23,0.11,0.41,0.26,0.55,0.45
		c0.13,0.19,0.22,0.42,0.27,0.68s0.08,0.55,0.08,0.85v0.35h-3.05c0,0.25,0.02,0.46,0.05,0.63c0.09,0.35,0.24,0.59,0.46,0.71
		c0.21,0.13,0.51,0.2,0.88,0.2c0.31,0,0.59-0.04,0.83-0.12c0.23-0.08,0.42-0.16,0.56-0.23l0.2,0.5c-0.07,0.05-0.17,0.11-0.3,0.16
		s-0.26,0.1-0.41,0.14c-0.16,0.04-0.31,0.08-0.48,0.1C26.68,40.16,26.52,40.18,26.36,40.18z M27.35,37.52
		c0-0.52-0.09-0.89-0.27-1.09c-0.18-0.2-0.43-0.31-0.74-0.31c-0.36,0-0.64,0.08-0.83,0.24s-0.32,0.41-0.39,0.74
		c-0.01,0.07-0.02,0.13-0.03,0.2c0,0.07-0.01,0.14-0.02,0.22H27.35z"/>
	<path class="st1" d="M30.95,35.57c0.22,0,0.42,0.03,0.62,0.08c0.14,0.04,0.3,0.11,0.48,0.2l0.05-0.18h0.55v6.45l-0.73,0.11v-2.42
		c-0.16,0.09-0.32,0.18-0.48,0.24c-0.23,0.08-0.49,0.12-0.8,0.12c-0.62,0-1.08-0.2-1.37-0.58s-0.44-0.94-0.44-1.66
		c0-0.34,0.04-0.66,0.12-0.95c0.08-0.29,0.2-0.54,0.37-0.75s0.39-0.37,0.66-0.49S30.57,35.57,30.95,35.57z M31.02,36.13
		c-0.46,0-0.81,0.14-1.06,0.42c-0.24,0.28-0.36,0.75-0.36,1.39c0,0.23,0.02,0.44,0.05,0.64c0.04,0.2,0.11,0.37,0.2,0.53
		c0.09,0.15,0.23,0.27,0.39,0.36s0.37,0.14,0.62,0.14c0.27,0,0.49-0.05,0.69-0.16c0.07-0.03,0.13-0.07,0.19-0.11
		c0.06-0.04,0.12-0.09,0.19-0.14V36.4C31.64,36.22,31.34,36.13,31.02,36.13z"/>
	<path class="st1" d="M37.44,38.9l0.08,1.17h-0.69l-0.05-0.38c-0.16,0.11-0.35,0.21-0.58,0.3c-0.34,0.13-0.66,0.19-0.95,0.19
		s-0.53-0.04-0.71-0.11C34.35,40,34.2,39.9,34.1,39.75c-0.11-0.14-0.18-0.32-0.22-0.52c-0.05-0.21-0.06-0.45-0.06-0.73v-2.82h0.72
		v2.67c0,0.18,0.01,0.36,0.03,0.51s0.06,0.29,0.12,0.39s0.15,0.19,0.27,0.25c0.12,0.05,0.27,0.09,0.47,0.09
		c0.16,0,0.33-0.02,0.48-0.07c0.16-0.04,0.3-0.1,0.45-0.17l0.36-0.2v-3.47h0.72V38.9z"/>
	<path class="st1" d="M38.63,33.86h0.74v0.77h-0.74V33.86z M38.65,35.67h0.73v4.4h-0.73V35.67z"/>
	<path class="st1" d="M41.17,35.67l0.08,0.61c0.18-0.21,0.38-0.38,0.59-0.48c0.29-0.15,0.58-0.23,0.88-0.23
		c0.23,0,0.43,0.04,0.59,0.12l-0.2,0.61c-0.12-0.06-0.3-0.09-0.51-0.09c-0.27,0-0.52,0.08-0.76,0.24c-0.09,0.06-0.17,0.12-0.26,0.2
		c-0.08,0.07-0.16,0.16-0.24,0.25v3.18h-0.73v-3.2l-0.11-1.2H41.17z"/>
	<path class="st1" d="M45.44,40.18c-0.38,0-0.71-0.05-0.97-0.14c-0.26-0.09-0.47-0.24-0.62-0.43c-0.16-0.2-0.27-0.43-0.34-0.73
		s-0.11-0.64-0.11-1.03c0-0.77,0.16-1.35,0.5-1.72s0.84-0.56,1.52-0.56c0.37,0,0.66,0.05,0.89,0.16c0.23,0.11,0.41,0.26,0.55,0.45
		c0.13,0.19,0.22,0.42,0.27,0.68s0.08,0.55,0.08,0.85v0.35h-3.05c0,0.25,0.02,0.46,0.05,0.63c0.09,0.35,0.24,0.59,0.46,0.71
		c0.21,0.13,0.51,0.2,0.88,0.2c0.31,0,0.59-0.04,0.83-0.12c0.23-0.08,0.42-0.16,0.56-0.23l0.2,0.5c-0.07,0.05-0.17,0.11-0.3,0.16
		s-0.26,0.1-0.41,0.14c-0.16,0.04-0.31,0.08-0.48,0.1C45.76,40.16,45.59,40.18,45.44,40.18z M46.43,37.52
		c0-0.52-0.09-0.89-0.27-1.09c-0.18-0.2-0.43-0.31-0.74-0.31c-0.36,0-0.64,0.08-0.83,0.24s-0.32,0.41-0.39,0.74
		c-0.01,0.07-0.02,0.13-0.03,0.2c0,0.07-0.01,0.14-0.02,0.22H46.43z"/>
	<path class="st1" d="M48.77,35.67l0.03,0.38c0.08-0.05,0.16-0.11,0.25-0.16c0.09-0.05,0.18-0.09,0.29-0.14
		c0.28-0.12,0.58-0.18,0.89-0.18c0.29,0,0.52,0.04,0.7,0.11c0.17,0.07,0.31,0.18,0.41,0.32l0.06,0.08c0.17-0.14,0.38-0.25,0.59-0.33
		c0.3-0.12,0.62-0.18,0.94-0.18c0.28,0,0.51,0.04,0.69,0.11s0.31,0.18,0.41,0.32c0.11,0.14,0.17,0.32,0.21,0.52
		c0.03,0.21,0.05,0.45,0.05,0.71v2.83h-0.73V37.4c0-0.19-0.01-0.36-0.02-0.51c-0.02-0.16-0.06-0.29-0.12-0.39s-0.14-0.19-0.24-0.25
		c-0.11-0.06-0.25-0.09-0.43-0.09c-0.16,0-0.31,0.02-0.47,0.07c-0.15,0.04-0.29,0.11-0.42,0.18c-0.05,0.02-0.1,0.05-0.16,0.09
		c-0.05,0.03-0.1,0.07-0.16,0.11c0.02,0.09,0.02,0.2,0.03,0.3s0.01,0.22,0.01,0.33v2.83h-0.73V37.4c0-0.19-0.01-0.36-0.02-0.51
		c-0.02-0.16-0.05-0.29-0.11-0.39c-0.06-0.11-0.14-0.19-0.25-0.25c-0.1-0.06-0.24-0.09-0.42-0.09c-0.31,0-0.62,0.08-0.9,0.25
		c-0.04,0.02-0.09,0.05-0.13,0.08c-0.04,0.03-0.09,0.06-0.13,0.09v3.48h-0.73v-3.23l-0.08-1.17H48.77z"/>
	<path class="st1" d="M57.25,40.18c-0.38,0-0.7-0.05-0.96-0.14c-0.26-0.09-0.47-0.24-0.62-0.43c-0.16-0.2-0.27-0.43-0.34-0.73
		s-0.1-0.64-0.1-1.03c0-0.77,0.16-1.35,0.5-1.72c0.33-0.37,0.84-0.56,1.52-0.56c0.36,0,0.66,0.05,0.89,0.16s0.41,0.26,0.54,0.45
		c0.13,0.19,0.23,0.42,0.27,0.68s0.07,0.55,0.07,0.85v0.35h-3.04c0,0.25,0.02,0.46,0.05,0.63c0.09,0.35,0.24,0.59,0.45,0.71
		c0.22,0.13,0.51,0.2,0.88,0.2c0.31,0,0.59-0.04,0.82-0.12c0.24-0.08,0.43-0.16,0.57-0.23l0.19,0.5c-0.07,0.05-0.16,0.11-0.29,0.16
		s-0.27,0.1-0.41,0.14c-0.16,0.04-0.32,0.08-0.49,0.1C57.58,40.16,57.41,40.18,57.25,40.18z M58.25,37.52
		c0-0.52-0.09-0.89-0.27-1.09c-0.18-0.2-0.43-0.31-0.74-0.31c-0.37,0-0.64,0.08-0.84,0.24c-0.19,0.16-0.31,0.41-0.38,0.74
		c-0.02,0.07-0.02,0.13-0.03,0.2s-0.02,0.14-0.02,0.22H58.25z"/>
	<path class="st1" d="M60.59,35.67l0.02,0.39c0.19-0.12,0.38-0.23,0.59-0.32c0.32-0.12,0.64-0.18,0.96-0.18
		c0.3,0,0.54,0.04,0.72,0.11c0.19,0.07,0.34,0.18,0.45,0.32s0.19,0.32,0.23,0.52s0.06,0.45,0.06,0.71v2.83h-0.73V37.4
		c0-0.19-0.01-0.36-0.02-0.51c-0.02-0.16-0.06-0.29-0.12-0.39s-0.16-0.19-0.27-0.25s-0.28-0.09-0.48-0.09
		c-0.16,0-0.33,0.02-0.48,0.07s-0.31,0.11-0.45,0.18c-0.12,0.05-0.23,0.12-0.34,0.2v3.46h-0.73v-3.23l-0.08-1.17H60.59z"/>
	<path class="st1" d="M65.75,36.25v2.17c0,0.19,0.01,0.36,0.02,0.5s0.05,0.27,0.11,0.36c0.05,0.1,0.14,0.17,0.25,0.22
		c0.12,0.05,0.27,0.08,0.46,0.08c0.27,0,0.53-0.05,0.8-0.14l0.13,0.51c-0.18,0.08-0.37,0.13-0.57,0.17
		c-0.2,0.04-0.39,0.06-0.59,0.06c-0.28,0-0.51-0.04-0.68-0.11c-0.18-0.08-0.31-0.18-0.41-0.32c-0.09-0.13-0.16-0.29-0.2-0.48
		c-0.03-0.19-0.05-0.39-0.05-0.6v-2.4h-0.75v-0.52l0.75-0.08v-0.92l0.73-0.12v1.04h1.66v0.58H65.75z"/>
	<path class="st1" d="M69.26,37.32c0.15,0.08,0.34,0.15,0.58,0.23c0.23,0.08,0.45,0.16,0.67,0.25c0.25,0.1,0.46,0.23,0.62,0.39
		c0.16,0.16,0.25,0.4,0.25,0.71c0,0.44-0.16,0.76-0.48,0.96c-0.32,0.2-0.77,0.3-1.38,0.3c-0.29,0-0.57-0.03-0.84-0.08
		s-0.5-0.13-0.7-0.23l0.23-0.55c0.15,0.09,0.34,0.15,0.57,0.2s0.47,0.08,0.74,0.08c0.14,0,0.28-0.01,0.41-0.03
		c0.14-0.02,0.26-0.04,0.36-0.09c0.1-0.04,0.19-0.11,0.25-0.19c0.07-0.08,0.1-0.2,0.1-0.34c0-0.28-0.18-0.48-0.54-0.61
		c-0.2-0.09-0.42-0.17-0.66-0.25c-0.23-0.07-0.44-0.15-0.62-0.23c-0.23-0.09-0.41-0.21-0.56-0.37c-0.15-0.15-0.22-0.38-0.22-0.67
		c0-0.23,0.05-0.43,0.16-0.6c0.1-0.16,0.24-0.29,0.41-0.39c0.16-0.09,0.36-0.16,0.57-0.21c0.21-0.04,0.42-0.06,0.63-0.06
		c0.34,0,0.62,0.03,0.87,0.08c0.24,0.05,0.44,0.11,0.6,0.18l-0.23,0.55c-0.17-0.07-0.36-0.13-0.56-0.18
		c-0.2-0.05-0.44-0.07-0.69-0.07c-0.39,0-0.66,0.06-0.81,0.18s-0.23,0.26-0.23,0.42c0,0.14,0.03,0.26,0.11,0.35
		C68.95,37.17,69.09,37.25,69.26,37.32z"/>
	<path class="st1" d="M72.98,40.07h-0.83v-0.8h0.83V40.07z"/>
</g>
</svg>
