<?xml version="1.0" encoding="utf-8"?>
<!-- Generator: Adobe Illustrator 23.0.0, SVG Export Plug-In . SVG Version: 6.00 Build 0)  -->
<svg version="1.1" id="Layer_1" xmlns="http://www.w3.org/2000/svg" xmlns:xlink="http://www.w3.org/1999/xlink" x="0px" y="0px"
	 viewBox="0 0 218.53 53.65" style="enable-background:new 0 0 218.53 53.65;" xml:space="preserve">
<style type="text/css">
	.st0{fill:#6D6E71;}
	.st1{fill:url(#SVGID_1_);}
	.st2{fill:url(#SVGID_2_);}
	.st3{fill:url(#SVGID_3_);}
	.st4{fill:#616D76;}
	.st5{fill:#879AA4;}
	.st6{fill:#8E9BA1;}
	.st7{fill:url(#SVGID_4_);}
	.st8{fill:url(#SVGID_5_);}
	.st9{fill:#B5BEC4;}
	.st10{fill:none;}
	.st11{fill:url(#SVGID_6_);}
	.st12{fill:#505C61;}
	.st13{fill:#0B2028;}
	.st14{fill:#8F9DA5;}
	.st15{fill:url(#SVGID_7_);}
	.st16{fill:url(#SVGID_8_);}
	.st17{fill:url(#SVGID_9_);}
	.st18{fill:url(#SVGID_10_);}
	.st19{fill:url(#SVGID_11_);}
	.st20{fill:url(#SVGID_12_);}
	.st21{fill:#FFFFFF;}
	.st22{fill:#A7A9AC;}
</style>
<g>
	<g>
		<path class="st0" d="M146.47,17.08c0.69,0.25,1.26,0.64,1.71,1.18c0.45,0.54,0.68,1.23,0.68,2.05c0,0.72-0.12,1.33-0.37,1.84
			c-0.25,0.51-0.58,0.92-0.99,1.24c-0.41,0.32-0.9,0.55-1.47,0.71c-0.56,0.16-1.16,0.24-1.79,0.24h-5.75V10.75h5.42
			c0.71,0,1.35,0.06,1.92,0.19c0.57,0.12,1.04,0.32,1.42,0.59c0.39,0.27,0.68,0.62,0.9,1.06c0.21,0.44,0.32,0.97,0.32,1.59
			c0,0.66-0.18,1.24-0.53,1.74C147.58,16.42,147.09,16.81,146.47,17.08z M145.65,14.56c0-0.34-0.05-0.62-0.15-0.85
			c-0.1-0.22-0.24-0.39-0.41-0.51c-0.17-0.12-0.37-0.21-0.6-0.26c-0.23-0.05-0.46-0.07-0.71-0.07h-2.64v3.38h2.66
			c0.55,0,1-0.14,1.34-0.43C145.47,15.53,145.65,15.11,145.65,14.56z M143.81,22.21c0.29,0,0.57-0.03,0.83-0.09
			c0.27-0.06,0.5-0.16,0.69-0.3c0.19-0.14,0.35-0.33,0.46-0.58c0.12-0.25,0.17-0.56,0.17-0.95c0-0.4-0.05-0.73-0.17-0.98
			c-0.11-0.25-0.27-0.46-0.46-0.62c-0.2-0.16-0.43-0.27-0.69-0.33c-0.26-0.06-0.54-0.09-0.83-0.09h-2.7v3.94H143.81z"/>
		<path class="st0" d="M158.98,21.8l0.19,2.54h-2.47l-0.1-0.64c-0.3,0.19-0.65,0.35-1.03,0.47c-0.69,0.26-1.35,0.39-2,0.39
			c-0.61,0-1.1-0.08-1.5-0.24c-0.39-0.16-0.7-0.38-0.92-0.66c-0.22-0.28-0.37-0.63-0.46-1.04c-0.09-0.41-0.13-0.87-0.13-1.36V14.9
			h2.68v5.79c0,0.26,0.01,0.5,0.03,0.71c0.02,0.21,0.07,0.4,0.14,0.57c0.08,0.16,0.2,0.29,0.36,0.39c0.17,0.09,0.39,0.14,0.68,0.14
			c0.44,0,0.81-0.05,1.11-0.17c0.28-0.11,0.52-0.24,0.74-0.39V14.9h2.68V21.8z"/>
		<path class="st0" d="M164.42,18.28c0.08,0.04,0.2,0.08,0.35,0.12c0.15,0.04,0.31,0.09,0.48,0.14c0.17,0.05,0.34,0.11,0.49,0.16
			c0.16,0.05,0.29,0.08,0.4,0.11c0.32,0.1,0.62,0.21,0.91,0.34c0.29,0.13,0.54,0.3,0.75,0.52c0.21,0.21,0.38,0.47,0.5,0.76
			c0.12,0.29,0.19,0.66,0.19,1.1c0,1-0.36,1.76-1.09,2.27c-0.73,0.51-1.74,0.76-3.03,0.76c-0.85,0-1.58-0.07-2.18-0.21
			c-0.61-0.14-1.17-0.31-1.69-0.51l0.81-1.88c0.38,0.21,0.83,0.37,1.34,0.49c0.51,0.12,1.08,0.19,1.71,0.19
			c0.49,0,0.88-0.07,1.16-0.2c0.27-0.13,0.41-0.35,0.41-0.65c0-0.41-0.42-0.75-1.26-1.01c-0.29-0.08-0.58-0.17-0.89-0.26
			c-0.3-0.09-0.58-0.17-0.83-0.24c-0.32-0.11-0.62-0.23-0.9-0.37c-0.29-0.14-0.54-0.31-0.75-0.53c-0.21-0.21-0.38-0.46-0.49-0.75
			c-0.12-0.29-0.17-0.63-0.17-1.03c0-0.99,0.37-1.73,1.1-2.22c0.73-0.49,1.74-0.73,3-0.73c0.8,0,1.49,0.06,2.08,0.19
			c0.59,0.12,1.15,0.3,1.67,0.52l-0.78,1.88c-0.4-0.22-0.85-0.39-1.36-0.52c-0.51-0.12-1.04-0.19-1.61-0.19
			c-0.51,0-0.9,0.07-1.18,0.2c-0.28,0.13-0.41,0.33-0.41,0.59c0,0.22,0.1,0.4,0.31,0.55C163.66,18.02,163.98,18.15,164.42,18.28z"/>
		<path class="st0" d="M170.04,10.75h2.72v2.14h-2.72V10.75z M170.06,14.9h2.68v9.44h-2.68V14.9z"/>
		<path class="st0" d="M177.1,14.9l0.06,0.66c0.32-0.21,0.66-0.38,1.03-0.52c0.73-0.25,1.41-0.37,2.04-0.37
			c0.62,0,1.13,0.08,1.52,0.24c0.39,0.16,0.71,0.38,0.95,0.66c0.24,0.28,0.41,0.62,0.49,1.03c0.09,0.41,0.14,0.86,0.14,1.37v6.37
			h-2.68v-5.79c0-0.23-0.01-0.46-0.03-0.68c-0.02-0.22-0.07-0.41-0.16-0.58c-0.08-0.17-0.21-0.29-0.38-0.39
			c-0.17-0.1-0.41-0.15-0.71-0.15c-0.42,0-0.8,0.06-1.13,0.17c-0.29,0.11-0.54,0.24-0.76,0.39v7.03h-2.68v-6.91l-0.18-2.53H177.1z"
			/>
		<path class="st0" d="M189.63,24.56c-1.75,0-2.97-0.42-3.67-1.27c-0.7-0.85-1.05-2.09-1.05-3.74c0-3.26,1.56-4.89,4.68-4.89
			c0.87,0,1.57,0.12,2.11,0.35c0.55,0.23,0.97,0.56,1.27,0.97c0.3,0.41,0.51,0.9,0.63,1.46c0.12,0.55,0.18,1.17,0.18,1.84v0.97
			h-6.12c0,0.65,0.12,1.18,0.37,1.59c0.34,0.55,1.02,0.82,2.04,0.82c0.74,0,1.33-0.08,1.78-0.26c0.45-0.17,0.87-0.35,1.27-0.52
			l0.49,1.67c-0.19,0.12-0.43,0.24-0.72,0.35c-0.29,0.11-0.61,0.22-0.97,0.32c-0.36,0.1-0.73,0.19-1.12,0.25
			C190.4,24.53,190.01,24.56,189.63,24.56z M190.99,18.5c0-0.66-0.11-1.18-0.33-1.55c-0.22-0.37-0.59-0.56-1.11-0.56
			c-0.41,0-0.75,0.07-1,0.2c-0.26,0.13-0.46,0.32-0.6,0.58c-0.14,0.25-0.23,0.57-0.26,0.94c-0.02,0.11-0.02,0.24-0.02,0.39H190.99z"
			/>
		<path class="st0" d="M198.81,18.28c0.08,0.04,0.2,0.08,0.35,0.12c0.15,0.04,0.31,0.09,0.48,0.14c0.17,0.05,0.34,0.11,0.49,0.16
			c0.16,0.05,0.29,0.08,0.4,0.11c0.31,0.1,0.62,0.21,0.91,0.34c0.29,0.13,0.54,0.3,0.75,0.52c0.21,0.21,0.38,0.47,0.5,0.76
			c0.13,0.29,0.19,0.66,0.19,1.1c0,1-0.36,1.76-1.09,2.27c-0.73,0.51-1.74,0.76-3.03,0.76c-0.85,0-1.58-0.07-2.18-0.21
			c-0.6-0.14-1.17-0.31-1.69-0.51l0.8-1.88c0.38,0.21,0.83,0.37,1.34,0.49c0.51,0.12,1.08,0.19,1.71,0.19c0.49,0,0.88-0.07,1.15-0.2
			c0.28-0.13,0.41-0.35,0.41-0.65c0-0.41-0.42-0.75-1.26-1.01c-0.29-0.08-0.58-0.17-0.89-0.26c-0.3-0.09-0.58-0.17-0.82-0.24
			c-0.32-0.11-0.62-0.23-0.9-0.37c-0.29-0.14-0.54-0.31-0.75-0.53c-0.21-0.21-0.38-0.46-0.49-0.75c-0.12-0.29-0.18-0.63-0.18-1.03
			c0-0.99,0.37-1.73,1.1-2.22c0.74-0.49,1.74-0.73,3-0.73c0.8,0,1.49,0.06,2.08,0.19c0.59,0.12,1.15,0.3,1.67,0.52l-0.78,1.88
			c-0.4-0.22-0.85-0.39-1.36-0.52c-0.51-0.12-1.04-0.19-1.61-0.19c-0.51,0-0.9,0.07-1.17,0.2c-0.28,0.13-0.41,0.33-0.41,0.59
			c0,0.22,0.1,0.4,0.31,0.55C198.05,18.02,198.37,18.15,198.81,18.28z"/>
		<path class="st0" d="M207.79,18.28c0.08,0.04,0.2,0.08,0.35,0.12c0.15,0.04,0.31,0.09,0.48,0.14c0.17,0.05,0.34,0.11,0.49,0.16
			c0.16,0.05,0.29,0.08,0.4,0.11c0.32,0.1,0.62,0.21,0.91,0.34c0.29,0.13,0.54,0.3,0.75,0.52c0.21,0.21,0.38,0.47,0.5,0.76
			c0.13,0.29,0.19,0.66,0.19,1.1c0,1-0.36,1.76-1.09,2.27c-0.73,0.51-1.74,0.76-3.03,0.76c-0.85,0-1.58-0.07-2.19-0.21
			c-0.6-0.14-1.17-0.31-1.69-0.51l0.81-1.88c0.38,0.21,0.83,0.37,1.34,0.49c0.51,0.12,1.08,0.19,1.71,0.19
			c0.49,0,0.88-0.07,1.16-0.2c0.27-0.13,0.41-0.35,0.41-0.65c0-0.41-0.42-0.75-1.26-1.01c-0.29-0.08-0.58-0.17-0.89-0.26
			c-0.3-0.09-0.58-0.17-0.82-0.24c-0.32-0.11-0.62-0.23-0.91-0.37c-0.29-0.14-0.54-0.31-0.75-0.53c-0.21-0.21-0.38-0.46-0.5-0.75
			c-0.12-0.29-0.18-0.63-0.18-1.03c0-0.99,0.37-1.73,1.1-2.22c0.73-0.49,1.74-0.73,3-0.73c0.8,0,1.49,0.06,2.08,0.19
			c0.59,0.12,1.15,0.3,1.67,0.52l-0.78,1.88c-0.4-0.22-0.85-0.39-1.36-0.52c-0.51-0.12-1.04-0.19-1.61-0.19
			c-0.51,0-0.9,0.07-1.17,0.2c-0.28,0.13-0.41,0.33-0.41,0.59c0,0.22,0.1,0.4,0.31,0.55C207.03,18.02,207.35,18.15,207.79,18.28z"/>
		<path class="st0" d="M144.02,37.74c-0.54-0.26-1.11-0.49-1.71-0.69c-0.6-0.2-1.2-0.42-1.79-0.67c-0.44-0.21-0.82-0.41-1.13-0.62
			c-0.32-0.21-0.58-0.45-0.79-0.73c-0.21-0.28-0.37-0.61-0.48-0.97c-0.11-0.36-0.18-0.8-0.18-1.31c0-1.21,0.45-2.16,1.33-2.84
			c0.89-0.69,2.17-1.03,3.84-1.03c0.72,0,1.48,0.08,2.3,0.24c0.82,0.16,1.54,0.41,2.18,0.77l-0.93,2.02
			c-0.44-0.26-0.97-0.48-1.59-0.64c-0.62-0.16-1.26-0.25-1.94-0.25c-0.88,0-1.51,0.14-1.9,0.41c-0.38,0.28-0.58,0.64-0.58,1.09
			s0.15,0.8,0.43,1.03c0.29,0.23,0.58,0.41,0.87,0.53c0.45,0.19,0.99,0.4,1.61,0.62c0.62,0.22,1.2,0.46,1.75,0.7
			c0.33,0.17,0.64,0.34,0.94,0.53c0.29,0.19,0.55,0.42,0.77,0.69c0.22,0.28,0.39,0.6,0.52,0.98c0.13,0.38,0.2,0.84,0.2,1.37
			c0,1.21-0.47,2.16-1.4,2.87c-0.93,0.7-2.22,1.05-3.86,1.05c-0.74,0-1.53-0.09-2.37-0.27c-0.84-0.18-1.64-0.46-2.41-0.85l1.01-2.04
			c0.63,0.32,1.25,0.55,1.84,0.71c0.6,0.16,1.23,0.23,1.89,0.23c0.95,0,1.62-0.15,2.02-0.45c0.4-0.3,0.6-0.67,0.6-1.11
			c0-0.19-0.04-0.37-0.11-0.53c-0.08-0.16-0.17-0.29-0.28-0.4c-0.11-0.11-0.23-0.2-0.35-0.28C144.2,37.84,144.1,37.78,144.02,37.74z
			"/>
		<path class="st0" d="M153.61,42.89c-0.86,0-1.59-0.12-2.17-0.35c-0.58-0.23-1.05-0.57-1.4-1c-0.35-0.43-0.59-0.95-0.73-1.56
			c-0.14-0.6-0.21-1.3-0.21-2.08c0-1.63,0.4-2.86,1.19-3.68c0.79-0.82,2.04-1.23,3.76-1.23c0.88,0,1.61,0.12,2.18,0.35
			c0.58,0.23,1.04,0.56,1.39,0.99c0.35,0.43,0.6,0.95,0.75,1.57c0.15,0.62,0.23,1.32,0.23,2.1c0,1.64-0.4,2.86-1.21,3.67
			C156.59,42.48,155.33,42.89,153.61,42.89z M153.61,41.08c0.88,0,1.48-0.28,1.79-0.83c0.32-0.55,0.47-1.36,0.47-2.43
			c0-0.41-0.03-0.8-0.08-1.16c-0.06-0.36-0.15-0.69-0.28-0.97c-0.13-0.28-0.32-0.5-0.56-0.66c-0.24-0.16-0.54-0.24-0.92-0.24
			c-0.87,0-1.45,0.28-1.76,0.84c-0.31,0.56-0.46,1.37-0.46,2.44c0,0.41,0.02,0.8,0.07,1.16c0.05,0.36,0.14,0.69,0.28,0.96
			c0.14,0.28,0.32,0.49,0.55,0.65C152.94,41,153.24,41.08,153.61,41.08z"/>
		<path class="st0" d="M163.94,42.72c-0.07,0.02-0.14,0.02-0.23,0.02c-0.07,0.01-0.15,0.02-0.25,0.02h-0.23
			c-0.58,0-1.06-0.07-1.45-0.21c-0.39-0.14-0.7-0.34-0.94-0.61c-0.24-0.27-0.4-0.6-0.51-0.98c-0.1-0.38-0.15-0.82-0.15-1.32V28.69
			l2.66-0.35v11.26c0,0.27,0.02,0.5,0.05,0.67c0.04,0.17,0.09,0.3,0.17,0.39c0.08,0.09,0.2,0.15,0.34,0.17
			c0.14,0.03,0.32,0.04,0.52,0.04V42.72z"/>
		<path class="st0" d="M173.53,40.13l0.19,2.54h-2.47l-0.1-0.64c-0.3,0.19-0.65,0.35-1.03,0.47c-0.69,0.26-1.36,0.39-2,0.39
			c-0.6,0-1.1-0.08-1.49-0.24c-0.39-0.16-0.7-0.38-0.92-0.66c-0.22-0.28-0.37-0.63-0.46-1.04c-0.09-0.41-0.13-0.87-0.13-1.36v-6.37
			h2.68v5.8c0,0.26,0.01,0.5,0.03,0.71c0.02,0.21,0.07,0.4,0.14,0.57c0.08,0.17,0.2,0.3,0.36,0.39c0.17,0.1,0.39,0.15,0.68,0.15
			c0.44,0,0.81-0.05,1.11-0.16c0.28-0.11,0.52-0.24,0.74-0.39v-7.05h2.68V40.13z"/>
		<path class="st0" d="M179.03,35.18v3.88c0,0.23,0.01,0.46,0.03,0.67c0.02,0.21,0.07,0.4,0.16,0.57c0.08,0.17,0.2,0.3,0.37,0.39
			c0.16,0.1,0.39,0.15,0.68,0.15c0.38,0,0.73-0.04,1.05-0.12c0.32-0.08,0.62-0.2,0.91-0.35l0.41,1.77
			c-0.96,0.51-2.04,0.76-3.23,0.76c-0.61,0-1.11-0.08-1.51-0.24c-0.4-0.16-0.71-0.38-0.93-0.66c-0.22-0.28-0.37-0.62-0.46-1.03
			c-0.09-0.4-0.13-0.85-0.13-1.35v-4.43h-1.61v-1.73l1.59-0.19v-1.81l2.68-0.47v2.25h3.24v1.96H179.03z"/>
		<path class="st0" d="M183.84,29.08h2.72v2.15h-2.72V29.08z M183.86,33.22h2.68v9.44h-2.68V33.22z"/>
		<path class="st0" d="M192.7,42.89c-0.87,0-1.59-0.12-2.17-0.35c-0.58-0.23-1.05-0.57-1.4-1c-0.35-0.43-0.59-0.95-0.73-1.56
			c-0.14-0.6-0.21-1.3-0.21-2.08c0-1.63,0.4-2.86,1.18-3.68c0.79-0.82,2.05-1.23,3.76-1.23c0.88,0,1.61,0.12,2.18,0.35
			c0.58,0.23,1.04,0.56,1.39,0.99c0.35,0.43,0.6,0.95,0.75,1.57c0.15,0.62,0.22,1.32,0.22,2.1c0,1.64-0.4,2.86-1.21,3.67
			C195.68,42.48,194.42,42.89,192.7,42.89z M192.7,41.08c0.88,0,1.48-0.28,1.79-0.83c0.32-0.55,0.48-1.36,0.48-2.43
			c0-0.41-0.03-0.8-0.08-1.16c-0.05-0.36-0.15-0.69-0.28-0.97c-0.13-0.28-0.32-0.5-0.56-0.66c-0.24-0.16-0.55-0.24-0.92-0.24
			c-0.87,0-1.46,0.28-1.76,0.84c-0.31,0.56-0.46,1.37-0.46,2.44c0,0.41,0.02,0.8,0.07,1.16c0.05,0.36,0.14,0.69,0.28,0.96
			c0.13,0.28,0.32,0.49,0.54,0.65C192.03,41,192.33,41.08,192.7,41.08z"/>
		<path class="st0" d="M201.62,33.22l0.06,0.66c0.32-0.21,0.66-0.38,1.03-0.52c0.73-0.25,1.41-0.37,2.04-0.37
			c0.62,0,1.12,0.08,1.51,0.24c0.39,0.16,0.71,0.38,0.95,0.66c0.24,0.28,0.41,0.63,0.5,1.03c0.09,0.41,0.13,0.86,0.13,1.37v6.37
			h-2.68v-5.79c0-0.23-0.01-0.46-0.03-0.68c-0.02-0.22-0.07-0.41-0.15-0.58c-0.08-0.16-0.21-0.3-0.38-0.39
			c-0.17-0.1-0.41-0.14-0.71-0.14c-0.43,0-0.8,0.06-1.14,0.17c-0.29,0.11-0.54,0.24-0.76,0.39v7.03h-2.68v-6.91l-0.19-2.54H201.62z"
			/>
		<path class="st0" d="M213.19,36.6c0.08,0.04,0.2,0.08,0.35,0.12c0.15,0.04,0.31,0.09,0.48,0.15c0.17,0.05,0.34,0.11,0.49,0.16
			c0.16,0.05,0.29,0.08,0.4,0.11c0.32,0.09,0.62,0.21,0.91,0.34c0.29,0.13,0.54,0.3,0.75,0.52c0.21,0.21,0.38,0.47,0.51,0.76
			c0.12,0.3,0.19,0.66,0.19,1.1c0,1-0.37,1.76-1.09,2.27c-0.73,0.51-1.74,0.76-3.03,0.76c-0.85,0-1.58-0.07-2.19-0.21
			c-0.61-0.14-1.17-0.31-1.69-0.52l0.8-1.87c0.38,0.21,0.83,0.37,1.34,0.5c0.51,0.12,1.08,0.18,1.71,0.18c0.5,0,0.88-0.06,1.16-0.2
			c0.27-0.13,0.41-0.35,0.41-0.65c0-0.41-0.42-0.75-1.26-1.01c-0.29-0.08-0.58-0.17-0.89-0.26c-0.3-0.09-0.58-0.17-0.82-0.24
			c-0.32-0.11-0.62-0.24-0.91-0.37c-0.29-0.14-0.54-0.31-0.75-0.53c-0.21-0.21-0.38-0.46-0.49-0.75c-0.12-0.29-0.18-0.63-0.18-1.03
			c0-0.99,0.37-1.73,1.1-2.22c0.74-0.49,1.73-0.73,3-0.73c0.8,0,1.49,0.06,2.09,0.19c0.59,0.12,1.15,0.3,1.67,0.52l-0.78,1.88
			c-0.4-0.22-0.85-0.39-1.36-0.51c-0.51-0.13-1.05-0.19-1.61-0.19c-0.5,0-0.9,0.07-1.17,0.2c-0.28,0.13-0.41,0.33-0.41,0.59
			c0,0.22,0.1,0.4,0.31,0.55C212.43,36.34,212.75,36.48,213.19,36.6z"/>
	</g>
	<g>
		<g>
			<polygon class="st0" points="69.57,10.71 62.2,10.71 62.2,42.64 84.85,42.64 84.85,36.42 69.57,36.42 			"/>
			<g>
				<path class="st0" d="M101.08,30.47h6.01v5.58c-1.11,0.42-3.26,0.85-5.32,0.85c-6.64,0-8.85-3.37-8.85-10.22
					c0-6.53,2.11-10.38,8.74-10.38c3.69,0,5.8,1.16,7.53,3.37l4.59-4.22c-2.8-4-7.7-5.21-12.28-5.21
					c-10.33,0-15.75,5.64-15.75,16.38c0,10.7,4.9,16.49,15.7,16.49c4.95,0,9.8-1.26,12.43-3.11V24.52h-12.8V30.47z"/>
			</g>
		</g>
		<g>
			
				<radialGradient id="SVGID_1_" cx="-302.6971" cy="332.6025" r="0.8062" gradientTransform="matrix(31.9334 0 0 -31.9334 9691.6904 10647.1855)" gradientUnits="userSpaceOnUse">
				<stop  offset="0" style="stop-color:#C00C3F"/>
				<stop  offset="0.5" style="stop-color:#C00C3F"/>
				<stop  offset="0.7363" style="stop-color:#BF0C3E"/>
				<stop  offset="0.8358" style="stop-color:#B90A3B"/>
				<stop  offset="0.9094" style="stop-color:#B00737"/>
				<stop  offset="0.9701" style="stop-color:#A30330"/>
				<stop  offset="1" style="stop-color:#9A002B"/>
			</radialGradient>
			<path class="st1" d="M26.45,2.12c-13.62,0-24.68,11.05-24.68,24.69c0,13.64,11.06,24.69,24.68,24.69
				c13.59,0,24.61-10.95,24.71-24.5v-0.39C51.05,13.07,40.04,2.12,26.45,2.12z"/>
			<linearGradient id="SVGID_2_" gradientUnits="userSpaceOnUse" x1="16.3463" y1="5.3077" x2="29.3749" y2="41.1035">
				<stop  offset="0" style="stop-color:#F48996"/>
				<stop  offset="0.0112" style="stop-color:#F28693"/>
				<stop  offset="0.263" style="stop-color:#DB5A69"/>
				<stop  offset="0.4875" style="stop-color:#CC3750"/>
				<stop  offset="0.6746" style="stop-color:#C31B43"/>
				<stop  offset="0.8011" style="stop-color:#C00C3F"/>
				<stop  offset="1" style="stop-color:#C00C3F"/>
			</linearGradient>
			<path class="st2" d="M9.74,10.1C1.49,18.35,0.65,30.93,7.9,38.17c7.25,7.24,19.81,6.41,28.06-1.84
				c8.27-8.27,9.1-20.84,1.86-28.09C34.51,4.93,30.1,3.3,25.48,3.3C19.99,3.3,14.23,5.6,9.74,10.1"/>
			<linearGradient id="SVGID_3_" gradientUnits="userSpaceOnUse" x1="9.9816" y1="14.1549" x2="39.8659" y2="44.0392">
				<stop  offset="0" style="stop-color:#CE425C"/>
				<stop  offset="0.0902" style="stop-color:#BD3551"/>
				<stop  offset="0.2501" style="stop-color:#A82242"/>
				<stop  offset="0.431" style="stop-color:#9B1338"/>
				<stop  offset="0.6483" style="stop-color:#930933"/>
				<stop  offset="1" style="stop-color:#910531"/>
			</linearGradient>
			<path class="st3" d="M25.18,37.88l0.61-0.35l0-20.86l-0.15-0.24l0.15-0.05v-0.03h0.1l1.85-0.63l0.33,0.57
				c0,0,0.05,0.05,0.05,0.16l-0.02,19h4.49L32.95,36c0.03,0.04,0.05,0.09,0.05,0.23v1.91c0,0.1-0.06,0.15-0.14,0.16H26
				c-0.16,0-0.31-0.08-0.34-0.1L25.18,37.88z M47.46,25.67l-15.27,0.01v2.44l0.38,0.51l0,0c0,0,0.05,0.05,0.13,0.05h11.64h1.12h0
				h0.01c-0.66,9.67-8.81,17.23-18.55,17.23c-4.96,0-9.63-1.93-13.15-5.42c-3.51-3.49-5.43-8.13-5.43-13.06
				c0-4.94,1.83-9.67,5.33-13.16c3.53-3.48,7.96-5.31,13.28-5.43l1-0.01h0.11c0.07-0.01,0.13-0.01,0.13-0.16V6.66
				c0-0.14-0.05-0.21-0.05-0.21l-0.45-0.57l-1.02,0.14L26.16,6.2c-11.6,0-20.3,9.69-20.3,21.24c0,5.59,2.19,10.85,6.17,14.8
				c3.97,3.96,9.23,5.96,14.85,5.96c5.64,0,10.94-2.13,14.91-6.08c3.98-3.96,6.17-9.21,6.17-14.8v-1.21L47.46,25.67z M18.88,16
				c-1.84,0-3.32,1.48-3.32,3.3c0,1.82,1.49,3.29,3.32,3.29c1.83,0,3.32-1.48,3.32-3.29C22.2,17.49,20.72,16,18.88,16z"/>
			<polygon class="st4" points="25.68,37.4 25.18,37.88 32.59,37.88 32.11,37.38 			"/>
			<polygon class="st5" points="32.11,35.91 32.59,35.44 27.74,35.44 27.16,35.91 			"/>
			<polygon class="st6" points="27.74,15.72 25.18,15.72 25.66,16.17 27.19,16.17 			"/>
			<linearGradient id="SVGID_4_" gradientUnits="userSpaceOnUse" x1="27.1916" y1="25.7937" x2="27.7387" y2="25.7937">
				<stop  offset="0" style="stop-color:#B5BEC4"/>
				<stop  offset="0.1753" style="stop-color:#99A2A9"/>
				<stop  offset="0.569" style="stop-color:#646C74"/>
				<stop  offset="0.8544" style="stop-color:#424950"/>
				<stop  offset="1" style="stop-color:#333940"/>
			</linearGradient>
			<polygon class="st7" points="27.21,35.87 27.74,35.44 27.74,15.72 27.19,16.17 			"/>
			<linearGradient id="SVGID_5_" gradientUnits="userSpaceOnUse" x1="32.1056" y1="36.6595" x2="32.587" y2="36.6595">
				<stop  offset="0" style="stop-color:#B4BCC2"/>
				<stop  offset="0.1351" style="stop-color:#989FA4"/>
				<stop  offset="0.548" style="stop-color:#585D61"/>
				<stop  offset="0.8473" style="stop-color:#373E41"/>
				<stop  offset="1" style="stop-color:#2B3337"/>
			</linearGradient>
			<polygon class="st8" points="32.11,35.91 32.11,37.38 32.59,37.88 32.59,35.44 			"/>
			<polygon class="st9" points="25.18,15.72 25.18,37.88 25.68,37.4 25.66,16.17 			"/>
			<path class="st10" d="M15.82,18.93c0,1.51,1.23,2.73,2.75,2.73c1.51,0,2.74-1.22,2.74-2.73c0-1.51-1.23-2.74-2.74-2.74
				C17.05,16.19,15.82,17.41,15.82,18.93z"/>
			
				<linearGradient id="SVGID_6_" gradientUnits="userSpaceOnUse" x1="-304.3269" y1="349.7218" x2="-303.7651" y2="349.7218" gradientTransform="matrix(8.1027 8.1027 8.1027 -8.1027 -351.5356 5316.2002)">
				<stop  offset="0" style="stop-color:#ABBAC3"/>
				<stop  offset="1" style="stop-color:#202428"/>
			</linearGradient>
			<path class="st11" d="M15.35,18.93c0,1.77,1.44,3.21,3.22,3.21c1.78,0,3.22-1.44,3.22-3.21c0-1.78-1.44-3.22-3.22-3.22
				C16.79,15.71,15.35,17.15,15.35,18.93z M21.31,18.93c0,1.51-1.23,2.73-2.74,2.73c-1.52,0-2.75-1.22-2.75-2.73
				c0-1.51,1.23-2.74,2.75-2.74C20.08,16.19,21.31,17.41,21.31,18.93z"/>
			<polygon class="st12" points="45.37,27.57 32.57,27.55 32.1,28.05 44.88,28.05 45.14,27.79 			"/>
			<polygon class="st13" points="27.69,8.35 27.69,8.35 27.69,8.35 			"/>
			<polygon class="st14" points="32.57,26.11 46.89,26.08 47.37,25.6 32.1,25.6 			"/>
			
				<linearGradient id="SVGID_7_" gradientUnits="userSpaceOnUse" x1="-307.1036" y1="325.4148" x2="-306.5417" y2="325.4148" gradientTransform="matrix(53.1048 53.1048 53.1048 -53.1048 -962.657 33603.5859)">
				<stop  offset="0" style="stop-color:#B5BEC4"/>
				<stop  offset="1" style="stop-color:#3E454D"/>
			</linearGradient>
			<path class="st15" d="M47.37,26.8V25.6l-0.48,0.49v0.72c0,5.46-2.12,10.59-5.98,14.46c-3.85,3.86-9,5.99-14.47,5.99
				c-5.45,0-10.59-2.13-14.44-5.99c-3.86-3.87-5.99-9-5.99-14.46c0-11.28,9.16-20.45,20.43-20.45l0.78-0.01l0.48-0.46l-1.26-0.01
				c-11.52,0-20.91,9.39-20.91,20.93c0,5.59,2.18,10.84,6.13,14.8c3.94,3.95,9.2,6.13,14.78,6.13c5.6,0,10.87-2.18,14.81-6.13
				C45.2,37.65,47.37,32.39,47.37,26.8z"/>
			
				<linearGradient id="SVGID_8_" gradientUnits="userSpaceOnUse" x1="-311.1809" y1="317.7302" x2="-310.619" y2="317.7302" gradientTransform="matrix(-67.4051 0 0 67.4051 -20929.8008 -21389.8242)">
				<stop  offset="0" style="stop-color:#B5BEC4"/>
				<stop  offset="1" style="stop-color:#485059"/>
			</linearGradient>
			<path class="st16" d="M27.22,7.86l-0.54-0.01h-0.51c-4.95,0.07-9.59,2.04-13.13,5.55C9.47,16.98,7.5,21.74,7.5,26.8
				c0,5.07,1.97,9.82,5.54,13.4c3.53,3.53,8.2,5.5,13.16,5.56h0.49c9.83-0.12,18.01-7.85,18.67-17.68l0.02-0.52l-0.24,0.22
				l-0.25,0.26c-0.66,9.66-8.76,17.23-18.43,17.23c-4.93,0-9.57-1.93-13.06-5.42c-3.48-3.49-5.4-8.13-5.4-13.06
				c0-4.94,1.91-9.58,5.4-13.07c3.5-3.48,8.14-5.4,13.06-5.4l1.24,0.01L27.22,7.86z"/>
			<path class="st13" d="M27.69,8.34"/>
			
				<linearGradient id="SVGID_9_" gradientUnits="userSpaceOnUse" x1="-310.9185" y1="317.4562" x2="-310.9185" y2="317.4562" gradientTransform="matrix(-67.4051 0 0 67.4051 -20929.8008 -21389.8242)">
				<stop  offset="0" style="stop-color:#A9B8C1"/>
				<stop  offset="1" style="stop-color:#0B2028"/>
			</linearGradient>
			<path class="st17" d="M27.69,8.34"/>
			<polygon class="st9" points="32.57,26.11 32.1,25.6 32.1,28.05 32.57,27.55 			"/>
			<linearGradient id="SVGID_10_" gradientUnits="userSpaceOnUse" x1="27.2166" y1="7.1135" x2="27.6947" y2="7.1135">
				<stop  offset="0" style="stop-color:#B4BCC2"/>
				<stop  offset="0.1351" style="stop-color:#989FA4"/>
				<stop  offset="0.548" style="stop-color:#585D61"/>
				<stop  offset="0.8473" style="stop-color:#373E41"/>
				<stop  offset="1" style="stop-color:#2B3337"/>
			</linearGradient>
			<polygon class="st18" points="27.22,7.87 27.69,8.35 27.69,5.88 27.22,6.34 			"/>
			
				<radialGradient id="SVGID_11_" cx="-8.1397" cy="-514.0924" r="45.336" gradientTransform="matrix(0.6971 0 0 0.6971 23.7827 376.425)" gradientUnits="userSpaceOnUse">
				<stop  offset="0" style="stop-color:#FFFFFF"/>
				<stop  offset="0.35" style="stop-color:#FFFFFF"/>
				<stop  offset="0.5295" style="stop-color:#F6F8F9"/>
				<stop  offset="0.7147" style="stop-color:#E6EBEF"/>
				<stop  offset="0.902" style="stop-color:#CFD9DE"/>
				<stop  offset="1" style="stop-color:#C0CCD3"/>
			</radialGradient>
			<path class="st19" d="M25.45,15.98v21.64h6.88v-1.93h-4.91V15.98H25.45z M26.17,6.13C14.92,6.27,5.78,15.49,5.78,26.8
				c0,5.52,2.15,10.71,6.05,14.61c3.9,3.91,9.09,6.06,14.6,6.06c5.54,0,10.73-2.15,14.63-6.06c3.9-3.91,6.05-9.09,6.05-14.61v-0.94
				l-0.82,0H32.35v1.92h12.79c0,0.04,0,0.24-0.01,0.28c-0.66,9.74-8.78,17.48-18.69,17.48c-5,0-9.7-1.95-13.25-5.49
				c-3.53-3.53-5.48-8.24-5.48-13.25c0-5.01,1.95-9.72,5.48-13.25c3.55-3.53,8.25-5.48,13.25-5.48c0.21,0,0.75,0,0.99,0V6.14
				c-0.19,0-0.52-0.01-0.77-0.01H26.17z"/>
			
				<radialGradient id="SVGID_12_" cx="-9.2571" cy="-514.4038" r="6.6217" gradientTransform="matrix(0.6971 0 0 0.6971 23.7827 376.425)" gradientUnits="userSpaceOnUse">
				<stop  offset="0" style="stop-color:#FFFFFF"/>
				<stop  offset="0.35" style="stop-color:#FFFFFF"/>
				<stop  offset="0.5653" style="stop-color:#F6F8F9"/>
				<stop  offset="0.7879" style="stop-color:#E6EBEF"/>
				<stop  offset="1" style="stop-color:#D0DADF"/>
			</radialGradient>
			<path class="st20" d="M15.59,18.93c0,1.63,1.34,2.95,2.97,2.95c1.63,0,2.96-1.32,2.96-2.95c0-1.65-1.33-2.96-2.96-2.96
				C16.93,15.96,15.59,17.28,15.59,18.93"/>
			<g>
				<path class="st21" d="M19.09,16.5c0.68,0,1.3,0.24,1.8,0.63c-0.54-0.7-1.38-1.16-2.33-1.16c-1.63,0-2.97,1.32-2.97,2.96
					c0,0.95,0.46,1.78,1.15,2.31c-0.38-0.49-0.62-1.1-0.62-1.78C16.12,17.82,17.46,16.5,19.09,16.5"/>
				<path class="st21" d="M27.42,6.14c-0.26-0.01-0.75-0.01-1-0.01c-11.37,0-20.65,9.28-20.65,20.67c0,5.53,2.15,10.71,6.05,14.62
					c0.13,0.12,0.25,0.24,0.38,0.37C8.53,37.92,6.5,32.89,6.5,27.53C6.5,16.16,14.55,6.71,27.42,6.14"/>
				<path class="st21" d="M27.42,35.69c0,0,1.42,0.41,4.91,0.41v-0.41H27.42z"/>
				<path class="st21" d="M27.42,16.59v-0.61h-1.97v21.64c0,0,0.61-3.29,0.61-21.03H27.42z"/>
				<path class="st21" d="M47.1,25.86l-14.75,0v1.92h0.54V26.4C45.74,26.4,47.1,25.86,47.1,25.86"/>
				<path class="st21" d="M45.14,27.79c0,0.04,0,0.25-0.01,0.28c-0.66,9.73-8.78,17.47-18.69,17.47c-5,0-9.7-1.95-13.25-5.49
					c-2.31-2.31-3.94-5.12-4.79-8.19c2.22,8.07,9.6,13.92,18.36,13.92c9.41,0,18.09-7.37,18.63-17.98H45.14z"/>
			</g>
		</g>
	</g>
	<rect x="131.15" y="10.71" class="st22" width="1.48" height="31.93"/>
</g>
</svg>
