<?xml version="1.0" encoding="utf-8"?>
<!-- Generator: Adobe Illustrator 23.0.0, SVG Export Plug-In . SVG Version: 6.00 Build 0)  -->
<svg version="1.1" id="Layer_1" xmlns="http://www.w3.org/2000/svg" xmlns:xlink="http://www.w3.org/1999/xlink" x="0px" y="0px"
	 viewBox="0 0 168.15 44.87" style="enable-background:new 0 0 168.15 44.87;" xml:space="preserve">
<style type="text/css">
	.st0{fill:#C40452;}
	.st1{fill:#77787B;}
</style>
<g>
	<path class="st0" d="M137.43,29.98c0,8.52,5.86,12.78,14.39,12.78c9.59,0,14.39-3.73,14.39-10.12c0-7.1-4.8-8.29-14.39-10.93v-0.02
		c-7.65-2.07-11.72-3.61-11.72-8.76v0.11c0-5.57,4.59-8.1,11.72-8.1c7.13,0,11.72,2.53,11.72,10.12l1.6,0
		c0-8.52-5.33-11.72-13.32-11.72c-8.53,0-13.32,3.2-13.32,9.59c0,6.03,3.73,7.77,13.32,10.42v0.01c7.67,2.07,12.79,3.09,12.79,9.27
		c0,5.59-4.61,8.52-12.79,8.52c-7.16,0-12.79-3.56-12.79-11.18L137.43,29.98z"/>
	<path class="st0" d="M114.52,3.35c-10.89,0-19.71,8.82-19.71,19.71c0,10.88,8.83,19.71,19.71,19.71c10.89,0,19.72-8.82,19.72-19.71
		C134.23,12.17,125.4,3.35,114.52,3.35 M114.52,41.13c-10.01,0-18.12-8.1-18.12-18.08c0-9.99,8.11-18.08,18.12-18.08
		c10,0,18.12,8.1,18.12,18.08C132.63,33.04,124.52,41.13,114.52,41.13"/>
	<path class="st1" d="M79.88,14c-4.78,0-8.25,2.19-10.12,6.15V4.41h-1.6v23.97h1.6c0-8.03,3.68-12.76,10.12-12.76
		c6.44,0,10.12,4.72,10.12,12.76c0,8.03-3.68,12.76-10.12,12.76c-5.03,0-8.38-2.88-9.6-7.96h-1.66c1.29,6.11,5.23,9.59,11.26,9.59
		c7.46,0,11.72-5.33,11.72-14.38C91.6,19.33,87.34,14,79.88,14"/>
	<path class="st1" d="M52.17,41.13c-6.44,0-10.12-4.72-10.12-12.76H63.9C63.9,19.33,59.63,14,52.17,14s-11.72,5.33-11.72,14.38
		c0,9.05,4.26,14.38,11.72,14.38c6.03,0,9.97-3.48,11.26-9.59h-1.65C60.55,38.26,57.2,41.13,52.17,41.13 M52.17,15.62
		c6,0,9.61,4.1,10.07,11.16H42.1C42.57,19.73,46.17,15.62,52.17,15.62"/>
	<polygon class="st1" points="37.64,14.53 29.69,39.76 21.73,14.53 19.95,14.53 11.99,39.76 4.04,14.53 2.36,14.53 11.09,42.23 
		12.89,42.23 20.84,17.02 28.79,42.23 30.59,42.23 39.32,14.53 	"/>
</g>
</svg>
