<?xml version="1.0" encoding="utf-8"?>
<!-- Generator: Adobe Illustrator 23.0.0, SVG Export Plug-In . SVG Version: 6.00 Build 0)  -->
<svg version="1.1" id="Layer_1" xmlns="http://www.w3.org/2000/svg" xmlns:xlink="http://www.w3.org/1999/xlink" x="0px" y="0px"
	 viewBox="0 0 101.77 85.02" style="enable-background:new 0 0 101.77 85.02;" xml:space="preserve">
<style type="text/css">
	.st0{fill-rule:evenodd;clip-rule:evenodd;fill:#939598;stroke:#6D6E71;stroke-width:0.625;stroke-miterlimit:10;}
	.st1{fill:#6D6E71;}
	.st2{fill:#6D6E71;stroke:#6D6E71;stroke-width:0.625;stroke-miterlimit:10;}
	.st3{fill:#FFFFFF;}
</style>
<g>
	<g>
		<path class="st0" d="M86.66,78.29c-23.85,5.08-47.47,5.08-71.31,0c-0.33-0.07-0.62-0.28-0.62-0.62V62.41
			c0-0.34,0.29-0.69,0.62-0.63c24.05,4.35,47.26,4.35,71.31,0c0.34-0.06,0.62,0.28,0.62,0.63v15.25
			C87.29,78.01,87,78.22,86.66,78.29L86.66,78.29z"/>
		<path class="st0" d="M94.91,67.49c0.41-0.07,1.02-0.61,0.76-0.89l-5.43-5.95l5.79-7.75c0.28-0.36-0.31-0.7-0.72-0.63L80.33,54.9
			c-0.41,0.07-0.75,0.47-0.76,0.89l-0.16,5.92c2.34-0.34,4.69-0.73,7.03-1.15c1.13-0.2,2.1,0.75,2.1,1.85v6.2L94.91,67.49
			L94.91,67.49z"/>
		<path class="st0" d="M7.1,67.49l6.38,1.12v-6.2c0-1.1,0.97-2.06,2.1-1.85c2.34,0.42,4.69,0.81,7.03,1.15l-0.16-5.92
			c-0.01-0.42-0.36-0.81-0.76-0.89L6.7,52.28c-0.41-0.07-1,0.27-0.72,0.63l5.79,7.75l-5.43,5.95C6.09,66.88,6.7,67.42,7.1,67.49z"/>
	</g>
	<path class="st0" d="M14.12,30.31c0.96-0.68,1.8-1.11,2.78-1.34c3.44-0.81,6.74,0.71,8.02,1.77c0.17,0.15,0.27-0.01,0.41-0.13
		c3.04-2.74,8.43-2.46,14.58-0.93c1.85-1.03,2.86-1.21,4.09-1.47c0.75-0.15,0.77-0.54,1.07-1.16c-1.47-1.58-1.9-3.63-2.37-5.46
		l-0.68-0.4c-0.9-2.48-1.19-4.68-1.08-6.7l0.5-0.38c-0.13-1.84-0.08-5.14,0.8-6.76c1.48-2.73,5.22-4.62,8.2-4.65h1.14
		c2.98,0.03,6.73,1.92,8.2,4.65c0.88,1.62,0.93,4.92,0.8,6.76l0.5,0.38c0.11,2.03-0.17,4.23-1.08,6.7l-0.68,0.4
		c-0.47,1.83-0.9,3.88-2.37,5.46c0.31,0.62,0.33,1,1.07,1.16c1.23,0.25,2.24,0.43,4.09,1.47c6.15-1.53,11.54-1.81,14.58,0.93
		c0.14,0.12,0.23,0.28,0.41,0.13c1.28-1.06,4.58-2.59,8.02-1.77c0.98,0.23,1.82,0.66,2.78,1.34c0.45,0.25,0.98,0.11,0.93-0.44
		c-0.2-2.2,0.1-4.43,0.12-6.61c0.01-1.48-0.17-4.11-0.62-5.51c-0.36,0.23-0.93,0.3-1.35,0.35c-0.72,0.09-1.89-0.32-2.65-0.47
		c-0.3,0.07-0.62,0.08-0.92-0.02c-0.6-0.21-0.96-0.75-1.04-1.38c-0.04-0.27,0.06-0.54,0.19-0.78c-0.12-0.48-0.23-0.99-0.44-1.42
		c-0.61-1.27-0.74-1.52,0.22-2.71c0.54-0.67,1.63-1.74,2.46-1.89c0.72-0.12,1.5-0.11,2.23-0.12c0.46,0,0.62,0.08,1.05,0.2
		c1.33,0.37,2.54,1.04,3.66,1.86c0.4,0.29,1.12,1.5,1.4,1.96c0.29,0.47,0.38,0.65,0.5,1.2c0.96,4.49,2.71,6.81,4.24,10.91
		c0.9,2.42,1.19,6.05,1.1,8.3c-0.06,1.46,0.07,1.28,0.19,2.22c0.19,1.53-0.25,2.42-1.66,2.82c-1.72,0.5-5.5,3.54-7.72,4.6
		c-3.46,1.65-8.1,1.86-11.87,1.54c-1.02-0.09-2.05,0.19-2.64,1.25c-2.26,4.01-5.78,10.72-6.78,15.87c-11.68,1.05-23.27,1.05-34.95,0
		c-1.01-5.14-4.52-11.85-6.78-15.87c-0.6-1.06-1.62-1.33-2.64-1.25c-3.77,0.32-8.4,0.11-11.87-1.54c-2.22-1.06-6-4.1-7.72-4.6
		c-1.42-0.41-1.85-1.29-1.66-2.82c0.12-0.94,0.25-0.76,0.19-2.22c-0.09-2.25,0.2-5.88,1.1-8.3c1.52-4.1,3.27-6.43,4.24-10.91
		c0.12-0.56,0.21-0.73,0.5-1.2c0.28-0.46,1-1.67,1.4-1.96c1.12-0.81,2.33-1.49,3.65-1.86c0.43-0.12,0.59-0.2,1.05-0.2
		c0.73,0,1.51-0.01,2.23,0.12c0.84,0.15,1.92,1.22,2.46,1.89c0.96,1.19,0.83,1.43,0.22,2.71c-0.21,0.44-0.32,0.95-0.44,1.42
		c0.13,0.24,0.23,0.5,0.19,0.78c-0.08,0.63-0.44,1.17-1.04,1.38c-0.29,0.1-0.62,0.08-0.92,0.02c-0.76,0.14-1.93,0.56-2.65,0.47
		c-0.42-0.05-0.99-0.12-1.35-0.35c-0.45,1.4-0.63,4.04-0.62,5.51c0.02,2.18,0.32,4.41,0.12,6.61
		C13.14,30.42,13.67,30.56,14.12,30.31z"/>
	<g>
		<path class="st1" d="M34.28,38.54h1.4v1.7c0.25,0.01,0.53,0.04,0.81,0.07s0.58,0.07,0.87,0.12c0.37,0.06,0.73,0.15,1.07,0.26
			c0.34,0.11,0.66,0.25,0.96,0.41L38.51,43c-0.2-0.1-0.43-0.2-0.67-0.3s-0.51-0.17-0.8-0.24c-0.22-0.06-0.44-0.11-0.66-0.14
			c-0.22-0.03-0.46-0.05-0.7-0.07v3.33c0.28,0.1,0.55,0.21,0.81,0.33c0.26,0.11,0.52,0.23,0.78,0.34c0.32,0.15,0.62,0.32,0.89,0.49
			s0.51,0.38,0.72,0.63c0.2,0.25,0.36,0.54,0.48,0.89c0.11,0.34,0.17,0.77,0.17,1.28c0,1.14-0.43,2.02-1.28,2.64
			c-0.66,0.5-1.52,0.79-2.56,0.88v1.61h-1.4v-1.53c-0.6-0.04-1.21-0.12-1.84-0.23c-0.78-0.15-1.52-0.41-2.22-0.76l0.94-1.89
			c0.57,0.28,1.14,0.49,1.7,0.63c0.22,0.05,0.44,0.09,0.68,0.12c0.24,0.03,0.48,0.05,0.74,0.07v-3.37
			c-0.52-0.18-1.01-0.37-1.47-0.57c-0.4-0.19-0.74-0.39-1.04-0.58c-0.3-0.2-0.55-0.42-0.75-0.68c-0.2-0.25-0.34-0.55-0.44-0.89
			s-0.14-0.74-0.14-1.21c0-1.1,0.41-1.96,1.22-2.58c0.65-0.5,1.52-0.8,2.62-0.92V38.54z M33.48,42.6c-0.34,0.25-0.52,0.58-0.52,0.97
			c0,0.42,0.13,0.74,0.39,0.95c0.26,0.21,0.53,0.38,0.81,0.49l0.11,0.06v-2.75C33.94,42.38,33.67,42.47,33.48,42.6z M36.48,50.69
			c0.37-0.29,0.55-0.63,0.55-1.01c0-0.19-0.04-0.36-0.11-0.5c-0.07-0.14-0.15-0.26-0.25-0.36c-0.1-0.1-0.2-0.19-0.32-0.26
			c-0.12-0.07-0.21-0.12-0.29-0.16l-0.4-0.17V51C36,50.95,36.27,50.85,36.48,50.69z"/>
		<path class="st1" d="M50.11,52.97h-9.24v-1.34l4.63-4.59c0.61-0.59,1.02-1.13,1.23-1.64c0.21-0.5,0.32-1,0.32-1.5
			c0-0.31-0.06-0.57-0.17-0.79c-0.12-0.22-0.27-0.41-0.48-0.56c-0.2-0.15-0.44-0.27-0.7-0.34c-0.26-0.08-0.53-0.12-0.81-0.12
			c-0.57,0-1.14,0.09-1.68,0.26c-0.55,0.17-1.1,0.42-1.65,0.74l-0.8-1.7c0.74-0.41,1.48-0.71,2.21-0.91c0.73-0.2,1.45-0.3,2.15-0.3
			c0.65,0,1.26,0.06,1.82,0.18c0.56,0.12,1.05,0.32,1.46,0.6c0.41,0.28,0.74,0.65,0.98,1.12s0.35,1.04,0.35,1.73
			c0,0.42-0.07,0.83-0.2,1.21c-0.13,0.39-0.31,0.76-0.53,1.11s-0.47,0.69-0.77,1.01c-0.29,0.33-0.59,0.63-0.9,0.93l-3,2.95h5.78
			V52.97z"/>
		<path class="st1" d="M53.65,52.97l4.4-10.7h-6.58v-1.91h9.45v1.3l-4.61,11.31H53.65z"/>
		<path class="st1" d="M67.98,48.91v3.1h-2.11v-3.1h-3.1v-1.99h3.1v-3.14h2.11v3.14h3.12v1.99H67.98z"/>
	</g>
	<g>
		<path class="st2" d="M35.2,68.95c0.24,0.12,0.44,0.28,0.58,0.49c0.14,0.21,0.2,0.46,0.16,0.75c-0.03,0.25-0.09,0.46-0.2,0.64
			s-0.24,0.31-0.41,0.4c-0.16,0.1-0.35,0.16-0.56,0.19s-0.43,0.04-0.66,0.01l-2.08-0.22l0.52-4.82l1.96,0.21
			c0.26,0.03,0.49,0.08,0.69,0.14s0.37,0.15,0.5,0.26c0.13,0.11,0.23,0.25,0.28,0.41s0.07,0.36,0.05,0.57
			c-0.02,0.23-0.11,0.43-0.26,0.6S35.43,68.87,35.2,68.95z M34.04,70.65c0.1,0.01,0.21,0.01,0.31,0c0.1-0.01,0.19-0.04,0.26-0.08
			c0.08-0.04,0.14-0.11,0.19-0.19c0.05-0.08,0.08-0.19,0.1-0.33s0.01-0.25-0.02-0.35s-0.08-0.18-0.14-0.24
			c-0.07-0.06-0.15-0.11-0.24-0.14c-0.09-0.03-0.19-0.05-0.29-0.07l-0.98-0.1l-0.15,1.39L34.04,70.65z M34.99,68.03
			c0.01-0.12,0.01-0.22-0.02-0.3c-0.03-0.08-0.07-0.15-0.13-0.2c-0.06-0.05-0.13-0.09-0.21-0.11c-0.08-0.03-0.17-0.04-0.25-0.05
			l-0.95-0.1l-0.13,1.19l0.96,0.1c0.2,0.02,0.37-0.01,0.5-0.1C34.9,68.36,34.97,68.22,34.99,68.03z"/>
		<path class="st2" d="M36.96,66.84l0.99,0.09l-0.42,4.83l-0.99-0.09L36.96,66.84z"/>
		<path class="st2" d="M41.62,71.3l-0.05,0.76l-3.01-0.21l0.35-4.83l1,0.07l-0.29,4.07L41.62,71.3z"/>
		<path class="st2" d="M45.15,71.48l-0.04,0.76l-3.01-0.16l0.25-4.84l1,0.05l-0.21,4.07L45.15,71.48z"/>
		<path class="st2" d="M45.85,67.42l1,0.04l-0.18,4.84l-1-0.04L45.85,67.42z"/>
		<path class="st2" d="M47.57,69.89c0.01-0.83,0.22-1.45,0.6-1.85c0.39-0.4,0.98-0.59,1.77-0.58c0.4,0.01,0.74,0.07,1.01,0.19
			s0.5,0.29,0.67,0.51c0.17,0.22,0.29,0.49,0.36,0.8s0.1,0.66,0.09,1.06c-0.01,0.83-0.22,1.44-0.61,1.85
			c-0.39,0.41-0.98,0.6-1.78,0.59c-0.41-0.01-0.75-0.07-1.02-0.19c-0.28-0.12-0.5-0.3-0.66-0.52c-0.16-0.22-0.28-0.49-0.35-0.8
			S47.56,70.28,47.57,69.89z M51.04,69.9c0-0.22-0.01-0.44-0.04-0.65c-0.03-0.21-0.09-0.39-0.17-0.54
			c-0.08-0.16-0.19-0.28-0.34-0.37c-0.14-0.09-0.33-0.14-0.55-0.15c-0.25,0-0.46,0.03-0.63,0.11c-0.17,0.08-0.31,0.19-0.42,0.34
			s-0.19,0.34-0.24,0.56c-0.05,0.22-0.08,0.48-0.08,0.77c0,0.23,0.01,0.45,0.04,0.65c0.03,0.21,0.09,0.39,0.17,0.54
			s0.2,0.28,0.34,0.37s0.33,0.14,0.54,0.14c0.25,0,0.47-0.03,0.64-0.11c0.17-0.08,0.31-0.19,0.41-0.34s0.18-0.34,0.22-0.56
			C51.01,70.46,51.04,70.2,51.04,69.9z"/>
		<path class="st2" d="M57.21,67.53l0.05,4.84l-1.72,0.02l-1.68-4.08l-0.06,0l0.04,4.09l-1,0.01l-0.05-4.84l1.72-0.02l1.68,4.08
			l0.06,0l-0.04-4.09L57.21,67.53z"/>
		<path class="st2" d="M63.64,67.26l0.14,2.92c0.03,0.7-0.12,1.22-0.45,1.55c-0.34,0.33-0.83,0.52-1.47,0.55
			c-0.64,0.03-1.12-0.11-1.45-0.41c-0.33-0.31-0.51-0.82-0.54-1.55l-0.14-2.86l0.99-0.05l0.15,2.98c0.02,0.37,0.1,0.66,0.25,0.86
			c0.15,0.2,0.38,0.3,0.71,0.28c0.19-0.01,0.35-0.04,0.48-0.09s0.23-0.13,0.31-0.24s0.13-0.25,0.16-0.42s0.04-0.37,0.03-0.61
			l-0.14-2.86L63.64,67.26z"/>
		<path class="st2" d="M66.71,70.13c-0.2-0.08-0.41-0.15-0.64-0.2c-0.22-0.06-0.44-0.12-0.66-0.2c-0.17-0.06-0.31-0.12-0.43-0.18
			c-0.12-0.06-0.23-0.14-0.32-0.23s-0.16-0.2-0.21-0.33c-0.05-0.13-0.08-0.28-0.1-0.46c-0.03-0.43,0.1-0.78,0.4-1.05
			c0.3-0.27,0.76-0.43,1.37-0.47c0.26-0.02,0.54-0.01,0.84,0.02c0.3,0.03,0.57,0.11,0.81,0.21l-0.28,0.74
			c-0.17-0.08-0.36-0.14-0.59-0.18c-0.23-0.04-0.47-0.05-0.71-0.03c-0.32,0.02-0.54,0.09-0.68,0.2s-0.19,0.24-0.18,0.4
			c0.01,0.16,0.07,0.28,0.18,0.35s0.22,0.13,0.33,0.17c0.17,0.06,0.37,0.12,0.6,0.18c0.23,0.06,0.44,0.13,0.65,0.21
			c0.12,0.05,0.24,0.1,0.36,0.16c0.12,0.06,0.22,0.13,0.3,0.22s0.16,0.2,0.22,0.33s0.09,0.29,0.11,0.48
			c0.02,0.22-0.01,0.41-0.09,0.59c-0.07,0.18-0.19,0.33-0.34,0.47s-0.35,0.24-0.58,0.32S66.59,71.98,66.3,72
			c-0.27,0.02-0.56,0.01-0.86-0.03c-0.31-0.04-0.61-0.12-0.9-0.23l0.31-0.75c0.24,0.1,0.47,0.16,0.69,0.2
			c0.22,0.04,0.45,0.05,0.69,0.03c0.34-0.03,0.58-0.1,0.72-0.22s0.2-0.26,0.19-0.41c0-0.07-0.02-0.14-0.06-0.19
			c-0.03-0.05-0.07-0.1-0.11-0.13s-0.09-0.07-0.13-0.09S66.74,70.14,66.71,70.13z"/>
		<path class="st2" d="M72.15,71.37l-0.55-1.21l-1.83,0.2l-0.28,1.3l-1.04,0.11l1.25-5l1.3-0.14l2.23,4.63L72.15,71.37z
			 M70.36,67.44l-0.42,2.12l1.32-0.14l-0.84-1.99L70.36,67.44z"/>
	</g>
	<g>
		<path class="st2" d="M33.58,73.44l0.99,0.13l-0.65,4.8l-0.99-0.13L33.58,73.44z"/>
		<path class="st2" d="M39.83,74.18l-0.52,4.82l-1.71-0.18l-1.2-4.25l-0.06-0.01l-0.44,4.07l-0.99-0.11l0.52-4.82l1.71,0.18
			l1.2,4.25l0.06,0.01l0.44-4.07L39.83,74.18z"/>
		<path class="st2" d="M42.27,74.36c0.41,0.03,0.77,0.1,1.08,0.21c0.31,0.11,0.57,0.27,0.77,0.48c0.2,0.21,0.35,0.47,0.45,0.79
			s0.12,0.7,0.09,1.14c-0.03,0.45-0.13,0.82-0.29,1.12c-0.16,0.3-0.37,0.53-0.63,0.7c-0.26,0.17-0.56,0.28-0.9,0.34
			c-0.34,0.06-0.71,0.07-1.1,0.04l-1.41-0.1l0.33-4.83L42.27,74.36z M41.76,78.41c0.27,0.02,0.52,0.01,0.74-0.03
			c0.22-0.04,0.41-0.12,0.57-0.24c0.16-0.12,0.29-0.29,0.38-0.51c0.09-0.22,0.15-0.49,0.18-0.82c0.04-0.55-0.07-0.96-0.32-1.23
			s-0.62-0.43-1.11-0.46l-0.58-0.04l-0.23,3.31L41.76,78.41z"/>
		<path class="st2" d="M49.37,74.7l-0.1,2.92c-0.02,0.7-0.22,1.2-0.58,1.51c-0.36,0.31-0.87,0.45-1.51,0.43
			c-0.64-0.02-1.11-0.2-1.41-0.53c-0.3-0.33-0.44-0.86-0.41-1.59l0.1-2.87l0.99,0.03l-0.1,2.98c-0.01,0.37,0.05,0.67,0.18,0.88
			c0.13,0.21,0.36,0.33,0.68,0.34c0.19,0.01,0.35-0.01,0.49-0.05s0.24-0.11,0.33-0.22c0.09-0.1,0.15-0.24,0.19-0.4
			c0.04-0.17,0.07-0.37,0.08-0.61l0.1-2.86L49.37,74.7z"/>
		<path class="st2" d="M52.15,77.81c-0.19-0.09-0.4-0.18-0.62-0.25c-0.22-0.07-0.43-0.16-0.64-0.25c-0.16-0.07-0.3-0.14-0.42-0.21
			c-0.12-0.07-0.21-0.16-0.29-0.26c-0.08-0.1-0.14-0.21-0.18-0.34c-0.04-0.13-0.06-0.29-0.06-0.47c0-0.43,0.16-0.77,0.48-1.01
			c0.32-0.24,0.79-0.36,1.4-0.36c0.26,0,0.54,0.03,0.84,0.09c0.3,0.06,0.56,0.15,0.79,0.28l-0.34,0.72
			c-0.16-0.09-0.35-0.17-0.58-0.23s-0.46-0.09-0.7-0.09c-0.32,0-0.55,0.05-0.69,0.14c-0.14,0.1-0.21,0.23-0.21,0.39
			c0,0.16,0.05,0.29,0.16,0.37c0.1,0.08,0.21,0.15,0.31,0.19c0.17,0.07,0.36,0.15,0.58,0.23c0.22,0.08,0.43,0.17,0.63,0.26
			c0.12,0.06,0.23,0.12,0.34,0.19c0.11,0.06,0.2,0.14,0.28,0.24c0.08,0.1,0.14,0.21,0.19,0.35s0.07,0.3,0.07,0.49
			c0,0.22-0.04,0.41-0.13,0.58c-0.09,0.17-0.21,0.32-0.38,0.44c-0.17,0.12-0.37,0.21-0.6,0.28c-0.24,0.06-0.5,0.09-0.8,0.09
			c-0.27,0-0.56-0.03-0.86-0.1c-0.3-0.06-0.6-0.17-0.88-0.3l0.37-0.73c0.23,0.11,0.45,0.2,0.67,0.26c0.22,0.06,0.45,0.09,0.69,0.09
			c0.34,0,0.59-0.05,0.74-0.16s0.22-0.24,0.22-0.4c0-0.07-0.01-0.14-0.04-0.19c-0.03-0.05-0.06-0.1-0.1-0.14
			c-0.04-0.04-0.08-0.07-0.13-0.1S52.18,77.82,52.15,77.81z"/>
		<path class="st2" d="M57.53,74.63l0.02,0.76l-1.45,0.04l0.1,4.08l-0.99,0.02l-0.1-4.08l-1.45,0.04l-0.02-0.76L57.53,74.63z"/>
		<path class="st2" d="M58.19,79.45l-0.26-4.84l1.93-0.1c0.56-0.03,1,0.06,1.31,0.26s0.49,0.56,0.52,1.06
			c0.02,0.33-0.04,0.6-0.17,0.83s-0.31,0.4-0.55,0.52c-0.02,0.01-0.04,0.02-0.05,0.03c-0.02,0.01-0.04,0.02-0.05,0.03l1.17,2
			l-1.07,0.06l-1.06-1.86l-0.83,0.04l0.1,1.91L58.19,79.45z M59.94,76.69c0.09,0,0.19-0.02,0.28-0.05c0.09-0.03,0.17-0.08,0.24-0.14
			c0.07-0.06,0.12-0.14,0.16-0.24c0.04-0.1,0.05-0.22,0.05-0.37c-0.01-0.13-0.04-0.23-0.09-0.31c-0.05-0.08-0.12-0.14-0.19-0.19
			c-0.08-0.05-0.16-0.08-0.26-0.09s-0.18-0.02-0.27-0.01l-0.91,0.05l0.08,1.42L59.94,76.69z"/>
		<path class="st2" d="M64.66,76.97L64.83,79l-0.99,0.09l-0.18-2.03c-0.15-0.2-0.32-0.41-0.49-0.64c-0.17-0.23-0.35-0.46-0.52-0.69
			c-0.17-0.23-0.35-0.46-0.52-0.69c-0.17-0.23-0.33-0.44-0.48-0.63l1.14-0.1l1.26,1.84l0.07-0.01l0.91-2.03l1.13-0.1L64.66,76.97z"
			/>
		<path class="st2" d="M66.4,75.24c-0.02-0.22-0.03-0.41-0.01-0.59s0.05-0.35,0.11-0.51c0.05-0.16,0.13-0.32,0.22-0.47
			c0.09-0.15,0.2-0.31,0.33-0.48l0.37,0.24c-0.1,0.14-0.18,0.28-0.25,0.41c-0.07,0.13-0.12,0.27-0.16,0.4
			c-0.04,0.14-0.06,0.28-0.07,0.44c-0.01,0.15,0,0.32,0.02,0.5c0.02,0.18,0.05,0.35,0.09,0.5s0.1,0.29,0.16,0.42
			s0.15,0.25,0.24,0.37c0.1,0.12,0.21,0.23,0.33,0.34l-0.31,0.31c-0.16-0.13-0.3-0.26-0.42-0.4c-0.12-0.13-0.23-0.27-0.32-0.42
			c-0.09-0.15-0.16-0.31-0.22-0.48C66.47,75.65,66.43,75.46,66.4,75.24z"/>
		<path class="st2" d="M68.91,76.1l-0.29-2.27l-0.55,0.35l-0.21-0.32l0.88-0.57l0.38-0.05l0.35,2.8L68.91,76.1z"/>
		<path class="st2" d="M71.39,74.61c0.03,0.21,0.04,0.41,0.03,0.59c-0.01,0.18-0.04,0.36-0.09,0.52c-0.05,0.17-0.12,0.33-0.2,0.49
			c-0.08,0.16-0.19,0.32-0.31,0.49l-0.39-0.23c0.1-0.14,0.17-0.27,0.24-0.41c0.06-0.14,0.11-0.28,0.15-0.42
			c0.03-0.14,0.05-0.29,0.05-0.45c0-0.16-0.01-0.32-0.03-0.51c-0.03-0.18-0.06-0.35-0.11-0.49c-0.05-0.14-0.1-0.28-0.18-0.4
			c-0.07-0.12-0.16-0.24-0.26-0.35c-0.1-0.11-0.21-0.22-0.34-0.33l0.31-0.33c0.16,0.13,0.31,0.26,0.43,0.38
			c0.12,0.12,0.23,0.26,0.33,0.4c0.09,0.14,0.17,0.3,0.23,0.47C71.31,74.2,71.36,74.4,71.39,74.61z"/>
	</g>
	<g>
		<path class="st3" d="M33.58,73.44l0.99,0.13l-0.65,4.8l-0.99-0.13L33.58,73.44z"/>
		<path class="st3" d="M39.83,74.18l-0.52,4.82l-1.71-0.18l-1.2-4.25l-0.06-0.01l-0.44,4.07l-0.99-0.11l0.52-4.82l1.71,0.18
			l1.2,4.25l0.06,0.01l0.44-4.07L39.83,74.18z"/>
		<path class="st3" d="M42.27,74.36c0.41,0.03,0.77,0.1,1.08,0.21c0.31,0.11,0.57,0.27,0.77,0.48c0.2,0.21,0.35,0.47,0.45,0.79
			s0.12,0.7,0.09,1.14c-0.03,0.45-0.13,0.82-0.29,1.12c-0.16,0.3-0.37,0.53-0.63,0.7c-0.26,0.17-0.56,0.28-0.9,0.34
			c-0.34,0.06-0.71,0.07-1.1,0.04l-1.41-0.1l0.33-4.83L42.27,74.36z M41.76,78.41c0.27,0.02,0.52,0.01,0.74-0.03
			c0.22-0.04,0.41-0.12,0.57-0.24c0.16-0.12,0.29-0.29,0.38-0.51c0.09-0.22,0.15-0.49,0.18-0.82c0.04-0.55-0.07-0.96-0.32-1.23
			s-0.62-0.43-1.11-0.46l-0.58-0.04l-0.23,3.31L41.76,78.41z"/>
		<path class="st3" d="M49.37,74.7l-0.1,2.92c-0.02,0.7-0.22,1.2-0.58,1.51c-0.36,0.31-0.87,0.45-1.51,0.43
			c-0.64-0.02-1.11-0.2-1.41-0.53c-0.3-0.33-0.44-0.86-0.41-1.59l0.1-2.87l0.99,0.03l-0.1,2.98c-0.01,0.37,0.05,0.67,0.18,0.88
			c0.13,0.21,0.36,0.33,0.68,0.34c0.19,0.01,0.35-0.01,0.49-0.05s0.24-0.11,0.33-0.22c0.09-0.1,0.15-0.24,0.19-0.4
			c0.04-0.17,0.07-0.37,0.08-0.61l0.1-2.86L49.37,74.7z"/>
		<path class="st3" d="M52.15,77.81c-0.19-0.09-0.4-0.18-0.62-0.25c-0.22-0.07-0.43-0.16-0.64-0.25c-0.16-0.07-0.3-0.14-0.42-0.21
			c-0.12-0.07-0.21-0.16-0.29-0.26c-0.08-0.1-0.14-0.21-0.18-0.34c-0.04-0.13-0.06-0.29-0.06-0.47c0-0.43,0.16-0.77,0.48-1.01
			c0.32-0.24,0.79-0.36,1.4-0.36c0.26,0,0.54,0.03,0.84,0.09c0.3,0.06,0.56,0.15,0.79,0.28l-0.34,0.72
			c-0.16-0.09-0.35-0.17-0.58-0.23s-0.46-0.09-0.7-0.09c-0.32,0-0.55,0.05-0.69,0.14c-0.14,0.1-0.21,0.23-0.21,0.39
			c0,0.16,0.05,0.29,0.16,0.37c0.1,0.08,0.21,0.15,0.31,0.19c0.17,0.07,0.36,0.15,0.58,0.23c0.22,0.08,0.43,0.17,0.63,0.26
			c0.12,0.06,0.23,0.12,0.34,0.19c0.11,0.06,0.2,0.14,0.28,0.24c0.08,0.1,0.14,0.21,0.19,0.35s0.07,0.3,0.07,0.49
			c0,0.22-0.04,0.41-0.13,0.58c-0.09,0.17-0.21,0.32-0.38,0.44c-0.17,0.12-0.37,0.21-0.6,0.28c-0.24,0.06-0.5,0.09-0.8,0.09
			c-0.27,0-0.56-0.03-0.86-0.1c-0.3-0.06-0.6-0.17-0.88-0.3l0.37-0.73c0.23,0.11,0.45,0.2,0.67,0.26c0.22,0.06,0.45,0.09,0.69,0.09
			c0.34,0,0.59-0.05,0.74-0.16s0.22-0.24,0.22-0.4c0-0.07-0.01-0.14-0.04-0.19c-0.03-0.05-0.06-0.1-0.1-0.14
			c-0.04-0.04-0.08-0.07-0.13-0.1S52.18,77.82,52.15,77.81z"/>
		<path class="st3" d="M57.53,74.63l0.02,0.76l-1.45,0.04l0.1,4.08l-0.99,0.02l-0.1-4.08l-1.45,0.04l-0.02-0.76L57.53,74.63z"/>
		<path class="st3" d="M58.19,79.45l-0.26-4.84l1.93-0.1c0.56-0.03,1,0.06,1.31,0.26s0.49,0.56,0.52,1.06
			c0.02,0.33-0.04,0.6-0.17,0.83s-0.31,0.4-0.55,0.52c-0.02,0.01-0.04,0.02-0.05,0.03c-0.02,0.01-0.04,0.02-0.05,0.03l1.17,2
			l-1.07,0.06l-1.06-1.86l-0.83,0.04l0.1,1.91L58.19,79.45z M59.94,76.69c0.09,0,0.19-0.02,0.28-0.05c0.09-0.03,0.17-0.08,0.24-0.14
			c0.07-0.06,0.12-0.14,0.16-0.24c0.04-0.1,0.05-0.22,0.05-0.37c-0.01-0.13-0.04-0.23-0.09-0.31c-0.05-0.08-0.12-0.14-0.19-0.19
			c-0.08-0.05-0.16-0.08-0.26-0.09s-0.18-0.02-0.27-0.01l-0.91,0.05l0.08,1.42L59.94,76.69z"/>
		<path class="st3" d="M64.66,76.97L64.83,79l-0.99,0.09l-0.18-2.03c-0.15-0.2-0.32-0.41-0.49-0.64c-0.17-0.23-0.35-0.46-0.52-0.69
			c-0.17-0.23-0.35-0.46-0.52-0.69c-0.17-0.23-0.33-0.44-0.48-0.63l1.14-0.1l1.26,1.84l0.07-0.01l0.91-2.03l1.13-0.1L64.66,76.97z"
			/>
		<path class="st3" d="M66.4,75.24c-0.02-0.22-0.03-0.41-0.01-0.59s0.05-0.35,0.11-0.51c0.05-0.16,0.13-0.32,0.22-0.47
			c0.09-0.15,0.2-0.31,0.33-0.48l0.37,0.24c-0.1,0.14-0.18,0.28-0.25,0.41c-0.07,0.13-0.12,0.27-0.16,0.4
			c-0.04,0.14-0.06,0.28-0.07,0.44c-0.01,0.15,0,0.32,0.02,0.5c0.02,0.18,0.05,0.35,0.09,0.5s0.1,0.29,0.16,0.42
			s0.15,0.25,0.24,0.37c0.1,0.12,0.21,0.23,0.33,0.34l-0.31,0.31c-0.16-0.13-0.3-0.26-0.42-0.4c-0.12-0.13-0.23-0.27-0.32-0.42
			c-0.09-0.15-0.16-0.31-0.22-0.48C66.47,75.65,66.43,75.46,66.4,75.24z"/>
		<path class="st3" d="M68.91,76.1l-0.29-2.27l-0.55,0.35l-0.21-0.32l0.88-0.57l0.38-0.05l0.35,2.8L68.91,76.1z"/>
		<path class="st3" d="M71.39,74.61c0.03,0.21,0.04,0.41,0.03,0.59c-0.01,0.18-0.04,0.36-0.09,0.52c-0.05,0.17-0.12,0.33-0.2,0.49
			c-0.08,0.16-0.19,0.32-0.31,0.49l-0.39-0.23c0.1-0.14,0.17-0.27,0.24-0.41c0.06-0.14,0.11-0.28,0.15-0.42
			c0.03-0.14,0.05-0.29,0.05-0.45c0-0.16-0.01-0.32-0.03-0.51c-0.03-0.18-0.06-0.35-0.11-0.49c-0.05-0.14-0.1-0.28-0.18-0.4
			c-0.07-0.12-0.16-0.24-0.26-0.35c-0.1-0.11-0.21-0.22-0.34-0.33l0.31-0.33c0.16,0.13,0.31,0.26,0.43,0.38
			c0.12,0.12,0.23,0.26,0.33,0.4c0.09,0.14,0.17,0.3,0.23,0.47C71.31,74.2,71.36,74.4,71.39,74.61z"/>
	</g>
	<g>
		<path class="st3" d="M34.28,36.88h1.4v1.7c0.25,0.01,0.53,0.04,0.81,0.07s0.58,0.07,0.87,0.12c0.37,0.06,0.73,0.15,1.07,0.26
			c0.34,0.11,0.66,0.25,0.96,0.41l-0.88,1.89c-0.2-0.1-0.43-0.2-0.67-0.3s-0.51-0.17-0.8-0.24c-0.22-0.06-0.44-0.11-0.66-0.14
			c-0.22-0.03-0.46-0.05-0.7-0.07v3.33c0.28,0.1,0.55,0.21,0.81,0.33c0.26,0.11,0.52,0.23,0.78,0.34c0.32,0.15,0.62,0.32,0.89,0.49
			s0.51,0.38,0.72,0.63c0.2,0.25,0.36,0.54,0.48,0.89c0.11,0.34,0.17,0.77,0.17,1.28c0,1.14-0.43,2.02-1.28,2.64
			c-0.66,0.5-1.52,0.79-2.56,0.88v1.61h-1.4v-1.53c-0.6-0.04-1.21-0.12-1.84-0.23c-0.78-0.15-1.52-0.41-2.22-0.76l0.94-1.89
			c0.57,0.28,1.14,0.49,1.7,0.63c0.22,0.05,0.44,0.09,0.68,0.12c0.24,0.03,0.48,0.05,0.74,0.07v-3.37
			c-0.52-0.18-1.01-0.37-1.47-0.57c-0.4-0.19-0.74-0.39-1.04-0.58c-0.3-0.2-0.55-0.42-0.75-0.68c-0.2-0.25-0.34-0.55-0.44-0.89
			s-0.14-0.74-0.14-1.21c0-1.1,0.41-1.96,1.22-2.58c0.65-0.5,1.52-0.8,2.62-0.92V36.88z M33.48,40.93
			c-0.34,0.25-0.52,0.58-0.52,0.97c0,0.42,0.13,0.74,0.39,0.95c0.26,0.21,0.53,0.38,0.81,0.49l0.11,0.06v-2.75
			C33.94,40.71,33.67,40.81,33.48,40.93z M36.48,49.03c0.37-0.29,0.55-0.63,0.55-1.01c0-0.19-0.04-0.36-0.11-0.5
			c-0.07-0.14-0.15-0.26-0.25-0.36c-0.1-0.1-0.2-0.19-0.32-0.26c-0.12-0.07-0.21-0.12-0.29-0.16l-0.4-0.17v2.77
			C36,49.29,36.27,49.18,36.48,49.03z"/>
		<path class="st3" d="M50.11,51.31h-9.24v-1.34l4.63-4.59c0.61-0.59,1.02-1.13,1.23-1.64c0.21-0.5,0.32-1,0.32-1.5
			c0-0.31-0.06-0.57-0.17-0.79c-0.12-0.22-0.27-0.41-0.48-0.56c-0.2-0.15-0.44-0.27-0.7-0.34c-0.26-0.08-0.53-0.12-0.81-0.12
			c-0.57,0-1.14,0.09-1.68,0.26c-0.55,0.17-1.1,0.42-1.65,0.74l-0.8-1.7c0.74-0.41,1.48-0.71,2.21-0.91c0.73-0.2,1.45-0.3,2.15-0.3
			c0.65,0,1.26,0.06,1.82,0.18c0.56,0.12,1.05,0.32,1.46,0.6c0.41,0.28,0.74,0.65,0.98,1.12s0.35,1.04,0.35,1.73
			c0,0.42-0.07,0.83-0.2,1.21c-0.13,0.39-0.31,0.76-0.53,1.11s-0.47,0.69-0.77,1.01c-0.29,0.33-0.59,0.63-0.9,0.93l-3,2.95h5.78
			V51.31z"/>
		<path class="st3" d="M53.65,51.31l4.4-10.7h-6.58V38.7h9.45V40l-4.61,11.31H53.65z"/>
		<path class="st3" d="M67.98,47.25v3.1h-2.11v-3.1h-3.1v-1.99h3.1v-3.14h2.11v3.14h3.12v1.99H67.98z"/>
	</g>
	<g>
		<path class="st3" d="M35.2,68.95c0.24,0.12,0.44,0.28,0.58,0.49c0.14,0.21,0.2,0.46,0.16,0.75c-0.03,0.25-0.09,0.46-0.2,0.64
			s-0.24,0.31-0.41,0.4c-0.16,0.1-0.35,0.16-0.56,0.19s-0.43,0.04-0.66,0.01l-2.08-0.22l0.52-4.82l1.96,0.21
			c0.26,0.03,0.49,0.08,0.69,0.14s0.37,0.15,0.5,0.26c0.13,0.11,0.23,0.25,0.28,0.41s0.07,0.36,0.05,0.57
			c-0.02,0.23-0.11,0.43-0.26,0.6S35.43,68.87,35.2,68.95z M34.04,70.65c0.1,0.01,0.21,0.01,0.31,0c0.1-0.01,0.19-0.04,0.26-0.08
			c0.08-0.04,0.14-0.11,0.19-0.19c0.05-0.08,0.08-0.19,0.1-0.33s0.01-0.25-0.02-0.35s-0.08-0.18-0.14-0.24
			c-0.07-0.06-0.15-0.11-0.24-0.14c-0.09-0.03-0.19-0.05-0.29-0.07l-0.98-0.1l-0.15,1.39L34.04,70.65z M34.99,68.03
			c0.01-0.12,0.01-0.22-0.02-0.3c-0.03-0.08-0.07-0.15-0.13-0.2c-0.06-0.05-0.13-0.09-0.21-0.11c-0.08-0.03-0.17-0.04-0.25-0.05
			l-0.95-0.1l-0.13,1.19l0.96,0.1c0.2,0.02,0.37-0.01,0.5-0.1C34.9,68.36,34.97,68.22,34.99,68.03z"/>
		<path class="st3" d="M36.96,66.84l0.99,0.09l-0.42,4.83l-0.99-0.09L36.96,66.84z"/>
		<path class="st3" d="M41.62,71.3l-0.05,0.76l-3.01-0.21l0.35-4.83l1,0.07l-0.29,4.07L41.62,71.3z"/>
		<path class="st3" d="M45.15,71.48l-0.04,0.76l-3.01-0.16l0.25-4.84l1,0.05l-0.21,4.07L45.15,71.48z"/>
		<path class="st3" d="M45.85,67.42l1,0.04l-0.18,4.84l-1-0.04L45.85,67.42z"/>
		<path class="st3" d="M47.57,69.89c0.01-0.83,0.22-1.45,0.6-1.85c0.39-0.4,0.98-0.59,1.77-0.58c0.4,0.01,0.74,0.07,1.01,0.19
			s0.5,0.29,0.67,0.51c0.17,0.22,0.29,0.49,0.36,0.8s0.1,0.66,0.09,1.06c-0.01,0.83-0.22,1.44-0.61,1.85
			c-0.39,0.41-0.98,0.6-1.78,0.59c-0.41-0.01-0.75-0.07-1.02-0.19c-0.28-0.12-0.5-0.3-0.66-0.52c-0.16-0.22-0.28-0.49-0.35-0.8
			S47.56,70.28,47.57,69.89z M51.04,69.9c0-0.22-0.01-0.44-0.04-0.65c-0.03-0.21-0.09-0.39-0.17-0.54
			c-0.08-0.16-0.19-0.28-0.34-0.37c-0.14-0.09-0.33-0.14-0.55-0.15c-0.25,0-0.46,0.03-0.63,0.11c-0.17,0.08-0.31,0.19-0.42,0.34
			s-0.19,0.34-0.24,0.56c-0.05,0.22-0.08,0.48-0.08,0.77c0,0.23,0.01,0.45,0.04,0.65c0.03,0.21,0.09,0.39,0.17,0.54
			s0.2,0.28,0.34,0.37s0.33,0.14,0.54,0.14c0.25,0,0.47-0.03,0.64-0.11c0.17-0.08,0.31-0.19,0.41-0.34s0.18-0.34,0.22-0.56
			C51.01,70.46,51.04,70.2,51.04,69.9z"/>
		<path class="st3" d="M57.21,67.53l0.05,4.84l-1.72,0.02l-1.68-4.08l-0.06,0l0.04,4.09l-1,0.01l-0.05-4.84l1.72-0.02l1.68,4.08
			l0.06,0l-0.04-4.09L57.21,67.53z"/>
		<path class="st3" d="M63.64,67.26l0.14,2.92c0.03,0.7-0.12,1.22-0.45,1.55c-0.34,0.33-0.83,0.52-1.47,0.55
			c-0.64,0.03-1.12-0.11-1.45-0.41c-0.33-0.31-0.51-0.82-0.54-1.55l-0.14-2.86l0.99-0.05l0.15,2.98c0.02,0.37,0.1,0.66,0.25,0.86
			c0.15,0.2,0.38,0.3,0.71,0.28c0.19-0.01,0.35-0.04,0.48-0.09s0.23-0.13,0.31-0.24s0.13-0.25,0.16-0.42s0.04-0.37,0.03-0.61
			l-0.14-2.86L63.64,67.26z"/>
		<path class="st3" d="M66.71,70.13c-0.2-0.08-0.41-0.15-0.64-0.2c-0.22-0.06-0.44-0.12-0.66-0.2c-0.17-0.06-0.31-0.12-0.43-0.18
			c-0.12-0.06-0.23-0.14-0.32-0.23s-0.16-0.2-0.21-0.33c-0.05-0.13-0.08-0.28-0.1-0.46c-0.03-0.43,0.1-0.78,0.4-1.05
			c0.3-0.27,0.76-0.43,1.37-0.47c0.26-0.02,0.54-0.01,0.84,0.02c0.3,0.03,0.57,0.11,0.81,0.21l-0.28,0.74
			c-0.17-0.08-0.36-0.14-0.59-0.18c-0.23-0.04-0.47-0.05-0.71-0.03c-0.32,0.02-0.54,0.09-0.68,0.2s-0.19,0.24-0.18,0.4
			c0.01,0.16,0.07,0.28,0.18,0.35s0.22,0.13,0.33,0.17c0.17,0.06,0.37,0.12,0.6,0.18c0.23,0.06,0.44,0.13,0.65,0.21
			c0.12,0.05,0.24,0.1,0.36,0.16c0.12,0.06,0.22,0.13,0.3,0.22s0.16,0.2,0.22,0.33s0.09,0.29,0.11,0.48
			c0.02,0.22-0.01,0.41-0.09,0.59c-0.07,0.18-0.19,0.33-0.34,0.47s-0.35,0.24-0.58,0.32S66.59,71.98,66.3,72
			c-0.27,0.02-0.56,0.01-0.86-0.03c-0.31-0.04-0.61-0.12-0.9-0.23l0.31-0.75c0.24,0.1,0.47,0.16,0.69,0.2
			c0.22,0.04,0.45,0.05,0.69,0.03c0.34-0.03,0.58-0.1,0.72-0.22s0.2-0.26,0.19-0.41c0-0.07-0.02-0.14-0.06-0.19
			c-0.03-0.05-0.07-0.1-0.11-0.13s-0.09-0.07-0.13-0.09S66.74,70.14,66.71,70.13z"/>
		<path class="st3" d="M72.15,71.37l-0.55-1.21l-1.83,0.2l-0.28,1.3l-1.04,0.11l1.25-5l1.3-0.14l2.23,4.63L72.15,71.37z
			 M70.36,67.44l-0.42,2.12l1.32-0.14l-0.84-1.99L70.36,67.44z"/>
	</g>
</g>
</svg>
