<?xml version="1.0" encoding="utf-8"?>
<!-- Generator: Adobe Illustrator 23.0.0, SVG Export Plug-In . SVG Version: 6.00 Build 0)  -->
<svg version="1.1" id="Layer_1" xmlns="http://www.w3.org/2000/svg" xmlns:xlink="http://www.w3.org/1999/xlink" x="0px" y="0px"
	 viewBox="0 0 90.29 55.6" style="enable-background:new 0 0 90.29 55.6;" xml:space="preserve">
<style type="text/css">
	.st0{fill-rule:evenodd;clip-rule:evenodd;fill:#939598;stroke:#808285;stroke-width:0.625;stroke-miterlimit:10;}
	.st1{fill:#6D6E71;stroke:#6D6E71;stroke-width:0.625;stroke-miterlimit:10;}
	.st2{fill:#FFFFFF;}
</style>
<path class="st0" d="M68.77,4.93c3.26,1.11,9.95,3.9,9.95,8.15c0,1.65-1.05,3.04-2.23,4.09c-1.14,1.01-2.4,1.62-3.76,2.28
	c-8.92,3.89-19.63,4.85-29.28,4.7c-6.42-0.1-12.55-0.8-18.79-2.32c-4.36-1.17-13.28-3.78-13.68-9.27l-0.01-0.19l-0.38,0.01v6.64
	c0.18,2.5,1.59,3.84,3.48,5.27l-0.07,4.43c-4.01-1.78-7.54-4.34-7.81-7.96l-0.01-0.19l-0.38,0.01v7.54c0.24,3.2,2.37,4.93,4.83,6.57
	c1.06,0.63,2.15,1.2,3.25,1.7l-0.11,4.09c-5.39-1.95-10.94-5.05-11.3-9.83l-0.01-0.19l-0.38,0.01v8.23
	c0.64,8.73,17.68,12.26,24.51,13.46c6.21,0.96,12.38,1.46,18.67,1.45c7.56-0.01,14.9-0.67,22.33-2.13c4.69-1.03,9.06-2.28,13.4-4.37
	c3.42-1.83,7.13-4.09,7.45-8.39l0-8.25l0,0l-0.38-0.01l-0.01,0.19c-0.27,3.72-3.21,5.74-6.12,7.47c-1.95,1.04-4.04,1.94-6.22,2.71
	l-0.18-3.97c0.79-0.32,1.58-0.67,2.37-1.05c3.13-1.67,6.52-3.74,6.82-7.68l0-7.55l-0.38-0.01l-0.01,0.19
	c-0.25,3.39-2.93,5.23-5.58,6.81l0,0c-1.02,0.55-2.09,1.05-3.19,1.51l0.12-4.24c2.31-1.46,4.07-3.35,4.25-5.81l0-6.46
	c0-4.48-6.76-7.34-10.22-8.52"/>
<path class="st0" d="M26.48,2.48c-4.09,0.91-9.13,2.43-12.56,4.92l-0.16,0.11l0.22,0.32l0.16-0.1c7.6-4.9,21.51-6.24,30.33-6.24"/>
<path class="st0" d="M65.91,5.12c2.64,0.78,8.88,2.94,8.88,6.45c0,1.32-0.89,2.38-1.86,3.18H72.3c0.69-0.68,1.39-1.37,1.39-2.41
	c0-2.99-6.2-4.92-8.39-5.53"/>
<path class="st0" d="M24.2,6.81c-2.19,0.61-8.39,2.54-8.39,5.53c0,1.05,0.7,1.74,1.39,2.41h-0.63c-0.97-0.8-1.86-1.85-1.86-3.18
	c0-3.52,6.24-5.67,8.88-6.45"/>
<path class="st0" d="M45.21,7.63c1.04,0,6.43,0.22,6.43,1.88c0,1.67-5.39,1.88-6.43,1.88c-1.04,0-6.43-0.22-6.43-1.88
	C38.78,7.85,44.17,7.63,45.21,7.63L45.21,7.63z"/>
<path class="st0" d="M55.65,9.32l0,3.39c-0.36,5.27-20.51,5.29-20.88-0.01V9.32l0.39-0.01l0.01,0.19c0.32,4.67,19.75,4.84,20.08,0
	l0.01-0.19L55.65,9.32z"/>
<g>
	<path class="st1" d="M21.55,39.21c-0.96,0-1.83-0.14-2.61-0.43c-0.78-0.29-1.41-0.65-1.89-1.1l1.28-1.59
		c0.36,0.28,0.81,0.53,1.36,0.75c0.55,0.22,1.15,0.33,1.8,0.33c0.34,0,0.67-0.04,0.98-0.12s0.57-0.19,0.79-0.35
		c0.22-0.16,0.4-0.36,0.54-0.6c0.13-0.24,0.2-0.53,0.2-0.86c0-0.61-0.22-1.07-0.65-1.39s-1.05-0.47-1.86-0.47
		c-0.45,0-0.79,0.03-1.02,0.08c-0.24,0.05-0.42,0.1-0.56,0.13l-0.1-2.07h0.88c0.27,0,0.57-0.03,0.91-0.08
		c0.34-0.05,0.66-0.14,0.96-0.28c0.3-0.13,0.55-0.32,0.75-0.54s0.3-0.52,0.3-0.88c0-0.57-0.19-0.98-0.57-1.23
		c-0.38-0.24-0.86-0.36-1.44-0.36c-0.55,0-1.09,0.09-1.63,0.28c-0.54,0.19-1.01,0.42-1.44,0.72l-0.98-1.65
		c0.42-0.32,1-0.62,1.74-0.89c0.74-0.27,1.59-0.41,2.54-0.41c0.66,0,1.27,0.06,1.81,0.17c0.54,0.11,1.01,0.3,1.4,0.55
		c0.39,0.25,0.69,0.59,0.9,1c0.21,0.41,0.32,0.92,0.32,1.52c0,0.29-0.06,0.58-0.17,0.85c-0.12,0.27-0.27,0.53-0.46,0.76
		c-0.19,0.23-0.41,0.43-0.65,0.6s-0.48,0.3-0.73,0.39c0.34,0.13,0.67,0.28,0.98,0.47c0.31,0.18,0.57,0.41,0.79,0.66
		s0.4,0.55,0.53,0.89s0.19,0.73,0.19,1.18c0,0.69-0.13,1.28-0.39,1.78c-0.26,0.5-0.63,0.91-1.09,1.23
		c-0.47,0.33-1.01,0.56-1.65,0.72C22.97,39.14,22.28,39.21,21.55,39.21z"/>
	<path class="st1" d="M27.97,33.34c0-1.16,0.11-2.19,0.33-3.08c0.22-0.89,0.56-1.64,1.03-2.24c0.47-0.6,1.08-1.06,1.82-1.37
		c0.74-0.31,1.63-0.47,2.68-0.47c0.57,0,1.1,0.05,1.58,0.14s0.93,0.23,1.35,0.39l-0.57,1.82c-0.61-0.27-1.34-0.4-2.18-0.4
		c-0.56,0-1.04,0.08-1.44,0.24c-0.4,0.16-0.73,0.38-1,0.66c-0.26,0.28-0.47,0.62-0.61,1.01s-0.25,0.82-0.3,1.28
		c-0.01,0.03-0.02,0.07-0.02,0.13c0.29-0.17,0.6-0.29,0.92-0.38c0.51-0.15,1.01-0.23,1.51-0.23c1.39,0,2.45,0.32,3.17,0.97
		c0.72,0.64,1.08,1.64,1.08,2.99c0,0.64-0.1,1.22-0.3,1.75c-0.2,0.53-0.49,0.99-0.89,1.39s-0.88,0.7-1.45,0.92s-1.24,0.33-1.99,0.33
		c-0.75,0-1.42-0.1-2.01-0.31c-0.59-0.2-1.08-0.54-1.48-1c-0.4-0.46-0.71-1.07-0.91-1.82S27.97,34.41,27.97,33.34z M30.62,34.88
		c0.08,0.73,0.27,1.32,0.58,1.78c0.31,0.45,0.81,0.68,1.5,0.68c1.38,0,2.07-0.79,2.07-2.38c0-0.63-0.19-1.14-0.56-1.53
		c-0.38-0.39-0.9-0.59-1.56-0.59c-0.45,0-0.87,0.06-1.26,0.19c-0.32,0.09-0.6,0.21-0.84,0.37c0,0.26,0.01,0.51,0.02,0.76
		S30.59,34.65,30.62,34.88z"/>
	<path class="st1" d="M38.33,41.09c0.25-0.38,0.45-0.76,0.58-1.13c0.13-0.37,0.23-0.74,0.3-1.1c0.06-0.36,0.1-0.73,0.11-1.09
		s0.02-0.73,0.02-1.1h2.28c0,0.62-0.04,1.19-0.11,1.69c-0.07,0.5-0.18,0.97-0.33,1.4c-0.15,0.43-0.33,0.83-0.55,1.21
		c-0.22,0.38-0.49,0.75-0.79,1.12L38.33,41.09z"/>
	<path class="st1" d="M48.3,39.21c-0.87,0-1.61-0.16-2.23-0.47c-0.62-0.31-1.13-0.75-1.53-1.32c-0.4-0.57-0.7-1.25-0.89-2.05
		c-0.19-0.8-0.29-1.69-0.29-2.67c0-0.98,0.1-1.88,0.29-2.68c0.19-0.8,0.49-1.49,0.89-2.06c0.4-0.57,0.91-1,1.53-1.31
		c0.62-0.31,1.36-0.46,2.23-0.46c0.85,0,1.59,0.15,2.2,0.46c0.61,0.31,1.12,0.74,1.52,1.31c0.4,0.57,0.7,1.25,0.89,2.06
		s0.29,1.7,0.29,2.68c0,0.98-0.1,1.87-0.29,2.67c-0.19,0.8-0.49,1.48-0.89,2.05c-0.4,0.57-0.91,1.01-1.52,1.32
		S49.15,39.21,48.3,39.21z M48.3,28.11c-0.43,0-0.81,0.11-1.12,0.33s-0.57,0.53-0.77,0.93c-0.2,0.4-0.34,0.89-0.44,1.46
		s-0.14,1.2-0.14,1.88c0,0.69,0.05,1.32,0.14,1.88s0.24,1.05,0.44,1.44c0.2,0.4,0.45,0.7,0.77,0.92s0.69,0.33,1.12,0.33
		c0.83,0,1.44-0.41,1.83-1.23c0.39-0.82,0.58-1.94,0.58-3.34c0-0.7-0.05-1.34-0.14-1.9c-0.1-0.57-0.24-1.05-0.44-1.44
		c-0.2-0.4-0.45-0.7-0.75-0.92S48.72,28.11,48.3,28.11z"/>
	<path class="st1" d="M59.05,39.21c-0.87,0-1.61-0.16-2.23-0.47c-0.62-0.31-1.13-0.75-1.53-1.32c-0.4-0.57-0.7-1.25-0.89-2.05
		c-0.19-0.8-0.29-1.69-0.29-2.67c0-0.98,0.1-1.88,0.29-2.68s0.49-1.49,0.89-2.06c0.4-0.57,0.91-1,1.53-1.31
		c0.62-0.31,1.36-0.46,2.23-0.46c0.85,0,1.59,0.15,2.2,0.46c0.61,0.31,1.12,0.74,1.52,1.31c0.4,0.57,0.7,1.25,0.89,2.06
		s0.29,1.7,0.29,2.68c0,0.98-0.1,1.87-0.29,2.67c-0.19,0.8-0.49,1.48-0.89,2.05c-0.4,0.57-0.91,1.01-1.52,1.32
		S59.91,39.21,59.05,39.21z M59.05,28.11c-0.43,0-0.81,0.11-1.12,0.33s-0.57,0.53-0.76,0.93c-0.2,0.4-0.34,0.89-0.44,1.46
		s-0.14,1.2-0.14,1.88c0,0.69,0.05,1.32,0.14,1.88s0.24,1.05,0.44,1.44c0.2,0.4,0.45,0.7,0.76,0.92s0.69,0.33,1.12,0.33
		c0.83,0,1.44-0.41,1.83-1.23c0.39-0.82,0.58-1.94,0.58-3.34c0-0.7-0.05-1.34-0.14-1.9c-0.1-0.57-0.24-1.05-0.44-1.44
		c-0.2-0.4-0.45-0.7-0.75-0.92S59.47,28.11,59.05,28.11z"/>
	<path class="st1" d="M69.81,39.21c-0.87,0-1.61-0.16-2.23-0.47c-0.62-0.31-1.13-0.75-1.53-1.32c-0.4-0.57-0.7-1.25-0.89-2.05
		c-0.19-0.8-0.29-1.69-0.29-2.67c0-0.98,0.1-1.88,0.29-2.68c0.19-0.8,0.49-1.49,0.89-2.06c0.4-0.57,0.91-1,1.53-1.31
		c0.62-0.31,1.36-0.46,2.23-0.46c0.85,0,1.59,0.15,2.2,0.46c0.61,0.31,1.12,0.74,1.52,1.31c0.4,0.57,0.7,1.25,0.89,2.06
		c0.19,0.8,0.29,1.7,0.29,2.68c0,0.98-0.1,1.87-0.29,2.67c-0.19,0.8-0.49,1.48-0.89,2.05c-0.4,0.57-0.91,1.01-1.52,1.32
		S70.66,39.21,69.81,39.21z M69.81,28.11c-0.43,0-0.81,0.11-1.12,0.33c-0.31,0.22-0.57,0.53-0.77,0.93c-0.2,0.4-0.34,0.89-0.44,1.46
		s-0.14,1.2-0.14,1.88c0,0.69,0.05,1.32,0.14,1.88s0.24,1.05,0.44,1.44c0.2,0.4,0.45,0.7,0.77,0.92c0.31,0.22,0.69,0.33,1.12,0.33
		c0.83,0,1.44-0.41,1.83-1.23c0.39-0.82,0.58-1.94,0.58-3.34c0-0.7-0.05-1.34-0.14-1.9c-0.1-0.57-0.24-1.05-0.44-1.44
		c-0.2-0.4-0.45-0.7-0.75-0.92S70.23,28.11,69.81,28.11z"/>
</g>
<g>
	<path class="st1" d="M20.55,41.7l-0.86,2.79c-0.21,0.67-0.53,1.1-0.96,1.3c-0.43,0.2-0.95,0.21-1.57,0.02
		c-0.61-0.19-1.02-0.48-1.22-0.88c-0.2-0.4-0.2-0.95,0.02-1.65l0.85-2.74l0.95,0.29l-0.88,2.85c-0.11,0.36-0.13,0.65-0.06,0.9
		s0.26,0.41,0.57,0.51c0.18,0.06,0.34,0.08,0.48,0.08c0.14-0.01,0.27-0.05,0.38-0.12s0.21-0.19,0.29-0.34
		c0.08-0.15,0.16-0.34,0.23-0.57l0.84-2.73L20.55,41.7z"/>
	<path class="st1" d="M22.59,45.44c-0.17-0.14-0.34-0.27-0.53-0.4s-0.38-0.26-0.56-0.41c-0.14-0.11-0.25-0.21-0.35-0.31
		s-0.17-0.21-0.22-0.32c-0.05-0.12-0.08-0.24-0.09-0.38s0.02-0.29,0.06-0.47c0.11-0.42,0.35-0.7,0.72-0.86
		c0.37-0.15,0.86-0.15,1.45,0c0.25,0.07,0.51,0.17,0.79,0.3s0.5,0.29,0.69,0.47l-0.51,0.61c-0.13-0.13-0.3-0.25-0.5-0.37
		c-0.2-0.11-0.42-0.2-0.66-0.27c-0.31-0.08-0.54-0.09-0.7-0.04c-0.16,0.06-0.26,0.17-0.3,0.32s-0.02,0.29,0.06,0.4
		s0.17,0.2,0.26,0.27c0.14,0.11,0.31,0.23,0.5,0.37c0.19,0.13,0.38,0.27,0.55,0.41c0.1,0.09,0.2,0.18,0.29,0.27s0.16,0.19,0.21,0.3
		c0.05,0.11,0.08,0.24,0.1,0.38c0.01,0.14-0.01,0.31-0.06,0.49c-0.06,0.21-0.15,0.38-0.28,0.53c-0.13,0.14-0.29,0.25-0.48,0.33
		s-0.41,0.12-0.65,0.12c-0.24,0-0.51-0.04-0.8-0.11c-0.26-0.07-0.53-0.17-0.81-0.31c-0.28-0.14-0.53-0.31-0.77-0.52l0.54-0.61
		c0.19,0.17,0.39,0.31,0.58,0.42c0.2,0.11,0.41,0.2,0.64,0.26c0.33,0.09,0.58,0.1,0.75,0.03c0.17-0.07,0.27-0.18,0.31-0.33
		c0.02-0.07,0.02-0.14,0.01-0.2c-0.01-0.06-0.03-0.11-0.06-0.16c-0.03-0.05-0.06-0.09-0.1-0.13C22.64,45.5,22.61,45.47,22.59,45.44z
		"/>
	<path class="st1" d="M27.48,48.4l-0.14-1.33l-1.8-0.4l-0.68,1.15l-1.03-0.23l2.78-4.35l1.28,0.28l0.64,5.1L27.48,48.4z
		 M27.04,44.11l-1.08,1.88l1.3,0.29l-0.16-2.15L27.04,44.11z"/>
	<path class="st1" d="M34.09,48.8l-0.12,0.75l-2.98-0.48l0.77-4.78l0.98,0.16l-0.65,4.03L34.09,48.8z"/>
	<path class="st1" d="M34.61,47.19c0.1-0.83,0.36-1.42,0.78-1.78c0.43-0.36,1.03-0.49,1.82-0.4c0.4,0.05,0.73,0.14,0.99,0.29
		c0.26,0.15,0.47,0.34,0.61,0.58c0.15,0.24,0.24,0.51,0.28,0.83c0.04,0.32,0.03,0.67-0.01,1.06c-0.1,0.82-0.36,1.42-0.79,1.78
		c-0.43,0.36-1.04,0.5-1.83,0.4c-0.4-0.05-0.73-0.15-1-0.29s-0.46-0.34-0.6-0.58c-0.14-0.24-0.23-0.52-0.27-0.83
		C34.56,47.92,34.56,47.57,34.61,47.19z M38.06,47.55c0.03-0.22,0.04-0.44,0.02-0.65s-0.05-0.39-0.12-0.56s-0.17-0.3-0.3-0.41
		c-0.13-0.11-0.31-0.17-0.54-0.2c-0.25-0.03-0.46-0.01-0.64,0.05s-0.33,0.16-0.45,0.3c-0.12,0.14-0.22,0.32-0.29,0.54
		c-0.07,0.22-0.12,0.47-0.16,0.76c-0.03,0.23-0.03,0.45-0.02,0.65c0.01,0.21,0.05,0.39,0.12,0.56c0.07,0.16,0.17,0.3,0.3,0.4
		s0.31,0.17,0.53,0.2c0.25,0.03,0.47,0.02,0.65-0.04c0.18-0.06,0.33-0.16,0.45-0.3c0.12-0.14,0.21-0.32,0.28-0.54
		C37.97,48.09,38.03,47.84,38.06,47.55z"/>
	<path class="st1" d="M41.88,50.45c-0.4-0.03-0.75-0.11-1.03-0.24c-0.28-0.13-0.5-0.3-0.67-0.53s-0.28-0.49-0.35-0.81
		c-0.06-0.32-0.08-0.67-0.06-1.08c0.06-0.84,0.3-1.45,0.72-1.83c0.42-0.39,1.01-0.55,1.75-0.5c0.15,0.01,0.3,0.03,0.46,0.07
		c0.16,0.04,0.31,0.09,0.46,0.15c0.15,0.06,0.28,0.14,0.41,0.24c0.13,0.1,0.24,0.21,0.34,0.33l-0.62,0.52
		c-0.12-0.17-0.27-0.29-0.45-0.39c-0.17-0.09-0.38-0.15-0.62-0.16c-0.87-0.06-1.35,0.51-1.43,1.71c-0.07,1.07,0.33,1.64,1.19,1.69
		c0.27,0.02,0.52,0,0.75-0.04c0.23-0.05,0.46-0.11,0.67-0.18l0.17,0.76c-0.22,0.1-0.48,0.18-0.8,0.23S42.18,50.47,41.88,50.45z"/>
	<path class="st1" d="M47.78,50.57l-0.4-1.27l-1.84-0.03l-0.43,1.26l-1.05-0.02l1.86-4.81l1.31,0.02l1.65,4.87L47.78,50.57z
		 M46.49,46.46l-0.68,2.05l1.33,0.02l-0.59-2.08L46.49,46.46z"/>
	<path class="st1" d="M52.82,45.61l0.03,0.76l-1.45,0.05l0.14,4.08l-0.99,0.03l-0.14-4.08l-1.45,0.05l-0.03-0.76L52.82,45.61z"/>
	<path class="st1" d="M53.35,45.56l1-0.07l0.33,4.83l-1,0.07L53.35,45.56z"/>
	<path class="st1" d="M55.39,47.84c-0.09-0.83,0.03-1.46,0.36-1.91s0.89-0.71,1.68-0.8c0.4-0.04,0.74-0.02,1.03,0.06
		c0.29,0.08,0.53,0.23,0.73,0.42c0.2,0.2,0.35,0.45,0.46,0.75c0.11,0.3,0.18,0.65,0.23,1.04c0.09,0.82-0.03,1.46-0.37,1.91
		s-0.9,0.72-1.69,0.81c-0.4,0.04-0.75,0.02-1.04-0.06c-0.29-0.09-0.53-0.23-0.72-0.43c-0.19-0.2-0.34-0.45-0.45-0.75
		C55.51,48.57,55.43,48.22,55.39,47.84z M58.84,47.41c-0.03-0.22-0.07-0.44-0.12-0.64c-0.06-0.2-0.14-0.37-0.24-0.52
		c-0.1-0.14-0.23-0.25-0.38-0.33s-0.34-0.1-0.57-0.07c-0.25,0.03-0.45,0.09-0.61,0.19s-0.28,0.23-0.37,0.4
		c-0.09,0.16-0.14,0.36-0.16,0.59c-0.02,0.23-0.01,0.49,0.02,0.77c0.03,0.23,0.07,0.44,0.13,0.64c0.06,0.2,0.14,0.37,0.24,0.52
		c0.1,0.14,0.23,0.25,0.38,0.32c0.15,0.07,0.34,0.09,0.56,0.07c0.25-0.03,0.46-0.09,0.62-0.19c0.16-0.1,0.29-0.23,0.37-0.39
		c0.08-0.16,0.13-0.36,0.15-0.59S58.87,47.7,58.84,47.41z"/>
	<path class="st1" d="M64.68,44.09l0.84,4.77l-1.69,0.3l-2.33-3.75l-0.06,0.01l0.71,4.03l-0.98,0.17l-0.84-4.77l1.69-0.3l2.33,3.75
		l0.06-0.01l-0.71-4.03L64.68,44.09z"/>
	<path class="st1" d="M68.28,46.42c-0.21-0.05-0.43-0.08-0.66-0.1s-0.46-0.05-0.68-0.1c-0.17-0.03-0.32-0.07-0.45-0.11
		c-0.13-0.04-0.25-0.1-0.35-0.18s-0.18-0.17-0.25-0.29c-0.07-0.12-0.12-0.26-0.17-0.44c-0.1-0.42-0.02-0.79,0.23-1.1
		s0.68-0.54,1.28-0.68c0.25-0.06,0.53-0.1,0.83-0.11s0.58,0.01,0.83,0.09l-0.16,0.78c-0.18-0.05-0.38-0.08-0.61-0.09
		c-0.23,0-0.47,0.02-0.71,0.08c-0.31,0.07-0.52,0.17-0.64,0.3s-0.15,0.27-0.11,0.43s0.12,0.26,0.24,0.32
		c0.12,0.06,0.24,0.09,0.35,0.11c0.18,0.03,0.38,0.06,0.62,0.08s0.46,0.06,0.68,0.11c0.13,0.03,0.26,0.06,0.38,0.1
		c0.12,0.04,0.23,0.09,0.33,0.17c0.1,0.07,0.19,0.17,0.27,0.29s0.14,0.27,0.18,0.46c0.05,0.21,0.05,0.41,0.01,0.6
		c-0.04,0.19-0.13,0.36-0.27,0.52c-0.13,0.16-0.31,0.29-0.52,0.41c-0.21,0.12-0.47,0.21-0.76,0.28c-0.26,0.06-0.55,0.1-0.86,0.11
		s-0.62-0.02-0.93-0.09l0.19-0.79c0.25,0.06,0.49,0.09,0.71,0.09s0.45-0.02,0.69-0.08c0.33-0.08,0.56-0.19,0.68-0.33
		c0.12-0.14,0.16-0.28,0.12-0.44c-0.02-0.07-0.04-0.13-0.08-0.18c-0.04-0.05-0.08-0.08-0.13-0.11c-0.05-0.03-0.1-0.05-0.15-0.07
		S68.32,46.43,68.28,46.42z"/>
	<path class="st1" d="M71.28,43.73c-0.06-0.21-0.1-0.4-0.12-0.58c-0.02-0.18-0.01-0.35,0.01-0.52s0.07-0.34,0.13-0.5
		s0.14-0.34,0.24-0.53l0.41,0.17c-0.07,0.16-0.13,0.3-0.17,0.44c-0.04,0.14-0.07,0.28-0.08,0.42c-0.01,0.14-0.01,0.29,0.01,0.44
		s0.06,0.32,0.11,0.49c0.05,0.17,0.11,0.33,0.18,0.47c0.07,0.14,0.15,0.27,0.24,0.39c0.09,0.12,0.19,0.22,0.3,0.32
		c0.11,0.1,0.24,0.19,0.39,0.27l-0.25,0.37c-0.18-0.1-0.34-0.21-0.49-0.32c-0.14-0.11-0.27-0.23-0.39-0.36
		c-0.11-0.13-0.21-0.28-0.3-0.44C71.42,44.12,71.35,43.94,71.28,43.73z"/>
	<path class="st1" d="M73.98,44.09l-0.71-2.18l-0.47,0.44l-0.27-0.28l0.76-0.73l0.37-0.12l0.87,2.69L73.98,44.09z"/>
	<path class="st1" d="M76.18,42.14c0.07,0.2,0.12,0.39,0.14,0.57c0.02,0.18,0.03,0.36,0.01,0.53c-0.02,0.17-0.05,0.34-0.1,0.52
		s-0.12,0.35-0.21,0.54l-0.42-0.15c0.07-0.15,0.12-0.3,0.15-0.45c0.04-0.15,0.06-0.29,0.06-0.44c0-0.15-0.01-0.3-0.04-0.45
		c-0.03-0.15-0.07-0.32-0.13-0.49c-0.06-0.17-0.13-0.33-0.2-0.46c-0.07-0.13-0.16-0.25-0.25-0.36c-0.1-0.11-0.2-0.21-0.32-0.29
		c-0.12-0.09-0.25-0.17-0.4-0.26l0.24-0.38c0.19,0.1,0.35,0.19,0.5,0.29c0.15,0.1,0.28,0.21,0.4,0.33s0.23,0.26,0.32,0.41
		S76.11,41.94,76.18,42.14z"/>
</g>
<g>
	<path class="st2" d="M20.55,41.7l-0.86,2.79c-0.21,0.67-0.53,1.1-0.96,1.3c-0.43,0.2-0.95,0.21-1.57,0.02
		c-0.61-0.19-1.02-0.48-1.22-0.88c-0.2-0.4-0.2-0.95,0.02-1.65l0.85-2.74l0.95,0.29l-0.88,2.85c-0.11,0.36-0.13,0.65-0.06,0.9
		s0.26,0.41,0.57,0.51c0.18,0.06,0.34,0.08,0.48,0.08c0.14-0.01,0.27-0.05,0.38-0.12s0.21-0.19,0.29-0.34
		c0.08-0.15,0.16-0.34,0.23-0.57l0.84-2.73L20.55,41.7z"/>
	<path class="st2" d="M22.59,45.44c-0.17-0.14-0.34-0.27-0.53-0.4s-0.38-0.26-0.56-0.41c-0.14-0.11-0.25-0.21-0.35-0.31
		s-0.17-0.21-0.22-0.32c-0.05-0.12-0.08-0.24-0.09-0.38s0.02-0.29,0.06-0.47c0.11-0.42,0.35-0.7,0.72-0.86
		c0.37-0.15,0.86-0.15,1.45,0c0.25,0.07,0.51,0.17,0.79,0.3s0.5,0.29,0.69,0.47l-0.51,0.61c-0.13-0.13-0.3-0.25-0.5-0.37
		c-0.2-0.11-0.42-0.2-0.66-0.27c-0.31-0.08-0.54-0.09-0.7-0.04c-0.16,0.06-0.26,0.17-0.3,0.32s-0.02,0.29,0.06,0.4
		s0.17,0.2,0.26,0.27c0.14,0.11,0.31,0.23,0.5,0.37c0.19,0.13,0.38,0.27,0.55,0.41c0.1,0.09,0.2,0.18,0.29,0.27s0.16,0.19,0.21,0.3
		c0.05,0.11,0.08,0.24,0.1,0.38c0.01,0.14-0.01,0.31-0.06,0.49c-0.06,0.21-0.15,0.38-0.28,0.53c-0.13,0.14-0.29,0.25-0.48,0.33
		s-0.41,0.12-0.65,0.12c-0.24,0-0.51-0.04-0.8-0.11c-0.26-0.07-0.53-0.17-0.81-0.31c-0.28-0.14-0.53-0.31-0.77-0.52l0.54-0.61
		c0.19,0.17,0.39,0.31,0.58,0.42c0.2,0.11,0.41,0.2,0.64,0.26c0.33,0.09,0.58,0.1,0.75,0.03c0.17-0.07,0.27-0.18,0.31-0.33
		c0.02-0.07,0.02-0.14,0.01-0.2c-0.01-0.06-0.03-0.11-0.06-0.16c-0.03-0.05-0.06-0.09-0.1-0.13C22.64,45.5,22.61,45.47,22.59,45.44z
		"/>
	<path class="st2" d="M27.48,48.4l-0.14-1.33l-1.8-0.4l-0.68,1.15l-1.03-0.23l2.78-4.35l1.28,0.28l0.64,5.1L27.48,48.4z
		 M27.04,44.11l-1.08,1.88l1.3,0.29l-0.16-2.15L27.04,44.11z"/>
	<path class="st2" d="M34.09,48.8l-0.12,0.75l-2.98-0.48l0.77-4.78l0.98,0.16l-0.65,4.03L34.09,48.8z"/>
	<path class="st2" d="M34.61,47.19c0.1-0.83,0.36-1.42,0.78-1.78c0.43-0.36,1.03-0.49,1.82-0.4c0.4,0.05,0.73,0.14,0.99,0.29
		c0.26,0.15,0.47,0.34,0.61,0.58c0.15,0.24,0.24,0.51,0.28,0.83c0.04,0.32,0.03,0.67-0.01,1.06c-0.1,0.82-0.36,1.42-0.79,1.78
		c-0.43,0.36-1.04,0.5-1.83,0.4c-0.4-0.05-0.73-0.15-1-0.29s-0.46-0.34-0.6-0.58c-0.14-0.24-0.23-0.52-0.27-0.83
		C34.56,47.92,34.56,47.57,34.61,47.19z M38.06,47.55c0.03-0.22,0.04-0.44,0.02-0.65s-0.05-0.39-0.12-0.56s-0.17-0.3-0.3-0.41
		c-0.13-0.11-0.31-0.17-0.54-0.2c-0.25-0.03-0.46-0.01-0.64,0.05s-0.33,0.16-0.45,0.3c-0.12,0.14-0.22,0.32-0.29,0.54
		c-0.07,0.22-0.12,0.47-0.16,0.76c-0.03,0.23-0.03,0.45-0.02,0.65c0.01,0.21,0.05,0.39,0.12,0.56c0.07,0.16,0.17,0.3,0.3,0.4
		s0.31,0.17,0.53,0.2c0.25,0.03,0.47,0.02,0.65-0.04c0.18-0.06,0.33-0.16,0.45-0.3c0.12-0.14,0.21-0.32,0.28-0.54
		C37.97,48.09,38.03,47.84,38.06,47.55z"/>
	<path class="st2" d="M41.88,50.45c-0.4-0.03-0.75-0.11-1.03-0.24c-0.28-0.13-0.5-0.3-0.67-0.53s-0.28-0.49-0.35-0.81
		c-0.06-0.32-0.08-0.67-0.06-1.08c0.06-0.84,0.3-1.45,0.72-1.83c0.42-0.39,1.01-0.55,1.75-0.5c0.15,0.01,0.3,0.03,0.46,0.07
		c0.16,0.04,0.31,0.09,0.46,0.15c0.15,0.06,0.28,0.14,0.41,0.24c0.13,0.1,0.24,0.21,0.34,0.33l-0.62,0.52
		c-0.12-0.17-0.27-0.29-0.45-0.39c-0.17-0.09-0.38-0.15-0.62-0.16c-0.87-0.06-1.35,0.51-1.43,1.71c-0.07,1.07,0.33,1.64,1.19,1.69
		c0.27,0.02,0.52,0,0.75-0.04c0.23-0.05,0.46-0.11,0.67-0.18l0.17,0.76c-0.22,0.1-0.48,0.18-0.8,0.23S42.18,50.47,41.88,50.45z"/>
	<path class="st2" d="M47.78,50.57l-0.4-1.27l-1.84-0.03l-0.43,1.26l-1.05-0.02l1.86-4.81l1.31,0.02l1.65,4.87L47.78,50.57z
		 M46.49,46.46l-0.68,2.05l1.33,0.02l-0.59-2.08L46.49,46.46z"/>
	<path class="st2" d="M52.82,45.61l0.03,0.76l-1.45,0.05l0.14,4.08l-0.99,0.03l-0.14-4.08l-1.45,0.05l-0.03-0.76L52.82,45.61z"/>
	<path class="st2" d="M53.35,45.56l1-0.07l0.33,4.83l-1,0.07L53.35,45.56z"/>
	<path class="st2" d="M55.39,47.84c-0.09-0.83,0.03-1.46,0.36-1.91s0.89-0.71,1.68-0.8c0.4-0.04,0.74-0.02,1.03,0.06
		c0.29,0.08,0.53,0.23,0.73,0.42c0.2,0.2,0.35,0.45,0.46,0.75c0.11,0.3,0.18,0.65,0.23,1.04c0.09,0.82-0.03,1.46-0.37,1.91
		s-0.9,0.72-1.69,0.81c-0.4,0.04-0.75,0.02-1.04-0.06c-0.29-0.09-0.53-0.23-0.72-0.43c-0.19-0.2-0.34-0.45-0.45-0.75
		C55.51,48.57,55.43,48.22,55.39,47.84z M58.84,47.41c-0.03-0.22-0.07-0.44-0.12-0.64c-0.06-0.2-0.14-0.37-0.24-0.52
		c-0.1-0.14-0.23-0.25-0.38-0.33s-0.34-0.1-0.57-0.07c-0.25,0.03-0.45,0.09-0.61,0.19s-0.28,0.23-0.37,0.4
		c-0.09,0.16-0.14,0.36-0.16,0.59c-0.02,0.23-0.01,0.49,0.02,0.77c0.03,0.23,0.07,0.44,0.13,0.64c0.06,0.2,0.14,0.37,0.24,0.52
		c0.1,0.14,0.23,0.25,0.38,0.32c0.15,0.07,0.34,0.09,0.56,0.07c0.25-0.03,0.46-0.09,0.62-0.19c0.16-0.1,0.29-0.23,0.37-0.39
		c0.08-0.16,0.13-0.36,0.15-0.59S58.87,47.7,58.84,47.41z"/>
	<path class="st2" d="M64.68,44.09l0.84,4.77l-1.69,0.3l-2.33-3.75l-0.06,0.01l0.71,4.03l-0.98,0.17l-0.84-4.77l1.69-0.3l2.33,3.75
		l0.06-0.01l-0.71-4.03L64.68,44.09z"/>
	<path class="st2" d="M68.28,46.42c-0.21-0.05-0.43-0.08-0.66-0.1s-0.46-0.05-0.68-0.1c-0.17-0.03-0.32-0.07-0.45-0.11
		c-0.13-0.04-0.25-0.1-0.35-0.18s-0.18-0.17-0.25-0.29c-0.07-0.12-0.12-0.26-0.17-0.44c-0.1-0.42-0.02-0.79,0.23-1.1
		s0.68-0.54,1.28-0.68c0.25-0.06,0.53-0.1,0.83-0.11s0.58,0.01,0.83,0.09l-0.16,0.78c-0.18-0.05-0.38-0.08-0.61-0.09
		c-0.23,0-0.47,0.02-0.71,0.08c-0.31,0.07-0.52,0.17-0.64,0.3s-0.15,0.27-0.11,0.43s0.12,0.26,0.24,0.32
		c0.12,0.06,0.24,0.09,0.35,0.11c0.18,0.03,0.38,0.06,0.62,0.08s0.46,0.06,0.68,0.11c0.13,0.03,0.26,0.06,0.38,0.1
		c0.12,0.04,0.23,0.09,0.33,0.17c0.1,0.07,0.19,0.17,0.27,0.29s0.14,0.27,0.18,0.46c0.05,0.21,0.05,0.41,0.01,0.6
		c-0.04,0.19-0.13,0.36-0.27,0.52c-0.13,0.16-0.31,0.29-0.52,0.41c-0.21,0.12-0.47,0.21-0.76,0.28c-0.26,0.06-0.55,0.1-0.86,0.11
		s-0.62-0.02-0.93-0.09l0.19-0.79c0.25,0.06,0.49,0.09,0.71,0.09s0.45-0.02,0.69-0.08c0.33-0.08,0.56-0.19,0.68-0.33
		c0.12-0.14,0.16-0.28,0.12-0.44c-0.02-0.07-0.04-0.13-0.08-0.18c-0.04-0.05-0.08-0.08-0.13-0.11c-0.05-0.03-0.1-0.05-0.15-0.07
		S68.32,46.43,68.28,46.42z"/>
	<path class="st2" d="M71.28,43.73c-0.06-0.21-0.1-0.4-0.12-0.58c-0.02-0.18-0.01-0.35,0.01-0.52s0.07-0.34,0.13-0.5
		s0.14-0.34,0.24-0.53l0.41,0.17c-0.07,0.16-0.13,0.3-0.17,0.44c-0.04,0.14-0.07,0.28-0.08,0.42c-0.01,0.14-0.01,0.29,0.01,0.44
		s0.06,0.32,0.11,0.49c0.05,0.17,0.11,0.33,0.18,0.47c0.07,0.14,0.15,0.27,0.24,0.39c0.09,0.12,0.19,0.22,0.3,0.32
		c0.11,0.1,0.24,0.19,0.39,0.27l-0.25,0.37c-0.18-0.1-0.34-0.21-0.49-0.32c-0.14-0.11-0.27-0.23-0.39-0.36
		c-0.11-0.13-0.21-0.28-0.3-0.44C71.42,44.12,71.35,43.94,71.28,43.73z"/>
	<path class="st2" d="M73.98,44.09l-0.71-2.18l-0.47,0.44l-0.27-0.28l0.76-0.73l0.37-0.12l0.87,2.69L73.98,44.09z"/>
	<path class="st2" d="M76.18,42.14c0.07,0.2,0.12,0.39,0.14,0.57c0.02,0.18,0.03,0.36,0.01,0.53c-0.02,0.17-0.05,0.34-0.1,0.52
		s-0.12,0.35-0.21,0.54l-0.42-0.15c0.07-0.15,0.12-0.3,0.15-0.45c0.04-0.15,0.06-0.29,0.06-0.44c0-0.15-0.01-0.3-0.04-0.45
		c-0.03-0.15-0.07-0.32-0.13-0.49c-0.06-0.17-0.13-0.33-0.2-0.46c-0.07-0.13-0.16-0.25-0.25-0.36c-0.1-0.11-0.2-0.21-0.32-0.29
		c-0.12-0.09-0.25-0.17-0.4-0.26l0.24-0.38c0.19,0.1,0.35,0.19,0.5,0.29c0.15,0.1,0.28,0.21,0.4,0.33s0.23,0.26,0.32,0.41
		S76.11,41.94,76.18,42.14z"/>
</g>
<g>
	<path class="st2" d="M21.55,38.02c-0.96,0-1.83-0.14-2.61-0.43c-0.78-0.29-1.41-0.65-1.89-1.1l1.28-1.59
		c0.36,0.28,0.81,0.53,1.36,0.75c0.55,0.22,1.15,0.33,1.8,0.33c0.34,0,0.67-0.04,0.98-0.12s0.57-0.19,0.79-0.35
		c0.22-0.16,0.4-0.36,0.54-0.6c0.13-0.24,0.2-0.53,0.2-0.86c0-0.61-0.22-1.07-0.65-1.39s-1.05-0.47-1.86-0.47
		c-0.45,0-0.79,0.03-1.02,0.08c-0.24,0.05-0.42,0.1-0.56,0.13l-0.1-2.07h0.88c0.27,0,0.57-0.03,0.91-0.08
		c0.34-0.05,0.66-0.14,0.96-0.28c0.3-0.13,0.55-0.32,0.75-0.54s0.3-0.52,0.3-0.88c0-0.57-0.19-0.98-0.57-1.23
		c-0.38-0.24-0.86-0.36-1.44-0.36c-0.55,0-1.09,0.09-1.63,0.28c-0.54,0.19-1.01,0.42-1.44,0.72l-0.98-1.65
		c0.42-0.32,1-0.62,1.74-0.89c0.74-0.27,1.59-0.41,2.54-0.41c0.66,0,1.27,0.06,1.81,0.17c0.54,0.11,1.01,0.3,1.4,0.55
		c0.39,0.25,0.69,0.59,0.9,1c0.21,0.41,0.32,0.92,0.32,1.52c0,0.29-0.06,0.58-0.17,0.85c-0.12,0.27-0.27,0.53-0.46,0.76
		c-0.19,0.23-0.41,0.43-0.65,0.6s-0.48,0.3-0.73,0.39c0.34,0.13,0.67,0.28,0.98,0.47c0.31,0.18,0.57,0.41,0.79,0.66
		c0.22,0.25,0.4,0.55,0.53,0.89s0.19,0.73,0.19,1.18c0,0.69-0.13,1.28-0.39,1.78c-0.26,0.5-0.63,0.91-1.09,1.23
		c-0.47,0.33-1.01,0.56-1.65,0.72C22.97,37.94,22.28,38.02,21.55,38.02z"/>
	<path class="st2" d="M27.97,32.15c0-1.16,0.11-2.19,0.33-3.08c0.22-0.89,0.56-1.64,1.03-2.24c0.47-0.6,1.08-1.06,1.82-1.37
		c0.74-0.31,1.63-0.47,2.68-0.47c0.57,0,1.1,0.05,1.58,0.14s0.93,0.23,1.35,0.39l-0.57,1.82c-0.61-0.27-1.34-0.4-2.18-0.4
		c-0.56,0-1.04,0.08-1.44,0.24c-0.4,0.16-0.73,0.38-1,0.66c-0.26,0.28-0.47,0.62-0.61,1.01s-0.25,0.82-0.3,1.28
		c-0.01,0.03-0.02,0.07-0.02,0.13c0.29-0.17,0.6-0.29,0.92-0.38c0.51-0.15,1.01-0.23,1.51-0.23c1.39,0,2.45,0.32,3.17,0.97
		c0.72,0.64,1.08,1.64,1.08,2.99c0,0.64-0.1,1.22-0.3,1.75c-0.2,0.53-0.49,0.99-0.89,1.39s-0.88,0.7-1.45,0.92S33.43,38,32.68,38
		c-0.75,0-1.42-0.1-2.01-0.31c-0.59-0.2-1.08-0.54-1.48-1c-0.4-0.46-0.71-1.07-0.91-1.82S27.97,33.22,27.97,32.15z M30.62,33.69
		c0.08,0.73,0.27,1.32,0.58,1.78c0.31,0.45,0.81,0.68,1.5,0.68c1.38,0,2.07-0.79,2.07-2.38c0-0.63-0.19-1.14-0.56-1.53
		c-0.38-0.39-0.9-0.59-1.56-0.59c-0.45,0-0.87,0.06-1.26,0.19c-0.32,0.09-0.6,0.21-0.84,0.37c0,0.26,0.01,0.51,0.02,0.76
		S30.59,33.45,30.62,33.69z"/>
	<path class="st2" d="M38.33,39.9c0.25-0.38,0.45-0.76,0.58-1.13c0.13-0.37,0.23-0.74,0.3-1.1c0.06-0.36,0.1-0.73,0.11-1.09
		s0.02-0.73,0.02-1.1h2.28c0,0.62-0.04,1.19-0.11,1.69c-0.07,0.5-0.18,0.97-0.33,1.4c-0.15,0.43-0.33,0.83-0.55,1.21
		c-0.22,0.38-0.49,0.75-0.79,1.12L38.33,39.9z"/>
	<path class="st2" d="M48.3,38.02c-0.87,0-1.61-0.16-2.23-0.47c-0.62-0.31-1.13-0.75-1.53-1.32c-0.4-0.57-0.7-1.25-0.89-2.05
		c-0.19-0.8-0.29-1.69-0.29-2.67c0-0.98,0.1-1.88,0.29-2.68c0.19-0.8,0.49-1.49,0.89-2.06c0.4-0.57,0.91-1,1.53-1.31
		c0.62-0.31,1.36-0.46,2.23-0.46c0.85,0,1.59,0.15,2.2,0.46c0.61,0.31,1.12,0.74,1.52,1.31c0.4,0.57,0.7,1.25,0.89,2.06
		s0.29,1.7,0.29,2.68c0,0.98-0.1,1.87-0.29,2.67c-0.19,0.8-0.49,1.48-0.89,2.05c-0.4,0.57-0.91,1.01-1.52,1.32
		S49.15,38.02,48.3,38.02z M48.3,26.92c-0.43,0-0.81,0.11-1.12,0.33s-0.57,0.53-0.77,0.93c-0.2,0.4-0.34,0.89-0.44,1.46
		s-0.14,1.2-0.14,1.88c0,0.69,0.05,1.32,0.14,1.88s0.24,1.05,0.44,1.44c0.2,0.4,0.45,0.7,0.77,0.92s0.69,0.33,1.12,0.33
		c0.83,0,1.44-0.41,1.83-1.23c0.39-0.82,0.58-1.94,0.58-3.34c0-0.7-0.05-1.34-0.14-1.9c-0.1-0.57-0.24-1.05-0.44-1.44
		c-0.2-0.4-0.45-0.7-0.75-0.92S48.72,26.92,48.3,26.92z"/>
	<path class="st2" d="M59.05,38.02c-0.87,0-1.61-0.16-2.23-0.47c-0.62-0.31-1.13-0.75-1.53-1.32c-0.4-0.57-0.7-1.25-0.89-2.05
		c-0.19-0.8-0.29-1.69-0.29-2.67c0-0.98,0.1-1.88,0.29-2.68s0.49-1.49,0.89-2.06c0.4-0.57,0.91-1,1.53-1.31
		c0.62-0.31,1.36-0.46,2.23-0.46c0.85,0,1.59,0.15,2.2,0.46c0.61,0.31,1.12,0.74,1.52,1.31c0.4,0.57,0.7,1.25,0.89,2.06
		s0.29,1.7,0.29,2.68c0,0.98-0.1,1.87-0.29,2.67c-0.19,0.8-0.49,1.48-0.89,2.05c-0.4,0.57-0.91,1.01-1.52,1.32
		S59.91,38.02,59.05,38.02z M59.05,26.92c-0.43,0-0.81,0.11-1.12,0.33s-0.57,0.53-0.76,0.93c-0.2,0.4-0.34,0.89-0.44,1.46
		s-0.14,1.2-0.14,1.88c0,0.69,0.05,1.32,0.14,1.88s0.24,1.05,0.44,1.44c0.2,0.4,0.45,0.7,0.76,0.92s0.69,0.33,1.12,0.33
		c0.83,0,1.44-0.41,1.83-1.23c0.39-0.82,0.58-1.94,0.58-3.34c0-0.7-0.05-1.34-0.14-1.9c-0.1-0.57-0.24-1.05-0.44-1.44
		c-0.2-0.4-0.45-0.7-0.75-0.92S59.47,26.92,59.05,26.92z"/>
	<path class="st2" d="M69.81,38.02c-0.87,0-1.61-0.16-2.23-0.47c-0.62-0.31-1.13-0.75-1.53-1.32c-0.4-0.57-0.7-1.25-0.89-2.05
		c-0.19-0.8-0.29-1.69-0.29-2.67c0-0.98,0.1-1.88,0.29-2.68c0.19-0.8,0.49-1.49,0.89-2.06c0.4-0.57,0.91-1,1.53-1.31
		c0.62-0.31,1.36-0.46,2.23-0.46c0.85,0,1.59,0.15,2.2,0.46c0.61,0.31,1.12,0.74,1.52,1.31c0.4,0.57,0.7,1.25,0.89,2.06
		c0.19,0.8,0.29,1.7,0.29,2.68c0,0.98-0.1,1.87-0.29,2.67c-0.19,0.8-0.49,1.48-0.89,2.05c-0.4,0.57-0.91,1.01-1.52,1.32
		S70.66,38.02,69.81,38.02z M69.81,26.92c-0.43,0-0.81,0.11-1.12,0.33c-0.31,0.22-0.57,0.53-0.77,0.93c-0.2,0.4-0.34,0.89-0.44,1.46
		s-0.14,1.2-0.14,1.88c0,0.69,0.05,1.32,0.14,1.88s0.24,1.05,0.44,1.44c0.2,0.4,0.45,0.7,0.77,0.92c0.31,0.22,0.69,0.33,1.12,0.33
		c0.83,0,1.44-0.41,1.83-1.23c0.39-0.82,0.58-1.94,0.58-3.34c0-0.7-0.05-1.34-0.14-1.9c-0.1-0.57-0.24-1.05-0.44-1.44
		c-0.2-0.4-0.45-0.7-0.75-0.92S70.23,26.92,69.81,26.92z"/>
</g>
</svg>
