<?xml version="1.0" encoding="utf-8"?>
<!-- Generator: Adobe Illustrator 23.0.0, SVG Export Plug-In . SVG Version: 6.00 Build 0)  -->
<svg version="1.1" id="Layer_1" xmlns="http://www.w3.org/2000/svg" xmlns:xlink="http://www.w3.org/1999/xlink" x="0px" y="0px"
	 viewBox="0 0 83.83 81.44" style="enable-background:new 0 0 83.83 81.44;" xml:space="preserve">
<style type="text/css">
	.st0{fill:#939598;stroke:#6D6E71;stroke-width:0.625;stroke-miterlimit:10;}
	.st1{fill:#6D6E71;stroke:#6D6E71;stroke-width:0.625;stroke-miterlimit:10;}
	.st2{fill:#FFFFFF;}
</style>
<g>
	<g>
		<path class="st0" d="M41.71,23.15c6.11,0,11.07-4.95,11.07-11.07c0-6.11-4.95-11.07-11.07-11.07c-6.11,0-11.06,4.95-11.06,11.07
			C30.65,18.19,35.6,23.15,41.71,23.15z"/>
		<path class="st0" d="M55.52,41.62c1.43,3.42,3.89,6.68,8.01,8.95c4.27,2.35,9.37,4.77,16.89,3.13l2.5-4.5
			c0,0-9.56-1.33-13.89-4.75c-5.29-3.83-6.6-14.46-11.77-18.03c-3.31-2.45-12.63-1.45-15.54-1.43c-2.9-0.02-12.23-1.02-15.54,1.43
			c-5.18,3.57-6.49,14.2-11.78,18.03C10.06,47.88,0.5,49.21,0.5,49.21L3,53.7c7.52,1.64,12.62-0.78,16.89-3.13
			c4.12-2.27,6.58-5.53,8.01-8.96c0.82,5.22,1.32,11.17,1.59,15.13c0.06,1.16,0.98,2.7,2.34,4.21c-4.1-1.91-7.36-4.1-7.36-4.1l0,0
			c-2.59-1.32-4.64-2.61-7.71-2.74c-9.86-0.01-9.41,7.68-8.33,9.86c1.75,3.52,7.26,6.47,14.87,8.88c-3.89,0.94-7.35,1.9-9.88,2.91
			l2.93,4.56c8.5-0.73,17.27-1.78,25.37-3.18c8.11,1.4,16.88,2.46,25.37,3.18l2.93-4.56c-2.53-1.01-5.99-1.97-9.88-2.91
			c7.61-2.41,13.12-5.36,14.87-8.88c1.08-2.17,1.53-9.86-8.33-9.86c-3.06,0.12-5.11,1.41-7.69,2.73l0.01,0.01
			c0,0-2.84,1.93-6.57,3.75c0.86-1.21,1.43-2.51,1.51-3.84C54.2,52.8,54.7,46.84,55.52,41.62z"/>
	</g>
	<g>
		<path class="st1" d="M31.86,46.23v-6.47h7.62v1.89h-5.07v2.7h0.31c0.77,0,1.49,0.05,2.16,0.16s1.27,0.31,1.78,0.59
			c0.51,0.29,0.91,0.68,1.21,1.18c0.29,0.5,0.44,1.14,0.44,1.91c0,0.74-0.12,1.38-0.36,1.93c-0.24,0.55-0.59,1-1.03,1.37
			c-0.45,0.36-0.98,0.63-1.6,0.81c-0.62,0.18-1.3,0.27-2.04,0.27c-0.96,0-1.78-0.16-2.47-0.47s-1.28-0.72-1.78-1.22l1.36-1.55
			c0.42,0.37,0.87,0.67,1.34,0.9s1.01,0.34,1.63,0.34c0.76,0,1.35-0.17,1.76-0.52c0.41-0.35,0.61-0.88,0.61-1.62
			c0-0.42-0.09-0.78-0.28-1.07s-0.43-0.52-0.75-0.69c-0.31-0.17-0.68-0.29-1.09-0.37c-0.42-0.07-0.85-0.11-1.31-0.11H31.86z"/>
		<path class="st1" d="M43.88,52.37l4.4-10.7H41.7v-1.91h9.45v1.3l-4.61,11.31H43.88z"/>
	</g>
	<g>
		<path class="st2" d="M31.86,44.87V38.4h7.62v1.89h-5.07v2.7h0.31c0.77,0,1.49,0.05,2.16,0.16s1.27,0.31,1.78,0.59
			c0.51,0.29,0.91,0.68,1.21,1.18c0.29,0.5,0.44,1.14,0.44,1.91c0,0.74-0.12,1.38-0.36,1.93c-0.24,0.55-0.59,1-1.03,1.37
			c-0.45,0.36-0.98,0.63-1.6,0.81c-0.62,0.18-1.3,0.27-2.04,0.27c-0.96,0-1.78-0.16-2.47-0.47s-1.28-0.72-1.78-1.22l1.36-1.55
			c0.42,0.37,0.87,0.67,1.34,0.9s1.01,0.34,1.63,0.34c0.76,0,1.35-0.17,1.76-0.52c0.41-0.35,0.61-0.88,0.61-1.62
			c0-0.42-0.09-0.78-0.28-1.07s-0.43-0.52-0.75-0.69c-0.31-0.17-0.68-0.29-1.09-0.37c-0.42-0.07-0.85-0.11-1.31-0.11H31.86z"/>
		<path class="st2" d="M43.88,51.01l4.4-10.7H41.7V38.4h9.45v1.3l-4.61,11.31H43.88z"/>
	</g>
	<g>
		<path class="st1" d="M25.94,59.58l-0.55,4.81l-0.98-0.11l0.47-4.07L24.8,60.2l-1.4,3.96l-1.3-0.15l-0.48-4.18l-0.06-0.01
			l-0.47,4.07l-0.99-0.11l0.55-4.81l1.74,0.2l0.44,4.17l0.06,0.01l1.35-3.97L25.94,59.58z"/>
		<path class="st1" d="M27.06,59.66l0.99,0.09l-0.42,4.83l-0.99-0.09L27.06,59.66z"/>
		<path class="st1" d="M31.93,64.13l-0.05,0.76l-3.01-0.21l0.34-4.83l1,0.07l-0.29,4.07L31.93,64.13z"/>
		<path class="st1" d="M35.69,64.31l-0.04,0.76l-3.01-0.15l0.24-4.84l1,0.05l-0.2,4.07L35.69,64.31z"/>
		<path class="st1" d="M36.59,60.26l1,0.03l-0.16,4.84l-1-0.03L36.59,60.26z"/>
		<path class="st1" d="M38.52,62.73c0.01-0.83,0.21-1.45,0.59-1.85c0.39-0.4,0.98-0.6,1.77-0.59c0.4,0,0.74,0.07,1.01,0.19
			c0.28,0.12,0.5,0.29,0.67,0.51c0.17,0.22,0.29,0.49,0.36,0.8c0.07,0.31,0.1,0.66,0.1,1.06c-0.01,0.83-0.21,1.45-0.6,1.85
			c-0.39,0.41-0.98,0.6-1.77,0.59c-0.41,0-0.75-0.07-1.02-0.19c-0.28-0.12-0.5-0.29-0.66-0.52c-0.17-0.22-0.28-0.49-0.35-0.8
			C38.55,63.46,38.52,63.11,38.52,62.73z M42,62.73c0-0.22-0.01-0.44-0.04-0.65c-0.03-0.21-0.09-0.39-0.17-0.54
			c-0.08-0.16-0.2-0.28-0.34-0.37c-0.14-0.09-0.33-0.14-0.55-0.14c-0.25,0-0.46,0.04-0.63,0.11c-0.17,0.08-0.31,0.19-0.41,0.35
			c-0.11,0.15-0.18,0.34-0.23,0.57s-0.07,0.48-0.08,0.77c0,0.23,0.01,0.45,0.05,0.65s0.09,0.39,0.18,0.54
			c0.08,0.16,0.2,0.28,0.34,0.37c0.14,0.09,0.33,0.14,0.55,0.14c0.25,0,0.47-0.03,0.64-0.11c0.17-0.08,0.31-0.19,0.41-0.34
			c0.1-0.15,0.18-0.34,0.22-0.57C41.97,63.28,41.99,63.02,42,62.73z"/>
		<path class="st1" d="M48.4,60.32l0.08,4.84l-1.72,0.03l-1.71-4.07l-0.06,0l0.07,4.09l-1,0.02l-0.08-4.84l1.72-0.03l1.71,4.07
			l0.06,0l-0.07-4.09L48.4,60.32z"/>
		<path class="st1" d="M55.26,59.98l0.17,2.91c0.04,0.7-0.11,1.22-0.44,1.56c-0.33,0.34-0.82,0.53-1.47,0.56
			c-0.64,0.04-1.12-0.09-1.46-0.4c-0.33-0.3-0.52-0.82-0.56-1.55l-0.17-2.86l0.99-0.06l0.17,2.98c0.02,0.37,0.11,0.66,0.26,0.86
			c0.15,0.2,0.39,0.29,0.71,0.27c0.19-0.01,0.35-0.04,0.48-0.1c0.13-0.05,0.23-0.14,0.31-0.25c0.08-0.11,0.13-0.25,0.16-0.42
			c0.03-0.17,0.03-0.37,0.02-0.61l-0.17-2.85L55.26,59.98z"/>
		<path class="st1" d="M58.57,62.79c-0.2-0.08-0.42-0.14-0.64-0.19c-0.22-0.05-0.44-0.12-0.66-0.19c-0.17-0.05-0.31-0.11-0.43-0.18
			c-0.12-0.06-0.23-0.14-0.32-0.23c-0.09-0.09-0.16-0.2-0.21-0.33c-0.05-0.13-0.08-0.28-0.1-0.46c-0.04-0.43,0.09-0.78,0.39-1.05
			c0.3-0.27,0.75-0.44,1.36-0.49c0.26-0.02,0.54-0.02,0.84,0.01c0.3,0.03,0.57,0.1,0.81,0.21l-0.27,0.75
			c-0.17-0.08-0.37-0.14-0.6-0.18c-0.23-0.04-0.47-0.05-0.71-0.03c-0.32,0.03-0.54,0.1-0.67,0.21c-0.13,0.11-0.19,0.25-0.17,0.41
			c0.01,0.16,0.08,0.28,0.19,0.35c0.11,0.07,0.22,0.13,0.33,0.16c0.17,0.05,0.37,0.11,0.6,0.17c0.23,0.06,0.45,0.13,0.65,0.2
			c0.12,0.05,0.24,0.1,0.36,0.15s0.22,0.12,0.3,0.21s0.16,0.2,0.22,0.33c0.06,0.13,0.1,0.29,0.11,0.48
			c0.02,0.21-0.01,0.41-0.08,0.59c-0.07,0.18-0.18,0.34-0.34,0.47c-0.15,0.14-0.34,0.25-0.57,0.33s-0.49,0.14-0.79,0.17
			c-0.27,0.02-0.56,0.02-0.86-0.02c-0.31-0.04-0.61-0.11-0.9-0.22l0.3-0.76c0.24,0.09,0.47,0.16,0.69,0.19s0.45,0.04,0.69,0.02
			c0.34-0.03,0.58-0.11,0.72-0.23c0.13-0.12,0.2-0.26,0.18-0.42c-0.01-0.07-0.03-0.13-0.06-0.19c-0.03-0.05-0.07-0.09-0.11-0.13
			c-0.04-0.04-0.09-0.07-0.14-0.09C58.64,62.82,58.6,62.81,58.57,62.79z"/>
		<path class="st1" d="M64.24,63.94l-0.57-1.2l-1.83,0.22l-0.26,1.3l-1.04,0.13l1.18-5.02l1.3-0.16l2.3,4.6L64.24,63.94z
			 M62.39,60.04L62,62.17l1.32-0.16l-0.87-1.98L62.39,60.04z"/>
	</g>
	<g>
		<path class="st1" d="M29.27,68.19L28.71,73l-0.98-0.11l0.47-4.07l-0.07-0.01l-1.4,3.96l-1.3-0.15l-0.48-4.18l-0.06-0.01
			l-0.47,4.07l-0.99-0.11l0.56-4.81l1.74,0.2l0.44,4.17l0.06,0.01l1.35-3.97L29.27,68.19z"/>
		<path class="st1" d="M33.34,72.59l-0.06,0.76l-3.25-0.25l0.36-4.83l3.17,0.24l-0.06,0.76l-2.18-0.16l-0.09,1.21l2.1,0.16
			l-0.06,0.75l-2.1-0.16l-0.1,1.35L33.34,72.59z"/>
		<path class="st1" d="M39.93,68.79l-0.18,4.84l-0.99-0.04l0.15-4.09l-0.07,0l-1.09,4.06l-1.31-0.05l-0.8-4.13l-0.06,0l-0.15,4.09
			l-1-0.04l0.18-4.84l1.75,0.06l0.76,4.12l0.06,0l1.03-4.06L39.93,68.79z"/>
		<path class="st1" d="M43.96,71.03c0.26,0.09,0.46,0.23,0.63,0.42c0.16,0.19,0.25,0.44,0.25,0.73c0,0.25-0.04,0.47-0.13,0.66
			s-0.21,0.33-0.36,0.45c-0.15,0.12-0.33,0.2-0.54,0.26c-0.2,0.05-0.42,0.08-0.65,0.08l-2.09,0.01l-0.02-4.84l1.97-0.01
			c0.26,0,0.49,0.02,0.7,0.06c0.21,0.04,0.38,0.11,0.52,0.21c0.14,0.1,0.25,0.22,0.33,0.38c0.08,0.16,0.11,0.34,0.11,0.57
			c0,0.24-0.06,0.44-0.19,0.62C44.36,70.8,44.18,70.93,43.96,71.03z M43.65,70.14c0-0.12-0.02-0.22-0.06-0.3
			c-0.04-0.08-0.09-0.14-0.15-0.18s-0.13-0.07-0.22-0.09c-0.08-0.02-0.17-0.02-0.26-0.02l-0.96,0l0,1.2l0.97,0
			c0.2,0,0.36-0.05,0.49-0.16C43.59,70.48,43.65,70.34,43.65,70.14z M42.99,72.86c0.1,0,0.21-0.01,0.3-0.03
			c0.1-0.02,0.18-0.05,0.25-0.11c0.07-0.05,0.12-0.12,0.17-0.21c0.04-0.09,0.06-0.2,0.06-0.34c0-0.14-0.02-0.25-0.06-0.34
			c-0.04-0.09-0.1-0.17-0.17-0.22c-0.07-0.06-0.16-0.09-0.25-0.12s-0.2-0.03-0.3-0.03l-0.98,0l0,1.4L42.99,72.86z"/>
		<path class="st1" d="M49.1,72.71l0.03,0.76l-3.26,0.12l-0.17-4.84l3.18-0.11l0.03,0.76l-2.18,0.08l0.04,1.21l2.11-0.08l0.03,0.75
			l-2.11,0.08l0.05,1.35L49.1,72.71z"/>
		<path class="st1" d="M50.3,73.41l-0.33-4.83l1.93-0.13c0.56-0.04,1,0.04,1.32,0.24c0.32,0.2,0.5,0.55,0.53,1.05
			c0.02,0.33-0.03,0.6-0.15,0.83c-0.12,0.23-0.3,0.4-0.54,0.53c-0.02,0.01-0.04,0.02-0.05,0.03c-0.02,0.01-0.04,0.02-0.05,0.03
			l1.2,1.99l-1.07,0.07l-1.09-1.84l-0.83,0.06l0.13,1.91L50.3,73.41z M52.01,70.63c0.09-0.01,0.19-0.03,0.28-0.06
			c0.09-0.03,0.17-0.08,0.24-0.14c0.07-0.06,0.12-0.15,0.16-0.25c0.04-0.1,0.05-0.23,0.04-0.37c-0.01-0.13-0.04-0.23-0.09-0.31
			c-0.05-0.08-0.12-0.14-0.2-0.19s-0.16-0.08-0.26-0.09s-0.18-0.02-0.27-0.01l-0.91,0.06l0.1,1.42L52.01,70.63z"/>
		<path class="st1" d="M56.86,71.1c-0.2-0.07-0.42-0.13-0.64-0.18s-0.45-0.11-0.66-0.18c-0.17-0.05-0.31-0.11-0.44-0.17
			c-0.12-0.06-0.23-0.14-0.32-0.22s-0.16-0.2-0.21-0.32c-0.05-0.12-0.09-0.28-0.11-0.46c-0.04-0.43,0.08-0.78,0.37-1.06
			s0.75-0.45,1.36-0.51c0.26-0.03,0.54-0.03,0.84,0s0.57,0.09,0.82,0.19l-0.26,0.75c-0.17-0.08-0.37-0.13-0.6-0.17
			c-0.23-0.04-0.47-0.04-0.71-0.01c-0.32,0.03-0.54,0.11-0.67,0.22c-0.13,0.11-0.19,0.25-0.17,0.41c0.02,0.16,0.08,0.28,0.19,0.35
			c0.11,0.07,0.22,0.12,0.33,0.16c0.17,0.05,0.37,0.1,0.6,0.16c0.23,0.06,0.45,0.12,0.66,0.19c0.12,0.05,0.25,0.09,0.36,0.15
			c0.12,0.05,0.22,0.12,0.31,0.21c0.09,0.09,0.17,0.19,0.23,0.32c0.06,0.13,0.1,0.29,0.12,0.48c0.02,0.21,0,0.41-0.07,0.59
			s-0.18,0.34-0.33,0.48s-0.34,0.25-0.57,0.34c-0.23,0.09-0.49,0.15-0.79,0.18c-0.27,0.03-0.56,0.03-0.86-0.01s-0.61-0.1-0.91-0.21
			l0.29-0.76c0.24,0.09,0.47,0.15,0.69,0.18c0.22,0.03,0.45,0.04,0.69,0.01c0.34-0.04,0.58-0.11,0.71-0.24
			c0.13-0.12,0.19-0.26,0.17-0.42c-0.01-0.07-0.03-0.13-0.06-0.19s-0.07-0.09-0.12-0.13c-0.04-0.03-0.09-0.06-0.14-0.08
			S56.89,71.11,56.86,71.1z"/>
		<path class="st1" d="M59.65,68.93c-0.03-0.22-0.04-0.41-0.03-0.59s0.04-0.35,0.09-0.51c0.05-0.16,0.12-0.32,0.21-0.48
			c0.09-0.16,0.19-0.32,0.31-0.48l0.38,0.23c-0.09,0.14-0.17,0.28-0.24,0.41c-0.06,0.13-0.11,0.27-0.15,0.41
			c-0.03,0.14-0.05,0.29-0.06,0.44s0.01,0.32,0.03,0.5c0.03,0.18,0.06,0.35,0.11,0.5c0.05,0.15,0.1,0.29,0.17,0.42
			c0.07,0.13,0.15,0.25,0.25,0.36c0.1,0.11,0.21,0.22,0.34,0.33l-0.3,0.32c-0.16-0.13-0.31-0.26-0.43-0.39
			c-0.13-0.13-0.24-0.27-0.33-0.41s-0.17-0.3-0.23-0.48S59.68,69.14,59.65,68.93z"/>
		<path class="st1" d="M62.34,69.69l-0.35-2.27l-0.54,0.36l-0.22-0.32l0.87-0.6l0.38-0.06l0.43,2.79L62.34,69.69z"/>
		<path class="st1" d="M64.97,68.1c0.04,0.21,0.05,0.41,0.05,0.59c-0.01,0.18-0.03,0.36-0.07,0.52c-0.04,0.17-0.11,0.33-0.19,0.49
			s-0.18,0.33-0.29,0.5l-0.39-0.21c0.09-0.14,0.17-0.28,0.23-0.42c0.06-0.14,0.1-0.28,0.13-0.42c0.03-0.14,0.04-0.29,0.04-0.45
			c0-0.16-0.02-0.32-0.05-0.5c-0.03-0.18-0.07-0.35-0.12-0.49c-0.05-0.14-0.11-0.28-0.19-0.4c-0.08-0.12-0.16-0.24-0.27-0.34
			c-0.1-0.11-0.22-0.21-0.35-0.32l0.3-0.33c0.17,0.12,0.32,0.25,0.44,0.37s0.24,0.25,0.34,0.39c0.1,0.14,0.18,0.29,0.25,0.46
			S64.93,67.89,64.97,68.1z"/>
	</g>
	<g>
		<path class="st2" d="M25.94,59.58l-0.55,4.81l-0.98-0.11l0.47-4.07L24.8,60.2l-1.4,3.96l-1.3-0.15l-0.48-4.18l-0.06-0.01
			l-0.47,4.07l-0.99-0.11l0.55-4.81l1.74,0.2l0.44,4.17l0.06,0.01l1.35-3.97L25.94,59.58z"/>
		<path class="st2" d="M27.06,59.66l0.99,0.09l-0.42,4.83l-0.99-0.09L27.06,59.66z"/>
		<path class="st2" d="M31.93,64.13l-0.05,0.76l-3.01-0.21l0.34-4.83l1,0.07l-0.29,4.07L31.93,64.13z"/>
		<path class="st2" d="M35.69,64.31l-0.04,0.76l-3.01-0.15l0.24-4.84l1,0.05l-0.2,4.07L35.69,64.31z"/>
		<path class="st2" d="M36.59,60.26l1,0.03l-0.16,4.84l-1-0.03L36.59,60.26z"/>
		<path class="st2" d="M38.52,62.73c0.01-0.83,0.21-1.45,0.59-1.85c0.39-0.4,0.98-0.6,1.77-0.59c0.4,0,0.74,0.07,1.01,0.19
			c0.28,0.12,0.5,0.29,0.67,0.51c0.17,0.22,0.29,0.49,0.36,0.8c0.07,0.31,0.1,0.66,0.1,1.06c-0.01,0.83-0.21,1.45-0.6,1.85
			c-0.39,0.41-0.98,0.6-1.77,0.59c-0.41,0-0.75-0.07-1.02-0.19c-0.28-0.12-0.5-0.29-0.66-0.52c-0.17-0.22-0.28-0.49-0.35-0.8
			C38.55,63.46,38.52,63.11,38.52,62.73z M42,62.73c0-0.22-0.01-0.44-0.04-0.65c-0.03-0.21-0.09-0.39-0.17-0.54
			c-0.08-0.16-0.2-0.28-0.34-0.37c-0.14-0.09-0.33-0.14-0.55-0.14c-0.25,0-0.46,0.04-0.63,0.11c-0.17,0.08-0.31,0.19-0.41,0.35
			c-0.11,0.15-0.18,0.34-0.23,0.57s-0.07,0.48-0.08,0.77c0,0.23,0.01,0.45,0.05,0.65s0.09,0.39,0.18,0.54
			c0.08,0.16,0.2,0.28,0.34,0.37c0.14,0.09,0.33,0.14,0.55,0.14c0.25,0,0.47-0.03,0.64-0.11c0.17-0.08,0.31-0.19,0.41-0.34
			c0.1-0.15,0.18-0.34,0.22-0.57C41.97,63.28,41.99,63.02,42,62.73z"/>
		<path class="st2" d="M48.4,60.32l0.08,4.84l-1.72,0.03l-1.71-4.07l-0.06,0l0.07,4.09l-1,0.02l-0.08-4.84l1.72-0.03l1.71,4.07
			l0.06,0l-0.07-4.09L48.4,60.32z"/>
		<path class="st2" d="M55.26,59.98l0.17,2.91c0.04,0.7-0.11,1.22-0.44,1.56c-0.33,0.34-0.82,0.53-1.47,0.56
			c-0.64,0.04-1.12-0.09-1.46-0.4c-0.33-0.3-0.52-0.82-0.56-1.55l-0.17-2.86l0.99-0.06l0.17,2.98c0.02,0.37,0.11,0.66,0.26,0.86
			c0.15,0.2,0.39,0.29,0.71,0.27c0.19-0.01,0.35-0.04,0.48-0.1c0.13-0.05,0.23-0.14,0.31-0.25c0.08-0.11,0.13-0.25,0.16-0.42
			c0.03-0.17,0.03-0.37,0.02-0.61l-0.17-2.85L55.26,59.98z"/>
		<path class="st2" d="M58.57,62.79c-0.2-0.08-0.42-0.14-0.64-0.19c-0.22-0.05-0.44-0.12-0.66-0.19c-0.17-0.05-0.31-0.11-0.43-0.18
			c-0.12-0.06-0.23-0.14-0.32-0.23c-0.09-0.09-0.16-0.2-0.21-0.33c-0.05-0.13-0.08-0.28-0.1-0.46c-0.04-0.43,0.09-0.78,0.39-1.05
			c0.3-0.27,0.75-0.44,1.36-0.49c0.26-0.02,0.54-0.02,0.84,0.01c0.3,0.03,0.57,0.1,0.81,0.21l-0.27,0.75
			c-0.17-0.08-0.37-0.14-0.6-0.18c-0.23-0.04-0.47-0.05-0.71-0.03c-0.32,0.03-0.54,0.1-0.67,0.21c-0.13,0.11-0.19,0.25-0.17,0.41
			c0.01,0.16,0.08,0.28,0.19,0.35c0.11,0.07,0.22,0.13,0.33,0.16c0.17,0.05,0.37,0.11,0.6,0.17c0.23,0.06,0.45,0.13,0.65,0.2
			c0.12,0.05,0.24,0.1,0.36,0.15s0.22,0.12,0.3,0.21s0.16,0.2,0.22,0.33c0.06,0.13,0.1,0.29,0.11,0.48
			c0.02,0.21-0.01,0.41-0.08,0.59c-0.07,0.18-0.18,0.34-0.34,0.47c-0.15,0.14-0.34,0.25-0.57,0.33s-0.49,0.14-0.79,0.17
			c-0.27,0.02-0.56,0.02-0.86-0.02c-0.31-0.04-0.61-0.11-0.9-0.22l0.3-0.76c0.24,0.09,0.47,0.16,0.69,0.19s0.45,0.04,0.69,0.02
			c0.34-0.03,0.58-0.11,0.72-0.23c0.13-0.12,0.2-0.26,0.18-0.42c-0.01-0.07-0.03-0.13-0.06-0.19c-0.03-0.05-0.07-0.09-0.11-0.13
			c-0.04-0.04-0.09-0.07-0.14-0.09C58.64,62.82,58.6,62.81,58.57,62.79z"/>
		<path class="st2" d="M64.24,63.94l-0.57-1.2l-1.83,0.22l-0.26,1.3l-1.04,0.13l1.18-5.02l1.3-0.16l2.3,4.6L64.24,63.94z
			 M62.39,60.04L62,62.17l1.32-0.16l-0.87-1.98L62.39,60.04z"/>
	</g>
	<g>
		<path class="st2" d="M29.27,68.19L28.71,73l-0.98-0.11l0.47-4.07l-0.07-0.01l-1.4,3.96l-1.3-0.15l-0.48-4.18l-0.06-0.01
			l-0.47,4.07l-0.99-0.11l0.56-4.81l1.74,0.2l0.44,4.17l0.06,0.01l1.35-3.97L29.27,68.19z"/>
		<path class="st2" d="M33.34,72.59l-0.06,0.76l-3.25-0.25l0.36-4.83l3.17,0.24l-0.06,0.76l-2.18-0.16l-0.09,1.21l2.1,0.16
			l-0.06,0.75l-2.1-0.16l-0.1,1.35L33.34,72.59z"/>
		<path class="st2" d="M39.93,68.79l-0.18,4.84l-0.99-0.04l0.15-4.09l-0.07,0l-1.09,4.06l-1.31-0.05l-0.8-4.13l-0.06,0l-0.15,4.09
			l-1-0.04l0.18-4.84l1.75,0.06l0.76,4.12l0.06,0l1.03-4.06L39.93,68.79z"/>
		<path class="st2" d="M43.96,71.03c0.26,0.09,0.46,0.23,0.63,0.42c0.16,0.19,0.25,0.44,0.25,0.73c0,0.25-0.04,0.47-0.13,0.66
			s-0.21,0.33-0.36,0.45c-0.15,0.12-0.33,0.2-0.54,0.26c-0.2,0.05-0.42,0.08-0.65,0.08l-2.09,0.01l-0.02-4.84l1.97-0.01
			c0.26,0,0.49,0.02,0.7,0.06c0.21,0.04,0.38,0.11,0.52,0.21c0.14,0.1,0.25,0.22,0.33,0.38c0.08,0.16,0.11,0.34,0.11,0.57
			c0,0.24-0.06,0.44-0.19,0.62C44.36,70.8,44.18,70.93,43.96,71.03z M43.65,70.14c0-0.12-0.02-0.22-0.06-0.3
			c-0.04-0.08-0.09-0.14-0.15-0.18s-0.13-0.07-0.22-0.09c-0.08-0.02-0.17-0.02-0.26-0.02l-0.96,0l0,1.2l0.97,0
			c0.2,0,0.36-0.05,0.49-0.16C43.59,70.48,43.65,70.34,43.65,70.14z M42.99,72.86c0.1,0,0.21-0.01,0.3-0.03
			c0.1-0.02,0.18-0.05,0.25-0.11c0.07-0.05,0.12-0.12,0.17-0.21c0.04-0.09,0.06-0.2,0.06-0.34c0-0.14-0.02-0.25-0.06-0.34
			c-0.04-0.09-0.1-0.17-0.17-0.22c-0.07-0.06-0.16-0.09-0.25-0.12s-0.2-0.03-0.3-0.03l-0.98,0l0,1.4L42.99,72.86z"/>
		<path class="st2" d="M49.1,72.71l0.03,0.76l-3.26,0.12l-0.17-4.84l3.18-0.11l0.03,0.76l-2.18,0.08l0.04,1.21l2.11-0.08l0.03,0.75
			l-2.11,0.08l0.05,1.35L49.1,72.71z"/>
		<path class="st2" d="M50.3,73.41l-0.33-4.83l1.93-0.13c0.56-0.04,1,0.04,1.32,0.24c0.32,0.2,0.5,0.55,0.53,1.05
			c0.02,0.33-0.03,0.6-0.15,0.83c-0.12,0.23-0.3,0.4-0.54,0.53c-0.02,0.01-0.04,0.02-0.05,0.03c-0.02,0.01-0.04,0.02-0.05,0.03
			l1.2,1.99l-1.07,0.07l-1.09-1.84l-0.83,0.06l0.13,1.91L50.3,73.41z M52.01,70.63c0.09-0.01,0.19-0.03,0.28-0.06
			c0.09-0.03,0.17-0.08,0.24-0.14c0.07-0.06,0.12-0.15,0.16-0.25c0.04-0.1,0.05-0.23,0.04-0.37c-0.01-0.13-0.04-0.23-0.09-0.31
			c-0.05-0.08-0.12-0.14-0.2-0.19s-0.16-0.08-0.26-0.09s-0.18-0.02-0.27-0.01l-0.91,0.06l0.1,1.42L52.01,70.63z"/>
		<path class="st2" d="M56.86,71.1c-0.2-0.07-0.42-0.13-0.64-0.18s-0.45-0.11-0.66-0.18c-0.17-0.05-0.31-0.11-0.44-0.17
			c-0.12-0.06-0.23-0.14-0.32-0.22s-0.16-0.2-0.21-0.32c-0.05-0.12-0.09-0.28-0.11-0.46c-0.04-0.43,0.08-0.78,0.37-1.06
			s0.75-0.45,1.36-0.51c0.26-0.03,0.54-0.03,0.84,0s0.57,0.09,0.82,0.19l-0.26,0.75c-0.17-0.08-0.37-0.13-0.6-0.17
			c-0.23-0.04-0.47-0.04-0.71-0.01c-0.32,0.03-0.54,0.11-0.67,0.22c-0.13,0.11-0.19,0.25-0.17,0.41c0.02,0.16,0.08,0.28,0.19,0.35
			c0.11,0.07,0.22,0.12,0.33,0.16c0.17,0.05,0.37,0.1,0.6,0.16c0.23,0.06,0.45,0.12,0.66,0.19c0.12,0.05,0.25,0.09,0.36,0.15
			c0.12,0.05,0.22,0.12,0.31,0.21c0.09,0.09,0.17,0.19,0.23,0.32c0.06,0.13,0.1,0.29,0.12,0.48c0.02,0.21,0,0.41-0.07,0.59
			s-0.18,0.34-0.33,0.48s-0.34,0.25-0.57,0.34c-0.23,0.09-0.49,0.15-0.79,0.18c-0.27,0.03-0.56,0.03-0.86-0.01s-0.61-0.1-0.91-0.21
			l0.29-0.76c0.24,0.09,0.47,0.15,0.69,0.18c0.22,0.03,0.45,0.04,0.69,0.01c0.34-0.04,0.58-0.11,0.71-0.24
			c0.13-0.12,0.19-0.26,0.17-0.42c-0.01-0.07-0.03-0.13-0.06-0.19s-0.07-0.09-0.12-0.13c-0.04-0.03-0.09-0.06-0.14-0.08
			S56.89,71.11,56.86,71.1z"/>
		<path class="st2" d="M59.65,68.93c-0.03-0.22-0.04-0.41-0.03-0.59s0.04-0.35,0.09-0.51c0.05-0.16,0.12-0.32,0.21-0.48
			c0.09-0.16,0.19-0.32,0.31-0.48l0.38,0.23c-0.09,0.14-0.17,0.28-0.24,0.41c-0.06,0.13-0.11,0.27-0.15,0.41
			c-0.03,0.14-0.05,0.29-0.06,0.44s0.01,0.32,0.03,0.5c0.03,0.18,0.06,0.35,0.11,0.5c0.05,0.15,0.1,0.29,0.17,0.42
			c0.07,0.13,0.15,0.25,0.25,0.36c0.1,0.11,0.21,0.22,0.34,0.33l-0.3,0.32c-0.16-0.13-0.31-0.26-0.43-0.39
			c-0.13-0.13-0.24-0.27-0.33-0.41s-0.17-0.3-0.23-0.48S59.68,69.14,59.65,68.93z"/>
		<path class="st2" d="M62.34,69.69l-0.35-2.27l-0.54,0.36l-0.22-0.32l0.87-0.6l0.38-0.06l0.43,2.79L62.34,69.69z"/>
		<path class="st2" d="M64.97,68.1c0.04,0.21,0.05,0.41,0.05,0.59c-0.01,0.18-0.03,0.36-0.07,0.52c-0.04,0.17-0.11,0.33-0.19,0.49
			s-0.18,0.33-0.29,0.5l-0.39-0.21c0.09-0.14,0.17-0.28,0.23-0.42c0.06-0.14,0.1-0.28,0.13-0.42c0.03-0.14,0.04-0.29,0.04-0.45
			c0-0.16-0.02-0.32-0.05-0.5c-0.03-0.18-0.07-0.35-0.12-0.49c-0.05-0.14-0.11-0.28-0.19-0.4c-0.08-0.12-0.16-0.24-0.27-0.34
			c-0.1-0.11-0.22-0.21-0.35-0.32l0.3-0.33c0.17,0.12,0.32,0.25,0.44,0.37s0.24,0.25,0.34,0.39c0.1,0.14,0.18,0.29,0.25,0.46
			S64.93,67.89,64.97,68.1z"/>
	</g>
</g>
</svg>
