<?xml version="1.0" encoding="utf-8"?>
<!-- Generator: Adobe Illustrator 23.0.0, SVG Export Plug-In . SVG Version: 6.00 Build 0)  -->
<svg version="1.1" id="Layer_1" xmlns="http://www.w3.org/2000/svg" xmlns:xlink="http://www.w3.org/1999/xlink" x="0px" y="0px"
	 viewBox="0 0 83.83 81.44" style="enable-background:new 0 0 83.83 81.44;" xml:space="preserve">
<style type="text/css">
	.st0{fill:#737272;}
	.st1{opacity:0.41;fill:#FFFFFF;}
</style>
<g>
	<polygon class="st0" points="70.89,63.14 70.89,60.04 74.58,60.04 74.58,56.15 70.89,56.15 70.89,53.04 74.58,53.04 74.58,49.15 
		70.89,49.15 70.89,46.05 74.58,46.05 74.58,42.16 70.89,42.16 70.89,39.05 74.58,39.05 74.58,35.16 70.89,35.16 70.89,32.06 
		74.58,32.06 74.58,28.17 70.89,28.17 70.89,25.06 74.58,25.06 74.58,21.17 70.89,21.17 70.89,18.07 74.58,18.07 74.58,13.78 
		69.36,8.7 65.46,8.7 65.46,12.29 62.27,12.29 62.27,8.7 58.27,8.7 58.27,12.29 55.08,12.29 55.08,8.7 51.08,8.7 51.08,12.29 
		47.89,12.29 47.89,8.7 43.9,8.7 43.9,12.29 40.71,12.29 40.71,8.7 36.71,8.7 36.71,12.29 33.52,12.29 33.52,8.7 29.53,8.7 
		29.53,12.29 26.34,12.29 26.34,8.7 22.34,8.7 22.34,12.29 19.15,12.29 19.15,8.7 14.26,8.7 9.04,13.78 9.04,18.07 12.73,18.07 
		12.73,21.17 9.04,21.17 9.04,25.06 12.73,25.06 12.73,28.17 9.04,28.17 9.04,32.06 12.73,32.06 12.73,35.16 9.04,35.16 9.04,39.05 
		12.73,39.05 12.73,42.16 9.04,42.16 9.04,46.05 12.73,46.05 12.73,49.15 9.04,49.15 9.04,53.04 12.73,53.04 12.73,56.15 
		9.04,56.15 9.04,60.04 12.73,60.04 12.73,63.14 9.04,63.14 9.04,67.45 14.23,72.51 19.15,72.51 19.15,68.91 22.34,68.91 
		22.34,72.51 26.34,72.51 26.34,68.91 29.53,68.91 29.53,72.51 33.52,72.51 33.52,68.91 36.71,68.91 36.71,72.51 40.71,72.51 
		40.71,68.91 43.9,68.91 43.9,72.51 47.89,72.51 47.89,68.91 51.08,68.91 51.08,72.51 55.08,72.51 55.08,68.91 58.27,68.91 
		58.27,72.51 62.27,72.51 62.27,68.91 65.46,68.91 65.46,72.51 69.36,72.51 74.58,67.42 74.58,63.14 	"/>
	<path class="st0" d="M79.38,18.97V7.35c0-1.83-1.53-3.33-3.42-3.33H7.65c-1.88,0-3.42,1.49-3.42,3.33v11.61H0.82V7.35
		c0-3.67,3.06-6.65,6.83-6.65h68.31c3.77,0,6.83,2.98,6.83,6.65v11.61H79.38z"/>
	<path class="st0" d="M7.65,80.51c-3.77,0-6.83-2.98-6.83-6.65V27.28h3.42v46.58c0,1.83,1.53,3.33,3.42,3.33h68.31
		c1.88,0,3.42-1.49,3.42-3.33V27.28h3.42v46.58c0,3.67-3.07,6.65-6.83,6.65H7.65z"/>
	<rect x="16.4" y="15.76" class="st1" width="50.82" height="49.69"/>
</g>
</svg>
