<?xml version="1.0" encoding="utf-8"?>
<!-- Generator: Adobe Illustrator 23.0.0, SVG Export Plug-In . SVG Version: 6.00 Build 0)  -->
<svg version="1.1" id="Layer_1" xmlns="http://www.w3.org/2000/svg" xmlns:xlink="http://www.w3.org/1999/xlink" x="0px" y="0px"
	 viewBox="0 0 110.62 110.38" style="enable-background:new 0 0 110.62 110.38;" xml:space="preserve">
<style type="text/css">
	.st0{fill:#737272;}
	.st1{opacity:0.41;fill:#FFFFFF;}
</style>
<g>
	<polygon class="st0" points="91.93,50.13 89.73,47.94 92.34,45.33 89.59,42.58 86.98,45.19 84.79,42.99 87.4,40.38 84.64,37.63 
		82.03,40.24 79.84,38.04 82.45,35.43 79.7,32.68 77.09,35.29 74.89,33.1 77.5,30.49 74.75,27.73 72.14,30.35 69.95,28.15 
		72.56,25.54 69.8,22.79 67.19,25.4 65,23.2 67.61,20.59 64.86,17.84 62.25,20.45 60.05,18.26 62.66,15.65 59.63,12.62 52.35,12.72 
		49.59,15.48 52.13,18.02 49.88,20.27 47.33,17.73 44.51,20.56 47.05,23.1 44.79,25.35 42.25,22.81 39.43,25.64 41.97,28.18 
		39.71,30.43 37.17,27.89 34.35,30.72 36.89,33.26 34.63,35.52 32.09,32.97 29.27,35.8 31.81,38.34 29.55,40.6 27.01,38.05 
		24.18,40.88 26.73,43.42 24.47,45.68 21.93,43.13 19.1,45.96 21.65,48.5 19.39,50.76 16.85,48.22 13.39,51.68 13.29,58.96 
		16.32,61.99 18.93,59.38 21.13,61.58 18.51,64.19 21.27,66.94 23.88,64.33 26.07,66.52 23.46,69.13 26.21,71.88 28.82,69.27 
		31.02,71.47 28.41,74.08 31.16,76.83 33.77,74.22 35.96,76.41 33.35,79.02 36.1,81.78 38.71,79.16 40.91,81.36 38.3,83.97 
		41.05,86.72 43.66,84.11 45.86,86.31 43.25,88.92 46,91.67 48.61,89.06 50.8,91.25 48.19,93.86 51.24,96.91 58.49,96.82 
		61.97,93.34 59.42,90.79 61.68,88.54 64.22,91.08 67.05,88.25 64.51,85.71 66.76,83.46 69.3,86 72.13,83.17 69.59,80.63 
		71.84,78.38 74.38,80.92 77.21,78.09 74.67,75.55 76.92,73.3 79.47,75.84 82.29,73.01 79.75,70.47 82,68.21 84.55,70.76 
		87.37,67.93 84.83,65.39 87.09,63.13 89.63,65.68 92.45,62.85 89.91,60.31 92.17,58.05 94.71,60.6 97.47,57.84 97.56,50.55 
		94.54,47.52 	"/>
	<path class="st0" d="M66.69,12.89l-8.21-8.21c-1.3-1.3-3.43-1.27-4.77,0.06l-48.3,48.3c-1.33,1.33-1.36,3.47-0.06,4.77l8.21,8.21
		l-2.41,2.41l-8.21-8.21c-2.59-2.59-2.54-6.87,0.13-9.53l48.3-48.3c2.66-2.66,6.94-2.72,9.53-0.13l8.21,8.21L66.69,12.89z"/>
	<path class="st0" d="M59.49,107.12c-2.66,2.66-6.94,2.72-9.53,0.13L17.02,74.32l2.42-2.42l32.93,32.93c1.3,1.3,3.43,1.27,4.77-0.06
		l48.3-48.3c1.33-1.33,1.36-3.47,0.06-4.77L72.57,18.77l2.42-2.42l32.93,32.93c2.59,2.59,2.54,6.87-0.13,9.53L59.49,107.12z"/>
	
		<rect x="30.02" y="29.91" transform="matrix(0.7071 -0.7071 0.7071 0.7071 -22.4828 55.2309)" class="st1" width="50.82" height="49.69"/>
</g>
</svg>
